<?xml version="1.0" encoding="utf-8" standalone="no"?>
<!DOCTYPE svg PUBLIC "-//W3C//DTD SVG 1.1//EN"
  "http://www.w3.org/Graphics/SVG/1.1/DTD/svg11.dtd">
<svg xmlns:xlink="http://www.w3.org/1999/xlink" width="792pt" height="648pt" viewBox="0 0 792 648" xmlns="http://www.w3.org/2000/svg" version="1.1">
 <metadata>
  <rdf:RDF xmlns:dc="http://purl.org/dc/elements/1.1/" xmlns:cc="http://creativecommons.org/ns#" xmlns:rdf="http://www.w3.org/1999/02/22-rdf-syntax-ns#">
   <cc:Work>
    <dc:type rdf:resource="http://purl.org/dc/dcmitype/StillImage"/>
    <dc:date>2022-10-12T13:55:44.935133</dc:date>
    <dc:format>image/svg+xml</dc:format>
    <dc:creator>
     <cc:Agent>
      <dc:title>Matplotlib v3.5.3, https://matplotlib.org/</dc:title>
     </cc:Agent>
    </dc:creator>
   </cc:Work>
  </rdf:RDF>
 </metadata>
 <defs>
  <style type="text/css">*{stroke-linejoin: round; stroke-linecap: butt}</style>
 </defs>
 <g id="figure_1">
  <g id="patch_1">
   <path d="M 0 648 
L 792 648 
L 792 0 
L 0 0 
z
" style="fill: #ffffff"/>
  </g>
  <g id="axes_1">
   <g id="patch_2">
    <path d="M 99 576.72 
L 712.8 576.72 
L 712.8 77.76 
L 99 77.76 
z
" style="fill: #ffffff"/>
   </g>
   <g id="matplotlib.axis_1">
    <g id="xtick_1">
     <g id="text_1">
      <!-- −7.5 -->
      <g style="fill: #262626" transform="translate(137.852173 594.093594)scale(0.11 -0.11)">
       <defs>
        <path id="ArialMT-2212" d="M 3381 1997 
L 356 1997 
L 356 2522 
L 3381 2522 
L 3381 1997 
z
" transform="scale(0.015625)"/>
        <path id="ArialMT-37" d="M 303 3981 
L 303 4522 
L 3269 4522 
L 3269 4084 
Q 2831 3619 2401 2847 
Q 1972 2075 1738 1259 
Q 1569 684 1522 0 
L 944 0 
Q 953 541 1156 1306 
Q 1359 2072 1739 2783 
Q 2119 3494 2547 3981 
L 303 3981 
z
" transform="scale(0.015625)"/>
        <path id="ArialMT-2e" d="M 581 0 
L 581 641 
L 1222 641 
L 1222 0 
L 581 0 
z
" transform="scale(0.015625)"/>
        <path id="ArialMT-35" d="M 266 1200 
L 856 1250 
Q 922 819 1161 601 
Q 1400 384 1738 384 
Q 2144 384 2425 690 
Q 2706 997 2706 1503 
Q 2706 1984 2436 2262 
Q 2166 2541 1728 2541 
Q 1456 2541 1237 2417 
Q 1019 2294 894 2097 
L 366 2166 
L 809 4519 
L 3088 4519 
L 3088 3981 
L 1259 3981 
L 1013 2750 
Q 1425 3038 1878 3038 
Q 2478 3038 2890 2622 
Q 3303 2206 3303 1553 
Q 3303 931 2941 478 
Q 2500 -78 1738 -78 
Q 1113 -78 717 272 
Q 322 622 266 1200 
z
" transform="scale(0.015625)"/>
       </defs>
       <use xlink:href="#ArialMT-2212"/>
       <use xlink:href="#ArialMT-37" x="58.398438"/>
       <use xlink:href="#ArialMT-2e" x="114.013672"/>
       <use xlink:href="#ArialMT-35" x="141.796875"/>
      </g>
     </g>
    </g>
    <g id="xtick_2">
     <g id="text_2">
      <!-- −5.0 -->
      <g style="fill: #262626" transform="translate(217.273243 594.093594)scale(0.11 -0.11)">
       <defs>
        <path id="ArialMT-30" d="M 266 2259 
Q 266 3072 433 3567 
Q 600 4063 929 4331 
Q 1259 4600 1759 4600 
Q 2128 4600 2406 4451 
Q 2684 4303 2865 4023 
Q 3047 3744 3150 3342 
Q 3253 2941 3253 2259 
Q 3253 1453 3087 958 
Q 2922 463 2592 192 
Q 2263 -78 1759 -78 
Q 1097 -78 719 397 
Q 266 969 266 2259 
z
M 844 2259 
Q 844 1131 1108 757 
Q 1372 384 1759 384 
Q 2147 384 2411 759 
Q 2675 1134 2675 2259 
Q 2675 3391 2411 3762 
Q 2147 4134 1753 4134 
Q 1366 4134 1134 3806 
Q 844 3388 844 2259 
z
" transform="scale(0.015625)"/>
       </defs>
       <use xlink:href="#ArialMT-2212"/>
       <use xlink:href="#ArialMT-35" x="58.398438"/>
       <use xlink:href="#ArialMT-2e" x="114.013672"/>
       <use xlink:href="#ArialMT-30" x="141.796875"/>
      </g>
     </g>
    </g>
    <g id="xtick_3">
     <g id="text_3">
      <!-- −2.5 -->
      <g style="fill: #262626" transform="translate(296.694314 594.093594)scale(0.11 -0.11)">
       <defs>
        <path id="ArialMT-32" d="M 3222 541 
L 3222 0 
L 194 0 
Q 188 203 259 391 
Q 375 700 629 1000 
Q 884 1300 1366 1694 
Q 2113 2306 2375 2664 
Q 2638 3022 2638 3341 
Q 2638 3675 2398 3904 
Q 2159 4134 1775 4134 
Q 1369 4134 1125 3890 
Q 881 3647 878 3216 
L 300 3275 
Q 359 3922 746 4261 
Q 1134 4600 1788 4600 
Q 2447 4600 2831 4234 
Q 3216 3869 3216 3328 
Q 3216 3053 3103 2787 
Q 2991 2522 2730 2228 
Q 2469 1934 1863 1422 
Q 1356 997 1212 845 
Q 1069 694 975 541 
L 3222 541 
z
" transform="scale(0.015625)"/>
       </defs>
       <use xlink:href="#ArialMT-2212"/>
       <use xlink:href="#ArialMT-32" x="58.398438"/>
       <use xlink:href="#ArialMT-2e" x="114.013672"/>
       <use xlink:href="#ArialMT-35" x="141.796875"/>
      </g>
     </g>
    </g>
    <g id="xtick_4">
     <g id="text_4">
      <!-- 0.0 -->
      <g style="fill: #262626" transform="translate(379.327728 594.093594)scale(0.11 -0.11)">
       <use xlink:href="#ArialMT-30"/>
       <use xlink:href="#ArialMT-2e" x="55.615234"/>
       <use xlink:href="#ArialMT-30" x="83.398438"/>
      </g>
     </g>
    </g>
    <g id="xtick_5">
     <g id="text_5">
      <!-- 2.5 -->
      <g style="fill: #262626" transform="translate(458.748798 594.093594)scale(0.11 -0.11)">
       <use xlink:href="#ArialMT-32"/>
       <use xlink:href="#ArialMT-2e" x="55.615234"/>
       <use xlink:href="#ArialMT-35" x="83.398438"/>
      </g>
     </g>
    </g>
    <g id="xtick_6">
     <g id="text_6">
      <!-- 5.0 -->
      <g style="fill: #262626" transform="translate(538.169868 594.093594)scale(0.11 -0.11)">
       <use xlink:href="#ArialMT-35"/>
       <use xlink:href="#ArialMT-2e" x="55.615234"/>
       <use xlink:href="#ArialMT-30" x="83.398438"/>
      </g>
     </g>
    </g>
    <g id="xtick_7">
     <g id="text_7">
      <!-- 7.5 -->
      <g style="fill: #262626" transform="translate(617.590939 594.093594)scale(0.11 -0.11)">
       <use xlink:href="#ArialMT-37"/>
       <use xlink:href="#ArialMT-2e" x="55.615234"/>
       <use xlink:href="#ArialMT-35" x="83.398438"/>
      </g>
     </g>
    </g>
    <g id="xtick_8">
     <g id="text_8">
      <!-- 10.0 -->
      <g style="fill: #262626" transform="translate(693.953493 594.093594)scale(0.11 -0.11)">
       <defs>
        <path id="ArialMT-31" d="M 2384 0 
L 1822 0 
L 1822 3584 
Q 1619 3391 1289 3197 
Q 959 3003 697 2906 
L 697 3450 
Q 1169 3672 1522 3987 
Q 1875 4303 2022 4600 
L 2384 4600 
L 2384 0 
z
" transform="scale(0.015625)"/>
       </defs>
       <use xlink:href="#ArialMT-31"/>
       <use xlink:href="#ArialMT-30" x="55.615234"/>
       <use xlink:href="#ArialMT-2e" x="111.230469"/>
       <use xlink:href="#ArialMT-30" x="139.013672"/>
      </g>
     </g>
    </g>
    <g id="text_9">
     <!-- x -->
     <g style="fill: #262626" transform="translate(402.9 608.869219)scale(0.12 -0.12)">
      <defs>
       <path id="ArialMT-78" d="M 47 0 
L 1259 1725 
L 138 3319 
L 841 3319 
L 1350 2541 
Q 1494 2319 1581 2169 
Q 1719 2375 1834 2534 
L 2394 3319 
L 3066 3319 
L 1919 1756 
L 3153 0 
L 2463 0 
L 1781 1031 
L 1600 1309 
L 728 0 
L 47 0 
z
" transform="scale(0.015625)"/>
      </defs>
      <use xlink:href="#ArialMT-78"/>
     </g>
    </g>
   </g>
   <g id="matplotlib.axis_2">
    <g id="ytick_1">
     <g id="text_10">
      <!-- 0.00 -->
      <g style="fill: #262626" transform="translate(68.092969 580.656797)scale(0.11 -0.11)">
       <use xlink:href="#ArialMT-30"/>
       <use xlink:href="#ArialMT-2e" x="55.615234"/>
       <use xlink:href="#ArialMT-30" x="83.398438"/>
       <use xlink:href="#ArialMT-30" x="139.013672"/>
      </g>
     </g>
    </g>
    <g id="ytick_2">
     <g id="text_11">
      <!-- 0.05 -->
      <g style="fill: #262626" transform="translate(68.092969 494.847025)scale(0.11 -0.11)">
       <use xlink:href="#ArialMT-30"/>
       <use xlink:href="#ArialMT-2e" x="55.615234"/>
       <use xlink:href="#ArialMT-30" x="83.398438"/>
       <use xlink:href="#ArialMT-35" x="139.013672"/>
      </g>
     </g>
    </g>
    <g id="ytick_3">
     <g id="text_12">
      <!-- 0.10 -->
      <g style="fill: #262626" transform="translate(68.092969 409.037254)scale(0.11 -0.11)">
       <use xlink:href="#ArialMT-30"/>
       <use xlink:href="#ArialMT-2e" x="55.615234"/>
       <use xlink:href="#ArialMT-31" x="83.398438"/>
       <use xlink:href="#ArialMT-30" x="139.013672"/>
      </g>
     </g>
    </g>
    <g id="ytick_4">
     <g id="text_13">
      <!-- 0.15 -->
      <g style="fill: #262626" transform="translate(68.092969 323.227482)scale(0.11 -0.11)">
       <use xlink:href="#ArialMT-30"/>
       <use xlink:href="#ArialMT-2e" x="55.615234"/>
       <use xlink:href="#ArialMT-31" x="83.398438"/>
       <use xlink:href="#ArialMT-35" x="139.013672"/>
      </g>
     </g>
    </g>
    <g id="ytick_5">
     <g id="text_14">
      <!-- 0.20 -->
      <g style="fill: #262626" transform="translate(68.092969 237.417711)scale(0.11 -0.11)">
       <use xlink:href="#ArialMT-30"/>
       <use xlink:href="#ArialMT-2e" x="55.615234"/>
       <use xlink:href="#ArialMT-32" x="83.398438"/>
       <use xlink:href="#ArialMT-30" x="139.013672"/>
      </g>
     </g>
    </g>
    <g id="ytick_6">
     <g id="text_15">
      <!-- 0.25 -->
      <g style="fill: #262626" transform="translate(68.092969 151.60794)scale(0.11 -0.11)">
       <use xlink:href="#ArialMT-30"/>
       <use xlink:href="#ArialMT-2e" x="55.615234"/>
       <use xlink:href="#ArialMT-32" x="83.398438"/>
       <use xlink:href="#ArialMT-35" x="139.013672"/>
      </g>
     </g>
    </g>
    <g id="text_16">
     <!-- Density -->
     <g style="fill: #262626" transform="translate(61.567344 347.24625)rotate(-90)scale(0.12 -0.12)">
      <defs>
       <path id="ArialMT-44" d="M 494 0 
L 494 4581 
L 2072 4581 
Q 2606 4581 2888 4516 
Q 3281 4425 3559 4188 
Q 3922 3881 4101 3404 
Q 4281 2928 4281 2316 
Q 4281 1794 4159 1391 
Q 4038 988 3847 723 
Q 3656 459 3429 307 
Q 3203 156 2883 78 
Q 2563 0 2147 0 
L 494 0 
z
M 1100 541 
L 2078 541 
Q 2531 541 2789 625 
Q 3047 709 3200 863 
Q 3416 1078 3536 1442 
Q 3656 1806 3656 2325 
Q 3656 3044 3420 3430 
Q 3184 3816 2847 3947 
Q 2603 4041 2063 4041 
L 1100 4041 
L 1100 541 
z
" transform="scale(0.015625)"/>
       <path id="ArialMT-65" d="M 2694 1069 
L 3275 997 
Q 3138 488 2766 206 
Q 2394 -75 1816 -75 
Q 1088 -75 661 373 
Q 234 822 234 1631 
Q 234 2469 665 2931 
Q 1097 3394 1784 3394 
Q 2450 3394 2872 2941 
Q 3294 2488 3294 1666 
Q 3294 1616 3291 1516 
L 816 1516 
Q 847 969 1125 678 
Q 1403 388 1819 388 
Q 2128 388 2347 550 
Q 2566 713 2694 1069 
z
M 847 1978 
L 2700 1978 
Q 2663 2397 2488 2606 
Q 2219 2931 1791 2931 
Q 1403 2931 1139 2672 
Q 875 2413 847 1978 
z
" transform="scale(0.015625)"/>
       <path id="ArialMT-6e" d="M 422 0 
L 422 3319 
L 928 3319 
L 928 2847 
Q 1294 3394 1984 3394 
Q 2284 3394 2536 3286 
Q 2788 3178 2913 3003 
Q 3038 2828 3088 2588 
Q 3119 2431 3119 2041 
L 3119 0 
L 2556 0 
L 2556 2019 
Q 2556 2363 2490 2533 
Q 2425 2703 2258 2804 
Q 2091 2906 1866 2906 
Q 1506 2906 1245 2678 
Q 984 2450 984 1813 
L 984 0 
L 422 0 
z
" transform="scale(0.015625)"/>
       <path id="ArialMT-73" d="M 197 991 
L 753 1078 
Q 800 744 1014 566 
Q 1228 388 1613 388 
Q 2000 388 2187 545 
Q 2375 703 2375 916 
Q 2375 1106 2209 1216 
Q 2094 1291 1634 1406 
Q 1016 1563 777 1677 
Q 538 1791 414 1992 
Q 291 2194 291 2438 
Q 291 2659 392 2848 
Q 494 3038 669 3163 
Q 800 3259 1026 3326 
Q 1253 3394 1513 3394 
Q 1903 3394 2198 3281 
Q 2494 3169 2634 2976 
Q 2775 2784 2828 2463 
L 2278 2388 
Q 2241 2644 2061 2787 
Q 1881 2931 1553 2931 
Q 1166 2931 1000 2803 
Q 834 2675 834 2503 
Q 834 2394 903 2306 
Q 972 2216 1119 2156 
Q 1203 2125 1616 2013 
Q 2213 1853 2448 1751 
Q 2684 1650 2818 1456 
Q 2953 1263 2953 975 
Q 2953 694 2789 445 
Q 2625 197 2315 61 
Q 2006 -75 1616 -75 
Q 969 -75 630 194 
Q 291 463 197 991 
z
" transform="scale(0.015625)"/>
       <path id="ArialMT-69" d="M 425 3934 
L 425 4581 
L 988 4581 
L 988 3934 
L 425 3934 
z
M 425 0 
L 425 3319 
L 988 3319 
L 988 0 
L 425 0 
z
" transform="scale(0.015625)"/>
       <path id="ArialMT-74" d="M 1650 503 
L 1731 6 
Q 1494 -44 1306 -44 
Q 1000 -44 831 53 
Q 663 150 594 308 
Q 525 466 525 972 
L 525 2881 
L 113 2881 
L 113 3319 
L 525 3319 
L 525 4141 
L 1084 4478 
L 1084 3319 
L 1650 3319 
L 1650 2881 
L 1084 2881 
L 1084 941 
Q 1084 700 1114 631 
Q 1144 563 1211 522 
Q 1278 481 1403 481 
Q 1497 481 1650 503 
z
" transform="scale(0.015625)"/>
       <path id="ArialMT-79" d="M 397 -1278 
L 334 -750 
Q 519 -800 656 -800 
Q 844 -800 956 -737 
Q 1069 -675 1141 -563 
Q 1194 -478 1313 -144 
Q 1328 -97 1363 -6 
L 103 3319 
L 709 3319 
L 1400 1397 
Q 1534 1031 1641 628 
Q 1738 1016 1872 1384 
L 2581 3319 
L 3144 3319 
L 1881 -56 
Q 1678 -603 1566 -809 
Q 1416 -1088 1222 -1217 
Q 1028 -1347 759 -1347 
Q 597 -1347 397 -1278 
z
" transform="scale(0.015625)"/>
      </defs>
      <use xlink:href="#ArialMT-44"/>
      <use xlink:href="#ArialMT-65" x="72.216797"/>
      <use xlink:href="#ArialMT-6e" x="127.832031"/>
      <use xlink:href="#ArialMT-73" x="183.447266"/>
      <use xlink:href="#ArialMT-69" x="233.447266"/>
      <use xlink:href="#ArialMT-74" x="255.664062"/>
      <use xlink:href="#ArialMT-79" x="283.447266"/>
     </g>
    </g>
   </g>
   <g id="PolyCollection_1">
    <defs>
     <path id="ma9ab5ec476" d="M 126.9 -71.289341 
L 126.9 -71.28 
L 129.70402 -71.28 
L 132.50804 -71.28 
L 135.31206 -71.28 
L 138.11608 -71.28 
L 140.920101 -71.28 
L 143.724121 -71.28 
L 146.528141 -71.28 
L 149.332161 -71.28 
L 152.136181 -71.28 
L 154.940201 -71.28 
L 157.744221 -71.28 
L 160.548241 -71.28 
L 163.352261 -71.28 
L 166.156281 -71.28 
L 168.960302 -71.28 
L 171.764322 -71.28 
L 174.568342 -71.28 
L 177.372362 -71.28 
L 180.176382 -71.28 
L 182.980402 -71.28 
L 185.784422 -71.28 
L 188.588442 -71.28 
L 191.392462 -71.28 
L 194.196482 -71.28 
L 197.000503 -71.28 
L 199.804523 -71.28 
L 202.608543 -71.28 
L 205.412563 -71.28 
L 208.216583 -71.28 
L 211.020603 -71.28 
L 213.824623 -71.28 
L 216.628643 -71.28 
L 219.432663 -71.28 
L 222.236683 -71.28 
L 225.040704 -71.28 
L 227.844724 -71.28 
L 230.648744 -71.28 
L 233.452764 -71.28 
L 236.256784 -71.28 
L 239.060804 -71.28 
L 241.864824 -71.28 
L 244.668844 -71.28 
L 247.472864 -71.28 
L 250.276884 -71.28 
L 253.080905 -71.28 
L 255.884925 -71.28 
L 258.688945 -71.28 
L 261.492965 -71.28 
L 264.296985 -71.28 
L 267.101005 -71.28 
L 269.905025 -71.28 
L 272.709045 -71.28 
L 275.513065 -71.28 
L 278.317085 -71.28 
L 281.121106 -71.28 
L 283.925126 -71.28 
L 286.729146 -71.28 
L 289.533166 -71.28 
L 292.337186 -71.28 
L 295.141206 -71.28 
L 297.945226 -71.28 
L 300.749246 -71.28 
L 303.553266 -71.28 
L 306.357286 -71.28 
L 309.161307 -71.28 
L 311.965327 -71.28 
L 314.769347 -71.28 
L 317.573367 -71.28 
L 320.377387 -71.28 
L 323.181407 -71.28 
L 325.985427 -71.28 
L 328.789447 -71.28 
L 331.593467 -71.28 
L 334.397487 -71.28 
L 337.201508 -71.28 
L 340.005528 -71.28 
L 342.809548 -71.28 
L 345.613568 -71.28 
L 348.417588 -71.28 
L 351.221608 -71.28 
L 354.025628 -71.28 
L 356.829648 -71.28 
L 359.633668 -71.28 
L 362.437688 -71.28 
L 365.241709 -71.28 
L 368.045729 -71.28 
L 370.849749 -71.28 
L 373.653769 -71.28 
L 376.457789 -71.28 
L 379.261809 -71.28 
L 382.065829 -71.28 
L 384.869849 -71.28 
L 387.673869 -71.28 
L 390.477889 -71.28 
L 393.28191 -71.28 
L 396.08593 -71.28 
L 398.88995 -71.28 
L 401.69397 -71.28 
L 404.49799 -71.28 
L 407.30201 -71.28 
L 410.10603 -71.28 
L 412.91005 -71.28 
L 415.71407 -71.28 
L 418.51809 -71.28 
L 421.322111 -71.28 
L 424.126131 -71.28 
L 426.930151 -71.28 
L 429.734171 -71.28 
L 432.538191 -71.28 
L 435.342211 -71.28 
L 438.146231 -71.28 
L 440.950251 -71.28 
L 443.754271 -71.28 
L 446.558291 -71.28 
L 449.362312 -71.28 
L 452.166332 -71.28 
L 454.970352 -71.28 
L 457.774372 -71.28 
L 460.578392 -71.28 
L 463.382412 -71.28 
L 466.186432 -71.28 
L 468.990452 -71.28 
L 471.794472 -71.28 
L 474.598492 -71.28 
L 477.402513 -71.28 
L 480.206533 -71.28 
L 483.010553 -71.28 
L 485.814573 -71.28 
L 488.618593 -71.28 
L 491.422613 -71.28 
L 494.226633 -71.28 
L 497.030653 -71.28 
L 499.834673 -71.28 
L 502.638693 -71.28 
L 505.442714 -71.28 
L 508.246734 -71.28 
L 511.050754 -71.28 
L 513.854774 -71.28 
L 516.658794 -71.28 
L 519.462814 -71.28 
L 522.266834 -71.28 
L 525.070854 -71.28 
L 527.874874 -71.28 
L 530.678894 -71.28 
L 533.482915 -71.28 
L 536.286935 -71.28 
L 539.090955 -71.28 
L 541.894975 -71.28 
L 544.698995 -71.28 
L 547.503015 -71.28 
L 550.307035 -71.28 
L 553.111055 -71.28 
L 555.915075 -71.28 
L 558.719095 -71.28 
L 561.523116 -71.28 
L 564.327136 -71.28 
L 567.131156 -71.28 
L 569.935176 -71.28 
L 572.739196 -71.28 
L 575.543216 -71.28 
L 578.347236 -71.28 
L 581.151256 -71.28 
L 583.955276 -71.28 
L 586.759296 -71.28 
L 589.563317 -71.28 
L 592.367337 -71.28 
L 595.171357 -71.28 
L 597.975377 -71.28 
L 600.779397 -71.28 
L 603.583417 -71.28 
L 606.387437 -71.28 
L 609.191457 -71.28 
L 611.995477 -71.28 
L 614.799497 -71.28 
L 617.603518 -71.28 
L 620.407538 -71.28 
L 623.211558 -71.28 
L 626.015578 -71.28 
L 628.819598 -71.28 
L 631.623618 -71.28 
L 634.427638 -71.28 
L 637.231658 -71.28 
L 640.035678 -71.28 
L 642.839698 -71.28 
L 645.643719 -71.28 
L 648.447739 -71.28 
L 651.251759 -71.28 
L 654.055779 -71.28 
L 656.859799 -71.28 
L 659.663819 -71.28 
L 662.467839 -71.28 
L 665.271859 -71.28 
L 668.075879 -71.28 
L 670.879899 -71.28 
L 673.68392 -71.28 
L 676.48794 -71.28 
L 679.29196 -71.28 
L 682.09598 -71.28 
L 684.9 -71.28 
L 684.9 -71.291582 
L 684.9 -71.291582 
L 682.09598 -71.299724 
L 679.29196 -71.312586 
L 676.48794 -71.332232 
L 673.68392 -71.361242 
L 670.879899 -71.402642 
L 668.075879 -71.459727 
L 665.271859 -71.535755 
L 662.467839 -71.633529 
L 659.663819 -71.754912 
L 656.859799 -71.900351 
L 654.055779 -72.068538 
L 651.251759 -72.256313 
L 648.447739 -72.458931 
L 645.643719 -72.670719 
L 642.839698 -72.886097 
L 640.035678 -73.100841 
L 637.231658 -73.313342 
L 634.427638 -73.525627 
L 631.623618 -73.743854 
L 628.819598 -73.978106 
L 626.015578 -74.241391 
L 623.211558 -74.547942 
L 620.407538 -74.911037 
L 617.603518 -75.340703 
L 614.799497 -75.841695 
L 611.995477 -76.412141 
L 609.191457 -77.043128 
L 606.387437 -77.719346 
L 603.583417 -78.420738 
L 600.779397 -79.124938 
L 597.975377 -79.810187 
L 595.171357 -80.45837 
L 592.367337 -81.057829 
L 589.563317 -81.605676 
L 586.759296 -82.109369 
L 583.955276 -82.587368 
L 581.151256 -83.068705 
L 578.347236 -83.59135 
L 575.543216 -84.199326 
L 572.739196 -84.938661 
L 569.935176 -85.852504 
L 567.131156 -86.975963 
L 564.327136 -88.331462 
L 561.523116 -89.925507 
L 558.719095 -91.747704 
L 555.915075 -93.772511 
L 553.111055 -95.963704 
L 550.307035 -98.280938 
L 547.503015 -100.687172 
L 544.698995 -103.155447 
L 541.894975 -105.673513 
L 539.090955 -108.245244 
L 536.286935 -110.888529 
L 533.482915 -113.630176 
L 530.678894 -116.499109 
L 527.874874 -119.519517 
L 525.070854 -122.705568 
L 522.266834 -126.058828 
L 519.462814 -129.568757 
L 516.658794 -133.215912 
L 513.854774 -136.97685 
L 511.050754 -140.829475 
L 508.246734 -144.757646 
L 505.442714 -148.754261 
L 502.638693 -152.822525 
L 499.834673 -156.975626 
L 497.030653 -161.235342 
L 494.226633 -165.630186 
L 491.422613 -170.193561 
L 488.618593 -174.962044 
L 485.814573 -179.973644 
L 483.010553 -185.26563 
L 480.206533 -190.871564 
L 477.402513 -196.817451 
L 474.598492 -203.117372 
L 471.794472 -209.769467 
L 468.990452 -216.753474 
L 466.186432 -224.030969 
L 463.382412 -231.549031 
L 460.578392 -239.247167 
L 457.774372 -247.066364 
L 454.970352 -254.958231 
L 452.166332 -262.89181 
L 449.362312 -270.85589 
L 446.558291 -278.855638 
L 443.754271 -286.903769 
L 440.950251 -295.008042 
L 438.146231 -303.157997 
L 435.342211 -311.31425 
L 432.538191 -319.403167 
L 429.734171 -327.318448 
L 426.930151 -334.929424 
L 424.126131 -342.094277 
L 421.322111 -348.67531 
L 418.51809 -354.553148 
L 415.71407 -359.63735 
L 412.91005 -363.872058 
L 410.10603 -367.236654 
L 407.30201 -369.742491 
L 404.49799 -371.427338 
L 401.69397 -372.34915 
L 398.88995 -372.58028 
L 396.08593 -372.202479 
L 393.28191 -371.302413 
L 390.477889 -369.967027 
L 387.673869 -368.278207 
L 384.869849 -366.306646 
L 382.065829 -364.105484 
L 379.261809 -361.704956 
L 376.457789 -359.109557 
L 373.653769 -356.299096 
L 370.849749 -353.234328 
L 368.045729 -349.866817 
L 365.241709 -346.151589 
L 362.437688 -342.060275 
L 359.633668 -337.592081 
L 356.829648 -332.780236 
L 354.025628 -327.692406 
L 351.221608 -322.424765 
L 348.417588 -317.090631 
L 345.613568 -311.80559 
L 342.809548 -306.67158 
L 340.005528 -301.762493 
L 337.201508 -297.113556 
L 334.397487 -292.716078 
L 331.593467 -288.518355 
L 328.789447 -284.43265 
L 325.985427 -280.347245 
L 323.181407 -276.141851 
L 320.377387 -271.704036 
L 317.573367 -266.944161 
L 314.769347 -261.806467 
L 311.965327 -256.274581 
L 309.161307 -250.370699 
L 306.357286 -244.14883 
L 303.553266 -237.683596 
L 300.749246 -231.056822 
L 297.945226 -224.344526 
L 295.141206 -217.606678 
L 292.337186 -210.881474 
L 289.533166 -204.184906 
L 286.729146 -197.515339 
L 283.925126 -190.861863 
L 281.121106 -184.21448 
L 278.317085 -177.573916 
L 275.513065 -170.958926 
L 272.709045 -164.409569 
L 269.905025 -157.985703 
L 267.101005 -151.761003 
L 264.296985 -145.813693 
L 261.492965 -140.215874 
L 258.688945 -135.023614 
L 255.884925 -130.26972 
L 253.080905 -125.9605 
L 250.276884 -122.076901 
L 247.472864 -118.579468 
L 244.668844 -115.415779 
L 241.864824 -112.528659 
L 239.060804 -109.863482 
L 236.256784 -107.373372 
L 233.452764 -105.02175 
L 230.648744 -102.782411 
L 227.844724 -100.637851 
L 225.040704 -98.576823 
L 222.236683 -96.591996 
L 219.432663 -94.678335 
L 216.628643 -92.832372 
L 213.824623 -91.0522 
L 211.020603 -89.337801 
L 208.216583 -87.691282 
L 205.412563 -86.116753 
L 202.608543 -84.619728 
L 199.804523 -83.206187 
L 197.000503 -81.881513 
L 194.196482 -80.649576 
L 191.392462 -79.512156 
L 188.588442 -78.4688 
L 185.784422 -77.517085 
L 182.980402 -76.65316 
L 180.176382 -75.872408 
L 177.372362 -75.170062 
L 174.568342 -74.541646 
L 171.764322 -73.983194 
L 168.960302 -73.491227 
L 166.156281 -73.062561 
L 163.352261 -72.694013 
L 160.548241 -72.382108 
L 157.744221 -72.122853 
L 154.940201 -71.911646 
L 152.136181 -71.743307 
L 149.332161 -71.61225 
L 146.528141 -71.51272 
L 143.724121 -71.43907 
L 140.920101 -71.386019 
L 138.11608 -71.348852 
L 135.31206 -71.323542 
L 132.50804 -71.306799 
L 129.70402 -71.296045 
L 126.9 -71.289341 
z
" style="stroke: #4c72b0"/>
    </defs>
    <g clip-path="url(#p066182250f)">
     <use xlink:href="#ma9ab5ec476" x="0" y="648" style="fill: #4c72b0; fill-opacity: 0.25; stroke: #4c72b0"/>
    </g>
   </g>
   <g id="PolyCollection_2">
    <defs>
     <path id="m6154785a02" d="M 194.091601 -71.293728 
L 194.091601 -71.28 
L 195.950089 -71.28 
L 197.808577 -71.28 
L 199.667065 -71.28 
L 201.525553 -71.28 
L 203.384041 -71.28 
L 205.24253 -71.28 
L 207.101018 -71.28 
L 208.959506 -71.28 
L 210.817994 -71.28 
L 212.676482 -71.28 
L 214.53497 -71.28 
L 216.393458 -71.28 
L 218.251946 -71.28 
L 220.110434 -71.28 
L 221.968923 -71.28 
L 223.827411 -71.28 
L 225.685899 -71.28 
L 227.544387 -71.28 
L 229.402875 -71.28 
L 231.261363 -71.28 
L 233.119851 -71.28 
L 234.978339 -71.28 
L 236.836827 -71.28 
L 238.695315 -71.28 
L 240.553804 -71.28 
L 242.412292 -71.28 
L 244.27078 -71.28 
L 246.129268 -71.28 
L 247.987756 -71.28 
L 249.846244 -71.28 
L 251.704732 -71.28 
L 253.56322 -71.28 
L 255.421708 -71.28 
L 257.280197 -71.28 
L 259.138685 -71.28 
L 260.997173 -71.28 
L 262.855661 -71.28 
L 264.714149 -71.28 
L 266.572637 -71.28 
L 268.431125 -71.28 
L 270.289613 -71.28 
L 272.148101 -71.28 
L 274.00659 -71.28 
L 275.865078 -71.28 
L 277.723566 -71.28 
L 279.582054 -71.28 
L 281.440542 -71.28 
L 283.29903 -71.28 
L 285.157518 -71.28 
L 287.016006 -71.28 
L 288.874494 -71.28 
L 290.732982 -71.28 
L 292.591471 -71.28 
L 294.449959 -71.28 
L 296.308447 -71.28 
L 298.166935 -71.28 
L 300.025423 -71.28 
L 301.883911 -71.28 
L 303.742399 -71.28 
L 305.600887 -71.28 
L 307.459375 -71.28 
L 309.317864 -71.28 
L 311.176352 -71.28 
L 313.03484 -71.28 
L 314.893328 -71.28 
L 316.751816 -71.28 
L 318.610304 -71.28 
L 320.468792 -71.28 
L 322.32728 -71.28 
L 324.185768 -71.28 
L 326.044257 -71.28 
L 327.902745 -71.28 
L 329.761233 -71.28 
L 331.619721 -71.28 
L 333.478209 -71.28 
L 335.336697 -71.28 
L 337.195185 -71.28 
L 339.053673 -71.28 
L 340.912161 -71.28 
L 342.77065 -71.28 
L 344.629138 -71.28 
L 346.487626 -71.28 
L 348.346114 -71.28 
L 350.204602 -71.28 
L 352.06309 -71.28 
L 353.921578 -71.28 
L 355.780066 -71.28 
L 357.638554 -71.28 
L 359.497042 -71.28 
L 361.355531 -71.28 
L 363.214019 -71.28 
L 365.072507 -71.28 
L 366.930995 -71.28 
L 368.789483 -71.28 
L 370.647971 -71.28 
L 372.506459 -71.28 
L 374.364947 -71.28 
L 376.223435 -71.28 
L 378.081924 -71.28 
L 379.940412 -71.28 
L 381.7989 -71.28 
L 383.657388 -71.28 
L 385.515876 -71.28 
L 387.374364 -71.28 
L 389.232852 -71.28 
L 391.09134 -71.28 
L 392.949828 -71.28 
L 394.808317 -71.28 
L 396.666805 -71.28 
L 398.525293 -71.28 
L 400.383781 -71.28 
L 402.242269 -71.28 
L 404.100757 -71.28 
L 405.959245 -71.28 
L 407.817733 -71.28 
L 409.676221 -71.28 
L 411.534709 -71.28 
L 413.393198 -71.28 
L 415.251686 -71.28 
L 417.110174 -71.28 
L 418.968662 -71.28 
L 420.82715 -71.28 
L 422.685638 -71.28 
L 424.544126 -71.28 
L 426.402614 -71.28 
L 428.261102 -71.28 
L 430.119591 -71.28 
L 431.978079 -71.28 
L 433.836567 -71.28 
L 435.695055 -71.28 
L 437.553543 -71.28 
L 439.412031 -71.28 
L 441.270519 -71.28 
L 443.129007 -71.28 
L 444.987495 -71.28 
L 446.845984 -71.28 
L 448.704472 -71.28 
L 450.56296 -71.28 
L 452.421448 -71.28 
L 454.279936 -71.28 
L 456.138424 -71.28 
L 457.996912 -71.28 
L 459.8554 -71.28 
L 461.713888 -71.28 
L 463.572377 -71.28 
L 465.430865 -71.28 
L 467.289353 -71.28 
L 469.147841 -71.28 
L 471.006329 -71.28 
L 472.864817 -71.28 
L 474.723305 -71.28 
L 476.581793 -71.28 
L 478.440281 -71.28 
L 480.298769 -71.28 
L 482.157258 -71.28 
L 484.015746 -71.28 
L 485.874234 -71.28 
L 487.732722 -71.28 
L 489.59121 -71.28 
L 491.449698 -71.28 
L 493.308186 -71.28 
L 495.166674 -71.28 
L 497.025162 -71.28 
L 498.883651 -71.28 
L 500.742139 -71.28 
L 502.600627 -71.28 
L 504.459115 -71.28 
L 506.317603 -71.28 
L 508.176091 -71.28 
L 510.034579 -71.28 
L 511.893067 -71.28 
L 513.751555 -71.28 
L 515.610044 -71.28 
L 517.468532 -71.28 
L 519.32702 -71.28 
L 521.185508 -71.28 
L 523.043996 -71.28 
L 524.902484 -71.28 
L 526.760972 -71.28 
L 528.61946 -71.28 
L 530.477948 -71.28 
L 532.336436 -71.28 
L 534.194925 -71.28 
L 536.053413 -71.28 
L 537.911901 -71.28 
L 539.770389 -71.28 
L 541.628877 -71.28 
L 543.487365 -71.28 
L 545.345853 -71.28 
L 547.204341 -71.28 
L 549.062829 -71.28 
L 550.921318 -71.28 
L 552.779806 -71.28 
L 554.638294 -71.28 
L 556.496782 -71.28 
L 558.35527 -71.28 
L 560.213758 -71.28 
L 562.072246 -71.28 
L 563.930734 -71.28 
L 563.930734 -71.29968 
L 563.930734 -71.29968 
L 562.072246 -71.314778 
L 560.213758 -71.339439 
L 558.35527 -71.378269 
L 556.496782 -71.437192 
L 554.638294 -71.523353 
L 552.779806 -71.644729 
L 550.921318 -71.809414 
L 549.062829 -72.024575 
L 547.204341 -72.295184 
L 545.345853 -72.622722 
L 543.487365 -73.004145 
L 541.628877 -73.431396 
L 539.770389 -73.891729 
L 537.911901 -74.368953 
L 536.053413 -74.845519 
L 534.194925 -75.305197 
L 532.336436 -75.735924 
L 530.477948 -76.132355 
L 528.61946 -76.497682 
L 526.760972 -76.844411 
L 524.902484 -77.193967 
L 523.043996 -77.575147 
L 521.185508 -78.021641 
L 519.32702 -78.568905 
L 517.468532 -79.250826 
L 515.610044 -80.096616 
L 513.751555 -81.128426 
L 511.893067 -82.360062 
L 510.034579 -83.797068 
L 508.176091 -85.43818 
L 506.317603 -87.277886 
L 504.459115 -89.30959 
L 502.600627 -91.528696 
L 500.742139 -93.93494 
L 498.883651 -96.53342 
L 497.025162 -99.334076 
L 495.166674 -102.349667 
L 493.308186 -105.592662 
L 491.449698 -109.071677 
L 489.59121 -112.788301 
L 487.732722 -116.735175 
L 485.874234 -120.896134 
L 484.015746 -125.249016 
L 482.157258 -129.771309 
L 480.298769 -134.448182 
L 478.440281 -139.281694 
L 476.581793 -144.299175 
L 474.723305 -149.558298 
L 472.864817 -155.146434 
L 471.006329 -161.172732 
L 469.147841 -167.752923 
L 467.289353 -174.988903 
L 465.430865 -182.946952 
L 463.572377 -191.639536 
L 461.713888 -201.015316 
L 459.8554 -210.960323 
L 457.996912 -221.310489 
L 456.138424 -231.87276 
L 454.279936 -242.449851 
L 452.421448 -252.863002 
L 450.56296 -262.968238 
L 448.704472 -272.66408 
L 446.845984 -281.891534 
L 444.987495 -290.629379 
L 443.129007 -298.88852 
L 441.270519 -306.708262 
L 439.412031 -314.155417 
L 437.553543 -321.324993 
L 435.695055 -328.339932 
L 433.836567 -335.347381 
L 431.978079 -342.510234 
L 430.119591 -349.994564 
L 428.261102 -357.955152 
L 426.402614 -366.522012 
L 424.544126 -375.790359 
L 422.685638 -385.815121 
L 420.82715 -396.609586 
L 418.968662 -408.146501 
L 417.110174 -420.359568 
L 415.251686 -433.143653 
L 413.393198 -446.353053 
L 411.534709 -459.798539 
L 409.676221 -473.245077 
L 407.817733 -486.412972 
L 405.959245 -498.985328 
L 404.100757 -510.623967 
L 402.242269 -520.99439 
L 400.383781 -529.798063 
L 398.525293 -536.807865 
L 396.666805 -541.900527 
L 394.808317 -545.079173 
L 392.949828 -546.48 
L 391.09134 -546.35985 
L 389.232852 -545.065269 
L 387.374364 -542.987688 
L 385.515876 -540.512407 
L 383.657388 -537.970259 
L 381.7989 -535.599909 
L 379.940412 -533.525959 
L 378.081924 -531.754432 
L 376.223435 -530.183791 
L 374.364947 -528.627329 
L 372.506459 -526.841963 
L 370.647971 -524.558986 
L 368.789483 -521.513528 
L 366.930995 -517.47072 
L 365.072507 -512.247326 
L 363.214019 -505.727808 
L 361.355531 -497.873755 
L 359.497042 -488.725729 
L 357.638554 -478.397203 
L 355.780066 -467.061328 
L 353.921578 -454.932478 
L 352.06309 -442.245393 
L 350.204602 -429.234875 
L 348.346114 -416.118403 
L 346.487626 -403.082876 
L 344.629138 -390.275525 
L 342.77065 -377.798314 
L 340.912161 -365.70504 
L 339.053673 -354.000839 
L 337.195185 -342.644512 
L 335.336697 -331.554521 
L 333.478209 -320.61942 
L 331.619721 -309.712727 
L 329.761233 -298.7111 
L 327.902745 -287.513558 
L 326.044257 -276.058786 
L 324.185768 -264.337557 
L 322.32728 -252.398044 
L 320.468792 -240.343019 
L 318.610304 -228.319385 
L 316.751816 -216.501762 
L 314.893328 -205.07277 
L 313.03484 -194.203028 
L 311.176352 -184.033755 
L 309.317864 -174.664262 
L 307.459375 -166.145723 
L 305.600887 -158.481503 
L 303.742399 -151.633278 
L 301.883911 -145.53132 
L 300.025423 -140.086828 
L 298.166935 -135.20415 
L 296.308447 -130.791167 
L 294.449959 -126.766773 
L 292.591471 -123.065215 
L 290.732982 -119.637637 
L 288.874494 -116.451507 
L 287.016006 -113.488559 
L 285.157518 -110.74164 
L 283.29903 -108.210628 
L 281.440542 -105.897504 
L 279.582054 -103.800892 
L 277.723566 -101.910773 
L 275.865078 -100.204417 
L 274.00659 -98.644691 
L 272.148101 -97.181597 
L 270.289613 -95.75718 
L 268.431125 -94.313123 
L 266.572637 -92.799554 
L 264.714149 -91.183189 
L 262.855661 -89.453068 
L 260.997173 -87.622665 
L 259.138685 -85.728019 
L 257.280197 -83.822408 
L 255.421708 -81.968726 
L 253.56322 -80.231043 
L 251.704732 -78.66676 
L 249.846244 -77.320415 
L 247.987756 -76.219722 
L 246.129268 -75.373956 
L 244.27078 -74.774463 
L 242.412292 -74.396844 
L 240.553804 -74.204366 
L 238.695315 -74.152125 
L 236.836827 -74.191546 
L 234.978339 -74.274858 
L 233.119851 -74.35915 
L 231.261363 -74.409663 
L 229.402875 -74.402009 
L 227.544387 -74.323118 
L 225.685899 -74.170871 
L 223.827411 -73.952557 
L 221.968923 -73.682463 
L 220.110434 -73.379005 
L 218.251946 -73.061841 
L 216.393458 -72.749353 
L 214.53497 -72.456779 
L 212.676482 -72.195121 
L 210.817994 -71.970824 
L 208.959506 -71.786105 
L 207.101018 -71.63972 
L 205.24253 -71.527968 
L 203.384041 -71.445725 
L 201.525553 -71.387347 
L 199.667065 -71.347368 
L 197.808577 -71.320948 
L 195.950089 -71.304099 
L 194.091601 -71.293728 
z
" style="stroke: #dd8452"/>
    </defs>
    <g clip-path="url(#p066182250f)">
     <use xlink:href="#m6154785a02" x="0" y="648" style="fill: #dd8452; fill-opacity: 0.25; stroke: #dd8452"/>
    </g>
   </g>
   <g id="patch_3">
    <path d="M 99 576.72 
L 99 77.76 
" style="fill: none; stroke: #262626; stroke-width: 1.25; stroke-linejoin: miter; stroke-linecap: square"/>
   </g>
   <g id="patch_4">
    <path d="M 712.8 576.72 
L 712.8 77.76 
" style="fill: none; stroke: #262626; stroke-width: 1.25; stroke-linejoin: miter; stroke-linecap: square"/>
   </g>
   <g id="patch_5">
    <path d="M 99 576.72 
L 712.8 576.72 
" style="fill: none; stroke: #262626; stroke-width: 1.25; stroke-linejoin: miter; stroke-linecap: square"/>
   </g>
   <g id="patch_6">
    <path d="M 99 77.76 
L 712.8 77.76 
" style="fill: none; stroke: #262626; stroke-width: 1.25; stroke-linejoin: miter; stroke-linecap: square"/>
   </g>
  </g>
 </g>
 <defs>
  <clipPath id="p066182250f">
   <rect x="99" y="77.76" width="613.8" height="498.96"/>
  </clipPath>
 </defs>
</svg>
