<?xml version="1.0" encoding="UTF-8" standalone="no"?>
<!DOCTYPE svg PUBLIC "-//W3C//DTD SVG 1.1//EN"
 "http://www.w3.org/Graphics/SVG/1.1/DTD/svg11.dtd">
<!-- Generated by graphviz version 2.40.1 (20161225.0304)
 -->
<!-- Title: G Pages: 1 -->
<svg width="609pt" height="327pt"
 viewBox="0.00 0.00 608.72 326.71" xmlns="http://www.w3.org/2000/svg" xmlns:xlink="http://www.w3.org/1999/xlink">
<g id="graph0" class="graph" transform="scale(1 1) rotate(0) translate(4 322.7106)">
<title>G</title>
<polygon fill="#ffffff" stroke="transparent" points="-4,4 -4,-322.7106 604.7167,-322.7106 604.7167,4 -4,4"/>
<!-- 4000 -->
<g id="node1" class="node">
<title>4000</title>
<ellipse fill="#d3d3d3" stroke="#c0c0c0" cx="21.2167" cy="-152.4" rx="21.4356" ry="21.4356"/>
<text text-anchor="middle" x="21.2167" y="-150.3" font-family="Arial" font-size="7.00" fill="#000000">ASA</text>
</g>
<!-- 4001 -->
<g id="node2" class="node">
<title>4001</title>
<ellipse fill="#d3d3d3" stroke="#c0c0c0" cx="93.2167" cy="-152.4" rx="3.5" ry="3.5"/>
</g>
<!-- 4000&#45;&gt;4001 -->
<g id="edge1" class="edge">
<title>4000&#45;&gt;4001</title>
<path fill="none" stroke="#c0c0c0" d="M42.819,-152.4C54.5984,-152.4 68.84,-152.4 79.1749,-152.4"/>
<polygon fill="#c0c0c0" stroke="#c0c0c0" points="79.4155,-155.9001 89.4155,-152.4 79.4154,-148.9001 79.4155,-155.9001"/>
<text text-anchor="middle" x="68.386" y="-146.1" font-family="Arial" font-size="7.00" fill="#000000">Over&#45;</text>
<text text-anchor="middle" x="68.386" y="-137.7" font-family="Arial" font-size="7.00" fill="#000000">&#45;zichtweg</text>
</g>
<!-- 4002 -->
<g id="node3" class="node">
<title>4002</title>
<ellipse fill="#d3d3d3" stroke="#c0c0c0" cx="165.2167" cy="-152.4" rx="3.5" ry="3.5"/>
</g>
<!-- 4001&#45;&gt;4002 -->
<g id="edge2" class="edge">
<title>4001&#45;&gt;4002</title>
<path fill="none" stroke="#c0c0c0" d="M97.0877,-152.4C107.143,-152.4 134.4759,-152.4 151.307,-152.4"/>
<polygon fill="#c0c0c0" stroke="#c0c0c0" points="151.6708,-155.9001 161.6707,-152.4 151.6707,-148.9001 151.6708,-155.9001"/>
<text text-anchor="middle" x="124.1974" y="-146.1" font-family="Arial" font-size="7.00" fill="#000000">Hugo de Vrieslaan</text>
</g>
<!-- 4003 -->
<g id="node4" class="node">
<title>4003</title>
<ellipse fill="#d3d3d3" stroke="#c0c0c0" cx="165.2167" cy="-80.4" rx="3.5" ry="3.5"/>
</g>
<!-- 4002&#45;&gt;4003 -->
<g id="edge4" class="edge">
<title>4002&#45;&gt;4003</title>
<path fill="none" stroke="#c0c0c0" d="M165.2167,-148.529C165.2167,-138.4737 165.2167,-111.1408 165.2167,-94.3097"/>
<polygon fill="#c0c0c0" stroke="#c0c0c0" points="168.7168,-93.9459 165.2167,-83.9459 161.7168,-93.946 168.7168,-93.9459"/>
<text text-anchor="middle" x="142.8559" y="-131.9193" font-family="Arial" font-size="7.00" fill="#000000">Maxwellstraat </text>
<text text-anchor="middle" x="142.8559" y="-123.5193" font-family="Arial" font-size="7.00" fill="#000000"> (lijn 40)</text>
</g>
<!-- 6500 -->
<g id="node10" class="node">
<title>6500</title>
<ellipse fill="#d3d3d3" stroke="#c0c0c0" cx="237.2167" cy="-152.4" rx="3.5" ry="3.5"/>
</g>
<!-- 4002&#45;&gt;6500 -->
<g id="edge3" class="edge">
<title>4002&#45;&gt;6500</title>
<path fill="none" stroke="#c0c0c0" d="M169.0877,-152.4C179.143,-152.4 206.4759,-152.4 223.307,-152.4"/>
<polygon fill="#c0c0c0" stroke="#c0c0c0" points="223.6708,-155.9001 233.6707,-152.4 223.6707,-148.9001 223.6708,-155.9001"/>
<text text-anchor="middle" x="196.1974" y="-146.1" font-family="Arial" font-size="7.00" fill="#000000">Hugo de Vrieslaan </text>
<text text-anchor="middle" x="196.1974" y="-137.7" font-family="Arial" font-size="7.00" fill="#000000"> Wethouder Franke&#45;</text>
<text text-anchor="middle" x="196.1974" y="-129.3" font-family="Arial" font-size="7.00" fill="#000000">&#45;weg </text>
<text text-anchor="middle" x="196.1974" y="-120.9" font-family="Arial" font-size="7.00" fill="#000000"> Galileïplantsoen </text>
<text text-anchor="middle" x="196.1974" y="-112.5" font-family="Arial" font-size="7.00" fill="#000000"> (lijn 65)</text>
</g>
<!-- 4004 -->
<g id="node5" class="node">
<title>4004</title>
<ellipse fill="#d3d3d3" stroke="#c0c0c0" cx="309.2167" cy="-80.4" rx="3.5" ry="3.5"/>
</g>
<!-- 4003&#45;&gt;4004 -->
<g id="edge5" class="edge">
<title>4003&#45;&gt;4004</title>
<path fill="none" stroke="#c0c0c0" d="M168.7762,-80.4C186.2878,-80.4 263.7245,-80.4 295.5195,-80.4"/>
<polygon fill="#c0c0c0" stroke="#c0c0c0" points="295.5215,-83.9001 305.5215,-80.4 295.5215,-76.9001 295.5215,-83.9001"/>
<text text-anchor="middle" x="217.5627" y="-82.5" font-family="Arial" font-size="7.00" fill="#000000">Kruislaan</text>
</g>
<!-- 4005 -->
<g id="node6" class="node">
<title>4005</title>
<ellipse fill="#d3d3d3" stroke="#c0c0c0" cx="381.2167" cy="-80.4" rx=".5" ry=".5"/>
</g>
<!-- 4004&#45;&gt;4005 -->
<g id="edge6" class="edge">
<title>4004&#45;&gt;4005</title>
<path fill="none" stroke="#c0c0c0" d="M313.0877,-80.4C323.8221,-80.4 354.2467,-80.4 370.565,-80.4"/>
<polygon fill="#c0c0c0" stroke="#c0c0c0" points="370.6159,-83.9001 380.6158,-80.4 370.6158,-76.9001 370.6159,-83.9001"/>
<text text-anchor="middle" x="362.4417" y="-74.1" font-family="Arial" font-size="7.00" fill="#000000">Science Park</text>
</g>
<!-- 6502 -->
<g id="node12" class="node">
<title>6502</title>
<ellipse fill="#d3d3d3" stroke="#c0c0c0" cx="309.2167" cy="-224.4" rx="3.5" ry="3.5"/>
</g>
<!-- 4004&#45;&gt;6502 -->
<g id="edge10" class="edge">
<title>4004&#45;&gt;6502</title>
<path fill="none" stroke="#c0c0c0" d="M309.2167,-83.9596C309.2167,-101.4711 309.2167,-178.9079 309.2167,-210.7028"/>
<polygon fill="#c0c0c0" stroke="#c0c0c0" points="305.7168,-210.7048 309.2167,-220.7048 312.7168,-210.7049 305.7168,-210.7048"/>
<text text-anchor="middle" x="283.3562" y="-157.8312" font-family="Arial" font-size="7.00" fill="#000000">Carolina </text>
<text text-anchor="middle" x="283.3562" y="-149.4312" font-family="Arial" font-size="7.00" fill="#000000"> MacGillavrylaan</text>
</g>
<!-- 4006 -->
<g id="node7" class="node">
<title>4006</title>
<ellipse fill="#d3d3d3" stroke="#c0c0c0" cx="381.2167" cy="-8.4" rx=".5" ry=".5"/>
</g>
<!-- 4005&#45;&gt;4006 -->
<g id="edge7" class="edge">
<title>4005&#45;&gt;4006</title>
<path fill="none" stroke="#c0c0c0" d="M381.2167,-79.5914C381.2167,-73.7399 381.2167,-37.588 381.2167,-19.167"/>
<polygon fill="#c0c0c0" stroke="#c0c0c0" points="384.7168,-19.1126 381.2167,-9.1126 377.7168,-19.1126 384.7168,-19.1126"/>
<text text-anchor="middle" x="360.6013" y="-51.4792" font-family="Arial" font-size="7.00" fill="#000000">Science Park</text>
</g>
<!-- 4007 -->
<g id="node8" class="node">
<title>4007</title>
<ellipse fill="#d3d3d3" stroke="#c0c0c0" cx="309.2167" cy="-8.4" rx="3.5" ry="3.5"/>
</g>
<!-- 4006&#45;&gt;4007 -->
<g id="edge8" class="edge">
<title>4006&#45;&gt;4007</title>
<path fill="none" stroke="#c0c0c0" d="M380.4081,-8.4C374.8824,-8.4 342.3375,-8.4 323.2181,-8.4"/>
<polygon fill="#c0c0c0" stroke="#c0c0c0" points="323.0116,-4.9001 313.0116,-8.4 323.0115,-11.9001 323.0116,-4.9001"/>
<text text-anchor="middle" x="372.4284" y="-2.1" font-family="Arial" font-size="7.00" fill="#000000">Science Park</text>
</g>
<!-- 4007&#45;&gt;4004 -->
<g id="edge9" class="edge">
<title>4007&#45;&gt;4004</title>
<path fill="none" stroke="#c0c0c0" d="M309.2167,-12.271C309.2167,-22.3263 309.2167,-49.6592 309.2167,-66.4903"/>
<polygon fill="#c0c0c0" stroke="#c0c0c0" points="305.7168,-66.854 309.2167,-76.8541 312.7168,-66.8541 305.7168,-66.854"/>
<text text-anchor="middle" x="270.3285" y="-41.4807" font-family="Arial" font-size="7.00" fill="#000000">Carolina MacGillavrylaan</text>
</g>
<!-- 4008 -->
<g id="node9" class="node">
<title>4008</title>
<ellipse fill="#d3d3d3" stroke="#c0c0c0" cx="381.2167" cy="-296.4" rx="22.1227" ry="22.1227"/>
<text text-anchor="middle" x="381.2167" y="-294.3" font-family="Arial" font-size="7.00" fill="#000000">MDS</text>
</g>
<!-- 6501 -->
<g id="node11" class="node">
<title>6501</title>
<ellipse fill="#d3d3d3" stroke="#c0c0c0" cx="237.2167" cy="-224.4" rx="3.5" ry="3.5"/>
</g>
<!-- 6500&#45;&gt;6501 -->
<g id="edge11" class="edge">
<title>6500&#45;&gt;6501</title>
<path fill="none" stroke="#c0c0c0" d="M237.2167,-156.271C237.2167,-166.3263 237.2167,-193.6592 237.2167,-210.4903"/>
<polygon fill="#c0c0c0" stroke="#c0c0c0" points="233.7168,-210.854 237.2167,-220.8541 240.7168,-210.8541 233.7168,-210.854"/>
<text text-anchor="middle" x="212.325" y="-185.4807" font-family="Arial" font-size="7.00" fill="#000000">Archimedesweg</text>
</g>
<!-- 6501&#45;&gt;6502 -->
<g id="edge12" class="edge">
<title>6501&#45;&gt;6502</title>
<path fill="none" stroke="#c0c0c0" d="M241.0877,-224.4C251.143,-224.4 278.4759,-224.4 295.307,-224.4"/>
<polygon fill="#c0c0c0" stroke="#c0c0c0" points="295.6708,-227.9001 305.6707,-224.4 295.6707,-220.9001 295.6708,-227.9001"/>
<text text-anchor="middle" x="280.0604" y="-218.1" font-family="Arial" font-size="7.00" fill="#000000">Molukkenstraat</text>
</g>
<!-- 6503 -->
<g id="node13" class="node">
<title>6503</title>
<ellipse fill="#d3d3d3" stroke="#c0c0c0" cx="381.2167" cy="-224.4" rx="3.5" ry="3.5"/>
</g>
<!-- 6502&#45;&gt;6503 -->
<g id="edge13" class="edge">
<title>6502&#45;&gt;6503</title>
<path fill="none" stroke="#c0c0c0" d="M313.0877,-224.4C323.143,-224.4 350.4759,-224.4 367.307,-224.4"/>
<polygon fill="#c0c0c0" stroke="#c0c0c0" points="367.6708,-227.9001 377.6707,-224.4 367.6707,-220.9001 367.6708,-227.9001"/>
<text text-anchor="middle" x="352.0604" y="-218.1" font-family="Arial" font-size="7.00" fill="#000000">Molukkenstraat</text>
</g>
<!-- 6503&#45;&gt;4008 -->
<g id="edge21" class="edge">
<title>6503&#45;&gt;4008</title>
<path fill="none" stroke="#c0c0c0" d="M381.2167,-228.271C381.2167,-235.0211 381.2167,-249.5571 381.2167,-263.4755"/>
<polygon fill="#c0c0c0" stroke="#c0c0c0" points="377.7168,-263.8594 381.2167,-273.8595 384.7168,-263.8595 377.7168,-263.8594"/>
<text text-anchor="middle" x="359.8219" y="-256.3733" font-family="Arial" font-size="7.00" fill="#000000">Insulindeweg </text>
<text text-anchor="middle" x="359.8219" y="-247.9733" font-family="Arial" font-size="7.00" fill="#000000"> (lijn 40)</text>
</g>
<!-- 6504 -->
<g id="node14" class="node">
<title>6504</title>
<ellipse fill="#d3d3d3" stroke="#c0c0c0" cx="453.2167" cy="-224.4" rx="3.5" ry="3.5"/>
</g>
<!-- 6503&#45;&gt;6504 -->
<g id="edge14" class="edge">
<title>6503&#45;&gt;6504</title>
<path fill="none" stroke="#c0c0c0" d="M385.0877,-224.4C395.143,-224.4 422.4759,-224.4 439.307,-224.4"/>
<polygon fill="#c0c0c0" stroke="#c0c0c0" points="439.6708,-227.9001 449.6707,-224.4 439.6707,-220.9001 439.6708,-227.9001"/>
<text text-anchor="middle" x="424.5468" y="-218.1" font-family="Arial" font-size="7.00" fill="#000000">Molukkenstraat </text>
<text text-anchor="middle" x="424.5468" y="-209.7" font-family="Arial" font-size="7.00" fill="#000000"> (lijn 65)</text>
</g>
<!-- 6505 -->
<g id="node15" class="node">
<title>6505</title>
<ellipse fill="#d3d3d3" stroke="#c0c0c0" cx="453.2167" cy="-296.4" rx="3.5" ry="3.5"/>
</g>
<!-- 6504&#45;&gt;6505 -->
<g id="edge15" class="edge">
<title>6504&#45;&gt;6505</title>
<path fill="none" stroke="#c0c0c0" d="M453.2167,-228.271C453.2167,-238.3263 453.2167,-265.6592 453.2167,-282.4903"/>
<polygon fill="#c0c0c0" stroke="#c0c0c0" points="449.7168,-282.854 453.2167,-292.8541 456.7168,-282.8541 449.7168,-282.854"/>
<text text-anchor="middle" x="431.8254" y="-257.4807" font-family="Arial" font-size="7.00" fill="#000000">Zeeburgerdijk</text>
</g>
<!-- 6506 -->
<g id="node16" class="node">
<title>6506</title>
<ellipse fill="#d3d3d3" stroke="#c0c0c0" cx="525.2167" cy="-296.4" rx="3.5" ry="3.5"/>
</g>
<!-- 6505&#45;&gt;6506 -->
<g id="edge16" class="edge">
<title>6505&#45;&gt;6506</title>
<path fill="none" stroke="#c0c0c0" d="M457.0877,-296.4C467.143,-296.4 494.4759,-296.4 511.307,-296.4"/>
<polygon fill="#c0c0c0" stroke="#c0c0c0" points="511.6708,-299.9001 521.6707,-296.4 511.6707,-292.9001 511.6708,-299.9001"/>
<text text-anchor="middle" x="494.0201" y="-290.1" font-family="Arial" font-size="7.00" fill="#000000">Panamalaan</text>
</g>
<!-- 6507 -->
<g id="node17" class="node">
<title>6507</title>
<ellipse fill="#d3d3d3" stroke="#c0c0c0" cx="525.2167" cy="-224.4" rx="3.5" ry="3.5"/>
</g>
<!-- 6506&#45;&gt;6507 -->
<g id="edge17" class="edge">
<title>6506&#45;&gt;6507</title>
<path fill="none" stroke="#c0c0c0" d="M525.2167,-292.529C525.2167,-282.4737 525.2167,-255.1408 525.2167,-238.3097"/>
<polygon fill="#c0c0c0" stroke="#c0c0c0" points="528.7168,-237.9459 525.2167,-227.9459 521.7168,-237.946 528.7168,-237.9459"/>
<text text-anchor="middle" x="504.7977" y="-267.5193" font-family="Arial" font-size="7.00" fill="#000000">Cruquiusweg</text>
</g>
<!-- 6508 -->
<g id="node18" class="node">
<title>6508</title>
<ellipse fill="#d3d3d3" stroke="#c0c0c0" cx="597.2167" cy="-224.4" rx="3.5" ry="3.5"/>
</g>
<!-- 6507&#45;&gt;6508 -->
<g id="edge18" class="edge">
<title>6507&#45;&gt;6508</title>
<path fill="none" stroke="#c0c0c0" d="M529.0877,-224.4C539.143,-224.4 566.4759,-224.4 583.307,-224.4"/>
<polygon fill="#c0c0c0" stroke="#c0c0c0" points="583.6708,-227.9001 593.6707,-224.4 583.6707,-220.9001 583.6708,-227.9001"/>
<text text-anchor="middle" x="556.1974" y="-218.1" font-family="Arial" font-size="7.00" fill="#000000">C. van Eesterenlaan</text>
</g>
<!-- 6509 -->
<g id="node19" class="node">
<title>6509</title>
<ellipse fill="#d3d3d3" stroke="#c0c0c0" cx="597.2167" cy="-152.4" rx="3.5" ry="3.5"/>
</g>
<!-- 6508&#45;&gt;6509 -->
<g id="edge19" class="edge">
<title>6508&#45;&gt;6509</title>
<path fill="none" stroke="#c0c0c0" d="M597.2167,-220.529C597.2167,-210.4737 597.2167,-183.1408 597.2167,-166.3097"/>
<polygon fill="#c0c0c0" stroke="#c0c0c0" points="600.7168,-165.9459 597.2167,-155.9459 593.7168,-165.946 600.7168,-165.9459"/>
<text text-anchor="middle" x="562.4022" y="-203.9193" font-family="Arial" font-size="7.00" fill="#000000">J.F. Van Hengelstraat </text>
<text text-anchor="middle" x="562.4022" y="-195.5193" font-family="Arial" font-size="7.00" fill="#000000"> Verbindingsdam</text>
</g>
<!-- 6510 -->
<g id="node20" class="node">
<title>6510</title>
<ellipse fill="#d3d3d3" stroke="#c0c0c0" cx="525.2167" cy="-152.4" rx="25.7236" ry="25.7236"/>
<text text-anchor="middle" x="525.2167" y="-150.3" font-family="Arial" font-size="7.00" fill="#000000">KNSM</text>
</g>
<!-- 6509&#45;&gt;6510 -->
<g id="edge20" class="edge">
<title>6509&#45;&gt;6510</title>
<path fill="none" stroke="#c0c0c0" d="M593.3456,-152.4C587.0766,-152.4 574.0918,-152.4 561.1231,-152.4"/>
<polygon fill="#c0c0c0" stroke="#c0c0c0" points="560.8547,-148.9001 550.8546,-152.4 560.8546,-155.9001 560.8547,-148.9001"/>
<text text-anchor="middle" x="577.2344" y="-146.1" font-family="Arial" font-size="7.00" fill="#000000">KNSM&#45;Laan</text>
</g>
</g>
</svg>

