<?xml version="1.0" encoding="UTF-8" standalone="no"?>
<!DOCTYPE svg PUBLIC "-//W3C//DTD SVG 1.1//EN"
 "http://www.w3.org/Graphics/SVG/1.1/DTD/svg11.dtd">
<!-- Generated by graphviz version 2.40.1 (20161225.0304)
 -->
<!-- Title: G Pages: 1 -->
<svg width="659pt" height="335pt"
 viewBox="0.00 0.00 659.02 335.02" xmlns="http://www.w3.org/2000/svg" xmlns:xlink="http://www.w3.org/1999/xlink">
<g id="graph0" class="graph" transform="scale(1 1) rotate(0) translate(4 331.0235)">
<title>G</title>
<polygon fill="#ffffff" stroke="transparent" points="-4,4 -4,-331.0235 655.0245,-331.0235 655.0245,4 -4,4"/>
<!-- 4000 -->
<g id="node1" class="node">
<title>4000</title>
<ellipse fill="#d3d3d3" stroke="#c0c0c0" cx="25.4608" cy="-156" rx="25.4216" ry="25.4216"/>
<text text-anchor="middle" x="25.4608" y="-153" font-family="Arial" font-size="10.00" fill="#000000">ASA</text>
</g>
<!-- 4002 -->
<g id="node2" class="node">
<title>4002</title>
<ellipse fill="#d3d3d3" stroke="#c0c0c0" cx="169.4608" cy="-156" rx="3.5" ry="3.5"/>
</g>
<!-- 4000&#45;&gt;4002 -->
<g id="edge1" class="edge">
<title>4000&#45;&gt;4002</title>
<path fill="none" stroke="#c0c0c0" d="M51.2051,-156C81.6516,-156 131.2351,-156 155.3699,-156"/>
<polygon fill="#c0c0c0" stroke="#c0c0c0" points="155.6578,-159.5001 165.6578,-156 155.6577,-152.5001 155.6578,-159.5001"/>
<text text-anchor="middle" x="103.2875" y="-147" font-family="Arial" font-size="10.00" fill="#000000">Overzichtweg </text>
<text text-anchor="middle" x="103.2875" y="-135" font-family="Arial" font-size="10.00" fill="#000000"> Hugo de Vrieslaan</text>
</g>
<!-- 4003 -->
<g id="node3" class="node">
<title>4003</title>
<ellipse fill="#d3d3d3" stroke="#c0c0c0" cx="169.4608" cy="-84" rx="3.5" ry="3.5"/>
</g>
<!-- 4002&#45;&gt;4003 -->
<g id="edge3" class="edge">
<title>4002&#45;&gt;4003</title>
<path fill="none" stroke="#c0c0c0" d="M169.4608,-152.129C169.4608,-142.0737 169.4608,-114.7408 169.4608,-97.9096"/>
<polygon fill="#c0c0c0" stroke="#c0c0c0" points="172.9609,-97.5459 169.4608,-87.5459 165.9609,-97.546 172.9609,-97.5459"/>
<text text-anchor="middle" x="137.5168" y="-116.0193" font-family="Arial" font-size="10.00" fill="#000000">Maxwellstraat </text>
<text text-anchor="middle" x="137.5168" y="-104.0193" font-family="Arial" font-size="10.00" fill="#000000"> (lijn 40)</text>
</g>
<!-- 6500 -->
<g id="node9" class="node">
<title>6500</title>
<ellipse fill="#d3d3d3" stroke="#c0c0c0" cx="241.4608" cy="-156" rx="3.5" ry="3.5"/>
</g>
<!-- 4002&#45;&gt;6500 -->
<g id="edge2" class="edge">
<title>4002&#45;&gt;6500</title>
<path fill="none" stroke="#c0c0c0" d="M173.3318,-156C183.3871,-156 210.72,-156 227.5511,-156"/>
<polygon fill="#c0c0c0" stroke="#c0c0c0" points="227.9149,-159.5001 237.9149,-156 227.9148,-152.5001 227.9149,-159.5001"/>
<text text-anchor="middle" x="147.0965" y="-195" font-family="Arial" font-size="10.00" fill="#000000">Hugo de Vrieslaan </text>
<text text-anchor="middle" x="147.0965" y="-183" font-family="Arial" font-size="10.00" fill="#000000"> Wethouder Frankeweg </text>
<text text-anchor="middle" x="147.0965" y="-171" font-family="Arial" font-size="10.00" fill="#000000"> Galileïplantsoen </text>
<text text-anchor="middle" x="147.0965" y="-159" font-family="Arial" font-size="10.00" fill="#000000"> (lijn 65)</text>
</g>
<!-- 4004 -->
<g id="node4" class="node">
<title>4004</title>
<ellipse fill="#d3d3d3" stroke="#c0c0c0" cx="313.4608" cy="-84" rx="3.5" ry="3.5"/>
</g>
<!-- 4003&#45;&gt;4004 -->
<g id="edge4" class="edge">
<title>4003&#45;&gt;4004</title>
<path fill="none" stroke="#c0c0c0" d="M173.0203,-84C190.5319,-84 267.9686,-84 299.7636,-84"/>
<polygon fill="#c0c0c0" stroke="#c0c0c0" points="299.7657,-87.5001 309.7656,-84 299.7656,-80.5001 299.7657,-87.5001"/>
<text text-anchor="middle" x="215.556" y="-87" font-family="Arial" font-size="10.00" fill="#000000">Kruislaan</text>
</g>
<!-- 4005 -->
<g id="node5" class="node">
<title>4005</title>
<ellipse fill="#d3d3d3" stroke="#c0c0c0" cx="385.4608" cy="-84" rx=".5" ry=".5"/>
</g>
<!-- 4004&#45;&gt;4005 -->
<g id="edge5" class="edge">
<title>4004&#45;&gt;4005</title>
<path fill="none" stroke="#c0c0c0" d="M317.3318,-84C328.0662,-84 358.4908,-84 374.8091,-84"/>
<polygon fill="#c0c0c0" stroke="#c0c0c0" points="374.86,-87.5001 384.86,-84 374.8599,-80.5001 374.86,-87.5001"/>
<text text-anchor="middle" x="375.521" y="-75" font-family="Arial" font-size="10.00" fill="#000000">Science Park</text>
</g>
<!-- 6502 -->
<g id="node11" class="node">
<title>6502</title>
<ellipse fill="#d3d3d3" stroke="#c0c0c0" cx="313.4608" cy="-228" rx="3.5" ry="3.5"/>
</g>
<!-- 4004&#45;&gt;6502 -->
<g id="edge9" class="edge">
<title>4004&#45;&gt;6502</title>
<path fill="none" stroke="#c0c0c0" d="M313.4608,-87.5596C313.4608,-105.0711 313.4608,-182.5079 313.4608,-214.3028"/>
<polygon fill="#c0c0c0" stroke="#c0c0c0" points="309.9609,-214.3048 313.4608,-224.3048 316.9609,-214.3049 309.9609,-214.3048"/>
<text text-anchor="middle" x="276.5173" y="-141.9312" font-family="Arial" font-size="10.00" fill="#000000">Carolina </text>
<text text-anchor="middle" x="276.5173" y="-129.9312" font-family="Arial" font-size="10.00" fill="#000000"> MacGillavrylaan</text>
</g>
<!-- 4006 -->
<g id="node6" class="node">
<title>4006</title>
<ellipse fill="#d3d3d3" stroke="#c0c0c0" cx="385.4608" cy="-12" rx=".5" ry=".5"/>
</g>
<!-- 4005&#45;&gt;4006 -->
<g id="edge6" class="edge">
<title>4005&#45;&gt;4006</title>
<path fill="none" stroke="#c0c0c0" d="M385.4608,-83.1914C385.4608,-77.3399 385.4608,-41.188 385.4608,-22.767"/>
<polygon fill="#c0c0c0" stroke="#c0c0c0" points="388.9609,-22.7126 385.4608,-12.7126 381.9609,-22.7126 388.9609,-22.7126"/>
<text text-anchor="middle" x="356.0103" y="-55.9792" font-family="Arial" font-size="10.00" fill="#000000">Science Park</text>
</g>
<!-- 4007 -->
<g id="node7" class="node">
<title>4007</title>
<ellipse fill="#d3d3d3" stroke="#c0c0c0" cx="313.4608" cy="-12" rx="3.5" ry="3.5"/>
</g>
<!-- 4006&#45;&gt;4007 -->
<g id="edge7" class="edge">
<title>4006&#45;&gt;4007</title>
<path fill="none" stroke="#c0c0c0" d="M384.6522,-12C379.1266,-12 346.5816,-12 327.4622,-12"/>
<polygon fill="#c0c0c0" stroke="#c0c0c0" points="327.2557,-8.5001 317.2557,-12 327.2556,-15.5001 327.2557,-8.5001"/>
<text text-anchor="middle" x="385.5077" y="-3" font-family="Arial" font-size="10.00" fill="#000000">Science Park</text>
</g>
<!-- 4007&#45;&gt;4004 -->
<g id="edge8" class="edge">
<title>4007&#45;&gt;4004</title>
<path fill="none" stroke="#c0c0c0" d="M313.4608,-15.871C313.4608,-25.9263 313.4608,-53.2592 313.4608,-70.0903"/>
<polygon fill="#c0c0c0" stroke="#c0c0c0" points="309.9609,-70.454 313.4608,-80.4541 316.9609,-70.4541 309.9609,-70.454"/>
<text text-anchor="middle" x="257.9063" y="-45.9807" font-family="Arial" font-size="10.00" fill="#000000">Carolina MacGillavrylaan</text>
</g>
<!-- 4008 -->
<g id="node8" class="node">
<title>4008</title>
<ellipse fill="#d3d3d3" stroke="#c0c0c0" cx="385.4608" cy="-300" rx="27.047" ry="27.047"/>
<text text-anchor="middle" x="385.4608" y="-297" font-family="Arial" font-size="10.00" fill="#000000">MDS</text>
</g>
<!-- 6501 -->
<g id="node10" class="node">
<title>6501</title>
<ellipse fill="#d3d3d3" stroke="#c0c0c0" cx="241.4608" cy="-228" rx="3.5" ry="3.5"/>
</g>
<!-- 6500&#45;&gt;6501 -->
<g id="edge10" class="edge">
<title>6500&#45;&gt;6501</title>
<path fill="none" stroke="#c0c0c0" d="M241.4608,-159.871C241.4608,-169.9263 241.4608,-197.2592 241.4608,-214.0903"/>
<polygon fill="#c0c0c0" stroke="#c0c0c0" points="237.9609,-214.454 241.4608,-224.4541 244.9609,-214.4541 237.9609,-214.454"/>
<text text-anchor="middle" x="277.0203" y="-189.9807" font-family="Arial" font-size="10.00" fill="#000000">Archimedesweg</text>
</g>
<!-- 6501&#45;&gt;6502 -->
<g id="edge11" class="edge">
<title>6501&#45;&gt;6502</title>
<path fill="none" stroke="#c0c0c0" d="M245.3318,-228C255.3871,-228 282.72,-228 299.5511,-228"/>
<polygon fill="#c0c0c0" stroke="#c0c0c0" points="299.9149,-231.5001 309.9148,-228 299.9148,-224.5001 299.9149,-231.5001"/>
</g>
<!-- 6503 -->
<g id="node12" class="node">
<title>6503</title>
<ellipse fill="#d3d3d3" stroke="#c0c0c0" cx="385.4608" cy="-228" rx="3.5" ry="3.5"/>
</g>
<!-- 6502&#45;&gt;6503 -->
<g id="edge12" class="edge">
<title>6502&#45;&gt;6503</title>
<path fill="none" stroke="#c0c0c0" d="M317.3318,-228C327.3871,-228 354.72,-228 371.5511,-228"/>
<polygon fill="#c0c0c0" stroke="#c0c0c0" points="371.9149,-231.5001 381.9149,-228 371.9148,-224.5001 371.9149,-231.5001"/>
<text text-anchor="middle" x="310.547" y="-231" font-family="Arial" font-size="10.00" fill="#000000">Molukkenstraat</text>
</g>
<!-- 6503&#45;&gt;4008 -->
<g id="edge20" class="edge">
<title>6503&#45;&gt;4008</title>
<path fill="none" stroke="#c0c0c0" d="M385.4608,-231.871C385.4608,-237.9557 385.4608,-250.3669 385.4608,-262.9494"/>
<polygon fill="#c0c0c0" stroke="#c0c0c0" points="381.9609,-262.9593 385.4608,-272.9594 388.9609,-262.9594 381.9609,-262.9593"/>
<text text-anchor="middle" x="354.8968" y="-262.4102" font-family="Arial" font-size="10.00" fill="#000000">Insulindeweg </text>
<text text-anchor="middle" x="354.8968" y="-250.4102" font-family="Arial" font-size="10.00" fill="#000000"> (lijn 40)</text>
</g>
<!-- 6504 -->
<g id="node13" class="node">
<title>6504</title>
<ellipse fill="#d3d3d3" stroke="#c0c0c0" cx="457.4608" cy="-228" rx="3.5" ry="3.5"/>
</g>
<!-- 6503&#45;&gt;6504 -->
<g id="edge13" class="edge">
<title>6503&#45;&gt;6504</title>
<path fill="none" stroke="#c0c0c0" d="M389.3318,-228C399.3871,-228 426.72,-228 443.5511,-228"/>
<polygon fill="#c0c0c0" stroke="#c0c0c0" points="443.9149,-231.5001 453.9149,-228 443.9148,-224.5001 443.9149,-231.5001"/>
<text text-anchor="middle" x="451.7255" y="-243" font-family="Arial" font-size="10.00" fill="#000000">Molukkenstraat </text>
<text text-anchor="middle" x="451.7255" y="-231" font-family="Arial" font-size="10.00" fill="#000000"> (lijn 65)</text>
</g>
<!-- 6505 -->
<g id="node14" class="node">
<title>6505</title>
<ellipse fill="#d3d3d3" stroke="#c0c0c0" cx="457.4608" cy="-300" rx="3.5" ry="3.5"/>
</g>
<!-- 6504&#45;&gt;6505 -->
<g id="edge14" class="edge">
<title>6504&#45;&gt;6505</title>
<path fill="none" stroke="#c0c0c0" d="M457.4608,-231.871C457.4608,-241.9263 457.4608,-269.2592 457.4608,-286.0903"/>
<polygon fill="#c0c0c0" stroke="#c0c0c0" points="453.9609,-286.454 457.4608,-296.4541 460.9609,-286.4541 453.9609,-286.454"/>
<text text-anchor="middle" x="426.9018" y="-261.9807" font-family="Arial" font-size="10.00" fill="#000000">Zeeburgerdijk</text>
</g>
<!-- 6506 -->
<g id="node15" class="node">
<title>6506</title>
<ellipse fill="#d3d3d3" stroke="#c0c0c0" cx="529.4608" cy="-300" rx="3.5" ry="3.5"/>
</g>
<!-- 6505&#45;&gt;6506 -->
<g id="edge15" class="edge">
<title>6505&#45;&gt;6506</title>
<path fill="none" stroke="#c0c0c0" d="M461.3318,-300C471.3871,-300 498.72,-300 515.5511,-300"/>
<polygon fill="#c0c0c0" stroke="#c0c0c0" points="515.9149,-303.5001 525.9148,-300 515.9148,-296.5001 515.9149,-303.5001"/>
<text text-anchor="middle" x="488.4415" y="-291" font-family="Arial" font-size="10.00" fill="#000000">Panamalaan</text>
</g>
<!-- 6507 -->
<g id="node16" class="node">
<title>6507</title>
<ellipse fill="#d3d3d3" stroke="#c0c0c0" cx="529.4608" cy="-228" rx="3.5" ry="3.5"/>
</g>
<!-- 6506&#45;&gt;6507 -->
<g id="edge16" class="edge">
<title>6506&#45;&gt;6507</title>
<path fill="none" stroke="#c0c0c0" d="M529.4608,-296.129C529.4608,-286.0737 529.4608,-258.7408 529.4608,-241.9096"/>
<polygon fill="#c0c0c0" stroke="#c0c0c0" points="532.9609,-241.5459 529.4608,-231.5459 525.9609,-241.546 532.9609,-241.5459"/>
<text text-anchor="middle" x="500.2908" y="-272.0193" font-family="Arial" font-size="10.00" fill="#000000">Cruquiusweg</text>
</g>
<!-- 6508 -->
<g id="node17" class="node">
<title>6508</title>
<ellipse fill="#d3d3d3" stroke="#c0c0c0" cx="601.4608" cy="-228" rx="3.5" ry="3.5"/>
</g>
<!-- 6507&#45;&gt;6508 -->
<g id="edge17" class="edge">
<title>6507&#45;&gt;6508</title>
<path fill="none" stroke="#c0c0c0" d="M533.3318,-228C543.3871,-228 570.72,-228 587.5511,-228"/>
<polygon fill="#c0c0c0" stroke="#c0c0c0" points="587.9149,-231.5001 597.9148,-228 587.9148,-224.5001 587.9149,-231.5001"/>
<text text-anchor="middle" x="605.733" y="-231" font-family="Arial" font-size="10.00" fill="#000000">C. van Eesterenlaan</text>
</g>
<!-- 6509 -->
<g id="node18" class="node">
<title>6509</title>
<ellipse fill="#d3d3d3" stroke="#c0c0c0" cx="601.4608" cy="-156" rx="3.5" ry="3.5"/>
</g>
<!-- 6508&#45;&gt;6509 -->
<g id="edge18" class="edge">
<title>6508&#45;&gt;6509</title>
<path fill="none" stroke="#c0c0c0" d="M601.4608,-224.129C601.4608,-214.0737 601.4608,-186.7408 601.4608,-169.9096"/>
<polygon fill="#c0c0c0" stroke="#c0c0c0" points="604.9609,-169.5459 601.4608,-159.5459 597.9609,-169.546 604.9609,-169.5459"/>
<text text-anchor="middle" x="551.7258" y="-212.0193" font-family="Arial" font-size="10.00" fill="#000000">J.F. Van Hengelstraat </text>
<text text-anchor="middle" x="551.7258" y="-200.0193" font-family="Arial" font-size="10.00" fill="#000000"> Verbindingsdam</text>
</g>
<!-- 6510 -->
<g id="node19" class="node">
<title>6510</title>
<ellipse fill="#d3d3d3" stroke="#c0c0c0" cx="529.4608" cy="-156" rx="31.9802" ry="31.9802"/>
<text text-anchor="middle" x="529.4608" y="-153" font-family="Arial" font-size="10.00" fill="#000000">KNSM</text>
</g>
<!-- 6509&#45;&gt;6510 -->
<g id="edge19" class="edge">
<title>6509&#45;&gt;6510</title>
<path fill="none" stroke="#c0c0c0" d="M597.5897,-156C592.3659,-156 582.4788,-156 571.8236,-156"/>
<polygon fill="#c0c0c0" stroke="#c0c0c0" points="571.4997,-152.5001 561.4997,-156 571.4996,-159.5001 571.4997,-152.5001"/>
<text text-anchor="middle" x="611.9322" y="-159" font-family="Arial" font-size="10.00" fill="#000000">KNSM&#45;Laan</text>
</g>
</g>
</svg>

