<?xml version="1.0" encoding="UTF-8" standalone="no"?>
<!DOCTYPE svg PUBLIC "-//W3C//DTD SVG 1.1//EN"
 "http://www.w3.org/Graphics/SVG/1.1/DTD/svg11.dtd">
<!-- Generated by graphviz version 2.40.1 (20161225.0304)
 -->
<!-- Title: G Pages: 1 -->
<svg width="497pt" height="619pt"
 viewBox="0.00 0.00 497.20 619.24" xmlns="http://www.w3.org/2000/svg" xmlns:xlink="http://www.w3.org/1999/xlink">
<g id="graph0" class="graph" transform="scale(1 1) rotate(0) translate(4 615.2392)">
<title>G</title>
<polygon fill="#ffffff" stroke="transparent" points="-4,4 -4,-615.2392 493.2,-615.2392 493.2,4 -4,4"/>
<!-- 4000 -->
<g id="node1" class="node">
<title>4000</title>
<ellipse fill="#d3d3d3" stroke="#c0c0c0" cx="25.4608" cy="-147.5" rx="25.4216" ry="25.4216"/>
<text text-anchor="middle" x="25.4608" y="-144.5" font-family="Arial" font-size="10.00" fill="#000000">ASA</text>
</g>
<!-- 4002 -->
<g id="node3" class="node">
<title>4002</title>
<ellipse fill="#d3d3d3" stroke="#c0c0c0" cx="169.4608" cy="-147.5" rx="3.5" ry="3.5"/>
</g>
<!-- 4000&#45;&gt;4002 -->
<g id="edge1" class="edge">
<title>4000&#45;&gt;4002</title>
<path fill="none" stroke="#c0c0c0" d="M51.2051,-147.5C81.6516,-147.5 131.2351,-147.5 155.3699,-147.5"/>
<polygon fill="#c0c0c0" stroke="#c0c0c0" points="155.6578,-151.0001 165.6578,-147.5 155.6578,-144.0001 155.6578,-151.0001"/>
<text text-anchor="middle" x="103.2875" y="-138.5" font-family="Arial" font-size="10.00" fill="#000000">Overzichtweg </text>
<text text-anchor="middle" x="103.2875" y="-126.5" font-family="Arial" font-size="10.00" fill="#000000"> Hugo de Vrieslaan</text>
</g>
<!-- 4001 -->
<g id="node2" class="node">
<title>4001</title>
<ellipse fill="#d3d3d3" stroke="#c0c0c0" cx="385.4608" cy="-219.5" rx=".5" ry=".5"/>
</g>
<!-- 6502 -->
<g id="node12" class="node">
<title>6502</title>
<ellipse fill="#d3d3d3" stroke="#c0c0c0" cx="313.4608" cy="-291.5" rx="3.5" ry="3.5"/>
</g>
<!-- 4001&#45;&gt;6502 -->
<g id="edge10" class="edge">
<title>4001&#45;&gt;6502</title>
<path fill="none" stroke="#c0c0c0" d="M385.001,-219.9598C380.3489,-224.6119 341.5788,-263.382 323.1367,-281.8241"/>
<polygon fill="#c0c0c0" stroke="#c0c0c0" points="320.5511,-279.4599 315.9549,-289.0059 325.5009,-284.4097 320.5511,-279.4599"/>
</g>
<!-- 4003 -->
<g id="node4" class="node">
<title>4003</title>
<ellipse fill="#d3d3d3" stroke="#c0c0c0" cx="169.4608" cy="-75.5" rx="3.5" ry="3.5"/>
</g>
<!-- 4002&#45;&gt;4003 -->
<g id="edge3" class="edge">
<title>4002&#45;&gt;4003</title>
<path fill="none" stroke="#c0c0c0" d="M169.4608,-143.629C169.4608,-133.5737 169.4608,-106.2408 169.4608,-89.4097"/>
<polygon fill="#c0c0c0" stroke="#c0c0c0" points="172.9609,-89.0459 169.4608,-79.0459 165.9609,-89.046 172.9609,-89.0459"/>
<text text-anchor="middle" x="137.5168" y="-107.5193" font-family="Arial" font-size="10.00" fill="#000000">Maxwellstraat </text>
<text text-anchor="middle" x="137.5168" y="-95.5193" font-family="Arial" font-size="10.00" fill="#000000"> (lijn 40)</text>
</g>
<!-- 6500 -->
<g id="node10" class="node">
<title>6500</title>
<ellipse fill="#d3d3d3" stroke="#c0c0c0" cx="277.4608" cy="-147.5" rx="3.5" ry="3.5"/>
</g>
<!-- 4002&#45;&gt;6500 -->
<g id="edge2" class="edge">
<title>4002&#45;&gt;6500</title>
<path fill="none" stroke="#c0c0c0" d="M173.0542,-147.5C187.0814,-147.5 238.6084,-147.5 263.6359,-147.5"/>
<polygon fill="#c0c0c0" stroke="#c0c0c0" points="263.7432,-151.0001 273.7432,-147.5 263.7432,-144.0001 263.7432,-151.0001"/>
<text text-anchor="middle" x="218.345" y="-138.5" font-family="Arial" font-size="10.00" fill="#000000">Hugo de Vrieslaan </text>
<text text-anchor="middle" x="218.345" y="-126.5" font-family="Arial" font-size="10.00" fill="#000000"> Wethouder&#45;</text>
<text text-anchor="middle" x="218.345" y="-114.5" font-family="Arial" font-size="10.00" fill="#000000"> &#45;Frankeweg </text>
<text text-anchor="middle" x="218.345" y="-102.5" font-family="Arial" font-size="10.00" fill="#000000"> Galileïplantsoen </text>
<text text-anchor="middle" x="218.345" y="-90.5" font-family="Arial" font-size="10.00" fill="#000000"> (lijn 65)</text>
</g>
<!-- 4004 -->
<g id="node5" class="node">
<title>4004</title>
<ellipse fill="#d3d3d3" stroke="#c0c0c0" cx="385.4608" cy="-75.5" rx="3.5" ry="3.5"/>
</g>
<!-- 4003&#45;&gt;4004 -->
<g id="edge4" class="edge">
<title>4003&#45;&gt;4004</title>
<path fill="none" stroke="#c0c0c0" d="M173.2099,-75.5C197.1226,-75.5 328.6901,-75.5 371.7876,-75.5"/>
<polygon fill="#c0c0c0" stroke="#c0c0c0" points="371.9419,-79.0001 381.9419,-75.5 371.9418,-72.0001 371.9419,-79.0001"/>
<text text-anchor="middle" x="251.6627" y="-78.5" font-family="Arial" font-size="10.00" fill="#000000">Kruislaan</text>
</g>
<!-- 4004&#45;&gt;4001 -->
<g id="edge9" class="edge">
<title>4004&#45;&gt;4001</title>
<path fill="none" stroke="#c0c0c0" d="M385.4608,-79.0596C385.4608,-100.1949 385.4608,-208.6237 385.4608,-218.7425"/>
<text text-anchor="middle" x="348.5173" y="-163.901" font-family="Arial" font-size="10.00" fill="#000000">Carolina </text>
<text text-anchor="middle" x="348.5173" y="-151.901" font-family="Arial" font-size="10.00" fill="#000000"> MacGillavrylaan</text>
</g>
<!-- 4005 -->
<g id="node6" class="node">
<title>4005</title>
<ellipse fill="#d3d3d3" stroke="#c0c0c0" cx="457.4608" cy="-75.5" rx=".5" ry=".5"/>
</g>
<!-- 4004&#45;&gt;4005 -->
<g id="edge5" class="edge">
<title>4004&#45;&gt;4005</title>
<path fill="none" stroke="#c0c0c0" d="M389.3318,-75.5C400.0662,-75.5 430.4909,-75.5 446.8091,-75.5"/>
<polygon fill="#c0c0c0" stroke="#c0c0c0" points="446.86,-79.0001 456.86,-75.5 446.8599,-72.0001 446.86,-79.0001"/>
<text text-anchor="middle" x="447.521" y="-78.5" font-family="Arial" font-size="10.00" fill="#000000">Science Park</text>
</g>
<!-- 4006 -->
<g id="node7" class="node">
<title>4006</title>
<ellipse fill="#d3d3d3" stroke="#c0c0c0" cx="457.4608" cy="-3.5" rx=".5" ry=".5"/>
</g>
<!-- 4005&#45;&gt;4006 -->
<g id="edge6" class="edge">
<title>4005&#45;&gt;4006</title>
<path fill="none" stroke="#c0c0c0" d="M457.4608,-74.6914C457.4608,-68.8399 457.4608,-32.688 457.4608,-14.267"/>
<polygon fill="#c0c0c0" stroke="#c0c0c0" points="460.9609,-14.2126 457.4608,-4.2126 453.9609,-14.2126 460.9609,-14.2126"/>
</g>
<!-- 4007 -->
<g id="node8" class="node">
<title>4007</title>
<ellipse fill="#d3d3d3" stroke="#c0c0c0" cx="385.4608" cy="-3.5" rx="3.5" ry="3.5"/>
</g>
<!-- 4006&#45;&gt;4007 -->
<g id="edge7" class="edge">
<title>4006&#45;&gt;4007</title>
<path fill="none" stroke="#c0c0c0" d="M456.6522,-3.5C451.1266,-3.5 418.5816,-3.5 399.4622,-3.5"/>
<polygon fill="#c0c0c0" stroke="#c0c0c0" points="399.2557,-.0001 389.2557,-3.5 399.2557,-7.0001 399.2557,-.0001"/>
</g>
<!-- 4007&#45;&gt;4004 -->
<g id="edge8" class="edge">
<title>4007&#45;&gt;4004</title>
<path fill="none" stroke="#c0c0c0" d="M385.4608,-7.371C385.4608,-17.4263 385.4608,-44.7592 385.4608,-61.5903"/>
<polygon fill="#c0c0c0" stroke="#c0c0c0" points="381.9609,-61.954 385.4608,-71.9541 388.9609,-61.9541 381.9609,-61.954"/>
<text text-anchor="middle" x="329.9063" y="-37.4807" font-family="Arial" font-size="10.00" fill="#000000">Carolina MacGillavrylaan</text>
</g>
<!-- 4008 -->
<g id="node9" class="node">
<title>4008</title>
<ellipse fill="#d3d3d3" stroke="#c0c0c0" cx="169.4608" cy="-363.5" rx="27.047" ry="27.047"/>
<text text-anchor="middle" x="169.4608" y="-360.5" font-family="Arial" font-size="10.00" fill="#000000">MDS</text>
</g>
<!-- 6501 -->
<g id="node11" class="node">
<title>6501</title>
<ellipse fill="#d3d3d3" stroke="#c0c0c0" cx="277.4608" cy="-219.5" rx="3.5" ry="3.5"/>
</g>
<!-- 6500&#45;&gt;6501 -->
<g id="edge11" class="edge">
<title>6500&#45;&gt;6501</title>
<path fill="none" stroke="#c0c0c0" d="M277.4608,-151.371C277.4608,-161.4263 277.4608,-188.7592 277.4608,-205.5904"/>
<polygon fill="#c0c0c0" stroke="#c0c0c0" points="273.9609,-205.954 277.4608,-215.9541 280.9609,-205.9541 273.9609,-205.954"/>
<text text-anchor="middle" x="241.9013" y="-181.4807" font-family="Arial" font-size="10.00" fill="#000000">Archimedesweg</text>
</g>
<!-- 6501&#45;&gt;6502 -->
<g id="edge12" class="edge">
<title>6501&#45;&gt;6502</title>
<path fill="none" stroke="#c0c0c0" d="M279.1972,-222.9727C284.1727,-232.9237 298.6657,-261.9099 307.1242,-278.8268"/>
<polygon fill="#c0c0c0" stroke="#c0c0c0" points="304.2222,-280.8491 311.8248,-288.2281 310.4832,-277.7185 304.2222,-280.8491"/>
<text text-anchor="middle" x="259.2662" y="-253.8998" font-family="Arial" font-size="10.00" fill="#000000">Molukkenstraat</text>
</g>
<!-- 6503 -->
<g id="node13" class="node">
<title>6503</title>
<ellipse fill="#d3d3d3" stroke="#c0c0c0" cx="313.4608" cy="-363.5" rx="3.5" ry="3.5"/>
</g>
<!-- 6502&#45;&gt;6503 -->
<g id="edge13" class="edge">
<title>6502&#45;&gt;6503</title>
<path fill="none" stroke="#c0c0c0" d="M313.4608,-295.371C313.4608,-305.4263 313.4608,-332.7592 313.4608,-349.5904"/>
<polygon fill="#c0c0c0" stroke="#c0c0c0" points="309.9609,-349.954 313.4608,-359.9541 316.9609,-349.9541 309.9609,-349.954"/>
<text text-anchor="middle" x="279.5663" y="-325.4807" font-family="Arial" font-size="10.00" fill="#000000">Molukkenstraat</text>
</g>
<!-- 6503&#45;&gt;4008 -->
<g id="edge20" class="edge">
<title>6503&#45;&gt;4008</title>
<path fill="none" stroke="#c0c0c0" d="M309.9012,-363.5C295.9075,-363.5 243.6462,-363.5 206.9889,-363.5"/>
<polygon fill="#c0c0c0" stroke="#c0c0c0" points="206.6413,-360.0001 196.6413,-363.5 206.6412,-367.0001 206.6413,-360.0001"/>
<text text-anchor="middle" x="227.8811" y="-378.5" font-family="Arial" font-size="10.00" fill="#000000">Insulindeweg </text>
<text text-anchor="middle" x="227.8811" y="-366.5" font-family="Arial" font-size="10.00" fill="#000000"> (lijn 40)</text>
</g>
<!-- 6505 -->
<g id="node14" class="node">
<title>6505</title>
<ellipse fill="#d3d3d3" stroke="#c0c0c0" cx="313.4608" cy="-435.5" rx=".5" ry=".5"/>
</g>
<!-- 6503&#45;&gt;6505 -->
<g id="edge14" class="edge">
<title>6503&#45;&gt;6505</title>
<path fill="none" stroke="#c0c0c0" d="M313.4608,-367.371C313.4608,-378.1054 313.4608,-408.5301 313.4608,-424.8483"/>
<polygon fill="#c0c0c0" stroke="#c0c0c0" points="309.9609,-424.8991 313.4608,-434.8992 316.9609,-424.8992 309.9609,-424.8991"/>
<text text-anchor="middle" x="279.5663" y="-423.1097" font-family="Arial" font-size="10.00" fill="#000000">Molukkenstraat</text>
<text text-anchor="middle" x="279.5663" y="-411.1097" font-family="Arial" font-size="10.00" fill="#000000"> &#160;Veelaan</text>
<text text-anchor="middle" x="279.5663" y="-399.1097" font-family="Arial" font-size="10.00" fill="#000000"> (lijn 65)</text>
</g>
<!-- 6507 -->
<g id="node16" class="node">
<title>6507</title>
<ellipse fill="#d3d3d3" stroke="#c0c0c0" cx="241.4608" cy="-435.5" rx="3.5" ry="3.5"/>
</g>
<!-- 6505&#45;&gt;6507 -->
<g id="edge15" class="edge">
<title>6505&#45;&gt;6507</title>
<path fill="none" stroke="#c0c0c0" d="M312.6522,-435.5C307.1266,-435.5 274.5816,-435.5 255.4622,-435.5"/>
<polygon fill="#c0c0c0" stroke="#c0c0c0" points="255.2557,-432.0001 245.2557,-435.5 255.2557,-439.0001 255.2557,-432.0001"/>
<text text-anchor="middle" x="313.2272" y="-438.5" font-family="Arial" font-size="10.00" fill="#000000">Cruquiusweg</text>
</g>
<!-- 6506 -->
<g id="node15" class="node">
<title>6506</title>
<ellipse fill="#d3d3d3" stroke="#c0c0c0" cx="313.4608" cy="-579.5" rx="3.5" ry="3.5"/>
</g>
<!-- 6510 -->
<g id="node19" class="node">
<title>6510</title>
<ellipse fill="#d3d3d3" stroke="#c0c0c0" cx="457.4608" cy="-579.5" rx="31.9802" ry="31.9802"/>
<text text-anchor="middle" x="457.4608" y="-576.5" font-family="Arial" font-size="10.00" fill="#000000">KNSM</text>
</g>
<!-- 6506&#45;&gt;6510 -->
<g id="edge19" class="edge">
<title>6506&#45;&gt;6510</title>
<path fill="none" stroke="#c0c0c0" d="M317.0204,-579.5C330.4228,-579.5 378.9273,-579.5 415.2065,-579.5"/>
<polygon fill="#c0c0c0" stroke="#c0c0c0" points="415.5472,-583.0001 425.5472,-579.5 415.5472,-576.0001 415.5472,-583.0001"/>
<text text-anchor="middle" x="393.3389" y="-582.5" font-family="Arial" font-size="10.00" fill="#000000">KNSM&#45;Laan</text>
</g>
<!-- 6508 -->
<g id="node17" class="node">
<title>6508</title>
<ellipse fill="#d3d3d3" stroke="#c0c0c0" cx="241.4608" cy="-507.5" rx="3.5" ry="3.5"/>
</g>
<!-- 6507&#45;&gt;6508 -->
<g id="edge16" class="edge">
<title>6507&#45;&gt;6508</title>
<path fill="none" stroke="#c0c0c0" d="M241.4608,-439.371C241.4608,-449.4263 241.4608,-476.7592 241.4608,-493.5903"/>
<polygon fill="#c0c0c0" stroke="#c0c0c0" points="237.9609,-493.954 241.4608,-503.9541 244.9609,-493.9541 237.9609,-493.954"/>
<text text-anchor="middle" x="196.1693" y="-469.4807" font-family="Arial" font-size="10.00" fill="#000000">C. van Eesterenlaan</text>
</g>
<!-- 6509 -->
<g id="node18" class="node">
<title>6509</title>
<ellipse fill="#d3d3d3" stroke="#c0c0c0" cx="313.4608" cy="-507.5" rx="3.5" ry="3.5"/>
</g>
<!-- 6508&#45;&gt;6509 -->
<g id="edge17" class="edge">
<title>6508&#45;&gt;6509</title>
<path fill="none" stroke="#c0c0c0" d="M245.3318,-507.5C255.3871,-507.5 282.72,-507.5 299.5511,-507.5"/>
<polygon fill="#c0c0c0" stroke="#c0c0c0" points="299.9149,-511.0001 309.9149,-507.5 299.9148,-504.0001 299.9149,-511.0001"/>
<text text-anchor="middle" x="224.096" y="-498.5" font-family="Arial" font-size="10.00" fill="#000000">J.F. Van Hengelstraat</text>
</g>
<!-- 6509&#45;&gt;6506 -->
<g id="edge18" class="edge">
<title>6509&#45;&gt;6506</title>
<path fill="none" stroke="#c0c0c0" d="M313.4608,-511.371C313.4608,-521.4263 313.4608,-548.7592 313.4608,-565.5903"/>
<polygon fill="#c0c0c0" stroke="#c0c0c0" points="309.9609,-565.954 313.4608,-575.9541 316.9609,-565.9541 309.9609,-565.954"/>
<text text-anchor="middle" x="277.3423" y="-541.4807" font-family="Arial" font-size="10.00" fill="#000000">Verbindingsdam</text>
</g>
</g>
</svg>

