<?xml version="1.0" encoding="UTF-8" standalone="no"?>
<!DOCTYPE svg PUBLIC "-//W3C//DTD SVG 1.1//EN"
 "http://www.w3.org/Graphics/SVG/1.1/DTD/svg11.dtd">
<!-- Generated by graphviz version 2.40.1 (20161225.0304)
 -->
<!-- Title: G Pages: 1 -->
<svg width="713pt" height="484pt"
 viewBox="0.00 0.00 712.80 484.16" xmlns="http://www.w3.org/2000/svg" xmlns:xlink="http://www.w3.org/1999/xlink">
<g id="graph0" class="graph" transform="scale(1 1) rotate(0) translate(4 480.1608)">
<title>G</title>
<polygon fill="#ffffff" stroke="transparent" points="-4,4 -4,-480.1608 708.804,-480.1608 708.804,4 -4,4"/>
<text text-anchor="middle" x="352.402" y="-5.8" font-family="Times,serif" font-size="6.00" fill="#000000">* Bij terugkomst gebruikt u afrit (1): Bijlmermeer</text>
<!-- 4900 -->
<g id="node1" class="node">
<title>4900</title>
<ellipse fill="#d3d3d3" stroke="#c0c0c0" cx="27.0235" cy="-306.7" rx="27.047" ry="27.047"/>
<text text-anchor="middle" x="27.0235" y="-303.7" font-family="Arial" font-size="10.00" fill="#000000">BMR</text>
</g>
<!-- 4901 -->
<g id="node2" class="node">
<title>4901</title>
<ellipse fill="#d3d3d3" stroke="#c0c0c0" cx="99.0235" cy="-306.7" rx="3.5" ry="3.5"/>
</g>
<!-- 4900&#45;&gt;4901 -->
<g id="edge1" class="edge">
<title>4900&#45;&gt;4901</title>
<path fill="none" stroke="#c0c0c0" d="M54.2436,-306.7C64.8538,-306.7 76.5477,-306.7 85.3241,-306.7"/>
<polygon fill="#c0c0c0" stroke="#c0c0c0" points="85.3696,-310.2001 95.3696,-306.7 85.3695,-303.2001 85.3696,-310.2001"/>
<text text-anchor="middle" x="94.7889" y="-321.7" font-family="Arial" font-size="10.00" fill="#000000">Hoogoord&#45; </text>
<text text-anchor="middle" x="94.7889" y="-309.7" font-family="Arial" font-size="10.00" fill="#000000"> &#45;dreef</text>
</g>
<!-- 4902 -->
<g id="node3" class="node">
<title>4902</title>
<ellipse fill="#d3d3d3" stroke="#c0c0c0" cx="99.0235" cy="-234.7" rx="3.5" ry="3.5"/>
</g>
<!-- 4901&#45;&gt;4902 -->
<g id="edge2" class="edge">
<title>4901&#45;&gt;4902</title>
<path fill="none" stroke="#c0c0c0" d="M99.0235,-302.829C99.0235,-292.7737 99.0235,-265.4408 99.0235,-248.6096"/>
<polygon fill="#c0c0c0" stroke="#c0c0c0" points="102.5236,-248.2459 99.0235,-238.2459 95.5236,-248.246 102.5236,-248.2459"/>
<text text-anchor="middle" x="65.4005" y="-266.7193" font-family="Arial" font-size="10.00" fill="#000000">Foppingadreef </text>
<text text-anchor="middle" x="65.4005" y="-254.7193" font-family="Arial" font-size="10.00" fill="#000000"> (lijn 49, 360*)</text>
</g>
<!-- 6601 -->
<g id="node19" class="node">
<title>6601</title>
<ellipse fill="#d3d3d3" stroke="#c0c0c0" cx="99.0235" cy="-378.7" rx="3.5" ry="3.5"/>
</g>
<!-- 4901&#45;&gt;6601 -->
<g id="edge22" class="edge">
<title>4901&#45;&gt;6601</title>
<path fill="none" stroke="#c0c0c0" d="M99.0235,-310.571C99.0235,-320.6263 99.0235,-347.9592 99.0235,-364.7903"/>
<polygon fill="#c0c0c0" stroke="#c0c0c0" points="95.5236,-365.154 99.0235,-375.1541 102.5236,-365.1541 95.5236,-365.154"/>
<text text-anchor="middle" x="65.4005" y="-352.6807" font-family="Arial" font-size="10.00" fill="#000000">Foppingadreef </text>
<text text-anchor="middle" x="65.4005" y="-340.6807" font-family="Arial" font-size="10.00" fill="#000000"> (lijn 66)</text>
</g>
<!-- 4903 -->
<g id="node4" class="node">
<title>4903</title>
<ellipse fill="#d3d3d3" stroke="#c0c0c0" cx="171.0235" cy="-234.7" rx="3.5" ry="3.5"/>
</g>
<!-- 4902&#45;&gt;4903 -->
<g id="edge3" class="edge">
<title>4902&#45;&gt;4903</title>
<path fill="none" stroke="#c0c0c0" d="M102.8945,-234.7C112.9498,-234.7 140.2827,-234.7 157.1138,-234.7"/>
<polygon fill="#c0c0c0" stroke="#c0c0c0" points="157.4776,-238.2001 167.4776,-234.7 157.4775,-231.2001 157.4776,-238.2001"/>
<text text-anchor="middle" x="130.0042" y="-225.7" font-family="Arial" font-size="10.00" fill="#000000">Karspeldreef</text>
</g>
<!-- 4904 -->
<g id="node5" class="node">
<title>4904</title>
<ellipse fill="#d3d3d3" stroke="#c0c0c0" cx="315.0235" cy="-234.7" rx="3.5" ry="3.5"/>
</g>
<!-- 4903&#45;&gt;4904 -->
<g id="edge4" class="edge">
<title>4903&#45;&gt;4904</title>
<path fill="none" stroke="#c0c0c0" d="M174.5831,-234.7C192.0946,-234.7 269.5314,-234.7 301.3263,-234.7"/>
<polygon fill="#c0c0c0" stroke="#c0c0c0" points="301.3284,-238.2001 311.3283,-234.7 301.3283,-231.2001 301.3284,-238.2001"/>
<text text-anchor="middle" x="208.2257" y="-249.7" font-family="Arial" font-size="10.00" fill="#000000">Karspeldreef </text>
<text text-anchor="middle" x="208.2257" y="-237.7" font-family="Arial" font-size="10.00" fill="#000000"> (lijn 49)</text>
</g>
<!-- 36001 -->
<g id="node29" class="node">
<title>36001</title>
<ellipse fill="#d3d3d3" stroke="#c0c0c0" cx="171.0235" cy="-162.7" rx="3.5" ry="3.5"/>
</g>
<!-- 4903&#45;&gt;36001 -->
<g id="edge19" class="edge">
<title>4903&#45;&gt;36001</title>
<path fill="none" stroke="#c0c0c0" d="M171.0235,-230.829C171.0235,-220.7737 171.0235,-193.4408 171.0235,-176.6096"/>
<polygon fill="#c0c0c0" stroke="#c0c0c0" points="174.5236,-176.2459 171.0235,-166.2459 167.5236,-176.246 174.5236,-176.2459"/>
<text text-anchor="middle" x="144.628" y="-194.7193" font-family="Arial" font-size="10.00" fill="#000000">Gooiseweg </text>
<text text-anchor="middle" x="144.628" y="-182.7193" font-family="Arial" font-size="10.00" fill="#000000"> (lijn 360)</text>
</g>
<!-- 4905 -->
<g id="node6" class="node">
<title>4905</title>
<ellipse fill="#d3d3d3" stroke="#c0c0c0" cx="315.0235" cy="-162.7" rx="3.5" ry="3.5"/>
</g>
<!-- 4904&#45;&gt;4905 -->
<g id="edge5" class="edge">
<title>4904&#45;&gt;4905</title>
<path fill="none" stroke="#c0c0c0" d="M315.0235,-230.829C315.0235,-220.7737 315.0235,-193.4408 315.0235,-176.6096"/>
<polygon fill="#c0c0c0" stroke="#c0c0c0" points="318.5236,-176.2459 315.0235,-166.2459 311.5236,-176.246 318.5236,-176.2459"/>
<text text-anchor="middle" x="268.3485" y="-218.7193" font-family="Arial" font-size="10.00" fill="#000000">Kromwijkdreef </text>
<text text-anchor="middle" x="268.3485" y="-206.7193" font-family="Arial" font-size="10.00" fill="#000000"> (via St. Kraaiennest)</text>
</g>
<!-- 4917 -->
<g id="node18" class="node">
<title>4917</title>
<ellipse fill="#d3d3d3" stroke="#c0c0c0" cx="315.0235" cy="-90.7" rx=".5" ry=".5"/>
</g>
<!-- 4905&#45;&gt;4917 -->
<g id="edge6" class="edge">
<title>4905&#45;&gt;4917</title>
<path fill="none" stroke="#c0c0c0" d="M315.0235,-158.829C315.0235,-148.0946 315.0235,-117.6699 315.0235,-101.3517"/>
<polygon fill="#c0c0c0" stroke="#c0c0c0" points="318.5236,-101.3008 315.0235,-91.3008 311.5236,-101.3009 318.5236,-101.3008"/>
<text text-anchor="middle" x="277.5105" y="-145.0903" font-family="Arial" font-size="10.00" fill="#000000">Loosdrechtdreef </text>
<text text-anchor="middle" x="277.5105" y="-133.0903" font-family="Arial" font-size="10.00" fill="#000000"> (lijn 49)</text>
</g>
<!-- 6607 -->
<g id="node25" class="node">
<title>6607</title>
<ellipse fill="#d3d3d3" stroke="#c0c0c0" cx="459.0235" cy="-306.7" rx="3.5" ry="3.5"/>
</g>
<!-- 4905&#45;&gt;6607 -->
<g id="edge33" class="edge">
<title>4905&#45;&gt;6607</title>
<path fill="none" stroke="#c0c0c0" d="M317.5229,-165.1994C333.3627,-181.0392 420.0572,-267.7337 449.3495,-297.026"/>
<polygon fill="#c0c0c0" stroke="#c0c0c0" points="446.9093,-299.5356 456.4553,-304.1318 451.8591,-294.5858 446.9093,-299.5356"/>
<text text-anchor="middle" x="418.7287" y="-270.1127" font-family="Arial" font-size="10.00" fill="#000000">[A9] </text>
<text text-anchor="middle" x="418.7287" y="-258.1127" font-family="Arial" font-size="10.00" fill="#000000"> [A1]: Zaanstad </text>
<text text-anchor="middle" x="418.7287" y="-246.1127" font-family="Arial" font-size="10.00" fill="#000000"> (1a): IJburg </text>
<text text-anchor="middle" x="418.7287" y="-234.1127" font-family="Arial" font-size="10.00" fill="#000000"> (lijn 360)</text>
</g>
<!-- 4906 -->
<g id="node7" class="node">
<title>4906</title>
<ellipse fill="#d3d3d3" stroke="#c0c0c0" cx="387.0235" cy="-90.7" rx="3.5" ry="3.5"/>
</g>
<!-- 4907 -->
<g id="node8" class="node">
<title>4907</title>
<ellipse fill="#d3d3d3" stroke="#c0c0c0" cx="387.0235" cy="-18.7" rx=".5" ry=".5"/>
</g>
<!-- 4906&#45;&gt;4907 -->
<g id="edge8" class="edge">
<title>4906&#45;&gt;4907</title>
<path fill="none" stroke="#c0c0c0" d="M387.0235,-86.829C387.0235,-76.0946 387.0235,-45.6699 387.0235,-29.3517"/>
<polygon fill="#c0c0c0" stroke="#c0c0c0" points="390.5236,-29.3008 387.0235,-19.3008 383.5236,-29.3009 390.5236,-29.3008"/>
<text text-anchor="middle" x="351.18" y="-49.0903" font-family="Arial" font-size="10.00" fill="#000000">Provincialeweg </text>
<text text-anchor="middle" x="351.18" y="-37.0903" font-family="Arial" font-size="10.00" fill="#000000"> Weesperbrug </text>
<text text-anchor="middle" x="351.18" y="-25.0903" font-family="Arial" font-size="10.00" fill="#000000"> Gooilandseweg</text>
</g>
<!-- 4908 -->
<g id="node9" class="node">
<title>4908</title>
<ellipse fill="#d3d3d3" stroke="#c0c0c0" cx="459.0235" cy="-18.7" rx="3.5" ry="3.5"/>
</g>
<!-- 4907&#45;&gt;4908 -->
<g id="edge9" class="edge">
<title>4907&#45;&gt;4908</title>
<path fill="none" stroke="#c0c0c0" d="M387.8321,-18.7C393.3577,-18.7 425.9027,-18.7 445.0221,-18.7"/>
<polygon fill="#c0c0c0" stroke="#c0c0c0" points="445.2287,-22.2001 455.2286,-18.7 445.2286,-15.2001 445.2287,-22.2001"/>
</g>
<!-- 4909 -->
<g id="node10" class="node">
<title>4909</title>
<ellipse fill="#d3d3d3" stroke="#c0c0c0" cx="459.0235" cy="-90.7" rx="3.5" ry="3.5"/>
</g>
<!-- 4908&#45;&gt;4909 -->
<g id="edge10" class="edge">
<title>4908&#45;&gt;4909</title>
<path fill="none" stroke="#c0c0c0" d="M459.0235,-22.571C459.0235,-32.6263 459.0235,-59.9592 459.0235,-76.7903"/>
<polygon fill="#c0c0c0" stroke="#c0c0c0" points="455.5236,-77.154 459.0235,-87.1541 462.5236,-77.1541 455.5236,-77.154"/>
<text text-anchor="middle" x="505.7045" y="-76.6807" font-family="Arial" font-size="10.00" fill="#000000">C.J. van Houtenlaan </text>
<text text-anchor="middle" x="505.7045" y="-64.6807" font-family="Arial" font-size="10.00" fill="#000000"> Prinses Irenelaan </text>
<text text-anchor="middle" x="505.7045" y="-52.6807" font-family="Arial" font-size="10.00" fill="#000000"> Casparuslaan</text>
</g>
<!-- 4910 -->
<g id="node11" class="node">
<title>4910</title>
<ellipse fill="#d3d3d3" stroke="#c0c0c0" cx="531.0235" cy="-90.7" rx="3.5" ry="3.5"/>
</g>
<!-- 4909&#45;&gt;4910 -->
<g id="edge11" class="edge">
<title>4909&#45;&gt;4910</title>
<path fill="none" stroke="#c0c0c0" d="M462.8945,-90.7C472.9498,-90.7 500.2827,-90.7 517.1139,-90.7"/>
<polygon fill="#c0c0c0" stroke="#c0c0c0" points="517.4776,-94.2001 527.4776,-90.7 517.4775,-87.2001 517.4776,-94.2001"/>
<text text-anchor="middle" x="461.9447" y="-105.7" font-family="Arial" font-size="10.00" fill="#000000">Plataanlaan </text>
<text text-anchor="middle" x="461.9447" y="-93.7" font-family="Arial" font-size="10.00" fill="#000000"> Herensingel</text>
</g>
<!-- 4911 -->
<g id="node12" class="node">
<title>4911</title>
<ellipse fill="#d3d3d3" stroke="#c0c0c0" cx="531.0235" cy="-162.7" rx="3.5" ry="3.5"/>
</g>
<!-- 4910&#45;&gt;4911 -->
<g id="edge12" class="edge">
<title>4910&#45;&gt;4911</title>
<path fill="none" stroke="#c0c0c0" d="M531.0235,-94.571C531.0235,-104.6263 531.0235,-131.9592 531.0235,-148.7903"/>
<polygon fill="#c0c0c0" stroke="#c0c0c0" points="527.5236,-149.154 531.0235,-159.1541 534.5236,-149.1541 527.5236,-149.154"/>
<text text-anchor="middle" x="493.2355" y="-124.6807" font-family="Arial" font-size="10.00" fill="#000000">Jan Tooropstraat</text>
</g>
<!-- 4912 -->
<g id="node13" class="node">
<title>4912</title>
<ellipse fill="#d3d3d3" stroke="#c0c0c0" cx="603.0235" cy="-162.7" rx="3.5" ry="3.5"/>
</g>
<!-- 4911&#45;&gt;4912 -->
<g id="edge13" class="edge">
<title>4911&#45;&gt;4912</title>
<path fill="none" stroke="#c0c0c0" d="M534.8945,-162.7C544.9498,-162.7 572.2827,-162.7 589.1138,-162.7"/>
<polygon fill="#c0c0c0" stroke="#c0c0c0" points="589.4776,-166.2001 599.4776,-162.7 589.4775,-159.2001 589.4776,-166.2001"/>
<text text-anchor="middle" x="526.4462" y="-189.7" font-family="Arial" font-size="10.00" fill="#000000">M. Nijfoffstraat </text>
<text text-anchor="middle" x="526.4462" y="-177.7" font-family="Arial" font-size="10.00" fill="#000000"> Herensingel </text>
<text text-anchor="middle" x="526.4462" y="-165.7" font-family="Arial" font-size="10.00" fill="#000000"> (via St. Weesp)</text>
</g>
<!-- 4913 -->
<g id="node14" class="node">
<title>4913</title>
<ellipse fill="#d3d3d3" stroke="#c0c0c0" cx="603.0235" cy="-234.7" rx="3.5" ry="3.5"/>
</g>
<!-- 4912&#45;&gt;4913 -->
<g id="edge14" class="edge">
<title>4912&#45;&gt;4913</title>
<path fill="none" stroke="#c0c0c0" d="M603.0235,-166.571C603.0235,-176.6263 603.0235,-203.9592 603.0235,-220.7903"/>
<polygon fill="#c0c0c0" stroke="#c0c0c0" points="599.5236,-221.154 603.0235,-231.1541 606.5236,-221.1541 599.5236,-221.154"/>
<text text-anchor="middle" x="643.585" y="-220.6807" font-family="Arial" font-size="10.00" fill="#000000">Stationsweg </text>
<text text-anchor="middle" x="643.585" y="-208.6807" font-family="Arial" font-size="10.00" fill="#000000"> Korte Muiderweg </text>
<text text-anchor="middle" x="643.585" y="-196.6807" font-family="Arial" font-size="10.00" fill="#000000"> Weesperweg</text>
</g>
<!-- 4914 -->
<g id="node15" class="node">
<title>4914</title>
<ellipse fill="#d3d3d3" stroke="#c0c0c0" cx="531.0235" cy="-234.7" rx="3.5" ry="3.5"/>
</g>
<!-- 4913&#45;&gt;4914 -->
<g id="edge15" class="edge">
<title>4913&#45;&gt;4914</title>
<path fill="none" stroke="#c0c0c0" d="M599.1525,-234.7C589.0972,-234.7 561.7643,-234.7 544.9332,-234.7"/>
<polygon fill="#c0c0c0" stroke="#c0c0c0" points="544.5695,-231.2001 534.5694,-234.7 544.5694,-238.2001 544.5695,-231.2001"/>
<text text-anchor="middle" x="544.8128" y="-285.7" font-family="Arial" font-size="10.00" fill="#000000">Maria&#45; </text>
<text text-anchor="middle" x="544.8128" y="-273.7" font-family="Arial" font-size="10.00" fill="#000000"> &#45;hoeveweg </text>
<text text-anchor="middle" x="544.8128" y="-261.7" font-family="Arial" font-size="10.00" fill="#000000"> Busbaan </text>
<text text-anchor="middle" x="544.8128" y="-249.7" font-family="Arial" font-size="10.00" fill="#000000"> Maxisweg </text>
<text text-anchor="middle" x="544.8128" y="-237.7" font-family="Arial" font-size="10.00" fill="#000000"> Muiderbrug</text>
</g>
<!-- 4915 -->
<g id="node16" class="node">
<title>4915</title>
<ellipse fill="#d3d3d3" stroke="#c0c0c0" cx="531.0235" cy="-306.7" rx="3.5" ry="3.5"/>
</g>
<!-- 4914&#45;&gt;4915 -->
<g id="edge16" class="edge">
<title>4914&#45;&gt;4915</title>
<path fill="none" stroke="#c0c0c0" d="M531.0235,-238.571C531.0235,-248.6263 531.0235,-275.9592 531.0235,-292.7903"/>
<polygon fill="#c0c0c0" stroke="#c0c0c0" points="527.5236,-293.154 531.0235,-303.1541 534.5236,-293.1541 527.5236,-293.154"/>
<text text-anchor="middle" x="491.856" y="-268.6807" font-family="Arial" font-size="10.00" fill="#000000">Diemerpolderweg</text>
</g>
<!-- 4916 -->
<g id="node17" class="node">
<title>4916</title>
<ellipse fill="#d3d3d3" stroke="#c0c0c0" cx="603.0235" cy="-306.7" rx="3.5" ry="3.5"/>
</g>
<!-- 4915&#45;&gt;4916 -->
<g id="edge17" class="edge">
<title>4915&#45;&gt;4916</title>
<path fill="none" stroke="#c0c0c0" d="M534.8945,-306.7C544.9498,-306.7 572.2827,-306.7 589.1138,-306.7"/>
<polygon fill="#c0c0c0" stroke="#c0c0c0" points="589.4776,-310.2001 599.4776,-306.7 589.4775,-303.2001 589.4776,-310.2001"/>
<text text-anchor="middle" x="536.1747" y="-321.7" font-family="Arial" font-size="10.00" fill="#000000">Fortdiemer&#45;</text>
<text text-anchor="middle" x="536.1747" y="-309.7" font-family="Arial" font-size="10.00" fill="#000000">&#45;damweg</text>
</g>
<!-- 6608 -->
<g id="node26" class="node">
<title>6608</title>
<ellipse fill="#d3d3d3" stroke="#c0c0c0" cx="603.0235" cy="-378.7" rx="3.5" ry="3.5"/>
</g>
<!-- 4916&#45;&gt;6608 -->
<g id="edge18" class="edge">
<title>4916&#45;&gt;6608</title>
<path fill="none" stroke="#c0c0c0" d="M603.0235,-310.571C603.0235,-320.6263 603.0235,-347.9592 603.0235,-364.7903"/>
<polygon fill="#c0c0c0" stroke="#c0c0c0" points="599.5236,-365.154 603.0235,-375.1541 606.5236,-365.1541 599.5236,-365.154"/>
<text text-anchor="middle" x="554.6775" y="-352.6807" font-family="Arial" font-size="10.00" fill="#000000">Benno Premselabrug </text>
<text text-anchor="middle" x="554.6775" y="-340.6807" font-family="Arial" font-size="10.00" fill="#000000"> Muiderlaan</text>
</g>
<!-- 4917&#45;&gt;4906 -->
<g id="edge7" class="edge">
<title>4917&#45;&gt;4906</title>
<path fill="none" stroke="#c0c0c0" d="M315.8321,-90.7C321.3577,-90.7 353.9027,-90.7 373.0221,-90.7"/>
<polygon fill="#c0c0c0" stroke="#c0c0c0" points="373.2286,-94.2001 383.2286,-90.7 373.2286,-87.2001 373.2286,-94.2001"/>
</g>
<!-- 6602 -->
<g id="node20" class="node">
<title>6602</title>
<ellipse fill="#d3d3d3" stroke="#c0c0c0" cx="243.0235" cy="-378.7" rx="3.5" ry="3.5"/>
</g>
<!-- 6601&#45;&gt;6602 -->
<g id="edge23" class="edge">
<title>6601&#45;&gt;6602</title>
<path fill="none" stroke="#c0c0c0" d="M102.5831,-378.7C120.0946,-378.7 197.5314,-378.7 229.3263,-378.7"/>
<polygon fill="#c0c0c0" stroke="#c0c0c0" points="229.3284,-382.2001 239.3284,-378.7 229.3283,-375.2001 229.3284,-382.2001"/>
<text text-anchor="middle" x="139.2907" y="-381.7" font-family="Arial" font-size="10.00" fill="#000000">Bijlmerdreef</text>
</g>
<!-- 6603 -->
<g id="node21" class="node">
<title>6603</title>
<ellipse fill="#d3d3d3" stroke="#c0c0c0" cx="243.0235" cy="-450.7" rx="3.5" ry="3.5"/>
</g>
<!-- 6602&#45;&gt;6603 -->
<g id="edge24" class="edge">
<title>6602&#45;&gt;6603</title>
<path fill="none" stroke="#c0c0c0" d="M243.0235,-382.571C243.0235,-392.6263 243.0235,-419.9592 243.0235,-436.7903"/>
<polygon fill="#c0c0c0" stroke="#c0c0c0" points="239.5236,-437.154 243.0235,-447.1541 246.5236,-437.1541 239.5236,-437.154"/>
<text text-anchor="middle" x="195.788" y="-424.6807" font-family="Arial" font-size="10.00" fill="#000000">Elsrijkdreef </text>
<text text-anchor="middle" x="195.788" y="-412.6807" font-family="Arial" font-size="10.00" fill="#000000"> (via St. Ganzenhoef)</text>
</g>
<!-- 6604 -->
<g id="node22" class="node">
<title>6604</title>
<ellipse fill="#d3d3d3" stroke="#c0c0c0" cx="315.0235" cy="-450.7" rx="3.5" ry="3.5"/>
</g>
<!-- 6603&#45;&gt;6604 -->
<g id="edge25" class="edge">
<title>6603&#45;&gt;6604</title>
<path fill="none" stroke="#c0c0c0" d="M246.8945,-450.7C256.9498,-450.7 284.2827,-450.7 301.1139,-450.7"/>
<polygon fill="#c0c0c0" stroke="#c0c0c0" points="301.4776,-454.2001 311.4776,-450.7 301.4775,-447.2001 301.4776,-454.2001"/>
<text text-anchor="middle" x="274.0042" y="-441.7" font-family="Arial" font-size="10.00" fill="#000000">Provincialeweg</text>
</g>
<!-- 6605 -->
<g id="node23" class="node">
<title>6605</title>
<ellipse fill="#d3d3d3" stroke="#c0c0c0" cx="315.0235" cy="-378.7" rx="3.5" ry="3.5"/>
</g>
<!-- 6604&#45;&gt;6605 -->
<g id="edge26" class="edge">
<title>6604&#45;&gt;6605</title>
<path fill="none" stroke="#c0c0c0" d="M315.0235,-446.829C315.0235,-436.7737 315.0235,-409.4408 315.0235,-392.6097"/>
<polygon fill="#c0c0c0" stroke="#c0c0c0" points="318.5236,-392.2459 315.0235,-382.2459 311.5236,-392.246 318.5236,-392.2459"/>
<text text-anchor="middle" x="351.9715" y="-422.7193" font-family="Arial" font-size="10.00" fill="#000000">Muiderstraatweg</text>
</g>
<!-- 6606 -->
<g id="node24" class="node">
<title>6606</title>
<ellipse fill="#d3d3d3" stroke="#c0c0c0" cx="459.0235" cy="-378.7" rx="3.5" ry="3.5"/>
</g>
<!-- 6605&#45;&gt;6606 -->
<g id="edge27" class="edge">
<title>6605&#45;&gt;6606</title>
<path fill="none" stroke="#c0c0c0" d="M318.5831,-378.7C336.0946,-378.7 413.5314,-378.7 445.3263,-378.7"/>
<polygon fill="#c0c0c0" stroke="#c0c0c0" points="445.3284,-382.2001 455.3284,-378.7 445.3283,-375.2001 445.3284,-382.2001"/>
<text text-anchor="middle" x="352.7852" y="-381.7" font-family="Arial" font-size="10.00" fill="#000000">Weteringweg</text>
</g>
<!-- 6606&#45;&gt;6607 -->
<g id="edge28" class="edge">
<title>6606&#45;&gt;6607</title>
<path fill="none" stroke="#c0c0c0" d="M459.0235,-374.829C459.0235,-364.7737 459.0235,-337.4408 459.0235,-320.6096"/>
<polygon fill="#c0c0c0" stroke="#c0c0c0" points="462.5236,-320.2459 459.0235,-310.2459 455.5236,-320.246 462.5236,-320.2459"/>
<text text-anchor="middle" x="419.856" y="-350.7193" font-family="Arial" font-size="10.00" fill="#000000">Diemerpolderweg</text>
</g>
<!-- 6607&#45;&gt;4915 -->
<g id="edge29" class="edge">
<title>6607&#45;&gt;4915</title>
<path fill="none" stroke="#c0c0c0" d="M462.8945,-306.7C472.9498,-306.7 500.2827,-306.7 517.1139,-306.7"/>
<polygon fill="#c0c0c0" stroke="#c0c0c0" points="517.4776,-310.2001 527.4776,-306.7 517.4775,-303.2001 517.4776,-310.2001"/>
<text text-anchor="middle" x="447.7822" y="-321.7" font-family="Arial" font-size="10.00" fill="#000000">Diemerpolderweg </text>
<text text-anchor="middle" x="447.7822" y="-309.7" font-family="Arial" font-size="10.00" fill="#000000"> (via Diemerknoop)</text>
</g>
<!-- 6609 -->
<g id="node27" class="node">
<title>6609</title>
<ellipse fill="#d3d3d3" stroke="#c0c0c0" cx="531.0235" cy="-378.7" rx="3.5" ry="3.5"/>
</g>
<!-- 6608&#45;&gt;6609 -->
<g id="edge31" class="edge">
<title>6608&#45;&gt;6609</title>
<path fill="none" stroke="#c0c0c0" d="M599.1525,-378.7C589.0972,-378.7 561.7643,-378.7 544.9332,-378.7"/>
<polygon fill="#c0c0c0" stroke="#c0c0c0" points="544.5695,-375.2001 534.5694,-378.7 544.5694,-382.2001 544.5695,-375.2001"/>
<text text-anchor="middle" x="542.8678" y="-393.7" font-family="Arial" font-size="10.00" fill="#000000">Pampuslaan </text>
<text text-anchor="middle" x="542.8678" y="-381.7" font-family="Arial" font-size="10.00" fill="#000000"> (lijn 66)</text>
</g>
<!-- 36003 -->
<g id="node31" class="node">
<title>36003</title>
<ellipse fill="#d3d3d3" stroke="#c0c0c0" cx="675.0235" cy="-378.7" rx="29.5626" ry="29.5626"/>
<text text-anchor="middle" x="675.0235" y="-375.7" font-family="Arial" font-size="10.00" fill="#000000">BEDL</text>
</g>
<!-- 6608&#45;&gt;36003 -->
<g id="edge30" class="edge">
<title>6608&#45;&gt;36003</title>
<path fill="none" stroke="#c0c0c0" d="M606.8945,-378.7C612.4972,-378.7 623.4639,-378.7 634.9892,-378.7"/>
<polygon fill="#c0c0c0" stroke="#c0c0c0" points="635.1406,-382.2001 645.1405,-378.7 635.1405,-375.2001 635.1406,-382.2001"/>
<text text-anchor="middle" x="606.3544" y="-369.7" font-family="Arial" font-size="10.00" fill="#000000">Pampuslaan </text>
<text text-anchor="middle" x="606.3544" y="-357.7" font-family="Arial" font-size="10.00" fill="#000000"> (lijn 49, 360)</text>
</g>
<!-- 6610 -->
<g id="node28" class="node">
<title>6610</title>
<ellipse fill="#d3d3d3" stroke="#c0c0c0" cx="531.0235" cy="-450.7" rx="25.4216" ry="25.4216"/>
<text text-anchor="middle" x="531.0235" y="-447.7" font-family="Arial" font-size="10.00" fill="#000000">VPS</text>
</g>
<!-- 6609&#45;&gt;6610 -->
<g id="edge32" class="edge">
<title>6609&#45;&gt;6610</title>
<path fill="none" stroke="#c0c0c0" d="M531.0235,-382.571C531.0235,-388.8401 531.0235,-401.8249 531.0235,-414.7935"/>
<polygon fill="#c0c0c0" stroke="#c0c0c0" points="527.5236,-415.062 531.0235,-425.062 534.5236,-415.0621 527.5236,-415.062"/>
<text text-anchor="middle" x="507.683" y="-401.6823" font-family="Arial" font-size="10.00" fill="#000000">IJburglaan</text>
</g>
<!-- 36002 -->
<g id="node30" class="node">
<title>36002</title>
<ellipse fill="#d3d3d3" stroke="#c0c0c0" cx="243.0235" cy="-162.7" rx="3.5" ry="3.5"/>
</g>
<!-- 36001&#45;&gt;36002 -->
<g id="edge20" class="edge">
<title>36001&#45;&gt;36002</title>
<path fill="none" stroke="#c0c0c0" d="M174.8945,-162.7C184.9498,-162.7 212.2827,-162.7 229.1139,-162.7"/>
<polygon fill="#c0c0c0" stroke="#c0c0c0" points="229.4776,-166.2001 239.4776,-162.7 229.4775,-159.2001 229.4776,-166.2001"/>
<text text-anchor="middle" x="202.0042" y="-153.7" font-family="Arial" font-size="10.00" fill="#000000">Langbroek&#45; </text>
<text text-anchor="middle" x="202.0042" y="-141.7" font-family="Arial" font-size="10.00" fill="#000000"> &#45;dreef</text>
</g>
<!-- 36002&#45;&gt;4905 -->
<g id="edge21" class="edge">
<title>36002&#45;&gt;4905</title>
<path fill="none" stroke="#c0c0c0" d="M256.9929,-162.7C269.7587,-162.7 288.5294,-162.7 301.2374,-162.7"/>
<polygon fill="#c0c0c0" stroke="#c0c0c0" points="256.8946,-159.2001 246.8945,-162.7 256.8945,-166.2001 256.8946,-159.2001"/>
<polygon fill="#c0c0c0" stroke="#c0c0c0" points="301.4776,-166.2001 311.4776,-162.7 301.4775,-159.2001 301.4776,-166.2001"/>
<text text-anchor="middle" x="240.2176" y="-189.7" font-family="Arial" font-size="10.00" fill="#000000">Langbroekdreef </text>
<text text-anchor="middle" x="240.2176" y="-177.7" font-family="Arial" font-size="10.00" fill="#000000"> (lijn 49 via </text>
<text text-anchor="middle" x="240.2176" y="-165.7" font-family="Arial" font-size="10.00" fill="#000000"> St. Gaasperplas)</text>
</g>
</g>
</svg>

