<?xml version="1.0" encoding="UTF-8" standalone="no"?>
<!DOCTYPE svg PUBLIC "-//W3C//DTD SVG 1.1//EN"
 "http://www.w3.org/Graphics/SVG/1.1/DTD/svg11.dtd">
<!-- Generated by graphviz version 2.40.1 (20161225.0304)
 -->
<!-- Title: G Pages: 1 -->
<svg width="713pt" height="694pt"
 viewBox="0.00 0.00 712.80 693.90" xmlns="http://www.w3.org/2000/svg" xmlns:xlink="http://www.w3.org/1999/xlink">
<g id="graph0" class="graph" transform="scale(1 1) rotate(0) translate(4 689.9)">
<title>G</title>
<polygon fill="#ffffff" stroke="transparent" points="-4,4 -4,-689.9 708.804,-689.9 708.804,4 -4,4"/>
<text text-anchor="middle" x="352.402" y="-13" font-family="Times,serif" font-size="6.00" fill="#000000">* Bij terugkomst volgt u de stippellijn </text>
<text text-anchor="middle" x="352.402" y="-5.8" font-family="Times,serif" font-size="6.00" fill="#000000"> ** Bij terugkomst gebruikt u afrit (1): Bijlmermeer</text>
<!-- 4900 -->
<g id="node1" class="node">
<title>4900</title>
<ellipse fill="#d3d3d3" stroke="#c0c0c0" cx="27.0235" cy="-313.9" rx="27.047" ry="27.047"/>
<text text-anchor="middle" x="27.0235" y="-310.9" font-family="Arial" font-size="10.00" fill="#000000">BMR</text>
</g>
<!-- 4901 -->
<g id="node2" class="node">
<title>4901</title>
<ellipse fill="#d3d3d3" stroke="#c0c0c0" cx="99.0235" cy="-313.9" rx="3.5" ry="3.5"/>
</g>
<!-- 4900&#45;&gt;4901 -->
<g id="edge6" class="edge">
<title>4900&#45;&gt;4901</title>
<path fill="none" stroke="#c0c0c0" d="M54.2436,-313.9C64.8538,-313.9 76.5477,-313.9 85.3241,-313.9"/>
<polygon fill="#c0c0c0" stroke="#c0c0c0" points="85.3696,-317.4001 95.3696,-313.9 85.3695,-310.4001 85.3696,-317.4001"/>
<text text-anchor="middle" x="94.7889" y="-328.9" font-family="Arial" font-size="10.00" fill="#000000">Hoogoord&#45; </text>
<text text-anchor="middle" x="94.7889" y="-316.9" font-family="Arial" font-size="10.00" fill="#000000"> &#45;dreef</text>
</g>
<!-- 4902 -->
<g id="node3" class="node">
<title>4902</title>
<ellipse fill="#d3d3d3" stroke="#c0c0c0" cx="99.0235" cy="-241.9" rx="3.5" ry="3.5"/>
</g>
<!-- 4901&#45;&gt;4902 -->
<g id="edge7" class="edge">
<title>4901&#45;&gt;4902</title>
<path fill="none" stroke="#c0c0c0" d="M99.0235,-310.029C99.0235,-299.9737 99.0235,-272.6408 99.0235,-255.8096"/>
<polygon fill="#c0c0c0" stroke="#c0c0c0" points="102.5236,-255.4459 99.0235,-245.4459 95.5236,-255.4459 102.5236,-255.4459"/>
<text text-anchor="middle" x="65.4005" y="-273.9193" font-family="Arial" font-size="10.00" fill="#000000">Foppingadreef </text>
<text text-anchor="middle" x="65.4005" y="-261.9193" font-family="Arial" font-size="10.00" fill="#000000"> (lijn 49, 360**)</text>
</g>
<!-- 6601 -->
<g id="node19" class="node">
<title>6601</title>
<ellipse fill="#d3d3d3" stroke="#c0c0c0" cx="99.0235" cy="-385.9" rx="3.5" ry="3.5"/>
</g>
<!-- 4901&#45;&gt;6601 -->
<g id="edge27" class="edge">
<title>4901&#45;&gt;6601</title>
<path fill="none" stroke="#c0c0c0" d="M99.0235,-317.771C99.0235,-327.8263 99.0235,-355.1592 99.0235,-371.9903"/>
<polygon fill="#c0c0c0" stroke="#c0c0c0" points="95.5236,-372.354 99.0235,-382.3541 102.5236,-372.3541 95.5236,-372.354"/>
<text text-anchor="middle" x="65.4005" y="-359.8807" font-family="Arial" font-size="10.00" fill="#000000">Foppingadreef </text>
<text text-anchor="middle" x="65.4005" y="-347.8807" font-family="Arial" font-size="10.00" fill="#000000"> (lijn 44*, 66)</text>
</g>
<!-- 4903 -->
<g id="node4" class="node">
<title>4903</title>
<ellipse fill="#d3d3d3" stroke="#c0c0c0" cx="171.0235" cy="-241.9" rx="3.5" ry="3.5"/>
</g>
<!-- 4902&#45;&gt;4903 -->
<g id="edge8" class="edge">
<title>4902&#45;&gt;4903</title>
<path fill="none" stroke="#c0c0c0" d="M102.8945,-241.9C112.9498,-241.9 140.2827,-241.9 157.1139,-241.9"/>
<polygon fill="#c0c0c0" stroke="#c0c0c0" points="157.4776,-245.4001 167.4776,-241.9 157.4775,-238.4001 157.4776,-245.4001"/>
<text text-anchor="middle" x="130.0042" y="-232.9" font-family="Arial" font-size="10.00" fill="#000000">Karspeldreef</text>
</g>
<!-- 4904 -->
<g id="node5" class="node">
<title>4904</title>
<ellipse fill="#d3d3d3" stroke="#c0c0c0" cx="315.0235" cy="-241.9" rx="3.5" ry="3.5"/>
</g>
<!-- 4903&#45;&gt;4904 -->
<g id="edge9" class="edge">
<title>4903&#45;&gt;4904</title>
<path fill="none" stroke="#c0c0c0" d="M174.5831,-241.9C192.0946,-241.9 269.5314,-241.9 301.3263,-241.9"/>
<polygon fill="#c0c0c0" stroke="#c0c0c0" points="301.3284,-245.4001 311.3284,-241.9 301.3283,-238.4001 301.3284,-245.4001"/>
<text text-anchor="middle" x="208.2257" y="-256.9" font-family="Arial" font-size="10.00" fill="#000000">Karspeldreef </text>
<text text-anchor="middle" x="208.2257" y="-244.9" font-family="Arial" font-size="10.00" fill="#000000"> (lijn 49)</text>
</g>
<!-- 36001 -->
<g id="node29" class="node">
<title>36001</title>
<ellipse fill="#d3d3d3" stroke="#c0c0c0" cx="171.0235" cy="-169.9" rx="3.5" ry="3.5"/>
</g>
<!-- 4903&#45;&gt;36001 -->
<g id="edge24" class="edge">
<title>4903&#45;&gt;36001</title>
<path fill="none" stroke="#c0c0c0" d="M171.0235,-238.029C171.0235,-227.9737 171.0235,-200.6408 171.0235,-183.8096"/>
<polygon fill="#c0c0c0" stroke="#c0c0c0" points="174.5236,-183.4459 171.0235,-173.4459 167.5236,-183.4459 174.5236,-183.4459"/>
<text text-anchor="middle" x="144.628" y="-201.9193" font-family="Arial" font-size="10.00" fill="#000000">Gooiseweg </text>
<text text-anchor="middle" x="144.628" y="-189.9193" font-family="Arial" font-size="10.00" fill="#000000"> (lijn 360)</text>
</g>
<!-- 4905 -->
<g id="node6" class="node">
<title>4905</title>
<ellipse fill="#d3d3d3" stroke="#c0c0c0" cx="315.0235" cy="-169.9" rx="3.5" ry="3.5"/>
</g>
<!-- 4904&#45;&gt;4905 -->
<g id="edge10" class="edge">
<title>4904&#45;&gt;4905</title>
<path fill="none" stroke="#c0c0c0" d="M315.0235,-238.029C315.0235,-227.9737 315.0235,-200.6408 315.0235,-183.8096"/>
<polygon fill="#c0c0c0" stroke="#c0c0c0" points="318.5236,-183.4459 315.0235,-173.4459 311.5236,-183.4459 318.5236,-183.4459"/>
<text text-anchor="middle" x="268.3485" y="-225.9193" font-family="Arial" font-size="10.00" fill="#000000">Kromwijkdreef </text>
<text text-anchor="middle" x="268.3485" y="-213.9193" font-family="Arial" font-size="10.00" fill="#000000"> (via St. Kraaiennest)</text>
</g>
<!-- 4917 -->
<g id="node18" class="node">
<title>4917</title>
<ellipse fill="#d3d3d3" stroke="#c0c0c0" cx="315.0235" cy="-97.9" rx=".5" ry=".5"/>
</g>
<!-- 4905&#45;&gt;4917 -->
<g id="edge11" class="edge">
<title>4905&#45;&gt;4917</title>
<path fill="none" stroke="#c0c0c0" d="M315.0235,-166.029C315.0235,-155.2945 315.0235,-124.8699 315.0235,-108.5517"/>
<polygon fill="#c0c0c0" stroke="#c0c0c0" points="318.5236,-108.5008 315.0235,-98.5008 311.5236,-108.5008 318.5236,-108.5008"/>
<text text-anchor="middle" x="277.5105" y="-152.2903" font-family="Arial" font-size="10.00" fill="#000000">Loosdrechtdreef </text>
<text text-anchor="middle" x="277.5105" y="-140.2903" font-family="Arial" font-size="10.00" fill="#000000"> (lijn 49)</text>
</g>
<!-- 6607 -->
<g id="node25" class="node">
<title>6607</title>
<ellipse fill="#d3d3d3" stroke="#c0c0c0" cx="459.0235" cy="-313.9" rx="3.5" ry="3.5"/>
</g>
<!-- 4905&#45;&gt;6607 -->
<g id="edge53" class="edge">
<title>4905&#45;&gt;6607</title>
<path fill="none" stroke="#c0c0c0" d="M317.5229,-172.3994C333.3627,-188.2392 420.0572,-274.9337 449.3495,-304.2259"/>
<polygon fill="#c0c0c0" stroke="#c0c0c0" points="446.9093,-306.7356 456.4553,-311.3318 451.8591,-301.7858 446.9093,-306.7356"/>
<text text-anchor="middle" x="418.7287" y="-277.3127" font-family="Arial" font-size="10.00" fill="#000000">[A9] </text>
<text text-anchor="middle" x="418.7287" y="-265.3127" font-family="Arial" font-size="10.00" fill="#000000"> [A1]: Zaanstad </text>
<text text-anchor="middle" x="418.7287" y="-253.3127" font-family="Arial" font-size="10.00" fill="#000000"> (1a): IJburg </text>
<text text-anchor="middle" x="418.7287" y="-241.3127" font-family="Arial" font-size="10.00" fill="#000000"> (lijn 360)</text>
</g>
<!-- 4906 -->
<g id="node7" class="node">
<title>4906</title>
<ellipse fill="#d3d3d3" stroke="#c0c0c0" cx="387.0235" cy="-97.9" rx="3.5" ry="3.5"/>
</g>
<!-- 4907 -->
<g id="node8" class="node">
<title>4907</title>
<ellipse fill="#d3d3d3" stroke="#c0c0c0" cx="387.0235" cy="-25.9" rx=".5" ry=".5"/>
</g>
<!-- 4906&#45;&gt;4907 -->
<g id="edge13" class="edge">
<title>4906&#45;&gt;4907</title>
<path fill="none" stroke="#c0c0c0" d="M387.0235,-94.029C387.0235,-83.2946 387.0235,-52.8699 387.0235,-36.5517"/>
<polygon fill="#c0c0c0" stroke="#c0c0c0" points="390.5236,-36.5008 387.0235,-26.5008 383.5236,-36.5009 390.5236,-36.5008"/>
<text text-anchor="middle" x="351.18" y="-56.2903" font-family="Arial" font-size="10.00" fill="#000000">Provincialeweg </text>
<text text-anchor="middle" x="351.18" y="-44.2903" font-family="Arial" font-size="10.00" fill="#000000"> Weesperbrug </text>
<text text-anchor="middle" x="351.18" y="-32.2903" font-family="Arial" font-size="10.00" fill="#000000"> Gooilandseweg</text>
</g>
<!-- 4908 -->
<g id="node9" class="node">
<title>4908</title>
<ellipse fill="#d3d3d3" stroke="#c0c0c0" cx="459.0235" cy="-25.9" rx="3.5" ry="3.5"/>
</g>
<!-- 4907&#45;&gt;4908 -->
<g id="edge14" class="edge">
<title>4907&#45;&gt;4908</title>
<path fill="none" stroke="#c0c0c0" d="M387.8321,-25.9C393.3577,-25.9 425.9027,-25.9 445.0221,-25.9"/>
<polygon fill="#c0c0c0" stroke="#c0c0c0" points="445.2287,-29.4001 455.2286,-25.9 445.2286,-22.4001 445.2287,-29.4001"/>
</g>
<!-- 4909 -->
<g id="node10" class="node">
<title>4909</title>
<ellipse fill="#d3d3d3" stroke="#c0c0c0" cx="459.0235" cy="-97.9" rx="3.5" ry="3.5"/>
</g>
<!-- 4908&#45;&gt;4909 -->
<g id="edge15" class="edge">
<title>4908&#45;&gt;4909</title>
<path fill="none" stroke="#c0c0c0" d="M459.0235,-29.771C459.0235,-39.8263 459.0235,-67.1592 459.0235,-83.9903"/>
<polygon fill="#c0c0c0" stroke="#c0c0c0" points="455.5236,-84.354 459.0235,-94.3541 462.5236,-84.3541 455.5236,-84.354"/>
<text text-anchor="middle" x="505.7045" y="-83.8807" font-family="Arial" font-size="10.00" fill="#000000">C.J. van Houtenlaan </text>
<text text-anchor="middle" x="505.7045" y="-71.8807" font-family="Arial" font-size="10.00" fill="#000000"> Prinses Irenelaan </text>
<text text-anchor="middle" x="505.7045" y="-59.8807" font-family="Arial" font-size="10.00" fill="#000000"> Casparuslaan</text>
</g>
<!-- 4910 -->
<g id="node11" class="node">
<title>4910</title>
<ellipse fill="#d3d3d3" stroke="#c0c0c0" cx="531.0235" cy="-97.9" rx="3.5" ry="3.5"/>
</g>
<!-- 4909&#45;&gt;4910 -->
<g id="edge16" class="edge">
<title>4909&#45;&gt;4910</title>
<path fill="none" stroke="#c0c0c0" d="M462.8945,-97.9C472.9498,-97.9 500.2827,-97.9 517.1139,-97.9"/>
<polygon fill="#c0c0c0" stroke="#c0c0c0" points="517.4776,-101.4001 527.4776,-97.9 517.4776,-94.4001 517.4776,-101.4001"/>
<text text-anchor="middle" x="461.9447" y="-112.9" font-family="Arial" font-size="10.00" fill="#000000">Plataanlaan </text>
<text text-anchor="middle" x="461.9447" y="-100.9" font-family="Arial" font-size="10.00" fill="#000000"> Herensingel</text>
</g>
<!-- 4911 -->
<g id="node12" class="node">
<title>4911</title>
<ellipse fill="#d3d3d3" stroke="#c0c0c0" cx="531.0235" cy="-169.9" rx="3.5" ry="3.5"/>
</g>
<!-- 4910&#45;&gt;4911 -->
<g id="edge17" class="edge">
<title>4910&#45;&gt;4911</title>
<path fill="none" stroke="#c0c0c0" d="M531.0235,-101.771C531.0235,-111.8263 531.0235,-139.1592 531.0235,-155.9903"/>
<polygon fill="#c0c0c0" stroke="#c0c0c0" points="527.5236,-156.354 531.0235,-166.3541 534.5236,-156.3541 527.5236,-156.354"/>
<text text-anchor="middle" x="493.2355" y="-131.8807" font-family="Arial" font-size="10.00" fill="#000000">Jan Tooropstraat</text>
</g>
<!-- 4912 -->
<g id="node13" class="node">
<title>4912</title>
<ellipse fill="#d3d3d3" stroke="#c0c0c0" cx="603.0235" cy="-169.9" rx="3.5" ry="3.5"/>
</g>
<!-- 4911&#45;&gt;4912 -->
<g id="edge18" class="edge">
<title>4911&#45;&gt;4912</title>
<path fill="none" stroke="#c0c0c0" d="M534.8945,-169.9C544.9498,-169.9 572.2827,-169.9 589.1139,-169.9"/>
<polygon fill="#c0c0c0" stroke="#c0c0c0" points="589.4776,-173.4001 599.4776,-169.9 589.4776,-166.4001 589.4776,-173.4001"/>
<text text-anchor="middle" x="526.4462" y="-196.9" font-family="Arial" font-size="10.00" fill="#000000">M. Nijfoffstraat </text>
<text text-anchor="middle" x="526.4462" y="-184.9" font-family="Arial" font-size="10.00" fill="#000000"> Herensingel </text>
<text text-anchor="middle" x="526.4462" y="-172.9" font-family="Arial" font-size="10.00" fill="#000000"> (via St. Weesp)</text>
</g>
<!-- 4913 -->
<g id="node14" class="node">
<title>4913</title>
<ellipse fill="#d3d3d3" stroke="#c0c0c0" cx="603.0235" cy="-241.9" rx="3.5" ry="3.5"/>
</g>
<!-- 4912&#45;&gt;4913 -->
<g id="edge19" class="edge">
<title>4912&#45;&gt;4913</title>
<path fill="none" stroke="#c0c0c0" d="M603.0235,-173.771C603.0235,-183.8263 603.0235,-211.1592 603.0235,-227.9903"/>
<polygon fill="#c0c0c0" stroke="#c0c0c0" points="599.5236,-228.354 603.0235,-238.3541 606.5236,-228.3541 599.5236,-228.354"/>
<text text-anchor="middle" x="643.585" y="-227.8807" font-family="Arial" font-size="10.00" fill="#000000">Stationsweg </text>
<text text-anchor="middle" x="643.585" y="-215.8807" font-family="Arial" font-size="10.00" fill="#000000"> Korte Muiderweg </text>
<text text-anchor="middle" x="643.585" y="-203.8807" font-family="Arial" font-size="10.00" fill="#000000"> Weesperweg</text>
</g>
<!-- 4914 -->
<g id="node15" class="node">
<title>4914</title>
<ellipse fill="#d3d3d3" stroke="#c0c0c0" cx="531.0235" cy="-241.9" rx="3.5" ry="3.5"/>
</g>
<!-- 4913&#45;&gt;4914 -->
<g id="edge20" class="edge">
<title>4913&#45;&gt;4914</title>
<path fill="none" stroke="#c0c0c0" d="M599.1525,-241.9C589.0972,-241.9 561.7643,-241.9 544.9332,-241.9"/>
<polygon fill="#c0c0c0" stroke="#c0c0c0" points="544.5695,-238.4001 534.5694,-241.9 544.5694,-245.4001 544.5695,-238.4001"/>
<text text-anchor="middle" x="544.8128" y="-292.9" font-family="Arial" font-size="10.00" fill="#000000">Maria&#45; </text>
<text text-anchor="middle" x="544.8128" y="-280.9" font-family="Arial" font-size="10.00" fill="#000000"> &#45;hoeveweg </text>
<text text-anchor="middle" x="544.8128" y="-268.9" font-family="Arial" font-size="10.00" fill="#000000"> Busbaan </text>
<text text-anchor="middle" x="544.8128" y="-256.9" font-family="Arial" font-size="10.00" fill="#000000"> Maxisweg </text>
<text text-anchor="middle" x="544.8128" y="-244.9" font-family="Arial" font-size="10.00" fill="#000000"> Muiderbrug</text>
</g>
<!-- 4915 -->
<g id="node16" class="node">
<title>4915</title>
<ellipse fill="#d3d3d3" stroke="#c0c0c0" cx="531.0235" cy="-313.9" rx="3.5" ry="3.5"/>
</g>
<!-- 4914&#45;&gt;4915 -->
<g id="edge21" class="edge">
<title>4914&#45;&gt;4915</title>
<path fill="none" stroke="#c0c0c0" d="M531.0235,-245.771C531.0235,-255.8263 531.0235,-283.1592 531.0235,-299.9903"/>
<polygon fill="#c0c0c0" stroke="#c0c0c0" points="527.5236,-300.354 531.0235,-310.3541 534.5236,-300.3541 527.5236,-300.354"/>
<text text-anchor="middle" x="491.856" y="-275.8807" font-family="Arial" font-size="10.00" fill="#000000">Diemerpolderweg</text>
</g>
<!-- 4916 -->
<g id="node17" class="node">
<title>4916</title>
<ellipse fill="#d3d3d3" stroke="#c0c0c0" cx="603.0235" cy="-313.9" rx="3.5" ry="3.5"/>
</g>
<!-- 4915&#45;&gt;4916 -->
<g id="edge22" class="edge">
<title>4915&#45;&gt;4916</title>
<path fill="none" stroke="#c0c0c0" d="M534.8945,-313.9C544.9498,-313.9 572.2827,-313.9 589.1139,-313.9"/>
<polygon fill="#c0c0c0" stroke="#c0c0c0" points="589.4776,-317.4001 599.4776,-313.9 589.4776,-310.4001 589.4776,-317.4001"/>
<text text-anchor="middle" x="536.1747" y="-328.9" font-family="Arial" font-size="10.00" fill="#000000">Fortdiemer&#45;</text>
<text text-anchor="middle" x="536.1747" y="-316.9" font-family="Arial" font-size="10.00" fill="#000000">&#45;damweg</text>
</g>
<!-- 6608 -->
<g id="node26" class="node">
<title>6608</title>
<ellipse fill="#d3d3d3" stroke="#c0c0c0" cx="603.0235" cy="-385.9" rx="3.5" ry="3.5"/>
</g>
<!-- 4916&#45;&gt;6608 -->
<g id="edge23" class="edge">
<title>4916&#45;&gt;6608</title>
<path fill="none" stroke="#c0c0c0" d="M603.0235,-317.771C603.0235,-327.8263 603.0235,-355.1592 603.0235,-371.9903"/>
<polygon fill="#c0c0c0" stroke="#c0c0c0" points="599.5236,-372.354 603.0235,-382.3541 606.5236,-372.3541 599.5236,-372.354"/>
<text text-anchor="middle" x="554.6775" y="-359.8807" font-family="Arial" font-size="10.00" fill="#000000">Benno Premselabrug </text>
<text text-anchor="middle" x="554.6775" y="-347.8807" font-family="Arial" font-size="10.00" fill="#000000"> Muiderlaan</text>
</g>
<!-- 4917&#45;&gt;4906 -->
<g id="edge12" class="edge">
<title>4917&#45;&gt;4906</title>
<path fill="none" stroke="#c0c0c0" d="M315.8321,-97.9C321.3577,-97.9 353.9027,-97.9 373.0221,-97.9"/>
<polygon fill="#c0c0c0" stroke="#c0c0c0" points="373.2287,-101.4001 383.2286,-97.9 373.2286,-94.4001 373.2287,-101.4001"/>
</g>
<!-- 4401 -->
<g id="node32" class="node">
<title>4401</title>
<ellipse fill="#d3d3d3" stroke="#c0c0c0" cx="171.0235" cy="-385.9" rx="3.5" ry="3.5"/>
</g>
<!-- 6601&#45;&gt;4401 -->
<g id="edge28" class="edge">
<title>6601&#45;&gt;4401</title>
<path fill="none" stroke="#c0c0c0" d="M102.8945,-385.9C112.9498,-385.9 140.2827,-385.9 157.1139,-385.9"/>
<polygon fill="#c0c0c0" stroke="#c0c0c0" points="157.4776,-389.4001 167.4776,-385.9 157.4775,-382.4001 157.4776,-389.4001"/>
<text text-anchor="middle" x="130.0042" y="-376.9" font-family="Arial" font-size="10.00" fill="#000000">Bijlmerdreef</text>
</g>
<!-- 6602 -->
<g id="node20" class="node">
<title>6602</title>
<ellipse fill="#d3d3d3" stroke="#c0c0c0" cx="243.0235" cy="-385.9" rx="3.5" ry="3.5"/>
</g>
<!-- 6603 -->
<g id="node21" class="node">
<title>6603</title>
<ellipse fill="#d3d3d3" stroke="#c0c0c0" cx="243.0235" cy="-457.9" rx="3.5" ry="3.5"/>
</g>
<!-- 6602&#45;&gt;6603 -->
<g id="edge44" class="edge">
<title>6602&#45;&gt;6603</title>
<path fill="none" stroke="#c0c0c0" d="M243.0235,-389.771C243.0235,-399.8263 243.0235,-427.1592 243.0235,-443.9903"/>
<polygon fill="#c0c0c0" stroke="#c0c0c0" points="239.5236,-444.354 243.0235,-454.3541 246.5236,-444.3541 239.5236,-444.354"/>
<text text-anchor="middle" x="195.788" y="-431.8807" font-family="Arial" font-size="10.00" fill="#000000">Elsrijkdreef </text>
<text text-anchor="middle" x="195.788" y="-419.8807" font-family="Arial" font-size="10.00" fill="#000000"> (via St. Ganzenhoef)</text>
</g>
<!-- 6604 -->
<g id="node22" class="node">
<title>6604</title>
<ellipse fill="#d3d3d3" stroke="#c0c0c0" cx="315.0235" cy="-457.9" rx="3.5" ry="3.5"/>
</g>
<!-- 6603&#45;&gt;6604 -->
<g id="edge45" class="edge">
<title>6603&#45;&gt;6604</title>
<path fill="none" stroke="#c0c0c0" d="M246.8945,-457.9C256.9498,-457.9 284.2827,-457.9 301.1139,-457.9"/>
<polygon fill="#c0c0c0" stroke="#c0c0c0" points="301.4776,-461.4001 311.4776,-457.9 301.4776,-454.4001 301.4776,-461.4001"/>
<text text-anchor="middle" x="240.3902" y="-460.9" font-family="Arial" font-size="10.00" fill="#000000">Provincialeweg</text>
</g>
<!-- 6605 -->
<g id="node23" class="node">
<title>6605</title>
<ellipse fill="#d3d3d3" stroke="#c0c0c0" cx="315.0235" cy="-385.9" rx="3.5" ry="3.5"/>
</g>
<!-- 6604&#45;&gt;6605 -->
<g id="edge46" class="edge">
<title>6604&#45;&gt;6605</title>
<path fill="none" stroke="#c0c0c0" d="M315.0235,-454.029C315.0235,-443.9737 315.0235,-416.6408 315.0235,-399.8096"/>
<polygon fill="#c0c0c0" stroke="#c0c0c0" points="318.5236,-399.4459 315.0235,-389.4459 311.5236,-399.446 318.5236,-399.4459"/>
<text text-anchor="middle" x="351.9715" y="-429.9193" font-family="Arial" font-size="10.00" fill="#000000">Muiderstraatweg</text>
</g>
<!-- 6606 -->
<g id="node24" class="node">
<title>6606</title>
<ellipse fill="#d3d3d3" stroke="#c0c0c0" cx="459.0235" cy="-385.9" rx="3.5" ry="3.5"/>
</g>
<!-- 6605&#45;&gt;6606 -->
<g id="edge47" class="edge">
<title>6605&#45;&gt;6606</title>
<path fill="none" stroke="#c0c0c0" d="M318.5831,-385.9C336.0946,-385.9 413.5314,-385.9 445.3263,-385.9"/>
<polygon fill="#c0c0c0" stroke="#c0c0c0" points="445.3284,-389.4001 455.3284,-385.9 445.3283,-382.4001 445.3284,-389.4001"/>
<text text-anchor="middle" x="352.7852" y="-388.9" font-family="Arial" font-size="10.00" fill="#000000">Weteringweg</text>
</g>
<!-- 6606&#45;&gt;6607 -->
<g id="edge48" class="edge">
<title>6606&#45;&gt;6607</title>
<path fill="none" stroke="#c0c0c0" d="M459.0235,-382.029C459.0235,-371.9737 459.0235,-344.6408 459.0235,-327.8096"/>
<polygon fill="#c0c0c0" stroke="#c0c0c0" points="462.5236,-327.4459 459.0235,-317.4459 455.5236,-327.446 462.5236,-327.4459"/>
<text text-anchor="middle" x="419.856" y="-357.9193" font-family="Arial" font-size="10.00" fill="#000000">Diemerpolderweg</text>
</g>
<!-- 6607&#45;&gt;4915 -->
<g id="edge49" class="edge">
<title>6607&#45;&gt;4915</title>
<path fill="none" stroke="#c0c0c0" d="M462.8945,-313.9C472.9498,-313.9 500.2827,-313.9 517.1139,-313.9"/>
<polygon fill="#c0c0c0" stroke="#c0c0c0" points="517.4776,-317.4001 527.4776,-313.9 517.4776,-310.4001 517.4776,-317.4001"/>
<text text-anchor="middle" x="447.7822" y="-328.9" font-family="Arial" font-size="10.00" fill="#000000">Diemerpolderweg </text>
<text text-anchor="middle" x="447.7822" y="-316.9" font-family="Arial" font-size="10.00" fill="#000000"> (via Diemerknoop)</text>
</g>
<!-- 6609 -->
<g id="node27" class="node">
<title>6609</title>
<ellipse fill="#d3d3d3" stroke="#c0c0c0" cx="531.0235" cy="-385.9" rx="3.5" ry="3.5"/>
</g>
<!-- 6608&#45;&gt;6609 -->
<g id="edge51" class="edge">
<title>6608&#45;&gt;6609</title>
<path fill="none" stroke="#c0c0c0" d="M599.1525,-385.9C589.0972,-385.9 561.7643,-385.9 544.9332,-385.9"/>
<polygon fill="#c0c0c0" stroke="#c0c0c0" points="544.5695,-382.4001 534.5694,-385.9 544.5694,-389.4001 544.5695,-382.4001"/>
<text text-anchor="middle" x="542.8678" y="-400.9" font-family="Arial" font-size="10.00" fill="#000000">Pampuslaan </text>
<text text-anchor="middle" x="542.8678" y="-388.9" font-family="Arial" font-size="10.00" fill="#000000"> (lijn 66)</text>
</g>
<!-- 36003 -->
<g id="node31" class="node">
<title>36003</title>
<ellipse fill="#d3d3d3" stroke="#c0c0c0" cx="675.0235" cy="-385.9" rx="29.5626" ry="29.5626"/>
<text text-anchor="middle" x="675.0235" y="-382.9" font-family="Arial" font-size="10.00" fill="#000000">BEDL</text>
</g>
<!-- 6608&#45;&gt;36003 -->
<g id="edge50" class="edge">
<title>6608&#45;&gt;36003</title>
<path fill="none" stroke="#c0c0c0" d="M606.8945,-385.9C612.4973,-385.9 623.464,-385.9 634.9893,-385.9"/>
<polygon fill="#c0c0c0" stroke="#c0c0c0" points="635.1406,-389.4001 645.1406,-385.9 635.1405,-382.4001 635.1406,-389.4001"/>
<text text-anchor="middle" x="606.3544" y="-376.9" font-family="Arial" font-size="10.00" fill="#000000">Pampuslaan </text>
<text text-anchor="middle" x="606.3544" y="-364.9" font-family="Arial" font-size="10.00" fill="#000000"> (lijn 49, 360)</text>
</g>
<!-- 6610 -->
<g id="node28" class="node">
<title>6610</title>
<ellipse fill="#d3d3d3" stroke="#c0c0c0" cx="531.0235" cy="-457.9" rx="25.4216" ry="25.4216"/>
<text text-anchor="middle" x="531.0235" y="-454.9" font-family="Arial" font-size="10.00" fill="#000000">VPS</text>
</g>
<!-- 6609&#45;&gt;6610 -->
<g id="edge52" class="edge">
<title>6609&#45;&gt;6610</title>
<path fill="none" stroke="#c0c0c0" d="M531.0235,-389.771C531.0235,-396.0401 531.0235,-409.0249 531.0235,-421.9935"/>
<polygon fill="#c0c0c0" stroke="#c0c0c0" points="527.5236,-422.262 531.0235,-432.262 534.5236,-422.262 527.5236,-422.262"/>
<text text-anchor="middle" x="507.683" y="-408.8823" font-family="Arial" font-size="10.00" fill="#000000">IJburglaan</text>
</g>
<!-- 36002 -->
<g id="node30" class="node">
<title>36002</title>
<ellipse fill="#d3d3d3" stroke="#c0c0c0" cx="243.0235" cy="-169.9" rx="3.5" ry="3.5"/>
</g>
<!-- 36001&#45;&gt;36002 -->
<g id="edge25" class="edge">
<title>36001&#45;&gt;36002</title>
<path fill="none" stroke="#c0c0c0" d="M174.8945,-169.9C184.9498,-169.9 212.2827,-169.9 229.1139,-169.9"/>
<polygon fill="#c0c0c0" stroke="#c0c0c0" points="229.4776,-173.4001 239.4776,-169.9 229.4776,-166.4001 229.4776,-173.4001"/>
<text text-anchor="middle" x="202.0042" y="-160.9" font-family="Arial" font-size="10.00" fill="#000000">Langbroek&#45; </text>
<text text-anchor="middle" x="202.0042" y="-148.9" font-family="Arial" font-size="10.00" fill="#000000"> &#45;dreef</text>
</g>
<!-- 36002&#45;&gt;4905 -->
<g id="edge26" class="edge">
<title>36002&#45;&gt;4905</title>
<path fill="none" stroke="#c0c0c0" d="M256.9929,-169.9C269.7588,-169.9 288.5294,-169.9 301.2374,-169.9"/>
<polygon fill="#c0c0c0" stroke="#c0c0c0" points="256.8946,-166.4001 246.8945,-169.9 256.8945,-173.4001 256.8946,-166.4001"/>
<polygon fill="#c0c0c0" stroke="#c0c0c0" points="301.4776,-173.4001 311.4776,-169.9 301.4776,-166.4001 301.4776,-173.4001"/>
<text text-anchor="middle" x="240.2177" y="-196.9" font-family="Arial" font-size="10.00" fill="#000000">Langbroekdreef </text>
<text text-anchor="middle" x="240.2177" y="-184.9" font-family="Arial" font-size="10.00" fill="#000000"> (lijn 49 via </text>
<text text-anchor="middle" x="240.2177" y="-172.9" font-family="Arial" font-size="10.00" fill="#000000"> St. Gaasperplas)</text>
</g>
<!-- 4401&#45;&gt;6602 -->
<g id="edge29" class="edge">
<title>4401&#45;&gt;6602</title>
<path fill="none" stroke="#c0c0c0" d="M174.8945,-385.9C184.9498,-385.9 212.2827,-385.9 229.1139,-385.9"/>
<polygon fill="#c0c0c0" stroke="#c0c0c0" points="229.4776,-389.4001 239.4776,-385.9 229.4776,-382.4001 229.4776,-389.4001"/>
<text text-anchor="middle" x="202.0042" y="-376.9" font-family="Arial" font-size="10.00" fill="#000000">Bijlmerdreef </text>
<text text-anchor="middle" x="202.0042" y="-364.9" font-family="Arial" font-size="10.00" fill="#000000"> (lijn 66)</text>
</g>
<!-- 4402 -->
<g id="node33" class="node">
<title>4402</title>
<ellipse fill="#d3d3d3" stroke="#c0c0c0" cx="171.0235" cy="-529.9" rx="3.5" ry="3.5"/>
</g>
<!-- 4401&#45;&gt;4402 -->
<g id="edge30" class="edge">
<title>4401&#45;&gt;4402</title>
<path fill="none" stroke="#c0c0c0" d="M171.0235,-389.4596C171.0235,-406.9711 171.0235,-484.4078 171.0235,-516.2028"/>
<polygon fill="#c0c0c0" stroke="#c0c0c0" points="167.5236,-516.2048 171.0235,-526.2048 174.5236,-516.2049 167.5236,-516.2048"/>
<text text-anchor="middle" x="141.295" y="-467.8312" font-family="Arial" font-size="10.00" fill="#000000">Dolingadreef </text>
<text text-anchor="middle" x="141.295" y="-455.8312" font-family="Arial" font-size="10.00" fill="#000000"> (lijn 44)</text>
</g>
<!-- 4403 -->
<g id="node34" class="node">
<title>4403</title>
<ellipse fill="#d3d3d3" stroke="#c0c0c0" cx="243.0235" cy="-529.9" rx="3.5" ry="3.5"/>
</g>
<!-- 4402&#45;&gt;4403 -->
<g id="edge31" class="edge">
<title>4402&#45;&gt;4403</title>
<path fill="none" stroke="#c0c0c0" d="M174.8945,-529.9C184.9498,-529.9 212.2827,-529.9 229.1139,-529.9"/>
<polygon fill="#c0c0c0" stroke="#c0c0c0" points="229.4776,-533.4001 239.4776,-529.9 229.4776,-526.4001 229.4776,-533.4001"/>
<text text-anchor="middle" x="202.0042" y="-520.9" font-family="Arial" font-size="10.00" fill="#000000">Daalwijkdreef</text>
</g>
<!-- 4404 -->
<g id="node35" class="node">
<title>4404</title>
<ellipse fill="#d3d3d3" stroke="#c0c0c0" cx="243.0235" cy="-673.9" rx="3.5" ry="3.5"/>
</g>
<!-- 4403&#45;&gt;4404 -->
<g id="edge32" class="edge">
<title>4403&#45;&gt;4404</title>
<path fill="none" stroke="#c0c0c0" d="M243.0235,-533.4596C243.0235,-550.9711 243.0235,-628.4079 243.0235,-660.2028"/>
<polygon fill="#c0c0c0" stroke="#c0c0c0" points="239.5236,-660.2048 243.0235,-670.2048 246.5236,-660.2049 239.5236,-660.2048"/>
<text text-anchor="middle" x="194.689" y="-635.8312" font-family="Arial" font-size="10.00" fill="#000000">Bergwijkdreef </text>
<text text-anchor="middle" x="194.689" y="-623.8312" font-family="Arial" font-size="10.00" fill="#000000"> Boven Rijkersloot </text>
<text text-anchor="middle" x="194.689" y="-611.8312" font-family="Arial" font-size="10.00" fill="#000000"> Beneden R. </text>
<text text-anchor="middle" x="194.689" y="-599.8312" font-family="Arial" font-size="10.00" fill="#000000"> (via St. Diemen Zuid)</text>
</g>
<!-- 4405 -->
<g id="node36" class="node">
<title>4405</title>
<ellipse fill="#d3d3d3" stroke="#c0c0c0" cx="315.0235" cy="-673.9" rx="3.5" ry="3.5"/>
</g>
<!-- 4404&#45;&gt;4405 -->
<g id="edge33" class="edge">
<title>4404&#45;&gt;4405</title>
<path fill="none" stroke="#c0c0c0" d="M246.8945,-673.9C256.9498,-673.9 284.2827,-673.9 301.1139,-673.9"/>
<polygon fill="#c0c0c0" stroke="#c0c0c0" points="301.4776,-677.4001 311.4776,-673.9 301.4776,-670.4001 301.4776,-677.4001"/>
<text text-anchor="middle" x="274.0042" y="-664.9" font-family="Arial" font-size="10.00" fill="#000000">Beneden R. </text>
<text text-anchor="middle" x="274.0042" y="-652.9" font-family="Arial" font-size="10.00" fill="#000000"> Boven R.</text>
<text text-anchor="middle" x="274.0042" y="-640.9" font-family="Arial" font-size="10.00" fill="#000000"> Beukenhorst</text>
</g>
<!-- 4406 -->
<g id="node37" class="node">
<title>4406</title>
<ellipse fill="#d3d3d3" stroke="#c0c0c0" cx="315.0235" cy="-529.9" rx="3.5" ry="3.5"/>
</g>
<!-- 4405&#45;&gt;4406 -->
<g id="edge34" class="edge">
<title>4405&#45;&gt;4406</title>
<path fill="none" stroke="#c0c0c0" d="M315.0235,-670.3404C315.0235,-652.8289 315.0235,-575.3921 315.0235,-543.5972"/>
<polygon fill="#c0c0c0" stroke="#c0c0c0" points="318.5236,-543.5951 315.0235,-533.5951 311.5236,-543.5952 318.5236,-543.5951"/>
<text text-anchor="middle" x="353.361" y="-621.9688" font-family="Arial" font-size="10.00" fill="#000000">Hartveldseweg </text>
<text text-anchor="middle" x="353.361" y="-609.9688" font-family="Arial" font-size="10.00" fill="#000000"> Muiderstraatweg</text>
</g>
<!-- 4416 -->
<g id="node46" class="node">
<title>4416</title>
<ellipse fill="#d3d3d3" stroke="#c0c0c0" cx="387.0235" cy="-673.9" rx="3.5" ry="3.5"/>
</g>
<!-- 4405&#45;&gt;4416 -->
<g id="edge2" class="edge">
<title>4405&#45;&gt;4416</title>
<path fill="none" stroke="#c0c0c0" stroke-dasharray="5,2" d="M318.8945,-673.9C331.5129,-673.9 371.3398,-673.9 383.4776,-673.9"/>
<text text-anchor="middle" x="351.1861" y="-664.9" font-family="Arial" font-size="10.00" fill="#000000">Burgemeester </text>
<text text-anchor="middle" x="351.1861" y="-652.9" font-family="Arial" font-size="10.00" fill="#000000"> Bickerstraat</text>
</g>
<!-- 4407 -->
<g id="node38" class="node">
<title>4407</title>
<ellipse fill="#d3d3d3" stroke="#c0c0c0" cx="387.0235" cy="-529.9" rx="3.5" ry="3.5"/>
</g>
<!-- 4406&#45;&gt;4407 -->
<g id="edge35" class="edge">
<title>4406&#45;&gt;4407</title>
<path fill="none" stroke="#c0c0c0" d="M318.8945,-529.9C328.9498,-529.9 356.2827,-529.9 373.1139,-529.9"/>
<polygon fill="#c0c0c0" stroke="#c0c0c0" points="373.4776,-533.4001 383.4776,-529.9 373.4775,-526.4001 373.4776,-533.4001"/>
<text text-anchor="middle" x="303.2177" y="-532.9" font-family="Arial" font-size="10.00" fill="#000000">Prins Bernhardlaan</text>
</g>
<!-- 4408 -->
<g id="node39" class="node">
<title>4408</title>
<ellipse fill="#d3d3d3" stroke="#c0c0c0" cx="387.0235" cy="-601.9" rx="3.5" ry="3.5"/>
</g>
<!-- 4407&#45;&gt;4408 -->
<g id="edge36" class="edge">
<title>4407&#45;&gt;4408</title>
<path fill="none" stroke="#c0c0c0" d="M387.0235,-533.771C387.0235,-543.8263 387.0235,-571.1592 387.0235,-587.9903"/>
<polygon fill="#c0c0c0" stroke="#c0c0c0" points="383.5236,-588.354 387.0235,-598.3541 390.5236,-588.3541 383.5236,-588.354"/>
<text text-anchor="middle" x="343.9615" y="-563.8807" font-family="Arial" font-size="10.00" fill="#000000">Prinses Beatrixlaan</text>
</g>
<!-- 4409 -->
<g id="node40" class="node">
<title>4409</title>
<ellipse fill="#d3d3d3" stroke="#c0c0c0" cx="459.0235" cy="-601.9" rx="3.5" ry="3.5"/>
</g>
<!-- 4408&#45;&gt;4409 -->
<g id="edge37" class="edge">
<title>4408&#45;&gt;4409</title>
<path fill="none" stroke="#c0c0c0" d="M390.8945,-601.9C400.9498,-601.9 428.2827,-601.9 445.1139,-601.9"/>
<polygon fill="#c0c0c0" stroke="#c0c0c0" points="445.4776,-605.4001 455.4776,-601.9 445.4775,-598.4001 445.4776,-605.4001"/>
<text text-anchor="middle" x="455.2262" y="-616.9" font-family="Arial" font-size="10.00" fill="#000000">Ouddiemerlaan </text>
<text text-anchor="middle" x="455.2262" y="-604.9" font-family="Arial" font-size="10.00" fill="#000000"> (via St. Diemen)</text>
</g>
<!-- 4408&#45;&gt;4416 -->
<g id="edge1" class="edge">
<title>4408&#45;&gt;4416</title>
<path fill="none" stroke="#c0c0c0" stroke-dasharray="5,2" d="M387.0235,-605.771C387.0235,-618.3894 387.0235,-658.2162 387.0235,-670.3541"/>
<text text-anchor="middle" x="433.1395" y="-641.0625" font-family="Arial" font-size="10.00" fill="#000000">Wilhelminaplantsoen</text>
</g>
<!-- 4410 -->
<g id="node41" class="node">
<title>4410</title>
<ellipse fill="#d3d3d3" stroke="#c0c0c0" cx="459.0235" cy="-529.9" rx="3.5" ry="3.5"/>
</g>
<!-- 4409&#45;&gt;4410 -->
<g id="edge38" class="edge">
<title>4409&#45;&gt;4410</title>
<path fill="none" stroke="#c0c0c0" d="M459.0235,-598.029C459.0235,-587.9737 459.0235,-560.6408 459.0235,-543.8096"/>
<polygon fill="#c0c0c0" stroke="#c0c0c0" points="462.5236,-543.4459 459.0235,-533.4459 455.5236,-543.4459 462.5236,-543.4459"/>
<text text-anchor="middle" x="498.191" y="-573.9193" font-family="Arial" font-size="10.00" fill="#000000">Diemerpolderweg</text>
</g>
<!-- 4417 -->
<g id="node47" class="node">
<title>4417</title>
<ellipse fill="#d3d3d3" stroke="#c0c0c0" cx="459.0235" cy="-673.9" rx="3.5" ry="3.5"/>
</g>
<!-- 4409&#45;&gt;4417 -->
<g id="edge3" class="edge">
<title>4409&#45;&gt;4417</title>
<path fill="none" stroke="#c0c0c0" stroke-dasharray="5,2" d="M459.0235,-605.771C459.0235,-618.3894 459.0235,-658.2162 459.0235,-670.3541"/>
<text text-anchor="middle" x="434.2925" y="-629.0625" font-family="Arial" font-size="10.00" fill="#000000">Buytenweg</text>
</g>
<!-- 4411 -->
<g id="node42" class="node">
<title>4411</title>
<ellipse fill="#d3d3d3" stroke="#c0c0c0" cx="531.0235" cy="-529.9" rx="3.5" ry="3.5"/>
</g>
<!-- 4410&#45;&gt;4411 -->
<g id="edge39" class="edge">
<title>4410&#45;&gt;4411</title>
<path fill="none" stroke="#c0c0c0" d="M462.8945,-529.9C472.9498,-529.9 500.2827,-529.9 517.1139,-529.9"/>
<polygon fill="#c0c0c0" stroke="#c0c0c0" points="517.4776,-533.4001 527.4776,-529.9 517.4776,-526.4001 517.4776,-533.4001"/>
<text text-anchor="middle" x="500.9797" y="-520.9" font-family="Arial" font-size="10.00" fill="#000000">Vogelweg</text>
</g>
<!-- 4412 -->
<g id="node43" class="node">
<title>4412</title>
<ellipse fill="#d3d3d3" stroke="#c0c0c0" cx="531.0235" cy="-601.9" rx="3.5" ry="3.5"/>
</g>
<!-- 4411&#45;&gt;4412 -->
<g id="edge40" class="edge">
<title>4411&#45;&gt;4412</title>
<path fill="none" stroke="#c0c0c0" d="M531.0235,-533.771C531.0235,-543.8263 531.0235,-571.1592 531.0235,-587.9903"/>
<polygon fill="#c0c0c0" stroke="#c0c0c0" points="527.5236,-588.354 531.0235,-598.3541 534.5236,-588.3541 527.5236,-588.354"/>
<text text-anchor="middle" x="503.244" y="-551.8807" font-family="Arial" font-size="10.00" fill="#000000">Tureluurweg</text>
</g>
<!-- 4413 -->
<g id="node44" class="node">
<title>4413</title>
<ellipse fill="#d3d3d3" stroke="#c0c0c0" cx="567.0235" cy="-637.9" rx=".5" ry=".5"/>
</g>
<!-- 4412&#45;&gt;4413 -->
<g id="edge41" class="edge">
<title>4412&#45;&gt;4413</title>
<path fill="none" stroke="#c0c0c0" d="M533.8484,-604.7248C539.2561,-610.1326 551.2424,-622.1188 559.2276,-630.1041"/>
<polygon fill="#c0c0c0" stroke="#c0c0c0" points="556.8603,-632.6865 566.4062,-637.2827 561.81,-627.7367 556.8603,-632.6865"/>
<text text-anchor="middle" x="579.877" y="-620.4145" font-family="Arial" font-size="10.00" fill="#000000">Rietzangerweg</text>
</g>
<!-- 4419 -->
<g id="node49" class="node">
<title>4419</title>
<ellipse fill="#d3d3d3" stroke="#c0c0c0" cx="603.0235" cy="-601.9" rx="3.5" ry="3.5"/>
</g>
<!-- 4413&#45;&gt;4419 -->
<g id="edge42" class="edge">
<title>4413&#45;&gt;4419</title>
<path fill="none" stroke="#c0c0c0" d="M567.4278,-637.4957C569.9355,-634.988 583.5727,-621.3508 593.2183,-611.7052"/>
<polygon fill="#c0c0c0" stroke="#c0c0c0" points="595.9244,-613.9488 600.5206,-604.4029 590.9747,-608.9991 595.9244,-613.9488"/>
</g>
<!-- 4415 -->
<g id="node45" class="node">
<title>4415</title>
<ellipse fill="#d3d3d3" stroke="#c0c0c0" cx="603.0235" cy="-529.9" rx="27.3251" ry="27.3251"/>
<text text-anchor="middle" x="603.0235" y="-526.9" font-family="Arial" font-size="10.00" fill="#000000">DMN</text>
</g>
<!-- 4418 -->
<g id="node48" class="node">
<title>4418</title>
<ellipse fill="#d3d3d3" stroke="#c0c0c0" cx="603.0235" cy="-673.9" rx="3.5" ry="3.5"/>
</g>
<!-- 4417&#45;&gt;4418 -->
<g id="edge4" class="edge">
<title>4417&#45;&gt;4418</title>
<path fill="none" stroke="#c0c0c0" stroke-dasharray="5,2" d="M462.5831,-673.9C482.4191,-673.9 579.1457,-673.9 599.3284,-673.9"/>
<text text-anchor="middle" x="496.7817" y="-676.9" font-family="Arial" font-size="10.00" fill="#000000">Oude Waelweg</text>
</g>
<!-- 4418&#45;&gt;4419 -->
<g id="edge5" class="edge">
<title>4418&#45;&gt;4419</title>
<path fill="none" stroke="#c0c0c0" stroke-dasharray="5,2" d="M603.0235,-670.029C603.0235,-657.4106 603.0235,-617.5837 603.0235,-605.4459"/>
<text text-anchor="middle" x="580.7975" y="-652.7374" font-family="Arial" font-size="10.00" fill="#000000">Meerkoet </text>
<text text-anchor="middle" x="580.7975" y="-640.7374" font-family="Arial" font-size="10.00" fill="#000000"> Zeezigt</text>
</g>
<!-- 4419&#45;&gt;4415 -->
<g id="edge43" class="edge">
<title>4419&#45;&gt;4415</title>
<path fill="none" stroke="#c0c0c0" d="M603.0235,-598.029C603.0235,-592.0958 603.0235,-580.1473 603.0235,-567.8902"/>
<polygon fill="#c0c0c0" stroke="#c0c0c0" points="606.5236,-567.6469 603.0235,-557.6469 599.5236,-567.647 606.5236,-567.6469"/>
<text text-anchor="middle" x="640.2405" y="-609.9596" font-family="Arial" font-size="10.00" fill="#000000">Meerkoet </text>
<text text-anchor="middle" x="640.2405" y="-597.9596" font-family="Arial" font-size="10.00" fill="#000000"> Fregat </text>
<text text-anchor="middle" x="640.2405" y="-585.9596" font-family="Arial" font-size="10.00" fill="#000000"> Hermelijnvlinder</text>
</g>
</g>
</svg>

