<?xml version="1.0" encoding="UTF-8" standalone="no"?>
<!DOCTYPE svg PUBLIC "-//W3C//DTD SVG 1.1//EN"
 "http://www.w3.org/Graphics/SVG/1.1/DTD/svg11.dtd">
<!-- Generated by graphviz version 2.40.1 (20161225.0304)
 -->
<!-- Title: G Pages: 1 -->
<svg width="365pt" height="407pt"
 viewBox="0.00 0.00 364.66 407.02" xmlns="http://www.w3.org/2000/svg" xmlns:xlink="http://www.w3.org/1999/xlink">
<g id="graph0" class="graph" transform="scale(1 1) rotate(0) translate(4 403.0235)">
<title>G</title>
<polygon fill="#ffffff" stroke="transparent" points="-4,4 -4,-403.0235 360.6557,-403.0235 360.6557,4 -4,4"/>
<!-- GZ -->
<g id="node1" class="node">
<title>GZ</title>
<ellipse fill="#d3d3d3" stroke="#c0c0c0" cx="90.003" cy="-99.0235" rx="21.2689" ry="21.2689"/>
<text text-anchor="middle" x="90.003" y="-96.0235" font-family="Arial" font-size="10.00" fill="#000000">GZ</text>
</g>
<!-- GZ03 -->
<g id="node7" class="node">
<title>GZ03</title>
<ellipse fill="#d3d3d3" stroke="#c0c0c0" cx="162.003" cy="-99.0235" rx="3.5" ry="3.5"/>
</g>
<!-- GZ&#45;&gt;GZ03 -->
<g id="edge1" class="edge">
<title>GZ&#45;&gt;GZ03</title>
<path fill="none" stroke="#c0c0c0" d="M111.216,-99.0235C123.13,-99.0235 137.6594,-99.0235 148.1206,-99.0235"/>
<polygon fill="#c0c0c0" stroke="#c0c0c0" points="148.4141,-102.5236 158.414,-99.0235 148.414,-95.5236 148.4141,-102.5236"/>
<text text-anchor="middle" x="171.0678" y="-102.0235" font-family="Arial" font-size="10.00" fill="#000000">Joan Muyskenweg</text>
</g>
<!-- BMR -->
<g id="node2" class="node">
<title>BMR</title>
<ellipse fill="#d3d3d3" stroke="#c0c0c0" cx="306.003" cy="-27.0235" rx="27.047" ry="27.047"/>
<text text-anchor="middle" x="306.003" y="-24.0235" font-family="Arial" font-size="10.00" fill="#000000">BMR</text>
</g>
<!-- VPS -->
<g id="node3" class="node">
<title>VPS</title>
<ellipse fill="#d3d3d3" stroke="#c0c0c0" cx="162.003" cy="-315.0235" rx="25.4216" ry="25.4216"/>
<text text-anchor="middle" x="162.003" y="-312.0235" font-family="Arial" font-size="10.00" fill="#000000">VPS</text>
</g>
<!-- BEDL -->
<g id="node4" class="node">
<title>BEDL</title>
<ellipse fill="#d3d3d3" stroke="#c0c0c0" cx="306.003" cy="-243.0235" rx="29.5626" ry="29.5626"/>
<text text-anchor="middle" x="306.003" y="-240.0235" font-family="Arial" font-size="10.00" fill="#000000">BEDL</text>
</g>
<!-- GZ01 -->
<g id="node5" class="node">
<title>GZ01</title>
<ellipse fill="#d3d3d3" stroke="#c0c0c0" cx="234.003" cy="-27.0235" rx="3.5" ry="3.5"/>
</g>
<!-- GZ01&#45;&gt;BMR -->
<g id="edge2" class="edge">
<title>GZ01&#45;&gt;BMR</title>
<path fill="none" stroke="#c0c0c0" d="M237.874,-27.0235C243.9587,-27.0235 256.3699,-27.0235 268.9524,-27.0235"/>
<polygon fill="#c0c0c0" stroke="#c0c0c0" points="268.9624,-30.5236 278.9624,-27.0235 268.9624,-23.5236 268.9624,-30.5236"/>
<text text-anchor="middle" x="220.0697" y="-30.0235" font-family="Arial" font-size="10.00" fill="#000000">Hoogoorddreef</text>
</g>
<!-- GZ02 -->
<g id="node6" class="node">
<title>GZ02</title>
<ellipse fill="#d3d3d3" stroke="#c0c0c0" cx="234.003" cy="-99.0235" rx="3.5" ry="3.5"/>
</g>
<!-- GZ02&#45;&gt;GZ01 -->
<g id="edge3" class="edge">
<title>GZ02&#45;&gt;GZ01</title>
<path fill="none" stroke="#c0c0c0" d="M234.003,-95.1525C234.003,-85.0972 234.003,-57.7643 234.003,-40.9332"/>
<polygon fill="#c0c0c0" stroke="#c0c0c0" points="237.5031,-40.5694 234.003,-30.5694 230.5031,-40.5695 237.5031,-40.5694"/>
<text text-anchor="middle" x="201.4995" y="-71.0428" font-family="Arial" font-size="10.00" fill="#000000">Holterbergweg</text>
</g>
<!-- GZ03&#45;&gt;GZ02 -->
<g id="edge5" class="edge">
<title>GZ03&#45;&gt;GZ02</title>
<path fill="none" stroke="#c0c0c0" d="M165.874,-99.0235C175.9293,-99.0235 203.2622,-99.0235 220.0933,-99.0235"/>
<polygon fill="#c0c0c0" stroke="#c0c0c0" points="220.4571,-102.5236 230.4571,-99.0235 220.457,-95.5236 220.4571,-102.5236"/>
<text text-anchor="middle" x="234.3832" y="-90.0235" font-family="Arial" font-size="10.00" fill="#000000">Joan Muyskenweg</text>
</g>
<!-- GZ04 -->
<g id="node8" class="node">
<title>GZ04</title>
<ellipse fill="#d3d3d3" stroke="#c0c0c0" cx="162.003" cy="-171.0235" rx="3.5" ry="3.5"/>
</g>
<!-- GZ03&#45;&gt;GZ04 -->
<g id="edge4" class="edge">
<title>GZ03&#45;&gt;GZ04</title>
<path fill="none" stroke="#c0c0c0" d="M162.003,-102.8945C162.003,-112.9498 162.003,-140.2827 162.003,-157.1138"/>
<polygon fill="#c0c0c0" stroke="#c0c0c0" points="158.5031,-157.4775 162.003,-167.4776 165.5031,-157.4776 158.5031,-157.4775"/>
<text text-anchor="middle" x="121.4355" y="-133.0042" font-family="Arial" font-size="10.00" fill="#000000">Van der Madeweg</text>
</g>
<!-- GZ05 -->
<g id="node9" class="node">
<title>GZ05</title>
<ellipse fill="#d3d3d3" stroke="#c0c0c0" cx="90.003" cy="-171.0235" rx="3.5" ry="3.5"/>
</g>
<!-- GZ04&#45;&gt;GZ05 -->
<g id="edge6" class="edge">
<title>GZ04&#45;&gt;GZ05</title>
<path fill="none" stroke="#c0c0c0" d="M158.132,-171.0235C148.0767,-171.0235 120.7438,-171.0235 103.9126,-171.0235"/>
<polygon fill="#c0c0c0" stroke="#c0c0c0" points="103.549,-167.5236 93.5489,-171.0235 103.5489,-174.5236 103.549,-167.5236"/>
<text text-anchor="middle" x="131.0223" y="-162.0235" font-family="Arial" font-size="10.00" fill="#000000">Spaklerweg</text>
</g>
<!-- GZ06 -->
<g id="node10" class="node">
<title>GZ06</title>
<ellipse fill="#d3d3d3" stroke="#c0c0c0" cx="90.003" cy="-243.0235" rx="3.5" ry="3.5"/>
</g>
<!-- GZ05&#45;&gt;GZ06 -->
<g id="edge7" class="edge">
<title>GZ05&#45;&gt;GZ06</title>
<path fill="none" stroke="#c0c0c0" d="M90.003,-174.8945C90.003,-184.9498 90.003,-212.2827 90.003,-229.1138"/>
<polygon fill="#c0c0c0" stroke="#c0c0c0" points="86.5031,-229.4775 90.003,-239.4776 93.5031,-229.4776 86.5031,-229.4775"/>
<text text-anchor="middle" x="45.0015" y="-229.0042" font-family="Arial" font-size="10.00" fill="#000000">Verlengde van </text>
<text text-anchor="middle" x="45.0015" y="-217.0042" font-family="Arial" font-size="10.00" fill="#000000"> Marwijk Kooystraat </text>
<text text-anchor="middle" x="45.0015" y="-205.0042" font-family="Arial" font-size="10.00" fill="#000000"> [A10]: Hengelo</text>
</g>
<!-- GZ08 -->
<g id="node12" class="node">
<title>GZ08</title>
<ellipse fill="#d3d3d3" stroke="#c0c0c0" cx="90.003" cy="-387.0235" rx="3.5" ry="3.5"/>
</g>
<!-- GZ06&#45;&gt;GZ08 -->
<g id="edge8" class="edge">
<title>GZ06&#45;&gt;GZ08</title>
<path fill="none" stroke="#c0c0c0" d="M90.003,-246.5831C90.003,-264.0946 90.003,-341.5314 90.003,-373.3263"/>
<polygon fill="#c0c0c0" stroke="#c0c0c0" points="86.5031,-373.3283 90.003,-383.3283 93.5031,-373.3284 86.5031,-373.3283"/>
<text text-anchor="middle" x="78.3305" y="-312.9547" font-family="Arial" font-size="10.00" fill="#000000">[A10]</text>
</g>
<!-- GZ09 -->
<g id="node13" class="node">
<title>GZ09</title>
<ellipse fill="#d3d3d3" stroke="#c0c0c0" cx="234.003" cy="-243.0235" rx="3.5" ry="3.5"/>
</g>
<!-- GZ06&#45;&gt;GZ09 -->
<g id="edge9" class="edge">
<title>GZ06&#45;&gt;GZ09</title>
<path fill="none" stroke="#c0c0c0" d="M93.5626,-243.0235C111.0741,-243.0235 188.5109,-243.0235 220.3058,-243.0235"/>
<polygon fill="#c0c0c0" stroke="#c0c0c0" points="220.3079,-246.5236 230.3078,-243.0235 220.3078,-239.5236 220.3079,-246.5236"/>
<text text-anchor="middle" x="156.9342" y="-234.0235" font-family="Arial" font-size="10.00" fill="#000000">Afslag naar [A1]: Hengelo </text>
<text text-anchor="middle" x="156.9342" y="-222.0235" font-family="Arial" font-size="10.00" fill="#000000"> Afrit (2): Diemen</text>
</g>
<!-- GZ07 -->
<g id="node11" class="node">
<title>GZ07</title>
<ellipse fill="#d3d3d3" stroke="#c0c0c0" cx="162.003" cy="-387.0235" rx="3.5" ry="3.5"/>
</g>
<!-- GZ07&#45;&gt;VPS -->
<g id="edge10" class="edge">
<title>GZ07&#45;&gt;VPS</title>
<path fill="none" stroke="#c0c0c0" d="M162.003,-383.1525C162.003,-376.8834 162.003,-363.8986 162.003,-350.93"/>
<polygon fill="#c0c0c0" stroke="#c0c0c0" points="165.5031,-350.6614 162.003,-340.6615 158.5031,-350.6615 165.5031,-350.6614"/>
<text text-anchor="middle" x="138.6625" y="-370.0412" font-family="Arial" font-size="10.00" fill="#000000">IJburglaan</text>
</g>
<!-- GZ08&#45;&gt;GZ07 -->
<g id="edge11" class="edge">
<title>GZ08&#45;&gt;GZ07</title>
<path fill="none" stroke="#c0c0c0" d="M93.874,-387.0235C103.9293,-387.0235 131.2622,-387.0235 148.0933,-387.0235"/>
<polygon fill="#c0c0c0" stroke="#c0c0c0" points="148.4571,-390.5236 158.4571,-387.0235 148.457,-383.5236 148.4571,-390.5236"/>
<text text-anchor="middle" x="80.4232" y="-390.0235" font-family="Arial" font-size="10.00" fill="#000000">Afrit (14): Zeeburg</text>
</g>
<!-- GZ10 -->
<g id="node14" class="node">
<title>GZ10</title>
<ellipse fill="#d3d3d3" stroke="#c0c0c0" cx="234.003" cy="-315.0235" rx="3.5" ry="3.5"/>
</g>
<!-- GZ09&#45;&gt;GZ10 -->
<g id="edge12" class="edge">
<title>GZ09&#45;&gt;GZ10</title>
<path fill="none" stroke="#c0c0c0" d="M234.003,-246.8945C234.003,-256.9498 234.003,-284.2827 234.003,-301.1138"/>
<polygon fill="#c0c0c0" stroke="#c0c0c0" points="230.5031,-301.4775 234.003,-311.4776 237.5031,-301.4776 230.5031,-301.4775"/>
<text text-anchor="middle" x="204.8335" y="-277.0042" font-family="Arial" font-size="10.00" fill="#000000">Weteringweg</text>
</g>
<!-- GZ11 -->
<g id="node15" class="node">
<title>GZ11</title>
<ellipse fill="#d3d3d3" stroke="#c0c0c0" cx="306.003" cy="-315.0235" rx="3.5" ry="3.5"/>
</g>
<!-- GZ10&#45;&gt;GZ11 -->
<g id="edge13" class="edge">
<title>GZ10&#45;&gt;GZ11</title>
<path fill="none" stroke="#c0c0c0" d="M237.874,-315.0235C247.9293,-315.0235 275.2622,-315.0235 292.0933,-315.0235"/>
<polygon fill="#c0c0c0" stroke="#c0c0c0" points="292.4571,-318.5236 302.4571,-315.0235 292.457,-311.5236 292.4571,-318.5236"/>
<text text-anchor="middle" x="310.8197" y="-342.0235" font-family="Arial" font-size="10.00" fill="#000000">Diemerpolderweg </text>
<text text-anchor="middle" x="310.8197" y="-330.0235" font-family="Arial" font-size="10.00" fill="#000000"> Fortdiemerdamweg </text>
<text text-anchor="middle" x="310.8197" y="-318.0235" font-family="Arial" font-size="10.00" fill="#000000"> Muiderlaan</text>
</g>
<!-- GZ11&#45;&gt;BEDL -->
<g id="edge14" class="edge">
<title>GZ11&#45;&gt;BEDL</title>
<path fill="none" stroke="#c0c0c0" d="M306.003,-311.1525C306.003,-305.5498 306.003,-294.5831 306.003,-283.0578"/>
<polygon fill="#c0c0c0" stroke="#c0c0c0" points="309.5031,-282.9064 306.003,-272.9065 302.5031,-282.9065 309.5031,-282.9064"/>
<text text-anchor="middle" x="278.2175" y="-300.1051" font-family="Arial" font-size="10.00" fill="#000000">Pampuslaan</text>
</g>
</g>
</svg>

