<?xml version="1.0" encoding="UTF-8" standalone="no"?>
<!DOCTYPE svg PUBLIC "-//W3C//DTD SVG 1.1//EN"
 "http://www.w3.org/Graphics/SVG/1.1/DTD/svg11.dtd">
<!-- Generated by graphviz version 2.40.1 (20161225.0304)
 -->
<!-- Title: G Pages: 1 -->
<svg width="1208pt" height="708pt"
 viewBox="0.00 0.00 1207.89 708.48" xmlns="http://www.w3.org/2000/svg" xmlns:xlink="http://www.w3.org/1999/xlink">
<g id="graph0" class="graph" transform="scale(1 1) rotate(0) translate(4 704.4843)">
<title>G</title>
<polygon fill="#ffffff" stroke="transparent" points="-4,4 -4,-704.4843 1203.8904,-704.4843 1203.8904,4 -4,4"/>
<!-- 1800 -->
<g id="node1" class="node">
<title>1800</title>
<ellipse fill="#d3d3d3" stroke="#c0c0c0" cx="741.2558" cy="-457.4608" rx="26.4794" ry="26.4794"/>
<text text-anchor="middle" x="741.2558" y="-454.4608" font-family="Arial" font-size="10.00" fill="#000000">CEN</text>
</g>
<!-- 1801 -->
<g id="node2" class="node">
<title>1801</title>
<ellipse fill="#d3d3d3" stroke="#c0c0c0" cx="597.2558" cy="-457.4608" rx="3.5" ry="3.5"/>
</g>
<!-- 1800&#45;&gt;1801 -->
<g id="edge1" class="edge">
<title>1800&#45;&gt;1801</title>
<path fill="none" stroke="#c0c0c0" d="M714.844,-457.4608C684.2857,-457.4608 635.1154,-457.4608 611.2075,-457.4608"/>
<polygon fill="#c0c0c0" stroke="#c0c0c0" points="611.0197,-453.9609 601.0196,-457.4608 611.0196,-460.9609 611.0197,-453.9609"/>
<text text-anchor="middle" x="680.2512" y="-448.4608" font-family="Arial" font-size="10.00" fill="#000000">De Ruijterkade </text>
<text text-anchor="middle" x="680.2512" y="-436.4608" font-family="Arial" font-size="10.00" fill="#000000"> (lijn 18, 21, 48)</text>
</g>
<!-- 4301 -->
<g id="node24" class="node">
<title>4301</title>
<ellipse fill="#d3d3d3" stroke="#c0c0c0" cx="885.2558" cy="-457.4608" rx="3.5" ry="3.5"/>
</g>
<!-- 1800&#45;&gt;4301 -->
<g id="edge23" class="edge">
<title>1800&#45;&gt;4301</title>
<path fill="none" stroke="#c0c0c0" d="M767.6676,-457.4608C798.2259,-457.4608 847.3962,-457.4608 871.3042,-457.4608"/>
<polygon fill="#c0c0c0" stroke="#c0c0c0" points="871.492,-460.9609 881.492,-457.4608 871.4919,-453.9609 871.492,-460.9609"/>
<text text-anchor="middle" x="837.1297" y="-448.4608" font-family="Arial" font-size="10.00" fill="#000000">De Ruijterkade </text>
<text text-anchor="middle" x="837.1297" y="-436.4608" font-family="Arial" font-size="10.00" fill="#000000"> Piet Heinkade &#160;</text>
<text text-anchor="middle" x="837.1297" y="-424.4608" font-family="Arial" font-size="10.00" fill="#000000"> (lijn 43)</text>
</g>
<!-- 1802 -->
<g id="node3" class="node">
<title>1802</title>
<ellipse fill="#d3d3d3" stroke="#c0c0c0" cx="597.2558" cy="-385.4608" rx="3.5" ry="3.5"/>
</g>
<!-- 1801&#45;&gt;1802 -->
<g id="edge2" class="edge">
<title>1801&#45;&gt;1802</title>
<path fill="none" stroke="#c0c0c0" d="M597.2558,-453.5898C597.2558,-443.5345 597.2558,-416.2016 597.2558,-399.3704"/>
<polygon fill="#c0c0c0" stroke="#c0c0c0" points="600.7559,-399.0067 597.2558,-389.0067 593.7559,-399.0067 600.7559,-399.0067"/>
<text text-anchor="middle" x="571.1428" y="-441.4801" font-family="Arial" font-size="10.00" fill="#000000">Droogbak </text>
<text text-anchor="middle" x="571.1428" y="-429.4801" font-family="Arial" font-size="10.00" fill="#000000"> (lijn 18, 21)</text>
</g>
<!-- 4801 -->
<g id="node35" class="node">
<title>4801</title>
<ellipse fill="#d3d3d3" stroke="#c0c0c0" cx="525.2558" cy="-457.4608" rx="3.5" ry="3.5"/>
</g>
<!-- 1801&#45;&gt;4801 -->
<g id="edge34" class="edge">
<title>1801&#45;&gt;4801</title>
<path fill="none" stroke="#c0c0c0" d="M593.3848,-457.4608C583.3295,-457.4608 555.9966,-457.4608 539.1655,-457.4608"/>
<polygon fill="#c0c0c0" stroke="#c0c0c0" points="538.8018,-453.9609 528.8017,-457.4608 538.8017,-460.9609 538.8018,-453.9609"/>
<text text-anchor="middle" x="531.8271" y="-472.4608" font-family="Arial" font-size="10.00" fill="#000000">De Ruijterkade </text>
<text text-anchor="middle" x="531.8271" y="-460.4608" font-family="Arial" font-size="10.00" fill="#000000"> (lijn 48)</text>
</g>
<!-- 1803 -->
<g id="node4" class="node">
<title>1803</title>
<ellipse fill="#d3d3d3" stroke="#c0c0c0" cx="525.2558" cy="-385.4608" rx="3.5" ry="3.5"/>
</g>
<!-- 1802&#45;&gt;1803 -->
<g id="edge3" class="edge">
<title>1802&#45;&gt;1803</title>
<path fill="none" stroke="#c0c0c0" d="M593.3848,-385.4608C583.3295,-385.4608 555.9966,-385.4608 539.1655,-385.4608"/>
<polygon fill="#c0c0c0" stroke="#c0c0c0" points="538.8018,-381.9609 528.8017,-385.4608 538.8017,-388.9609 538.8018,-381.9609"/>
<text text-anchor="middle" x="510.4351" y="-412.4608" font-family="Arial" font-size="10.00" fill="#000000">Nieuwe Westerdokstraat </text>
<text text-anchor="middle" x="510.4351" y="-400.4608" font-family="Arial" font-size="10.00" fill="#000000"> Haarlemmer Houttuinen </text>
<text text-anchor="middle" x="510.4351" y="-388.4608" font-family="Arial" font-size="10.00" fill="#000000"> Tussen de Bogen</text>
</g>
<!-- 1804 -->
<g id="node5" class="node">
<title>1804</title>
<ellipse fill="#d3d3d3" stroke="#c0c0c0" cx="525.2558" cy="-313.4608" rx="3.5" ry="3.5"/>
</g>
<!-- 1803&#45;&gt;1804 -->
<g id="edge4" class="edge">
<title>1803&#45;&gt;1804</title>
<path fill="none" stroke="#c0c0c0" d="M525.2558,-381.5897C525.2558,-371.5345 525.2558,-344.2016 525.2558,-327.3704"/>
<polygon fill="#c0c0c0" stroke="#c0c0c0" points="528.7559,-327.0067 525.2558,-317.0067 521.7559,-327.0067 528.7559,-327.0067"/>
<text text-anchor="middle" x="479.7003" y="-345.4801" font-family="Arial" font-size="10.00" fill="#000000">Planciusstraat </text>
<text text-anchor="middle" x="479.7003" y="-333.4801" font-family="Arial" font-size="10.00" fill="#000000"> Haarlemmerplein </text>
<text text-anchor="middle" x="479.7003" y="-321.4801" font-family="Arial" font-size="10.00" fill="#000000"> (Korte) Marnixstraat</text>
</g>
<!-- 1805 -->
<g id="node6" class="node">
<title>1805</title>
<ellipse fill="#d3d3d3" stroke="#c0c0c0" cx="453.2558" cy="-313.4608" rx="3.5" ry="3.5"/>
</g>
<!-- 1804&#45;&gt;1805 -->
<g id="edge5" class="edge">
<title>1804&#45;&gt;1805</title>
<path fill="none" stroke="#c0c0c0" d="M521.3848,-313.4608C511.3295,-313.4608 483.9966,-313.4608 467.1655,-313.4608"/>
<polygon fill="#c0c0c0" stroke="#c0c0c0" points="466.8018,-309.9609 456.8017,-313.4608 466.8017,-316.9609 466.8018,-309.9609"/>
<text text-anchor="middle" x="554.2836" y="-304.4608" font-family="Arial" font-size="10.00" fill="#000000">Marnixplein </text>
<text text-anchor="middle" x="554.2836" y="-292.4608" font-family="Arial" font-size="10.00" fill="#000000"> Frederik Hendrikplantsoen</text>
</g>
<!-- 1806 -->
<g id="node7" class="node">
<title>1806</title>
<ellipse fill="#d3d3d3" stroke="#c0c0c0" cx="453.2558" cy="-241.4608" rx="3.5" ry="3.5"/>
</g>
<!-- 1805&#45;&gt;1806 -->
<g id="edge6" class="edge">
<title>1805&#45;&gt;1806</title>
<path fill="none" stroke="#c0c0c0" d="M453.2558,-309.5897C453.2558,-299.5345 453.2558,-272.2016 453.2558,-255.3704"/>
<polygon fill="#c0c0c0" stroke="#c0c0c0" points="456.7559,-255.0067 453.2558,-245.0067 449.7559,-255.0068 456.7559,-255.0067"/>
<text text-anchor="middle" x="402.4208" y="-297.4801" font-family="Arial" font-size="10.00" fill="#000000">Frederik Hendrikstraat </text>
<text text-anchor="middle" x="402.4208" y="-285.4801" font-family="Arial" font-size="10.00" fill="#000000"> (lijn 18)</text>
</g>
<!-- 2101 -->
<g id="node15" class="node">
<title>2101</title>
<ellipse fill="#d3d3d3" stroke="#c0c0c0" cx="381.2558" cy="-313.4608" rx=".5" ry=".5"/>
</g>
<!-- 1805&#45;&gt;2101 -->
<g id="edge14" class="edge">
<title>1805&#45;&gt;2101</title>
<path fill="none" stroke="#c0c0c0" d="M449.3848,-313.4608C438.6504,-313.4608 408.2258,-313.4608 391.9075,-313.4608"/>
<polygon fill="#c0c0c0" stroke="#c0c0c0" points="391.8567,-309.9609 381.8566,-313.4608 391.8566,-316.9609 391.8567,-309.9609"/>
<text text-anchor="middle" x="378.6941" y="-340.4608" font-family="Arial" font-size="10.00" fill="#000000">Kostverlorenstraat </text>
<text text-anchor="middle" x="378.6941" y="-328.4608" font-family="Arial" font-size="10.00" fill="#000000"> Van Hallstraat </text>
<text text-anchor="middle" x="378.6941" y="-316.4608" font-family="Arial" font-size="10.00" fill="#000000"> (lijn 21)</text>
</g>
<!-- 1807 -->
<g id="node8" class="node">
<title>1807</title>
<ellipse fill="#d3d3d3" stroke="#c0c0c0" cx="381.2558" cy="-241.4608" rx="3.5" ry="3.5"/>
</g>
<!-- 1806&#45;&gt;1807 -->
<g id="edge7" class="edge">
<title>1806&#45;&gt;1807</title>
<path fill="none" stroke="#c0c0c0" d="M449.3848,-241.4608C439.3295,-241.4608 411.9966,-241.4608 395.1655,-241.4608"/>
<polygon fill="#c0c0c0" stroke="#c0c0c0" points="394.8018,-237.9609 384.8018,-241.4608 394.8017,-244.9609 394.8018,-237.9609"/>
<text text-anchor="middle" x="356.4231" y="-256.4608" font-family="Arial" font-size="10.00" fill="#000000">Tweede Hugo de Grootstraat </text>
<text text-anchor="middle" x="356.4231" y="-244.4608" font-family="Arial" font-size="10.00" fill="#000000"> Jan van Galenstraat</text>
</g>
<!-- 1808 -->
<g id="node9" class="node">
<title>1808</title>
<ellipse fill="#d3d3d3" stroke="#c0c0c0" cx="381.2558" cy="-169.4608" rx="3.5" ry="3.5"/>
</g>
<!-- 1807&#45;&gt;1808 -->
<g id="edge8" class="edge">
<title>1807&#45;&gt;1808</title>
<path fill="none" stroke="#c0c0c0" d="M381.2558,-237.5898C381.2558,-227.5345 381.2558,-200.2016 381.2558,-183.3704"/>
<polygon fill="#c0c0c0" stroke="#c0c0c0" points="384.7559,-183.0067 381.2558,-173.0067 377.7559,-183.0067 384.7559,-183.0067"/>
<text text-anchor="middle" x="329.5868" y="-213.4801" font-family="Arial" font-size="10.00" fill="#000000">Admiraal de Ruijterweg</text>
</g>
<!-- 1809 -->
<g id="node10" class="node">
<title>1809</title>
<ellipse fill="#d3d3d3" stroke="#c0c0c0" cx="309.2558" cy="-169.4608" rx="3.5" ry="3.5"/>
</g>
<!-- 1808&#45;&gt;1809 -->
<g id="edge9" class="edge">
<title>1808&#45;&gt;1809</title>
<path fill="none" stroke="#c0c0c0" d="M377.3848,-169.4608C367.3295,-169.4608 339.9966,-169.4608 323.1655,-169.4608"/>
<polygon fill="#c0c0c0" stroke="#c0c0c0" points="322.8018,-165.9609 312.8018,-169.4608 322.8017,-172.9609 322.8018,-165.9609"/>
<text text-anchor="middle" x="308.5971" y="-172.4608" font-family="Arial" font-size="10.00" fill="#000000">Jan Evertsenstraat</text>
</g>
<!-- 1810 -->
<g id="node11" class="node">
<title>1810</title>
<ellipse fill="#d3d3d3" stroke="#c0c0c0" cx="309.2558" cy="-97.4608" rx="3.5" ry="3.5"/>
</g>
<!-- 1809&#45;&gt;1810 -->
<g id="edge10" class="edge">
<title>1809&#45;&gt;1810</title>
<path fill="none" stroke="#c0c0c0" d="M309.2558,-165.5897C309.2558,-155.5345 309.2558,-128.2016 309.2558,-111.3704"/>
<polygon fill="#c0c0c0" stroke="#c0c0c0" points="312.7559,-111.0067 309.2558,-101.0067 305.7559,-111.0067 312.7559,-111.0067"/>
<text text-anchor="middle" x="271.4678" y="-141.4801" font-family="Arial" font-size="10.00" fill="#000000">Jan Tooropstraat</text>
</g>
<!-- 1811 -->
<g id="node12" class="node">
<title>1811</title>
<ellipse fill="#d3d3d3" stroke="#c0c0c0" cx="237.2558" cy="-97.4608" rx="3.5" ry="3.5"/>
</g>
<!-- 1810&#45;&gt;1811 -->
<g id="edge11" class="edge">
<title>1810&#45;&gt;1811</title>
<path fill="none" stroke="#c0c0c0" d="M305.3848,-97.4608C295.3295,-97.4608 267.9966,-97.4608 251.1655,-97.4608"/>
<polygon fill="#c0c0c0" stroke="#c0c0c0" points="250.8018,-93.9609 240.8017,-97.4608 250.8017,-100.9609 250.8018,-93.9609"/>
<text text-anchor="middle" x="239.6586" y="-112.4608" font-family="Arial" font-size="10.00" fill="#000000">Postjesweg </text>
<text text-anchor="middle" x="239.6586" y="-100.4608" font-family="Arial" font-size="10.00" fill="#000000"> Robert Fruinlaan</text>
</g>
<!-- 1812 -->
<g id="node13" class="node">
<title>1812</title>
<ellipse fill="#d3d3d3" stroke="#c0c0c0" cx="237.2558" cy="-25.4608" rx="3.5" ry="3.5"/>
</g>
<!-- 1811&#45;&gt;1812 -->
<g id="edge12" class="edge">
<title>1811&#45;&gt;1812</title>
<path fill="none" stroke="#c0c0c0" d="M237.2558,-93.5897C237.2558,-83.5345 237.2558,-56.2016 237.2558,-39.3704"/>
<polygon fill="#c0c0c0" stroke="#c0c0c0" points="240.7559,-39.0067 237.2558,-29.0067 233.7559,-39.0068 240.7559,-39.0067"/>
<text text-anchor="middle" x="193.3538" y="-69.4801" font-family="Arial" font-size="10.00" fill="#000000">Johan Huizingalaan</text>
</g>
<!-- 1813 -->
<g id="node14" class="node">
<title>1813</title>
<ellipse fill="#d3d3d3" stroke="#c0c0c0" cx="165.2558" cy="-25.4608" rx="25.4216" ry="25.4216"/>
<text text-anchor="middle" x="165.2558" y="-22.4608" font-family="Arial" font-size="10.00" fill="#000000">SLO</text>
</g>
<!-- 1812&#45;&gt;1813 -->
<g id="edge13" class="edge">
<title>1812&#45;&gt;1813</title>
<path fill="none" stroke="#c0c0c0" d="M233.3848,-25.4608C227.1157,-25.4608 214.1309,-25.4608 201.1623,-25.4608"/>
<polygon fill="#c0c0c0" stroke="#c0c0c0" points="200.8938,-21.9609 190.8938,-25.4608 200.8937,-28.9609 200.8938,-21.9609"/>
<text text-anchor="middle" x="243.6695" y="-28.4608" font-family="Arial" font-size="10.00" fill="#000000">Louwesweg</text>
</g>
<!-- 2102 -->
<g id="node16" class="node">
<title>2102</title>
<ellipse fill="#d3d3d3" stroke="#c0c0c0" cx="381.2558" cy="-385.4608" rx="3.5" ry="3.5"/>
</g>
<!-- 2101&#45;&gt;2102 -->
<g id="edge15" class="edge">
<title>2101&#45;&gt;2102</title>
<path fill="none" stroke="#c0c0c0" d="M381.2558,-314.2694C381.2558,-319.795 381.2558,-352.34 381.2558,-371.4594"/>
<polygon fill="#c0c0c0" stroke="#c0c0c0" points="377.7559,-371.6659 381.2558,-381.6659 384.7559,-371.6659 377.7559,-371.6659"/>
</g>
<!-- 2103 -->
<g id="node17" class="node">
<title>2103</title>
<ellipse fill="#d3d3d3" stroke="#c0c0c0" cx="309.2558" cy="-385.4608" rx="3.5" ry="3.5"/>
</g>
<!-- 2102&#45;&gt;2103 -->
<g id="edge16" class="edge">
<title>2102&#45;&gt;2103</title>
<path fill="none" stroke="#c0c0c0" d="M377.3848,-385.4608C367.3295,-385.4608 339.9966,-385.4608 323.1655,-385.4608"/>
<polygon fill="#c0c0c0" stroke="#c0c0c0" points="322.8018,-381.9609 312.8018,-385.4608 322.8017,-388.9609 322.8018,-381.9609"/>
<text text-anchor="middle" x="313.6116" y="-388.4608" font-family="Arial" font-size="10.00" fill="#000000">Haarlemmerweg</text>
</g>
<!-- 2104 -->
<g id="node18" class="node">
<title>2104</title>
<ellipse fill="#d3d3d3" stroke="#c0c0c0" cx="309.2558" cy="-313.4608" rx=".5" ry=".5"/>
</g>
<!-- 2103&#45;&gt;2104 -->
<g id="edge17" class="edge">
<title>2103&#45;&gt;2104</title>
<path fill="none" stroke="#c0c0c0" d="M309.2558,-381.5897C309.2558,-370.8553 309.2558,-340.4307 309.2558,-324.1125"/>
<polygon fill="#c0c0c0" stroke="#c0c0c0" points="312.7559,-324.0616 309.2558,-314.0616 305.7559,-324.0616 312.7559,-324.0616"/>
<text text-anchor="middle" x="247.2933" y="-367.8511" font-family="Arial" font-size="10.00" fill="#000000">Bos en Lommerweg </text>
<text text-anchor="middle" x="247.2933" y="-355.8511" font-family="Arial" font-size="10.00" fill="#000000"> Burgemeester de Vlugtlaan</text>
</g>
<!-- 2105 -->
<g id="node19" class="node">
<title>2105</title>
<ellipse fill="#d3d3d3" stroke="#c0c0c0" cx="165.2558" cy="-313.4608" rx=".5" ry=".5"/>
</g>
<!-- 2104&#45;&gt;2105 -->
<g id="edge18" class="edge">
<title>2104&#45;&gt;2105</title>
<path fill="none" stroke="#c0c0c0" d="M308.6138,-313.4608C300.0662,-313.4608 208.5279,-313.4608 176.3578,-313.4608"/>
<polygon fill="#c0c0c0" stroke="#c0c0c0" points="176.106,-309.9609 166.106,-313.4608 176.106,-316.9609 176.106,-309.9609"/>
</g>
<!-- 2106 -->
<g id="node20" class="node">
<title>2106</title>
<ellipse fill="#d3d3d3" stroke="#c0c0c0" cx="165.2558" cy="-349.4608" rx="3.5" ry="3.5"/>
</g>
<!-- 2105&#45;&gt;2106 -->
<g id="edge19" class="edge">
<title>2105&#45;&gt;2106</title>
<path fill="none" stroke="#c0c0c0" d="M165.2558,-314.3507C165.2558,-317.3282 165.2558,-327.236 165.2558,-335.7705"/>
<polygon fill="#c0c0c0" stroke="#c0c0c0" points="161.7559,-335.7773 165.2558,-345.7773 168.7559,-335.7774 161.7559,-335.7773"/>
</g>
<!-- 2107 -->
<g id="node21" class="node">
<title>2107</title>
<ellipse fill="#d3d3d3" stroke="#c0c0c0" cx="93.2558" cy="-349.4608" rx=".5" ry=".5"/>
</g>
<!-- 2106&#45;&gt;2107 -->
<g id="edge20" class="edge">
<title>2106&#45;&gt;2107</title>
<path fill="none" stroke="#c0c0c0" d="M161.3848,-349.4608C150.6504,-349.4608 120.2258,-349.4608 103.9075,-349.4608"/>
<polygon fill="#c0c0c0" stroke="#c0c0c0" points="103.8567,-345.9609 93.8566,-349.4608 103.8566,-352.9609 103.8567,-345.9609"/>
<text text-anchor="middle" x="67.9071" y="-364.4608" font-family="Arial" font-size="10.00" fill="#000000">Ruys de Beerenbrouckstraat </text>
<text text-anchor="middle" x="67.9071" y="-352.4608" font-family="Arial" font-size="10.00" fill="#000000"> Antony Moddermanstraat</text>
</g>
<!-- 2108 -->
<g id="node22" class="node">
<title>2108</title>
<ellipse fill="#d3d3d3" stroke="#c0c0c0" cx="93.2558" cy="-205.4608" rx="3.5" ry="3.5"/>
</g>
<!-- 2107&#45;&gt;2108 -->
<g id="edge21" class="edge">
<title>2107&#45;&gt;2108</title>
<path fill="none" stroke="#c0c0c0" d="M93.2558,-348.8188C93.2558,-340.5069 93.2558,-253.7183 93.2558,-219.3566"/>
<polygon fill="#c0c0c0" stroke="#c0c0c0" points="96.7559,-219.027 93.2558,-209.0271 89.7559,-219.0271 96.7559,-219.027"/>
<text text-anchor="middle" x="61.0268" y="-287.0877" font-family="Arial" font-size="10.00" fill="#000000">Aalbersestraat</text>
</g>
<!-- 2109 -->
<g id="node23" class="node">
<title>2109</title>
<ellipse fill="#d3d3d3" stroke="#c0c0c0" cx="165.2558" cy="-205.4608" rx="26.7699" ry="26.7699"/>
<text text-anchor="middle" x="165.2558" y="-202.4608" font-family="Arial" font-size="10.00" fill="#000000">GEU</text>
</g>
<!-- 2108&#45;&gt;2109 -->
<g id="edge22" class="edge">
<title>2108&#45;&gt;2109</title>
<path fill="none" stroke="#c0c0c0" d="M97.1268,-205.4608C103.2576,-205.4608 115.8111,-205.4608 128.4912,-205.4608"/>
<polygon fill="#c0c0c0" stroke="#c0c0c0" points="128.5672,-208.9609 138.5672,-205.4608 128.5671,-201.9609 128.5672,-208.9609"/>
<text text-anchor="middle" x="56.4045" y="-208.4608" font-family="Arial" font-size="10.00" fill="#000000">De Savornin Lohmanlaan</text>
</g>
<!-- 4302 -->
<g id="node25" class="node">
<title>4302</title>
<ellipse fill="#d3d3d3" stroke="#c0c0c0" cx="885.2558" cy="-529.4608" rx="3.5" ry="3.5"/>
</g>
<!-- 4301&#45;&gt;4302 -->
<g id="edge24" class="edge">
<title>4301&#45;&gt;4302</title>
<path fill="none" stroke="#c0c0c0" d="M885.2558,-461.3318C885.2558,-471.3871 885.2558,-498.72 885.2558,-515.5511"/>
<polygon fill="#c0c0c0" stroke="#c0c0c0" points="881.7559,-515.9148 885.2558,-525.9148 888.7559,-515.9149 881.7559,-515.9148"/>
<text text-anchor="middle" x="843.0188" y="-515.4415" font-family="Arial" font-size="10.00" fill="#000000">Vemenplein </text>
<text text-anchor="middle" x="843.0188" y="-503.4415" font-family="Arial" font-size="10.00" fill="#000000"> Jan Schaeferbrug </text>
<text text-anchor="middle" x="843.0188" y="-491.4415" font-family="Arial" font-size="10.00" fill="#000000"> Tosaristraat</text>
</g>
<!-- 4303 -->
<g id="node26" class="node">
<title>4303</title>
<ellipse fill="#d3d3d3" stroke="#c0c0c0" cx="1029.2558" cy="-529.4608" rx=".5" ry=".5"/>
</g>
<!-- 4302&#45;&gt;4303 -->
<g id="edge25" class="edge">
<title>4302&#45;&gt;4303</title>
<path fill="none" stroke="#c0c0c0" d="M888.8154,-529.4608C906.8135,-529.4608 988.1131,-529.4608 1018.1009,-529.4608"/>
<polygon fill="#c0c0c0" stroke="#c0c0c0" points="1018.4983,-532.9609 1028.4983,-529.4608 1018.4983,-525.9609 1018.4983,-532.9609"/>
<text text-anchor="middle" x="923.7282" y="-532.4608" font-family="Arial" font-size="10.00" fill="#000000">Sumatrakade</text>
</g>
<!-- 4304 -->
<g id="node27" class="node">
<title>4304</title>
<ellipse fill="#d3d3d3" stroke="#c0c0c0" cx="1029.2558" cy="-457.4608" rx=".5" ry=".5"/>
</g>
<!-- 4303&#45;&gt;4304 -->
<g id="edge26" class="edge">
<title>4303&#45;&gt;4304</title>
<path fill="none" stroke="#c0c0c0" d="M1029.2558,-528.6522C1029.2558,-522.8007 1029.2558,-486.6488 1029.2558,-468.2277"/>
<polygon fill="#c0c0c0" stroke="#c0c0c0" points="1032.7559,-468.1734 1029.2558,-458.1734 1025.7559,-468.1734 1032.7559,-468.1734"/>
<text text-anchor="middle" x="991.7478" y="-513.44" font-family="Arial" font-size="10.00" fill="#000000">Azartplein </text>
<text text-anchor="middle" x="991.7478" y="-501.44" font-family="Arial" font-size="10.00" fill="#000000"> Verbindingsdam</text>
</g>
<!-- 4305 -->
<g id="node28" class="node">
<title>4305</title>
<ellipse fill="#d3d3d3" stroke="#c0c0c0" cx="957.2558" cy="-457.4608" rx="3.5" ry="3.5"/>
</g>
<!-- 4304&#45;&gt;4305 -->
<g id="edge27" class="edge">
<title>4304&#45;&gt;4305</title>
<path fill="none" stroke="#c0c0c0" d="M1028.4472,-457.4608C1022.9216,-457.4608 990.3766,-457.4608 971.2572,-457.4608"/>
<polygon fill="#c0c0c0" stroke="#c0c0c0" points="971.0507,-453.9609 961.0507,-457.4608 971.0507,-460.9609 971.0507,-453.9609"/>
<text text-anchor="middle" x="1048.1977" y="-460.4608" font-family="Arial" font-size="10.00" fill="#000000">J.F. Van Hengelstraat</text>
</g>
<!-- 4306 -->
<g id="node29" class="node">
<title>4306</title>
<ellipse fill="#d3d3d3" stroke="#c0c0c0" cx="957.2558" cy="-385.4608" rx="3.5" ry="3.5"/>
</g>
<!-- 4305&#45;&gt;4306 -->
<g id="edge28" class="edge">
<title>4305&#45;&gt;4306</title>
<path fill="none" stroke="#c0c0c0" d="M957.2558,-453.5898C957.2558,-443.5345 957.2558,-416.2016 957.2558,-399.3704"/>
<polygon fill="#c0c0c0" stroke="#c0c0c0" points="960.7559,-399.0067 957.2558,-389.0067 953.7559,-399.0067 960.7559,-399.0067"/>
<text text-anchor="middle" x="1011.1563" y="-441.4801" font-family="Arial" font-size="10.00" fill="#000000">Oostelijke Handelskade </text>
<text text-anchor="middle" x="1011.1563" y="-429.4801" font-family="Arial" font-size="10.00" fill="#000000"> C. van Eesterenlaan</text>
</g>
<!-- 4307 -->
<g id="node30" class="node">
<title>4307</title>
<ellipse fill="#d3d3d3" stroke="#c0c0c0" cx="1029.2558" cy="-385.4608" rx="3.5" ry="3.5"/>
</g>
<!-- 4306&#45;&gt;4307 -->
<g id="edge29" class="edge">
<title>4306&#45;&gt;4307</title>
<path fill="none" stroke="#c0c0c0" d="M961.1268,-385.4608C971.1821,-385.4608 998.515,-385.4608 1015.3462,-385.4608"/>
<polygon fill="#c0c0c0" stroke="#c0c0c0" points="1015.7099,-388.9609 1025.7099,-385.4608 1015.7098,-381.9609 1015.7099,-388.9609"/>
<text text-anchor="middle" x="1001.019" y="-376.4608" font-family="Arial" font-size="10.00" fill="#000000">Borneolaan</text>
</g>
<!-- 4308 -->
<g id="node31" class="node">
<title>4308</title>
<ellipse fill="#d3d3d3" stroke="#c0c0c0" cx="1029.2558" cy="-313.4608" rx="3.5" ry="3.5"/>
</g>
<!-- 4307&#45;&gt;4308 -->
<g id="edge30" class="edge">
<title>4307&#45;&gt;4308</title>
<path fill="none" stroke="#c0c0c0" d="M1029.2558,-381.5897C1029.2558,-371.5345 1029.2558,-344.2016 1029.2558,-327.3704"/>
<polygon fill="#c0c0c0" stroke="#c0c0c0" points="1032.7559,-327.0067 1029.2558,-317.0067 1025.7559,-327.0067 1032.7559,-327.0067"/>
<text text-anchor="middle" x="1003.6908" y="-357.4801" font-family="Arial" font-size="10.00" fill="#000000">Borneolaan</text>
</g>
<!-- 4309 -->
<g id="node32" class="node">
<title>4309</title>
<ellipse fill="#d3d3d3" stroke="#c0c0c0" cx="1101.2558" cy="-313.4608" rx="3.5" ry="3.5"/>
</g>
<!-- 4308&#45;&gt;4309 -->
<g id="edge31" class="edge">
<title>4308&#45;&gt;4309</title>
<path fill="none" stroke="#c0c0c0" d="M1033.1268,-313.4608C1043.1821,-313.4608 1070.515,-313.4608 1087.3462,-313.4608"/>
<polygon fill="#c0c0c0" stroke="#c0c0c0" points="1087.7099,-316.9609 1097.7099,-313.4608 1087.7098,-309.9609 1087.7099,-316.9609"/>
<text text-anchor="middle" x="1019.6695" y="-316.4608" font-family="Arial" font-size="10.00" fill="#000000">Feike de Boerlaan</text>
</g>
<!-- 4310 -->
<g id="node33" class="node">
<title>4310</title>
<ellipse fill="#d3d3d3" stroke="#c0c0c0" cx="1101.2558" cy="-385.4608" rx="3.5" ry="3.5"/>
</g>
<!-- 4309&#45;&gt;4310 -->
<g id="edge32" class="edge">
<title>4309&#45;&gt;4310</title>
<path fill="none" stroke="#c0c0c0" d="M1101.2558,-317.3318C1101.2558,-327.3871 1101.2558,-354.72 1101.2558,-371.5511"/>
<polygon fill="#c0c0c0" stroke="#c0c0c0" points="1097.7559,-371.9148 1101.2558,-381.9148 1104.7559,-371.9149 1097.7559,-371.9148"/>
<text text-anchor="middle" x="1056.5293" y="-335.4415" font-family="Arial" font-size="10.00" fill="#000000">R.J.H. Fortuynstraat</text>
</g>
<!-- 4311 -->
<g id="node34" class="node">
<title>4311</title>
<ellipse fill="#d3d3d3" stroke="#c0c0c0" cx="1173.2558" cy="-385.4608" rx="26.7699" ry="26.7699"/>
<text text-anchor="middle" x="1173.2558" y="-382.4608" font-family="Arial" font-size="10.00" fill="#000000">BOR</text>
</g>
<!-- 4310&#45;&gt;4311 -->
<g id="edge33" class="edge">
<title>4310&#45;&gt;4311</title>
<path fill="none" stroke="#c0c0c0" d="M1105.1268,-385.4608C1111.2576,-385.4608 1123.8111,-385.4608 1136.4912,-385.4608"/>
<polygon fill="#c0c0c0" stroke="#c0c0c0" points="1136.5672,-388.9609 1146.5672,-385.4608 1136.5671,-381.9609 1136.5672,-388.9609"/>
<text text-anchor="middle" x="1088.2995" y="-388.4608" font-family="Arial" font-size="10.00" fill="#000000">Stuurmankade</text>
</g>
<!-- 4802 -->
<g id="node36" class="node">
<title>4802</title>
<ellipse fill="#d3d3d3" stroke="#c0c0c0" cx="525.2558" cy="-529.4608" rx=".5" ry=".5"/>
</g>
<!-- 4801&#45;&gt;4802 -->
<g id="edge35" class="edge">
<title>4801&#45;&gt;4802</title>
<path fill="none" stroke="#c0c0c0" d="M525.2558,-461.3318C525.2558,-472.0662 525.2558,-502.4908 525.2558,-518.8091"/>
<polygon fill="#c0c0c0" stroke="#c0c0c0" points="521.7559,-518.8599 525.2558,-528.86 528.7559,-518.86 521.7559,-518.8599"/>
<text text-anchor="middle" x="491.3658" y="-493.0705" font-family="Arial" font-size="10.00" fill="#000000">Westerdoksdijk</text>
</g>
<!-- 4803 -->
<g id="node37" class="node">
<title>4803</title>
<ellipse fill="#d3d3d3" stroke="#c0c0c0" cx="453.2558" cy="-529.4608" rx="3.5" ry="3.5"/>
</g>
<!-- 4802&#45;&gt;4803 -->
<g id="edge36" class="edge">
<title>4802&#45;&gt;4803</title>
<path fill="none" stroke="#c0c0c0" d="M524.4472,-529.4608C518.9216,-529.4608 486.3766,-529.4608 467.2572,-529.4608"/>
<polygon fill="#c0c0c0" stroke="#c0c0c0" points="467.0507,-525.9609 457.0507,-529.4608 467.0507,-532.9609 467.0507,-525.9609"/>
<text text-anchor="middle" x="539.1892" y="-568.4608" font-family="Arial" font-size="10.00" fill="#000000">Barentszplein </text>
<text text-anchor="middle" x="539.1892" y="-556.4608" font-family="Arial" font-size="10.00" fill="#000000"> Van Diemenstraat </text>
<text text-anchor="middle" x="539.1892" y="-544.4608" font-family="Arial" font-size="10.00" fill="#000000"> Tasmanstraat </text>
<text text-anchor="middle" x="539.1892" y="-532.4608" font-family="Arial" font-size="10.00" fill="#000000"> Spaarndammerdijk</text>
</g>
<!-- 4804 -->
<g id="node38" class="node">
<title>4804</title>
<ellipse fill="#d3d3d3" stroke="#c0c0c0" cx="453.2558" cy="-601.4608" rx="3.5" ry="3.5"/>
</g>
<!-- 4803&#45;&gt;4804 -->
<g id="edge37" class="edge">
<title>4803&#45;&gt;4804</title>
<path fill="none" stroke="#c0c0c0" d="M453.2558,-533.3318C453.2558,-543.3871 453.2558,-570.72 453.2558,-587.5511"/>
<polygon fill="#c0c0c0" stroke="#c0c0c0" points="449.7559,-587.9148 453.2558,-597.9148 456.7559,-587.9149 449.7559,-587.9148"/>
<text text-anchor="middle" x="419.9113" y="-563.4415" font-family="Arial" font-size="10.00" fill="#000000">Houthavenweg</text>
</g>
<!-- 4805 -->
<g id="node39" class="node">
<title>4805</title>
<ellipse fill="#d3d3d3" stroke="#c0c0c0" cx="525.2558" cy="-601.4608" rx="3.5" ry="3.5"/>
</g>
<!-- 4804&#45;&gt;4805 -->
<g id="edge38" class="edge">
<title>4804&#45;&gt;4805</title>
<path fill="none" stroke="#c0c0c0" d="M457.1268,-601.4608C467.1821,-601.4608 494.515,-601.4608 511.3462,-601.4608"/>
<polygon fill="#c0c0c0" stroke="#c0c0c0" points="511.7099,-604.9609 521.7099,-601.4608 511.7099,-597.9609 511.7099,-604.9609"/>
<text text-anchor="middle" x="450.3375" y="-604.4608" font-family="Arial" font-size="10.00" fill="#000000">Haparandaweg</text>
</g>
<!-- 4806 -->
<g id="node40" class="node">
<title>4806</title>
<ellipse fill="#d3d3d3" stroke="#c0c0c0" cx="525.2558" cy="-673.4608" rx="3.5" ry="3.5"/>
</g>
<!-- 4805&#45;&gt;4806 -->
<g id="edge39" class="edge">
<title>4805&#45;&gt;4806</title>
<path fill="none" stroke="#c0c0c0" d="M525.2558,-605.3318C525.2558,-615.3871 525.2558,-642.72 525.2558,-659.5511"/>
<polygon fill="#c0c0c0" stroke="#c0c0c0" points="521.7559,-659.9148 525.2558,-669.9149 528.7559,-659.9149 521.7559,-659.9148"/>
<text text-anchor="middle" x="494.4158" y="-635.4415" font-family="Arial" font-size="10.00" fill="#000000">Danzigerkade</text>
</g>
<!-- 4807 -->
<g id="node41" class="node">
<title>4807</title>
<ellipse fill="#d3d3d3" stroke="#c0c0c0" cx="453.2558" cy="-673.4608" rx="27.047" ry="27.047"/>
<text text-anchor="middle" x="453.2558" y="-670.4608" font-family="Arial" font-size="10.00" fill="#000000">HOU</text>
</g>
<!-- 4806&#45;&gt;4807 -->
<g id="edge40" class="edge">
<title>4806&#45;&gt;4807</title>
<path fill="none" stroke="#c0c0c0" d="M521.3848,-673.4608C515.3001,-673.4608 502.8889,-673.4608 490.3065,-673.4608"/>
<polygon fill="#c0c0c0" stroke="#c0c0c0" points="490.2965,-669.9609 480.2964,-673.4608 490.2964,-676.9609 490.2965,-669.9609"/>
<text text-anchor="middle" x="547.7986" y="-688.4608" font-family="Arial" font-size="10.00" fill="#000000">Minervahavenweg </text>
<text text-anchor="middle" x="547.7986" y="-676.4608" font-family="Arial" font-size="10.00" fill="#000000"> Koivistokade</text>
</g>
</g>
</svg>

