<?xml version="1.0" encoding="UTF-8" standalone="no"?>
<!DOCTYPE svg PUBLIC "-//W3C//DTD SVG 1.1//EN"
 "http://www.w3.org/Graphics/SVG/1.1/DTD/svg11.dtd">
<!-- Generated by graphviz version 2.40.1 (20161225.0304)
 -->
<!-- Title: G Pages: 1 -->
<svg width="565pt" height="335pt"
 viewBox="0.00 0.00 564.87 334.63" xmlns="http://www.w3.org/2000/svg" xmlns:xlink="http://www.w3.org/1999/xlink">
<g id="graph0" class="graph" transform="scale(1 1) rotate(0) translate(4 330.6275)">
<title>G</title>
<polygon fill="#ffffff" stroke="transparent" points="-4,4 -4,-330.6275 560.8732,-330.6275 560.8732,4 -4,4"/>
<!-- 4300 -->
<g id="node1" class="node">
<title>4300</title>
<ellipse fill="#d3d3d3" stroke="#c0c0c0" cx="26.2386" cy="-242.6275" rx="26.4794" ry="26.4794"/>
<text text-anchor="middle" x="26.2386" y="-239.6275" font-family="Arial" font-size="10.00" fill="#000000">CEN</text>
</g>
<!-- 4301 -->
<g id="node2" class="node">
<title>4301</title>
<ellipse fill="#d3d3d3" stroke="#c0c0c0" cx="242.2386" cy="-242.6275" rx="3.5" ry="3.5"/>
</g>
<!-- 4300&#45;&gt;4301 -->
<g id="edge1" class="edge">
<title>4300&#45;&gt;4301</title>
<path fill="none" stroke="#c0c0c0" d="M52.7245,-242.6275C99.0775,-242.6275 193.3256,-242.6275 228.5498,-242.6275"/>
<polygon fill="#c0c0c0" stroke="#c0c0c0" points="228.6586,-246.1276 238.6586,-242.6275 228.6586,-239.1276 228.6586,-246.1276"/>
<text text-anchor="middle" x="105.3496" y="-269.6275" font-family="Arial" font-size="10.00" fill="#000000">De Ruijterkade </text>
<text text-anchor="middle" x="105.3496" y="-257.6275" font-family="Arial" font-size="10.00" fill="#000000"> Piet Heinkade &#160;</text>
<text text-anchor="middle" x="105.3496" y="-245.6275" font-family="Arial" font-size="10.00" fill="#000000"> (lijn 43)</text>
</g>
<!-- 4201 -->
<g id="node13" class="node">
<title>4201</title>
<ellipse fill="#d3d3d3" stroke="#c0c0c0" cx="530.2386" cy="-26.6275" rx="26.7557" ry="26.7557"/>
<text text-anchor="middle" x="530.2386" y="-23.6275" font-family="Arial" font-size="10.00" fill="#000000">CRU</text>
</g>
<!-- 4300&#45;&gt;4201 -->
<g id="edge12" class="edge">
<title>4300&#45;&gt;4201</title>
<path fill="none" stroke="#c0c0c0" d="M50.5476,-232.2094C132.7794,-196.9672 400.7074,-82.1409 496.1177,-41.2508"/>
<polygon fill="#c0c0c0" stroke="#c0c0c0" points="497.7704,-44.3504 505.5831,-37.1942 495.0129,-37.9164 497.7704,-44.3504"/>
<text text-anchor="middle" x="255.5576" y="-151.7301" font-family="Arial" font-size="10.00" fill="#000000">eee</text>
<text text-anchor="middle" x="255.5576" y="-139.7301" font-family="Arial" font-size="10.00" fill="#000000"> (lijn 42)</text>
</g>
<!-- 4302 -->
<g id="node3" class="node">
<title>4302</title>
<ellipse fill="#d3d3d3" stroke="#c0c0c0" cx="242.2386" cy="-314.6275" rx="3.5" ry="3.5"/>
</g>
<!-- 4301&#45;&gt;4302 -->
<g id="edge2" class="edge">
<title>4301&#45;&gt;4302</title>
<path fill="none" stroke="#c0c0c0" d="M242.2386,-246.4986C242.2386,-256.5538 242.2386,-283.8867 242.2386,-300.7179"/>
<polygon fill="#c0c0c0" stroke="#c0c0c0" points="238.7387,-301.0816 242.2386,-311.0816 245.7387,-301.0816 238.7387,-301.0816"/>
<text text-anchor="middle" x="200.0016" y="-300.6082" font-family="Arial" font-size="10.00" fill="#000000">Vemenplein </text>
<text text-anchor="middle" x="200.0016" y="-288.6082" font-family="Arial" font-size="10.00" fill="#000000"> Jan Schaeferbrug </text>
<text text-anchor="middle" x="200.0016" y="-276.6082" font-family="Arial" font-size="10.00" fill="#000000"> Tosaristraat</text>
</g>
<!-- 4303 -->
<g id="node4" class="node">
<title>4303</title>
<ellipse fill="#d3d3d3" stroke="#c0c0c0" cx="386.2386" cy="-314.6275" rx=".5" ry=".5"/>
</g>
<!-- 4302&#45;&gt;4303 -->
<g id="edge3" class="edge">
<title>4302&#45;&gt;4303</title>
<path fill="none" stroke="#c0c0c0" d="M245.7982,-314.6275C263.7963,-314.6275 345.0959,-314.6275 375.0837,-314.6275"/>
<polygon fill="#c0c0c0" stroke="#c0c0c0" points="375.4811,-318.1276 385.4811,-314.6275 375.4811,-311.1276 375.4811,-318.1276"/>
<text text-anchor="middle" x="280.711" y="-317.6275" font-family="Arial" font-size="10.00" fill="#000000">Sumatrakade</text>
</g>
<!-- 4304 -->
<g id="node5" class="node">
<title>4304</title>
<ellipse fill="#d3d3d3" stroke="#c0c0c0" cx="386.2386" cy="-242.6275" rx=".5" ry=".5"/>
</g>
<!-- 4303&#45;&gt;4304 -->
<g id="edge4" class="edge">
<title>4303&#45;&gt;4304</title>
<path fill="none" stroke="#c0c0c0" d="M386.2386,-313.8189C386.2386,-307.9674 386.2386,-271.8155 386.2386,-253.3945"/>
<polygon fill="#c0c0c0" stroke="#c0c0c0" points="389.7387,-253.3401 386.2386,-243.3401 382.7387,-253.3402 389.7387,-253.3401"/>
<text text-anchor="middle" x="348.7306" y="-298.6067" font-family="Arial" font-size="10.00" fill="#000000">Azartplein </text>
<text text-anchor="middle" x="348.7306" y="-286.6067" font-family="Arial" font-size="10.00" fill="#000000"> Verbindingsdam</text>
</g>
<!-- 4305 -->
<g id="node6" class="node">
<title>4305</title>
<ellipse fill="#d3d3d3" stroke="#c0c0c0" cx="314.2386" cy="-242.6275" rx="3.5" ry="3.5"/>
</g>
<!-- 4304&#45;&gt;4305 -->
<g id="edge5" class="edge">
<title>4304&#45;&gt;4305</title>
<path fill="none" stroke="#c0c0c0" d="M385.43,-242.6275C379.9044,-242.6275 347.3594,-242.6275 328.24,-242.6275"/>
<polygon fill="#c0c0c0" stroke="#c0c0c0" points="328.0335,-239.1276 318.0335,-242.6275 328.0335,-246.1276 328.0335,-239.1276"/>
<text text-anchor="middle" x="405.1805" y="-233.6275" font-family="Arial" font-size="10.00" fill="#000000">J.F. Van Hengelstraat</text>
</g>
<!-- 4306 -->
<g id="node7" class="node">
<title>4306</title>
<ellipse fill="#d3d3d3" stroke="#c0c0c0" cx="314.2386" cy="-170.6275" rx="3.5" ry="3.5"/>
</g>
<!-- 4305&#45;&gt;4306 -->
<g id="edge6" class="edge">
<title>4305&#45;&gt;4306</title>
<path fill="none" stroke="#c0c0c0" d="M314.2386,-238.7565C314.2386,-228.7012 314.2386,-201.3683 314.2386,-184.5372"/>
<polygon fill="#c0c0c0" stroke="#c0c0c0" points="317.7387,-184.1734 314.2386,-174.1735 310.7387,-184.1735 317.7387,-184.1734"/>
<text text-anchor="middle" x="268.9471" y="-214.6468" font-family="Arial" font-size="10.00" fill="#000000">C. van Eesterenlaan</text>
</g>
<!-- 4307 -->
<g id="node8" class="node">
<title>4307</title>
<ellipse fill="#d3d3d3" stroke="#c0c0c0" cx="386.2386" cy="-170.6275" rx="3.5" ry="3.5"/>
</g>
<!-- 4306&#45;&gt;4307 -->
<g id="edge7" class="edge">
<title>4306&#45;&gt;4307</title>
<path fill="none" stroke="#c0c0c0" d="M318.1096,-170.6275C328.1649,-170.6275 355.4978,-170.6275 372.329,-170.6275"/>
<polygon fill="#c0c0c0" stroke="#c0c0c0" points="372.6927,-174.1276 382.6927,-170.6275 372.6926,-167.1276 372.6927,-174.1276"/>
<text text-anchor="middle" x="345.2193" y="-161.6275" font-family="Arial" font-size="10.00" fill="#000000">Borneolaan</text>
</g>
<!-- 4308 -->
<g id="node9" class="node">
<title>4308</title>
<ellipse fill="#d3d3d3" stroke="#c0c0c0" cx="386.2386" cy="-98.6275" rx="3.5" ry="3.5"/>
</g>
<!-- 4307&#45;&gt;4308 -->
<g id="edge8" class="edge">
<title>4307&#45;&gt;4308</title>
<path fill="none" stroke="#c0c0c0" d="M386.2386,-166.7565C386.2386,-156.7012 386.2386,-129.3683 386.2386,-112.5372"/>
<polygon fill="#c0c0c0" stroke="#c0c0c0" points="389.7387,-112.1734 386.2386,-102.1735 382.7387,-112.1735 389.7387,-112.1734"/>
<text text-anchor="middle" x="360.6736" y="-142.6468" font-family="Arial" font-size="10.00" fill="#000000">Borneolaan</text>
</g>
<!-- 4309 -->
<g id="node10" class="node">
<title>4309</title>
<ellipse fill="#d3d3d3" stroke="#c0c0c0" cx="458.2386" cy="-98.6275" rx="3.5" ry="3.5"/>
</g>
<!-- 4308&#45;&gt;4309 -->
<g id="edge9" class="edge">
<title>4308&#45;&gt;4309</title>
<path fill="none" stroke="#c0c0c0" d="M390.1096,-98.6275C400.1649,-98.6275 427.4978,-98.6275 444.329,-98.6275"/>
<polygon fill="#c0c0c0" stroke="#c0c0c0" points="444.6927,-102.1276 454.6927,-98.6275 444.6926,-95.1276 444.6927,-102.1276"/>
<text text-anchor="middle" x="376.6523" y="-89.6275" font-family="Arial" font-size="10.00" fill="#000000">Feike de Boerlaan</text>
</g>
<!-- 4310 -->
<g id="node11" class="node">
<title>4310</title>
<ellipse fill="#d3d3d3" stroke="#c0c0c0" cx="458.2386" cy="-170.6275" rx="3.5" ry="3.5"/>
</g>
<!-- 4309&#45;&gt;4310 -->
<g id="edge10" class="edge">
<title>4309&#45;&gt;4310</title>
<path fill="none" stroke="#c0c0c0" d="M458.2386,-102.4986C458.2386,-112.5538 458.2386,-139.8867 458.2386,-156.7179"/>
<polygon fill="#c0c0c0" stroke="#c0c0c0" points="454.7387,-157.0816 458.2386,-167.0816 461.7387,-157.0816 454.7387,-157.0816"/>
<text text-anchor="middle" x="413.5121" y="-120.6082" font-family="Arial" font-size="10.00" fill="#000000">R.J.H. Fortuynstraat</text>
</g>
<!-- 4311 -->
<g id="node12" class="node">
<title>4311</title>
<ellipse fill="#d3d3d3" stroke="#c0c0c0" cx="530.2386" cy="-170.6275" rx="26.7699" ry="26.7699"/>
<text text-anchor="middle" x="530.2386" y="-167.6275" font-family="Arial" font-size="10.00" fill="#000000">BOR</text>
</g>
<!-- 4310&#45;&gt;4311 -->
<g id="edge11" class="edge">
<title>4310&#45;&gt;4311</title>
<path fill="none" stroke="#c0c0c0" d="M462.1096,-170.6275C468.2404,-170.6275 480.7939,-170.6275 493.474,-170.6275"/>
<polygon fill="#c0c0c0" stroke="#c0c0c0" points="493.55,-174.1276 503.55,-170.6275 493.5499,-167.1276 493.55,-174.1276"/>
<text text-anchor="middle" x="445.2823" y="-161.6275" font-family="Arial" font-size="10.00" fill="#000000">Stuurmankade</text>
</g>
</g>
</svg>

