<?xml version="1.0" encoding="UTF-8" standalone="no"?>
<!DOCTYPE svg PUBLIC "-//W3C//DTD SVG 1.1//EN"
 "http://www.w3.org/Graphics/SVG/1.1/DTD/svg11.dtd">
<!-- Generated by graphviz version 2.40.1 (20161225.0304)
 -->
<!-- Title: G Pages: 1 -->
<svg width="853pt" height="782pt"
 viewBox="0.00 0.00 852.87 782.44" xmlns="http://www.w3.org/2000/svg" xmlns:xlink="http://www.w3.org/1999/xlink">
<g id="graph0" class="graph" transform="scale(1 1) rotate(0) translate(4 778.4359)">
<title>G</title>
<polygon fill="#ffffff" stroke="transparent" points="-4,4 -4,-778.4359 848.8732,-778.4359 848.8732,4 -4,4"/>
<!-- 1800 -->
<g id="node1" class="node">
<title>1800</title>
<ellipse fill="#d3d3d3" stroke="#c0c0c0" cx="818.6346" cy="-531.4124" rx="26.4794" ry="26.4794"/>
<text text-anchor="middle" x="818.6346" y="-528.4124" font-family="Arial" font-size="10.00" fill="#000000">CEN</text>
</g>
<!-- 1801 -->
<g id="node2" class="node">
<title>1801</title>
<ellipse fill="#d3d3d3" stroke="#c0c0c0" cx="674.6346" cy="-531.4124" rx="3.5" ry="3.5"/>
</g>
<!-- 1800&#45;&gt;1801 -->
<g id="edge1" class="edge">
<title>1800&#45;&gt;1801</title>
<path fill="none" stroke="#c0c0c0" d="M792.2228,-531.4124C761.6645,-531.4124 712.4942,-531.4124 688.5863,-531.4124"/>
<polygon fill="#c0c0c0" stroke="#c0c0c0" points="688.3985,-527.9125 678.3984,-531.4124 688.3984,-534.9125 688.3985,-527.9125"/>
<text text-anchor="middle" x="757.63" y="-522.4124" font-family="Arial" font-size="10.00" fill="#000000">De Ruijterkade </text>
<text text-anchor="middle" x="757.63" y="-510.4124" font-family="Arial" font-size="10.00" fill="#000000"> (lijn 18, 21, 48)</text>
</g>
<!-- 1802 -->
<g id="node3" class="node">
<title>1802</title>
<ellipse fill="#d3d3d3" stroke="#c0c0c0" cx="674.6346" cy="-459.4124" rx="3.5" ry="3.5"/>
</g>
<!-- 1801&#45;&gt;1802 -->
<g id="edge2" class="edge">
<title>1801&#45;&gt;1802</title>
<path fill="none" stroke="#c0c0c0" d="M674.6346,-527.5414C674.6346,-517.4861 674.6346,-490.1532 674.6346,-473.322"/>
<polygon fill="#c0c0c0" stroke="#c0c0c0" points="678.1347,-472.9583 674.6346,-462.9583 671.1347,-472.9584 678.1347,-472.9583"/>
<text text-anchor="middle" x="648.5216" y="-515.4317" font-family="Arial" font-size="10.00" fill="#000000">Droogbak </text>
<text text-anchor="middle" x="648.5216" y="-503.4317" font-family="Arial" font-size="10.00" fill="#000000"> (lijn 18, 21)</text>
</g>
<!-- 4801 -->
<g id="node29" class="node">
<title>4801</title>
<ellipse fill="#d3d3d3" stroke="#c0c0c0" cx="602.6346" cy="-531.4124" rx="3.5" ry="3.5"/>
</g>
<!-- 1801&#45;&gt;4801 -->
<g id="edge28" class="edge">
<title>1801&#45;&gt;4801</title>
<path fill="none" stroke="#c0c0c0" d="M670.7636,-531.4124C660.7083,-531.4124 633.3754,-531.4124 616.5443,-531.4124"/>
<polygon fill="#c0c0c0" stroke="#c0c0c0" points="616.1806,-527.9125 606.1805,-531.4124 616.1805,-534.9125 616.1806,-527.9125"/>
<text text-anchor="middle" x="609.2059" y="-546.4124" font-family="Arial" font-size="10.00" fill="#000000">De Ruijterkade </text>
<text text-anchor="middle" x="609.2059" y="-534.4124" font-family="Arial" font-size="10.00" fill="#000000"> (lijn 48)</text>
</g>
<!-- 1803 -->
<g id="node4" class="node">
<title>1803</title>
<ellipse fill="#d3d3d3" stroke="#c0c0c0" cx="602.6346" cy="-459.4124" rx="3.5" ry="3.5"/>
</g>
<!-- 1802&#45;&gt;1803 -->
<g id="edge3" class="edge">
<title>1802&#45;&gt;1803</title>
<path fill="none" stroke="#c0c0c0" d="M670.7636,-459.4124C660.7083,-459.4124 633.3754,-459.4124 616.5443,-459.4124"/>
<polygon fill="#c0c0c0" stroke="#c0c0c0" points="616.1806,-455.9125 606.1805,-459.4124 616.1805,-462.9125 616.1806,-455.9125"/>
<text text-anchor="middle" x="587.8139" y="-486.4124" font-family="Arial" font-size="10.00" fill="#000000">Nieuwe Westerdokstraat </text>
<text text-anchor="middle" x="587.8139" y="-474.4124" font-family="Arial" font-size="10.00" fill="#000000"> Haarlemmer Houttuinen </text>
<text text-anchor="middle" x="587.8139" y="-462.4124" font-family="Arial" font-size="10.00" fill="#000000"> Tussen de Bogen</text>
</g>
<!-- 1804 -->
<g id="node5" class="node">
<title>1804</title>
<ellipse fill="#d3d3d3" stroke="#c0c0c0" cx="602.6346" cy="-387.4124" rx="3.5" ry="3.5"/>
</g>
<!-- 1803&#45;&gt;1804 -->
<g id="edge4" class="edge">
<title>1803&#45;&gt;1804</title>
<path fill="none" stroke="#c0c0c0" d="M602.6346,-455.5414C602.6346,-445.4861 602.6346,-418.1532 602.6346,-401.322"/>
<polygon fill="#c0c0c0" stroke="#c0c0c0" points="606.1347,-400.9583 602.6346,-390.9583 599.1347,-400.9584 606.1347,-400.9583"/>
<text text-anchor="middle" x="557.0791" y="-419.4317" font-family="Arial" font-size="10.00" fill="#000000">Planciusstraat </text>
<text text-anchor="middle" x="557.0791" y="-407.4317" font-family="Arial" font-size="10.00" fill="#000000"> Haarlemmerplein </text>
<text text-anchor="middle" x="557.0791" y="-395.4317" font-family="Arial" font-size="10.00" fill="#000000"> (Korte) Marnixstraat</text>
</g>
<!-- 1805 -->
<g id="node6" class="node">
<title>1805</title>
<ellipse fill="#d3d3d3" stroke="#c0c0c0" cx="530.6346" cy="-387.4124" rx="3.5" ry="3.5"/>
</g>
<!-- 1804&#45;&gt;1805 -->
<g id="edge5" class="edge">
<title>1804&#45;&gt;1805</title>
<path fill="none" stroke="#c0c0c0" d="M598.7636,-387.4124C588.7083,-387.4124 561.3754,-387.4124 544.5443,-387.4124"/>
<polygon fill="#c0c0c0" stroke="#c0c0c0" points="544.1806,-383.9125 534.1805,-387.4124 544.1805,-390.9125 544.1806,-383.9125"/>
<text text-anchor="middle" x="631.6624" y="-378.4124" font-family="Arial" font-size="10.00" fill="#000000">Marnixplein </text>
<text text-anchor="middle" x="631.6624" y="-366.4124" font-family="Arial" font-size="10.00" fill="#000000"> Frederik Hendrikplantsoen</text>
</g>
<!-- 1806 -->
<g id="node7" class="node">
<title>1806</title>
<ellipse fill="#d3d3d3" stroke="#c0c0c0" cx="530.6346" cy="-315.4124" rx="3.5" ry="3.5"/>
</g>
<!-- 1805&#45;&gt;1806 -->
<g id="edge6" class="edge">
<title>1805&#45;&gt;1806</title>
<path fill="none" stroke="#c0c0c0" d="M530.6346,-383.5414C530.6346,-373.4861 530.6346,-346.1532 530.6346,-329.322"/>
<polygon fill="#c0c0c0" stroke="#c0c0c0" points="534.1347,-328.9583 530.6346,-318.9583 527.1347,-328.9584 534.1347,-328.9583"/>
<text text-anchor="middle" x="479.7996" y="-371.4317" font-family="Arial" font-size="10.00" fill="#000000">Frederik Hendrikstraat </text>
<text text-anchor="middle" x="479.7996" y="-359.4317" font-family="Arial" font-size="10.00" fill="#000000"> (lijn 18)</text>
</g>
<!-- 2101 -->
<g id="node18" class="node">
<title>2101</title>
<ellipse fill="#d3d3d3" stroke="#c0c0c0" cx="458.6346" cy="-387.4124" rx=".5" ry=".5"/>
</g>
<!-- 1805&#45;&gt;2101 -->
<g id="edge17" class="edge">
<title>1805&#45;&gt;2101</title>
<path fill="none" stroke="#c0c0c0" d="M526.7636,-387.4124C516.0292,-387.4124 485.6046,-387.4124 469.2863,-387.4124"/>
<polygon fill="#c0c0c0" stroke="#c0c0c0" points="469.2355,-383.9125 459.2354,-387.4124 469.2354,-390.9125 469.2355,-383.9125"/>
<text text-anchor="middle" x="456.0729" y="-414.4124" font-family="Arial" font-size="10.00" fill="#000000">Kostverlorenstraat </text>
<text text-anchor="middle" x="456.0729" y="-402.4124" font-family="Arial" font-size="10.00" fill="#000000"> Van Hallstraat </text>
<text text-anchor="middle" x="456.0729" y="-390.4124" font-family="Arial" font-size="10.00" fill="#000000"> (lijn 21)</text>
</g>
<!-- 1807 -->
<g id="node8" class="node">
<title>1807</title>
<ellipse fill="#d3d3d3" stroke="#c0c0c0" cx="458.6346" cy="-315.4124" rx="3.5" ry="3.5"/>
</g>
<!-- 1806&#45;&gt;1807 -->
<g id="edge7" class="edge">
<title>1806&#45;&gt;1807</title>
<path fill="none" stroke="#c0c0c0" d="M526.7636,-315.4124C516.7083,-315.4124 489.3754,-315.4124 472.5443,-315.4124"/>
<polygon fill="#c0c0c0" stroke="#c0c0c0" points="472.1806,-311.9125 462.1805,-315.4124 472.1805,-318.9125 472.1806,-311.9125"/>
<text text-anchor="middle" x="433.8019" y="-330.4124" font-family="Arial" font-size="10.00" fill="#000000">Tweede Hugo de Grootstraat </text>
<text text-anchor="middle" x="433.8019" y="-318.4124" font-family="Arial" font-size="10.00" fill="#000000"> Jan van Galenstraat</text>
</g>
<!-- 1808 -->
<g id="node9" class="node">
<title>1808</title>
<ellipse fill="#d3d3d3" stroke="#c0c0c0" cx="458.6346" cy="-243.4124" rx="3.5" ry="3.5"/>
</g>
<!-- 1807&#45;&gt;1808 -->
<g id="edge8" class="edge">
<title>1807&#45;&gt;1808</title>
<path fill="none" stroke="#c0c0c0" d="M458.6346,-311.5414C458.6346,-301.4861 458.6346,-274.1532 458.6346,-257.322"/>
<polygon fill="#c0c0c0" stroke="#c0c0c0" points="462.1347,-256.9583 458.6346,-246.9583 455.1347,-256.9584 462.1347,-256.9583"/>
<text text-anchor="middle" x="406.9656" y="-287.4317" font-family="Arial" font-size="10.00" fill="#000000">Admiraal de Ruijterweg</text>
</g>
<!-- 1809 -->
<g id="node10" class="node">
<title>1809</title>
<ellipse fill="#d3d3d3" stroke="#c0c0c0" cx="386.6346" cy="-243.4124" rx="3.5" ry="3.5"/>
</g>
<!-- 1808&#45;&gt;1809 -->
<g id="edge9" class="edge">
<title>1808&#45;&gt;1809</title>
<path fill="none" stroke="#c0c0c0" d="M454.7636,-243.4124C444.7083,-243.4124 417.3754,-243.4124 400.5443,-243.4124"/>
<polygon fill="#c0c0c0" stroke="#c0c0c0" points="400.1806,-239.9125 390.1805,-243.4124 400.1805,-246.9125 400.1806,-239.9125"/>
<text text-anchor="middle" x="385.9759" y="-246.4124" font-family="Arial" font-size="10.00" fill="#000000">Jan Evertsenstraat</text>
</g>
<!-- 1810 -->
<g id="node11" class="node">
<title>1810</title>
<ellipse fill="#d3d3d3" stroke="#c0c0c0" cx="386.6346" cy="-171.4124" rx="3.5" ry="3.5"/>
</g>
<!-- 1809&#45;&gt;1810 -->
<g id="edge10" class="edge">
<title>1809&#45;&gt;1810</title>
<path fill="none" stroke="#c0c0c0" d="M386.6346,-239.5414C386.6346,-229.4861 386.6346,-202.1532 386.6346,-185.322"/>
<polygon fill="#c0c0c0" stroke="#c0c0c0" points="390.1347,-184.9583 386.6346,-174.9583 383.1347,-184.9584 390.1347,-184.9583"/>
<text text-anchor="middle" x="348.8466" y="-215.4317" font-family="Arial" font-size="10.00" fill="#000000">Jan Tooropstraat</text>
</g>
<!-- 1811 -->
<g id="node12" class="node">
<title>1811</title>
<ellipse fill="#d3d3d3" stroke="#c0c0c0" cx="314.6346" cy="-171.4124" rx="3.5" ry="3.5"/>
</g>
<!-- 1810&#45;&gt;1811 -->
<g id="edge11" class="edge">
<title>1810&#45;&gt;1811</title>
<path fill="none" stroke="#c0c0c0" d="M382.7636,-171.4124C372.7083,-171.4124 345.3754,-171.4124 328.5443,-171.4124"/>
<polygon fill="#c0c0c0" stroke="#c0c0c0" points="328.1806,-167.9125 318.1805,-171.4124 328.1805,-174.9125 328.1806,-167.9125"/>
<text text-anchor="middle" x="317.0374" y="-186.4124" font-family="Arial" font-size="10.00" fill="#000000">Postjesweg </text>
<text text-anchor="middle" x="317.0374" y="-174.4124" font-family="Arial" font-size="10.00" fill="#000000"> Robert Fruinlaan</text>
</g>
<!-- 1812 -->
<g id="node13" class="node">
<title>1812</title>
<ellipse fill="#d3d3d3" stroke="#c0c0c0" cx="314.6346" cy="-135.4124" rx="3.5" ry="3.5"/>
</g>
<!-- 1811&#45;&gt;1812 -->
<g id="edge12" class="edge">
<title>1811&#45;&gt;1812</title>
<path fill="none" stroke="#c0c0c0" d="M314.6346,-167.829C314.6346,-163.5606 314.6346,-156.1711 314.6346,-149.5243"/>
<polygon fill="#c0c0c0" stroke="#c0c0c0" points="318.1347,-149.1969 314.6346,-139.197 311.1347,-149.197 318.1347,-149.1969"/>
<text text-anchor="middle" x="270.7326" y="-149.6766" font-family="Arial" font-size="10.00" fill="#000000">Johan Huizingalaan</text>
</g>
<!-- 1813 -->
<g id="node14" class="node">
<title>1813</title>
<ellipse fill="#d3d3d3" stroke="#c0c0c0" cx="458.6346" cy="-135.4124" rx="3.5" ry="3.5"/>
</g>
<!-- 1812&#45;&gt;1813 -->
<g id="edge13" class="edge">
<title>1812&#45;&gt;1813</title>
<path fill="none" stroke="#c0c0c0" d="M328.5103,-135.4124C355.9829,-135.4124 417.0244,-135.4124 444.6144,-135.4124"/>
<polygon fill="#c0c0c0" stroke="#c0c0c0" points="328.1942,-131.9125 318.1942,-135.4124 328.1941,-138.9125 328.1942,-131.9125"/>
<polygon fill="#c0c0c0" stroke="#c0c0c0" points="444.9395,-138.9125 454.9394,-135.4124 444.9394,-131.9125 444.9395,-138.9125"/>
<text text-anchor="middle" x="406.5653" y="-126.4124" font-family="Arial" font-size="10.00" fill="#000000">Pieter Calandlaan</text>
<text text-anchor="middle" x="406.5653" y="-114.4124" font-family="Arial" font-size="10.00" fill="#000000"> &#160;(via St. Lelylaan)</text>
</g>
<!-- 1814 -->
<g id="node15" class="node">
<title>1814</title>
<ellipse fill="#d3d3d3" stroke="#c0c0c0" cx="314.6346" cy="-99.4124" rx="3.5" ry="3.5"/>
</g>
<!-- 1812&#45;&gt;1814 -->
<g id="edge14" class="edge">
<title>1812&#45;&gt;1814</title>
<path fill="none" stroke="#c0c0c0" d="M314.6346,-131.829C314.6346,-127.5606 314.6346,-120.1711 314.6346,-113.5243"/>
<polygon fill="#c0c0c0" stroke="#c0c0c0" points="318.1347,-113.1969 314.6346,-103.197 311.1347,-113.197 318.1347,-113.1969"/>
</g>
<!-- 1815 -->
<g id="node16" class="node">
<title>1815</title>
<ellipse fill="#d3d3d3" stroke="#c0c0c0" cx="242.6346" cy="-99.4124" rx="3.5" ry="3.5"/>
</g>
<!-- 1814&#45;&gt;1815 -->
<g id="edge15" class="edge">
<title>1814&#45;&gt;1815</title>
<path fill="none" stroke="#c0c0c0" d="M310.7636,-99.4124C300.7083,-99.4124 273.3754,-99.4124 256.5443,-99.4124"/>
<polygon fill="#c0c0c0" stroke="#c0c0c0" points="256.1806,-95.9125 246.1805,-99.4124 256.1805,-102.9125 256.1806,-95.9125"/>
<text text-anchor="middle" x="239.7619" y="-102.4124" font-family="Arial" font-size="10.00" fill="#000000">David Ricardostraat</text>
</g>
<!-- 1816 -->
<g id="node17" class="node">
<title>1816</title>
<ellipse fill="#d3d3d3" stroke="#c0c0c0" cx="242.6346" cy="-27.4124" rx="27.3251" ry="27.3251"/>
<text text-anchor="middle" x="242.6346" y="-24.4124" font-family="Arial" font-size="10.00" fill="#000000">NMR</text>
</g>
<!-- 1815&#45;&gt;1816 -->
<g id="edge16" class="edge">
<title>1815&#45;&gt;1816</title>
<path fill="none" stroke="#c0c0c0" d="M242.6346,-95.5414C242.6346,-89.6082 242.6346,-77.6597 242.6346,-65.4026"/>
<polygon fill="#c0c0c0" stroke="#c0c0c0" points="246.1347,-65.1593 242.6346,-55.1594 239.1347,-65.1594 246.1347,-65.1593"/>
<text text-anchor="middle" x="196.2326" y="-83.472" font-family="Arial" font-size="10.00" fill="#000000">John M. Keynesplein</text>
</g>
<!-- 2102 -->
<g id="node19" class="node">
<title>2102</title>
<ellipse fill="#d3d3d3" stroke="#c0c0c0" cx="458.6346" cy="-459.4124" rx="3.5" ry="3.5"/>
</g>
<!-- 2101&#45;&gt;2102 -->
<g id="edge18" class="edge">
<title>2101&#45;&gt;2102</title>
<path fill="none" stroke="#c0c0c0" d="M458.6346,-388.221C458.6346,-393.7466 458.6346,-426.2916 458.6346,-445.411"/>
<polygon fill="#c0c0c0" stroke="#c0c0c0" points="455.1347,-445.6175 458.6346,-455.6175 462.1347,-445.6175 455.1347,-445.6175"/>
</g>
<!-- 2103 -->
<g id="node20" class="node">
<title>2103</title>
<ellipse fill="#d3d3d3" stroke="#c0c0c0" cx="386.6346" cy="-459.4124" rx="3.5" ry="3.5"/>
</g>
<!-- 2102&#45;&gt;2103 -->
<g id="edge19" class="edge">
<title>2102&#45;&gt;2103</title>
<path fill="none" stroke="#c0c0c0" d="M454.7636,-459.4124C444.7083,-459.4124 417.3754,-459.4124 400.5443,-459.4124"/>
<polygon fill="#c0c0c0" stroke="#c0c0c0" points="400.1806,-455.9125 390.1805,-459.4124 400.1805,-462.9125 400.1806,-455.9125"/>
<text text-anchor="middle" x="390.9904" y="-462.4124" font-family="Arial" font-size="10.00" fill="#000000">Haarlemmerweg</text>
</g>
<!-- 2104 -->
<g id="node21" class="node">
<title>2104</title>
<ellipse fill="#d3d3d3" stroke="#c0c0c0" cx="386.6346" cy="-387.4124" rx=".5" ry=".5"/>
</g>
<!-- 2103&#45;&gt;2104 -->
<g id="edge20" class="edge">
<title>2103&#45;&gt;2104</title>
<path fill="none" stroke="#c0c0c0" d="M386.6346,-455.5414C386.6346,-444.807 386.6346,-414.3823 386.6346,-398.0641"/>
<polygon fill="#c0c0c0" stroke="#c0c0c0" points="390.1347,-398.0132 386.6346,-388.0132 383.1347,-398.0132 390.1347,-398.0132"/>
<text text-anchor="middle" x="324.6721" y="-441.8027" font-family="Arial" font-size="10.00" fill="#000000">Bos en Lommerweg </text>
<text text-anchor="middle" x="324.6721" y="-429.8027" font-family="Arial" font-size="10.00" fill="#000000"> Burgemeester de Vlugtlaan</text>
</g>
<!-- 2105 -->
<g id="node22" class="node">
<title>2105</title>
<ellipse fill="#d3d3d3" stroke="#c0c0c0" cx="242.6346" cy="-387.4124" rx=".5" ry=".5"/>
</g>
<!-- 2104&#45;&gt;2105 -->
<g id="edge21" class="edge">
<title>2104&#45;&gt;2105</title>
<path fill="none" stroke="#c0c0c0" d="M385.9926,-387.4124C377.445,-387.4124 285.9067,-387.4124 253.7366,-387.4124"/>
<polygon fill="#c0c0c0" stroke="#c0c0c0" points="253.4848,-383.9125 243.4848,-387.4124 253.4848,-390.9125 253.4848,-383.9125"/>
</g>
<!-- 2106 -->
<g id="node23" class="node">
<title>2106</title>
<ellipse fill="#d3d3d3" stroke="#c0c0c0" cx="242.6346" cy="-423.4124" rx="3.5" ry="3.5"/>
</g>
<!-- 2105&#45;&gt;2106 -->
<g id="edge22" class="edge">
<title>2105&#45;&gt;2106</title>
<path fill="none" stroke="#c0c0c0" d="M242.6346,-388.3023C242.6346,-391.2799 242.6346,-401.1877 242.6346,-409.7221"/>
<polygon fill="#c0c0c0" stroke="#c0c0c0" points="239.1347,-409.7289 242.6346,-419.7289 246.1347,-409.729 239.1347,-409.7289"/>
</g>
<!-- 2107 -->
<g id="node24" class="node">
<title>2107</title>
<ellipse fill="#d3d3d3" stroke="#c0c0c0" cx="170.6346" cy="-423.4124" rx=".5" ry=".5"/>
</g>
<!-- 2106&#45;&gt;2107 -->
<g id="edge23" class="edge">
<title>2106&#45;&gt;2107</title>
<path fill="none" stroke="#c0c0c0" d="M238.7636,-423.4124C228.0292,-423.4124 197.6046,-423.4124 181.2863,-423.4124"/>
<polygon fill="#c0c0c0" stroke="#c0c0c0" points="181.2355,-419.9125 171.2354,-423.4124 181.2354,-426.9125 181.2355,-419.9125"/>
<text text-anchor="middle" x="145.2859" y="-438.4124" font-family="Arial" font-size="10.00" fill="#000000">Ruys de Beerenbrouckstraat </text>
<text text-anchor="middle" x="145.2859" y="-426.4124" font-family="Arial" font-size="10.00" fill="#000000"> Antony Moddermanstraat</text>
</g>
<!-- 2108 -->
<g id="node25" class="node">
<title>2108</title>
<ellipse fill="#d3d3d3" stroke="#c0c0c0" cx="170.6346" cy="-351.4124" rx="3.5" ry="3.5"/>
</g>
<!-- 2107&#45;&gt;2108 -->
<g id="edge24" class="edge">
<title>2107&#45;&gt;2108</title>
<path fill="none" stroke="#c0c0c0" d="M170.6346,-422.6038C170.6346,-417.0782 170.6346,-384.5332 170.6346,-365.4138"/>
<polygon fill="#c0c0c0" stroke="#c0c0c0" points="174.1347,-365.2073 170.6346,-355.2073 167.1347,-365.2073 174.1347,-365.2073"/>
<text text-anchor="middle" x="138.4056" y="-397.0088" font-family="Arial" font-size="10.00" fill="#000000">Aalbersestraat</text>
</g>
<!-- 2109 -->
<g id="node26" class="node">
<title>2109</title>
<ellipse fill="#d3d3d3" stroke="#c0c0c0" cx="170.6346" cy="-279.4124" rx="3.5" ry="3.5"/>
</g>
<!-- 2108&#45;&gt;2109 -->
<g id="edge26" class="edge">
<title>2108&#45;&gt;2109</title>
<path fill="none" stroke="#c0c0c0" d="M170.6346,-347.5414C170.6346,-337.4861 170.6346,-310.1532 170.6346,-293.322"/>
<polygon fill="#c0c0c0" stroke="#c0c0c0" points="174.1347,-292.9583 170.6346,-282.9583 167.1347,-292.9584 174.1347,-292.9583"/>
<text text-anchor="middle" x="138.4056" y="-323.4317" font-family="Arial" font-size="10.00" fill="#000000">Aalbersestraat</text>
</g>
<!-- 2110 -->
<g id="node27" class="node">
<title>2110</title>
<ellipse fill="#d3d3d3" stroke="#c0c0c0" cx="26.6346" cy="-351.4124" rx="26.7699" ry="26.7699"/>
<text text-anchor="middle" x="26.6346" y="-348.4124" font-family="Arial" font-size="10.00" fill="#000000">GEU</text>
</g>
<!-- 2108&#45;&gt;2110 -->
<g id="edge25" class="edge">
<title>2108&#45;&gt;2110</title>
<path fill="none" stroke="#c0c0c0" d="M167.075,-351.4124C153.0419,-351.4124 100.5252,-351.4124 63.8533,-351.4124"/>
<polygon fill="#c0c0c0" stroke="#c0c0c0" points="63.5088,-347.9125 53.5088,-351.4124 63.5088,-354.9125 63.5088,-347.9125"/>
<text text-anchor="middle" x="171.0287" y="-366.4124" font-family="Arial" font-size="10.00" fill="#000000">Cornelis Outshoornstraat</text>
<text text-anchor="middle" x="171.0287" y="-354.4124" font-family="Arial" font-size="10.00" fill="#000000"> &#160;J.M. den Uylstraat</text>
</g>
<!-- 2112 -->
<g id="node28" class="node">
<title>2112</title>
<ellipse fill="#d3d3d3" stroke="#c0c0c0" cx="314.6346" cy="-279.4124" rx="26.7699" ry="26.7699"/>
<text text-anchor="middle" x="314.6346" y="-276.4124" font-family="Arial" font-size="10.00" fill="#000000">GEU</text>
</g>
<!-- 2109&#45;&gt;2112 -->
<g id="edge27" class="edge">
<title>2109&#45;&gt;2112</title>
<path fill="none" stroke="#c0c0c0" d="M174.1942,-279.4124C188.2273,-279.4124 240.744,-279.4124 277.4159,-279.4124"/>
<polygon fill="#c0c0c0" stroke="#c0c0c0" points="277.7604,-282.9125 287.7604,-279.4124 277.7604,-275.9125 277.7604,-282.9125"/>
<text text-anchor="middle" x="225.805" y="-270.4124" font-family="Arial" font-size="10.00" fill="#000000">De Savornin Lohmanlaan</text>
</g>
<!-- 4802 -->
<g id="node30" class="node">
<title>4802</title>
<ellipse fill="#d3d3d3" stroke="#c0c0c0" cx="602.6346" cy="-603.4124" rx=".5" ry=".5"/>
</g>
<!-- 4801&#45;&gt;4802 -->
<g id="edge29" class="edge">
<title>4801&#45;&gt;4802</title>
<path fill="none" stroke="#c0c0c0" d="M602.6346,-535.2834C602.6346,-546.0178 602.6346,-576.4424 602.6346,-592.7607"/>
<polygon fill="#c0c0c0" stroke="#c0c0c0" points="599.1347,-592.8115 602.6346,-602.8116 606.1347,-592.8116 599.1347,-592.8115"/>
<text text-anchor="middle" x="568.7446" y="-567.0221" font-family="Arial" font-size="10.00" fill="#000000">Westerdoksdijk</text>
</g>
<!-- 4803 -->
<g id="node31" class="node">
<title>4803</title>
<ellipse fill="#d3d3d3" stroke="#c0c0c0" cx="530.6346" cy="-603.4124" rx="3.5" ry="3.5"/>
</g>
<!-- 4802&#45;&gt;4803 -->
<g id="edge30" class="edge">
<title>4802&#45;&gt;4803</title>
<path fill="none" stroke="#c0c0c0" d="M601.826,-603.4124C596.3004,-603.4124 563.7554,-603.4124 544.636,-603.4124"/>
<polygon fill="#c0c0c0" stroke="#c0c0c0" points="544.4295,-599.9125 534.4295,-603.4124 544.4295,-606.9125 544.4295,-599.9125"/>
<text text-anchor="middle" x="616.568" y="-642.4124" font-family="Arial" font-size="10.00" fill="#000000">Barentszplein </text>
<text text-anchor="middle" x="616.568" y="-630.4124" font-family="Arial" font-size="10.00" fill="#000000"> Van Diemenstraat </text>
<text text-anchor="middle" x="616.568" y="-618.4124" font-family="Arial" font-size="10.00" fill="#000000"> Tasmanstraat </text>
<text text-anchor="middle" x="616.568" y="-606.4124" font-family="Arial" font-size="10.00" fill="#000000"> Spaarndammerdijk</text>
</g>
<!-- 4804 -->
<g id="node32" class="node">
<title>4804</title>
<ellipse fill="#d3d3d3" stroke="#c0c0c0" cx="530.6346" cy="-675.4124" rx="3.5" ry="3.5"/>
</g>
<!-- 4803&#45;&gt;4804 -->
<g id="edge31" class="edge">
<title>4803&#45;&gt;4804</title>
<path fill="none" stroke="#c0c0c0" d="M530.6346,-607.2834C530.6346,-617.3387 530.6346,-644.6716 530.6346,-661.5028"/>
<polygon fill="#c0c0c0" stroke="#c0c0c0" points="527.1347,-661.8664 530.6346,-671.8665 534.1347,-661.8665 527.1347,-661.8664"/>
<text text-anchor="middle" x="497.2901" y="-637.3931" font-family="Arial" font-size="10.00" fill="#000000">Houthavenweg</text>
</g>
<!-- 4805 -->
<g id="node33" class="node">
<title>4805</title>
<ellipse fill="#d3d3d3" stroke="#c0c0c0" cx="602.6346" cy="-675.4124" rx="3.5" ry="3.5"/>
</g>
<!-- 4804&#45;&gt;4805 -->
<g id="edge32" class="edge">
<title>4804&#45;&gt;4805</title>
<path fill="none" stroke="#c0c0c0" d="M534.5056,-675.4124C544.5609,-675.4124 571.8938,-675.4124 588.725,-675.4124"/>
<polygon fill="#c0c0c0" stroke="#c0c0c0" points="589.0887,-678.9125 599.0887,-675.4124 589.0886,-671.9125 589.0887,-678.9125"/>
<text text-anchor="middle" x="527.7163" y="-678.4124" font-family="Arial" font-size="10.00" fill="#000000">Haparandaweg</text>
</g>
<!-- 4806 -->
<g id="node34" class="node">
<title>4806</title>
<ellipse fill="#d3d3d3" stroke="#c0c0c0" cx="602.6346" cy="-747.4124" rx="3.5" ry="3.5"/>
</g>
<!-- 4805&#45;&gt;4806 -->
<g id="edge33" class="edge">
<title>4805&#45;&gt;4806</title>
<path fill="none" stroke="#c0c0c0" d="M602.6346,-679.2834C602.6346,-689.3387 602.6346,-716.6716 602.6346,-733.5028"/>
<polygon fill="#c0c0c0" stroke="#c0c0c0" points="599.1347,-733.8664 602.6346,-743.8665 606.1347,-733.8665 599.1347,-733.8664"/>
<text text-anchor="middle" x="571.7946" y="-709.3931" font-family="Arial" font-size="10.00" fill="#000000">Danzigerkade</text>
</g>
<!-- 4807 -->
<g id="node35" class="node">
<title>4807</title>
<ellipse fill="#d3d3d3" stroke="#c0c0c0" cx="458.6346" cy="-747.4124" rx="27.047" ry="27.047"/>
<text text-anchor="middle" x="458.6346" y="-744.4124" font-family="Arial" font-size="10.00" fill="#000000">HOU</text>
</g>
<!-- 4806&#45;&gt;4807 -->
<g id="edge34" class="edge">
<title>4806&#45;&gt;4807</title>
<path fill="none" stroke="#c0c0c0" d="M599.075,-747.4124C585.0813,-747.4124 532.82,-747.4124 496.1627,-747.4124"/>
<polygon fill="#c0c0c0" stroke="#c0c0c0" points="495.8151,-743.9125 485.8151,-747.4124 495.8151,-750.9125 495.8151,-743.9125"/>
<text text-anchor="middle" x="547.6189" y="-738.4124" font-family="Arial" font-size="10.00" fill="#000000">Minervahavenweg </text>
<text text-anchor="middle" x="547.6189" y="-726.4124" font-family="Arial" font-size="10.00" fill="#000000"> Koivistokade</text>
</g>
</g>
</svg>

