<?xml version="1.0" encoding="UTF-8" standalone="no"?>
<!DOCTYPE svg PUBLIC "-//W3C//DTD SVG 1.1//EN"
 "http://www.w3.org/Graphics/SVG/1.1/DTD/svg11.dtd">
<!-- Generated by graphviz version 2.40.1 (20161225.0304)
 -->
<!-- Title: G Pages: 1 -->
<svg width="709pt" height="288pt"
 viewBox="0.00 0.00 708.87 287.50" xmlns="http://www.w3.org/2000/svg" xmlns:xlink="http://www.w3.org/1999/xlink">
<g id="graph0" class="graph" transform="scale(1 1) rotate(0) translate(4 283.5)">
<title>G</title>
<polygon fill="#ffffff" stroke="transparent" points="-4,4 -4,-283.5 704.8661,-283.5 704.8661,4 -4,4"/>
<!-- 4300 -->
<g id="node1" class="node">
<title>4300</title>
<ellipse fill="#d3d3d3" stroke="#c0c0c0" cx="26.2386" cy="-204" rx="26.4794" ry="26.4794"/>
<text text-anchor="middle" x="26.2386" y="-201" font-family="Arial" font-size="10.00" fill="#000000">CEN</text>
</g>
<!-- 4201 -->
<g id="node13" class="node">
<title>4201</title>
<ellipse fill="#d3d3d3" stroke="#c0c0c0" cx="170.2386" cy="-204" rx="3.5" ry="3.5"/>
</g>
<!-- 4300&#45;&gt;4201 -->
<g id="edge12" class="edge">
<title>4300&#45;&gt;4201</title>
<path fill="none" stroke="#c0c0c0" d="M52.6504,-204C83.2087,-204 132.379,-204 156.287,-204"/>
<polygon fill="#c0c0c0" stroke="#c0c0c0" points="156.4748,-207.5001 166.4748,-204 156.4747,-200.5001 156.4748,-207.5001"/>
<text text-anchor="middle" x="120.9979" y="-195" font-family="Arial" font-size="10.00" fill="#000000">De Ruijterkade</text>
<text text-anchor="middle" x="120.9979" y="-183" font-family="Arial" font-size="10.00" fill="#000000"> (lijn 42, 43)</text>
</g>
<!-- 4301 -->
<g id="node2" class="node">
<title>4301</title>
<ellipse fill="#d3d3d3" stroke="#c0c0c0" cx="314.2386" cy="-204" rx="3.5" ry="3.5"/>
</g>
<!-- 4302 -->
<g id="node3" class="node">
<title>4302</title>
<ellipse fill="#d3d3d3" stroke="#c0c0c0" cx="314.2386" cy="-276" rx="3.5" ry="3.5"/>
</g>
<!-- 4301&#45;&gt;4302 -->
<g id="edge2" class="edge">
<title>4301&#45;&gt;4302</title>
<path fill="none" stroke="#c0c0c0" d="M314.2386,-207.871C314.2386,-217.9263 314.2386,-245.2592 314.2386,-262.0904"/>
<polygon fill="#c0c0c0" stroke="#c0c0c0" points="310.7387,-262.454 314.2386,-272.4541 317.7387,-262.4541 310.7387,-262.454"/>
<text text-anchor="middle" x="272.0016" y="-261.9807" font-family="Arial" font-size="10.00" fill="#000000">Vemenplein </text>
<text text-anchor="middle" x="272.0016" y="-249.9807" font-family="Arial" font-size="10.00" fill="#000000"> Jan Schaeferbrug </text>
<text text-anchor="middle" x="272.0016" y="-237.9807" font-family="Arial" font-size="10.00" fill="#000000"> Tosaristraat</text>
</g>
<!-- 4303 -->
<g id="node4" class="node">
<title>4303</title>
<ellipse fill="#d3d3d3" stroke="#c0c0c0" cx="386.2386" cy="-276" rx=".5" ry=".5"/>
</g>
<!-- 4302&#45;&gt;4303 -->
<g id="edge3" class="edge">
<title>4302&#45;&gt;4303</title>
<path fill="none" stroke="#c0c0c0" d="M318.1096,-276C328.844,-276 359.2687,-276 375.5869,-276"/>
<polygon fill="#c0c0c0" stroke="#c0c0c0" points="375.6378,-279.5001 385.6378,-276 375.6377,-272.5001 375.6378,-279.5001"/>
<text text-anchor="middle" x="376.5783" y="-267" font-family="Arial" font-size="10.00" fill="#000000">Sumatrakade</text>
</g>
<!-- 4304 -->
<g id="node5" class="node">
<title>4304</title>
<ellipse fill="#d3d3d3" stroke="#c0c0c0" cx="386.2386" cy="-204" rx=".5" ry=".5"/>
</g>
<!-- 4303&#45;&gt;4304 -->
<g id="edge4" class="edge">
<title>4303&#45;&gt;4304</title>
<path fill="none" stroke="#c0c0c0" d="M386.2386,-275.1914C386.2386,-269.3399 386.2386,-233.188 386.2386,-214.767"/>
<polygon fill="#c0c0c0" stroke="#c0c0c0" points="389.7387,-214.7126 386.2386,-204.7126 382.7387,-214.7126 389.7387,-214.7126"/>
<text text-anchor="middle" x="423.7466" y="-235.9792" font-family="Arial" font-size="10.00" fill="#000000">Azartplein </text>
<text text-anchor="middle" x="423.7466" y="-223.9792" font-family="Arial" font-size="10.00" fill="#000000"> Verbindingsdam</text>
</g>
<!-- 4305 -->
<g id="node6" class="node">
<title>4305</title>
<ellipse fill="#d3d3d3" stroke="#c0c0c0" cx="350.2386" cy="-204" rx="3.5" ry="3.5"/>
</g>
<!-- 4304&#45;&gt;4305 -->
<g id="edge5" class="edge">
<title>4304&#45;&gt;4305</title>
<path fill="none" stroke="#c0c0c0" d="M385.3487,-204C382.3711,-204 372.4633,-204 363.9289,-204"/>
<polygon fill="#c0c0c0" stroke="#c0c0c0" points="363.9221,-200.5001 353.922,-204 363.922,-207.5001 363.9221,-200.5001"/>
<text text-anchor="middle" x="422.9843" y="-207" font-family="Arial" font-size="10.00" fill="#000000">J.F. Van Hengelstraat</text>
</g>
<!-- 4306 -->
<g id="node7" class="node">
<title>4306</title>
<ellipse fill="#d3d3d3" stroke="#c0c0c0" cx="350.2386" cy="-132" rx="3.5" ry="3.5"/>
</g>
<!-- 4305&#45;&gt;4306 -->
<g id="edge6" class="edge">
<title>4305&#45;&gt;4306</title>
<path fill="none" stroke="#c0c0c0" d="M350.2386,-200.129C350.2386,-190.0737 350.2386,-162.7408 350.2386,-145.9097"/>
<polygon fill="#c0c0c0" stroke="#c0c0c0" points="353.7387,-145.5459 350.2386,-135.5459 346.7387,-145.546 353.7387,-145.5459"/>
<text text-anchor="middle" x="304.9471" y="-176.0193" font-family="Arial" font-size="10.00" fill="#000000">C. van Eesterenlaan</text>
</g>
<!-- 4307 -->
<g id="node8" class="node">
<title>4307</title>
<ellipse fill="#d3d3d3" stroke="#c0c0c0" cx="386.2386" cy="-132" rx="3.5" ry="3.5"/>
</g>
<!-- 4306&#45;&gt;4307 -->
<g id="edge7" class="edge">
<title>4306&#45;&gt;4307</title>
<path fill="none" stroke="#c0c0c0" d="M353.822,-132C358.0904,-132 365.4799,-132 372.1267,-132"/>
<polygon fill="#c0c0c0" stroke="#c0c0c0" points="372.454,-135.5001 382.454,-132 372.454,-128.5001 372.454,-135.5001"/>
<text text-anchor="middle" x="337.4094" y="-123" font-family="Arial" font-size="10.00" fill="#000000">Borneolaan</text>
</g>
<!-- 4308 -->
<g id="node9" class="node">
<title>4308</title>
<ellipse fill="#d3d3d3" stroke="#c0c0c0" cx="386.2386" cy="-96" rx="3.5" ry="3.5"/>
</g>
<!-- 4307&#45;&gt;4308 -->
<g id="edge8" class="edge">
<title>4307&#45;&gt;4308</title>
<path fill="none" stroke="#c0c0c0" d="M386.2386,-128.4166C386.2386,-124.1482 386.2386,-116.7587 386.2386,-110.1119"/>
<polygon fill="#c0c0c0" stroke="#c0c0c0" points="389.7387,-109.7846 386.2386,-99.7846 382.7387,-109.7846 389.7387,-109.7846"/>
<text text-anchor="middle" x="360.6736" y="-110.2642" font-family="Arial" font-size="10.00" fill="#000000">Borneolaan</text>
</g>
<!-- 4309 -->
<g id="node10" class="node">
<title>4309</title>
<ellipse fill="#d3d3d3" stroke="#c0c0c0" cx="530.2386" cy="-96" rx="3.5" ry="3.5"/>
</g>
<!-- 4308&#45;&gt;4309 -->
<g id="edge9" class="edge">
<title>4308&#45;&gt;4309</title>
<path fill="none" stroke="#c0c0c0" d="M389.7982,-96C407.3097,-96 484.7465,-96 516.5414,-96"/>
<polygon fill="#c0c0c0" stroke="#c0c0c0" points="516.5435,-99.5001 526.5434,-96 516.5434,-92.5001 516.5435,-99.5001"/>
<text text-anchor="middle" x="473.4533" y="-87" font-family="Arial" font-size="10.00" fill="#000000">Feike de Boerlaan</text>
</g>
<!-- 4310 -->
<g id="node11" class="node">
<title>4310</title>
<ellipse fill="#d3d3d3" stroke="#c0c0c0" cx="530.2386" cy="-132" rx="3.5" ry="3.5"/>
</g>
<!-- 4309&#45;&gt;4310 -->
<g id="edge10" class="edge">
<title>4309&#45;&gt;4310</title>
<path fill="none" stroke="#c0c0c0" d="M530.2386,-99.5834C530.2386,-103.8518 530.2386,-111.2413 530.2386,-117.8881"/>
<polygon fill="#c0c0c0" stroke="#c0c0c0" points="526.7387,-118.2154 530.2386,-128.2154 533.7387,-118.2154 526.7387,-118.2154"/>
<text text-anchor="middle" x="485.5121" y="-111.7358" font-family="Arial" font-size="10.00" fill="#000000">R.J.H. Fortuynstraat</text>
</g>
<!-- 4311 -->
<g id="node12" class="node">
<title>4311</title>
<ellipse fill="#d3d3d3" stroke="#c0c0c0" cx="602.2386" cy="-132" rx="26.7699" ry="26.7699"/>
<text text-anchor="middle" x="602.2386" y="-129" font-family="Arial" font-size="10.00" fill="#000000">BOR</text>
</g>
<!-- 4310&#45;&gt;4311 -->
<g id="edge11" class="edge">
<title>4310&#45;&gt;4311</title>
<path fill="none" stroke="#c0c0c0" d="M534.1096,-132C540.2404,-132 552.7939,-132 565.4739,-132"/>
<polygon fill="#c0c0c0" stroke="#c0c0c0" points="565.55,-135.5001 575.5499,-132 565.5499,-128.5001 565.55,-135.5001"/>
<text text-anchor="middle" x="517.2823" y="-135" font-family="Arial" font-size="10.00" fill="#000000">Stuurmankade</text>
</g>
<!-- 4201&#45;&gt;4301 -->
<g id="edge1" class="edge">
<title>4201&#45;&gt;4301</title>
<path fill="none" stroke="#c0c0c0" d="M173.7982,-204C191.3097,-204 268.7465,-204 300.5414,-204"/>
<polygon fill="#c0c0c0" stroke="#c0c0c0" points="300.5435,-207.5001 310.5434,-204 300.5434,-200.5001 300.5435,-207.5001"/>
<text text-anchor="middle" x="219.526" y="-195" font-family="Arial" font-size="10.00" fill="#000000">De Ruijterkade </text>
<text text-anchor="middle" x="219.526" y="-183" font-family="Arial" font-size="10.00" fill="#000000"> Piet Heinkade &#160;</text>
<text text-anchor="middle" x="219.526" y="-171" font-family="Arial" font-size="10.00" fill="#000000"> (lijn 43)</text>
</g>
<!-- 4202 -->
<g id="node14" class="node">
<title>4202</title>
<ellipse fill="#d3d3d3" stroke="#c0c0c0" cx="170.2386" cy="-24" rx="3.5" ry="3.5"/>
</g>
<!-- 4201&#45;&gt;4202 -->
<g id="edge13" class="edge">
<title>4201&#45;&gt;4202</title>
<path fill="none" stroke="#c0c0c0" d="M170.2386,-200.2404C170.2386,-179.1943 170.2386,-75.5839 170.2386,-37.8106"/>
<polygon fill="#c0c0c0" stroke="#c0c0c0" points="173.7385,-37.7389 170.2386,-27.7389 166.7385,-37.7388 173.7385,-37.7389"/>
<text text-anchor="middle" x="142.7336" y="-134.0255" font-family="Arial" font-size="10.00" fill="#000000">Kamperbrug</text>
<text text-anchor="middle" x="142.7336" y="-122.0255" font-family="Arial" font-size="10.00" fill="#000000"> &#160;(lijn 42)</text>
</g>
<!-- 4203 -->
<g id="node15" class="node">
<title>4203</title>
<ellipse fill="#d3d3d3" stroke="#c0c0c0" cx="314.2386" cy="-24" rx=".5" ry=".5"/>
</g>
<!-- 4202&#45;&gt;4203 -->
<g id="edge14" class="edge">
<title>4202&#45;&gt;4203</title>
<path fill="none" stroke="#c0c0c0" d="M173.7982,-24C191.7962,-24 273.0959,-24 303.0837,-24"/>
<polygon fill="#c0c0c0" stroke="#c0c0c0" points="303.4811,-27.5001 313.4811,-24 303.4811,-20.5001 303.4811,-27.5001"/>
<text text-anchor="middle" x="279.2789" y="-27" font-family="Arial" font-size="10.00" fill="#000000">Prins Hendrikkade</text>
</g>
<!-- 4204 -->
<g id="node16" class="node">
<title>4204</title>
<ellipse fill="#d3d3d3" stroke="#c0c0c0" cx="314.2386" cy="-60" rx="3.5" ry="3.5"/>
</g>
<!-- 4203&#45;&gt;4204 -->
<g id="edge15" class="edge">
<title>4203&#45;&gt;4204</title>
<path fill="none" stroke="#c0c0c0" d="M314.2386,-24.8899C314.2386,-27.8675 314.2386,-37.7753 314.2386,-46.3097"/>
<polygon fill="#c0c0c0" stroke="#c0c0c0" points="310.7387,-46.3165 314.2386,-56.3165 317.7387,-46.3166 310.7387,-46.3165"/>
</g>
<!-- 4205 -->
<g id="node17" class="node">
<title>4205</title>
<ellipse fill="#d3d3d3" stroke="#c0c0c0" cx="458.2386" cy="-60" rx="3.5" ry="3.5"/>
</g>
<!-- 4204&#45;&gt;4205 -->
<g id="edge16" class="edge">
<title>4204&#45;&gt;4205</title>
<path fill="none" stroke="#c0c0c0" d="M317.7982,-60C335.3097,-60 412.7465,-60 444.5414,-60"/>
<polygon fill="#c0c0c0" stroke="#c0c0c0" points="444.5435,-63.5001 454.5434,-60 444.5434,-56.5001 444.5435,-63.5001"/>
<text text-anchor="middle" x="404.7878" y="-51" font-family="Arial" font-size="10.00" fill="#000000">Kattenburger&#45;plein</text>
<text text-anchor="middle" x="404.7878" y="-39" font-family="Arial" font-size="10.00" fill="#000000"> &#160;&#45;gracht</text>
<text text-anchor="middle" x="404.7878" y="-27" font-family="Arial" font-size="10.00" fill="#000000"> &#160;Wittenburgergracht</text>
<text text-anchor="middle" x="404.7878" y="-15" font-family="Arial" font-size="10.00" fill="#000000"> &#160;Oostenburgergracht</text>
<text text-anchor="middle" x="404.7878" y="-3" font-family="Arial" font-size="10.00" fill="#000000"> &#160;Cruquiuskade</text>
</g>
<!-- 4206 -->
<g id="node18" class="node">
<title>4206</title>
<ellipse fill="#d3d3d3" stroke="#c0c0c0" cx="458.2386" cy="-24" rx="3.5" ry="3.5"/>
</g>
<!-- 4205&#45;&gt;4206 -->
<g id="edge17" class="edge">
<title>4205&#45;&gt;4206</title>
<path fill="none" stroke="#c0c0c0" d="M458.2386,-56.4166C458.2386,-52.1482 458.2386,-44.7587 458.2386,-38.1119"/>
<polygon fill="#c0c0c0" stroke="#c0c0c0" points="461.7387,-37.7846 458.2386,-27.7846 454.7387,-37.7846 461.7387,-37.7846"/>
<text text-anchor="middle" x="486.3036" y="-38.2642" font-family="Arial" font-size="10.00" fill="#000000">Panamalaan</text>
</g>
<!-- 4207 -->
<g id="node19" class="node">
<title>4207</title>
<ellipse fill="#d3d3d3" stroke="#c0c0c0" cx="530.2386" cy="-24" rx="3.5" ry="3.5"/>
</g>
<!-- 4206&#45;&gt;4207 -->
<g id="edge18" class="edge">
<title>4206&#45;&gt;4207</title>
<path fill="none" stroke="#c0c0c0" d="M462.1096,-24C472.1649,-24 499.4978,-24 516.3289,-24"/>
<polygon fill="#c0c0c0" stroke="#c0c0c0" points="516.6927,-27.5001 526.6927,-24 516.6926,-20.5001 516.6927,-27.5001"/>
<text text-anchor="middle" x="489.2193" y="-15" font-family="Arial" font-size="10.00" fill="#000000">Zeeburgerpad</text>
</g>
<!-- 4208 -->
<g id="node20" class="node">
<title>4208</title>
<ellipse fill="#d3d3d3" stroke="#c0c0c0" cx="530.2386" cy="-60" rx="3.5" ry="3.5"/>
</g>
<!-- 4207&#45;&gt;4208 -->
<g id="edge19" class="edge">
<title>4207&#45;&gt;4208</title>
<path fill="none" stroke="#c0c0c0" d="M530.2386,-27.5834C530.2386,-31.8518 530.2386,-39.2413 530.2386,-45.8881"/>
<polygon fill="#c0c0c0" stroke="#c0c0c0" points="526.7387,-46.2154 530.2386,-56.2154 533.7387,-46.2154 526.7387,-46.2154"/>
<text text-anchor="middle" x="584.1481" y="-39.7358" font-family="Arial" font-size="10.00" fill="#000000">Th. K. van Lohuizenlaan</text>
</g>
<!-- 4209 -->
<g id="node21" class="node">
<title>4209</title>
<ellipse fill="#d3d3d3" stroke="#c0c0c0" cx="674.2386" cy="-60" rx="26.7557" ry="26.7557"/>
<text text-anchor="middle" x="674.2386" y="-57" font-family="Arial" font-size="10.00" fill="#000000">CRU</text>
</g>
<!-- 4208&#45;&gt;4209 -->
<g id="edge20" class="edge">
<title>4208&#45;&gt;4209</title>
<path fill="none" stroke="#c0c0c0" d="M533.7982,-60C547.8313,-60 600.3479,-60 637.0199,-60"/>
<polygon fill="#c0c0c0" stroke="#c0c0c0" points="637.3644,-63.5001 647.3644,-60 637.3644,-56.5001 637.3644,-63.5001"/>
<text text-anchor="middle" x="614.579" y="-63" font-family="Arial" font-size="10.00" fill="#000000">Cruquiusweg</text>
</g>
</g>
</svg>

