<?xml version="1.0" encoding="UTF-8" standalone="no"?>
<!DOCTYPE svg PUBLIC "-//W3C//DTD SVG 1.1//EN"
 "http://www.w3.org/Graphics/SVG/1.1/DTD/svg11.dtd">
<!-- Generated by graphviz version 2.40.1 (20161225.0304)
 -->
<!-- Title: G Pages: 1 -->
<svg width="555pt" height="483pt"
 viewBox="0.00 0.00 554.71 482.94" xmlns="http://www.w3.org/2000/svg" xmlns:xlink="http://www.w3.org/1999/xlink">
<g id="graph0" class="graph" transform="scale(1 1) rotate(0) translate(4 478.9355)">
<title>G</title>
<polygon fill="#ffffff" stroke="transparent" points="-4,4 -4,-478.9355 550.7056,-478.9355 550.7056,4 -4,4"/>
<text text-anchor="middle" x="273.3528" y="-5.8" font-family="Times,serif" font-size="6.00" fill="#000000">*Gebruik bij terugkomst (1): Bijlmermeer</text>
<!-- 4900 -->
<g id="node1" class="node">
<title>4900</title>
<ellipse fill="#d3d3d3" stroke="#c0c0c0" cx="22.3155" cy="-327.4355" rx="22.1325" ry="22.1325"/>
<text text-anchor="middle" x="22.3155" y="-325.3355" font-family="Times,serif" font-size="7.00" fill="#000000">BMR</text>
</g>
<!-- 4901 -->
<g id="node2" class="node">
<title>4901</title>
<ellipse fill="#d3d3d3" stroke="#c0c0c0" cx="94.3155" cy="-327.4355" rx="3.5" ry="3.5"/>
</g>
<!-- 4900&#45;&gt;4901 -->
<g id="edge1" class="edge">
<title>4900&#45;&gt;4901</title>
<path fill="none" stroke="#c0c0c0" d="M44.7021,-327.4355C56.4413,-327.4355 70.4454,-327.4355 80.5771,-327.4355"/>
<polygon fill="#c0c0c0" stroke="#c0c0c0" points="80.6024,-330.9356 90.6024,-327.4355 80.6023,-323.9356 80.6024,-330.9356"/>
<text text-anchor="middle" x="73.3293" y="-321.1355" font-family="Times,serif" font-size="7.00" fill="#000000">Hoogoorddreef</text>
</g>
<!-- 4902 -->
<g id="node3" class="node">
<title>4902</title>
<ellipse fill="#d3d3d3" stroke="#c0c0c0" cx="94.3155" cy="-255.4355" rx="3.5" ry="3.5"/>
</g>
<!-- 4901&#45;&gt;4902 -->
<g id="edge2" class="edge">
<title>4901&#45;&gt;4902</title>
<path fill="none" stroke="#c0c0c0" d="M94.3155,-323.5645C94.3155,-313.5092 94.3155,-286.1763 94.3155,-269.3452"/>
<polygon fill="#c0c0c0" stroke="#c0c0c0" points="97.8156,-268.9814 94.3155,-258.9815 90.8156,-268.9815 97.8156,-268.9814"/>
<text text-anchor="middle" x="73.031" y="-306.9548" font-family="Times,serif" font-size="7.00" fill="#000000">Foppingadreef </text>
<text text-anchor="middle" x="73.031" y="-298.5548" font-family="Times,serif" font-size="7.00" fill="#000000"> (lijn 49, 360)</text>
</g>
<!-- 6601 -->
<g id="node12" class="node">
<title>6601</title>
<ellipse fill="#d3d3d3" stroke="#c0c0c0" cx="94.3155" cy="-399.4355" rx="3.5" ry="3.5"/>
</g>
<!-- 4901&#45;&gt;6601 -->
<g id="edge14" class="edge">
<title>4901&#45;&gt;6601</title>
<path fill="none" stroke="#c0c0c0" d="M94.3155,-331.3066C94.3155,-341.3618 94.3155,-368.6947 94.3155,-385.5259"/>
<polygon fill="#c0c0c0" stroke="#c0c0c0" points="90.8156,-385.8896 94.3155,-395.8896 97.8156,-385.8896 90.8156,-385.8896"/>
<text text-anchor="middle" x="73.031" y="-368.9162" font-family="Times,serif" font-size="7.00" fill="#000000">Foppingadreef </text>
<text text-anchor="middle" x="73.031" y="-360.5162" font-family="Times,serif" font-size="7.00" fill="#000000"> (lijn 66)</text>
</g>
<!-- 4903 -->
<g id="node4" class="node">
<title>4903</title>
<ellipse fill="#d3d3d3" stroke="#c0c0c0" cx="166.3155" cy="-255.4355" rx="3.5" ry="3.5"/>
</g>
<!-- 4902&#45;&gt;4903 -->
<g id="edge3" class="edge">
<title>4902&#45;&gt;4903</title>
<path fill="none" stroke="#c0c0c0" d="M98.1865,-255.4355C108.2418,-255.4355 135.5747,-255.4355 152.4059,-255.4355"/>
<polygon fill="#c0c0c0" stroke="#c0c0c0" points="152.7695,-258.9354 162.7696,-255.4355 152.7696,-251.9354 152.7695,-258.9354"/>
<text text-anchor="middle" x="143.3667" y="-257.5355" font-family="Times,serif" font-size="7.00" fill="#000000">Karspeldreef</text>
</g>
<!-- 4904 -->
<g id="node5" class="node">
<title>4904</title>
<ellipse fill="#d3d3d3" stroke="#c0c0c0" cx="310.3155" cy="-255.4355" rx="3.5" ry="3.5"/>
</g>
<!-- 4903&#45;&gt;4904 -->
<g id="edge4" class="edge">
<title>4903&#45;&gt;4904</title>
<path fill="none" stroke="#c0c0c0" d="M169.8751,-255.4355C187.3866,-255.4355 264.8234,-255.4355 296.6183,-255.4355"/>
<polygon fill="#c0c0c0" stroke="#c0c0c0" points="296.6204,-258.9356 306.6204,-255.4355 296.6203,-251.9356 296.6204,-258.9356"/>
<text text-anchor="middle" x="214.3012" y="-265.9355" font-family="Times,serif" font-size="7.00" fill="#000000">Karspeldreef </text>
<text text-anchor="middle" x="214.3012" y="-257.5355" font-family="Times,serif" font-size="7.00" fill="#000000"> (lijn 49)</text>
</g>
<!-- 36001 -->
<g id="node22" class="node">
<title>36001</title>
<ellipse fill="#d3d3d3" stroke="#c0c0c0" cx="166.3155" cy="-183.4355" rx="3.5" ry="3.5"/>
</g>
<!-- 4903&#45;&gt;36001 -->
<g id="edge11" class="edge">
<title>4903&#45;&gt;36001</title>
<path fill="none" stroke="#c0c0c0" d="M166.3155,-251.5645C166.3155,-241.5092 166.3155,-214.1763 166.3155,-197.3452"/>
<polygon fill="#c0c0c0" stroke="#c0c0c0" points="169.8156,-196.9814 166.3155,-186.9815 162.8156,-196.9815 169.8156,-196.9814"/>
<text text-anchor="middle" x="149.6961" y="-234.9548" font-family="Times,serif" font-size="7.00" fill="#000000">Gooiseweg </text>
<text text-anchor="middle" x="149.6961" y="-226.5548" font-family="Times,serif" font-size="7.00" fill="#000000"> (lijn 360)</text>
</g>
<!-- 4905 -->
<g id="node6" class="node">
<title>4905</title>
<ellipse fill="#d3d3d3" stroke="#c0c0c0" cx="310.3155" cy="-183.4355" rx="3.5" ry="3.5"/>
</g>
<!-- 4904&#45;&gt;4905 -->
<g id="edge5" class="edge">
<title>4904&#45;&gt;4905</title>
<path fill="none" stroke="#c0c0c0" d="M310.3155,-251.5645C310.3155,-241.5092 310.3155,-214.1763 310.3155,-197.3452"/>
<polygon fill="#c0c0c0" stroke="#c0c0c0" points="313.8156,-196.9814 310.3155,-186.9815 306.8156,-196.9815 313.8156,-196.9814"/>
<text text-anchor="middle" x="288.7415" y="-226.5548" font-family="Times,serif" font-size="7.00" fill="#000000">Kromwijkdreef</text>
</g>
<!-- 4906 -->
<g id="node7" class="node">
<title>4906</title>
<ellipse fill="#d3d3d3" stroke="#c0c0c0" cx="310.3155" cy="-111.4355" rx="3.5" ry="3.5"/>
</g>
<!-- 4905&#45;&gt;4906 -->
<g id="edge6" class="edge">
<title>4905&#45;&gt;4906</title>
<path fill="none" stroke="#c0c0c0" d="M310.3155,-179.5645C310.3155,-169.5092 310.3155,-142.1763 310.3155,-125.3452"/>
<polygon fill="#c0c0c0" stroke="#c0c0c0" points="313.8156,-124.9814 310.3155,-114.9815 306.8156,-124.9815 313.8156,-124.9814"/>
<text text-anchor="middle" x="286.5085" y="-162.9548" font-family="Times,serif" font-size="7.00" fill="#000000">Loosdrechtdreef </text>
<text text-anchor="middle" x="286.5085" y="-154.5548" font-family="Times,serif" font-size="7.00" fill="#000000"> (lijn 49)</text>
</g>
<!-- 6607 -->
<g id="node18" class="node">
<title>6607</title>
<ellipse fill="#d3d3d3" stroke="#c0c0c0" cx="382.3155" cy="-183.4355" rx="3.5" ry="3.5"/>
</g>
<!-- 4905&#45;&gt;6607 -->
<g id="edge25" class="edge">
<title>4905&#45;&gt;6607</title>
<path fill="none" stroke="#c0c0c0" d="M314.1865,-183.4355C324.2418,-183.4355 351.5747,-183.4355 368.4059,-183.4355"/>
<polygon fill="#c0c0c0" stroke="#c0c0c0" points="368.7695,-186.9354 378.7696,-183.4355 368.7696,-179.9354 368.7695,-186.9354"/>
<text text-anchor="middle" x="352.715" y="-177.1355" font-family="Times,serif" font-size="7.00" fill="#000000">[A9] </text>
<text text-anchor="middle" x="352.715" y="-168.7355" font-family="Times,serif" font-size="7.00" fill="#000000"> [A1]: Zaanstad </text>
<text text-anchor="middle" x="352.715" y="-160.3355" font-family="Times,serif" font-size="7.00" fill="#000000"> (1a): IJburg </text>
<text text-anchor="middle" x="352.715" y="-151.9355" font-family="Times,serif" font-size="7.00" fill="#000000"> (lijn 360)*</text>
</g>
<!-- 4907 -->
<g id="node8" class="node">
<title>4907</title>
<ellipse fill="#d3d3d3" stroke="#c0c0c0" cx="238.3155" cy="-111.4355" rx="3.5" ry="3.5"/>
</g>
<!-- 4906&#45;&gt;4907 -->
<g id="edge7" class="edge">
<title>4906&#45;&gt;4907</title>
<path fill="none" stroke="#c0c0c0" d="M306.4445,-111.4355C296.3892,-111.4355 269.0563,-111.4355 252.2252,-111.4355"/>
<polygon fill="#c0c0c0" stroke="#c0c0c0" points="251.8615,-107.9356 241.8614,-111.4355 251.8614,-114.9356 251.8615,-107.9356"/>
<text text-anchor="middle" x="279.3348" y="-105.1355" font-family="Times,serif" font-size="7.00" fill="#000000">Provincialeweg </text>
<text text-anchor="middle" x="279.3348" y="-96.7355" font-family="Times,serif" font-size="7.00" fill="#000000"> Gooilandseweg</text>
</g>
<!-- 4908 -->
<g id="node9" class="node">
<title>4908</title>
<ellipse fill="#d3d3d3" stroke="#c0c0c0" cx="238.3155" cy="-39.4355" rx="3.5" ry="3.5"/>
</g>
<!-- 4907&#45;&gt;4908 -->
<g id="edge8" class="edge">
<title>4907&#45;&gt;4908</title>
<path fill="none" stroke="#c0c0c0" d="M238.3155,-107.5645C238.3155,-97.5092 238.3155,-70.1763 238.3155,-53.3452"/>
<polygon fill="#c0c0c0" stroke="#c0c0c0" points="241.8156,-52.9814 238.3155,-42.9815 234.8156,-52.9815 241.8156,-52.9814"/>
<text text-anchor="middle" x="209.0587" y="-74.1548" font-family="Times,serif" font-size="7.00" fill="#000000">C.J. van Houtenlaan </text>
<text text-anchor="middle" x="209.0587" y="-65.7548" font-family="Times,serif" font-size="7.00" fill="#000000"> Prinses Irenelaan </text>
<text text-anchor="middle" x="209.0587" y="-57.3548" font-family="Times,serif" font-size="7.00" fill="#000000"> Casparuslaan</text>
</g>
<!-- 4909 -->
<g id="node10" class="node">
<title>4909</title>
<ellipse fill="#d3d3d3" stroke="#c0c0c0" cx="166.3155" cy="-39.4355" rx="3.5" ry="3.5"/>
</g>
<!-- 4908&#45;&gt;4909 -->
<g id="edge9" class="edge">
<title>4908&#45;&gt;4909</title>
<path fill="none" stroke="#c0c0c0" d="M234.4445,-39.4355C224.3892,-39.4355 197.0563,-39.4355 180.2252,-39.4355"/>
<polygon fill="#c0c0c0" stroke="#c0c0c0" points="179.8615,-35.9356 169.8614,-39.4355 179.8614,-42.9356 179.8615,-35.9356"/>
<text text-anchor="middle" x="189.5506" y="-33.1355" font-family="Times,serif" font-size="7.00" fill="#000000">Plataanlaan </text>
<text text-anchor="middle" x="189.5506" y="-24.7355" font-family="Times,serif" font-size="7.00" fill="#000000"> Herensingel</text>
</g>
<!-- 4910 -->
<g id="node11" class="node">
<title>4910</title>
<ellipse fill="#d3d3d3" stroke="#c0c0c0" cx="166.3155" cy="-111.4355" rx="21.4778" ry="21.4778"/>
<text text-anchor="middle" x="166.3155" y="-109.3355" font-family="Times,serif" font-size="7.00" fill="#000000">SWP</text>
</g>
<!-- 4909&#45;&gt;4910 -->
<g id="edge10" class="edge">
<title>4909&#45;&gt;4910</title>
<path fill="none" stroke="#c0c0c0" d="M166.3155,-43.3066C166.3155,-50.2638 166.3155,-65.4924 166.3155,-79.7908"/>
<polygon fill="#c0c0c0" stroke="#c0c0c0" points="162.8156,-79.9063 166.3155,-89.9063 169.8156,-79.9063 162.8156,-79.9063"/>
<text text-anchor="middle" x="143.2831" y="-72.0487" font-family="Times,serif" font-size="7.00" fill="#000000">M. Nijfoffstraat </text>
<text text-anchor="middle" x="143.2831" y="-63.6487" font-family="Times,serif" font-size="7.00" fill="#000000"> Herensingel</text>
</g>
<!-- 6602 -->
<g id="node13" class="node">
<title>6602</title>
<ellipse fill="#d3d3d3" stroke="#c0c0c0" cx="238.3155" cy="-399.4355" rx="3.5" ry="3.5"/>
</g>
<!-- 6601&#45;&gt;6602 -->
<g id="edge15" class="edge">
<title>6601&#45;&gt;6602</title>
<path fill="none" stroke="#c0c0c0" d="M97.8751,-399.4355C115.3866,-399.4355 192.8234,-399.4355 224.6183,-399.4355"/>
<polygon fill="#c0c0c0" stroke="#c0c0c0" points="224.6204,-402.9356 234.6204,-399.4355 224.6203,-395.9356 224.6204,-402.9356"/>
<text text-anchor="middle" x="143.3655" y="-401.5355" font-family="Times,serif" font-size="7.00" fill="#000000">Bijlmerdreef</text>
</g>
<!-- 6603 -->
<g id="node14" class="node">
<title>6603</title>
<ellipse fill="#d3d3d3" stroke="#c0c0c0" cx="238.3155" cy="-471.4355" rx="3.5" ry="3.5"/>
</g>
<!-- 6602&#45;&gt;6603 -->
<g id="edge16" class="edge">
<title>6602&#45;&gt;6603</title>
<path fill="none" stroke="#c0c0c0" d="M238.3155,-403.3066C238.3155,-413.3618 238.3155,-440.6947 238.3155,-457.5259"/>
<polygon fill="#c0c0c0" stroke="#c0c0c0" points="234.8156,-457.8896 238.3155,-467.8896 241.8156,-457.8896 234.8156,-457.8896"/>
<text text-anchor="middle" x="221.7955" y="-432.5162" font-family="Times,serif" font-size="7.00" fill="#000000">Elsrijkdreef</text>
</g>
<!-- 6604 -->
<g id="node15" class="node">
<title>6604</title>
<ellipse fill="#d3d3d3" stroke="#c0c0c0" cx="310.3155" cy="-471.4355" rx="3.5" ry="3.5"/>
</g>
<!-- 6603&#45;&gt;6604 -->
<g id="edge17" class="edge">
<title>6603&#45;&gt;6604</title>
<path fill="none" stroke="#c0c0c0" d="M242.1865,-471.4355C252.2418,-471.4355 279.5747,-471.4355 296.4059,-471.4355"/>
<polygon fill="#c0c0c0" stroke="#c0c0c0" points="296.7696,-474.9356 306.7696,-471.4355 296.7695,-467.9356 296.7696,-474.9356"/>
<text text-anchor="middle" x="280.1812" y="-465.1355" font-family="Times,serif" font-size="7.00" fill="#000000">Provincialeweg</text>
</g>
<!-- 6605 -->
<g id="node16" class="node">
<title>6605</title>
<ellipse fill="#d3d3d3" stroke="#c0c0c0" cx="310.3155" cy="-399.4355" rx="3.5" ry="3.5"/>
</g>
<!-- 6604&#45;&gt;6605 -->
<g id="edge18" class="edge">
<title>6604&#45;&gt;6605</title>
<path fill="none" stroke="#c0c0c0" d="M310.3155,-467.5645C310.3155,-457.5092 310.3155,-430.1763 310.3155,-413.3452"/>
<polygon fill="#c0c0c0" stroke="#c0c0c0" points="313.8156,-412.9814 310.3155,-402.9815 306.8156,-412.9815 313.8156,-412.9814"/>
<text text-anchor="middle" x="286.6037" y="-442.5548" font-family="Times,serif" font-size="7.00" fill="#000000">Muiderstraatweg</text>
</g>
<!-- 6606 -->
<g id="node17" class="node">
<title>6606</title>
<ellipse fill="#d3d3d3" stroke="#c0c0c0" cx="382.3155" cy="-399.4355" rx="3.5" ry="3.5"/>
</g>
<!-- 6605&#45;&gt;6606 -->
<g id="edge19" class="edge">
<title>6605&#45;&gt;6606</title>
<path fill="none" stroke="#c0c0c0" d="M314.1865,-399.4355C324.2418,-399.4355 351.5747,-399.4355 368.4059,-399.4355"/>
<polygon fill="#c0c0c0" stroke="#c0c0c0" points="368.7696,-402.9356 378.7696,-399.4355 368.7695,-395.9356 368.7696,-402.9356"/>
<text text-anchor="middle" x="360.1479" y="-401.5355" font-family="Times,serif" font-size="7.00" fill="#000000">Weteringweg</text>
</g>
<!-- 6606&#45;&gt;6607 -->
<g id="edge20" class="edge">
<title>6606&#45;&gt;6607</title>
<path fill="none" stroke="#c0c0c0" d="M382.3155,-395.6864C382.3155,-371.7737 382.3155,-240.2062 382.3155,-197.1087"/>
<polygon fill="#c0c0c0" stroke="#c0c0c0" points="385.8156,-196.9544 382.3155,-186.9545 378.8156,-196.9545 385.8156,-196.9544"/>
<text text-anchor="middle" x="357.0494" y="-298.4976" font-family="Times,serif" font-size="7.00" fill="#000000">Diemerpolderweg</text>
</g>
<!-- 6608 -->
<g id="node19" class="node">
<title>6608</title>
<ellipse fill="#d3d3d3" stroke="#c0c0c0" cx="382.3155" cy="-39.4355" rx="3.5" ry="3.5"/>
</g>
<!-- 6607&#45;&gt;6608 -->
<g id="edge21" class="edge">
<title>6607&#45;&gt;6608</title>
<path fill="none" stroke="#c0c0c0" d="M382.3155,-179.8759C382.3155,-162.3644 382.3155,-84.9277 382.3155,-53.1327"/>
<polygon fill="#c0c0c0" stroke="#c0c0c0" points="385.8156,-53.1306 382.3155,-43.1307 378.8156,-53.1307 385.8156,-53.1306"/>
<text text-anchor="middle" x="353.1577" y="-135.4043" font-family="Times,serif" font-size="7.00" fill="#000000">Diemerpolderweg </text>
<text text-anchor="middle" x="353.1577" y="-127.0043" font-family="Times,serif" font-size="7.00" fill="#000000"> Fortdiemerdamweg </text>
<text text-anchor="middle" x="353.1577" y="-118.6043" font-family="Times,serif" font-size="7.00" fill="#000000"> Muiderlaan</text>
</g>
<!-- 6609 -->
<g id="node20" class="node">
<title>6609</title>
<ellipse fill="#d3d3d3" stroke="#c0c0c0" cx="454.3155" cy="-39.4355" rx="3.5" ry="3.5"/>
</g>
<!-- 6608&#45;&gt;6609 -->
<g id="edge23" class="edge">
<title>6608&#45;&gt;6609</title>
<path fill="none" stroke="#c0c0c0" d="M386.1865,-39.4355C396.2418,-39.4355 423.5747,-39.4355 440.4059,-39.4355"/>
<polygon fill="#c0c0c0" stroke="#c0c0c0" points="440.7696,-42.9356 450.7696,-39.4355 440.7695,-35.9356 440.7696,-42.9356"/>
<text text-anchor="middle" x="431.0843" y="-49.9355" font-family="Times,serif" font-size="7.00" fill="#000000">Pampuslaan </text>
<text text-anchor="middle" x="431.0843" y="-41.5355" font-family="Times,serif" font-size="7.00" fill="#000000"> (lijn 66)</text>
</g>
<!-- 36003 -->
<g id="node24" class="node">
<title>36003</title>
<ellipse fill="#d3d3d3" stroke="#c0c0c0" cx="310.3155" cy="-39.4355" rx="24.4733" ry="24.4733"/>
<text text-anchor="middle" x="310.3155" y="-37.3355" font-family="Times,serif" font-size="7.00" fill="#000000">BEDL</text>
</g>
<!-- 6608&#45;&gt;36003 -->
<g id="edge22" class="edge">
<title>6608&#45;&gt;36003</title>
<path fill="none" stroke="#c0c0c0" d="M378.4445,-39.4355C371.9272,-39.4355 358.1516,-39.4355 344.6817,-39.4355"/>
<polygon fill="#c0c0c0" stroke="#c0c0c0" points="344.566,-35.9356 334.566,-39.4355 344.5659,-42.9356 344.566,-35.9356"/>
<text text-anchor="middle" x="352.669" y="-33.1355" font-family="Times,serif" font-size="7.00" fill="#000000">Pampuslaan </text>
<text text-anchor="middle" x="352.669" y="-24.7355" font-family="Times,serif" font-size="7.00" fill="#000000"> (lijn 360)</text>
</g>
<!-- 6610 -->
<g id="node21" class="node">
<title>6610</title>
<ellipse fill="#d3d3d3" stroke="#c0c0c0" cx="526.3155" cy="-39.4355" rx="20.2807" ry="20.2807"/>
<text text-anchor="middle" x="526.3155" y="-37.3355" font-family="Times,serif" font-size="7.00" fill="#000000">VPS</text>
</g>
<!-- 6609&#45;&gt;6610 -->
<g id="edge24" class="edge">
<title>6609&#45;&gt;6610</title>
<path fill="none" stroke="#c0c0c0" d="M458.1865,-39.4355C465.2849,-39.4355 480.9932,-39.4355 495.5391,-39.4355"/>
<polygon fill="#c0c0c0" stroke="#c0c0c0" points="495.7856,-42.9356 505.7856,-39.4355 495.7855,-35.9356 495.7856,-42.9356"/>
<text text-anchor="middle" x="484.2485" y="-33.1355" font-family="Times,serif" font-size="7.00" fill="#000000">IJburglaan</text>
</g>
<!-- 36002 -->
<g id="node23" class="node">
<title>36002</title>
<ellipse fill="#d3d3d3" stroke="#c0c0c0" cx="238.3155" cy="-183.4355" rx="3.5" ry="3.5"/>
</g>
<!-- 36001&#45;&gt;36002 -->
<g id="edge12" class="edge">
<title>36001&#45;&gt;36002</title>
<path fill="none" stroke="#c0c0c0" d="M170.1865,-183.4355C180.2418,-183.4355 207.5747,-183.4355 224.4059,-183.4355"/>
<polygon fill="#c0c0c0" stroke="#c0c0c0" points="224.7695,-186.9354 234.7696,-183.4355 224.7696,-179.9354 224.7695,-186.9354"/>
<text text-anchor="middle" x="208.4703" y="-177.1355" font-family="Times,serif" font-size="7.00" fill="#000000">Langbroekdreef</text>
</g>
<!-- 36002&#45;&gt;4905 -->
<g id="edge13" class="edge">
<title>36002&#45;&gt;4905</title>
<path fill="none" stroke="#c0c0c0" d="M252.2849,-183.4355C265.0508,-183.4355 283.8214,-183.4355 296.5294,-183.4355"/>
<polygon fill="#c0c0c0" stroke="#c0c0c0" points="252.1866,-179.9356 242.1865,-183.4355 252.1865,-186.9356 252.1866,-179.9356"/>
<polygon fill="#c0c0c0" stroke="#c0c0c0" points="296.7696,-186.9356 306.7696,-183.4355 296.7695,-179.9356 296.7696,-186.9356"/>
<text text-anchor="middle" x="251.184" y="-202.3355" font-family="Times,serif" font-size="7.00" fill="#000000">Langbroekdreef </text>
<text text-anchor="middle" x="251.184" y="-193.9355" font-family="Times,serif" font-size="7.00" fill="#000000"> (lijn 49 via</text>
<text text-anchor="middle" x="251.184" y="-185.5355" font-family="Times,serif" font-size="7.00" fill="#000000">St. Gaasperplas)</text>
</g>
</g>
</svg>

