<?xml version="1.0" encoding="UTF-8" standalone="no"?>
<!DOCTYPE svg PUBLIC "-//W3C//DTD SVG 1.1//EN"
 "http://www.w3.org/Graphics/SVG/1.1/DTD/svg11.dtd">
<!-- Generated by graphviz version 2.40.1 (20161225.0304)
 -->
<!-- Title: G Pages: 1 -->
<svg width="247pt" height="637pt"
 viewBox="0.00 0.00 246.56 637.22" xmlns="http://www.w3.org/2000/svg" xmlns:xlink="http://www.w3.org/1999/xlink">
<g id="graph0" class="graph" transform="scale(1 1) rotate(0) translate(4 633.2167)">
<title>G</title>
<polygon fill="#ffffff" stroke="transparent" points="-4,4 -4,-633.2167 242.5638,-633.2167 242.5638,4 -4,4"/>
<text text-anchor="middle" x="119.2819" y="-5.8" font-family="Times,serif" font-size="6.00" fill="#000000">* Bij terugkomst gebruikt u afrit (5): De Baarsjes</text>
<!-- GW -->
<g id="node1" class="node">
<title>GW</title>
<ellipse fill="#d3d3d3" stroke="#c0c0c0" cx="91.0638" cy="-104" rx="19.6737" ry="19.6737"/>
<text text-anchor="middle" x="91.0638" y="-101.9" font-family="Arial" font-size="7.00" fill="#000000">GW</text>
</g>
<!-- GW01 -->
<g id="node6" class="node">
<title>GW01</title>
<ellipse fill="#d3d3d3" stroke="#c0c0c0" cx="91.0638" cy="-176" rx="3.5" ry="3.5"/>
</g>
<!-- GW&#45;&gt;GW01 -->
<g id="edge1" class="edge">
<title>GW&#45;&gt;GW01</title>
<path fill="none" stroke="#c0c0c0" d="M91.0638,-124.056C91.0638,-136.1385 91.0638,-151.2236 91.0638,-162.0194"/>
<polygon fill="#c0c0c0" stroke="#c0c0c0" points="87.5639,-162.2852 91.0638,-172.2853 94.5639,-162.2853 87.5639,-162.2852"/>
<text text-anchor="middle" x="64.6122" y="-145.1377" font-family="Arial" font-size="7.00" fill="#000000">Jan Tooropstraat</text>
</g>
<!-- GW05 -->
<g id="node10" class="node">
<title>GW05</title>
<ellipse fill="#d3d3d3" stroke="#c0c0c0" cx="91.0638" cy="-32" rx="3.5" ry="3.5"/>
</g>
<!-- GW&#45;&gt;GW05 -->
<g id="edge2" class="edge">
<title>GW&#45;&gt;GW05</title>
<path fill="none" stroke="#c0c0c0" d="M91.0638,-83.944C91.0638,-71.8615 91.0638,-56.7764 91.0638,-45.9806"/>
<polygon fill="#c0c0c0" stroke="#c0c0c0" points="94.5639,-45.7147 91.0638,-35.7147 87.5639,-45.7148 94.5639,-45.7147"/>
<text text-anchor="middle" x="64.6122" y="-67.0623" font-family="Arial" font-size="7.00" fill="#000000">Jan Tooropstraat</text>
</g>
<!-- LLL -->
<g id="node2" class="node">
<title>LLL</title>
<ellipse fill="#d3d3d3" stroke="#c0c0c0" cx="91.0638" cy="-248" rx="19.637" ry="19.637"/>
<text text-anchor="middle" x="91.0638" y="-245.9" font-family="Arial" font-size="7.00" fill="#000000">LLL</text>
</g>
<!-- MTH -->
<g id="node3" class="node">
<title>MTH</title>
<ellipse fill="#d3d3d3" stroke="#c0c0c0" cx="163.0638" cy="-104" rx="22.0668" ry="22.0668"/>
<text text-anchor="middle" x="163.0638" y="-101.9" font-family="Arial" font-size="7.00" fill="#000000">MTH</text>
</g>
<!-- HMM -->
<g id="node4" class="node">
<title>HMM</title>
<ellipse fill="#d3d3d3" stroke="#c0c0c0" cx="163.0638" cy="-320" rx="22.1227" ry="22.1227"/>
<text text-anchor="middle" x="163.0638" y="-317.9" font-family="Arial" font-size="7.00" fill="#000000">HMS</text>
</g>
<!-- ASA -->
<g id="node5" class="node">
<title>ASA</title>
<ellipse fill="#d3d3d3" stroke="#c0c0c0" cx="91.0638" cy="-608" rx="21.4356" ry="21.4356"/>
<text text-anchor="middle" x="91.0638" y="-605.9" font-family="Arial" font-size="7.00" fill="#000000">ASA</text>
</g>
<!-- GW02 -->
<g id="node7" class="node">
<title>GW02</title>
<ellipse fill="#d3d3d3" stroke="#c0c0c0" cx="163.0638" cy="-176" rx="3.5" ry="3.5"/>
</g>
<!-- GW01&#45;&gt;GW02 -->
<g id="edge3" class="edge">
<title>GW01&#45;&gt;GW02</title>
<path fill="none" stroke="#c0c0c0" d="M94.9348,-176C104.9901,-176 132.323,-176 149.1541,-176"/>
<polygon fill="#c0c0c0" stroke="#c0c0c0" points="149.5179,-179.5001 159.5179,-176 149.5178,-172.5001 149.5179,-179.5001"/>
<text text-anchor="middle" x="122.0445" y="-169.7" font-family="Arial" font-size="7.00" fill="#000000">Jan Evertsenstraat</text>
</g>
<!-- GW04 -->
<g id="node9" class="node">
<title>GW04</title>
<ellipse fill="#d3d3d3" stroke="#c0c0c0" cx="163.0638" cy="-248" rx="3.5" ry="3.5"/>
</g>
<!-- GW02&#45;&gt;GW04 -->
<g id="edge4" class="edge">
<title>GW02&#45;&gt;GW04</title>
<path fill="none" stroke="#c0c0c0" d="M163.0638,-179.871C163.0638,-189.9263 163.0638,-217.2592 163.0638,-234.0904"/>
<polygon fill="#c0c0c0" stroke="#c0c0c0" points="159.5639,-234.454 163.0638,-244.4541 166.5639,-234.4541 159.5639,-234.454"/>
<text text-anchor="middle" x="131.3598" y="-217.4807" font-family="Arial" font-size="7.00" fill="#000000">Oostoever </text>
<text text-anchor="middle" x="131.3598" y="-209.0807" font-family="Arial" font-size="7.00" fill="#000000"> Johan Huizingalaan</text>
</g>
<!-- GW03 -->
<g id="node8" class="node">
<title>GW03</title>
<ellipse fill="#d3d3d3" stroke="#c0c0c0" cx="235.0638" cy="-32" rx="3.5" ry="3.5"/>
</g>
<!-- GW06 -->
<g id="node11" class="node">
<title>GW06</title>
<ellipse fill="#d3d3d3" stroke="#c0c0c0" cx="235.0638" cy="-104" rx="3.5" ry="3.5"/>
</g>
<!-- GW03&#45;&gt;GW06 -->
<g id="edge5" class="edge">
<title>GW03&#45;&gt;GW06</title>
<path fill="none" stroke="#c0c0c0" d="M235.0638,-35.871C235.0638,-45.9263 235.0638,-73.2592 235.0638,-90.0903"/>
<polygon fill="#c0c0c0" stroke="#c0c0c0" points="231.5639,-90.454 235.0638,-100.4541 238.5639,-90.4541 231.5639,-90.454"/>
<text text-anchor="middle" x="200.0537" y="-73.4807" font-family="Arial" font-size="7.00" fill="#000000">President Allendelaan </text>
<text text-anchor="middle" x="200.0537" y="-65.0807" font-family="Arial" font-size="7.00" fill="#000000"> Ookmeerweg</text>
</g>
<!-- GW04&#45;&gt;LLL -->
<g id="edge6" class="edge">
<title>GW04&#45;&gt;LLL</title>
<path fill="none" stroke="#c0c0c0" d="M159.1928,-248C152.0004,-248 135.9685,-248 121.2629,-248"/>
<polygon fill="#c0c0c0" stroke="#c0c0c0" points="120.9347,-244.5001 110.9347,-248 120.9346,-251.5001 120.9347,-244.5001"/>
<text text-anchor="middle" x="168.0399" y="-241.7" font-family="Arial" font-size="7.00" fill="#000000">Pieter Calandlaan</text>
</g>
<!-- GW05&#45;&gt;GW03 -->
<g id="edge7" class="edge">
<title>GW05&#45;&gt;GW03</title>
<path fill="none" stroke="#c0c0c0" d="M94.6234,-32C112.1349,-32 189.5717,-32 221.3666,-32"/>
<polygon fill="#c0c0c0" stroke="#c0c0c0" points="221.3687,-35.5001 231.3686,-32 221.3686,-28.5001 221.3687,-35.5001"/>
<text text-anchor="middle" x="178.8665" y="-25.7" font-family="Arial" font-size="7.00" fill="#000000">Jan van Galenstraat </text>
<text text-anchor="middle" x="178.8665" y="-17.3" font-family="Arial" font-size="7.00" fill="#000000"> Burgemeester Röellstraat</text>
</g>
<!-- GW07 -->
<g id="node12" class="node">
<title>GW07</title>
<ellipse fill="#d3d3d3" stroke="#c0c0c0" cx="19.0638" cy="-32" rx="3.5" ry="3.5"/>
</g>
<!-- GW05&#45;&gt;GW07 -->
<g id="edge8" class="edge">
<title>GW05&#45;&gt;GW07</title>
<path fill="none" stroke="#c0c0c0" d="M87.1928,-32C77.1375,-32 49.8046,-32 32.9734,-32"/>
<polygon fill="#c0c0c0" stroke="#c0c0c0" points="32.6098,-28.5001 22.6097,-32 32.6097,-35.5001 32.6098,-28.5001"/>
<text text-anchor="middle" x="60.0831" y="-25.7" font-family="Arial" font-size="7.00" fill="#000000">Jan van Galenstraat</text>
</g>
<!-- GW06&#45;&gt;MTH -->
<g id="edge9" class="edge">
<title>GW06&#45;&gt;MTH</title>
<path fill="none" stroke="#c0c0c0" d="M231.1928,-104C224.3295,-104 209.417,-104 195.2887,-104"/>
<polygon fill="#c0c0c0" stroke="#c0c0c0" points="195.266,-100.5001 185.266,-104 195.2659,-107.5001 195.266,-100.5001"/>
<text text-anchor="middle" x="213.2407" y="-97.7" font-family="Arial" font-size="7.00" fill="#000000">Baldwinstraat</text>
</g>
<!-- GW08 -->
<g id="node13" class="node">
<title>GW08</title>
<ellipse fill="#d3d3d3" stroke="#c0c0c0" cx="19.0638" cy="-320" rx="3.5" ry="3.5"/>
</g>
<!-- GW07&#45;&gt;GW08 -->
<g id="edge10" class="edge">
<title>GW07&#45;&gt;GW08</title>
<path fill="none" stroke="#c0c0c0" d="M19.0638,-35.6414C19.0638,-64.275 19.0638,-253.4834 19.0638,-306.3186"/>
<polygon fill="#c0c0c0" stroke="#c0c0c0" points="15.5639,-306.4399 19.0638,-316.4399 22.5639,-306.44 15.5639,-306.4399"/>
<text text-anchor="middle" x="9.5319" y="-173.08" font-family="Arial" font-size="7.00" fill="#000000">[A10]*</text>
</g>
<!-- GW11 -->
<g id="node16" class="node">
<title>GW11</title>
<ellipse fill="#d3d3d3" stroke="#c0c0c0" cx="91.0638" cy="-320" rx="3.5" ry="3.5"/>
</g>
<!-- GW08&#45;&gt;GW11 -->
<g id="edge11" class="edge">
<title>GW08&#45;&gt;GW11</title>
<path fill="none" stroke="#c0c0c0" d="M22.9348,-320C32.9901,-320 60.323,-320 77.1541,-320"/>
<polygon fill="#c0c0c0" stroke="#c0c0c0" points="77.5179,-323.5001 87.5179,-320 77.5178,-316.5001 77.5179,-323.5001"/>
<text text-anchor="middle" x="61.6146" y="-313.7" font-family="Arial" font-size="7.00" fill="#000000">(7): Slotervaart</text>
</g>
<!-- GW14 -->
<g id="node18" class="node">
<title>GW14</title>
<ellipse fill="#d3d3d3" stroke="#c0c0c0" cx="19.0638" cy="-464" rx="3.5" ry="3.5"/>
</g>
<!-- GW08&#45;&gt;GW14 -->
<g id="edge12" class="edge">
<title>GW08&#45;&gt;GW14</title>
<path fill="none" stroke="#c0c0c0" d="M19.0638,-323.5596C19.0638,-341.0711 19.0638,-418.5079 19.0638,-450.3028"/>
<polygon fill="#c0c0c0" stroke="#c0c0c0" points="15.5639,-450.3048 19.0638,-460.3048 22.5639,-450.3049 15.5639,-450.3048"/>
<text text-anchor="middle" x="10.8931" y="-389.0312" font-family="Arial" font-size="7.00" fill="#000000">[A10]</text>
</g>
<!-- GW09 -->
<g id="node14" class="node">
<title>GW09</title>
<ellipse fill="#d3d3d3" stroke="#c0c0c0" cx="91.0638" cy="-392" rx="3.5" ry="3.5"/>
</g>
<!-- GW10 -->
<g id="node15" class="node">
<title>GW10</title>
<ellipse fill="#d3d3d3" stroke="#c0c0c0" cx="163.0638" cy="-392" rx="3.5" ry="3.5"/>
</g>
<!-- GW09&#45;&gt;GW10 -->
<g id="edge13" class="edge">
<title>GW09&#45;&gt;GW10</title>
<path fill="none" stroke="#c0c0c0" d="M94.9348,-392C104.9901,-392 132.323,-392 149.1541,-392"/>
<polygon fill="#c0c0c0" stroke="#c0c0c0" points="149.5179,-395.5001 159.5179,-392 149.5178,-388.5001 149.5179,-395.5001"/>
<text text-anchor="middle" x="122.0445" y="-385.7" font-family="Arial" font-size="7.00" fill="#000000">Hoofddorp&#45;plein </text>
<text text-anchor="middle" x="122.0445" y="-377.3" font-family="Arial" font-size="7.00" fill="#000000"> &#45;weg </text>
<text text-anchor="middle" x="122.0445" y="-368.9" font-family="Arial" font-size="7.00" fill="#000000"> Zeilstraat</text>
</g>
<!-- GW10&#45;&gt;HMM -->
<g id="edge14" class="edge">
<title>GW10&#45;&gt;HMM</title>
<path fill="none" stroke="#c0c0c0" d="M163.0638,-388.129C163.0638,-381.3789 163.0638,-366.8429 163.0638,-352.9245"/>
<polygon fill="#c0c0c0" stroke="#c0c0c0" points="166.5639,-352.5405 163.0638,-342.5405 159.5639,-352.5406 166.5639,-352.5405"/>
<text text-anchor="middle" x="191.4586" y="-372.6267" font-family="Arial" font-size="7.00" fill="#000000">Amstelveenseweg</text>
</g>
<!-- GW11&#45;&gt;GW09 -->
<g id="edge15" class="edge">
<title>GW11&#45;&gt;GW09</title>
<path fill="none" stroke="#c0c0c0" d="M91.0638,-323.871C91.0638,-333.9263 91.0638,-361.2592 91.0638,-378.0904"/>
<polygon fill="#c0c0c0" stroke="#c0c0c0" points="87.5639,-378.454 91.0638,-388.4541 94.5639,-378.4541 87.5639,-378.454"/>
<text text-anchor="middle" x="60.9165" y="-361.4807" font-family="Arial" font-size="7.00" fill="#000000">Henk Sneevletweg </text>
<text text-anchor="middle" x="60.9165" y="-353.0807" font-family="Arial" font-size="7.00" fill="#000000"> Aalsmeerweg</text>
</g>
<!-- GW13 -->
<g id="node17" class="node">
<title>GW13</title>
<ellipse fill="#d3d3d3" stroke="#c0c0c0" cx="91.0638" cy="-536" rx="3.5" ry="3.5"/>
</g>
<!-- GW13&#45;&gt;ASA -->
<g id="edge17" class="edge">
<title>GW13&#45;&gt;ASA</title>
<path fill="none" stroke="#c0c0c0" d="M91.0638,-539.871C91.0638,-546.8283 91.0638,-562.0569 91.0638,-576.3553"/>
<polygon fill="#c0c0c0" stroke="#c0c0c0" points="87.5639,-576.4708 91.0638,-586.4708 94.5639,-576.4708 87.5639,-576.4708"/>
<text text-anchor="middle" x="69.8674" y="-560.2132" font-family="Arial" font-size="7.00" fill="#000000">Overzichtweg</text>
</g>
<!-- GW15 -->
<g id="node19" class="node">
<title>GW15</title>
<ellipse fill="#d3d3d3" stroke="#c0c0c0" cx="163.0638" cy="-464" rx="3.5" ry="3.5"/>
</g>
<!-- GW14&#45;&gt;GW15 -->
<g id="edge18" class="edge">
<title>GW14&#45;&gt;GW15</title>
<path fill="none" stroke="#c0c0c0" d="M22.6234,-464C40.1349,-464 117.5717,-464 149.3666,-464"/>
<polygon fill="#c0c0c0" stroke="#c0c0c0" points="149.3687,-467.5001 159.3686,-464 149.3686,-460.5001 149.3687,-467.5001"/>
<text text-anchor="middle" x="57.2131" y="-466.1" font-family="Arial" font-size="7.00" fill="#000000">(12): Duivendrecht</text>
</g>
<!-- GW12 -->
<g id="node20" class="node">
<title>GW12</title>
<ellipse fill="#d3d3d3" stroke="#c0c0c0" cx="163.0638" cy="-536" rx="3.5" ry="3.5"/>
</g>
<!-- GW15&#45;&gt;GW12 -->
<g id="edge19" class="edge">
<title>GW15&#45;&gt;GW12</title>
<path fill="none" stroke="#c0c0c0" d="M163.0638,-467.871C163.0638,-477.9263 163.0638,-505.2592 163.0638,-522.0903"/>
<polygon fill="#c0c0c0" stroke="#c0c0c0" points="159.5639,-522.454 163.0638,-532.4541 166.5639,-522.4541 159.5639,-522.454"/>
<text text-anchor="middle" x="131.364" y="-505.4807" font-family="Arial" font-size="7.00" fill="#000000">Gooiseweg </text>
<text text-anchor="middle" x="131.364" y="-497.0807" font-family="Arial" font-size="7.00" fill="#000000"> Prins Bernhardplein</text>
</g>
<!-- GW12&#45;&gt;GW13 -->
<g id="edge16" class="edge">
<title>GW12&#45;&gt;GW13</title>
<path fill="none" stroke="#c0c0c0" d="M159.1928,-536C149.1375,-536 121.8046,-536 104.9734,-536"/>
<polygon fill="#c0c0c0" stroke="#c0c0c0" points="104.6098,-532.5001 94.6097,-536 104.6097,-539.5001 104.6098,-532.5001"/>
<text text-anchor="middle" x="113.607" y="-538.1" font-family="Arial" font-size="7.00" fill="#000000">Julianaplein</text>
</g>
</g>
</svg>

