<?xml version="1.0" encoding="UTF-8" standalone="no"?>
<!DOCTYPE svg PUBLIC "-//W3C//DTD SVG 1.1//EN"
 "http://www.w3.org/Graphics/SVG/1.1/DTD/svg11.dtd">
<!-- Generated by graphviz version 2.40.1 (20161225.0304)
 -->
<!-- Title: G Pages: 1 -->
<svg width="522pt" height="753pt"
 viewBox="0.00 0.00 521.99 752.71" xmlns="http://www.w3.org/2000/svg" xmlns:xlink="http://www.w3.org/1999/xlink">
<g id="graph0" class="graph" transform="scale(1 1) rotate(0) translate(4 748.7117)">
<title>G</title>
<polygon fill="#ffffff" stroke="transparent" points="-4,4 -4,-748.7117 517.9912,-748.7117 517.9912,4 -4,4"/>
<!-- 6300 -->
<g id="node1" class="node">
<title>6300</title>
<ellipse fill="#d3d3d3" stroke="#c0c0c0" cx="131.6806" cy="-147.5" rx="20.2709" ry="20.2709"/>
<text text-anchor="middle" x="131.6806" y="-145.4" font-family="Times,serif" font-size="7.00" fill="#000000">LLL</text>
</g>
<!-- 6301 -->
<g id="node2" class="node">
<title>6301</title>
<ellipse fill="#d3d3d3" stroke="#c0c0c0" cx="203.6806" cy="-147.5" rx="3.5" ry="3.5"/>
</g>
<!-- 6300&#45;&gt;6301 -->
<g id="edge1" class="edge">
<title>6300&#45;&gt;6301</title>
<path fill="none" stroke="#c0c0c0" d="M152.1203,-147.5C164.1926,-147.5 179.1558,-147.5 189.8477,-147.5"/>
<polygon fill="#c0c0c0" stroke="#c0c0c0" points="190.008,-151.0001 200.008,-147.5 190.008,-144.0001 190.008,-151.0001"/>
<text text-anchor="middle" x="195.7665" y="-141.2" font-family="Times,serif" font-size="7.00" fill="#000000">Pieter Calandlaan</text>
</g>
<!-- 6302 -->
<g id="node3" class="node">
<title>6302</title>
<ellipse fill="#d3d3d3" stroke="#c0c0c0" cx="203.6806" cy="-75.5" rx="3.5" ry="3.5"/>
</g>
<!-- 6301&#45;&gt;6302 -->
<g id="edge2" class="edge">
<title>6301&#45;&gt;6302</title>
<path fill="none" stroke="#c0c0c0" d="M203.6806,-143.629C203.6806,-133.5737 203.6806,-106.2408 203.6806,-89.4097"/>
<polygon fill="#c0c0c0" stroke="#c0c0c0" points="207.1807,-89.0459 203.6806,-79.0459 200.1807,-89.046 207.1807,-89.0459"/>
<text text-anchor="middle" x="175.1066" y="-110.2193" font-family="Times,serif" font-size="7.00" fill="#000000">Johan Huizingalaan </text>
<text text-anchor="middle" x="175.1066" y="-101.8193" font-family="Times,serif" font-size="7.00" fill="#000000"> (lijn 63)</text>
</g>
<!-- 6202 -->
<g id="node12" class="node">
<title>6202</title>
<ellipse fill="#d3d3d3" stroke="#c0c0c0" cx="203.6806" cy="-291.5" rx="3.5" ry="3.5"/>
</g>
<!-- 6301&#45;&gt;6202 -->
<g id="edge11" class="edge">
<title>6301&#45;&gt;6202</title>
<path fill="none" stroke="#c0c0c0" d="M203.6806,-151.0596C203.6806,-168.5711 203.6806,-246.0079 203.6806,-277.8028"/>
<polygon fill="#c0c0c0" stroke="#c0c0c0" points="200.1807,-277.8048 203.6806,-287.8049 207.1807,-277.8049 200.1807,-277.8048"/>
<text text-anchor="middle" x="175.1066" y="-224.9312" font-family="Times,serif" font-size="7.00" fill="#000000">Johan Huizingalaan </text>
<text text-anchor="middle" x="175.1066" y="-216.5312" font-family="Times,serif" font-size="7.00" fill="#000000"> (lijn 62)</text>
</g>
<!-- 6303 -->
<g id="node4" class="node">
<title>6303</title>
<ellipse fill="#d3d3d3" stroke="#c0c0c0" cx="275.6806" cy="-75.5" rx="3.5" ry="3.5"/>
</g>
<!-- 6302&#45;&gt;6303 -->
<g id="edge3" class="edge">
<title>6302&#45;&gt;6303</title>
<path fill="none" stroke="#c0c0c0" d="M207.5516,-75.5C217.6069,-75.5 244.9398,-75.5 261.7709,-75.5"/>
<polygon fill="#c0c0c0" stroke="#c0c0c0" points="262.1347,-79.0001 272.1347,-75.5 262.1346,-72.0001 262.1347,-79.0001"/>
<text text-anchor="middle" x="245.5479" y="-69.2" font-family="Times,serif" font-size="7.00" fill="#000000">Comeniusstraat</text>
</g>
<!-- 6304 -->
<g id="node5" class="node">
<title>6304</title>
<ellipse fill="#d3d3d3" stroke="#c0c0c0" cx="275.6806" cy="-147.5" rx="3.5" ry="3.5"/>
</g>
<!-- 6303&#45;&gt;6304 -->
<g id="edge4" class="edge">
<title>6303&#45;&gt;6304</title>
<path fill="none" stroke="#c0c0c0" d="M275.6806,-79.371C275.6806,-89.4263 275.6806,-116.7592 275.6806,-133.5904"/>
<polygon fill="#c0c0c0" stroke="#c0c0c0" points="272.1807,-133.9541 275.6806,-143.9541 279.1807,-133.9541 272.1807,-133.9541"/>
<text text-anchor="middle" x="249.5373" y="-125.3807" font-family="Times,serif" font-size="7.00" fill="#000000">Hemsterhuisstraat </text>
<text text-anchor="middle" x="249.5373" y="-116.9807" font-family="Times,serif" font-size="7.00" fill="#000000"> Luis Bouw&#45;</text>
<text text-anchor="middle" x="249.5373" y="-108.5807" font-family="Times,serif" font-size="7.00" fill="#000000">&#45;meesterstraat</text>
</g>
<!-- 6305 -->
<g id="node6" class="node">
<title>6305</title>
<ellipse fill="#d3d3d3" stroke="#c0c0c0" cx="347.6806" cy="-147.5" rx="3.5" ry="3.5"/>
</g>
<!-- 6304&#45;&gt;6305 -->
<g id="edge5" class="edge">
<title>6304&#45;&gt;6305</title>
<path fill="none" stroke="#c0c0c0" d="M279.5516,-147.5C289.6069,-147.5 316.9398,-147.5 333.7709,-147.5"/>
<polygon fill="#c0c0c0" stroke="#c0c0c0" points="334.1347,-151.0001 344.1347,-147.5 334.1346,-144.0001 334.1347,-151.0001"/>
<text text-anchor="middle" x="319.0525" y="-141.2" font-family="Times,serif" font-size="7.00" fill="#000000">Pieter Calandlaan</text>
</g>
<!-- 6306 -->
<g id="node7" class="node">
<title>6306</title>
<ellipse fill="#d3d3d3" stroke="#c0c0c0" cx="347.6806" cy="-75.5" rx="3.5" ry="3.5"/>
</g>
<!-- 6305&#45;&gt;6306 -->
<g id="edge6" class="edge">
<title>6305&#45;&gt;6306</title>
<path fill="none" stroke="#c0c0c0" d="M347.6806,-143.629C347.6806,-133.5737 347.6806,-106.2408 347.6806,-89.4097"/>
<polygon fill="#c0c0c0" stroke="#c0c0c0" points="351.1807,-89.0459 347.6806,-79.0459 344.1807,-89.046 351.1807,-89.0459"/>
<text text-anchor="middle" x="327.4716" y="-118.6193" font-family="Times,serif" font-size="7.00" fill="#000000">Meer en Vaart</text>
</g>
<!-- 6307 -->
<g id="node8" class="node">
<title>6307</title>
<ellipse fill="#d3d3d3" stroke="#c0c0c0" cx="419.6806" cy="-75.5" rx="3.5" ry="3.5"/>
</g>
<!-- 6306&#45;&gt;6307 -->
<g id="edge7" class="edge">
<title>6306&#45;&gt;6307</title>
<path fill="none" stroke="#c0c0c0" d="M351.5516,-75.5C361.6069,-75.5 388.9398,-75.5 405.7709,-75.5"/>
<polygon fill="#c0c0c0" stroke="#c0c0c0" points="406.1347,-79.0001 416.1347,-75.5 406.1346,-72.0001 406.1347,-79.0001"/>
<text text-anchor="middle" x="388.4286" y="-69.2" font-family="Times,serif" font-size="7.00" fill="#000000">Osdorper Ban</text>
</g>
<!-- 6308 -->
<g id="node9" class="node">
<title>6308</title>
<ellipse fill="#d3d3d3" stroke="#c0c0c0" cx="419.6806" cy="-3.5" rx="3.5" ry="3.5"/>
</g>
<!-- 6307&#45;&gt;6308 -->
<g id="edge8" class="edge">
<title>6307&#45;&gt;6308</title>
<path fill="none" stroke="#c0c0c0" d="M419.6806,-71.629C419.6806,-61.5737 419.6806,-34.2408 419.6806,-17.4097"/>
<polygon fill="#c0c0c0" stroke="#c0c0c0" points="423.1807,-17.0459 419.6806,-7.0459 416.1807,-17.046 423.1807,-17.0459"/>
<text text-anchor="middle" x="394.3126" y="-46.6193" font-family="Times,serif" font-size="7.00" fill="#000000">Baden Powellweg</text>
</g>
<!-- 6309 -->
<g id="node10" class="node">
<title>6309</title>
<ellipse fill="#d3d3d3" stroke="#c0c0c0" cx="491.6806" cy="-3.5" rx="3.5" ry="3.5"/>
</g>
<!-- 6308&#45;&gt;6309 -->
<g id="edge9" class="edge">
<title>6308&#45;&gt;6309</title>
<path fill="none" stroke="#c0c0c0" d="M423.5516,-3.5C433.6069,-3.5 460.9398,-3.5 477.7709,-3.5"/>
<polygon fill="#c0c0c0" stroke="#c0c0c0" points="478.1347,-7.0001 488.1347,-3.5 478.1346,-.0001 478.1347,-7.0001"/>
<text text-anchor="middle" x="469.5133" y="-5.6" font-family="Times,serif" font-size="7.00" fill="#000000">Ookmeerweg</text>
</g>
<!-- 6310 -->
<g id="node11" class="node">
<title>6310</title>
<ellipse fill="#d3d3d3" stroke="#c0c0c0" cx="491.6806" cy="-75.5" rx="22.1227" ry="22.1227"/>
<text text-anchor="middle" x="491.6806" y="-73.4" font-family="Times,serif" font-size="7.00" fill="#000000">MTH</text>
</g>
<!-- 6309&#45;&gt;6310 -->
<g id="edge10" class="edge">
<title>6309&#45;&gt;6310</title>
<path fill="none" stroke="#c0c0c0" d="M491.6806,-7.371C491.6806,-14.1211 491.6806,-28.6572 491.6806,-42.5756"/>
<polygon fill="#c0c0c0" stroke="#c0c0c0" points="488.1807,-42.9594 491.6806,-52.9595 495.1807,-42.9595 488.1807,-42.9594"/>
<text text-anchor="middle" x="472.242" y="-27.0733" font-family="Times,serif" font-size="7.00" fill="#000000">Baldwinstraat</text>
</g>
<!-- 6203 -->
<g id="node13" class="node">
<title>6203</title>
<ellipse fill="#d3d3d3" stroke="#c0c0c0" cx="131.6806" cy="-291.5" rx="3.5" ry="3.5"/>
</g>
<!-- 6202&#45;&gt;6203 -->
<g id="edge12" class="edge">
<title>6202&#45;&gt;6203</title>
<path fill="none" stroke="#c0c0c0" d="M199.8096,-291.5C189.7543,-291.5 162.4214,-291.5 145.5902,-291.5"/>
<polygon fill="#c0c0c0" stroke="#c0c0c0" points="145.2266,-288.0001 135.2265,-291.5 145.2265,-295.0001 145.2266,-288.0001"/>
<text text-anchor="middle" x="172.6999" y="-285.2" font-family="Times,serif" font-size="7.00" fill="#000000">Aletta Jacobslaan</text>
</g>
<!-- 6204 -->
<g id="node14" class="node">
<title>6204</title>
<ellipse fill="#d3d3d3" stroke="#c0c0c0" cx="131.6806" cy="-219.5" rx="3.5" ry="3.5"/>
</g>
<!-- 6203&#45;&gt;6204 -->
<g id="edge13" class="edge">
<title>6203&#45;&gt;6204</title>
<path fill="none" stroke="#c0c0c0" d="M131.6806,-287.629C131.6806,-277.5737 131.6806,-250.2408 131.6806,-233.4097"/>
<polygon fill="#c0c0c0" stroke="#c0c0c0" points="135.1807,-233.0459 131.6806,-223.0459 128.1807,-233.046 135.1807,-233.0459"/>
<text text-anchor="middle" x="108.5526" y="-262.6193" font-family="Times,serif" font-size="7.00" fill="#000000">Vlaardingenlaan</text>
</g>
<!-- 6205 -->
<g id="node15" class="node">
<title>6205</title>
<ellipse fill="#d3d3d3" stroke="#c0c0c0" cx="59.6806" cy="-219.5" rx="3.5" ry="3.5"/>
</g>
<!-- 6204&#45;&gt;6205 -->
<g id="edge14" class="edge">
<title>6204&#45;&gt;6205</title>
<path fill="none" stroke="#c0c0c0" d="M127.8096,-219.5C117.7543,-219.5 90.4214,-219.5 73.5902,-219.5"/>
<polygon fill="#c0c0c0" stroke="#c0c0c0" points="73.2266,-216.0001 63.2265,-219.5 73.2265,-223.0001 73.2266,-216.0001"/>
<text text-anchor="middle" x="100.6999" y="-213.2" font-family="Times,serif" font-size="7.00" fill="#000000">Aalsmeer&#45;plein </text>
<text text-anchor="middle" x="100.6999" y="-204.8" font-family="Times,serif" font-size="7.00" fill="#000000"> &#45;weg</text>
</g>
<!-- 6206 -->
<g id="node16" class="node">
<title>6206</title>
<ellipse fill="#d3d3d3" stroke="#c0c0c0" cx="59.6806" cy="-363.5" rx="3.5" ry="3.5"/>
</g>
<!-- 6205&#45;&gt;6206 -->
<g id="edge15" class="edge">
<title>6205&#45;&gt;6206</title>
<path fill="none" stroke="#c0c0c0" d="M59.6806,-223.0596C59.6806,-240.5711 59.6806,-318.0079 59.6806,-349.8028"/>
<polygon fill="#c0c0c0" stroke="#c0c0c0" points="56.1807,-349.8048 59.6806,-359.8049 63.1807,-349.8049 56.1807,-349.8048"/>
<text text-anchor="middle" x="35.2845" y="-305.3312" font-family="Times,serif" font-size="7.00" fill="#000000">Hoofddorp&#45;plein </text>
<text text-anchor="middle" x="35.2845" y="-296.9312" font-family="Times,serif" font-size="7.00" fill="#000000"> &#45;weg </text>
<text text-anchor="middle" x="35.2845" y="-288.5312" font-family="Times,serif" font-size="7.00" fill="#000000"> Zeilstraat</text>
</g>
<!-- 6207 -->
<g id="node17" class="node">
<title>6207</title>
<ellipse fill="#d3d3d3" stroke="#c0c0c0" cx="203.6806" cy="-363.5" rx="3.5" ry="3.5"/>
</g>
<!-- 6206&#45;&gt;6207 -->
<g id="edge16" class="edge">
<title>6206&#45;&gt;6207</title>
<path fill="none" stroke="#c0c0c0" d="M63.2402,-363.5C80.7517,-363.5 158.1885,-363.5 189.9834,-363.5"/>
<polygon fill="#c0c0c0" stroke="#c0c0c0" points="189.9855,-367.0001 199.9854,-363.5 189.9854,-360.0001 189.9855,-367.0001"/>
<text text-anchor="middle" x="126.6118" y="-357.2" font-family="Times,serif" font-size="7.00" fill="#000000">Amstelveenseweg </text>
<text text-anchor="middle" x="126.6118" y="-348.8" font-family="Times,serif" font-size="7.00" fill="#000000"> (via Haarlemmermeer &amp; Stadionplein)</text>
</g>
<!-- 6208 -->
<g id="node18" class="node">
<title>6208</title>
<ellipse fill="#d3d3d3" stroke="#c0c0c0" cx="203.6806" cy="-435.5" rx="3.5" ry="3.5"/>
</g>
<!-- 6207&#45;&gt;6208 -->
<g id="edge17" class="edge">
<title>6207&#45;&gt;6208</title>
<path fill="none" stroke="#c0c0c0" d="M203.6806,-367.371C203.6806,-377.4263 203.6806,-404.7592 203.6806,-421.5904"/>
<polygon fill="#c0c0c0" stroke="#c0c0c0" points="200.1807,-421.954 203.6806,-431.9541 207.1807,-421.9541 200.1807,-421.954"/>
<text text-anchor="middle" x="175.01" y="-404.9807" font-family="Times,serif" font-size="7.00" fill="#000000">De Boelelaan </text>
<text text-anchor="middle" x="175.01" y="-396.5807" font-family="Times,serif" font-size="7.00" fill="#000000"> Buitenveldertselaan</text>
</g>
<!-- 6209 -->
<g id="node19" class="node">
<title>6209</title>
<ellipse fill="#d3d3d3" stroke="#c0c0c0" cx="131.6806" cy="-435.5" rx="3.5" ry="3.5"/>
</g>
<!-- 6208&#45;&gt;6209 -->
<g id="edge18" class="edge">
<title>6208&#45;&gt;6209</title>
<path fill="none" stroke="#c0c0c0" d="M199.8096,-435.5C189.7543,-435.5 162.4214,-435.5 145.5902,-435.5"/>
<polygon fill="#c0c0c0" stroke="#c0c0c0" points="145.2266,-432.0001 135.2265,-435.5 145.2265,-439.0001 145.2266,-432.0001"/>
<text text-anchor="middle" x="172.6999" y="-429.2" font-family="Times,serif" font-size="7.00" fill="#000000">Parnassusweg</text>
</g>
<!-- 6210 -->
<g id="node20" class="node">
<title>6210</title>
<ellipse fill="#d3d3d3" stroke="#c0c0c0" cx="131.6806" cy="-507.5" rx="3.5" ry="3.5"/>
</g>
<!-- 6209&#45;&gt;6210 -->
<g id="edge19" class="edge">
<title>6209&#45;&gt;6210</title>
<path fill="none" stroke="#c0c0c0" d="M131.6806,-439.371C131.6806,-449.4263 131.6806,-476.7592 131.6806,-493.5904"/>
<polygon fill="#c0c0c0" stroke="#c0c0c0" points="128.1807,-493.9541 131.6806,-503.9541 135.1807,-493.9541 128.1807,-493.9541"/>
<text text-anchor="middle" x="109.2281" y="-476.9807" font-family="Times,serif" font-size="7.00" fill="#000000">Strawinskylaan </text>
<text text-anchor="middle" x="109.2281" y="-468.5807" font-family="Times,serif" font-size="7.00" fill="#000000"> (via St. Zuid)</text>
</g>
<!-- 6211 -->
<g id="node21" class="node">
<title>6211</title>
<ellipse fill="#d3d3d3" stroke="#c0c0c0" cx="203.6806" cy="-507.5" rx="3.5" ry="3.5"/>
</g>
<!-- 6210&#45;&gt;6211 -->
<g id="edge20" class="edge">
<title>6210&#45;&gt;6211</title>
<path fill="none" stroke="#c0c0c0" d="M135.5516,-507.5C145.6069,-507.5 172.9398,-507.5 189.7709,-507.5"/>
<polygon fill="#c0c0c0" stroke="#c0c0c0" points="190.1347,-511.0001 200.1347,-507.5 190.1346,-504.0001 190.1347,-511.0001"/>
<text text-anchor="middle" x="162.6613" y="-501.2" font-family="Times,serif" font-size="7.00" fill="#000000">Beethovenstraat </text>
<text text-anchor="middle" x="162.6613" y="-492.8" font-family="Times,serif" font-size="7.00" fill="#000000"> Van Leijenberghlaan</text>
</g>
<!-- 6212 -->
<g id="node22" class="node">
<title>6212</title>
<ellipse fill="#d3d3d3" stroke="#c0c0c0" cx="203.6806" cy="-579.5" rx="3.5" ry="3.5"/>
</g>
<!-- 6211&#45;&gt;6212 -->
<g id="edge21" class="edge">
<title>6211&#45;&gt;6212</title>
<path fill="none" stroke="#c0c0c0" d="M203.6806,-511.371C203.6806,-521.4263 203.6806,-548.7592 203.6806,-565.5904"/>
<polygon fill="#c0c0c0" stroke="#c0c0c0" points="200.1807,-565.9541 203.6806,-575.9541 207.1807,-565.9541 200.1807,-565.9541"/>
<text text-anchor="middle" x="174.6211" y="-540.5807" font-family="Times,serif" font-size="7.00" fill="#000000">Van Boshuizenstraat</text>
</g>
<!-- 6213 -->
<g id="node23" class="node">
<title>6213</title>
<ellipse fill="#d3d3d3" stroke="#c0c0c0" cx="131.6806" cy="-579.5" rx="3.5" ry="3.5"/>
</g>
<!-- 6212&#45;&gt;6213 -->
<g id="edge22" class="edge">
<title>6212&#45;&gt;6213</title>
<path fill="none" stroke="#c0c0c0" d="M199.8096,-579.5C189.7543,-579.5 162.4214,-579.5 145.5902,-579.5"/>
<polygon fill="#c0c0c0" stroke="#c0c0c0" points="145.2266,-576.0001 135.2265,-579.5 145.2265,-583.0001 145.2266,-576.0001"/>
<text text-anchor="middle" x="172.6999" y="-573.2" font-family="Times,serif" font-size="7.00" fill="#000000">Europaboulevard </text>
<text text-anchor="middle" x="172.6999" y="-564.8" font-family="Times,serif" font-size="7.00" fill="#000000"> (via St. RAI) </text>
<text text-anchor="middle" x="172.6999" y="-556.4" font-family="Times,serif" font-size="7.00" fill="#000000"> Europaplein</text>
</g>
<!-- 6214 -->
<g id="node24" class="node">
<title>6214</title>
<ellipse fill="#d3d3d3" stroke="#c0c0c0" cx="131.6806" cy="-651.5" rx="3.5" ry="3.5"/>
</g>
<!-- 6213&#45;&gt;6214 -->
<g id="edge23" class="edge">
<title>6213&#45;&gt;6214</title>
<path fill="none" stroke="#c0c0c0" d="M131.6806,-583.371C131.6806,-593.4263 131.6806,-620.7592 131.6806,-637.5904"/>
<polygon fill="#c0c0c0" stroke="#c0c0c0" points="128.1807,-637.954 131.6806,-647.9541 135.1807,-637.9541 128.1807,-637.954"/>
<text text-anchor="middle" x="99.3171" y="-612.5807" font-family="Times,serif" font-size="7.00" fill="#000000">President Kennedylaan</text>
</g>
<!-- 6215 -->
<g id="node25" class="node">
<title>6215</title>
<ellipse fill="#d3d3d3" stroke="#c0c0c0" cx="59.6806" cy="-651.5" rx="3.5" ry="3.5"/>
</g>
<!-- 6214&#45;&gt;6215 -->
<g id="edge24" class="edge">
<title>6214&#45;&gt;6215</title>
<path fill="none" stroke="#c0c0c0" d="M127.8096,-651.5C117.7543,-651.5 90.4214,-651.5 73.5902,-651.5"/>
<polygon fill="#c0c0c0" stroke="#c0c0c0" points="73.2266,-648.0001 63.2265,-651.5 73.2265,-655.0001 73.2266,-648.0001"/>
<text text-anchor="middle" x="85.7374" y="-653.6" font-family="Times,serif" font-size="7.00" fill="#000000">Waalstraat</text>
</g>
<!-- 6216 -->
<g id="node26" class="node">
<title>6216</title>
<ellipse fill="#d3d3d3" stroke="#c0c0c0" cx="59.6806" cy="-723.5" rx="3.5" ry="3.5"/>
</g>
<!-- 6215&#45;&gt;6216 -->
<g id="edge25" class="edge">
<title>6215&#45;&gt;6216</title>
<path fill="none" stroke="#c0c0c0" d="M59.6806,-655.371C59.6806,-665.4263 59.6806,-692.7592 59.6806,-709.5903"/>
<polygon fill="#c0c0c0" stroke="#c0c0c0" points="56.1807,-709.954 59.6806,-719.9541 63.1807,-709.9541 56.1807,-709.954"/>
<text text-anchor="middle" x="29.8403" y="-726.5807" font-family="Times,serif" font-size="7.00" fill="#000000">Rooseveltlaan </text>
<text text-anchor="middle" x="29.8403" y="-718.1807" font-family="Times,serif" font-size="7.00" fill="#000000">Victorieplein </text>
<text text-anchor="middle" x="29.8403" y="-709.7807" font-family="Times,serif" font-size="7.00" fill="#000000">Vrijheidslaan </text>
<text text-anchor="middle" x="29.8403" y="-701.3807" font-family="Times,serif" font-size="7.00" fill="#000000">Mr. Treublaan </text>
<text text-anchor="middle" x="29.8403" y="-692.9807" font-family="Times,serif" font-size="7.00" fill="#000000"> Prins Bernhardplein </text>
<text text-anchor="middle" x="29.8403" y="-684.5807" font-family="Times,serif" font-size="7.00" fill="#000000">Julianaplein</text>
</g>
<!-- 6217 -->
<g id="node27" class="node">
<title>6217</title>
<ellipse fill="#d3d3d3" stroke="#c0c0c0" cx="131.6806" cy="-723.5" rx="21.4256" ry="21.4256"/>
<text text-anchor="middle" x="131.6806" y="-721.4" font-family="Times,serif" font-size="7.00" fill="#000000">ASA</text>
</g>
<!-- 6216&#45;&gt;6217 -->
<g id="edge26" class="edge">
<title>6216&#45;&gt;6217</title>
<path fill="none" stroke="#c0c0c0" d="M63.5516,-723.5C70.5089,-723.5 85.7375,-723.5 100.0359,-723.5"/>
<polygon fill="#c0c0c0" stroke="#c0c0c0" points="100.1514,-727.0001 110.1514,-723.5 100.1513,-720.0001 100.1514,-727.0001"/>
<text text-anchor="middle" x="95.5918" y="-734" font-family="Times,serif" font-size="7.00" fill="#000000">Over&#45;</text>
<text text-anchor="middle" x="95.5918" y="-725.6" font-family="Times,serif" font-size="7.00" fill="#000000">&#45;zichtweg</text>
</g>
</g>
</svg>

