<?xml version="1.0" encoding="UTF-8" standalone="no"?>
<!DOCTYPE svg PUBLIC "-//W3C//DTD SVG 1.1//EN"
 "http://www.w3.org/Graphics/SVG/1.1/DTD/svg11.dtd">
<!-- Generated by graphviz version 2.40.1 (20161225.0304)
 -->
<!-- Title: G Pages: 1 -->
<svg width="248pt" height="637pt"
 viewBox="0.00 0.00 247.71 637.21" xmlns="http://www.w3.org/2000/svg" xmlns:xlink="http://www.w3.org/1999/xlink">
<g id="graph0" class="graph" transform="scale(1 1) rotate(0) translate(4 633.2117)">
<title>G</title>
<polygon fill="#ffffff" stroke="transparent" points="-4,4 -4,-633.2117 243.7139,-633.2117 243.7139,4 -4,4"/>
<text text-anchor="middle" x="119.857" y="-5.8" font-family="Times,serif" font-size="6.00" fill="#000000">*Gebruik bij terugkomst (5): De Baarsjes</text>
<!-- GW -->
<g id="node1" class="node">
<title>GW</title>
<ellipse fill="#d3d3d3" stroke="#c0c0c0" cx="92.2139" cy="-104" rx="19.6182" ry="19.6182"/>
<text text-anchor="middle" x="92.2139" y="-101.9" font-family="Times,serif" font-size="7.00" fill="#000000">GW</text>
</g>
<!-- GW01 -->
<g id="node6" class="node">
<title>GW01</title>
<ellipse fill="#d3d3d3" stroke="#c0c0c0" cx="92.2139" cy="-176" rx="3.5" ry="3.5"/>
</g>
<!-- GW&#45;&gt;GW01 -->
<g id="edge1" class="edge">
<title>GW&#45;&gt;GW01</title>
<path fill="none" stroke="#c0c0c0" d="M92.2139,-123.6743C92.2139,-135.8959 92.2139,-151.3024 92.2139,-162.225"/>
<polygon fill="#c0c0c0" stroke="#c0c0c0" points="88.714,-162.2429 92.2139,-172.2429 95.714,-162.243 88.714,-162.2429"/>
<text text-anchor="middle" x="68.7919" y="-145.0496" font-family="Times,serif" font-size="7.00" fill="#000000">Jan Tooropstraat</text>
</g>
<!-- GW05 -->
<g id="node10" class="node">
<title>GW05</title>
<ellipse fill="#d3d3d3" stroke="#c0c0c0" cx="92.2139" cy="-32" rx="3.5" ry="3.5"/>
</g>
<!-- GW&#45;&gt;GW05 -->
<g id="edge2" class="edge">
<title>GW&#45;&gt;GW05</title>
<path fill="none" stroke="#c0c0c0" d="M92.2139,-84.3257C92.2139,-72.1041 92.2139,-56.6976 92.2139,-45.775"/>
<polygon fill="#c0c0c0" stroke="#c0c0c0" points="95.714,-45.757 92.2139,-35.7571 88.714,-45.7571 95.714,-45.757"/>
<text text-anchor="middle" x="68.7919" y="-67.1504" font-family="Times,serif" font-size="7.00" fill="#000000">Jan Tooropstraat</text>
</g>
<!-- LLL -->
<g id="node2" class="node">
<title>LLL</title>
<ellipse fill="#d3d3d3" stroke="#c0c0c0" cx="92.2139" cy="-248" rx="20.2709" ry="20.2709"/>
<text text-anchor="middle" x="92.2139" y="-245.9" font-family="Times,serif" font-size="7.00" fill="#000000">LLL</text>
</g>
<!-- MTH -->
<g id="node3" class="node">
<title>MTH</title>
<ellipse fill="#d3d3d3" stroke="#c0c0c0" cx="164.2139" cy="-104" rx="22.1227" ry="22.1227"/>
<text text-anchor="middle" x="164.2139" y="-101.9" font-family="Times,serif" font-size="7.00" fill="#000000">MTH</text>
</g>
<!-- HMM -->
<g id="node4" class="node">
<title>HMM</title>
<ellipse fill="#d3d3d3" stroke="#c0c0c0" cx="164.2139" cy="-320" rx="22.0767" ry="22.0767"/>
<text text-anchor="middle" x="164.2139" y="-317.9" font-family="Times,serif" font-size="7.00" fill="#000000">HMS</text>
</g>
<!-- ASA -->
<g id="node5" class="node">
<title>ASA</title>
<ellipse fill="#d3d3d3" stroke="#c0c0c0" cx="92.2139" cy="-608" rx="21.4256" ry="21.4256"/>
<text text-anchor="middle" x="92.2139" y="-605.9" font-family="Times,serif" font-size="7.00" fill="#000000">ASA</text>
</g>
<!-- GW02 -->
<g id="node7" class="node">
<title>GW02</title>
<ellipse fill="#d3d3d3" stroke="#c0c0c0" cx="164.2139" cy="-176" rx="3.5" ry="3.5"/>
</g>
<!-- GW01&#45;&gt;GW02 -->
<g id="edge3" class="edge">
<title>GW01&#45;&gt;GW02</title>
<path fill="none" stroke="#c0c0c0" d="M96.0849,-176C106.1402,-176 133.4731,-176 150.3042,-176"/>
<polygon fill="#c0c0c0" stroke="#c0c0c0" points="150.668,-179.5001 160.668,-176 150.6679,-172.5001 150.668,-179.5001"/>
<text text-anchor="middle" x="123.1946" y="-169.7" font-family="Times,serif" font-size="7.00" fill="#000000">Jan Evertsenstraat</text>
</g>
<!-- GW04 -->
<g id="node9" class="node">
<title>GW04</title>
<ellipse fill="#d3d3d3" stroke="#c0c0c0" cx="164.2139" cy="-248" rx="3.5" ry="3.5"/>
</g>
<!-- GW02&#45;&gt;GW04 -->
<g id="edge4" class="edge">
<title>GW02&#45;&gt;GW04</title>
<path fill="none" stroke="#c0c0c0" d="M164.2139,-179.871C164.2139,-189.9263 164.2139,-217.2592 164.2139,-234.0904"/>
<polygon fill="#c0c0c0" stroke="#c0c0c0" points="160.714,-234.454 164.2139,-244.4541 167.714,-234.4541 160.714,-234.454"/>
<text text-anchor="middle" x="135.6399" y="-217.4807" font-family="Times,serif" font-size="7.00" fill="#000000">Oostoever </text>
<text text-anchor="middle" x="135.6399" y="-209.0807" font-family="Times,serif" font-size="7.00" fill="#000000"> Johan Huizingalaan</text>
</g>
<!-- GW03 -->
<g id="node8" class="node">
<title>GW03</title>
<ellipse fill="#d3d3d3" stroke="#c0c0c0" cx="236.2139" cy="-32" rx="3.5" ry="3.5"/>
</g>
<!-- GW06 -->
<g id="node11" class="node">
<title>GW06</title>
<ellipse fill="#d3d3d3" stroke="#c0c0c0" cx="236.2139" cy="-104" rx="3.5" ry="3.5"/>
</g>
<!-- GW03&#45;&gt;GW06 -->
<g id="edge5" class="edge">
<title>GW03&#45;&gt;GW06</title>
<path fill="none" stroke="#c0c0c0" d="M236.2139,-35.871C236.2139,-45.9263 236.2139,-73.2592 236.2139,-90.0903"/>
<polygon fill="#c0c0c0" stroke="#c0c0c0" points="232.714,-90.454 236.2139,-100.4541 239.714,-90.4541 232.714,-90.454"/>
<text text-anchor="middle" x="204.5302" y="-73.4807" font-family="Times,serif" font-size="7.00" fill="#000000">President Allendelaan </text>
<text text-anchor="middle" x="204.5302" y="-65.0807" font-family="Times,serif" font-size="7.00" fill="#000000"> Ookmeerweg</text>
</g>
<!-- GW04&#45;&gt;LLL -->
<g id="edge6" class="edge">
<title>GW04&#45;&gt;LLL</title>
<path fill="none" stroke="#c0c0c0" d="M160.3429,-248C153.2446,-248 137.5362,-248 122.9903,-248"/>
<polygon fill="#c0c0c0" stroke="#c0c0c0" points="122.7439,-244.5001 112.7438,-248 122.7438,-251.5001 122.7439,-244.5001"/>
<text text-anchor="middle" x="141.6666" y="-241.7" font-family="Times,serif" font-size="7.00" fill="#000000">Pieter Calandlaan</text>
</g>
<!-- GW05&#45;&gt;GW03 -->
<g id="edge7" class="edge">
<title>GW05&#45;&gt;GW03</title>
<path fill="none" stroke="#c0c0c0" d="M95.7735,-32C113.285,-32 190.7218,-32 222.5167,-32"/>
<polygon fill="#c0c0c0" stroke="#c0c0c0" points="222.5188,-35.5001 232.5187,-32 222.5187,-28.5001 222.5188,-35.5001"/>
<text text-anchor="middle" x="177.819" y="-25.7" font-family="Times,serif" font-size="7.00" fill="#000000">Jan van Galenstraat </text>
<text text-anchor="middle" x="177.819" y="-17.3" font-family="Times,serif" font-size="7.00" fill="#000000"> Burgemeester Röellstraat</text>
</g>
<!-- GW07 -->
<g id="node12" class="node">
<title>GW07</title>
<ellipse fill="#d3d3d3" stroke="#c0c0c0" cx="20.2139" cy="-32" rx="3.5" ry="3.5"/>
</g>
<!-- GW05&#45;&gt;GW07 -->
<g id="edge8" class="edge">
<title>GW05&#45;&gt;GW07</title>
<path fill="none" stroke="#c0c0c0" d="M88.3429,-32C78.2876,-32 50.9547,-32 34.1235,-32"/>
<polygon fill="#c0c0c0" stroke="#c0c0c0" points="33.7599,-28.5001 23.7598,-32 33.7598,-35.5001 33.7599,-28.5001"/>
<text text-anchor="middle" x="61.2332" y="-25.7" font-family="Times,serif" font-size="7.00" fill="#000000">Jan van Galenstraat</text>
</g>
<!-- GW06&#45;&gt;MTH -->
<g id="edge9" class="edge">
<title>GW06&#45;&gt;MTH</title>
<path fill="none" stroke="#c0c0c0" d="M232.3429,-104C225.5928,-104 211.0568,-104 197.1384,-104"/>
<polygon fill="#c0c0c0" stroke="#c0c0c0" points="196.7545,-100.5001 186.7544,-104 196.7544,-107.5001 196.7545,-100.5001"/>
<text text-anchor="middle" x="214.7406" y="-97.7" font-family="Times,serif" font-size="7.00" fill="#000000">Baldwinstraat</text>
</g>
<!-- GW08 -->
<g id="node13" class="node">
<title>GW08</title>
<ellipse fill="#d3d3d3" stroke="#c0c0c0" cx="20.2139" cy="-320" rx="3.5" ry="3.5"/>
</g>
<!-- GW07&#45;&gt;GW08 -->
<g id="edge10" class="edge">
<title>GW07&#45;&gt;GW08</title>
<path fill="none" stroke="#c0c0c0" d="M20.2139,-35.6414C20.2139,-64.275 20.2139,-253.4834 20.2139,-306.3186"/>
<polygon fill="#c0c0c0" stroke="#c0c0c0" points="16.714,-306.4399 20.2139,-316.4399 23.714,-306.44 16.714,-306.4399"/>
<text text-anchor="middle" x="10.107" y="-173.08" font-family="Times,serif" font-size="7.00" fill="#000000">[A10]*</text>
</g>
<!-- GW11 -->
<g id="node16" class="node">
<title>GW11</title>
<ellipse fill="#d3d3d3" stroke="#c0c0c0" cx="92.2139" cy="-320" rx="3.5" ry="3.5"/>
</g>
<!-- GW08&#45;&gt;GW11 -->
<g id="edge11" class="edge">
<title>GW08&#45;&gt;GW11</title>
<path fill="none" stroke="#c0c0c0" d="M24.0849,-320C34.1402,-320 61.4731,-320 78.3042,-320"/>
<polygon fill="#c0c0c0" stroke="#c0c0c0" points="78.668,-323.5001 88.668,-320 78.6679,-316.5001 78.668,-323.5001"/>
<text text-anchor="middle" x="61.836" y="-313.7" font-family="Times,serif" font-size="7.00" fill="#000000">(7): Slotervaart</text>
</g>
<!-- GW14 -->
<g id="node18" class="node">
<title>GW14</title>
<ellipse fill="#d3d3d3" stroke="#c0c0c0" cx="20.2139" cy="-464" rx="3.5" ry="3.5"/>
</g>
<!-- GW08&#45;&gt;GW14 -->
<g id="edge12" class="edge">
<title>GW08&#45;&gt;GW14</title>
<path fill="none" stroke="#c0c0c0" d="M20.2139,-323.5596C20.2139,-341.0711 20.2139,-418.5079 20.2139,-450.3028"/>
<polygon fill="#c0c0c0" stroke="#c0c0c0" points="16.714,-450.3048 20.2139,-460.3048 23.714,-450.3049 16.714,-450.3048"/>
<text text-anchor="middle" x="11.857" y="-389.0312" font-family="Times,serif" font-size="7.00" fill="#000000">[A10]</text>
</g>
<!-- GW09 -->
<g id="node14" class="node">
<title>GW09</title>
<ellipse fill="#d3d3d3" stroke="#c0c0c0" cx="92.2139" cy="-392" rx="3.5" ry="3.5"/>
</g>
<!-- GW10 -->
<g id="node15" class="node">
<title>GW10</title>
<ellipse fill="#d3d3d3" stroke="#c0c0c0" cx="164.2139" cy="-392" rx="3.5" ry="3.5"/>
</g>
<!-- GW09&#45;&gt;GW10 -->
<g id="edge13" class="edge">
<title>GW09&#45;&gt;GW10</title>
<path fill="none" stroke="#c0c0c0" d="M96.0849,-392C106.1402,-392 133.4731,-392 150.3042,-392"/>
<polygon fill="#c0c0c0" stroke="#c0c0c0" points="150.668,-395.5001 160.668,-392 150.6679,-388.5001 150.668,-395.5001"/>
<text text-anchor="middle" x="135.3926" y="-385.7" font-family="Times,serif" font-size="7.00" fill="#000000">Hoofddorp&#45;plein </text>
<text text-anchor="middle" x="135.3926" y="-377.3" font-family="Times,serif" font-size="7.00" fill="#000000"> &#45;weg </text>
<text text-anchor="middle" x="135.3926" y="-368.9" font-family="Times,serif" font-size="7.00" fill="#000000"> Zeilstraat</text>
</g>
<!-- GW10&#45;&gt;HMM -->
<g id="edge14" class="edge">
<title>GW10&#45;&gt;HMM</title>
<path fill="none" stroke="#c0c0c0" d="M164.2139,-388.129C164.2139,-381.2657 164.2139,-366.3532 164.2139,-352.2249"/>
<polygon fill="#c0c0c0" stroke="#c0c0c0" points="167.714,-352.2021 164.2139,-342.2022 160.714,-352.2022 167.714,-352.2021"/>
<text text-anchor="middle" x="189.6757" y="-372.2769" font-family="Times,serif" font-size="7.00" fill="#000000">Amstelveenseweg</text>
</g>
<!-- GW11&#45;&gt;GW09 -->
<g id="edge15" class="edge">
<title>GW11&#45;&gt;GW09</title>
<path fill="none" stroke="#c0c0c0" d="M92.2139,-323.871C92.2139,-333.9263 92.2139,-361.2592 92.2139,-378.0904"/>
<polygon fill="#c0c0c0" stroke="#c0c0c0" points="88.714,-378.454 92.2139,-388.4541 95.714,-378.4541 88.714,-378.454"/>
<text text-anchor="middle" x="65.0014" y="-361.4807" font-family="Times,serif" font-size="7.00" fill="#000000">Henk Sneevletweg </text>
<text text-anchor="middle" x="65.0014" y="-353.0807" font-family="Times,serif" font-size="7.00" fill="#000000"> Aalsmeerweg</text>
</g>
<!-- GW13 -->
<g id="node17" class="node">
<title>GW13</title>
<ellipse fill="#d3d3d3" stroke="#c0c0c0" cx="92.2139" cy="-536" rx="3.5" ry="3.5"/>
</g>
<!-- GW13&#45;&gt;ASA -->
<g id="edge17" class="edge">
<title>GW13&#45;&gt;ASA</title>
<path fill="none" stroke="#c0c0c0" d="M92.2139,-539.871C92.2139,-546.8283 92.2139,-562.0569 92.2139,-576.3553"/>
<polygon fill="#c0c0c0" stroke="#c0c0c0" points="88.714,-576.4708 92.2139,-586.4708 95.714,-576.4708 88.714,-576.4708"/>
<text text-anchor="middle" x="72.5855" y="-560.2132" font-family="Times,serif" font-size="7.00" fill="#000000">Overzichtweg</text>
</g>
<!-- GW15 -->
<g id="node19" class="node">
<title>GW15</title>
<ellipse fill="#d3d3d3" stroke="#c0c0c0" cx="164.2139" cy="-464" rx="3.5" ry="3.5"/>
</g>
<!-- GW14&#45;&gt;GW15 -->
<g id="edge18" class="edge">
<title>GW14&#45;&gt;GW15</title>
<path fill="none" stroke="#c0c0c0" d="M23.7735,-464C41.285,-464 118.7218,-464 150.5167,-464"/>
<polygon fill="#c0c0c0" stroke="#c0c0c0" points="150.5188,-467.5001 160.5187,-464 150.5187,-460.5001 150.5188,-467.5001"/>
<text text-anchor="middle" x="60.4191" y="-466.1" font-family="Times,serif" font-size="7.00" fill="#000000">(12): Duivendrecht</text>
</g>
<!-- GW12 -->
<g id="node20" class="node">
<title>GW12</title>
<ellipse fill="#d3d3d3" stroke="#c0c0c0" cx="164.2139" cy="-536" rx="3.5" ry="3.5"/>
</g>
<!-- GW15&#45;&gt;GW12 -->
<g id="edge19" class="edge">
<title>GW15&#45;&gt;GW12</title>
<path fill="none" stroke="#c0c0c0" d="M164.2139,-467.871C164.2139,-477.9263 164.2139,-505.2592 164.2139,-522.0903"/>
<polygon fill="#c0c0c0" stroke="#c0c0c0" points="160.714,-522.454 164.2139,-532.4541 167.714,-522.4541 160.714,-522.454"/>
<text text-anchor="middle" x="135.2486" y="-505.4807" font-family="Times,serif" font-size="7.00" fill="#000000">Gooiseweg </text>
<text text-anchor="middle" x="135.2486" y="-497.0807" font-family="Times,serif" font-size="7.00" fill="#000000"> Prins Bernhardplein</text>
</g>
<!-- GW12&#45;&gt;GW13 -->
<g id="edge16" class="edge">
<title>GW12&#45;&gt;GW13</title>
<path fill="none" stroke="#c0c0c0" d="M160.3429,-536C150.2876,-536 122.9547,-536 106.1235,-536"/>
<polygon fill="#c0c0c0" stroke="#c0c0c0" points="105.7599,-532.5001 95.7598,-536 105.7598,-539.5001 105.7599,-532.5001"/>
<text text-anchor="middle" x="116.3205" y="-538.1" font-family="Times,serif" font-size="7.00" fill="#000000">Julianaplein</text>
</g>
</g>
</svg>

