<?xml version="1.0" encoding="UTF-8" standalone="no"?>
<!DOCTYPE svg PUBLIC "-//W3C//DTD SVG 1.1//EN"
 "http://www.w3.org/Graphics/SVG/1.1/DTD/svg11.dtd">
<!-- Generated by graphviz version 2.40.1 (20161225.0304)
 -->
<!-- Title: G Pages: 1 -->
<svg width="703pt" height="690pt"
 viewBox="0.00 0.00 702.55 690.30" xmlns="http://www.w3.org/2000/svg" xmlns:xlink="http://www.w3.org/1999/xlink">
<g id="graph0" class="graph" transform="scale(1 1) rotate(0) translate(4 686.3)">
<title>G</title>
<polygon fill="#ffffff" stroke="transparent" points="-4,4 -4,-686.3 698.551,-686.3 698.551,4 -4,4"/>
<text text-anchor="middle" x="347.2755" y="-13" font-family="Times,serif" font-size="6.00" fill="#000000">* Bij terugkomst gebruikt u de stippellijnsegmenten </text>
<text text-anchor="middle" x="347.2755" y="-5.8" font-family="Times,serif" font-size="6.00" fill="#000000"> ** Bij terugkomst gebruikt u afrit (1): Bijlmermeer</text>
<!-- 4900 -->
<g id="node1" class="node">
<title>4900</title>
<ellipse fill="#d3d3d3" stroke="#c0c0c0" cx="22.3106" cy="-313.9" rx="22.1227" ry="22.1227"/>
<text text-anchor="middle" x="22.3106" y="-311.8" font-family="Arial" font-size="7.00" fill="#000000">BMR</text>
</g>
<!-- 4901 -->
<g id="node2" class="node">
<title>4901</title>
<ellipse fill="#d3d3d3" stroke="#c0c0c0" cx="94.3106" cy="-313.9" rx="3.5" ry="3.5"/>
</g>
<!-- 4900&#45;&gt;4901 -->
<g id="edge6" class="edge">
<title>4900&#45;&gt;4901</title>
<path fill="none" stroke="#c0c0c0" d="M44.6971,-313.9C56.4364,-313.9 70.4405,-313.9 80.5721,-313.9"/>
<polygon fill="#c0c0c0" stroke="#c0c0c0" points="80.5974,-317.4001 90.5974,-313.9 80.5974,-310.4001 80.5974,-317.4001"/>
<text text-anchor="middle" x="71.3864" y="-307.6" font-family="Arial" font-size="7.00" fill="#000000">Hoogoord&#45; </text>
<text text-anchor="middle" x="71.3864" y="-299.2" font-family="Arial" font-size="7.00" fill="#000000"> &#45;dreef</text>
</g>
<!-- 4902 -->
<g id="node3" class="node">
<title>4902</title>
<ellipse fill="#d3d3d3" stroke="#c0c0c0" cx="94.3106" cy="-241.9" rx="3.5" ry="3.5"/>
</g>
<!-- 4901&#45;&gt;4902 -->
<g id="edge7" class="edge">
<title>4901&#45;&gt;4902</title>
<path fill="none" stroke="#c0c0c0" d="M94.3106,-310.029C94.3106,-299.9737 94.3106,-272.6408 94.3106,-255.8096"/>
<polygon fill="#c0c0c0" stroke="#c0c0c0" points="97.8107,-255.4459 94.3106,-245.4459 90.8107,-255.4459 97.8107,-255.4459"/>
<text text-anchor="middle" x="70.7745" y="-276.6193" font-family="Arial" font-size="7.00" fill="#000000">Foppingadreef </text>
<text text-anchor="middle" x="70.7745" y="-268.2193" font-family="Arial" font-size="7.00" fill="#000000"> (lijn 49, 360**)</text>
</g>
<!-- 6601 -->
<g id="node19" class="node">
<title>6601</title>
<ellipse fill="#d3d3d3" stroke="#c0c0c0" cx="94.3106" cy="-385.9" rx="3.5" ry="3.5"/>
</g>
<!-- 4901&#45;&gt;6601 -->
<g id="edge27" class="edge">
<title>4901&#45;&gt;6601</title>
<path fill="none" stroke="#c0c0c0" d="M94.3106,-317.771C94.3106,-327.8263 94.3106,-355.1592 94.3106,-371.9903"/>
<polygon fill="#c0c0c0" stroke="#c0c0c0" points="90.8107,-372.354 94.3106,-382.3541 97.8107,-372.3541 90.8107,-372.354"/>
<text text-anchor="middle" x="70.7745" y="-355.3807" font-family="Arial" font-size="7.00" fill="#000000">Foppingadreef </text>
<text text-anchor="middle" x="70.7745" y="-346.9807" font-family="Arial" font-size="7.00" fill="#000000"> (lijn 44*, 66)</text>
</g>
<!-- 4903 -->
<g id="node4" class="node">
<title>4903</title>
<ellipse fill="#d3d3d3" stroke="#c0c0c0" cx="166.3106" cy="-241.9" rx="3.5" ry="3.5"/>
</g>
<!-- 4902&#45;&gt;4903 -->
<g id="edge8" class="edge">
<title>4902&#45;&gt;4903</title>
<path fill="none" stroke="#c0c0c0" d="M98.1816,-241.9C108.2369,-241.9 135.5698,-241.9 152.4009,-241.9"/>
<polygon fill="#c0c0c0" stroke="#c0c0c0" points="152.7647,-245.4001 162.7646,-241.9 152.7646,-238.4001 152.7647,-245.4001"/>
<text text-anchor="middle" x="135.2101" y="-235.6" font-family="Arial" font-size="7.00" fill="#000000">Karspeldreef</text>
</g>
<!-- 4904 -->
<g id="node5" class="node">
<title>4904</title>
<ellipse fill="#d3d3d3" stroke="#c0c0c0" cx="310.3106" cy="-241.9" rx="3.5" ry="3.5"/>
</g>
<!-- 4903&#45;&gt;4904 -->
<g id="edge9" class="edge">
<title>4903&#45;&gt;4904</title>
<path fill="none" stroke="#c0c0c0" d="M169.8701,-241.9C187.3817,-241.9 264.8184,-241.9 296.6134,-241.9"/>
<polygon fill="#c0c0c0" stroke="#c0c0c0" points="296.6155,-245.4001 306.6154,-241.9 296.6154,-238.4001 296.6155,-245.4001"/>
<text text-anchor="middle" x="212.4315" y="-252.4" font-family="Arial" font-size="7.00" fill="#000000">Karspeldreef </text>
<text text-anchor="middle" x="212.4315" y="-244" font-family="Arial" font-size="7.00" fill="#000000"> (lijn 49)</text>
</g>
<!-- 36001 -->
<g id="node29" class="node">
<title>36001</title>
<ellipse fill="#d3d3d3" stroke="#c0c0c0" cx="166.3106" cy="-169.9" rx="3.5" ry="3.5"/>
</g>
<!-- 4903&#45;&gt;36001 -->
<g id="edge24" class="edge">
<title>4903&#45;&gt;36001</title>
<path fill="none" stroke="#c0c0c0" d="M166.3106,-238.029C166.3106,-227.9737 166.3106,-200.6408 166.3106,-183.8096"/>
<polygon fill="#c0c0c0" stroke="#c0c0c0" points="169.8107,-183.4459 166.3106,-173.4459 162.8107,-183.4459 169.8107,-183.4459"/>
<text text-anchor="middle" x="147.8337" y="-221.4193" font-family="Arial" font-size="7.00" fill="#000000">Gooiseweg </text>
<text text-anchor="middle" x="147.8337" y="-213.0193" font-family="Arial" font-size="7.00" fill="#000000"> (lijn 360)</text>
</g>
<!-- 4905 -->
<g id="node6" class="node">
<title>4905</title>
<ellipse fill="#d3d3d3" stroke="#c0c0c0" cx="310.3106" cy="-169.9" rx="3.5" ry="3.5"/>
</g>
<!-- 4904&#45;&gt;4905 -->
<g id="edge10" class="edge">
<title>4904&#45;&gt;4905</title>
<path fill="none" stroke="#c0c0c0" d="M310.3106,-238.029C310.3106,-227.9737 310.3106,-200.6408 310.3106,-183.8096"/>
<polygon fill="#c0c0c0" stroke="#c0c0c0" points="313.8107,-183.4459 310.3106,-173.4459 306.8107,-183.4459 313.8107,-183.4459"/>
<text text-anchor="middle" x="277.6381" y="-221.4193" font-family="Arial" font-size="7.00" fill="#000000">Kromwijkdreef </text>
<text text-anchor="middle" x="277.6381" y="-213.0193" font-family="Arial" font-size="7.00" fill="#000000"> (via St. Kraaiennest)</text>
</g>
<!-- 4917 -->
<g id="node18" class="node">
<title>4917</title>
<ellipse fill="#d3d3d3" stroke="#c0c0c0" cx="310.3106" cy="-97.9" rx=".5" ry=".5"/>
</g>
<!-- 4905&#45;&gt;4917 -->
<g id="edge11" class="edge">
<title>4905&#45;&gt;4917</title>
<path fill="none" stroke="#c0c0c0" d="M310.3106,-166.029C310.3106,-155.2945 310.3106,-124.8699 310.3106,-108.5517"/>
<polygon fill="#c0c0c0" stroke="#c0c0c0" points="313.8107,-108.5008 310.3106,-98.5008 306.8107,-108.5008 313.8107,-108.5008"/>
<text text-anchor="middle" x="284.0515" y="-147.7903" font-family="Arial" font-size="7.00" fill="#000000">Loosdrechtdreef </text>
<text text-anchor="middle" x="284.0515" y="-139.3903" font-family="Arial" font-size="7.00" fill="#000000"> (lijn 49)</text>
</g>
<!-- 6607 -->
<g id="node25" class="node">
<title>6607</title>
<ellipse fill="#d3d3d3" stroke="#c0c0c0" cx="454.3106" cy="-313.9" rx="3.5" ry="3.5"/>
</g>
<!-- 4905&#45;&gt;6607 -->
<g id="edge53" class="edge">
<title>4905&#45;&gt;6607</title>
<path fill="none" stroke="#c0c0c0" d="M312.81,-172.3994C328.6498,-188.2392 415.3442,-274.9337 444.6365,-304.2259"/>
<polygon fill="#c0c0c0" stroke="#c0c0c0" points="442.1964,-306.7356 451.7424,-311.3318 447.1462,-301.7858 442.1964,-306.7356"/>
<text text-anchor="middle" x="354.0185" y="-265.6127" font-family="Arial" font-size="7.00" fill="#000000">[A9] </text>
<text text-anchor="middle" x="354.0185" y="-257.2127" font-family="Arial" font-size="7.00" fill="#000000"> [A1]: Zaanstad </text>
<text text-anchor="middle" x="354.0185" y="-248.8127" font-family="Arial" font-size="7.00" fill="#000000"> (1a): IJburg </text>
<text text-anchor="middle" x="354.0185" y="-240.4127" font-family="Arial" font-size="7.00" fill="#000000"> (lijn 360)</text>
</g>
<!-- 4906 -->
<g id="node7" class="node">
<title>4906</title>
<ellipse fill="#d3d3d3" stroke="#c0c0c0" cx="382.3106" cy="-97.9" rx="3.5" ry="3.5"/>
</g>
<!-- 4907 -->
<g id="node8" class="node">
<title>4907</title>
<ellipse fill="#d3d3d3" stroke="#c0c0c0" cx="382.3106" cy="-25.9" rx=".5" ry=".5"/>
</g>
<!-- 4906&#45;&gt;4907 -->
<g id="edge13" class="edge">
<title>4906&#45;&gt;4907</title>
<path fill="none" stroke="#c0c0c0" d="M382.3106,-94.029C382.3106,-83.2946 382.3106,-52.8699 382.3106,-36.5517"/>
<polygon fill="#c0c0c0" stroke="#c0c0c0" points="385.8107,-36.5008 382.3106,-26.5008 378.8107,-36.5009 385.8107,-36.5008"/>
<text text-anchor="middle" x="357.2201" y="-84.1903" font-family="Arial" font-size="7.00" fill="#000000">Provincialeweg </text>
<text text-anchor="middle" x="357.2201" y="-75.7903" font-family="Arial" font-size="7.00" fill="#000000"> Weesperbrug </text>
<text text-anchor="middle" x="357.2201" y="-67.3903" font-family="Arial" font-size="7.00" fill="#000000"> Gooilandseweg</text>
</g>
<!-- 4908 -->
<g id="node9" class="node">
<title>4908</title>
<ellipse fill="#d3d3d3" stroke="#c0c0c0" cx="454.3106" cy="-25.9" rx="3.5" ry="3.5"/>
</g>
<!-- 4907&#45;&gt;4908 -->
<g id="edge14" class="edge">
<title>4907&#45;&gt;4908</title>
<path fill="none" stroke="#c0c0c0" d="M383.1192,-25.9C388.6448,-25.9 421.1898,-25.9 440.3091,-25.9"/>
<polygon fill="#c0c0c0" stroke="#c0c0c0" points="440.5157,-29.4001 450.5157,-25.9 440.5156,-22.4001 440.5157,-29.4001"/>
</g>
<!-- 4909 -->
<g id="node10" class="node">
<title>4909</title>
<ellipse fill="#d3d3d3" stroke="#c0c0c0" cx="454.3106" cy="-97.9" rx="3.5" ry="3.5"/>
</g>
<!-- 4908&#45;&gt;4909 -->
<g id="edge15" class="edge">
<title>4908&#45;&gt;4909</title>
<path fill="none" stroke="#c0c0c0" d="M454.3106,-29.771C454.3106,-39.8263 454.3106,-67.1592 454.3106,-83.9903"/>
<polygon fill="#c0c0c0" stroke="#c0c0c0" points="450.8107,-84.354 454.3106,-94.3541 457.8107,-84.3541 450.8107,-84.354"/>
<text text-anchor="middle" x="421.6339" y="-75.7807" font-family="Arial" font-size="7.00" fill="#000000">C.J. van Houtenlaan </text>
<text text-anchor="middle" x="421.6339" y="-67.3807" font-family="Arial" font-size="7.00" fill="#000000"> Prinses Irenelaan </text>
<text text-anchor="middle" x="421.6339" y="-58.9807" font-family="Arial" font-size="7.00" fill="#000000"> Casparuslaan</text>
</g>
<!-- 4910 -->
<g id="node11" class="node">
<title>4910</title>
<ellipse fill="#d3d3d3" stroke="#c0c0c0" cx="526.3106" cy="-97.9" rx="3.5" ry="3.5"/>
</g>
<!-- 4909&#45;&gt;4910 -->
<g id="edge16" class="edge">
<title>4909&#45;&gt;4910</title>
<path fill="none" stroke="#c0c0c0" d="M458.1816,-97.9C468.2369,-97.9 495.5698,-97.9 512.4009,-97.9"/>
<polygon fill="#c0c0c0" stroke="#c0c0c0" points="512.7647,-101.4001 522.7646,-97.9 512.7646,-94.4001 512.7647,-101.4001"/>
<text text-anchor="middle" x="495.1121" y="-91.6" font-family="Arial" font-size="7.00" fill="#000000">Plataanlaan </text>
<text text-anchor="middle" x="495.1121" y="-83.2" font-family="Arial" font-size="7.00" fill="#000000"> Herensingel</text>
</g>
<!-- 4911 -->
<g id="node12" class="node">
<title>4911</title>
<ellipse fill="#d3d3d3" stroke="#c0c0c0" cx="526.3106" cy="-169.9" rx="3.5" ry="3.5"/>
</g>
<!-- 4910&#45;&gt;4911 -->
<g id="edge17" class="edge">
<title>4910&#45;&gt;4911</title>
<path fill="none" stroke="#c0c0c0" d="M526.3106,-101.771C526.3106,-111.8263 526.3106,-139.1592 526.3106,-155.9903"/>
<polygon fill="#c0c0c0" stroke="#c0c0c0" points="522.8107,-156.354 526.3106,-166.3541 529.8107,-156.3541 522.8107,-156.354"/>
<text text-anchor="middle" x="499.859" y="-130.9807" font-family="Arial" font-size="7.00" fill="#000000">Jan Tooropstraat</text>
</g>
<!-- 4912 -->
<g id="node13" class="node">
<title>4912</title>
<ellipse fill="#d3d3d3" stroke="#c0c0c0" cx="598.3106" cy="-169.9" rx="3.5" ry="3.5"/>
</g>
<!-- 4911&#45;&gt;4912 -->
<g id="edge18" class="edge">
<title>4911&#45;&gt;4912</title>
<path fill="none" stroke="#c0c0c0" d="M530.1816,-169.9C540.2369,-169.9 567.5698,-169.9 584.4009,-169.9"/>
<polygon fill="#c0c0c0" stroke="#c0c0c0" points="584.7647,-173.4001 594.7646,-169.9 584.7646,-166.4001 584.7647,-173.4001"/>
<text text-anchor="middle" x="569.7366" y="-163.6" font-family="Arial" font-size="7.00" fill="#000000">M. Nijfoffstraat </text>
<text text-anchor="middle" x="569.7366" y="-155.2" font-family="Arial" font-size="7.00" fill="#000000"> Herensingel </text>
<text text-anchor="middle" x="569.7366" y="-146.8" font-family="Arial" font-size="7.00" fill="#000000"> (via St. Weesp)</text>
</g>
<!-- 4913 -->
<g id="node14" class="node">
<title>4913</title>
<ellipse fill="#d3d3d3" stroke="#c0c0c0" cx="598.3106" cy="-241.9" rx="3.5" ry="3.5"/>
</g>
<!-- 4912&#45;&gt;4913 -->
<g id="edge19" class="edge">
<title>4912&#45;&gt;4913</title>
<path fill="none" stroke="#c0c0c0" d="M598.3106,-173.771C598.3106,-183.8263 598.3106,-211.1592 598.3106,-227.9903"/>
<polygon fill="#c0c0c0" stroke="#c0c0c0" points="594.8107,-228.354 598.3106,-238.3541 601.8107,-228.3541 594.8107,-228.354"/>
<text text-anchor="middle" x="569.9175" y="-219.7807" font-family="Arial" font-size="7.00" fill="#000000">Stationsweg </text>
<text text-anchor="middle" x="569.9175" y="-211.3807" font-family="Arial" font-size="7.00" fill="#000000"> Korte Muiderweg </text>
<text text-anchor="middle" x="569.9175" y="-202.9807" font-family="Arial" font-size="7.00" fill="#000000"> Weesperweg</text>
</g>
<!-- 4914 -->
<g id="node15" class="node">
<title>4914</title>
<ellipse fill="#d3d3d3" stroke="#c0c0c0" cx="526.3106" cy="-241.9" rx="3.5" ry="3.5"/>
</g>
<!-- 4913&#45;&gt;4914 -->
<g id="edge20" class="edge">
<title>4913&#45;&gt;4914</title>
<path fill="none" stroke="#c0c0c0" d="M594.4395,-241.9C584.3843,-241.9 557.0514,-241.9 540.2202,-241.9"/>
<polygon fill="#c0c0c0" stroke="#c0c0c0" points="539.8565,-238.4001 529.8565,-241.9 539.8565,-245.4001 539.8565,-238.4001"/>
<text text-anchor="middle" x="548.2689" y="-277.6" font-family="Arial" font-size="7.00" fill="#000000">Maria&#45; </text>
<text text-anchor="middle" x="548.2689" y="-269.2" font-family="Arial" font-size="7.00" fill="#000000"> &#45;hoeveweg </text>
<text text-anchor="middle" x="548.2689" y="-260.8" font-family="Arial" font-size="7.00" fill="#000000"> Busbaan </text>
<text text-anchor="middle" x="548.2689" y="-252.4" font-family="Arial" font-size="7.00" fill="#000000"> Maxisweg </text>
<text text-anchor="middle" x="548.2689" y="-244" font-family="Arial" font-size="7.00" fill="#000000"> Muiderbrug</text>
</g>
<!-- 4915 -->
<g id="node16" class="node">
<title>4915</title>
<ellipse fill="#d3d3d3" stroke="#c0c0c0" cx="526.3106" cy="-313.9" rx="3.5" ry="3.5"/>
</g>
<!-- 4914&#45;&gt;4915 -->
<g id="edge21" class="edge">
<title>4914&#45;&gt;4915</title>
<path fill="none" stroke="#c0c0c0" d="M526.3106,-245.771C526.3106,-255.8263 526.3106,-283.1592 526.3106,-299.9903"/>
<polygon fill="#c0c0c0" stroke="#c0c0c0" points="522.8107,-300.354 526.3106,-310.3541 529.8107,-300.3541 522.8107,-300.354"/>
<text text-anchor="middle" x="498.8933" y="-274.9807" font-family="Arial" font-size="7.00" fill="#000000">Diemerpolderweg</text>
</g>
<!-- 4916 -->
<g id="node17" class="node">
<title>4916</title>
<ellipse fill="#d3d3d3" stroke="#c0c0c0" cx="598.3106" cy="-313.9" rx="3.5" ry="3.5"/>
</g>
<!-- 4915&#45;&gt;4916 -->
<g id="edge22" class="edge">
<title>4915&#45;&gt;4916</title>
<path fill="none" stroke="#c0c0c0" d="M530.1816,-313.9C540.2369,-313.9 567.5698,-313.9 584.4009,-313.9"/>
<polygon fill="#c0c0c0" stroke="#c0c0c0" points="584.7647,-317.4001 594.7646,-313.9 584.7646,-310.4001 584.7647,-317.4001"/>
<text text-anchor="middle" x="557.2913" y="-307.6" font-family="Arial" font-size="7.00" fill="#000000">Fortdiemerdamweg</text>
</g>
<!-- 6608 -->
<g id="node26" class="node">
<title>6608</title>
<ellipse fill="#d3d3d3" stroke="#c0c0c0" cx="598.3106" cy="-385.9" rx="3.5" ry="3.5"/>
</g>
<!-- 4916&#45;&gt;6608 -->
<g id="edge23" class="edge">
<title>4916&#45;&gt;6608</title>
<path fill="none" stroke="#c0c0c0" d="M598.3106,-317.771C598.3106,-327.8263 598.3106,-355.1592 598.3106,-371.9903"/>
<polygon fill="#c0c0c0" stroke="#c0c0c0" points="594.8107,-372.354 598.3106,-382.3541 601.8107,-372.3541 594.8107,-372.354"/>
<text text-anchor="middle" x="564.4684" y="-355.3807" font-family="Arial" font-size="7.00" fill="#000000">Benno Premselabrug </text>
<text text-anchor="middle" x="564.4684" y="-346.9807" font-family="Arial" font-size="7.00" fill="#000000"> Muiderlaan</text>
</g>
<!-- 4917&#45;&gt;4906 -->
<g id="edge12" class="edge">
<title>4917&#45;&gt;4906</title>
<path fill="none" stroke="#c0c0c0" d="M311.1192,-97.9C316.6448,-97.9 349.1898,-97.9 368.3092,-97.9"/>
<polygon fill="#c0c0c0" stroke="#c0c0c0" points="368.5157,-101.4001 378.5157,-97.9 368.5157,-94.4001 368.5157,-101.4001"/>
</g>
<!-- 4401 -->
<g id="node32" class="node">
<title>4401</title>
<ellipse fill="#d3d3d3" stroke="#c0c0c0" cx="166.3106" cy="-385.9" rx="3.5" ry="3.5"/>
</g>
<!-- 6601&#45;&gt;4401 -->
<g id="edge28" class="edge">
<title>6601&#45;&gt;4401</title>
<path fill="none" stroke="#c0c0c0" d="M98.1816,-385.9C108.2369,-385.9 135.5698,-385.9 152.4009,-385.9"/>
<polygon fill="#c0c0c0" stroke="#c0c0c0" points="152.7647,-389.4001 162.7646,-385.9 152.7646,-382.4001 152.7647,-389.4001"/>
<text text-anchor="middle" x="143.9561" y="-388" font-family="Arial" font-size="7.00" fill="#000000">Bijlmerdreef</text>
</g>
<!-- 6602 -->
<g id="node20" class="node">
<title>6602</title>
<ellipse fill="#d3d3d3" stroke="#c0c0c0" cx="238.3106" cy="-385.9" rx="3.5" ry="3.5"/>
</g>
<!-- 6603 -->
<g id="node21" class="node">
<title>6603</title>
<ellipse fill="#d3d3d3" stroke="#c0c0c0" cx="238.3106" cy="-457.9" rx="3.5" ry="3.5"/>
</g>
<!-- 6602&#45;&gt;6603 -->
<g id="edge44" class="edge">
<title>6602&#45;&gt;6603</title>
<path fill="none" stroke="#c0c0c0" d="M238.3106,-389.771C238.3106,-399.8263 238.3106,-427.1592 238.3106,-443.9903"/>
<polygon fill="#c0c0c0" stroke="#c0c0c0" points="234.8107,-444.354 238.3106,-454.3541 241.8107,-444.3541 234.8107,-444.354"/>
<text text-anchor="middle" x="205.2457" y="-427.3807" font-family="Arial" font-size="7.00" fill="#000000">Elsrijkdreef </text>
<text text-anchor="middle" x="205.2457" y="-418.9807" font-family="Arial" font-size="7.00" fill="#000000"> (via St. Ganzenhoef)</text>
</g>
<!-- 6604 -->
<g id="node22" class="node">
<title>6604</title>
<ellipse fill="#d3d3d3" stroke="#c0c0c0" cx="310.3106" cy="-457.9" rx="3.5" ry="3.5"/>
</g>
<!-- 6603&#45;&gt;6604 -->
<g id="edge45" class="edge">
<title>6603&#45;&gt;6604</title>
<path fill="none" stroke="#c0c0c0" d="M242.1816,-457.9C252.2369,-457.9 279.5698,-457.9 296.4009,-457.9"/>
<polygon fill="#c0c0c0" stroke="#c0c0c0" points="296.7647,-461.4001 306.7646,-457.9 296.7646,-454.4001 296.7647,-461.4001"/>
<text text-anchor="middle" x="281.0562" y="-451.6" font-family="Arial" font-size="7.00" fill="#000000">Provincialeweg</text>
</g>
<!-- 6605 -->
<g id="node23" class="node">
<title>6605</title>
<ellipse fill="#d3d3d3" stroke="#c0c0c0" cx="310.3106" cy="-385.9" rx="3.5" ry="3.5"/>
</g>
<!-- 6604&#45;&gt;6605 -->
<g id="edge46" class="edge">
<title>6604&#45;&gt;6605</title>
<path fill="none" stroke="#c0c0c0" d="M310.3106,-454.029C310.3106,-443.9737 310.3106,-416.6408 310.3106,-399.8096"/>
<polygon fill="#c0c0c0" stroke="#c0c0c0" points="313.8107,-399.4459 310.3106,-389.4459 306.8107,-399.446 313.8107,-399.4459"/>
<text text-anchor="middle" x="284.447" y="-429.0193" font-family="Arial" font-size="7.00" fill="#000000">Muiderstraatweg</text>
</g>
<!-- 6606 -->
<g id="node24" class="node">
<title>6606</title>
<ellipse fill="#d3d3d3" stroke="#c0c0c0" cx="454.3106" cy="-385.9" rx="3.5" ry="3.5"/>
</g>
<!-- 6605&#45;&gt;6606 -->
<g id="edge47" class="edge">
<title>6605&#45;&gt;6606</title>
<path fill="none" stroke="#c0c0c0" d="M313.8701,-385.9C331.3817,-385.9 408.8184,-385.9 440.6134,-385.9"/>
<polygon fill="#c0c0c0" stroke="#c0c0c0" points="440.6155,-389.4001 450.6154,-385.9 440.6154,-382.4001 440.6155,-389.4001"/>
<text text-anchor="middle" x="356.8231" y="-388" font-family="Arial" font-size="7.00" fill="#000000">Weteringweg</text>
</g>
<!-- 6606&#45;&gt;6607 -->
<g id="edge48" class="edge">
<title>6606&#45;&gt;6607</title>
<path fill="none" stroke="#c0c0c0" d="M454.3106,-382.029C454.3106,-371.9737 454.3106,-344.6408 454.3106,-327.8096"/>
<polygon fill="#c0c0c0" stroke="#c0c0c0" points="457.8107,-327.4459 454.3106,-317.4459 450.8107,-327.446 457.8107,-327.4459"/>
<text text-anchor="middle" x="426.8933" y="-357.0193" font-family="Arial" font-size="7.00" fill="#000000">Diemerpolderweg</text>
</g>
<!-- 6607&#45;&gt;4915 -->
<g id="edge49" class="edge">
<title>6607&#45;&gt;4915</title>
<path fill="none" stroke="#c0c0c0" d="M458.1816,-313.9C468.2369,-313.9 495.5698,-313.9 512.4009,-313.9"/>
<polygon fill="#c0c0c0" stroke="#c0c0c0" points="512.7647,-317.4001 522.7646,-313.9 512.7646,-310.4001 512.7647,-317.4001"/>
<text text-anchor="middle" x="485.2913" y="-307.6" font-family="Arial" font-size="7.00" fill="#000000">Diemerpolderweg </text>
<text text-anchor="middle" x="485.2913" y="-299.2" font-family="Arial" font-size="7.00" fill="#000000"> (via Diemerknoop)</text>
</g>
<!-- 6609 -->
<g id="node27" class="node">
<title>6609</title>
<ellipse fill="#d3d3d3" stroke="#c0c0c0" cx="526.3106" cy="-385.9" rx="3.5" ry="3.5"/>
</g>
<!-- 6608&#45;&gt;6609 -->
<g id="edge51" class="edge">
<title>6608&#45;&gt;6609</title>
<path fill="none" stroke="#c0c0c0" d="M594.4395,-385.9C584.3843,-385.9 557.0514,-385.9 540.2202,-385.9"/>
<polygon fill="#c0c0c0" stroke="#c0c0c0" points="539.8565,-382.4001 529.8565,-385.9 539.8565,-389.4001 539.8565,-382.4001"/>
<text text-anchor="middle" x="567.3299" y="-379.6" font-family="Arial" font-size="7.00" fill="#000000">Pampuslaan </text>
<text text-anchor="middle" x="567.3299" y="-371.2" font-family="Arial" font-size="7.00" fill="#000000"> (lijn 66)</text>
</g>
<!-- 36003 -->
<g id="node31" class="node">
<title>36003</title>
<ellipse fill="#d3d3d3" stroke="#c0c0c0" cx="670.3106" cy="-385.9" rx="24.4833" ry="24.4833"/>
<text text-anchor="middle" x="670.3106" y="-383.8" font-family="Arial" font-size="7.00" fill="#000000">BEDL</text>
</g>
<!-- 6608&#45;&gt;36003 -->
<g id="edge50" class="edge">
<title>6608&#45;&gt;36003</title>
<path fill="none" stroke="#c0c0c0" d="M602.1816,-385.9C608.6989,-385.9 622.4745,-385.9 635.9444,-385.9"/>
<polygon fill="#c0c0c0" stroke="#c0c0c0" points="636.0602,-389.4001 646.0601,-385.9 636.0601,-382.4001 636.0602,-389.4001"/>
<text text-anchor="middle" x="619.063" y="-379.6" font-family="Arial" font-size="7.00" fill="#000000">Pampuslaan </text>
<text text-anchor="middle" x="619.063" y="-371.2" font-family="Arial" font-size="7.00" fill="#000000"> (lijn 49, 360)</text>
</g>
<!-- 6610 -->
<g id="node28" class="node">
<title>6610</title>
<ellipse fill="#d3d3d3" stroke="#c0c0c0" cx="526.3106" cy="-457.9" rx="21.4356" ry="21.4356"/>
<text text-anchor="middle" x="526.3106" y="-455.8" font-family="Arial" font-size="7.00" fill="#000000">VPS</text>
</g>
<!-- 6609&#45;&gt;6610 -->
<g id="edge52" class="edge">
<title>6609&#45;&gt;6610</title>
<path fill="none" stroke="#c0c0c0" d="M526.3106,-389.771C526.3106,-396.7283 526.3106,-411.9569 526.3106,-426.2553"/>
<polygon fill="#c0c0c0" stroke="#c0c0c0" points="522.8107,-426.3707 526.3106,-436.3708 529.8107,-426.3708 522.8107,-426.3707"/>
<text text-anchor="middle" x="509.9722" y="-410.1131" font-family="Arial" font-size="7.00" fill="#000000">IJburglaan</text>
</g>
<!-- 36002 -->
<g id="node30" class="node">
<title>36002</title>
<ellipse fill="#d3d3d3" stroke="#c0c0c0" cx="238.3106" cy="-169.9" rx="3.5" ry="3.5"/>
</g>
<!-- 36001&#45;&gt;36002 -->
<g id="edge25" class="edge">
<title>36001&#45;&gt;36002</title>
<path fill="none" stroke="#c0c0c0" d="M170.1816,-169.9C180.2369,-169.9 207.5698,-169.9 224.4009,-169.9"/>
<polygon fill="#c0c0c0" stroke="#c0c0c0" points="224.7647,-173.4001 234.7646,-169.9 224.7646,-166.4001 224.7647,-173.4001"/>
<text text-anchor="middle" x="215.9638" y="-180.4" font-family="Arial" font-size="7.00" fill="#000000">Langbroek&#45; </text>
<text text-anchor="middle" x="215.9638" y="-172" font-family="Arial" font-size="7.00" fill="#000000"> &#45;dreef</text>
</g>
<!-- 36002&#45;&gt;4905 -->
<g id="edge26" class="edge">
<title>36002&#45;&gt;4905</title>
<path fill="none" stroke="#c0c0c0" d="M252.2799,-169.9C265.0458,-169.9 283.8165,-169.9 296.5245,-169.9"/>
<polygon fill="#c0c0c0" stroke="#c0c0c0" points="252.1816,-166.4001 242.1816,-169.9 252.1816,-173.4001 252.1816,-166.4001"/>
<polygon fill="#c0c0c0" stroke="#c0c0c0" points="296.7647,-173.4001 306.7646,-169.9 296.7646,-166.4001 296.7647,-173.4001"/>
<text text-anchor="middle" x="301.6305" y="-188.8" font-family="Arial" font-size="7.00" fill="#000000">Langbroekdreef </text>
<text text-anchor="middle" x="301.6305" y="-180.4" font-family="Arial" font-size="7.00" fill="#000000"> (lijn 49 via </text>
<text text-anchor="middle" x="301.6305" y="-172" font-family="Arial" font-size="7.00" fill="#000000"> St. Gaasperplas)</text>
</g>
<!-- 4401&#45;&gt;6602 -->
<g id="edge29" class="edge">
<title>4401&#45;&gt;6602</title>
<path fill="none" stroke="#c0c0c0" d="M170.1816,-385.9C180.2369,-385.9 207.5698,-385.9 224.4009,-385.9"/>
<polygon fill="#c0c0c0" stroke="#c0c0c0" points="224.7647,-389.4001 234.7646,-385.9 224.7646,-382.4001 224.7647,-389.4001"/>
<text text-anchor="middle" x="207.11" y="-379.6" font-family="Arial" font-size="7.00" fill="#000000">Bijlmerdreef </text>
<text text-anchor="middle" x="207.11" y="-371.2" font-family="Arial" font-size="7.00" fill="#000000"> (lijn 66)</text>
</g>
<!-- 4402 -->
<g id="node33" class="node">
<title>4402</title>
<ellipse fill="#d3d3d3" stroke="#c0c0c0" cx="166.3106" cy="-529.9" rx="3.5" ry="3.5"/>
</g>
<!-- 4401&#45;&gt;4402 -->
<g id="edge30" class="edge">
<title>4401&#45;&gt;4402</title>
<path fill="none" stroke="#c0c0c0" d="M166.3106,-389.4596C166.3106,-406.9711 166.3106,-484.4078 166.3106,-516.2028"/>
<polygon fill="#c0c0c0" stroke="#c0c0c0" points="162.8107,-516.2048 166.3106,-526.2048 169.8107,-516.2049 162.8107,-516.2048"/>
<text text-anchor="middle" x="145.5006" y="-463.3312" font-family="Arial" font-size="7.00" fill="#000000">Dolingadreef </text>
<text text-anchor="middle" x="145.5006" y="-454.9312" font-family="Arial" font-size="7.00" fill="#000000"> (lijn 44)</text>
</g>
<!-- 4403 -->
<g id="node34" class="node">
<title>4403</title>
<ellipse fill="#d3d3d3" stroke="#c0c0c0" cx="238.3106" cy="-529.9" rx="3.5" ry="3.5"/>
</g>
<!-- 4402&#45;&gt;4403 -->
<g id="edge31" class="edge">
<title>4402&#45;&gt;4403</title>
<path fill="none" stroke="#c0c0c0" d="M170.1816,-529.9C180.2369,-529.9 207.5698,-529.9 224.4009,-529.9"/>
<polygon fill="#c0c0c0" stroke="#c0c0c0" points="224.7647,-533.4001 234.7646,-529.9 224.7646,-526.4001 224.7647,-533.4001"/>
<text text-anchor="middle" x="207.7909" y="-523.6" font-family="Arial" font-size="7.00" fill="#000000">Daalwijkdreef</text>
</g>
<!-- 4404 -->
<g id="node35" class="node">
<title>4404</title>
<ellipse fill="#d3d3d3" stroke="#c0c0c0" cx="238.3106" cy="-673.9" rx="3.5" ry="3.5"/>
</g>
<!-- 4403&#45;&gt;4404 -->
<g id="edge32" class="edge">
<title>4403&#45;&gt;4404</title>
<path fill="none" stroke="#c0c0c0" d="M238.3106,-533.4596C238.3106,-550.9711 238.3106,-628.4079 238.3106,-660.2028"/>
<polygon fill="#c0c0c0" stroke="#c0c0c0" points="234.8107,-660.2048 238.3106,-670.2048 241.8107,-660.2049 234.8107,-660.2048"/>
<text text-anchor="middle" x="204.4764" y="-624.1312" font-family="Arial" font-size="7.00" fill="#000000">Bergwijkdreef </text>
<text text-anchor="middle" x="204.4764" y="-615.7312" font-family="Arial" font-size="7.00" fill="#000000"> Boven Rijkersloot </text>
<text text-anchor="middle" x="204.4764" y="-607.3312" font-family="Arial" font-size="7.00" fill="#000000"> Beneden R. </text>
<text text-anchor="middle" x="204.4764" y="-598.9312" font-family="Arial" font-size="7.00" fill="#000000"> (via St. Diemen Zuid)</text>
</g>
<!-- 4405 -->
<g id="node36" class="node">
<title>4405</title>
<ellipse fill="#d3d3d3" stroke="#c0c0c0" cx="310.3106" cy="-673.9" rx="3.5" ry="3.5"/>
</g>
<!-- 4404&#45;&gt;4405 -->
<g id="edge33" class="edge">
<title>4404&#45;&gt;4405</title>
<path fill="none" stroke="#c0c0c0" d="M242.1816,-673.9C252.2369,-673.9 279.5698,-673.9 296.4009,-673.9"/>
<polygon fill="#c0c0c0" stroke="#c0c0c0" points="296.7647,-677.4001 306.7646,-673.9 296.7646,-670.4001 296.7647,-677.4001"/>
<text text-anchor="middle" x="279.6005" y="-667.6" font-family="Arial" font-size="7.00" fill="#000000">Beneden R. </text>
<text text-anchor="middle" x="279.6005" y="-659.2" font-family="Arial" font-size="7.00" fill="#000000"> Boven R.</text>
<text text-anchor="middle" x="279.6005" y="-650.8" font-family="Arial" font-size="7.00" fill="#000000"> Beukenhorst</text>
</g>
<!-- 4406 -->
<g id="node37" class="node">
<title>4406</title>
<ellipse fill="#d3d3d3" stroke="#c0c0c0" cx="310.3106" cy="-529.9" rx="3.5" ry="3.5"/>
</g>
<!-- 4405&#45;&gt;4406 -->
<g id="edge34" class="edge">
<title>4405&#45;&gt;4406</title>
<path fill="none" stroke="#c0c0c0" d="M310.3106,-670.3404C310.3106,-652.8289 310.3106,-575.3921 310.3106,-543.5972"/>
<polygon fill="#c0c0c0" stroke="#c0c0c0" points="313.8107,-543.5951 310.3106,-533.5951 306.8107,-543.5952 313.8107,-543.5951"/>
<text text-anchor="middle" x="283.4743" y="-617.4688" font-family="Arial" font-size="7.00" fill="#000000">Hartveldseweg </text>
<text text-anchor="middle" x="283.4743" y="-609.0688" font-family="Arial" font-size="7.00" fill="#000000"> Muiderstraatweg</text>
</g>
<!-- 4416 -->
<g id="node46" class="node">
<title>4416</title>
<ellipse fill="#d3d3d3" stroke="#c0c0c0" cx="382.3106" cy="-673.9" rx="3.5" ry="3.5"/>
</g>
<!-- 4405&#45;&gt;4416 -->
<g id="edge2" class="edge">
<title>4405&#45;&gt;4416</title>
<path fill="none" stroke="#c0c0c0" stroke-dasharray="5,2" d="M314.1816,-673.9C326.8,-673.9 366.6268,-673.9 378.7646,-673.9"/>
<text text-anchor="middle" x="346.4731" y="-667.6" font-family="Arial" font-size="7.00" fill="#000000">Burgemeester </text>
<text text-anchor="middle" x="346.4731" y="-659.2" font-family="Arial" font-size="7.00" fill="#000000"> Bickerstraat</text>
</g>
<!-- 4407 -->
<g id="node38" class="node">
<title>4407</title>
<ellipse fill="#d3d3d3" stroke="#c0c0c0" cx="382.3106" cy="-529.9" rx="3.5" ry="3.5"/>
</g>
<!-- 4406&#45;&gt;4407 -->
<g id="edge35" class="edge">
<title>4406&#45;&gt;4407</title>
<path fill="none" stroke="#c0c0c0" d="M314.1816,-529.9C324.2369,-529.9 351.5698,-529.9 368.4009,-529.9"/>
<polygon fill="#c0c0c0" stroke="#c0c0c0" points="368.7647,-533.4001 378.7646,-529.9 368.7646,-526.4001 368.7647,-533.4001"/>
<text text-anchor="middle" x="341.2913" y="-523.6" font-family="Arial" font-size="7.00" fill="#000000">Prins Bernhardlaan</text>
</g>
<!-- 4408 -->
<g id="node39" class="node">
<title>4408</title>
<ellipse fill="#d3d3d3" stroke="#c0c0c0" cx="382.3106" cy="-601.9" rx="3.5" ry="3.5"/>
</g>
<!-- 4407&#45;&gt;4408 -->
<g id="edge36" class="edge">
<title>4407&#45;&gt;4408</title>
<path fill="none" stroke="#c0c0c0" d="M382.3106,-533.771C382.3106,-543.8263 382.3106,-571.1592 382.3106,-587.9903"/>
<polygon fill="#c0c0c0" stroke="#c0c0c0" points="378.8107,-588.354 382.3106,-598.3541 385.8107,-588.3541 378.8107,-588.354"/>
<text text-anchor="middle" x="352.1672" y="-562.9807" font-family="Arial" font-size="7.00" fill="#000000">Prinses Beatrixlaan</text>
</g>
<!-- 4409 -->
<g id="node40" class="node">
<title>4409</title>
<ellipse fill="#d3d3d3" stroke="#c0c0c0" cx="454.3106" cy="-601.9" rx="3.5" ry="3.5"/>
</g>
<!-- 4408&#45;&gt;4409 -->
<g id="edge37" class="edge">
<title>4408&#45;&gt;4409</title>
<path fill="none" stroke="#c0c0c0" d="M386.1816,-601.9C396.2369,-601.9 423.5698,-601.9 440.4009,-601.9"/>
<polygon fill="#c0c0c0" stroke="#c0c0c0" points="440.7647,-605.4001 450.7646,-601.9 440.7646,-598.4001 440.7647,-605.4001"/>
<text text-anchor="middle" x="413.2913" y="-595.6" font-family="Arial" font-size="7.00" fill="#000000">Ouddiemerlaan </text>
<text text-anchor="middle" x="413.2913" y="-587.2" font-family="Arial" font-size="7.00" fill="#000000"> (via St. Diemen)</text>
</g>
<!-- 4408&#45;&gt;4416 -->
<g id="edge1" class="edge">
<title>4408&#45;&gt;4416</title>
<path fill="none" stroke="#c0c0c0" stroke-dasharray="5,2" d="M382.3106,-605.771C382.3106,-618.3894 382.3106,-658.2162 382.3106,-670.3541"/>
<text text-anchor="middle" x="350.0294" y="-640.1625" font-family="Arial" font-size="7.00" fill="#000000">Wilhelminaplantsoen</text>
</g>
<!-- 4410 -->
<g id="node41" class="node">
<title>4410</title>
<ellipse fill="#d3d3d3" stroke="#c0c0c0" cx="454.3106" cy="-529.9" rx="3.5" ry="3.5"/>
</g>
<!-- 4409&#45;&gt;4410 -->
<g id="edge38" class="edge">
<title>4409&#45;&gt;4410</title>
<path fill="none" stroke="#c0c0c0" d="M454.3106,-598.029C454.3106,-587.9737 454.3106,-560.6408 454.3106,-543.8096"/>
<polygon fill="#c0c0c0" stroke="#c0c0c0" points="457.8107,-543.4459 454.3106,-533.4459 450.8107,-543.4459 457.8107,-543.4459"/>
<text text-anchor="middle" x="426.8933" y="-573.0193" font-family="Arial" font-size="7.00" fill="#000000">Diemerpolderweg</text>
</g>
<!-- 4417 -->
<g id="node47" class="node">
<title>4417</title>
<ellipse fill="#d3d3d3" stroke="#c0c0c0" cx="454.3106" cy="-673.9" rx="3.5" ry="3.5"/>
</g>
<!-- 4409&#45;&gt;4417 -->
<g id="edge3" class="edge">
<title>4409&#45;&gt;4417</title>
<path fill="none" stroke="#c0c0c0" stroke-dasharray="5,2" d="M454.3106,-605.771C454.3106,-618.3894 454.3106,-658.2162 454.3106,-670.3541"/>
<text text-anchor="middle" x="436.9989" y="-640.1625" font-family="Arial" font-size="7.00" fill="#000000">Buytenweg</text>
</g>
<!-- 4411 -->
<g id="node42" class="node">
<title>4411</title>
<ellipse fill="#d3d3d3" stroke="#c0c0c0" cx="526.3106" cy="-529.9" rx="3.5" ry="3.5"/>
</g>
<!-- 4410&#45;&gt;4411 -->
<g id="edge39" class="edge">
<title>4410&#45;&gt;4411</title>
<path fill="none" stroke="#c0c0c0" d="M458.1816,-529.9C468.2369,-529.9 495.5698,-529.9 512.4009,-529.9"/>
<polygon fill="#c0c0c0" stroke="#c0c0c0" points="512.7647,-533.4001 522.7646,-529.9 512.7646,-526.4001 512.7647,-533.4001"/>
<text text-anchor="middle" x="500.657" y="-532" font-family="Arial" font-size="7.00" fill="#000000">Vogelweg</text>
</g>
<!-- 4412 -->
<g id="node43" class="node">
<title>4412</title>
<ellipse fill="#d3d3d3" stroke="#c0c0c0" cx="526.3106" cy="-601.9" rx="3.5" ry="3.5"/>
</g>
<!-- 4411&#45;&gt;4412 -->
<g id="edge40" class="edge">
<title>4411&#45;&gt;4412</title>
<path fill="none" stroke="#c0c0c0" d="M526.3106,-533.771C526.3106,-543.8263 526.3106,-571.1592 526.3106,-587.9903"/>
<polygon fill="#c0c0c0" stroke="#c0c0c0" points="522.8107,-588.354 526.3106,-598.3541 529.8107,-588.3541 522.8107,-588.354"/>
<text text-anchor="middle" x="506.8649" y="-562.9807" font-family="Arial" font-size="7.00" fill="#000000">Tureluurweg</text>
</g>
<!-- 4413 -->
<g id="node44" class="node">
<title>4413</title>
<ellipse fill="#d3d3d3" stroke="#c0c0c0" cx="562.3106" cy="-637.9" rx=".5" ry=".5"/>
</g>
<!-- 4412&#45;&gt;4413 -->
<g id="edge41" class="edge">
<title>4412&#45;&gt;4413</title>
<path fill="none" stroke="#c0c0c0" d="M529.1354,-604.7248C534.5432,-610.1326 546.5294,-622.1188 554.5147,-630.1041"/>
<polygon fill="#c0c0c0" stroke="#c0c0c0" points="552.1473,-632.6865 561.6933,-637.2827 557.0971,-627.7367 552.1473,-632.6865"/>
<text text-anchor="middle" x="518.4878" y="-619.5145" font-family="Arial" font-size="7.00" fill="#000000">Rietzangerweg</text>
</g>
<!-- 4419 -->
<g id="node49" class="node">
<title>4419</title>
<ellipse fill="#d3d3d3" stroke="#c0c0c0" cx="598.3106" cy="-601.9" rx="3.5" ry="3.5"/>
</g>
<!-- 4413&#45;&gt;4419 -->
<g id="edge42" class="edge">
<title>4413&#45;&gt;4419</title>
<path fill="none" stroke="#c0c0c0" d="M562.7149,-637.4957C565.2225,-634.988 578.8597,-621.3508 588.5054,-611.7052"/>
<polygon fill="#c0c0c0" stroke="#c0c0c0" points="591.2115,-613.9488 595.8077,-604.4029 586.2617,-608.9991 591.2115,-613.9488"/>
</g>
<!-- 4415 -->
<g id="node45" class="node">
<title>4415</title>
<ellipse fill="#d3d3d3" stroke="#c0c0c0" cx="598.3106" cy="-529.9" rx="22.6659" ry="22.6659"/>
<text text-anchor="middle" x="598.3106" y="-527.8" font-family="Arial" font-size="7.00" fill="#000000">DMN</text>
</g>
<!-- 4418 -->
<g id="node48" class="node">
<title>4418</title>
<ellipse fill="#d3d3d3" stroke="#c0c0c0" cx="598.3106" cy="-673.9" rx="3.5" ry="3.5"/>
</g>
<!-- 4417&#45;&gt;4418 -->
<g id="edge4" class="edge">
<title>4417&#45;&gt;4418</title>
<path fill="none" stroke="#c0c0c0" stroke-dasharray="5,2" d="M457.8701,-673.9C477.7062,-673.9 574.4328,-673.9 594.6154,-673.9"/>
<text text-anchor="middle" x="502.321" y="-676" font-family="Arial" font-size="7.00" fill="#000000">Oude Waelweg</text>
</g>
<!-- 4418&#45;&gt;4419 -->
<g id="edge5" class="edge">
<title>4418&#45;&gt;4419</title>
<path fill="none" stroke="#c0c0c0" stroke-dasharray="5,2" d="M598.3106,-670.029C598.3106,-657.4106 598.3106,-617.5837 598.3106,-605.4459"/>
<text text-anchor="middle" x="582.7524" y="-648.2374" font-family="Arial" font-size="7.00" fill="#000000">Meerkoet </text>
<text text-anchor="middle" x="582.7524" y="-639.8374" font-family="Arial" font-size="7.00" fill="#000000"> Zeezigt</text>
</g>
<!-- 4419&#45;&gt;4415 -->
<g id="edge43" class="edge">
<title>4419&#45;&gt;4415</title>
<path fill="none" stroke="#c0c0c0" d="M598.3106,-598.029C598.3106,-591.3254 598.3106,-576.943 598.3106,-563.1125"/>
<polygon fill="#c0c0c0" stroke="#c0c0c0" points="601.8107,-562.7801 598.3106,-552.7802 594.8107,-562.7802 601.8107,-562.7801"/>
<text text-anchor="middle" x="572.2587" y="-574.2707" font-family="Arial" font-size="7.00" fill="#000000">Meerkoet </text>
<text text-anchor="middle" x="572.2587" y="-565.8707" font-family="Arial" font-size="7.00" fill="#000000"> Fregat </text>
<text text-anchor="middle" x="572.2587" y="-557.4707" font-family="Arial" font-size="7.00" fill="#000000"> Hermelijnvlinder</text>
</g>
</g>
</svg>

