<?xml version="1.0" encoding="UTF-8" standalone="no"?>
<!DOCTYPE svg PUBLIC "-//W3C//DTD SVG 1.1//EN"
 "http://www.w3.org/Graphics/SVG/1.1/DTD/svg11.dtd">
<!-- Generated by graphviz version 2.40.1 (20161225.0304)
 -->
<!-- Title: G Pages: 1 -->
<svg width="528pt" height="753pt"
 viewBox="0.00 0.00 527.82 752.71" xmlns="http://www.w3.org/2000/svg" xmlns:xlink="http://www.w3.org/1999/xlink">
<g id="graph0" class="graph" transform="scale(1 1) rotate(0) translate(4 748.7117)">
<title>G</title>
<polygon fill="#ffffff" stroke="transparent" points="-4,4 -4,-748.7117 523.8215,-748.7117 523.8215,4 -4,4"/>
<!-- 6300 -->
<g id="node1" class="node">
<title>6300</title>
<ellipse fill="#d3d3d3" stroke="#c0c0c0" cx="137.5109" cy="-147.5" rx="20.2709" ry="20.2709"/>
<text text-anchor="middle" x="137.5109" y="-145.4" font-family="Times,serif" font-size="7.00" fill="#000000">LLL</text>
</g>
<!-- 6301 -->
<g id="node2" class="node">
<title>6301</title>
<ellipse fill="#d3d3d3" stroke="#c0c0c0" cx="209.5109" cy="-147.5" rx="3.5" ry="3.5"/>
</g>
<!-- 6300&#45;&gt;6301 -->
<g id="edge1" class="edge">
<title>6300&#45;&gt;6301</title>
<path fill="none" stroke="#c0c0c0" d="M157.9506,-147.5C170.0229,-147.5 184.9861,-147.5 195.678,-147.5"/>
<polygon fill="#c0c0c0" stroke="#c0c0c0" points="195.8383,-151.0001 205.8383,-147.5 195.8383,-144.0001 195.8383,-151.0001"/>
<text text-anchor="middle" x="201.5968" y="-141.2" font-family="Times,serif" font-size="7.00" fill="#000000">Pieter Calandlaan</text>
</g>
<!-- 6302 -->
<g id="node3" class="node">
<title>6302</title>
<ellipse fill="#d3d3d3" stroke="#c0c0c0" cx="209.5109" cy="-75.5" rx="3.5" ry="3.5"/>
</g>
<!-- 6301&#45;&gt;6302 -->
<g id="edge2" class="edge">
<title>6301&#45;&gt;6302</title>
<path fill="none" stroke="#c0c0c0" d="M209.5109,-143.629C209.5109,-133.5737 209.5109,-106.2408 209.5109,-89.4097"/>
<polygon fill="#c0c0c0" stroke="#c0c0c0" points="213.011,-89.0459 209.5109,-79.0459 206.011,-89.046 213.011,-89.0459"/>
<text text-anchor="middle" x="180.9369" y="-110.2193" font-family="Times,serif" font-size="7.00" fill="#000000">Johan Huizingalaan </text>
<text text-anchor="middle" x="180.9369" y="-101.8193" font-family="Times,serif" font-size="7.00" fill="#000000"> (lijn 63)</text>
</g>
<!-- 6202 -->
<g id="node12" class="node">
<title>6202</title>
<ellipse fill="#d3d3d3" stroke="#c0c0c0" cx="209.5109" cy="-291.5" rx="3.5" ry="3.5"/>
</g>
<!-- 6301&#45;&gt;6202 -->
<g id="edge11" class="edge">
<title>6301&#45;&gt;6202</title>
<path fill="none" stroke="#c0c0c0" d="M209.5109,-151.0596C209.5109,-168.5711 209.5109,-246.0079 209.5109,-277.8028"/>
<polygon fill="#c0c0c0" stroke="#c0c0c0" points="206.011,-277.8048 209.5109,-287.8049 213.011,-277.8049 206.011,-277.8048"/>
<text text-anchor="middle" x="180.9369" y="-224.9312" font-family="Times,serif" font-size="7.00" fill="#000000">Johan Huizingalaan </text>
<text text-anchor="middle" x="180.9369" y="-216.5312" font-family="Times,serif" font-size="7.00" fill="#000000"> (lijn 62)</text>
</g>
<!-- 6303 -->
<g id="node4" class="node">
<title>6303</title>
<ellipse fill="#d3d3d3" stroke="#c0c0c0" cx="281.5109" cy="-75.5" rx="3.5" ry="3.5"/>
</g>
<!-- 6302&#45;&gt;6303 -->
<g id="edge3" class="edge">
<title>6302&#45;&gt;6303</title>
<path fill="none" stroke="#c0c0c0" d="M213.3819,-75.5C223.4372,-75.5 250.7701,-75.5 267.6012,-75.5"/>
<polygon fill="#c0c0c0" stroke="#c0c0c0" points="267.965,-79.0001 277.965,-75.5 267.9649,-72.0001 267.965,-79.0001"/>
<text text-anchor="middle" x="251.3782" y="-69.2" font-family="Times,serif" font-size="7.00" fill="#000000">Comeniusstraat</text>
</g>
<!-- 6304 -->
<g id="node5" class="node">
<title>6304</title>
<ellipse fill="#d3d3d3" stroke="#c0c0c0" cx="281.5109" cy="-147.5" rx="3.5" ry="3.5"/>
</g>
<!-- 6303&#45;&gt;6304 -->
<g id="edge4" class="edge">
<title>6303&#45;&gt;6304</title>
<path fill="none" stroke="#c0c0c0" d="M281.5109,-79.371C281.5109,-89.4263 281.5109,-116.7592 281.5109,-133.5904"/>
<polygon fill="#c0c0c0" stroke="#c0c0c0" points="278.011,-133.9541 281.5109,-143.9541 285.011,-133.9541 278.011,-133.9541"/>
<text text-anchor="middle" x="255.3676" y="-125.3807" font-family="Times,serif" font-size="7.00" fill="#000000">Hemsterhuisstraat </text>
<text text-anchor="middle" x="255.3676" y="-116.9807" font-family="Times,serif" font-size="7.00" fill="#000000"> Luis Bouw&#45;</text>
<text text-anchor="middle" x="255.3676" y="-108.5807" font-family="Times,serif" font-size="7.00" fill="#000000">&#45;meesterstraat</text>
</g>
<!-- 6305 -->
<g id="node6" class="node">
<title>6305</title>
<ellipse fill="#d3d3d3" stroke="#c0c0c0" cx="353.5109" cy="-147.5" rx="3.5" ry="3.5"/>
</g>
<!-- 6304&#45;&gt;6305 -->
<g id="edge5" class="edge">
<title>6304&#45;&gt;6305</title>
<path fill="none" stroke="#c0c0c0" d="M285.3819,-147.5C295.4372,-147.5 322.7701,-147.5 339.6012,-147.5"/>
<polygon fill="#c0c0c0" stroke="#c0c0c0" points="339.965,-151.0001 349.965,-147.5 339.9649,-144.0001 339.965,-151.0001"/>
<text text-anchor="middle" x="324.8828" y="-141.2" font-family="Times,serif" font-size="7.00" fill="#000000">Pieter Calandlaan</text>
</g>
<!-- 6306 -->
<g id="node7" class="node">
<title>6306</title>
<ellipse fill="#d3d3d3" stroke="#c0c0c0" cx="353.5109" cy="-75.5" rx="3.5" ry="3.5"/>
</g>
<!-- 6305&#45;&gt;6306 -->
<g id="edge6" class="edge">
<title>6305&#45;&gt;6306</title>
<path fill="none" stroke="#c0c0c0" d="M353.5109,-143.629C353.5109,-133.5737 353.5109,-106.2408 353.5109,-89.4097"/>
<polygon fill="#c0c0c0" stroke="#c0c0c0" points="357.011,-89.0459 353.5109,-79.0459 350.011,-89.046 357.011,-89.0459"/>
<text text-anchor="middle" x="333.3019" y="-118.6193" font-family="Times,serif" font-size="7.00" fill="#000000">Meer en Vaart</text>
</g>
<!-- 6307 -->
<g id="node8" class="node">
<title>6307</title>
<ellipse fill="#d3d3d3" stroke="#c0c0c0" cx="425.5109" cy="-75.5" rx="3.5" ry="3.5"/>
</g>
<!-- 6306&#45;&gt;6307 -->
<g id="edge7" class="edge">
<title>6306&#45;&gt;6307</title>
<path fill="none" stroke="#c0c0c0" d="M357.3819,-75.5C367.4372,-75.5 394.7701,-75.5 411.6012,-75.5"/>
<polygon fill="#c0c0c0" stroke="#c0c0c0" points="411.965,-79.0001 421.965,-75.5 411.9649,-72.0001 411.965,-79.0001"/>
<text text-anchor="middle" x="394.2589" y="-69.2" font-family="Times,serif" font-size="7.00" fill="#000000">Osdorper Ban</text>
</g>
<!-- 6308 -->
<g id="node9" class="node">
<title>6308</title>
<ellipse fill="#d3d3d3" stroke="#c0c0c0" cx="425.5109" cy="-3.5" rx="3.5" ry="3.5"/>
</g>
<!-- 6307&#45;&gt;6308 -->
<g id="edge8" class="edge">
<title>6307&#45;&gt;6308</title>
<path fill="none" stroke="#c0c0c0" d="M425.5109,-71.629C425.5109,-61.5737 425.5109,-34.2408 425.5109,-17.4097"/>
<polygon fill="#c0c0c0" stroke="#c0c0c0" points="429.011,-17.0459 425.5109,-7.0459 422.011,-17.046 429.011,-17.0459"/>
<text text-anchor="middle" x="400.1429" y="-46.6193" font-family="Times,serif" font-size="7.00" fill="#000000">Baden Powellweg</text>
</g>
<!-- 6309 -->
<g id="node10" class="node">
<title>6309</title>
<ellipse fill="#d3d3d3" stroke="#c0c0c0" cx="497.5109" cy="-3.5" rx="3.5" ry="3.5"/>
</g>
<!-- 6308&#45;&gt;6309 -->
<g id="edge9" class="edge">
<title>6308&#45;&gt;6309</title>
<path fill="none" stroke="#c0c0c0" d="M429.3819,-3.5C439.4372,-3.5 466.7701,-3.5 483.6012,-3.5"/>
<polygon fill="#c0c0c0" stroke="#c0c0c0" points="483.965,-7.0001 493.965,-3.5 483.9649,-.0001 483.965,-7.0001"/>
<text text-anchor="middle" x="475.3436" y="-5.6" font-family="Times,serif" font-size="7.00" fill="#000000">Ookmeerweg</text>
</g>
<!-- 6310 -->
<g id="node11" class="node">
<title>6310</title>
<ellipse fill="#d3d3d3" stroke="#c0c0c0" cx="497.5109" cy="-75.5" rx="22.1227" ry="22.1227"/>
<text text-anchor="middle" x="497.5109" y="-73.4" font-family="Times,serif" font-size="7.00" fill="#000000">MTH</text>
</g>
<!-- 6309&#45;&gt;6310 -->
<g id="edge10" class="edge">
<title>6309&#45;&gt;6310</title>
<path fill="none" stroke="#c0c0c0" d="M497.5109,-7.371C497.5109,-14.1211 497.5109,-28.6572 497.5109,-42.5756"/>
<polygon fill="#c0c0c0" stroke="#c0c0c0" points="494.011,-42.9594 497.5109,-52.9595 501.011,-42.9595 494.011,-42.9594"/>
<text text-anchor="middle" x="478.0723" y="-27.0733" font-family="Times,serif" font-size="7.00" fill="#000000">Baldwinstraat</text>
</g>
<!-- 6203 -->
<g id="node13" class="node">
<title>6203</title>
<ellipse fill="#d3d3d3" stroke="#c0c0c0" cx="137.5109" cy="-291.5" rx="3.5" ry="3.5"/>
</g>
<!-- 6202&#45;&gt;6203 -->
<g id="edge12" class="edge">
<title>6202&#45;&gt;6203</title>
<path fill="none" stroke="#c0c0c0" d="M205.6399,-291.5C195.5846,-291.5 168.2517,-291.5 151.4205,-291.5"/>
<polygon fill="#c0c0c0" stroke="#c0c0c0" points="151.0569,-288.0001 141.0568,-291.5 151.0568,-295.0001 151.0569,-288.0001"/>
<text text-anchor="middle" x="178.5302" y="-285.2" font-family="Times,serif" font-size="7.00" fill="#000000">Aletta Jacobslaan</text>
</g>
<!-- 6204 -->
<g id="node14" class="node">
<title>6204</title>
<ellipse fill="#d3d3d3" stroke="#c0c0c0" cx="137.5109" cy="-219.5" rx="3.5" ry="3.5"/>
</g>
<!-- 6203&#45;&gt;6204 -->
<g id="edge13" class="edge">
<title>6203&#45;&gt;6204</title>
<path fill="none" stroke="#c0c0c0" d="M137.5109,-287.629C137.5109,-277.5737 137.5109,-250.2408 137.5109,-233.4097"/>
<polygon fill="#c0c0c0" stroke="#c0c0c0" points="141.011,-233.0459 137.5109,-223.0459 134.011,-233.046 141.011,-233.0459"/>
<text text-anchor="middle" x="114.3829" y="-262.6193" font-family="Times,serif" font-size="7.00" fill="#000000">Vlaardingenlaan</text>
</g>
<!-- 6205 -->
<g id="node15" class="node">
<title>6205</title>
<ellipse fill="#d3d3d3" stroke="#c0c0c0" cx="65.5109" cy="-219.5" rx="3.5" ry="3.5"/>
</g>
<!-- 6204&#45;&gt;6205 -->
<g id="edge14" class="edge">
<title>6204&#45;&gt;6205</title>
<path fill="none" stroke="#c0c0c0" d="M133.6399,-219.5C123.5846,-219.5 96.2517,-219.5 79.4205,-219.5"/>
<polygon fill="#c0c0c0" stroke="#c0c0c0" points="79.0569,-216.0001 69.0568,-219.5 79.0568,-223.0001 79.0569,-216.0001"/>
<text text-anchor="middle" x="106.5302" y="-213.2" font-family="Times,serif" font-size="7.00" fill="#000000">Aalsmeer&#45;plein </text>
<text text-anchor="middle" x="106.5302" y="-204.8" font-family="Times,serif" font-size="7.00" fill="#000000"> &#45;weg</text>
</g>
<!-- 6206 -->
<g id="node16" class="node">
<title>6206</title>
<ellipse fill="#d3d3d3" stroke="#c0c0c0" cx="65.5109" cy="-363.5" rx="3.5" ry="3.5"/>
</g>
<!-- 6205&#45;&gt;6206 -->
<g id="edge15" class="edge">
<title>6205&#45;&gt;6206</title>
<path fill="none" stroke="#c0c0c0" d="M65.5109,-223.0596C65.5109,-240.5711 65.5109,-318.0079 65.5109,-349.8028"/>
<polygon fill="#c0c0c0" stroke="#c0c0c0" points="62.011,-349.8048 65.5109,-359.8049 69.011,-349.8049 62.011,-349.8048"/>
<text text-anchor="middle" x="41.1149" y="-305.3312" font-family="Times,serif" font-size="7.00" fill="#000000">Hoofddorp&#45;plein </text>
<text text-anchor="middle" x="41.1149" y="-296.9312" font-family="Times,serif" font-size="7.00" fill="#000000"> &#45;weg </text>
<text text-anchor="middle" x="41.1149" y="-288.5312" font-family="Times,serif" font-size="7.00" fill="#000000"> Zeilstraat</text>
</g>
<!-- 6207 -->
<g id="node17" class="node">
<title>6207</title>
<ellipse fill="#d3d3d3" stroke="#c0c0c0" cx="209.5109" cy="-363.5" rx="3.5" ry="3.5"/>
</g>
<!-- 6206&#45;&gt;6207 -->
<g id="edge16" class="edge">
<title>6206&#45;&gt;6207</title>
<path fill="none" stroke="#c0c0c0" d="M69.0705,-363.5C86.582,-363.5 164.0188,-363.5 195.8137,-363.5"/>
<polygon fill="#c0c0c0" stroke="#c0c0c0" points="195.8158,-367.0001 205.8157,-363.5 195.8157,-360.0001 195.8158,-367.0001"/>
<text text-anchor="middle" x="132.4421" y="-357.2" font-family="Times,serif" font-size="7.00" fill="#000000">Amstelveenseweg </text>
<text text-anchor="middle" x="132.4421" y="-348.8" font-family="Times,serif" font-size="7.00" fill="#000000"> (via Haarlemmermeer &amp; Stadionplein)</text>
</g>
<!-- 6208 -->
<g id="node18" class="node">
<title>6208</title>
<ellipse fill="#d3d3d3" stroke="#c0c0c0" cx="209.5109" cy="-435.5" rx="3.5" ry="3.5"/>
</g>
<!-- 6207&#45;&gt;6208 -->
<g id="edge17" class="edge">
<title>6207&#45;&gt;6208</title>
<path fill="none" stroke="#c0c0c0" d="M209.5109,-367.371C209.5109,-377.4263 209.5109,-404.7592 209.5109,-421.5904"/>
<polygon fill="#c0c0c0" stroke="#c0c0c0" points="206.011,-421.954 209.5109,-431.9541 213.011,-421.9541 206.011,-421.954"/>
<text text-anchor="middle" x="180.8403" y="-404.9807" font-family="Times,serif" font-size="7.00" fill="#000000">De Boelelaan </text>
<text text-anchor="middle" x="180.8403" y="-396.5807" font-family="Times,serif" font-size="7.00" fill="#000000"> Buitenveldertselaan</text>
</g>
<!-- 6209 -->
<g id="node19" class="node">
<title>6209</title>
<ellipse fill="#d3d3d3" stroke="#c0c0c0" cx="137.5109" cy="-435.5" rx="3.5" ry="3.5"/>
</g>
<!-- 6208&#45;&gt;6209 -->
<g id="edge18" class="edge">
<title>6208&#45;&gt;6209</title>
<path fill="none" stroke="#c0c0c0" d="M205.6399,-435.5C195.5846,-435.5 168.2517,-435.5 151.4205,-435.5"/>
<polygon fill="#c0c0c0" stroke="#c0c0c0" points="151.0569,-432.0001 141.0568,-435.5 151.0568,-439.0001 151.0569,-432.0001"/>
<text text-anchor="middle" x="178.5302" y="-429.2" font-family="Times,serif" font-size="7.00" fill="#000000">Parnassusweg</text>
</g>
<!-- 6210 -->
<g id="node20" class="node">
<title>6210</title>
<ellipse fill="#d3d3d3" stroke="#c0c0c0" cx="137.5109" cy="-507.5" rx="3.5" ry="3.5"/>
</g>
<!-- 6209&#45;&gt;6210 -->
<g id="edge19" class="edge">
<title>6209&#45;&gt;6210</title>
<path fill="none" stroke="#c0c0c0" d="M137.5109,-439.371C137.5109,-449.4263 137.5109,-476.7592 137.5109,-493.5904"/>
<polygon fill="#c0c0c0" stroke="#c0c0c0" points="134.011,-493.9541 137.5109,-503.9541 141.011,-493.9541 134.011,-493.9541"/>
<text text-anchor="middle" x="115.0584" y="-476.9807" font-family="Times,serif" font-size="7.00" fill="#000000">Strawinskylaan </text>
<text text-anchor="middle" x="115.0584" y="-468.5807" font-family="Times,serif" font-size="7.00" fill="#000000"> (via St. Zuid)</text>
</g>
<!-- 6211 -->
<g id="node21" class="node">
<title>6211</title>
<ellipse fill="#d3d3d3" stroke="#c0c0c0" cx="209.5109" cy="-507.5" rx="3.5" ry="3.5"/>
</g>
<!-- 6210&#45;&gt;6211 -->
<g id="edge20" class="edge">
<title>6210&#45;&gt;6211</title>
<path fill="none" stroke="#c0c0c0" d="M141.3819,-507.5C151.4372,-507.5 178.7701,-507.5 195.6012,-507.5"/>
<polygon fill="#c0c0c0" stroke="#c0c0c0" points="195.965,-511.0001 205.965,-507.5 195.9649,-504.0001 195.965,-511.0001"/>
<text text-anchor="middle" x="168.4916" y="-501.2" font-family="Times,serif" font-size="7.00" fill="#000000">Beethovenstraat </text>
<text text-anchor="middle" x="168.4916" y="-492.8" font-family="Times,serif" font-size="7.00" fill="#000000"> Van Leijenberghlaan</text>
</g>
<!-- 6212 -->
<g id="node22" class="node">
<title>6212</title>
<ellipse fill="#d3d3d3" stroke="#c0c0c0" cx="209.5109" cy="-579.5" rx="3.5" ry="3.5"/>
</g>
<!-- 6211&#45;&gt;6212 -->
<g id="edge21" class="edge">
<title>6211&#45;&gt;6212</title>
<path fill="none" stroke="#c0c0c0" d="M209.5109,-511.371C209.5109,-521.4263 209.5109,-548.7592 209.5109,-565.5904"/>
<polygon fill="#c0c0c0" stroke="#c0c0c0" points="206.011,-565.9541 209.5109,-575.9541 213.011,-565.9541 206.011,-565.9541"/>
<text text-anchor="middle" x="180.4514" y="-540.5807" font-family="Times,serif" font-size="7.00" fill="#000000">Van Boshuizenstraat</text>
</g>
<!-- 6213 -->
<g id="node23" class="node">
<title>6213</title>
<ellipse fill="#d3d3d3" stroke="#c0c0c0" cx="137.5109" cy="-579.5" rx="3.5" ry="3.5"/>
</g>
<!-- 6212&#45;&gt;6213 -->
<g id="edge22" class="edge">
<title>6212&#45;&gt;6213</title>
<path fill="none" stroke="#c0c0c0" d="M205.6399,-579.5C195.5846,-579.5 168.2517,-579.5 151.4205,-579.5"/>
<polygon fill="#c0c0c0" stroke="#c0c0c0" points="151.0569,-576.0001 141.0568,-579.5 151.0568,-583.0001 151.0569,-576.0001"/>
<text text-anchor="middle" x="178.5302" y="-573.2" font-family="Times,serif" font-size="7.00" fill="#000000">Europaboulevard </text>
<text text-anchor="middle" x="178.5302" y="-564.8" font-family="Times,serif" font-size="7.00" fill="#000000"> (via St. RAI) </text>
<text text-anchor="middle" x="178.5302" y="-556.4" font-family="Times,serif" font-size="7.00" fill="#000000"> Europaplein</text>
</g>
<!-- 6214 -->
<g id="node24" class="node">
<title>6214</title>
<ellipse fill="#d3d3d3" stroke="#c0c0c0" cx="137.5109" cy="-651.5" rx="3.5" ry="3.5"/>
</g>
<!-- 6213&#45;&gt;6214 -->
<g id="edge23" class="edge">
<title>6213&#45;&gt;6214</title>
<path fill="none" stroke="#c0c0c0" d="M137.5109,-583.371C137.5109,-593.4263 137.5109,-620.7592 137.5109,-637.5904"/>
<polygon fill="#c0c0c0" stroke="#c0c0c0" points="134.011,-637.954 137.5109,-647.9541 141.011,-637.9541 134.011,-637.954"/>
<text text-anchor="middle" x="105.1474" y="-612.5807" font-family="Times,serif" font-size="7.00" fill="#000000">President Kennedylaan</text>
</g>
<!-- 6215 -->
<g id="node25" class="node">
<title>6215</title>
<ellipse fill="#d3d3d3" stroke="#c0c0c0" cx="65.5109" cy="-651.5" rx="3.5" ry="3.5"/>
</g>
<!-- 6214&#45;&gt;6215 -->
<g id="edge24" class="edge">
<title>6214&#45;&gt;6215</title>
<path fill="none" stroke="#c0c0c0" d="M133.6399,-651.5C123.5846,-651.5 96.2517,-651.5 79.4205,-651.5"/>
<polygon fill="#c0c0c0" stroke="#c0c0c0" points="79.0569,-648.0001 69.0568,-651.5 79.0568,-655.0001 79.0569,-648.0001"/>
<text text-anchor="middle" x="91.5677" y="-653.6" font-family="Times,serif" font-size="7.00" fill="#000000">Waalstraat</text>
</g>
<!-- 6216 -->
<g id="node26" class="node">
<title>6216</title>
<ellipse fill="#d3d3d3" stroke="#c0c0c0" cx="65.5109" cy="-723.5" rx="3.5" ry="3.5"/>
</g>
<!-- 6215&#45;&gt;6216 -->
<g id="edge25" class="edge">
<title>6215&#45;&gt;6216</title>
<path fill="none" stroke="#c0c0c0" d="M65.5109,-655.371C65.5109,-665.4263 65.5109,-692.7592 65.5109,-709.5903"/>
<polygon fill="#c0c0c0" stroke="#c0c0c0" points="62.011,-709.954 65.5109,-719.9541 69.011,-709.9541 62.011,-709.954"/>
<text text-anchor="middle" x="32.7555" y="-726.5807" font-family="Times,serif" font-size="7.00" fill="#000000">Rooseveltlaan </text>
<text text-anchor="middle" x="32.7555" y="-718.1807" font-family="Times,serif" font-size="7.00" fill="#000000">Victorieplein </text>
<text text-anchor="middle" x="32.7555" y="-709.7807" font-family="Times,serif" font-size="7.00" fill="#000000">Vrijheidslaan </text>
<text text-anchor="middle" x="32.7555" y="-701.3807" font-family="Times,serif" font-size="7.00" fill="#000000">Mr. Treublaan </text>
<text text-anchor="middle" x="32.7555" y="-692.9807" font-family="Times,serif" font-size="7.00" fill="#000000">   Prins Bernhardplein </text>
<text text-anchor="middle" x="32.7555" y="-684.5807" font-family="Times,serif" font-size="7.00" fill="#000000">Julianaplein</text>
</g>
<!-- 6217 -->
<g id="node27" class="node">
<title>6217</title>
<ellipse fill="#d3d3d3" stroke="#c0c0c0" cx="137.5109" cy="-723.5" rx="21.4256" ry="21.4256"/>
<text text-anchor="middle" x="137.5109" y="-721.4" font-family="Times,serif" font-size="7.00" fill="#000000">ASA</text>
</g>
<!-- 6216&#45;&gt;6217 -->
<g id="edge26" class="edge">
<title>6216&#45;&gt;6217</title>
<path fill="none" stroke="#c0c0c0" d="M69.3819,-723.5C76.3392,-723.5 91.5678,-723.5 105.8662,-723.5"/>
<polygon fill="#c0c0c0" stroke="#c0c0c0" points="105.9817,-727.0001 115.9817,-723.5 105.9816,-720.0001 105.9817,-727.0001"/>
<text text-anchor="middle" x="101.4221" y="-734" font-family="Times,serif" font-size="7.00" fill="#000000">Over&#45;</text>
<text text-anchor="middle" x="101.4221" y="-725.6" font-family="Times,serif" font-size="7.00" fill="#000000">&#45;zichtweg</text>
</g>
</g>
</svg>

