<?xml version="1.0" encoding="UTF-8" standalone="no"?>
<!DOCTYPE svg PUBLIC "-//W3C//DTD SVG 1.1//EN"
 "http://www.w3.org/Graphics/SVG/1.1/DTD/svg11.dtd">
<!-- Generated by graphviz version 2.40.1 (20161225.0304)
 -->
<!-- Title: G Pages: 1 -->
<svg width="534pt" height="758pt"
 viewBox="0.00 0.00 533.60 757.62" xmlns="http://www.w3.org/2000/svg" xmlns:xlink="http://www.w3.org/1999/xlink">
<g id="graph0" class="graph" transform="scale(1 1) rotate(0) translate(4 753.6167)">
<title>G</title>
<polygon fill="#ffffff" stroke="transparent" points="-4,4 -4,-753.6167 529.5993,-753.6167 529.5993,4 -4,4"/>
<!-- 6300 -->
<g id="node1" class="node">
<title>6300</title>
<ellipse fill="#d3d3d3" stroke="#c0c0c0" cx="143.5659" cy="-152.4" rx="19.637" ry="19.637"/>
<text text-anchor="middle" x="143.5659" y="-150.3" font-family="Arial" font-size="7.00" fill="#000000">LLL</text>
</g>
<!-- 6301 -->
<g id="node2" class="node">
<title>6301</title>
<ellipse fill="#d3d3d3" stroke="#c0c0c0" cx="215.5659" cy="-152.4" rx="3.5" ry="3.5"/>
</g>
<!-- 6300&#45;&gt;6301 -->
<g id="edge1" class="edge">
<title>6300&#45;&gt;6301</title>
<path fill="none" stroke="#c0c0c0" d="M163.2402,-152.4C175.4618,-152.4 190.8683,-152.4 201.7909,-152.4"/>
<polygon fill="#c0c0c0" stroke="#c0c0c0" points="201.8089,-155.9001 211.8088,-152.4 201.8088,-148.9001 201.8089,-155.9001"/>
<text text-anchor="middle" x="210.3276" y="-146.1" font-family="Arial" font-size="7.00" fill="#000000">Pieter Calandlaan</text>
</g>
<!-- 6302 -->
<g id="node3" class="node">
<title>6302</title>
<ellipse fill="#d3d3d3" stroke="#c0c0c0" cx="215.5659" cy="-80.4" rx="3.5" ry="3.5"/>
</g>
<!-- 6301&#45;&gt;6302 -->
<g id="edge2" class="edge">
<title>6301&#45;&gt;6302</title>
<path fill="none" stroke="#c0c0c0" d="M215.5659,-148.529C215.5659,-138.4737 215.5659,-111.1408 215.5659,-94.3097"/>
<polygon fill="#c0c0c0" stroke="#c0c0c0" points="219.066,-93.9459 215.5659,-83.9459 212.066,-93.946 219.066,-93.9459"/>
<text text-anchor="middle" x="183.8618" y="-115.1193" font-family="Arial" font-size="7.00" fill="#000000">Johan Huizingalaan </text>
<text text-anchor="middle" x="183.8618" y="-106.7193" font-family="Arial" font-size="7.00" fill="#000000"> (lijn 63)</text>
</g>
<!-- 6202 -->
<g id="node12" class="node">
<title>6202</title>
<ellipse fill="#d3d3d3" stroke="#c0c0c0" cx="215.5659" cy="-296.4" rx="3.5" ry="3.5"/>
</g>
<!-- 6301&#45;&gt;6202 -->
<g id="edge11" class="edge">
<title>6301&#45;&gt;6202</title>
<path fill="none" stroke="#c0c0c0" d="M215.5659,-155.9596C215.5659,-173.4711 215.5659,-250.9079 215.5659,-282.7028"/>
<polygon fill="#c0c0c0" stroke="#c0c0c0" points="212.066,-282.7048 215.5659,-292.7049 219.066,-282.7049 212.066,-282.7048"/>
<text text-anchor="middle" x="183.8618" y="-229.8312" font-family="Arial" font-size="7.00" fill="#000000">Johan Huizingalaan </text>
<text text-anchor="middle" x="183.8618" y="-221.4312" font-family="Arial" font-size="7.00" fill="#000000"> (lijn 62)</text>
</g>
<!-- 6303 -->
<g id="node4" class="node">
<title>6303</title>
<ellipse fill="#d3d3d3" stroke="#c0c0c0" cx="287.5659" cy="-80.4" rx="3.5" ry="3.5"/>
</g>
<!-- 6302&#45;&gt;6303 -->
<g id="edge3" class="edge">
<title>6302&#45;&gt;6303</title>
<path fill="none" stroke="#c0c0c0" d="M219.4369,-80.4C229.4922,-80.4 256.8251,-80.4 273.6562,-80.4"/>
<polygon fill="#c0c0c0" stroke="#c0c0c0" points="274.02,-83.9001 284.02,-80.4 274.0199,-76.9001 274.02,-83.9001"/>
<text text-anchor="middle" x="258.798" y="-74.1" font-family="Arial" font-size="7.00" fill="#000000">Comeniusstraat</text>
</g>
<!-- 6304 -->
<g id="node5" class="node">
<title>6304</title>
<ellipse fill="#d3d3d3" stroke="#c0c0c0" cx="287.5659" cy="-152.4" rx="3.5" ry="3.5"/>
</g>
<!-- 6303&#45;&gt;6304 -->
<g id="edge4" class="edge">
<title>6303&#45;&gt;6304</title>
<path fill="none" stroke="#c0c0c0" d="M287.5659,-84.271C287.5659,-94.3263 287.5659,-121.6592 287.5659,-138.4904"/>
<polygon fill="#c0c0c0" stroke="#c0c0c0" points="284.066,-138.8541 287.5659,-148.8541 291.066,-138.8541 284.066,-138.8541"/>
<text text-anchor="middle" x="258.2026" y="-130.2807" font-family="Arial" font-size="7.00" fill="#000000">Hemsterhuisstraat </text>
<text text-anchor="middle" x="258.2026" y="-121.8807" font-family="Arial" font-size="7.00" fill="#000000"> Luis Bouw&#45;</text>
<text text-anchor="middle" x="258.2026" y="-113.4807" font-family="Arial" font-size="7.00" fill="#000000">&#45;meesterstraat</text>
</g>
<!-- 6305 -->
<g id="node6" class="node">
<title>6305</title>
<ellipse fill="#d3d3d3" stroke="#c0c0c0" cx="359.5659" cy="-152.4" rx="3.5" ry="3.5"/>
</g>
<!-- 6304&#45;&gt;6305 -->
<g id="edge5" class="edge">
<title>6304&#45;&gt;6305</title>
<path fill="none" stroke="#c0c0c0" d="M291.4369,-152.4C301.4922,-152.4 328.8251,-152.4 345.6562,-152.4"/>
<polygon fill="#c0c0c0" stroke="#c0c0c0" points="346.02,-155.9001 356.02,-152.4 346.0199,-148.9001 346.02,-155.9001"/>
<text text-anchor="middle" x="318.5466" y="-146.1" font-family="Arial" font-size="7.00" fill="#000000">Pieter Calandlaan</text>
</g>
<!-- 6306 -->
<g id="node7" class="node">
<title>6306</title>
<ellipse fill="#d3d3d3" stroke="#c0c0c0" cx="359.5659" cy="-80.4" rx="3.5" ry="3.5"/>
</g>
<!-- 6305&#45;&gt;6306 -->
<g id="edge6" class="edge">
<title>6305&#45;&gt;6306</title>
<path fill="none" stroke="#c0c0c0" d="M359.5659,-148.529C359.5659,-138.4737 359.5659,-111.1408 359.5659,-94.3097"/>
<polygon fill="#c0c0c0" stroke="#c0c0c0" points="363.066,-93.9459 359.5659,-83.9459 356.066,-93.946 363.066,-93.9459"/>
<text text-anchor="middle" x="337.3944" y="-123.5193" font-family="Arial" font-size="7.00" fill="#000000">Meer en Vaart</text>
</g>
<!-- 6307 -->
<g id="node8" class="node">
<title>6307</title>
<ellipse fill="#d3d3d3" stroke="#c0c0c0" cx="431.5659" cy="-80.4" rx="3.5" ry="3.5"/>
</g>
<!-- 6306&#45;&gt;6307 -->
<g id="edge7" class="edge">
<title>6306&#45;&gt;6307</title>
<path fill="none" stroke="#c0c0c0" d="M363.4369,-80.4C373.4922,-80.4 400.8251,-80.4 417.6562,-80.4"/>
<polygon fill="#c0c0c0" stroke="#c0c0c0" points="418.02,-83.9001 428.02,-80.4 418.0199,-76.9001 418.02,-83.9001"/>
<text text-anchor="middle" x="401.4384" y="-74.1" font-family="Arial" font-size="7.00" fill="#000000">Osdorper Ban</text>
</g>
<!-- 6308 -->
<g id="node9" class="node">
<title>6308</title>
<ellipse fill="#d3d3d3" stroke="#c0c0c0" cx="431.5659" cy="-8.4" rx="3.5" ry="3.5"/>
</g>
<!-- 6307&#45;&gt;6308 -->
<g id="edge8" class="edge">
<title>6307&#45;&gt;6308</title>
<path fill="none" stroke="#c0c0c0" d="M431.5659,-76.529C431.5659,-66.4737 431.5659,-39.1408 431.5659,-22.3097"/>
<polygon fill="#c0c0c0" stroke="#c0c0c0" points="435.066,-21.9459 431.5659,-11.9459 428.066,-21.946 435.066,-21.9459"/>
<text text-anchor="middle" x="403.7532" y="-51.5193" font-family="Arial" font-size="7.00" fill="#000000">Baden Powellweg</text>
</g>
<!-- 6309 -->
<g id="node10" class="node">
<title>6309</title>
<ellipse fill="#d3d3d3" stroke="#c0c0c0" cx="503.5659" cy="-8.4" rx="3.5" ry="3.5"/>
</g>
<!-- 6308&#45;&gt;6309 -->
<g id="edge9" class="edge">
<title>6308&#45;&gt;6309</title>
<path fill="none" stroke="#c0c0c0" d="M435.4369,-8.4C445.4922,-8.4 472.8251,-8.4 489.6562,-8.4"/>
<polygon fill="#c0c0c0" stroke="#c0c0c0" points="490.02,-11.9001 500.02,-8.4 490.0199,-4.9001 490.02,-11.9001"/>
<text text-anchor="middle" x="472.9505" y="-2.1" font-family="Arial" font-size="7.00" fill="#000000">Ookmeerweg</text>
</g>
<!-- 6310 -->
<g id="node11" class="node">
<title>6310</title>
<ellipse fill="#d3d3d3" stroke="#c0c0c0" cx="503.5659" cy="-80.4" rx="22.0668" ry="22.0668"/>
<text text-anchor="middle" x="503.5659" y="-78.3" font-family="Arial" font-size="7.00" fill="#000000">MTH</text>
</g>
<!-- 6309&#45;&gt;6310 -->
<g id="edge10" class="edge">
<title>6309&#45;&gt;6310</title>
<path fill="none" stroke="#c0c0c0" d="M503.5659,-12.271C503.5659,-19.1343 503.5659,-34.0468 503.5659,-48.1752"/>
<polygon fill="#c0c0c0" stroke="#c0c0c0" points="500.066,-48.1978 503.5659,-58.1979 507.066,-48.1979 500.066,-48.1978"/>
<text text-anchor="middle" x="482.5631" y="-32.3231" font-family="Arial" font-size="7.00" fill="#000000">Baldwinstraat</text>
</g>
<!-- 6203 -->
<g id="node13" class="node">
<title>6203</title>
<ellipse fill="#d3d3d3" stroke="#c0c0c0" cx="143.5659" cy="-296.4" rx="3.5" ry="3.5"/>
</g>
<!-- 6202&#45;&gt;6203 -->
<g id="edge12" class="edge">
<title>6202&#45;&gt;6203</title>
<path fill="none" stroke="#c0c0c0" d="M211.6949,-296.4C201.6396,-296.4 174.3067,-296.4 157.4755,-296.4"/>
<polygon fill="#c0c0c0" stroke="#c0c0c0" points="157.1119,-292.9001 147.1118,-296.4 157.1118,-299.9001 157.1119,-292.9001"/>
<text text-anchor="middle" x="184.5852" y="-290.1" font-family="Arial" font-size="7.00" fill="#000000">Aletta Jacobslaan</text>
</g>
<!-- 6204 -->
<g id="node14" class="node">
<title>6204</title>
<ellipse fill="#d3d3d3" stroke="#c0c0c0" cx="143.5659" cy="-224.4" rx="3.5" ry="3.5"/>
</g>
<!-- 6203&#45;&gt;6204 -->
<g id="edge13" class="edge">
<title>6203&#45;&gt;6204</title>
<path fill="none" stroke="#c0c0c0" d="M143.5659,-292.529C143.5659,-282.4737 143.5659,-255.1408 143.5659,-238.3097"/>
<polygon fill="#c0c0c0" stroke="#c0c0c0" points="147.066,-237.9459 143.5659,-227.9459 140.066,-237.946 147.066,-237.9459"/>
<text text-anchor="middle" x="118.2801" y="-267.5193" font-family="Arial" font-size="7.00" fill="#000000">Vlaardingenlaan</text>
</g>
<!-- 6205 -->
<g id="node15" class="node">
<title>6205</title>
<ellipse fill="#d3d3d3" stroke="#c0c0c0" cx="71.5659" cy="-224.4" rx="3.5" ry="3.5"/>
</g>
<!-- 6204&#45;&gt;6205 -->
<g id="edge14" class="edge">
<title>6204&#45;&gt;6205</title>
<path fill="none" stroke="#c0c0c0" d="M139.6949,-224.4C129.6396,-224.4 102.3067,-224.4 85.4755,-224.4"/>
<polygon fill="#c0c0c0" stroke="#c0c0c0" points="85.1119,-220.9001 75.1118,-224.4 85.1118,-227.9001 85.1119,-220.9001"/>
<text text-anchor="middle" x="112.5852" y="-218.1" font-family="Arial" font-size="7.00" fill="#000000">Aalsmeer&#45;plein </text>
<text text-anchor="middle" x="112.5852" y="-209.7" font-family="Arial" font-size="7.00" fill="#000000"> &#45;weg</text>
</g>
<!-- 6206 -->
<g id="node16" class="node">
<title>6206</title>
<ellipse fill="#d3d3d3" stroke="#c0c0c0" cx="71.5659" cy="-368.4" rx="3.5" ry="3.5"/>
</g>
<!-- 6205&#45;&gt;6206 -->
<g id="edge15" class="edge">
<title>6205&#45;&gt;6206</title>
<path fill="none" stroke="#c0c0c0" d="M71.5659,-227.9596C71.5659,-245.4711 71.5659,-322.9079 71.5659,-354.7028"/>
<polygon fill="#c0c0c0" stroke="#c0c0c0" points="68.066,-354.7048 71.5659,-364.7049 75.066,-354.7049 68.066,-354.7048"/>
<text text-anchor="middle" x="45.6995" y="-310.2312" font-family="Arial" font-size="7.00" fill="#000000">Hoofddorp&#45;plein </text>
<text text-anchor="middle" x="45.6995" y="-301.8312" font-family="Arial" font-size="7.00" fill="#000000"> &#45;weg </text>
<text text-anchor="middle" x="45.6995" y="-293.4312" font-family="Arial" font-size="7.00" fill="#000000"> Zeilstraat</text>
</g>
<!-- 6207 -->
<g id="node17" class="node">
<title>6207</title>
<ellipse fill="#d3d3d3" stroke="#c0c0c0" cx="215.5659" cy="-368.4" rx="3.5" ry="3.5"/>
</g>
<!-- 6206&#45;&gt;6207 -->
<g id="edge16" class="edge">
<title>6206&#45;&gt;6207</title>
<path fill="none" stroke="#c0c0c0" d="M75.1255,-368.4C92.637,-368.4 170.0738,-368.4 201.8687,-368.4"/>
<polygon fill="#c0c0c0" stroke="#c0c0c0" points="201.8708,-371.9001 211.8707,-368.4 201.8707,-364.9001 201.8708,-371.9001"/>
<text text-anchor="middle" x="138.4971" y="-362.1" font-family="Arial" font-size="7.00" fill="#000000">Amstelveenseweg </text>
<text text-anchor="middle" x="138.4971" y="-353.7" font-family="Arial" font-size="7.00" fill="#000000"> (via Haarlemmermeer &amp; Stadionplein)</text>
</g>
<!-- 6208 -->
<g id="node18" class="node">
<title>6208</title>
<ellipse fill="#d3d3d3" stroke="#c0c0c0" cx="215.5659" cy="-440.4" rx="3.5" ry="3.5"/>
</g>
<!-- 6207&#45;&gt;6208 -->
<g id="edge17" class="edge">
<title>6207&#45;&gt;6208</title>
<path fill="none" stroke="#c0c0c0" d="M215.5659,-372.271C215.5659,-382.3263 215.5659,-409.6592 215.5659,-426.4904"/>
<polygon fill="#c0c0c0" stroke="#c0c0c0" points="212.066,-426.854 215.5659,-436.8541 219.066,-426.8541 212.066,-426.854"/>
<text text-anchor="middle" x="183.8622" y="-409.8807" font-family="Arial" font-size="7.00" fill="#000000">De Boelelaan </text>
<text text-anchor="middle" x="183.8622" y="-401.4807" font-family="Arial" font-size="7.00" fill="#000000"> Buitenveldertselaan</text>
</g>
<!-- 6209 -->
<g id="node19" class="node">
<title>6209</title>
<ellipse fill="#d3d3d3" stroke="#c0c0c0" cx="143.5659" cy="-440.4" rx="3.5" ry="3.5"/>
</g>
<!-- 6208&#45;&gt;6209 -->
<g id="edge18" class="edge">
<title>6208&#45;&gt;6209</title>
<path fill="none" stroke="#c0c0c0" d="M211.6949,-440.4C201.6396,-440.4 174.3067,-440.4 157.4755,-440.4"/>
<polygon fill="#c0c0c0" stroke="#c0c0c0" points="157.1119,-436.9001 147.1118,-440.4 157.1118,-443.9001 157.1119,-436.9001"/>
<text text-anchor="middle" x="184.5852" y="-434.1" font-family="Arial" font-size="7.00" fill="#000000">Parnassusweg</text>
</g>
<!-- 6210 -->
<g id="node20" class="node">
<title>6210</title>
<ellipse fill="#d3d3d3" stroke="#c0c0c0" cx="143.5659" cy="-512.4" rx="3.5" ry="3.5"/>
</g>
<!-- 6209&#45;&gt;6210 -->
<g id="edge19" class="edge">
<title>6209&#45;&gt;6210</title>
<path fill="none" stroke="#c0c0c0" d="M143.5659,-444.271C143.5659,-454.3263 143.5659,-481.6592 143.5659,-498.4904"/>
<polygon fill="#c0c0c0" stroke="#c0c0c0" points="140.066,-498.8541 143.5659,-508.8541 147.066,-498.8541 140.066,-498.8541"/>
<text text-anchor="middle" x="119.0631" y="-481.8807" font-family="Arial" font-size="7.00" fill="#000000">Strawinskylaan </text>
<text text-anchor="middle" x="119.0631" y="-473.4807" font-family="Arial" font-size="7.00" fill="#000000"> (via St. Zuid)</text>
</g>
<!-- 6211 -->
<g id="node21" class="node">
<title>6211</title>
<ellipse fill="#d3d3d3" stroke="#c0c0c0" cx="215.5659" cy="-512.4" rx="3.5" ry="3.5"/>
</g>
<!-- 6210&#45;&gt;6211 -->
<g id="edge20" class="edge">
<title>6210&#45;&gt;6211</title>
<path fill="none" stroke="#c0c0c0" d="M147.4369,-512.4C157.4922,-512.4 184.8251,-512.4 201.6562,-512.4"/>
<polygon fill="#c0c0c0" stroke="#c0c0c0" points="202.02,-515.9001 212.02,-512.4 202.0199,-508.9001 202.02,-515.9001"/>
<text text-anchor="middle" x="174.5466" y="-506.1" font-family="Arial" font-size="7.00" fill="#000000">Beethovenstraat </text>
<text text-anchor="middle" x="174.5466" y="-497.7" font-family="Arial" font-size="7.00" fill="#000000"> Van Leijenberghlaan</text>
</g>
<!-- 6212 -->
<g id="node22" class="node">
<title>6212</title>
<ellipse fill="#d3d3d3" stroke="#c0c0c0" cx="215.5659" cy="-584.4" rx="3.5" ry="3.5"/>
</g>
<!-- 6211&#45;&gt;6212 -->
<g id="edge21" class="edge">
<title>6211&#45;&gt;6212</title>
<path fill="none" stroke="#c0c0c0" d="M215.5659,-516.271C215.5659,-526.3263 215.5659,-553.6592 215.5659,-570.4904"/>
<polygon fill="#c0c0c0" stroke="#c0c0c0" points="212.066,-570.8541 215.5659,-580.8541 219.066,-570.8541 212.066,-570.8541"/>
<text text-anchor="middle" x="183.277" y="-545.4807" font-family="Arial" font-size="7.00" fill="#000000">Van Boshuizenstraat</text>
</g>
<!-- 6213 -->
<g id="node23" class="node">
<title>6213</title>
<ellipse fill="#d3d3d3" stroke="#c0c0c0" cx="143.5659" cy="-584.4" rx="3.5" ry="3.5"/>
</g>
<!-- 6212&#45;&gt;6213 -->
<g id="edge22" class="edge">
<title>6212&#45;&gt;6213</title>
<path fill="none" stroke="#c0c0c0" d="M211.6949,-584.4C201.6396,-584.4 174.3067,-584.4 157.4755,-584.4"/>
<polygon fill="#c0c0c0" stroke="#c0c0c0" points="157.1119,-580.9001 147.1118,-584.4 157.1118,-587.9001 157.1119,-580.9001"/>
<text text-anchor="middle" x="184.5852" y="-578.1" font-family="Arial" font-size="7.00" fill="#000000">Europaboulevard </text>
<text text-anchor="middle" x="184.5852" y="-569.7" font-family="Arial" font-size="7.00" fill="#000000"> (via St. RAI) </text>
<text text-anchor="middle" x="184.5852" y="-561.3" font-family="Arial" font-size="7.00" fill="#000000"> Europaplein</text>
</g>
<!-- 6214 -->
<g id="node24" class="node">
<title>6214</title>
<ellipse fill="#d3d3d3" stroke="#c0c0c0" cx="143.5659" cy="-656.4" rx="3.5" ry="3.5"/>
</g>
<!-- 6213&#45;&gt;6214 -->
<g id="edge23" class="edge">
<title>6213&#45;&gt;6214</title>
<path fill="none" stroke="#c0c0c0" d="M143.5659,-588.271C143.5659,-598.3263 143.5659,-625.6592 143.5659,-642.4904"/>
<polygon fill="#c0c0c0" stroke="#c0c0c0" points="140.066,-642.854 143.5659,-652.8541 147.066,-642.8541 140.066,-642.854"/>
<text text-anchor="middle" x="107.386" y="-617.4807" font-family="Arial" font-size="7.00" fill="#000000">President Kennedylaan</text>
</g>
<!-- 6215 -->
<g id="node25" class="node">
<title>6215</title>
<ellipse fill="#d3d3d3" stroke="#c0c0c0" cx="71.5659" cy="-656.4" rx="3.5" ry="3.5"/>
</g>
<!-- 6214&#45;&gt;6215 -->
<g id="edge24" class="edge">
<title>6214&#45;&gt;6215</title>
<path fill="none" stroke="#c0c0c0" d="M139.6949,-656.4C129.6396,-656.4 102.3067,-656.4 85.4755,-656.4"/>
<polygon fill="#c0c0c0" stroke="#c0c0c0" points="85.1119,-652.9001 75.1118,-656.4 85.1118,-659.9001 85.1119,-652.9001"/>
<text text-anchor="middle" x="95.8619" y="-658.5" font-family="Arial" font-size="7.00" fill="#000000">Waalstraat</text>
</g>
<!-- 6216 -->
<g id="node26" class="node">
<title>6216</title>
<ellipse fill="#d3d3d3" stroke="#c0c0c0" cx="71.5659" cy="-728.4" rx="3.5" ry="3.5"/>
</g>
<!-- 6215&#45;&gt;6216 -->
<g id="edge25" class="edge">
<title>6215&#45;&gt;6216</title>
<path fill="none" stroke="#c0c0c0" d="M71.5659,-660.271C71.5659,-670.3263 71.5659,-697.6592 71.5659,-714.4903"/>
<polygon fill="#c0c0c0" stroke="#c0c0c0" points="68.066,-714.854 71.5659,-724.8541 75.066,-714.8541 68.066,-714.854"/>
<text text-anchor="middle" x="35.783" y="-731.4807" font-family="Arial" font-size="7.00" fill="#000000">Rooseveltlaan </text>
<text text-anchor="middle" x="35.783" y="-723.0807" font-family="Arial" font-size="7.00" fill="#000000">Victorieplein </text>
<text text-anchor="middle" x="35.783" y="-714.6807" font-family="Arial" font-size="7.00" fill="#000000">Vrijheidslaan </text>
<text text-anchor="middle" x="35.783" y="-706.2807" font-family="Arial" font-size="7.00" fill="#000000">Mr. Treublaan </text>
<text text-anchor="middle" x="35.783" y="-697.8807" font-family="Arial" font-size="7.00" fill="#000000">   Prins Bernhardplein </text>
<text text-anchor="middle" x="35.783" y="-689.4807" font-family="Arial" font-size="7.00" fill="#000000">Julianaplein</text>
</g>
<!-- 6217 -->
<g id="node27" class="node">
<title>6217</title>
<ellipse fill="#d3d3d3" stroke="#c0c0c0" cx="143.5659" cy="-728.4" rx="21.4356" ry="21.4356"/>
<text text-anchor="middle" x="143.5659" y="-726.3" font-family="Arial" font-size="7.00" fill="#000000">ASA</text>
</g>
<!-- 6216&#45;&gt;6217 -->
<g id="edge26" class="edge">
<title>6216&#45;&gt;6217</title>
<path fill="none" stroke="#c0c0c0" d="M75.4369,-728.4C82.3942,-728.4 97.6228,-728.4 111.9212,-728.4"/>
<polygon fill="#c0c0c0" stroke="#c0c0c0" points="112.0367,-731.9001 122.0367,-728.4 112.0366,-724.9001 112.0367,-731.9001"/>
<text text-anchor="middle" x="101.0681" y="-722.1" font-family="Arial" font-size="7.00" fill="#000000">Over&#45;</text>
<text text-anchor="middle" x="101.0681" y="-713.7" font-family="Arial" font-size="7.00" fill="#000000">&#45;zichtweg</text>
</g>
</g>
</svg>

