<?xml version="1.0" encoding="UTF-8" standalone="no"?>
<!DOCTYPE svg PUBLIC "-//W3C//DTD SVG 1.1//EN"
 "http://www.w3.org/Graphics/SVG/1.1/DTD/svg11.dtd">
<!-- Generated by graphviz version 2.40.1 (20161225.0304)
 -->
<!-- Title: G Pages: 1 -->
<svg width="918pt" height="452pt"
 viewBox="0.00 0.00 917.51 451.90" xmlns="http://www.w3.org/2000/svg" xmlns:xlink="http://www.w3.org/1999/xlink">
<g id="graph0" class="graph" transform="scale(1 1) rotate(0) translate(4 447.9)">
<title>G</title>
<polygon fill="#ffffff" stroke="transparent" points="-4,4 -4,-447.9 913.5056,-447.9 913.5056,4 -4,4"/>
<!-- 6300 -->
<g id="node1" class="node">
<title>6300</title>
<ellipse fill="#d3d3d3" stroke="#c0c0c0" cx="402.0056" cy="-296.4" rx="19.637" ry="19.637"/>
<text text-anchor="middle" x="402.0056" y="-294.3" font-family="Arial" font-size="7.00" fill="#000000">LLL</text>
</g>
<!-- 6301 -->
<g id="node2" class="node">
<title>6301</title>
<ellipse fill="#d3d3d3" stroke="#c0c0c0" cx="330.0056" cy="-296.4" rx="3.5" ry="3.5"/>
</g>
<!-- 6300&#45;&gt;6301 -->
<g id="edge1" class="edge">
<title>6300&#45;&gt;6301</title>
<path fill="none" stroke="#c0c0c0" d="M382.3313,-296.4C370.1097,-296.4 354.7032,-296.4 343.7806,-296.4"/>
<polygon fill="#c0c0c0" stroke="#c0c0c0" points="343.7627,-292.9001 333.7627,-296.4 343.7626,-299.9001 343.7627,-292.9001"/>
<text text-anchor="middle" x="363.0559" y="-290.1" font-family="Arial" font-size="7.00" fill="#000000">Pieter </text>
<text text-anchor="middle" x="363.0559" y="-281.7" font-family="Arial" font-size="7.00" fill="#000000"> Calandlaan</text>
</g>
<!-- 6302 -->
<g id="node3" class="node">
<title>6302</title>
<ellipse fill="#d3d3d3" stroke="#c0c0c0" cx="330.0056" cy="-368.4" rx="3.5" ry="3.5"/>
</g>
<!-- 6301&#45;&gt;6302 -->
<g id="edge2" class="edge">
<title>6301&#45;&gt;6302</title>
<path fill="none" stroke="#c0c0c0" d="M330.0056,-300.271C330.0056,-310.3263 330.0056,-337.6592 330.0056,-354.4903"/>
<polygon fill="#c0c0c0" stroke="#c0c0c0" points="326.5057,-354.854 330.0056,-364.8541 333.5057,-354.8541 326.5057,-354.854"/>
<text text-anchor="middle" x="298.3015" y="-337.8807" font-family="Arial" font-size="7.00" fill="#000000">Johan Huizingalaan </text>
<text text-anchor="middle" x="298.3015" y="-329.4807" font-family="Arial" font-size="7.00" fill="#000000"> (lijn 63)</text>
</g>
<!-- 6202 -->
<g id="node12" class="node">
<title>6202</title>
<ellipse fill="#d3d3d3" stroke="#c0c0c0" cx="330.0056" cy="-224.4" rx="3.5" ry="3.5"/>
</g>
<!-- 6301&#45;&gt;6202 -->
<g id="edge11" class="edge">
<title>6301&#45;&gt;6202</title>
<path fill="none" stroke="#c0c0c0" d="M330.0056,-292.529C330.0056,-282.4737 330.0056,-255.1408 330.0056,-238.3096"/>
<polygon fill="#c0c0c0" stroke="#c0c0c0" points="333.5057,-237.9459 330.0056,-227.9459 326.5057,-237.946 333.5057,-237.9459"/>
<text text-anchor="middle" x="298.3015" y="-275.9193" font-family="Arial" font-size="7.00" fill="#000000">Johan Huizingalaan </text>
<text text-anchor="middle" x="298.3015" y="-267.5193" font-family="Arial" font-size="7.00" fill="#000000"> (lijn 62)</text>
</g>
<!-- 6303 -->
<g id="node4" class="node">
<title>6303</title>
<ellipse fill="#d3d3d3" stroke="#c0c0c0" cx="258.0056" cy="-368.4" rx="3.5" ry="3.5"/>
</g>
<!-- 6302&#45;&gt;6303 -->
<g id="edge3" class="edge">
<title>6302&#45;&gt;6303</title>
<path fill="none" stroke="#c0c0c0" d="M326.1346,-368.4C316.0793,-368.4 288.7464,-368.4 271.9152,-368.4"/>
<polygon fill="#c0c0c0" stroke="#c0c0c0" points="271.5515,-364.9001 261.5515,-368.4 271.5515,-371.9001 271.5515,-364.9001"/>
<text text-anchor="middle" x="299.0249" y="-362.1" font-family="Arial" font-size="7.00" fill="#000000">Comeniusstraat</text>
</g>
<!-- 6304 -->
<g id="node5" class="node">
<title>6304</title>
<ellipse fill="#d3d3d3" stroke="#c0c0c0" cx="258.0056" cy="-296.4" rx="3.5" ry="3.5"/>
</g>
<!-- 6303&#45;&gt;6304 -->
<g id="edge4" class="edge">
<title>6303&#45;&gt;6304</title>
<path fill="none" stroke="#c0c0c0" d="M258.0056,-364.529C258.0056,-354.4737 258.0056,-327.1408 258.0056,-310.3096"/>
<polygon fill="#c0c0c0" stroke="#c0c0c0" points="261.5057,-309.9459 258.0056,-299.9459 254.5057,-309.946 261.5057,-309.9459"/>
<text text-anchor="middle" x="228.6423" y="-356.3193" font-family="Arial" font-size="7.00" fill="#000000">Hemsterhuisstraat </text>
<text text-anchor="middle" x="228.6423" y="-347.9193" font-family="Arial" font-size="7.00" fill="#000000"> Luis Bouw&#45;</text>
<text text-anchor="middle" x="228.6423" y="-339.5193" font-family="Arial" font-size="7.00" fill="#000000">&#45;meesterstraat</text>
</g>
<!-- 6305 -->
<g id="node6" class="node">
<title>6305</title>
<ellipse fill="#d3d3d3" stroke="#c0c0c0" cx="186.0056" cy="-296.4" rx="3.5" ry="3.5"/>
</g>
<!-- 6304&#45;&gt;6305 -->
<g id="edge5" class="edge">
<title>6304&#45;&gt;6305</title>
<path fill="none" stroke="#c0c0c0" d="M254.1346,-296.4C244.0793,-296.4 216.7464,-296.4 199.9152,-296.4"/>
<polygon fill="#c0c0c0" stroke="#c0c0c0" points="199.5516,-292.9001 189.5515,-296.4 199.5515,-299.9001 199.5516,-292.9001"/>
<text text-anchor="middle" x="227.0249" y="-290.1" font-family="Arial" font-size="7.00" fill="#000000">Pieter Calandlaan</text>
</g>
<!-- 6306 -->
<g id="node7" class="node">
<title>6306</title>
<ellipse fill="#d3d3d3" stroke="#c0c0c0" cx="186.0056" cy="-368.4" rx="3.5" ry="3.5"/>
</g>
<!-- 6305&#45;&gt;6306 -->
<g id="edge6" class="edge">
<title>6305&#45;&gt;6306</title>
<path fill="none" stroke="#c0c0c0" d="M186.0056,-300.271C186.0056,-310.3263 186.0056,-337.6592 186.0056,-354.4903"/>
<polygon fill="#c0c0c0" stroke="#c0c0c0" points="182.5057,-354.854 186.0056,-364.8541 189.5057,-354.8541 182.5057,-354.854"/>
<text text-anchor="middle" x="163.8342" y="-329.4807" font-family="Arial" font-size="7.00" fill="#000000">Meer en Vaart</text>
</g>
<!-- 6307 -->
<g id="node8" class="node">
<title>6307</title>
<ellipse fill="#d3d3d3" stroke="#c0c0c0" cx="114.0056" cy="-368.4" rx="3.5" ry="3.5"/>
</g>
<!-- 6306&#45;&gt;6307 -->
<g id="edge7" class="edge">
<title>6306&#45;&gt;6307</title>
<path fill="none" stroke="#c0c0c0" d="M182.1346,-368.4C172.0793,-368.4 144.7464,-368.4 127.9153,-368.4"/>
<polygon fill="#c0c0c0" stroke="#c0c0c0" points="127.5516,-364.9001 117.5515,-368.4 127.5515,-371.9001 127.5516,-364.9001"/>
<text text-anchor="middle" x="155.0249" y="-362.1" font-family="Arial" font-size="7.00" fill="#000000">Osdorper Ban</text>
</g>
<!-- 6308 -->
<g id="node9" class="node">
<title>6308</title>
<ellipse fill="#d3d3d3" stroke="#c0c0c0" cx="114.0056" cy="-440.4" rx="3.5" ry="3.5"/>
</g>
<!-- 6307&#45;&gt;6308 -->
<g id="edge8" class="edge">
<title>6307&#45;&gt;6308</title>
<path fill="none" stroke="#c0c0c0" d="M114.0056,-372.271C114.0056,-382.3263 114.0056,-409.6592 114.0056,-426.4903"/>
<polygon fill="#c0c0c0" stroke="#c0c0c0" points="110.5057,-426.854 114.0056,-436.8541 117.5057,-426.8541 110.5057,-426.854"/>
<text text-anchor="middle" x="86.1928" y="-401.4807" font-family="Arial" font-size="7.00" fill="#000000">Baden Powellweg</text>
</g>
<!-- 6309 -->
<g id="node10" class="node">
<title>6309</title>
<ellipse fill="#d3d3d3" stroke="#c0c0c0" cx="42.0056" cy="-440.4" rx="3.5" ry="3.5"/>
</g>
<!-- 6308&#45;&gt;6309 -->
<g id="edge9" class="edge">
<title>6308&#45;&gt;6309</title>
<path fill="none" stroke="#c0c0c0" d="M110.1346,-440.4C100.0793,-440.4 72.7464,-440.4 55.9153,-440.4"/>
<polygon fill="#c0c0c0" stroke="#c0c0c0" points="55.5516,-436.9001 45.5515,-440.4 55.5515,-443.9001 55.5516,-436.9001"/>
<text text-anchor="middle" x="83.0249" y="-434.1" font-family="Arial" font-size="7.00" fill="#000000">Ookmeerweg</text>
</g>
<!-- 6310 -->
<g id="node11" class="node">
<title>6310</title>
<ellipse fill="#d3d3d3" stroke="#c0c0c0" cx="42.0056" cy="-368.4" rx="22.0668" ry="22.0668"/>
<text text-anchor="middle" x="42.0056" y="-366.3" font-family="Arial" font-size="7.00" fill="#000000">MTH</text>
</g>
<!-- 6309&#45;&gt;6310 -->
<g id="edge10" class="edge">
<title>6309&#45;&gt;6310</title>
<path fill="none" stroke="#c0c0c0" d="M42.0056,-436.529C42.0056,-429.6657 42.0056,-414.7532 42.0056,-400.6249"/>
<polygon fill="#c0c0c0" stroke="#c0c0c0" points="45.5057,-400.6021 42.0056,-390.6021 38.5057,-400.6022 45.5057,-400.6021"/>
<text text-anchor="middle" x="21.0028" y="-420.6769" font-family="Arial" font-size="7.00" fill="#000000">Baldwinstraat</text>
</g>
<!-- 6204 -->
<g id="node14" class="node">
<title>6204</title>
<ellipse fill="#d3d3d3" stroke="#c0c0c0" cx="474.0056" cy="-224.4" rx="3.5" ry="3.5"/>
</g>
<!-- 6202&#45;&gt;6204 -->
<g id="edge12" class="edge">
<title>6202&#45;&gt;6204</title>
<path fill="none" stroke="#c0c0c0" d="M333.5652,-224.4C351.0767,-224.4 428.5134,-224.4 460.3084,-224.4"/>
<polygon fill="#c0c0c0" stroke="#c0c0c0" points="460.3105,-227.9001 470.3104,-224.4 460.3104,-220.9001 460.3105,-227.9001"/>
<text text-anchor="middle" x="418.9124" y="-218.1" font-family="Arial" font-size="7.00" fill="#000000">Aletta Jacobslaan </text>
<text text-anchor="middle" x="418.9124" y="-209.7" font-family="Arial" font-size="7.00" fill="#000000"> Vlaardingenlaan </text>
<text text-anchor="middle" x="418.9124" y="-201.3" font-family="Arial" font-size="7.00" fill="#000000"> (via St. Henk Sneevlietweg)</text>
</g>
<!-- 6203 -->
<g id="node13" class="node">
<title>6203</title>
<ellipse fill="#d3d3d3" stroke="#c0c0c0" cx="546.0056" cy="-224.4" rx="3.5" ry="3.5"/>
</g>
<!-- 6207 -->
<g id="node17" class="node">
<title>6207</title>
<ellipse fill="#d3d3d3" stroke="#c0c0c0" cx="546.0056" cy="-80.4" rx="3.5" ry="3.5"/>
</g>
<!-- 6203&#45;&gt;6207 -->
<g id="edge16" class="edge">
<title>6203&#45;&gt;6207</title>
<path fill="none" stroke="#c0c0c0" d="M546.0056,-220.8404C546.0056,-203.3289 546.0056,-125.8921 546.0056,-94.0972"/>
<polygon fill="#c0c0c0" stroke="#c0c0c0" points="549.5057,-94.0951 546.0056,-84.0952 542.5057,-94.0952 549.5057,-94.0951"/>
<text text-anchor="middle" x="503.6108" y="-176.3688" font-family="Arial" font-size="7.00" fill="#000000">Stadionplein </text>
<text text-anchor="middle" x="503.6108" y="-167.9688" font-family="Arial" font-size="7.00" fill="#000000"> Amstelveenseweg </text>
<text text-anchor="middle" x="503.6108" y="-159.5688" font-family="Arial" font-size="7.00" fill="#000000"> (via St. Amstelveenseweg)</text>
</g>
<!-- 6205 -->
<g id="node15" class="node">
<title>6205</title>
<ellipse fill="#d3d3d3" stroke="#c0c0c0" cx="474.0056" cy="-296.4" rx="3.5" ry="3.5"/>
</g>
<!-- 6204&#45;&gt;6205 -->
<g id="edge13" class="edge">
<title>6204&#45;&gt;6205</title>
<path fill="none" stroke="#c0c0c0" d="M474.0056,-228.271C474.0056,-238.3263 474.0056,-265.6592 474.0056,-282.4903"/>
<polygon fill="#c0c0c0" stroke="#c0c0c0" points="470.5057,-282.854 474.0056,-292.8541 477.5057,-282.8541 470.5057,-282.854"/>
<text text-anchor="middle" x="449.6995" y="-265.8807" font-family="Arial" font-size="7.00" fill="#000000">Aalsmeer&#45;plein </text>
<text text-anchor="middle" x="449.6995" y="-257.4807" font-family="Arial" font-size="7.00" fill="#000000"> &#45;weg</text>
</g>
<!-- 6206 -->
<g id="node16" class="node">
<title>6206</title>
<ellipse fill="#d3d3d3" stroke="#c0c0c0" cx="546.0056" cy="-296.4" rx="3.5" ry="3.5"/>
</g>
<!-- 6205&#45;&gt;6206 -->
<g id="edge14" class="edge">
<title>6205&#45;&gt;6206</title>
<path fill="none" stroke="#c0c0c0" d="M477.8766,-296.4C487.9319,-296.4 515.2648,-296.4 532.0959,-296.4"/>
<polygon fill="#c0c0c0" stroke="#c0c0c0" points="532.4597,-299.9001 542.4597,-296.4 532.4596,-292.9001 532.4597,-299.9001"/>
<text text-anchor="middle" x="504.9863" y="-290.1" font-family="Arial" font-size="7.00" fill="#000000">Hoofddorp&#45;plein </text>
<text text-anchor="middle" x="504.9863" y="-281.7" font-family="Arial" font-size="7.00" fill="#000000"> &#45;weg </text>
<text text-anchor="middle" x="504.9863" y="-273.3" font-family="Arial" font-size="7.00" fill="#000000"> Zeil&#45;brug </text>
<text text-anchor="middle" x="504.9863" y="-264.9" font-family="Arial" font-size="7.00" fill="#000000"> &#45;straat</text>
</g>
<!-- 6206&#45;&gt;6203 -->
<g id="edge15" class="edge">
<title>6206&#45;&gt;6203</title>
<path fill="none" stroke="#c0c0c0" d="M546.0056,-292.529C546.0056,-282.4737 546.0056,-255.1408 546.0056,-238.3096"/>
<polygon fill="#c0c0c0" stroke="#c0c0c0" points="549.5057,-237.9459 546.0056,-227.9459 542.5057,-237.946 549.5057,-237.9459"/>
<text text-anchor="middle" x="592.2805" y="-275.9193" font-family="Arial" font-size="7.00" fill="#000000">Amstelveenseweg </text>
<text text-anchor="middle" x="592.2805" y="-267.5193" font-family="Arial" font-size="7.00" fill="#000000"> (via Haarlemmermeerstation)</text>
</g>
<!-- 6208 -->
<g id="node18" class="node">
<title>6208</title>
<ellipse fill="#d3d3d3" stroke="#c0c0c0" cx="618.0056" cy="-80.4" rx="3.5" ry="3.5"/>
</g>
<!-- 6207&#45;&gt;6208 -->
<g id="edge17" class="edge">
<title>6207&#45;&gt;6208</title>
<path fill="none" stroke="#c0c0c0" d="M549.8766,-80.4C559.9319,-80.4 587.2648,-80.4 604.0959,-80.4"/>
<polygon fill="#c0c0c0" stroke="#c0c0c0" points="604.4597,-83.9001 614.4597,-80.4 604.4596,-76.9001 604.4597,-83.9001"/>
<text text-anchor="middle" x="587.4894" y="-74.1" font-family="Arial" font-size="7.00" fill="#000000">De Boelelaan</text>
</g>
<!-- 6209 -->
<g id="node19" class="node">
<title>6209</title>
<ellipse fill="#d3d3d3" stroke="#c0c0c0" cx="618.0056" cy="-152.4" rx="3.5" ry="3.5"/>
</g>
<!-- 6208&#45;&gt;6209 -->
<g id="edge18" class="edge">
<title>6208&#45;&gt;6209</title>
<path fill="none" stroke="#c0c0c0" d="M618.0056,-84.271C618.0056,-94.3263 618.0056,-121.6592 618.0056,-138.4903"/>
<polygon fill="#c0c0c0" stroke="#c0c0c0" points="614.5057,-138.854 618.0056,-148.8541 621.5057,-138.8541 614.5057,-138.854"/>
<text text-anchor="middle" x="595.0557" y="-113.4807" font-family="Arial" font-size="7.00" fill="#000000">Parnassusweg</text>
</g>
<!-- 6210 -->
<g id="node20" class="node">
<title>6210</title>
<ellipse fill="#d3d3d3" stroke="#c0c0c0" cx="690.0056" cy="-152.4" rx="3.5" ry="3.5"/>
</g>
<!-- 6209&#45;&gt;6210 -->
<g id="edge19" class="edge">
<title>6209&#45;&gt;6210</title>
<path fill="none" stroke="#c0c0c0" d="M621.8766,-152.4C631.9319,-152.4 659.2648,-152.4 676.0959,-152.4"/>
<polygon fill="#c0c0c0" stroke="#c0c0c0" points="676.4597,-155.9001 686.4597,-152.4 676.4596,-148.9001 676.4597,-155.9001"/>
<text text-anchor="middle" x="661.2377" y="-146.1" font-family="Arial" font-size="7.00" fill="#000000">Strawinskylaan </text>
<text text-anchor="middle" x="661.2377" y="-137.7" font-family="Arial" font-size="7.00" fill="#000000"> (via St. Zuid)</text>
</g>
<!-- 6211 -->
<g id="node21" class="node">
<title>6211</title>
<ellipse fill="#d3d3d3" stroke="#c0c0c0" cx="690.0056" cy="-8.4" rx="3.5" ry="3.5"/>
</g>
<!-- 6210&#45;&gt;6211 -->
<g id="edge20" class="edge">
<title>6210&#45;&gt;6211</title>
<path fill="none" stroke="#c0c0c0" d="M690.0056,-148.8404C690.0056,-131.3289 690.0056,-53.8921 690.0056,-22.0972"/>
<polygon fill="#c0c0c0" stroke="#c0c0c0" points="693.5057,-22.0951 690.0056,-12.0952 686.5057,-22.0952 693.5057,-22.0951"/>
<text text-anchor="middle" x="656.9376" y="-95.9688" font-family="Arial" font-size="7.00" fill="#000000">Beethovenstraat </text>
<text text-anchor="middle" x="656.9376" y="-87.5688" font-family="Arial" font-size="7.00" fill="#000000"> Van Leijenberghlaan</text>
</g>
<!-- 6212 -->
<g id="node22" class="node">
<title>6212</title>
<ellipse fill="#d3d3d3" stroke="#c0c0c0" cx="762.0056" cy="-8.4" rx="3.5" ry="3.5"/>
</g>
<!-- 6211&#45;&gt;6212 -->
<g id="edge21" class="edge">
<title>6211&#45;&gt;6212</title>
<path fill="none" stroke="#c0c0c0" d="M693.8766,-8.4C703.9319,-8.4 731.2648,-8.4 748.0959,-8.4"/>
<polygon fill="#c0c0c0" stroke="#c0c0c0" points="748.4597,-11.9001 758.4597,-8.4 748.4596,-4.9001 748.4597,-11.9001"/>
<text text-anchor="middle" x="720.9863" y="-2.1" font-family="Arial" font-size="7.00" fill="#000000">Van Boshuizenstraat</text>
</g>
<!-- 6213 -->
<g id="node23" class="node">
<title>6213</title>
<ellipse fill="#d3d3d3" stroke="#c0c0c0" cx="762.0056" cy="-152.4" rx="3.5" ry="3.5"/>
</g>
<!-- 6212&#45;&gt;6213 -->
<g id="edge22" class="edge">
<title>6212&#45;&gt;6213</title>
<path fill="none" stroke="#c0c0c0" d="M762.0056,-11.9596C762.0056,-29.4711 762.0056,-106.9079 762.0056,-138.7028"/>
<polygon fill="#c0c0c0" stroke="#c0c0c0" points="758.5057,-138.7048 762.0056,-148.7048 765.5057,-138.7049 758.5057,-138.7048"/>
<text text-anchor="middle" x="734.3853" y="-94.2312" font-family="Arial" font-size="7.00" fill="#000000">Europaboulevard </text>
<text text-anchor="middle" x="734.3853" y="-85.8312" font-family="Arial" font-size="7.00" fill="#000000"> (via St. RAI) </text>
<text text-anchor="middle" x="734.3853" y="-77.4312" font-family="Arial" font-size="7.00" fill="#000000"> Europaplein</text>
</g>
<!-- 6214 -->
<g id="node24" class="node">
<title>6214</title>
<ellipse fill="#d3d3d3" stroke="#c0c0c0" cx="834.0056" cy="-152.4" rx="3.5" ry="3.5"/>
</g>
<!-- 6213&#45;&gt;6214 -->
<g id="edge23" class="edge">
<title>6213&#45;&gt;6214</title>
<path fill="none" stroke="#c0c0c0" d="M765.8766,-152.4C775.9319,-152.4 803.2648,-152.4 820.0959,-152.4"/>
<polygon fill="#c0c0c0" stroke="#c0c0c0" points="820.4597,-155.9001 830.4597,-152.4 820.4596,-148.9001 820.4597,-155.9001"/>
<text text-anchor="middle" x="803.6856" y="-146.1" font-family="Arial" font-size="7.00" fill="#000000">President </text>
<text text-anchor="middle" x="803.6856" y="-137.7" font-family="Arial" font-size="7.00" fill="#000000"> Kennedylaan</text>
</g>
<!-- 6215 -->
<g id="node25" class="node">
<title>6215</title>
<ellipse fill="#d3d3d3" stroke="#c0c0c0" cx="834.0056" cy="-224.4" rx="3.5" ry="3.5"/>
</g>
<!-- 6214&#45;&gt;6215 -->
<g id="edge24" class="edge">
<title>6214&#45;&gt;6215</title>
<path fill="none" stroke="#c0c0c0" d="M834.0056,-156.271C834.0056,-166.3263 834.0056,-193.6592 834.0056,-210.4903"/>
<polygon fill="#c0c0c0" stroke="#c0c0c0" points="830.5057,-210.854 834.0056,-220.8541 837.5057,-210.8541 830.5057,-210.854"/>
<text text-anchor="middle" x="817.2823" y="-185.4807" font-family="Arial" font-size="7.00" fill="#000000">Waalstraat</text>
</g>
<!-- 6216 -->
<g id="node26" class="node">
<title>6216</title>
<ellipse fill="#d3d3d3" stroke="#c0c0c0" cx="906.0056" cy="-224.4" rx="3.5" ry="3.5"/>
</g>
<!-- 6215&#45;&gt;6216 -->
<g id="edge25" class="edge">
<title>6215&#45;&gt;6216</title>
<path fill="none" stroke="#c0c0c0" d="M837.8766,-224.4C847.9319,-224.4 875.2648,-224.4 892.0959,-224.4"/>
<polygon fill="#c0c0c0" stroke="#c0c0c0" points="892.4597,-227.9001 902.4597,-224.4 892.4596,-220.9001 892.4597,-227.9001"/>
<text text-anchor="middle" x="864.9863" y="-218.1" font-family="Arial" font-size="7.00" fill="#000000">Rooseveltlaan </text>
<text text-anchor="middle" x="864.9863" y="-209.7" font-family="Arial" font-size="7.00" fill="#000000"> Victorieplein </text>
<text text-anchor="middle" x="864.9863" y="-201.3" font-family="Arial" font-size="7.00" fill="#000000"> Vrijheidslaan </text>
<text text-anchor="middle" x="864.9863" y="-192.9" font-family="Arial" font-size="7.00" fill="#000000"> Berlagebrug </text>
<text text-anchor="middle" x="864.9863" y="-184.5" font-family="Arial" font-size="7.00" fill="#000000"> Mr. Treublaan </text>
<text text-anchor="middle" x="864.9863" y="-176.1" font-family="Arial" font-size="7.00" fill="#000000"> Prins Bernhard&#45;</text>
<text text-anchor="middle" x="864.9863" y="-167.7" font-family="Arial" font-size="7.00" fill="#000000">&#45;plein</text>
</g>
<!-- 6217 -->
<g id="node27" class="node">
<title>6217</title>
<ellipse fill="#d3d3d3" stroke="#c0c0c0" cx="906.0056" cy="-80.4" rx="3.5" ry="3.5"/>
</g>
<!-- 6216&#45;&gt;6217 -->
<g id="edge26" class="edge">
<title>6216&#45;&gt;6217</title>
<path fill="none" stroke="#c0c0c0" d="M906.0056,-220.8404C906.0056,-203.3289 906.0056,-125.8921 906.0056,-94.0972"/>
<polygon fill="#c0c0c0" stroke="#c0c0c0" points="909.5057,-94.0951 906.0056,-84.0952 902.5057,-94.0952 909.5057,-94.0951"/>
<text text-anchor="middle" x="887.5294" y="-159.5688" font-family="Arial" font-size="7.00" fill="#000000">Julianaplein</text>
</g>
<!-- 6218 -->
<g id="node28" class="node">
<title>6218</title>
<ellipse fill="#d3d3d3" stroke="#c0c0c0" cx="834.0056" cy="-80.4" rx="21.4356" ry="21.4356"/>
<text text-anchor="middle" x="834.0056" y="-78.3" font-family="Arial" font-size="7.00" fill="#000000">ASA</text>
</g>
<!-- 6217&#45;&gt;6218 -->
<g id="edge27" class="edge">
<title>6217&#45;&gt;6218</title>
<path fill="none" stroke="#c0c0c0" d="M902.1346,-80.4C895.1773,-80.4 879.9487,-80.4 865.6503,-80.4"/>
<polygon fill="#c0c0c0" stroke="#c0c0c0" points="865.5349,-76.9001 855.5348,-80.4 865.5348,-83.9001 865.5349,-76.9001"/>
<text text-anchor="middle" x="883.8924" y="-74.1" font-family="Arial" font-size="7.00" fill="#000000">Over&#45;</text>
<text text-anchor="middle" x="883.8924" y="-65.7" font-family="Arial" font-size="7.00" fill="#000000">&#45;zichtweg</text>
</g>
</g>
</svg>

