<?xml version="1.0" encoding="UTF-8" standalone="no"?>
<!DOCTYPE svg PUBLIC "-//W3C//DTD SVG 1.1//EN"
 "http://www.w3.org/Graphics/SVG/1.1/DTD/svg11.dtd">
<!-- Generated by graphviz version 2.40.1 (20161225.0304)
 -->
<!-- Title: G Pages: 1 -->
<svg width="629pt" height="711pt"
 viewBox="0.00 0.00 628.89 711.04" xmlns="http://www.w3.org/2000/svg" xmlns:xlink="http://www.w3.org/1999/xlink">
<g id="graph0" class="graph" transform="scale(1 1) rotate(0) translate(4 707.0405)">
<title>G</title>
<polygon fill="#ffffff" stroke="transparent" points="-4,4 -4,-707.0405 624.8933,-707.0405 624.8933,4 -4,4"/>
<text text-anchor="middle" x="310.4467" y="-13" font-family="Times,serif" font-size="6.00" fill="#000000">* Bij terugkomst gebruikt u stippellijnwegen </text>
<text text-anchor="middle" x="310.4467" y="-5.8" font-family="Times,serif" font-size="6.00" fill="#000000"> ** Bij terugkomst gebruikt u afrit (1): Bijlmermeer</text>
<!-- 4900 -->
<g id="node1" class="node">
<title>4900</title>
<ellipse fill="#d3d3d3" stroke="#c0c0c0" cx="22.3106" cy="-334.6405" rx="22.1227" ry="22.1227"/>
<text text-anchor="middle" x="22.3106" y="-332.5405" font-family="Arial" font-size="7.00" fill="#000000">BMR</text>
</g>
<!-- 4901 -->
<g id="node2" class="node">
<title>4901</title>
<ellipse fill="#d3d3d3" stroke="#c0c0c0" cx="94.3105" cy="-334.6405" rx="3.5" ry="3.5"/>
</g>
<!-- 4900&#45;&gt;4901 -->
<g id="edge6" class="edge">
<title>4900&#45;&gt;4901</title>
<path fill="none" stroke="#c0c0c0" d="M44.6971,-334.6405C56.4364,-334.6405 70.4405,-334.6405 80.5721,-334.6405"/>
<polygon fill="#c0c0c0" stroke="#c0c0c0" points="80.5974,-338.1406 90.5974,-334.6405 80.5974,-331.1406 80.5974,-338.1406"/>
<text text-anchor="middle" x="85.9751" y="-336.7405" font-family="Arial" font-size="7.00" fill="#000000">Hoogoorddreef</text>
</g>
<!-- 4902 -->
<g id="node3" class="node">
<title>4902</title>
<ellipse fill="#d3d3d3" stroke="#c0c0c0" cx="94.3105" cy="-262.6405" rx="3.5" ry="3.5"/>
</g>
<!-- 4901&#45;&gt;4902 -->
<g id="edge7" class="edge">
<title>4901&#45;&gt;4902</title>
<path fill="none" stroke="#c0c0c0" d="M94.3105,-330.7694C94.3105,-320.7141 94.3105,-293.3812 94.3105,-276.5501"/>
<polygon fill="#c0c0c0" stroke="#c0c0c0" points="97.8106,-276.1864 94.3105,-266.1864 90.8106,-276.1864 97.8106,-276.1864"/>
<text text-anchor="middle" x="70.7744" y="-314.1598" font-family="Arial" font-size="7.00" fill="#000000">Foppingadreef </text>
<text text-anchor="middle" x="70.7744" y="-305.7598" font-family="Arial" font-size="7.00" fill="#000000"> (lijn 49, 360**)</text>
</g>
<!-- 6601 -->
<g id="node12" class="node">
<title>6601</title>
<ellipse fill="#d3d3d3" stroke="#c0c0c0" cx="94.3105" cy="-406.6405" rx="3.5" ry="3.5"/>
</g>
<!-- 4901&#45;&gt;6601 -->
<g id="edge19" class="edge">
<title>4901&#45;&gt;6601</title>
<path fill="none" stroke="#c0c0c0" d="M94.3105,-338.5115C94.3105,-348.5668 94.3105,-375.8997 94.3105,-392.7308"/>
<polygon fill="#c0c0c0" stroke="#c0c0c0" points="90.8106,-393.0945 94.3105,-403.0945 97.8106,-393.0946 90.8106,-393.0945"/>
<text text-anchor="middle" x="70.7744" y="-376.1212" font-family="Arial" font-size="7.00" fill="#000000">Foppingadreef </text>
<text text-anchor="middle" x="70.7744" y="-367.7212" font-family="Arial" font-size="7.00" fill="#000000"> (lijn 44*, 66)</text>
</g>
<!-- 4903 -->
<g id="node4" class="node">
<title>4903</title>
<ellipse fill="#d3d3d3" stroke="#c0c0c0" cx="166.3105" cy="-262.6405" rx="3.5" ry="3.5"/>
</g>
<!-- 4902&#45;&gt;4903 -->
<g id="edge8" class="edge">
<title>4902&#45;&gt;4903</title>
<path fill="none" stroke="#c0c0c0" d="M98.1816,-262.6405C108.2369,-262.6405 135.5698,-262.6405 152.4009,-262.6405"/>
<polygon fill="#c0c0c0" stroke="#c0c0c0" points="152.7646,-266.1406 162.7646,-262.6405 152.7646,-259.1406 152.7646,-266.1406"/>
<text text-anchor="middle" x="135.2101" y="-256.3405" font-family="Arial" font-size="7.00" fill="#000000">Karspeldreef</text>
</g>
<!-- 4904 -->
<g id="node5" class="node">
<title>4904</title>
<ellipse fill="#d3d3d3" stroke="#c0c0c0" cx="310.3105" cy="-262.6405" rx="3.5" ry="3.5"/>
</g>
<!-- 4903&#45;&gt;4904 -->
<g id="edge9" class="edge">
<title>4903&#45;&gt;4904</title>
<path fill="none" stroke="#c0c0c0" d="M169.8701,-262.6405C187.3816,-262.6405 264.8184,-262.6405 296.6134,-262.6405"/>
<polygon fill="#c0c0c0" stroke="#c0c0c0" points="296.6154,-266.1406 306.6154,-262.6405 296.6154,-259.1406 296.6154,-266.1406"/>
<text text-anchor="middle" x="212.4314" y="-273.1405" font-family="Arial" font-size="7.00" fill="#000000">Karspeldreef </text>
<text text-anchor="middle" x="212.4314" y="-264.7405" font-family="Arial" font-size="7.00" fill="#000000"> (lijn 49)</text>
</g>
<!-- 36001 -->
<g id="node22" class="node">
<title>36001</title>
<ellipse fill="#d3d3d3" stroke="#c0c0c0" cx="166.3105" cy="-190.6405" rx="3.5" ry="3.5"/>
</g>
<!-- 4903&#45;&gt;36001 -->
<g id="edge16" class="edge">
<title>4903&#45;&gt;36001</title>
<path fill="none" stroke="#c0c0c0" d="M166.3105,-258.7694C166.3105,-248.7141 166.3105,-221.3812 166.3105,-204.5501"/>
<polygon fill="#c0c0c0" stroke="#c0c0c0" points="169.8106,-204.1864 166.3105,-194.1864 162.8106,-204.1864 169.8106,-204.1864"/>
<text text-anchor="middle" x="147.8337" y="-242.1598" font-family="Arial" font-size="7.00" fill="#000000">Gooiseweg </text>
<text text-anchor="middle" x="147.8337" y="-233.7598" font-family="Arial" font-size="7.00" fill="#000000"> (lijn 360)</text>
</g>
<!-- 4905 -->
<g id="node6" class="node">
<title>4905</title>
<ellipse fill="#d3d3d3" stroke="#c0c0c0" cx="310.3105" cy="-190.6405" rx="3.5" ry="3.5"/>
</g>
<!-- 4904&#45;&gt;4905 -->
<g id="edge10" class="edge">
<title>4904&#45;&gt;4905</title>
<path fill="none" stroke="#c0c0c0" d="M310.3105,-258.7694C310.3105,-248.7141 310.3105,-221.3812 310.3105,-204.5501"/>
<polygon fill="#c0c0c0" stroke="#c0c0c0" points="313.8106,-204.1864 310.3105,-194.1864 306.8106,-204.1864 313.8106,-204.1864"/>
<text text-anchor="middle" x="288.1457" y="-233.7598" font-family="Arial" font-size="7.00" fill="#000000">Kromwijkdreef</text>
</g>
<!-- 4906 -->
<g id="node7" class="node">
<title>4906</title>
<ellipse fill="#d3d3d3" stroke="#c0c0c0" cx="310.3105" cy="-118.6405" rx="3.5" ry="3.5"/>
</g>
<!-- 4905&#45;&gt;4906 -->
<g id="edge11" class="edge">
<title>4905&#45;&gt;4906</title>
<path fill="none" stroke="#c0c0c0" d="M310.3105,-186.7694C310.3105,-176.7141 310.3105,-149.3812 310.3105,-132.5501"/>
<polygon fill="#c0c0c0" stroke="#c0c0c0" points="313.8106,-132.1864 310.3105,-122.1864 306.8106,-132.1864 313.8106,-132.1864"/>
<text text-anchor="middle" x="284.0514" y="-170.1598" font-family="Arial" font-size="7.00" fill="#000000">Loosdrechtdreef </text>
<text text-anchor="middle" x="284.0514" y="-161.7598" font-family="Arial" font-size="7.00" fill="#000000"> (lijn 49)</text>
</g>
<!-- 6607 -->
<g id="node18" class="node">
<title>6607</title>
<ellipse fill="#d3d3d3" stroke="#c0c0c0" cx="454.3105" cy="-190.6405" rx="3.5" ry="3.5"/>
</g>
<!-- 4905&#45;&gt;6607 -->
<g id="edge45" class="edge">
<title>4905&#45;&gt;6607</title>
<path fill="none" stroke="#c0c0c0" d="M313.8701,-190.6405C331.3816,-190.6405 408.8184,-190.6405 440.6133,-190.6405"/>
<polygon fill="#c0c0c0" stroke="#c0c0c0" points="440.6154,-194.1406 450.6154,-190.6405 440.6154,-187.1406 440.6154,-194.1406"/>
<text text-anchor="middle" x="352.537" y="-217.9405" font-family="Arial" font-size="7.00" fill="#000000">[A9] </text>
<text text-anchor="middle" x="352.537" y="-209.5405" font-family="Arial" font-size="7.00" fill="#000000"> [A1]: Zaanstad </text>
<text text-anchor="middle" x="352.537" y="-201.1405" font-family="Arial" font-size="7.00" fill="#000000"> (1a): IJburg </text>
<text text-anchor="middle" x="352.537" y="-192.7405" font-family="Arial" font-size="7.00" fill="#000000"> (lijn 360)</text>
</g>
<!-- 4907 -->
<g id="node8" class="node">
<title>4907</title>
<ellipse fill="#d3d3d3" stroke="#c0c0c0" cx="238.3105" cy="-118.6405" rx="3.5" ry="3.5"/>
</g>
<!-- 4906&#45;&gt;4907 -->
<g id="edge12" class="edge">
<title>4906&#45;&gt;4907</title>
<path fill="none" stroke="#c0c0c0" d="M306.4395,-118.6405C296.3842,-118.6405 269.0513,-118.6405 252.2202,-118.6405"/>
<polygon fill="#c0c0c0" stroke="#c0c0c0" points="251.8565,-115.1406 241.8565,-118.6405 251.8564,-122.1406 251.8565,-115.1406"/>
<text text-anchor="middle" x="279.3299" y="-112.3405" font-family="Arial" font-size="7.00" fill="#000000">Provincialeweg </text>
<text text-anchor="middle" x="279.3299" y="-103.9405" font-family="Arial" font-size="7.00" fill="#000000"> Gooilandseweg</text>
</g>
<!-- 4908 -->
<g id="node9" class="node">
<title>4908</title>
<ellipse fill="#d3d3d3" stroke="#c0c0c0" cx="238.3105" cy="-46.6405" rx="3.5" ry="3.5"/>
</g>
<!-- 4907&#45;&gt;4908 -->
<g id="edge13" class="edge">
<title>4907&#45;&gt;4908</title>
<path fill="none" stroke="#c0c0c0" d="M238.3105,-114.7694C238.3105,-104.7141 238.3105,-77.3812 238.3105,-60.5501"/>
<polygon fill="#c0c0c0" stroke="#c0c0c0" points="241.8106,-60.1864 238.3105,-50.1864 234.8106,-60.1864 241.8106,-60.1864"/>
<text text-anchor="middle" x="205.6338" y="-81.3598" font-family="Arial" font-size="7.00" fill="#000000">C.J. van Houtenlaan </text>
<text text-anchor="middle" x="205.6338" y="-72.9598" font-family="Arial" font-size="7.00" fill="#000000"> Prinses Irenelaan </text>
<text text-anchor="middle" x="205.6338" y="-64.5598" font-family="Arial" font-size="7.00" fill="#000000"> Casparuslaan</text>
</g>
<!-- 4909 -->
<g id="node10" class="node">
<title>4909</title>
<ellipse fill="#d3d3d3" stroke="#c0c0c0" cx="166.3105" cy="-46.6405" rx="3.5" ry="3.5"/>
</g>
<!-- 4908&#45;&gt;4909 -->
<g id="edge14" class="edge">
<title>4908&#45;&gt;4909</title>
<path fill="none" stroke="#c0c0c0" d="M234.4395,-46.6405C224.3842,-46.6405 197.0513,-46.6405 180.2202,-46.6405"/>
<polygon fill="#c0c0c0" stroke="#c0c0c0" points="179.8565,-43.1406 169.8565,-46.6405 179.8564,-50.1406 179.8565,-43.1406"/>
<text text-anchor="middle" x="207.3299" y="-40.3405" font-family="Arial" font-size="7.00" fill="#000000">Plataanlaan </text>
<text text-anchor="middle" x="207.3299" y="-31.9405" font-family="Arial" font-size="7.00" fill="#000000"> Herensingel</text>
</g>
<!-- 4910 -->
<g id="node11" class="node">
<title>4910</title>
<ellipse fill="#d3d3d3" stroke="#c0c0c0" cx="166.3105" cy="-118.6405" rx="22.6758" ry="22.6758"/>
<text text-anchor="middle" x="166.3105" y="-116.5405" font-family="Arial" font-size="7.00" fill="#000000">SWP</text>
</g>
<!-- 4909&#45;&gt;4910 -->
<g id="edge15" class="edge">
<title>4909&#45;&gt;4910</title>
<path fill="none" stroke="#c0c0c0" d="M166.3105,-50.5115C166.3105,-57.215 166.3105,-71.5975 166.3105,-85.428"/>
<polygon fill="#c0c0c0" stroke="#c0c0c0" points="162.8106,-85.7603 166.3105,-95.7603 169.8106,-85.7603 162.8106,-85.7603"/>
<text text-anchor="middle" x="142.7821" y="-78.4697" font-family="Arial" font-size="7.00" fill="#000000">M. Nijfoffstraat </text>
<text text-anchor="middle" x="142.7821" y="-70.0697" font-family="Arial" font-size="7.00" fill="#000000"> Herensingel</text>
</g>
<!-- 4401 -->
<g id="node25" class="node">
<title>4401</title>
<ellipse fill="#d3d3d3" stroke="#c0c0c0" cx="166.3105" cy="-406.6405" rx="3.5" ry="3.5"/>
</g>
<!-- 6601&#45;&gt;4401 -->
<g id="edge20" class="edge">
<title>6601&#45;&gt;4401</title>
<path fill="none" stroke="#c0c0c0" d="M98.1816,-406.6405C108.2369,-406.6405 135.5698,-406.6405 152.4009,-406.6405"/>
<polygon fill="#c0c0c0" stroke="#c0c0c0" points="152.7646,-410.1406 162.7646,-406.6405 152.7646,-403.1406 152.7646,-410.1406"/>
<text text-anchor="middle" x="143.956" y="-408.7405" font-family="Arial" font-size="7.00" fill="#000000">Bijlmerdreef</text>
</g>
<!-- 6602 -->
<g id="node13" class="node">
<title>6602</title>
<ellipse fill="#d3d3d3" stroke="#c0c0c0" cx="238.3105" cy="-406.6405" rx="3.5" ry="3.5"/>
</g>
<!-- 6603 -->
<g id="node14" class="node">
<title>6603</title>
<ellipse fill="#d3d3d3" stroke="#c0c0c0" cx="238.3105" cy="-478.6405" rx="3.5" ry="3.5"/>
</g>
<!-- 6602&#45;&gt;6603 -->
<g id="edge36" class="edge">
<title>6602&#45;&gt;6603</title>
<path fill="none" stroke="#c0c0c0" d="M238.3105,-410.5115C238.3105,-420.5668 238.3105,-447.8997 238.3105,-464.7308"/>
<polygon fill="#c0c0c0" stroke="#c0c0c0" points="234.8106,-465.0945 238.3105,-475.0945 241.8106,-465.0946 234.8106,-465.0945"/>
<text text-anchor="middle" x="221.0065" y="-439.7212" font-family="Arial" font-size="7.00" fill="#000000">Elsrijkdreef</text>
</g>
<!-- 6604 -->
<g id="node15" class="node">
<title>6604</title>
<ellipse fill="#d3d3d3" stroke="#c0c0c0" cx="310.3105" cy="-478.6405" rx="3.5" ry="3.5"/>
</g>
<!-- 6603&#45;&gt;6604 -->
<g id="edge37" class="edge">
<title>6603&#45;&gt;6604</title>
<path fill="none" stroke="#c0c0c0" d="M242.1816,-478.6405C252.2369,-478.6405 279.5698,-478.6405 296.4009,-478.6405"/>
<polygon fill="#c0c0c0" stroke="#c0c0c0" points="296.7647,-482.1406 306.7646,-478.6405 296.7646,-475.1406 296.7647,-482.1406"/>
<text text-anchor="middle" x="281.0561" y="-472.3405" font-family="Arial" font-size="7.00" fill="#000000">Provincialeweg</text>
</g>
<!-- 6605 -->
<g id="node16" class="node">
<title>6605</title>
<ellipse fill="#d3d3d3" stroke="#c0c0c0" cx="310.3105" cy="-406.6405" rx="3.5" ry="3.5"/>
</g>
<!-- 6604&#45;&gt;6605 -->
<g id="edge38" class="edge">
<title>6604&#45;&gt;6605</title>
<path fill="none" stroke="#c0c0c0" d="M310.3105,-474.7694C310.3105,-464.7141 310.3105,-437.3812 310.3105,-420.5501"/>
<polygon fill="#c0c0c0" stroke="#c0c0c0" points="313.8106,-420.1864 310.3105,-410.1864 306.8106,-420.1864 313.8106,-420.1864"/>
<text text-anchor="middle" x="284.4469" y="-449.7598" font-family="Arial" font-size="7.00" fill="#000000">Muiderstraatweg</text>
</g>
<!-- 6606 -->
<g id="node17" class="node">
<title>6606</title>
<ellipse fill="#d3d3d3" stroke="#c0c0c0" cx="454.3105" cy="-406.6405" rx="3.5" ry="3.5"/>
</g>
<!-- 6605&#45;&gt;6606 -->
<g id="edge39" class="edge">
<title>6605&#45;&gt;6606</title>
<path fill="none" stroke="#c0c0c0" d="M313.8701,-406.6405C331.3816,-406.6405 408.8184,-406.6405 440.6133,-406.6405"/>
<polygon fill="#c0c0c0" stroke="#c0c0c0" points="440.6154,-410.1406 450.6154,-406.6405 440.6154,-403.1406 440.6154,-410.1406"/>
<text text-anchor="middle" x="356.8231" y="-408.7405" font-family="Arial" font-size="7.00" fill="#000000">Weteringweg</text>
</g>
<!-- 6606&#45;&gt;6607 -->
<g id="edge40" class="edge">
<title>6606&#45;&gt;6607</title>
<path fill="none" stroke="#c0c0c0" d="M454.3105,-402.8914C454.3105,-378.9787 454.3105,-247.4112 454.3105,-204.3137"/>
<polygon fill="#c0c0c0" stroke="#c0c0c0" points="457.8106,-204.1594 454.3105,-194.1594 450.8106,-204.1594 457.8106,-204.1594"/>
<text text-anchor="middle" x="426.8933" y="-305.7025" font-family="Arial" font-size="7.00" fill="#000000">Diemerpolderweg</text>
</g>
<!-- 6608 -->
<g id="node19" class="node">
<title>6608</title>
<ellipse fill="#d3d3d3" stroke="#c0c0c0" cx="454.3105" cy="-46.6405" rx="3.5" ry="3.5"/>
</g>
<!-- 6607&#45;&gt;6608 -->
<g id="edge41" class="edge">
<title>6607&#45;&gt;6608</title>
<path fill="none" stroke="#c0c0c0" d="M454.3105,-187.0809C454.3105,-169.5694 454.3105,-92.1326 454.3105,-60.3377"/>
<polygon fill="#c0c0c0" stroke="#c0c0c0" points="457.8106,-60.3356 454.3105,-50.3356 450.8106,-60.3357 457.8106,-60.3356"/>
<text text-anchor="middle" x="422.2253" y="-142.6093" font-family="Arial" font-size="7.00" fill="#000000">Diemerpolderweg </text>
<text text-anchor="middle" x="422.2253" y="-134.2093" font-family="Arial" font-size="7.00" fill="#000000"> Fortdiemerdamweg </text>
<text text-anchor="middle" x="422.2253" y="-125.8093" font-family="Arial" font-size="7.00" fill="#000000"> Muiderlaan</text>
</g>
<!-- 6609 -->
<g id="node20" class="node">
<title>6609</title>
<ellipse fill="#d3d3d3" stroke="#c0c0c0" cx="526.3105" cy="-46.6405" rx="3.5" ry="3.5"/>
</g>
<!-- 6608&#45;&gt;6609 -->
<g id="edge43" class="edge">
<title>6608&#45;&gt;6609</title>
<path fill="none" stroke="#c0c0c0" d="M458.1816,-46.6405C468.2369,-46.6405 495.5698,-46.6405 512.4009,-46.6405"/>
<polygon fill="#c0c0c0" stroke="#c0c0c0" points="512.7646,-50.1406 522.7646,-46.6405 512.7646,-43.1406 512.7646,-50.1406"/>
<text text-anchor="middle" x="495.5025" y="-40.3405" font-family="Arial" font-size="7.00" fill="#000000">Pampuslaan </text>
<text text-anchor="middle" x="495.5025" y="-31.9405" font-family="Arial" font-size="7.00" fill="#000000"> (lijn 66)</text>
</g>
<!-- 36003 -->
<g id="node24" class="node">
<title>36003</title>
<ellipse fill="#d3d3d3" stroke="#c0c0c0" cx="382.3105" cy="-46.6405" rx="24.4833" ry="24.4833"/>
<text text-anchor="middle" x="382.3105" y="-44.5405" font-family="Arial" font-size="7.00" fill="#000000">BEDL</text>
</g>
<!-- 6608&#45;&gt;36003 -->
<g id="edge42" class="edge">
<title>6608&#45;&gt;36003</title>
<path fill="none" stroke="#c0c0c0" d="M450.4395,-46.6405C443.9222,-46.6405 430.1466,-46.6405 416.6767,-46.6405"/>
<polygon fill="#c0c0c0" stroke="#c0c0c0" points="416.561,-43.1406 406.561,-46.6405 416.561,-50.1406 416.561,-43.1406"/>
<text text-anchor="middle" x="433.5581" y="-40.3405" font-family="Arial" font-size="7.00" fill="#000000">Pampuslaan </text>
<text text-anchor="middle" x="433.5581" y="-31.9405" font-family="Arial" font-size="7.00" fill="#000000"> (lijn 360)</text>
</g>
<!-- 6610 -->
<g id="node21" class="node">
<title>6610</title>
<ellipse fill="#d3d3d3" stroke="#c0c0c0" cx="598.3105" cy="-46.6405" rx="21.4356" ry="21.4356"/>
<text text-anchor="middle" x="598.3105" y="-44.5405" font-family="Arial" font-size="7.00" fill="#000000">VPS</text>
</g>
<!-- 6609&#45;&gt;6610 -->
<g id="edge44" class="edge">
<title>6609&#45;&gt;6610</title>
<path fill="none" stroke="#c0c0c0" d="M530.1816,-46.6405C537.1389,-46.6405 552.3674,-46.6405 566.6658,-46.6405"/>
<polygon fill="#c0c0c0" stroke="#c0c0c0" points="566.7814,-50.1406 576.7813,-46.6405 566.7813,-43.1406 566.7814,-50.1406"/>
<text text-anchor="middle" x="556.5929" y="-40.3405" font-family="Arial" font-size="7.00" fill="#000000">IJburglaan</text>
</g>
<!-- 36002 -->
<g id="node23" class="node">
<title>36002</title>
<ellipse fill="#d3d3d3" stroke="#c0c0c0" cx="238.3105" cy="-190.6405" rx="3.5" ry="3.5"/>
</g>
<!-- 36001&#45;&gt;36002 -->
<g id="edge17" class="edge">
<title>36001&#45;&gt;36002</title>
<path fill="none" stroke="#c0c0c0" d="M170.1816,-190.6405C180.2369,-190.6405 207.5698,-190.6405 224.4009,-190.6405"/>
<polygon fill="#c0c0c0" stroke="#c0c0c0" points="224.7646,-194.1406 234.7646,-190.6405 224.7646,-187.1406 224.7646,-194.1406"/>
<text text-anchor="middle" x="209.546" y="-184.3405" font-family="Arial" font-size="7.00" fill="#000000">Langbroekdreef</text>
</g>
<!-- 36002&#45;&gt;4905 -->
<g id="edge18" class="edge">
<title>36002&#45;&gt;4905</title>
<path fill="none" stroke="#c0c0c0" d="M252.2799,-190.6405C265.0458,-190.6405 283.8165,-190.6405 296.5245,-190.6405"/>
<polygon fill="#c0c0c0" stroke="#c0c0c0" points="252.1816,-187.1406 242.1816,-190.6405 252.1815,-194.1406 252.1816,-187.1406"/>
<polygon fill="#c0c0c0" stroke="#c0c0c0" points="296.7647,-194.1406 306.7646,-190.6405 296.7646,-187.1406 296.7647,-194.1406"/>
<text text-anchor="middle" x="248.1466" y="-209.5405" font-family="Arial" font-size="7.00" fill="#000000">Langbroekdreef </text>
<text text-anchor="middle" x="248.1466" y="-201.1405" font-family="Arial" font-size="7.00" fill="#000000"> (lijn 49 via</text>
<text text-anchor="middle" x="248.1466" y="-192.7405" font-family="Arial" font-size="7.00" fill="#000000">St. Gaasperplas)</text>
</g>
<!-- 4401&#45;&gt;6602 -->
<g id="edge21" class="edge">
<title>4401&#45;&gt;6602</title>
<path fill="none" stroke="#c0c0c0" d="M170.1816,-406.6405C180.2369,-406.6405 207.5698,-406.6405 224.4009,-406.6405"/>
<polygon fill="#c0c0c0" stroke="#c0c0c0" points="224.7646,-410.1406 234.7646,-406.6405 224.7646,-403.1406 224.7646,-410.1406"/>
<text text-anchor="middle" x="207.11" y="-400.3405" font-family="Arial" font-size="7.00" fill="#000000">Bijlmerdreef </text>
<text text-anchor="middle" x="207.11" y="-391.9405" font-family="Arial" font-size="7.00" fill="#000000"> (lijn 66)</text>
</g>
<!-- 4402 -->
<g id="node26" class="node">
<title>4402</title>
<ellipse fill="#d3d3d3" stroke="#c0c0c0" cx="166.3105" cy="-550.6405" rx="3.5" ry="3.5"/>
</g>
<!-- 4401&#45;&gt;4402 -->
<g id="edge22" class="edge">
<title>4401&#45;&gt;4402</title>
<path fill="none" stroke="#c0c0c0" d="M166.3105,-410.2C166.3105,-427.7116 166.3105,-505.1483 166.3105,-536.9433"/>
<polygon fill="#c0c0c0" stroke="#c0c0c0" points="162.8106,-536.9453 166.3105,-546.9453 169.8106,-536.9453 162.8106,-536.9453"/>
<text text-anchor="middle" x="145.5006" y="-484.0717" font-family="Arial" font-size="7.00" fill="#000000">Dolingadreef </text>
<text text-anchor="middle" x="145.5006" y="-475.6717" font-family="Arial" font-size="7.00" fill="#000000"> (lijn 44)</text>
</g>
<!-- 4403 -->
<g id="node27" class="node">
<title>4403</title>
<ellipse fill="#d3d3d3" stroke="#c0c0c0" cx="238.3105" cy="-550.6405" rx="3.5" ry="3.5"/>
</g>
<!-- 4402&#45;&gt;4403 -->
<g id="edge23" class="edge">
<title>4402&#45;&gt;4403</title>
<path fill="none" stroke="#c0c0c0" d="M170.1816,-550.6405C180.2369,-550.6405 207.5698,-550.6405 224.4009,-550.6405"/>
<polygon fill="#c0c0c0" stroke="#c0c0c0" points="224.7646,-554.1406 234.7646,-550.6405 224.7646,-547.1406 224.7646,-554.1406"/>
<text text-anchor="middle" x="207.7909" y="-544.3405" font-family="Arial" font-size="7.00" fill="#000000">Daalwijkdreef</text>
</g>
<!-- 4404 -->
<g id="node28" class="node">
<title>4404</title>
<ellipse fill="#d3d3d3" stroke="#c0c0c0" cx="238.3105" cy="-694.6405" rx="3.5" ry="3.5"/>
</g>
<!-- 4403&#45;&gt;4404 -->
<g id="edge24" class="edge">
<title>4403&#45;&gt;4404</title>
<path fill="none" stroke="#c0c0c0" d="M238.3105,-554.2C238.3105,-571.7116 238.3105,-649.1483 238.3105,-680.9433"/>
<polygon fill="#c0c0c0" stroke="#c0c0c0" points="234.8106,-680.9453 238.3105,-690.9453 241.8106,-680.9453 234.8106,-680.9453"/>
<text text-anchor="middle" x="204.4764" y="-644.8717" font-family="Arial" font-size="7.00" fill="#000000">Bergwijkdreef </text>
<text text-anchor="middle" x="204.4764" y="-636.4717" font-family="Arial" font-size="7.00" fill="#000000"> Boven Rijkersloot </text>
<text text-anchor="middle" x="204.4764" y="-628.0717" font-family="Arial" font-size="7.00" fill="#000000"> Beneden R. </text>
<text text-anchor="middle" x="204.4764" y="-619.6717" font-family="Arial" font-size="7.00" fill="#000000"> (via St. Diemen Zuid)</text>
</g>
<!-- 4405 -->
<g id="node29" class="node">
<title>4405</title>
<ellipse fill="#d3d3d3" stroke="#c0c0c0" cx="310.3105" cy="-694.6405" rx="3.5" ry="3.5"/>
</g>
<!-- 4404&#45;&gt;4405 -->
<g id="edge25" class="edge">
<title>4404&#45;&gt;4405</title>
<path fill="none" stroke="#c0c0c0" d="M242.1816,-694.6405C252.2369,-694.6405 279.5698,-694.6405 296.4009,-694.6405"/>
<polygon fill="#c0c0c0" stroke="#c0c0c0" points="296.7647,-698.1406 306.7646,-694.6405 296.7646,-691.1406 296.7647,-698.1406"/>
<text text-anchor="middle" x="279.6005" y="-688.3405" font-family="Arial" font-size="7.00" fill="#000000">Beneden R. </text>
<text text-anchor="middle" x="279.6005" y="-679.9405" font-family="Arial" font-size="7.00" fill="#000000"> Boven R. </text>
<text text-anchor="middle" x="279.6005" y="-671.5405" font-family="Arial" font-size="7.00" fill="#000000"> Beukenhorst</text>
</g>
<!-- 4406 -->
<g id="node30" class="node">
<title>4406</title>
<ellipse fill="#d3d3d3" stroke="#c0c0c0" cx="310.3105" cy="-550.6405" rx="3.5" ry="3.5"/>
</g>
<!-- 4405&#45;&gt;4406 -->
<g id="edge26" class="edge">
<title>4405&#45;&gt;4406</title>
<path fill="none" stroke="#c0c0c0" d="M310.3105,-691.0809C310.3105,-673.5694 310.3105,-596.1326 310.3105,-564.3377"/>
<polygon fill="#c0c0c0" stroke="#c0c0c0" points="313.8106,-564.3356 310.3105,-554.3356 306.8106,-564.3357 313.8106,-564.3356"/>
<text text-anchor="middle" x="283.4743" y="-638.2093" font-family="Arial" font-size="7.00" fill="#000000">Hartveldseweg </text>
<text text-anchor="middle" x="283.4743" y="-629.8093" font-family="Arial" font-size="7.00" fill="#000000"> Muiderstraatweg</text>
</g>
<!-- 4416 -->
<g id="node39" class="node">
<title>4416</title>
<ellipse fill="#d3d3d3" stroke="#c0c0c0" cx="382.3105" cy="-694.6405" rx="3.5" ry="3.5"/>
</g>
<!-- 4405&#45;&gt;4416 -->
<g id="edge2" class="edge">
<title>4405&#45;&gt;4416</title>
<path fill="none" stroke="#c0c0c0" stroke-dasharray="5,2" d="M314.1816,-694.6405C326.8,-694.6405 366.6268,-694.6405 378.7646,-694.6405"/>
<text text-anchor="middle" x="346.4731" y="-688.3405" font-family="Arial" font-size="7.00" fill="#000000">Burgemeester</text>
<text text-anchor="middle" x="346.4731" y="-679.9405" font-family="Arial" font-size="7.00" fill="#000000">Bickerstraat</text>
</g>
<!-- 4407 -->
<g id="node31" class="node">
<title>4407</title>
<ellipse fill="#d3d3d3" stroke="#c0c0c0" cx="382.3105" cy="-550.6405" rx="3.5" ry="3.5"/>
</g>
<!-- 4406&#45;&gt;4407 -->
<g id="edge27" class="edge">
<title>4406&#45;&gt;4407</title>
<path fill="none" stroke="#c0c0c0" d="M314.1816,-550.6405C324.2369,-550.6405 351.5698,-550.6405 368.4009,-550.6405"/>
<polygon fill="#c0c0c0" stroke="#c0c0c0" points="368.7647,-554.1406 378.7646,-550.6405 368.7646,-547.1406 368.7647,-554.1406"/>
<text text-anchor="middle" x="341.2912" y="-544.3405" font-family="Arial" font-size="7.00" fill="#000000">Prins Bernhardlaan</text>
</g>
<!-- 4408 -->
<g id="node32" class="node">
<title>4408</title>
<ellipse fill="#d3d3d3" stroke="#c0c0c0" cx="382.3105" cy="-622.6405" rx="3.5" ry="3.5"/>
</g>
<!-- 4407&#45;&gt;4408 -->
<g id="edge28" class="edge">
<title>4407&#45;&gt;4408</title>
<path fill="none" stroke="#c0c0c0" d="M382.3105,-554.5115C382.3105,-564.5668 382.3105,-591.8997 382.3105,-608.7308"/>
<polygon fill="#c0c0c0" stroke="#c0c0c0" points="378.8106,-609.0945 382.3105,-619.0945 385.8106,-609.0946 378.8106,-609.0945"/>
<text text-anchor="middle" x="352.1671" y="-583.7212" font-family="Arial" font-size="7.00" fill="#000000">Prinses Beatrixlaan</text>
</g>
<!-- 4409 -->
<g id="node33" class="node">
<title>4409</title>
<ellipse fill="#d3d3d3" stroke="#c0c0c0" cx="454.3105" cy="-622.6405" rx="3.5" ry="3.5"/>
</g>
<!-- 4408&#45;&gt;4409 -->
<g id="edge29" class="edge">
<title>4408&#45;&gt;4409</title>
<path fill="none" stroke="#c0c0c0" d="M386.1816,-622.6405C396.2369,-622.6405 423.5698,-622.6405 440.4009,-622.6405"/>
<polygon fill="#c0c0c0" stroke="#c0c0c0" points="440.7646,-626.1406 450.7646,-622.6405 440.7646,-619.1406 440.7646,-626.1406"/>
<text text-anchor="middle" x="413.2912" y="-616.3405" font-family="Arial" font-size="7.00" fill="#000000">Ouddiemerlaan</text>
<text text-anchor="middle" x="413.2912" y="-607.9405" font-family="Arial" font-size="7.00" fill="#000000"> (via St. Diemen)</text>
</g>
<!-- 4408&#45;&gt;4416 -->
<g id="edge1" class="edge">
<title>4408&#45;&gt;4416</title>
<path fill="none" stroke="#c0c0c0" stroke-dasharray="5,2" d="M382.3105,-626.5115C382.3105,-639.1299 382.3105,-678.9567 382.3105,-691.0945"/>
<text text-anchor="middle" x="350.0293" y="-660.903" font-family="Arial" font-size="7.00" fill="#000000">Wilhelminaplantsoen</text>
</g>
<!-- 4410 -->
<g id="node34" class="node">
<title>4410</title>
<ellipse fill="#d3d3d3" stroke="#c0c0c0" cx="454.3105" cy="-550.6405" rx="3.5" ry="3.5"/>
</g>
<!-- 4409&#45;&gt;4410 -->
<g id="edge30" class="edge">
<title>4409&#45;&gt;4410</title>
<path fill="none" stroke="#c0c0c0" d="M454.3105,-618.7694C454.3105,-608.7141 454.3105,-581.3812 454.3105,-564.5501"/>
<polygon fill="#c0c0c0" stroke="#c0c0c0" points="457.8106,-564.1864 454.3105,-554.1864 450.8106,-564.1864 457.8106,-564.1864"/>
<text text-anchor="middle" x="426.8933" y="-593.7598" font-family="Arial" font-size="7.00" fill="#000000">Diemerpolderweg</text>
</g>
<!-- 4417 -->
<g id="node40" class="node">
<title>4417</title>
<ellipse fill="#d3d3d3" stroke="#c0c0c0" cx="454.3105" cy="-694.6405" rx="3.5" ry="3.5"/>
</g>
<!-- 4409&#45;&gt;4417 -->
<g id="edge3" class="edge">
<title>4409&#45;&gt;4417</title>
<path fill="none" stroke="#c0c0c0" stroke-dasharray="5,2" d="M454.3105,-626.5115C454.3105,-639.1299 454.3105,-678.9567 454.3105,-691.0945"/>
<text text-anchor="middle" x="436.9988" y="-660.903" font-family="Arial" font-size="7.00" fill="#000000">Buytenweg</text>
</g>
<!-- 4411 -->
<g id="node35" class="node">
<title>4411</title>
<ellipse fill="#d3d3d3" stroke="#c0c0c0" cx="526.3105" cy="-550.6405" rx="3.5" ry="3.5"/>
</g>
<!-- 4410&#45;&gt;4411 -->
<g id="edge31" class="edge">
<title>4410&#45;&gt;4411</title>
<path fill="none" stroke="#c0c0c0" d="M458.1816,-550.6405C468.2369,-550.6405 495.5698,-550.6405 512.4009,-550.6405"/>
<polygon fill="#c0c0c0" stroke="#c0c0c0" points="512.7646,-554.1406 522.7646,-550.6405 512.7646,-547.1406 512.7646,-554.1406"/>
<text text-anchor="middle" x="500.6569" y="-552.7405" font-family="Arial" font-size="7.00" fill="#000000">Vogelweg</text>
</g>
<!-- 4412 -->
<g id="node36" class="node">
<title>4412</title>
<ellipse fill="#d3d3d3" stroke="#c0c0c0" cx="526.3105" cy="-622.6405" rx="3.5" ry="3.5"/>
</g>
<!-- 4411&#45;&gt;4412 -->
<g id="edge32" class="edge">
<title>4411&#45;&gt;4412</title>
<path fill="none" stroke="#c0c0c0" d="M526.3105,-554.5115C526.3105,-564.5668 526.3105,-591.8997 526.3105,-608.7308"/>
<polygon fill="#c0c0c0" stroke="#c0c0c0" points="522.8106,-609.0945 526.3105,-619.0945 529.8106,-609.0946 522.8106,-609.0945"/>
<text text-anchor="middle" x="506.8649" y="-583.7212" font-family="Arial" font-size="7.00" fill="#000000">Tureluurweg</text>
</g>
<!-- 4413 -->
<g id="node37" class="node">
<title>4413</title>
<ellipse fill="#d3d3d3" stroke="#c0c0c0" cx="562.3105" cy="-658.6405" rx="3.5" ry="3.5"/>
</g>
<!-- 4412&#45;&gt;4413 -->
<g id="edge33" class="edge">
<title>4412&#45;&gt;4413</title>
<path fill="none" stroke="#c0c0c0" d="M529.1354,-625.4653C534.1018,-630.4318 544.6168,-640.9468 552.4855,-648.8154"/>
<polygon fill="#c0c0c0" stroke="#c0c0c0" points="550.0513,-651.331 559.5973,-655.9272 555.0011,-646.3813 550.0513,-651.331"/>
<text text-anchor="middle" x="517.4731" y="-639.2404" font-family="Arial" font-size="7.00" fill="#000000">Rietzangerweg</text>
</g>
<!-- 4419 -->
<g id="node42" class="node">
<title>4419</title>
<ellipse fill="#d3d3d3" stroke="#c0c0c0" cx="598.3105" cy="-622.6405" rx="3.5" ry="3.5"/>
</g>
<!-- 4413&#45;&gt;4419 -->
<g id="edge34" class="edge">
<title>4413&#45;&gt;4419</title>
<path fill="none" stroke="#c0c0c0" d="M565.1354,-655.8156C570.1018,-650.8492 580.6168,-640.3342 588.4855,-632.4655"/>
<polygon fill="#c0c0c0" stroke="#c0c0c0" points="591.0011,-634.8997 595.5973,-625.3537 586.0513,-629.9499 591.0011,-634.8997"/>
</g>
<!-- 4415 -->
<g id="node38" class="node">
<title>4415</title>
<ellipse fill="#d3d3d3" stroke="#c0c0c0" cx="598.3105" cy="-550.6405" rx="22.6659" ry="22.6659"/>
<text text-anchor="middle" x="598.3105" y="-548.5405" font-family="Arial" font-size="7.00" fill="#000000">DMN</text>
</g>
<!-- 4418 -->
<g id="node41" class="node">
<title>4418</title>
<ellipse fill="#d3d3d3" stroke="#c0c0c0" cx="598.3105" cy="-694.6405" rx="3.5" ry="3.5"/>
</g>
<!-- 4417&#45;&gt;4418 -->
<g id="edge4" class="edge">
<title>4417&#45;&gt;4418</title>
<path fill="none" stroke="#c0c0c0" stroke-dasharray="5,2" d="M457.8701,-694.6405C477.7062,-694.6405 574.4328,-694.6405 594.6154,-694.6405"/>
<text text-anchor="middle" x="502.321" y="-696.7405" font-family="Arial" font-size="7.00" fill="#000000">Oude Waelweg</text>
</g>
<!-- 4418&#45;&gt;4419 -->
<g id="edge5" class="edge">
<title>4418&#45;&gt;4419</title>
<path fill="none" stroke="#c0c0c0" stroke-dasharray="5,2" d="M598.3105,-690.7694C598.3105,-678.151 598.3105,-638.3242 598.3105,-626.1864"/>
<text text-anchor="middle" x="582.7523" y="-668.9779" font-family="Arial" font-size="7.00" fill="#000000">Meerkoet </text>
<text text-anchor="middle" x="582.7523" y="-660.5779" font-family="Arial" font-size="7.00" fill="#000000"> Zeezigt</text>
</g>
<!-- 4419&#45;&gt;4415 -->
<g id="edge35" class="edge">
<title>4419&#45;&gt;4415</title>
<path fill="none" stroke="#c0c0c0" d="M598.3105,-618.7694C598.3105,-612.0659 598.3105,-597.6834 598.3105,-583.853"/>
<polygon fill="#c0c0c0" stroke="#c0c0c0" points="601.8106,-583.5206 598.3105,-573.5206 594.8106,-583.5207 601.8106,-583.5206"/>
<text text-anchor="middle" x="572.2586" y="-595.0112" font-family="Arial" font-size="7.00" fill="#000000">Meerkoet </text>
<text text-anchor="middle" x="572.2586" y="-586.6112" font-family="Arial" font-size="7.00" fill="#000000"> Fregat </text>
<text text-anchor="middle" x="572.2586" y="-578.2112" font-family="Arial" font-size="7.00" fill="#000000"> Hermelijnvlinder</text>
</g>
</g>
</svg>

