<?xml version="1.0" encoding="UTF-8" standalone="no"?>
<!DOCTYPE svg PUBLIC "-//W3C//DTD SVG 1.1//EN"
 "http://www.w3.org/Graphics/SVG/1.1/DTD/svg11.dtd">
<!-- Generated by graphviz version 2.40.1 (20161225.0304)
 -->
<!-- Title: G Pages: 1 -->
<svg width="629pt" height="728pt"
 viewBox="0.00 0.00 629.18 727.84" xmlns="http://www.w3.org/2000/svg" xmlns:xlink="http://www.w3.org/1999/xlink">
<g id="graph0" class="graph" transform="scale(1 1) rotate(0) translate(4 723.8355)">
<title>G</title>
<polygon fill="#ffffff" stroke="transparent" points="-4,4 -4,-723.8355 625.1755,-723.8355 625.1755,4 -4,4"/>
<text text-anchor="middle" x="310.5877" y="-13" font-family="Times,serif" font-size="6.00" fill="#000000">* Gebruik bij terugkomst de stippellijnwegen </text>
<text text-anchor="middle" x="310.5877" y="-5.8" font-family="Times,serif" font-size="6.00" fill="#000000"> ** Gebruik bij terugkomst afrit (1): Bijlmermeer</text>
<!-- 4900 -->
<g id="node1" class="node">
<title>4900</title>
<ellipse fill="#d3d3d3" stroke="#c0c0c0" cx="22.3155" cy="-334.6355" rx="22.1325" ry="22.1325"/>
<text text-anchor="middle" x="22.3155" y="-332.5355" font-family="Times,serif" font-size="7.00" fill="#000000">BMR</text>
</g>
<!-- 4901 -->
<g id="node2" class="node">
<title>4901</title>
<ellipse fill="#d3d3d3" stroke="#c0c0c0" cx="94.3155" cy="-334.6355" rx="3.5" ry="3.5"/>
</g>
<!-- 4900&#45;&gt;4901 -->
<g id="edge6" class="edge">
<title>4900&#45;&gt;4901</title>
<path fill="none" stroke="#c0c0c0" d="M44.7021,-334.6355C56.4413,-334.6355 70.4454,-334.6355 80.5771,-334.6355"/>
<polygon fill="#c0c0c0" stroke="#c0c0c0" points="80.6024,-338.1356 90.6023,-334.6355 80.6023,-331.1356 80.6024,-338.1356"/>
<text text-anchor="middle" x="73.3293" y="-328.3355" font-family="Times,serif" font-size="7.00" fill="#000000">Hoogoorddreef</text>
</g>
<!-- 4902 -->
<g id="node3" class="node">
<title>4902</title>
<ellipse fill="#d3d3d3" stroke="#c0c0c0" cx="94.3155" cy="-262.6355" rx="3.5" ry="3.5"/>
</g>
<!-- 4901&#45;&gt;4902 -->
<g id="edge7" class="edge">
<title>4901&#45;&gt;4902</title>
<path fill="none" stroke="#c0c0c0" d="M94.3155,-330.7645C94.3155,-320.7092 94.3155,-293.3763 94.3155,-276.5452"/>
<polygon fill="#c0c0c0" stroke="#c0c0c0" points="97.8156,-276.1814 94.3155,-266.1815 90.8156,-276.1815 97.8156,-276.1814"/>
<text text-anchor="middle" x="71.5672" y="-314.1548" font-family="Times,serif" font-size="7.00" fill="#000000">Foppingadreef </text>
<text text-anchor="middle" x="71.5672" y="-305.7548" font-family="Times,serif" font-size="7.00" fill="#000000"> (lijn 49, 360**)</text>
</g>
<!-- 6601 -->
<g id="node12" class="node">
<title>6601</title>
<ellipse fill="#d3d3d3" stroke="#c0c0c0" cx="94.3155" cy="-406.6355" rx="3.5" ry="3.5"/>
</g>
<!-- 4901&#45;&gt;6601 -->
<g id="edge19" class="edge">
<title>4901&#45;&gt;6601</title>
<path fill="none" stroke="#c0c0c0" d="M94.3155,-338.5066C94.3155,-348.5618 94.3155,-375.8947 94.3155,-392.7259"/>
<polygon fill="#c0c0c0" stroke="#c0c0c0" points="90.8156,-393.0896 94.3155,-403.0896 97.8156,-393.0896 90.8156,-393.0896"/>
<text text-anchor="middle" x="73.0309" y="-376.1162" font-family="Times,serif" font-size="7.00" fill="#000000">Foppingadreef </text>
<text text-anchor="middle" x="73.0309" y="-367.7162" font-family="Times,serif" font-size="7.00" fill="#000000"> (lijn 44*, 66)</text>
</g>
<!-- 4903 -->
<g id="node4" class="node">
<title>4903</title>
<ellipse fill="#d3d3d3" stroke="#c0c0c0" cx="166.3155" cy="-262.6355" rx="3.5" ry="3.5"/>
</g>
<!-- 4902&#45;&gt;4903 -->
<g id="edge8" class="edge">
<title>4902&#45;&gt;4903</title>
<path fill="none" stroke="#c0c0c0" d="M98.1865,-262.6355C108.2418,-262.6355 135.5747,-262.6355 152.4058,-262.6355"/>
<polygon fill="#c0c0c0" stroke="#c0c0c0" points="152.7696,-266.1356 162.7696,-262.6355 152.7695,-259.1356 152.7696,-266.1356"/>
<text text-anchor="middle" x="143.3667" y="-264.7355" font-family="Times,serif" font-size="7.00" fill="#000000">Karspeldreef</text>
</g>
<!-- 4904 -->
<g id="node5" class="node">
<title>4904</title>
<ellipse fill="#d3d3d3" stroke="#c0c0c0" cx="310.3155" cy="-262.6355" rx="3.5" ry="3.5"/>
</g>
<!-- 4903&#45;&gt;4904 -->
<g id="edge9" class="edge">
<title>4903&#45;&gt;4904</title>
<path fill="none" stroke="#c0c0c0" d="M169.8751,-262.6355C187.3866,-262.6355 264.8234,-262.6355 296.6183,-262.6355"/>
<polygon fill="#c0c0c0" stroke="#c0c0c0" points="296.6204,-266.1356 306.6203,-262.6355 296.6203,-259.1356 296.6204,-266.1356"/>
<text text-anchor="middle" x="214.3012" y="-273.1355" font-family="Times,serif" font-size="7.00" fill="#000000">Karspeldreef </text>
<text text-anchor="middle" x="214.3012" y="-264.7355" font-family="Times,serif" font-size="7.00" fill="#000000"> (lijn 49)</text>
</g>
<!-- 36001 -->
<g id="node22" class="node">
<title>36001</title>
<ellipse fill="#d3d3d3" stroke="#c0c0c0" cx="166.3155" cy="-190.6355" rx="3.5" ry="3.5"/>
</g>
<!-- 4903&#45;&gt;36001 -->
<g id="edge16" class="edge">
<title>4903&#45;&gt;36001</title>
<path fill="none" stroke="#c0c0c0" d="M166.3155,-258.7645C166.3155,-248.7092 166.3155,-221.3763 166.3155,-204.5452"/>
<polygon fill="#c0c0c0" stroke="#c0c0c0" points="169.8156,-204.1814 166.3155,-194.1815 162.8156,-204.1815 169.8156,-204.1814"/>
<text text-anchor="middle" x="149.6961" y="-242.1548" font-family="Times,serif" font-size="7.00" fill="#000000">Gooiseweg </text>
<text text-anchor="middle" x="149.6961" y="-233.7548" font-family="Times,serif" font-size="7.00" fill="#000000"> (lijn 360)</text>
</g>
<!-- 4905 -->
<g id="node6" class="node">
<title>4905</title>
<ellipse fill="#d3d3d3" stroke="#c0c0c0" cx="310.3155" cy="-190.6355" rx="3.5" ry="3.5"/>
</g>
<!-- 4904&#45;&gt;4905 -->
<g id="edge10" class="edge">
<title>4904&#45;&gt;4905</title>
<path fill="none" stroke="#c0c0c0" d="M310.3155,-258.7645C310.3155,-248.7092 310.3155,-221.3763 310.3155,-204.5452"/>
<polygon fill="#c0c0c0" stroke="#c0c0c0" points="313.8156,-204.1814 310.3155,-194.1815 306.8156,-204.1815 313.8156,-204.1814"/>
<text text-anchor="middle" x="288.7415" y="-233.7548" font-family="Times,serif" font-size="7.00" fill="#000000">Kromwijkdreef</text>
</g>
<!-- 4906 -->
<g id="node7" class="node">
<title>4906</title>
<ellipse fill="#d3d3d3" stroke="#c0c0c0" cx="310.3155" cy="-118.6355" rx="3.5" ry="3.5"/>
</g>
<!-- 4905&#45;&gt;4906 -->
<g id="edge11" class="edge">
<title>4905&#45;&gt;4906</title>
<path fill="none" stroke="#c0c0c0" d="M310.3155,-186.7645C310.3155,-176.7092 310.3155,-149.3763 310.3155,-132.5452"/>
<polygon fill="#c0c0c0" stroke="#c0c0c0" points="313.8156,-132.1814 310.3155,-122.1815 306.8156,-132.1815 313.8156,-132.1814"/>
<text text-anchor="middle" x="286.5085" y="-170.1548" font-family="Times,serif" font-size="7.00" fill="#000000">Loosdrechtdreef </text>
<text text-anchor="middle" x="286.5085" y="-161.7548" font-family="Times,serif" font-size="7.00" fill="#000000"> (lijn 49)</text>
</g>
<!-- 6607 -->
<g id="node18" class="node">
<title>6607</title>
<ellipse fill="#d3d3d3" stroke="#c0c0c0" cx="454.3155" cy="-190.6355" rx="3.5" ry="3.5"/>
</g>
<!-- 4905&#45;&gt;6607 -->
<g id="edge45" class="edge">
<title>4905&#45;&gt;6607</title>
<path fill="none" stroke="#c0c0c0" d="M313.8751,-190.6355C331.3866,-190.6355 408.8234,-190.6355 440.6183,-190.6355"/>
<polygon fill="#c0c0c0" stroke="#c0c0c0" points="440.6204,-194.1356 450.6203,-190.6355 440.6203,-187.1356 440.6204,-194.1356"/>
<text text-anchor="middle" x="354.4092" y="-217.9355" font-family="Times,serif" font-size="7.00" fill="#000000">[A9] </text>
<text text-anchor="middle" x="354.4092" y="-209.5355" font-family="Times,serif" font-size="7.00" fill="#000000"> [A1]: Zaanstad </text>
<text text-anchor="middle" x="354.4092" y="-201.1355" font-family="Times,serif" font-size="7.00" fill="#000000"> (1a): IJburg </text>
<text text-anchor="middle" x="354.4092" y="-192.7355" font-family="Times,serif" font-size="7.00" fill="#000000"> (lijn 360)</text>
</g>
<!-- 4907 -->
<g id="node8" class="node">
<title>4907</title>
<ellipse fill="#d3d3d3" stroke="#c0c0c0" cx="238.3155" cy="-118.6355" rx="3.5" ry="3.5"/>
</g>
<!-- 4906&#45;&gt;4907 -->
<g id="edge12" class="edge">
<title>4906&#45;&gt;4907</title>
<path fill="none" stroke="#c0c0c0" d="M306.4445,-118.6355C296.3892,-118.6355 269.0563,-118.6355 252.2251,-118.6355"/>
<polygon fill="#c0c0c0" stroke="#c0c0c0" points="251.8615,-115.1356 241.8614,-118.6355 251.8614,-122.1356 251.8615,-115.1356"/>
<text text-anchor="middle" x="279.3348" y="-112.3355" font-family="Times,serif" font-size="7.00" fill="#000000">Provincialeweg </text>
<text text-anchor="middle" x="279.3348" y="-103.9355" font-family="Times,serif" font-size="7.00" fill="#000000"> Gooilandseweg</text>
</g>
<!-- 4908 -->
<g id="node9" class="node">
<title>4908</title>
<ellipse fill="#d3d3d3" stroke="#c0c0c0" cx="238.3155" cy="-46.6355" rx="3.5" ry="3.5"/>
</g>
<!-- 4907&#45;&gt;4908 -->
<g id="edge13" class="edge">
<title>4907&#45;&gt;4908</title>
<path fill="none" stroke="#c0c0c0" d="M238.3155,-114.7645C238.3155,-104.7092 238.3155,-77.3763 238.3155,-60.5452"/>
<polygon fill="#c0c0c0" stroke="#c0c0c0" points="241.8156,-60.1814 238.3155,-50.1815 234.8156,-60.1815 241.8156,-60.1814"/>
<text text-anchor="middle" x="209.0586" y="-81.3548" font-family="Times,serif" font-size="7.00" fill="#000000">C.J. van Houtenlaan </text>
<text text-anchor="middle" x="209.0586" y="-72.9548" font-family="Times,serif" font-size="7.00" fill="#000000"> Prinses Irenelaan </text>
<text text-anchor="middle" x="209.0586" y="-64.5548" font-family="Times,serif" font-size="7.00" fill="#000000"> Casparuslaan</text>
</g>
<!-- 4909 -->
<g id="node10" class="node">
<title>4909</title>
<ellipse fill="#d3d3d3" stroke="#c0c0c0" cx="166.3155" cy="-46.6355" rx="3.5" ry="3.5"/>
</g>
<!-- 4908&#45;&gt;4909 -->
<g id="edge14" class="edge">
<title>4908&#45;&gt;4909</title>
<path fill="none" stroke="#c0c0c0" d="M234.4445,-46.6355C224.3892,-46.6355 197.0563,-46.6355 180.2251,-46.6355"/>
<polygon fill="#c0c0c0" stroke="#c0c0c0" points="179.8615,-43.1356 169.8614,-46.6355 179.8614,-50.1356 179.8615,-43.1356"/>
<text text-anchor="middle" x="189.5506" y="-40.3355" font-family="Times,serif" font-size="7.00" fill="#000000">Plataanlaan </text>
<text text-anchor="middle" x="189.5506" y="-31.9355" font-family="Times,serif" font-size="7.00" fill="#000000"> Herensingel</text>
</g>
<!-- 4910 -->
<g id="node11" class="node">
<title>4910</title>
<ellipse fill="#d3d3d3" stroke="#c0c0c0" cx="166.3155" cy="-118.6355" rx="21.4778" ry="21.4778"/>
<text text-anchor="middle" x="166.3155" y="-116.5355" font-family="Times,serif" font-size="7.00" fill="#000000">SWP</text>
</g>
<!-- 4909&#45;&gt;4910 -->
<g id="edge15" class="edge">
<title>4909&#45;&gt;4910</title>
<path fill="none" stroke="#c0c0c0" d="M166.3155,-50.5066C166.3155,-57.4638 166.3155,-72.6924 166.3155,-86.9908"/>
<polygon fill="#c0c0c0" stroke="#c0c0c0" points="162.8156,-87.1063 166.3155,-97.1063 169.8156,-87.1063 162.8156,-87.1063"/>
<text text-anchor="middle" x="143.283" y="-79.2487" font-family="Times,serif" font-size="7.00" fill="#000000">M. Nijfoffstraat </text>
<text text-anchor="middle" x="143.283" y="-70.8487" font-family="Times,serif" font-size="7.00" fill="#000000"> Herensingel</text>
</g>
<!-- 4401 -->
<g id="node25" class="node">
<title>4401</title>
<ellipse fill="#d3d3d3" stroke="#c0c0c0" cx="166.3155" cy="-406.6355" rx="3.5" ry="3.5"/>
</g>
<!-- 6601&#45;&gt;4401 -->
<g id="edge20" class="edge">
<title>6601&#45;&gt;4401</title>
<path fill="none" stroke="#c0c0c0" d="M98.1865,-406.6355C108.2418,-406.6355 135.5747,-406.6355 152.4058,-406.6355"/>
<polygon fill="#c0c0c0" stroke="#c0c0c0" points="152.7696,-410.1356 162.7696,-406.6355 152.7695,-403.1356 152.7696,-410.1356"/>
<text text-anchor="middle" x="143.1773" y="-408.7355" font-family="Times,serif" font-size="7.00" fill="#000000">Bijlmerdreef</text>
</g>
<!-- 6602 -->
<g id="node13" class="node">
<title>6602</title>
<ellipse fill="#d3d3d3" stroke="#c0c0c0" cx="238.3155" cy="-406.6355" rx="3.5" ry="3.5"/>
</g>
<!-- 6603 -->
<g id="node14" class="node">
<title>6603</title>
<ellipse fill="#d3d3d3" stroke="#c0c0c0" cx="238.3155" cy="-478.6355" rx="3.5" ry="3.5"/>
</g>
<!-- 6602&#45;&gt;6603 -->
<g id="edge36" class="edge">
<title>6602&#45;&gt;6603</title>
<path fill="none" stroke="#c0c0c0" d="M238.3155,-410.5066C238.3155,-420.5618 238.3155,-447.8947 238.3155,-464.7259"/>
<polygon fill="#c0c0c0" stroke="#c0c0c0" points="234.8156,-465.0896 238.3155,-475.0896 241.8156,-465.0896 234.8156,-465.0896"/>
<text text-anchor="middle" x="221.7955" y="-439.7162" font-family="Times,serif" font-size="7.00" fill="#000000">Elsrijkdreef</text>
</g>
<!-- 6604 -->
<g id="node15" class="node">
<title>6604</title>
<ellipse fill="#d3d3d3" stroke="#c0c0c0" cx="310.3155" cy="-478.6355" rx="3.5" ry="3.5"/>
</g>
<!-- 6603&#45;&gt;6604 -->
<g id="edge37" class="edge">
<title>6603&#45;&gt;6604</title>
<path fill="none" stroke="#c0c0c0" d="M242.1865,-478.6355C252.2418,-478.6355 279.5747,-478.6355 296.4058,-478.6355"/>
<polygon fill="#c0c0c0" stroke="#c0c0c0" points="296.7696,-482.1356 306.7696,-478.6355 296.7695,-475.1356 296.7696,-482.1356"/>
<text text-anchor="middle" x="280.1812" y="-472.3355" font-family="Times,serif" font-size="7.00" fill="#000000">Provincialeweg</text>
</g>
<!-- 6605 -->
<g id="node16" class="node">
<title>6605</title>
<ellipse fill="#d3d3d3" stroke="#c0c0c0" cx="310.3155" cy="-406.6355" rx="3.5" ry="3.5"/>
</g>
<!-- 6604&#45;&gt;6605 -->
<g id="edge38" class="edge">
<title>6604&#45;&gt;6605</title>
<path fill="none" stroke="#c0c0c0" d="M310.3155,-474.7645C310.3155,-464.7092 310.3155,-437.3763 310.3155,-420.5452"/>
<polygon fill="#c0c0c0" stroke="#c0c0c0" points="313.8156,-420.1814 310.3155,-410.1815 306.8156,-420.1815 313.8156,-420.1814"/>
<text text-anchor="middle" x="286.6037" y="-449.7548" font-family="Times,serif" font-size="7.00" fill="#000000">Muiderstraatweg</text>
</g>
<!-- 6606 -->
<g id="node17" class="node">
<title>6606</title>
<ellipse fill="#d3d3d3" stroke="#c0c0c0" cx="454.3155" cy="-406.6355" rx="3.5" ry="3.5"/>
</g>
<!-- 6605&#45;&gt;6606 -->
<g id="edge39" class="edge">
<title>6605&#45;&gt;6606</title>
<path fill="none" stroke="#c0c0c0" d="M313.8751,-406.6355C331.3866,-406.6355 408.8234,-406.6355 440.6183,-406.6355"/>
<polygon fill="#c0c0c0" stroke="#c0c0c0" points="440.6204,-410.1356 450.6203,-406.6355 440.6203,-403.1356 440.6204,-410.1356"/>
<text text-anchor="middle" x="358.395" y="-408.7355" font-family="Times,serif" font-size="7.00" fill="#000000">Weteringweg</text>
</g>
<!-- 6606&#45;&gt;6607 -->
<g id="edge40" class="edge">
<title>6606&#45;&gt;6607</title>
<path fill="none" stroke="#c0c0c0" d="M454.3155,-402.8864C454.3155,-378.9737 454.3155,-247.4062 454.3155,-204.3087"/>
<polygon fill="#c0c0c0" stroke="#c0c0c0" points="457.8156,-204.1544 454.3155,-194.1545 450.8156,-204.1545 457.8156,-204.1544"/>
<text text-anchor="middle" x="429.0493" y="-305.6976" font-family="Times,serif" font-size="7.00" fill="#000000">Diemerpolderweg</text>
</g>
<!-- 6608 -->
<g id="node19" class="node">
<title>6608</title>
<ellipse fill="#d3d3d3" stroke="#c0c0c0" cx="454.3155" cy="-46.6355" rx="3.5" ry="3.5"/>
</g>
<!-- 6607&#45;&gt;6608 -->
<g id="edge41" class="edge">
<title>6607&#45;&gt;6608</title>
<path fill="none" stroke="#c0c0c0" d="M454.3155,-187.0759C454.3155,-169.5644 454.3155,-92.1277 454.3155,-60.3327"/>
<polygon fill="#c0c0c0" stroke="#c0c0c0" points="457.8156,-60.3306 454.3155,-50.3307 450.8156,-60.3307 457.8156,-60.3306"/>
<text text-anchor="middle" x="425.1577" y="-142.6043" font-family="Times,serif" font-size="7.00" fill="#000000">Diemerpolderweg </text>
<text text-anchor="middle" x="425.1577" y="-134.2043" font-family="Times,serif" font-size="7.00" fill="#000000"> Fortdiemerdamweg </text>
<text text-anchor="middle" x="425.1577" y="-125.8043" font-family="Times,serif" font-size="7.00" fill="#000000"> Muiderlaan</text>
</g>
<!-- 6609 -->
<g id="node20" class="node">
<title>6609</title>
<ellipse fill="#d3d3d3" stroke="#c0c0c0" cx="526.3155" cy="-46.6355" rx="3.5" ry="3.5"/>
</g>
<!-- 6608&#45;&gt;6609 -->
<g id="edge43" class="edge">
<title>6608&#45;&gt;6609</title>
<path fill="none" stroke="#c0c0c0" d="M458.1865,-46.6355C468.2418,-46.6355 495.5747,-46.6355 512.4058,-46.6355"/>
<polygon fill="#c0c0c0" stroke="#c0c0c0" points="512.7696,-50.1356 522.7696,-46.6355 512.7695,-43.1356 512.7696,-50.1356"/>
<text text-anchor="middle" x="503.0842" y="-57.1355" font-family="Times,serif" font-size="7.00" fill="#000000">Pampuslaan </text>
<text text-anchor="middle" x="503.0842" y="-48.7355" font-family="Times,serif" font-size="7.00" fill="#000000"> (lijn 66)</text>
</g>
<!-- 36003 -->
<g id="node24" class="node">
<title>36003</title>
<ellipse fill="#d3d3d3" stroke="#c0c0c0" cx="382.3155" cy="-46.6355" rx="24.4733" ry="24.4733"/>
<text text-anchor="middle" x="382.3155" y="-44.5355" font-family="Times,serif" font-size="7.00" fill="#000000">BEDL</text>
</g>
<!-- 6608&#45;&gt;36003 -->
<g id="edge42" class="edge">
<title>6608&#45;&gt;36003</title>
<path fill="none" stroke="#c0c0c0" d="M450.4445,-46.6355C443.9271,-46.6355 430.1516,-46.6355 416.6816,-46.6355"/>
<polygon fill="#c0c0c0" stroke="#c0c0c0" points="416.566,-43.1356 406.566,-46.6355 416.5659,-50.1356 416.566,-43.1356"/>
<text text-anchor="middle" x="424.669" y="-40.3355" font-family="Times,serif" font-size="7.00" fill="#000000">Pampuslaan </text>
<text text-anchor="middle" x="424.669" y="-31.9355" font-family="Times,serif" font-size="7.00" fill="#000000"> (lijn 360)</text>
</g>
<!-- 6610 -->
<g id="node21" class="node">
<title>6610</title>
<ellipse fill="#d3d3d3" stroke="#c0c0c0" cx="598.3155" cy="-46.6355" rx="20.2807" ry="20.2807"/>
<text text-anchor="middle" x="598.3155" y="-44.5355" font-family="Times,serif" font-size="7.00" fill="#000000">VPS</text>
</g>
<!-- 6609&#45;&gt;6610 -->
<g id="edge44" class="edge">
<title>6609&#45;&gt;6610</title>
<path fill="none" stroke="#c0c0c0" d="M530.1865,-46.6355C537.2848,-46.6355 552.9932,-46.6355 567.5391,-46.6355"/>
<polygon fill="#c0c0c0" stroke="#c0c0c0" points="567.7856,-50.1356 577.7856,-46.6355 567.7855,-43.1356 567.7856,-50.1356"/>
<text text-anchor="middle" x="556.2485" y="-40.3355" font-family="Times,serif" font-size="7.00" fill="#000000">IJburglaan</text>
</g>
<!-- 36002 -->
<g id="node23" class="node">
<title>36002</title>
<ellipse fill="#d3d3d3" stroke="#c0c0c0" cx="238.3155" cy="-190.6355" rx="3.5" ry="3.5"/>
</g>
<!-- 36001&#45;&gt;36002 -->
<g id="edge17" class="edge">
<title>36001&#45;&gt;36002</title>
<path fill="none" stroke="#c0c0c0" d="M170.1865,-190.6355C180.2418,-190.6355 207.5747,-190.6355 224.4058,-190.6355"/>
<polygon fill="#c0c0c0" stroke="#c0c0c0" points="224.7696,-194.1356 234.7696,-190.6355 224.7695,-187.1356 224.7696,-194.1356"/>
<text text-anchor="middle" x="208.4703" y="-184.3355" font-family="Times,serif" font-size="7.00" fill="#000000">Langbroekdreef</text>
</g>
<!-- 36002&#45;&gt;4905 -->
<g id="edge18" class="edge">
<title>36002&#45;&gt;4905</title>
<path fill="none" stroke="#c0c0c0" d="M252.2849,-190.6355C265.0507,-190.6355 283.8214,-190.6355 296.5294,-190.6355"/>
<polygon fill="#c0c0c0" stroke="#c0c0c0" points="252.1866,-187.1356 242.1865,-190.6355 252.1865,-194.1356 252.1866,-187.1356"/>
<polygon fill="#c0c0c0" stroke="#c0c0c0" points="296.7696,-194.1356 306.7696,-190.6355 296.7695,-187.1356 296.7696,-194.1356"/>
<text text-anchor="middle" x="251.1839" y="-209.5355" font-family="Times,serif" font-size="7.00" fill="#000000">Langbroekdreef </text>
<text text-anchor="middle" x="251.1839" y="-201.1355" font-family="Times,serif" font-size="7.00" fill="#000000"> (lijn 49 via</text>
<text text-anchor="middle" x="251.1839" y="-192.7355" font-family="Times,serif" font-size="7.00" fill="#000000">St. Gaasperplas)</text>
</g>
<!-- 4401&#45;&gt;6602 -->
<g id="edge21" class="edge">
<title>4401&#45;&gt;6602</title>
<path fill="none" stroke="#c0c0c0" d="M170.1865,-406.6355C180.2418,-406.6355 207.5747,-406.6355 224.4058,-406.6355"/>
<polygon fill="#c0c0c0" stroke="#c0c0c0" points="224.7696,-410.1356 234.7696,-406.6355 224.7695,-403.1356 224.7696,-410.1356"/>
<text text-anchor="middle" x="216.0523" y="-417.1355" font-family="Times,serif" font-size="7.00" fill="#000000">Bijlmerdreef </text>
<text text-anchor="middle" x="216.0523" y="-408.7355" font-family="Times,serif" font-size="7.00" fill="#000000"> (lijn 66)</text>
</g>
<!-- 4402 -->
<g id="node26" class="node">
<title>4402</title>
<ellipse fill="#d3d3d3" stroke="#c0c0c0" cx="166.3155" cy="-550.6355" rx="3.5" ry="3.5"/>
</g>
<!-- 4401&#45;&gt;4402 -->
<g id="edge22" class="edge">
<title>4401&#45;&gt;4402</title>
<path fill="none" stroke="#c0c0c0" d="M166.3155,-410.1951C166.3155,-427.7066 166.3155,-505.1434 166.3155,-536.9383"/>
<polygon fill="#c0c0c0" stroke="#c0c0c0" points="162.8156,-536.9403 166.3155,-546.9404 169.8156,-536.9404 162.8156,-536.9403"/>
<text text-anchor="middle" x="146.9773" y="-484.0667" font-family="Times,serif" font-size="7.00" fill="#000000">Dolingadreef </text>
<text text-anchor="middle" x="146.9773" y="-475.6667" font-family="Times,serif" font-size="7.00" fill="#000000"> (lijn 44)</text>
</g>
<!-- 4403 -->
<g id="node27" class="node">
<title>4403</title>
<ellipse fill="#d3d3d3" stroke="#c0c0c0" cx="238.3155" cy="-550.6355" rx="3.5" ry="3.5"/>
</g>
<!-- 4402&#45;&gt;4403 -->
<g id="edge23" class="edge">
<title>4402&#45;&gt;4403</title>
<path fill="none" stroke="#c0c0c0" d="M170.1865,-550.6355C180.2418,-550.6355 207.5747,-550.6355 224.4058,-550.6355"/>
<polygon fill="#c0c0c0" stroke="#c0c0c0" points="224.7696,-554.1356 234.7696,-550.6355 224.7695,-547.1356 224.7696,-554.1356"/>
<text text-anchor="middle" x="207.3043" y="-544.3355" font-family="Times,serif" font-size="7.00" fill="#000000">Daalwijkdreef</text>
</g>
<!-- 4404 -->
<g id="node28" class="node">
<title>4404</title>
<ellipse fill="#d3d3d3" stroke="#c0c0c0" cx="238.3155" cy="-694.6355" rx="3.5" ry="3.5"/>
</g>
<!-- 4403&#45;&gt;4404 -->
<g id="edge24" class="edge">
<title>4403&#45;&gt;4404</title>
<path fill="none" stroke="#c0c0c0" d="M238.3155,-554.1951C238.3155,-571.7066 238.3155,-649.1434 238.3155,-680.9383"/>
<polygon fill="#c0c0c0" stroke="#c0c0c0" points="234.8156,-680.9403 238.3155,-690.9404 241.8156,-680.9404 234.8156,-680.9403"/>
<text text-anchor="middle" x="206.7255" y="-644.8667" font-family="Times,serif" font-size="7.00" fill="#000000">Bergwijkdreef </text>
<text text-anchor="middle" x="206.7255" y="-636.4667" font-family="Times,serif" font-size="7.00" fill="#000000"> Boven Rijkersloot </text>
<text text-anchor="middle" x="206.7255" y="-628.0667" font-family="Times,serif" font-size="7.00" fill="#000000"> Beneden R. </text>
<text text-anchor="middle" x="206.7255" y="-619.6667" font-family="Times,serif" font-size="7.00" fill="#000000"> (via St. Diemen Zuid)</text>
</g>
<!-- 4405 -->
<g id="node29" class="node">
<title>4405</title>
<ellipse fill="#d3d3d3" stroke="#c0c0c0" cx="310.3155" cy="-694.6355" rx="3.5" ry="3.5"/>
</g>
<!-- 4404&#45;&gt;4405 -->
<g id="edge25" class="edge">
<title>4404&#45;&gt;4405</title>
<path fill="none" stroke="#c0c0c0" d="M242.1865,-694.6355C252.2418,-694.6355 279.5747,-694.6355 296.4058,-694.6355"/>
<polygon fill="#c0c0c0" stroke="#c0c0c0" points="296.7696,-698.1356 306.7696,-694.6355 296.7695,-691.1356 296.7696,-698.1356"/>
<text text-anchor="middle" x="287.8616" y="-713.5355" font-family="Times,serif" font-size="7.00" fill="#000000">Beneden R. </text>
<text text-anchor="middle" x="287.8616" y="-705.1355" font-family="Times,serif" font-size="7.00" fill="#000000"> Boven R. </text>
<text text-anchor="middle" x="287.8616" y="-696.7355" font-family="Times,serif" font-size="7.00" fill="#000000"> Beukenhorst</text>
</g>
<!-- 4406 -->
<g id="node30" class="node">
<title>4406</title>
<ellipse fill="#d3d3d3" stroke="#c0c0c0" cx="310.3155" cy="-550.6355" rx="3.5" ry="3.5"/>
</g>
<!-- 4405&#45;&gt;4406 -->
<g id="edge26" class="edge">
<title>4405&#45;&gt;4406</title>
<path fill="none" stroke="#c0c0c0" d="M310.3155,-691.0759C310.3155,-673.5644 310.3155,-596.1277 310.3155,-564.3327"/>
<polygon fill="#c0c0c0" stroke="#c0c0c0" points="313.8156,-564.3306 310.3155,-554.3307 306.8156,-564.3307 313.8156,-564.3306"/>
<text text-anchor="middle" x="285.7287" y="-638.2043" font-family="Times,serif" font-size="7.00" fill="#000000">Hartveldseweg </text>
<text text-anchor="middle" x="285.7287" y="-629.8043" font-family="Times,serif" font-size="7.00" fill="#000000"> Muiderstraatweg</text>
</g>
<!-- 4416 -->
<g id="node39" class="node">
<title>4416</title>
<ellipse fill="#d3d3d3" stroke="#c0c0c0" cx="382.3155" cy="-694.6355" rx="3.5" ry="3.5"/>
</g>
<!-- 4405&#45;&gt;4416 -->
<g id="edge2" class="edge">
<title>4405&#45;&gt;4416</title>
<path fill="none" stroke="#c0c0c0" stroke-dasharray="5,2" d="M314.1865,-694.6355C326.8049,-694.6355 366.6318,-694.6355 378.7696,-694.6355"/>
<text text-anchor="middle" x="356.1958" y="-688.3355" font-family="Times,serif" font-size="7.00" fill="#000000">Burgemeester</text>
<text text-anchor="middle" x="356.1958" y="-679.9355" font-family="Times,serif" font-size="7.00" fill="#000000">Bickerstraat</text>
</g>
<!-- 4407 -->
<g id="node31" class="node">
<title>4407</title>
<ellipse fill="#d3d3d3" stroke="#c0c0c0" cx="382.3155" cy="-550.6355" rx="3.5" ry="3.5"/>
</g>
<!-- 4406&#45;&gt;4407 -->
<g id="edge27" class="edge">
<title>4406&#45;&gt;4407</title>
<path fill="none" stroke="#c0c0c0" d="M314.1865,-550.6355C324.2418,-550.6355 351.5747,-550.6355 368.4058,-550.6355"/>
<polygon fill="#c0c0c0" stroke="#c0c0c0" points="368.7696,-554.1356 378.7696,-550.6355 368.7695,-547.1356 368.7696,-554.1356"/>
<text text-anchor="middle" x="341.2962" y="-544.3355" font-family="Times,serif" font-size="7.00" fill="#000000">Prins Bernhardlaan</text>
</g>
<!-- 4408 -->
<g id="node32" class="node">
<title>4408</title>
<ellipse fill="#d3d3d3" stroke="#c0c0c0" cx="382.3155" cy="-622.6355" rx="3.5" ry="3.5"/>
</g>
<!-- 4407&#45;&gt;4408 -->
<g id="edge28" class="edge">
<title>4407&#45;&gt;4408</title>
<path fill="none" stroke="#c0c0c0" d="M382.3155,-554.5066C382.3155,-564.5618 382.3155,-591.8947 382.3155,-608.7259"/>
<polygon fill="#c0c0c0" stroke="#c0c0c0" points="378.8156,-609.0896 382.3155,-619.0896 385.8156,-609.0896 378.8156,-609.0896"/>
<text text-anchor="middle" x="355.1992" y="-583.7162" font-family="Times,serif" font-size="7.00" fill="#000000">Prinses Beatrixlaan</text>
</g>
<!-- 4409 -->
<g id="node33" class="node">
<title>4409</title>
<ellipse fill="#d3d3d3" stroke="#c0c0c0" cx="454.3155" cy="-622.6355" rx="3.5" ry="3.5"/>
</g>
<!-- 4408&#45;&gt;4409 -->
<g id="edge29" class="edge">
<title>4408&#45;&gt;4409</title>
<path fill="none" stroke="#c0c0c0" d="M386.1865,-622.6355C396.2418,-622.6355 423.5747,-622.6355 440.4058,-622.6355"/>
<polygon fill="#c0c0c0" stroke="#c0c0c0" points="440.7696,-626.1356 450.7696,-622.6355 440.7695,-619.1356 440.7696,-626.1356"/>
<text text-anchor="middle" x="425.3483" y="-616.3355" font-family="Times,serif" font-size="7.00" fill="#000000">Ouddiemerlaan</text>
<text text-anchor="middle" x="425.3483" y="-607.9355" font-family="Times,serif" font-size="7.00" fill="#000000"> (via St. Diemen)</text>
</g>
<!-- 4408&#45;&gt;4416 -->
<g id="edge1" class="edge">
<title>4408&#45;&gt;4416</title>
<path fill="none" stroke="#c0c0c0" stroke-dasharray="5,2" d="M382.3155,-626.5066C382.3155,-639.125 382.3155,-678.9518 382.3155,-691.0896"/>
<text text-anchor="middle" x="352.3775" y="-660.8981" font-family="Times,serif" font-size="7.00" fill="#000000">Wilhelminaplantsoen</text>
</g>
<!-- 4410 -->
<g id="node34" class="node">
<title>4410</title>
<ellipse fill="#d3d3d3" stroke="#c0c0c0" cx="454.3155" cy="-550.6355" rx="3.5" ry="3.5"/>
</g>
<!-- 4409&#45;&gt;4410 -->
<g id="edge30" class="edge">
<title>4409&#45;&gt;4410</title>
<path fill="none" stroke="#c0c0c0" d="M454.3155,-618.7645C454.3155,-608.7092 454.3155,-581.3763 454.3155,-564.5452"/>
<polygon fill="#c0c0c0" stroke="#c0c0c0" points="457.8156,-564.1814 454.3155,-554.1815 450.8156,-564.1815 457.8156,-564.1814"/>
<text text-anchor="middle" x="429.0493" y="-593.7548" font-family="Times,serif" font-size="7.00" fill="#000000">Diemerpolderweg</text>
</g>
<!-- 4417 -->
<g id="node40" class="node">
<title>4417</title>
<ellipse fill="#d3d3d3" stroke="#c0c0c0" cx="454.3155" cy="-694.6355" rx="3.5" ry="3.5"/>
</g>
<!-- 4409&#45;&gt;4417 -->
<g id="edge3" class="edge">
<title>4409&#45;&gt;4417</title>
<path fill="none" stroke="#c0c0c0" stroke-dasharray="5,2" d="M454.3155,-626.5066C454.3155,-639.125 454.3155,-678.9518 454.3155,-691.0896"/>
<text text-anchor="middle" x="438.3747" y="-660.8981" font-family="Times,serif" font-size="7.00" fill="#000000">Buytenweg</text>
</g>
<!-- 4411 -->
<g id="node35" class="node">
<title>4411</title>
<ellipse fill="#d3d3d3" stroke="#c0c0c0" cx="526.3155" cy="-550.6355" rx="3.5" ry="3.5"/>
</g>
<!-- 4410&#45;&gt;4411 -->
<g id="edge31" class="edge">
<title>4410&#45;&gt;4411</title>
<path fill="none" stroke="#c0c0c0" d="M458.1865,-550.6355C468.2418,-550.6355 495.5747,-550.6355 512.4058,-550.6355"/>
<polygon fill="#c0c0c0" stroke="#c0c0c0" points="512.7696,-554.1356 522.7696,-550.6355 512.7695,-547.1356 512.7696,-554.1356"/>
<text text-anchor="middle" x="499.6794" y="-552.7355" font-family="Times,serif" font-size="7.00" fill="#000000">Vogelweg</text>
</g>
<!-- 4412 -->
<g id="node36" class="node">
<title>4412</title>
<ellipse fill="#d3d3d3" stroke="#c0c0c0" cx="526.3155" cy="-622.6355" rx="3.5" ry="3.5"/>
</g>
<!-- 4411&#45;&gt;4412 -->
<g id="edge32" class="edge">
<title>4411&#45;&gt;4412</title>
<path fill="none" stroke="#c0c0c0" d="M526.3155,-554.5066C526.3155,-564.5618 526.3155,-591.8947 526.3155,-608.7259"/>
<polygon fill="#c0c0c0" stroke="#c0c0c0" points="522.8156,-609.0896 526.3155,-619.0896 529.8156,-609.0896 522.8156,-609.0896"/>
<text text-anchor="middle" x="508.2404" y="-583.7162" font-family="Times,serif" font-size="7.00" fill="#000000">Tureluurweg</text>
</g>
<!-- 4413 -->
<g id="node37" class="node">
<title>4413</title>
<ellipse fill="#d3d3d3" stroke="#c0c0c0" cx="562.3155" cy="-658.6355" rx="3.5" ry="3.5"/>
</g>
<!-- 4412&#45;&gt;4413 -->
<g id="edge33" class="edge">
<title>4412&#45;&gt;4413</title>
<path fill="none" stroke="#c0c0c0" d="M529.1404,-625.4604C534.1068,-630.4268 544.6218,-640.9418 552.4904,-648.8104"/>
<polygon fill="#c0c0c0" stroke="#c0c0c0" points="550.0563,-651.3261 559.6023,-655.9223 555.0061,-646.3763 550.0563,-651.3261"/>
<text text-anchor="middle" x="519.8259" y="-639.2354" font-family="Times,serif" font-size="7.00" fill="#000000">Rietzangerweg</text>
</g>
<!-- 4419 -->
<g id="node42" class="node">
<title>4419</title>
<ellipse fill="#d3d3d3" stroke="#c0c0c0" cx="598.3155" cy="-622.6355" rx="3.5" ry="3.5"/>
</g>
<!-- 4413&#45;&gt;4419 -->
<g id="edge34" class="edge">
<title>4413&#45;&gt;4419</title>
<path fill="none" stroke="#c0c0c0" d="M565.1404,-655.8107C570.1068,-650.8442 580.6218,-640.3292 588.4904,-632.4606"/>
<polygon fill="#c0c0c0" stroke="#c0c0c0" points="591.0061,-634.8947 595.6023,-625.3487 586.0563,-629.945 591.0061,-634.8947"/>
</g>
<!-- 4415 -->
<g id="node38" class="node">
<title>4415</title>
<ellipse fill="#d3d3d3" stroke="#c0c0c0" cx="598.3155" cy="-550.6355" rx="22.7208" ry="22.7208"/>
<text text-anchor="middle" x="598.3155" y="-548.5355" font-family="Times,serif" font-size="7.00" fill="#000000">DMN</text>
</g>
<!-- 4418 -->
<g id="node41" class="node">
<title>4418</title>
<ellipse fill="#d3d3d3" stroke="#c0c0c0" cx="598.3155" cy="-694.6355" rx="3.5" ry="3.5"/>
</g>
<!-- 4417&#45;&gt;4418 -->
<g id="edge4" class="edge">
<title>4417&#45;&gt;4418</title>
<path fill="none" stroke="#c0c0c0" stroke-dasharray="5,2" d="M457.8751,-694.6355C477.7111,-694.6355 574.4377,-694.6355 594.6203,-694.6355"/>
<text text-anchor="middle" x="504.5785" y="-696.7355" font-family="Times,serif" font-size="7.00" fill="#000000">Oude Waelweg</text>
</g>
<!-- 4418&#45;&gt;4419 -->
<g id="edge5" class="edge">
<title>4418&#45;&gt;4419</title>
<path fill="none" stroke="#c0c0c0" stroke-dasharray="5,2" d="M598.3155,-690.7645C598.3155,-678.1461 598.3155,-638.3193 598.3155,-626.1815"/>
<text text-anchor="middle" x="584.0306" y="-668.973" font-family="Times,serif" font-size="7.00" fill="#000000">Meerkoet </text>
<text text-anchor="middle" x="584.0306" y="-660.573" font-family="Times,serif" font-size="7.00" fill="#000000"> Zeezigt</text>
</g>
<!-- 4419&#45;&gt;4415 -->
<g id="edge35" class="edge">
<title>4419&#45;&gt;4415</title>
<path fill="none" stroke="#c0c0c0" d="M598.3155,-618.7645C598.3155,-612.061 598.3155,-597.6785 598.3155,-583.848"/>
<polygon fill="#c0c0c0" stroke="#c0c0c0" points="601.8156,-583.5157 598.3155,-573.5157 594.8156,-583.5157 601.8156,-583.5157"/>
<text text-anchor="middle" x="573.3367" y="-595.0063" font-family="Times,serif" font-size="7.00" fill="#000000">Meerkoet </text>
<text text-anchor="middle" x="573.3367" y="-586.6063" font-family="Times,serif" font-size="7.00" fill="#000000"> Fregat </text>
<text text-anchor="middle" x="573.3367" y="-578.2063" font-family="Times,serif" font-size="7.00" fill="#000000"> Hermelijnvlinder</text>
</g>
</g>
</svg>

