<?xml version="1.0" encoding="UTF-8" standalone="no"?>
<!DOCTYPE svg PUBLIC "-//W3C//DTD SVG 1.1//EN"
 "http://www.w3.org/Graphics/SVG/1.1/DTD/svg11.dtd">
<!-- Generated by graphviz version 2.40.1 (20161225.0304)
 -->
<!-- Title: G Pages: 1 -->
<svg width="555pt" height="468pt"
 viewBox="0.00 0.00 554.71 467.74" xmlns="http://www.w3.org/2000/svg" xmlns:xlink="http://www.w3.org/1999/xlink">
<g id="graph0" class="graph" transform="scale(1 1) rotate(0) translate(4 463.7355)">
<title>G</title>
<polygon fill="#ffffff" stroke="transparent" points="-4,4 -4,-463.7355 550.7056,-463.7355 550.7056,4 -4,4"/>
<!-- 4900 -->
<g id="node1" class="node">
<title>4900</title>
<ellipse fill="#d3d3d3" stroke="#c0c0c0" cx="22.3155" cy="-312.2355" rx="22.1325" ry="22.1325"/>
<text text-anchor="middle" x="22.3155" y="-310.1355" font-family="Times,serif" font-size="7.00" fill="#000000">BMR</text>
</g>
<!-- 4901 -->
<g id="node2" class="node">
<title>4901</title>
<ellipse fill="#d3d3d3" stroke="#c0c0c0" cx="94.3155" cy="-312.2355" rx="3.5" ry="3.5"/>
</g>
<!-- 4900&#45;&gt;4901 -->
<g id="edge1" class="edge">
<title>4900&#45;&gt;4901</title>
<path fill="none" stroke="#c0c0c0" d="M44.7021,-312.2355C56.4413,-312.2355 70.4454,-312.2355 80.5771,-312.2355"/>
<polygon fill="#c0c0c0" stroke="#c0c0c0" points="80.6024,-315.7356 90.6024,-312.2355 80.6023,-308.7356 80.6024,-315.7356"/>
<text text-anchor="middle" x="73.3293" y="-305.9355" font-family="Times,serif" font-size="7.00" fill="#000000">Hoogoorddreef</text>
</g>
<!-- 4902 -->
<g id="node3" class="node">
<title>4902</title>
<ellipse fill="#d3d3d3" stroke="#c0c0c0" cx="94.3155" cy="-240.2355" rx="3.5" ry="3.5"/>
</g>
<!-- 4901&#45;&gt;4902 -->
<g id="edge2" class="edge">
<title>4901&#45;&gt;4902</title>
<path fill="none" stroke="#c0c0c0" d="M94.3155,-308.3645C94.3155,-298.3092 94.3155,-270.9763 94.3155,-254.1452"/>
<polygon fill="#c0c0c0" stroke="#c0c0c0" points="97.8156,-253.7814 94.3155,-243.7815 90.8156,-253.7815 97.8156,-253.7814"/>
<text text-anchor="middle" x="73.031" y="-291.7548" font-family="Times,serif" font-size="7.00" fill="#000000">Foppingadreef </text>
<text text-anchor="middle" x="73.031" y="-283.3548" font-family="Times,serif" font-size="7.00" fill="#000000"> (lijn 49, 360)</text>
</g>
<!-- 6601 -->
<g id="node12" class="node">
<title>6601</title>
<ellipse fill="#d3d3d3" stroke="#c0c0c0" cx="94.3155" cy="-384.2355" rx="3.5" ry="3.5"/>
</g>
<!-- 4901&#45;&gt;6601 -->
<g id="edge14" class="edge">
<title>4901&#45;&gt;6601</title>
<path fill="none" stroke="#c0c0c0" d="M94.3155,-316.1066C94.3155,-326.1618 94.3155,-353.4947 94.3155,-370.3259"/>
<polygon fill="#c0c0c0" stroke="#c0c0c0" points="90.8156,-370.6896 94.3155,-380.6896 97.8156,-370.6896 90.8156,-370.6896"/>
<text text-anchor="middle" x="73.031" y="-353.7162" font-family="Times,serif" font-size="7.00" fill="#000000">Foppingadreef </text>
<text text-anchor="middle" x="73.031" y="-345.3162" font-family="Times,serif" font-size="7.00" fill="#000000"> (lijn 66)</text>
</g>
<!-- 4903 -->
<g id="node4" class="node">
<title>4903</title>
<ellipse fill="#d3d3d3" stroke="#c0c0c0" cx="166.3155" cy="-240.2355" rx="3.5" ry="3.5"/>
</g>
<!-- 4902&#45;&gt;4903 -->
<g id="edge3" class="edge">
<title>4902&#45;&gt;4903</title>
<path fill="none" stroke="#c0c0c0" d="M98.1865,-240.2355C108.2418,-240.2355 135.5747,-240.2355 152.4059,-240.2355"/>
<polygon fill="#c0c0c0" stroke="#c0c0c0" points="152.7695,-243.7354 162.7696,-240.2355 152.7696,-236.7354 152.7695,-243.7354"/>
<text text-anchor="middle" x="143.3667" y="-242.3355" font-family="Times,serif" font-size="7.00" fill="#000000">Karspeldreef</text>
</g>
<!-- 4904 -->
<g id="node5" class="node">
<title>4904</title>
<ellipse fill="#d3d3d3" stroke="#c0c0c0" cx="310.3155" cy="-240.2355" rx="3.5" ry="3.5"/>
</g>
<!-- 4903&#45;&gt;4904 -->
<g id="edge4" class="edge">
<title>4903&#45;&gt;4904</title>
<path fill="none" stroke="#c0c0c0" d="M169.8751,-240.2355C187.3866,-240.2355 264.8234,-240.2355 296.6183,-240.2355"/>
<polygon fill="#c0c0c0" stroke="#c0c0c0" points="296.6204,-243.7356 306.6204,-240.2355 296.6203,-236.7356 296.6204,-243.7356"/>
<text text-anchor="middle" x="214.3012" y="-250.7355" font-family="Times,serif" font-size="7.00" fill="#000000">Karspeldreef </text>
<text text-anchor="middle" x="214.3012" y="-242.3355" font-family="Times,serif" font-size="7.00" fill="#000000"> (lijn 49)</text>
</g>
<!-- 36001 -->
<g id="node22" class="node">
<title>36001</title>
<ellipse fill="#d3d3d3" stroke="#c0c0c0" cx="166.3155" cy="-168.2355" rx="3.5" ry="3.5"/>
</g>
<!-- 4903&#45;&gt;36001 -->
<g id="edge11" class="edge">
<title>4903&#45;&gt;36001</title>
<path fill="none" stroke="#c0c0c0" d="M166.3155,-236.3645C166.3155,-226.3092 166.3155,-198.9763 166.3155,-182.1452"/>
<polygon fill="#c0c0c0" stroke="#c0c0c0" points="169.8156,-181.7814 166.3155,-171.7815 162.8156,-181.7815 169.8156,-181.7814"/>
<text text-anchor="middle" x="149.6961" y="-219.7548" font-family="Times,serif" font-size="7.00" fill="#000000">Gooiseweg </text>
<text text-anchor="middle" x="149.6961" y="-211.3548" font-family="Times,serif" font-size="7.00" fill="#000000"> (lijn 360)</text>
</g>
<!-- 4905 -->
<g id="node6" class="node">
<title>4905</title>
<ellipse fill="#d3d3d3" stroke="#c0c0c0" cx="310.3155" cy="-168.2355" rx="3.5" ry="3.5"/>
</g>
<!-- 4904&#45;&gt;4905 -->
<g id="edge5" class="edge">
<title>4904&#45;&gt;4905</title>
<path fill="none" stroke="#c0c0c0" d="M310.3155,-236.3645C310.3155,-226.3092 310.3155,-198.9763 310.3155,-182.1452"/>
<polygon fill="#c0c0c0" stroke="#c0c0c0" points="313.8156,-181.7814 310.3155,-171.7815 306.8156,-181.7815 313.8156,-181.7814"/>
<text text-anchor="middle" x="288.7415" y="-211.3548" font-family="Times,serif" font-size="7.00" fill="#000000">Kromwijkdreef</text>
</g>
<!-- 4906 -->
<g id="node7" class="node">
<title>4906</title>
<ellipse fill="#d3d3d3" stroke="#c0c0c0" cx="310.3155" cy="-96.2355" rx="3.5" ry="3.5"/>
</g>
<!-- 4905&#45;&gt;4906 -->
<g id="edge6" class="edge">
<title>4905&#45;&gt;4906</title>
<path fill="none" stroke="#c0c0c0" d="M310.3155,-164.3645C310.3155,-154.3092 310.3155,-126.9763 310.3155,-110.1452"/>
<polygon fill="#c0c0c0" stroke="#c0c0c0" points="313.8156,-109.7814 310.3155,-99.7815 306.8156,-109.7815 313.8156,-109.7814"/>
<text text-anchor="middle" x="286.5085" y="-147.7548" font-family="Times,serif" font-size="7.00" fill="#000000">Loosdrechtdreef </text>
<text text-anchor="middle" x="286.5085" y="-139.3548" font-family="Times,serif" font-size="7.00" fill="#000000"> (lijn 49)</text>
</g>
<!-- 6607 -->
<g id="node18" class="node">
<title>6607</title>
<ellipse fill="#d3d3d3" stroke="#c0c0c0" cx="382.3155" cy="-168.2355" rx="3.5" ry="3.5"/>
</g>
<!-- 4905&#45;&gt;6607 -->
<g id="edge25" class="edge">
<title>4905&#45;&gt;6607</title>
<path fill="none" stroke="#c0c0c0" d="M314.1865,-168.2355C324.2418,-168.2355 351.5747,-168.2355 368.4059,-168.2355"/>
<polygon fill="#c0c0c0" stroke="#c0c0c0" points="368.7695,-171.7354 378.7696,-168.2355 368.7696,-164.7354 368.7695,-171.7354"/>
<text text-anchor="middle" x="327.298" y="-195.5355" font-family="Times,serif" font-size="7.00" fill="#000000">A9 </text>
<text text-anchor="middle" x="327.298" y="-187.1355" font-family="Times,serif" font-size="7.00" fill="#000000"> A1 </text>
<text text-anchor="middle" x="327.298" y="-178.7355" font-family="Times,serif" font-size="7.00" fill="#000000"> Afrit 1a </text>
<text text-anchor="middle" x="327.298" y="-170.3355" font-family="Times,serif" font-size="7.00" fill="#000000"> (lijn 360)</text>
</g>
<!-- 4907 -->
<g id="node8" class="node">
<title>4907</title>
<ellipse fill="#d3d3d3" stroke="#c0c0c0" cx="238.3155" cy="-96.2355" rx="3.5" ry="3.5"/>
</g>
<!-- 4906&#45;&gt;4907 -->
<g id="edge7" class="edge">
<title>4906&#45;&gt;4907</title>
<path fill="none" stroke="#c0c0c0" d="M306.4445,-96.2355C296.3892,-96.2355 269.0563,-96.2355 252.2252,-96.2355"/>
<polygon fill="#c0c0c0" stroke="#c0c0c0" points="251.8615,-92.7356 241.8614,-96.2355 251.8614,-99.7356 251.8615,-92.7356"/>
<text text-anchor="middle" x="279.3348" y="-89.9355" font-family="Times,serif" font-size="7.00" fill="#000000">Provincialeweg </text>
<text text-anchor="middle" x="279.3348" y="-81.5355" font-family="Times,serif" font-size="7.00" fill="#000000"> Gooilandseweg</text>
</g>
<!-- 4908 -->
<g id="node9" class="node">
<title>4908</title>
<ellipse fill="#d3d3d3" stroke="#c0c0c0" cx="238.3155" cy="-24.2355" rx="3.5" ry="3.5"/>
</g>
<!-- 4907&#45;&gt;4908 -->
<g id="edge8" class="edge">
<title>4907&#45;&gt;4908</title>
<path fill="none" stroke="#c0c0c0" d="M238.3155,-92.3645C238.3155,-82.3092 238.3155,-54.9763 238.3155,-38.1452"/>
<polygon fill="#c0c0c0" stroke="#c0c0c0" points="241.8156,-37.7814 238.3155,-27.7815 234.8156,-37.7815 241.8156,-37.7814"/>
<text text-anchor="middle" x="209.0587" y="-58.9548" font-family="Times,serif" font-size="7.00" fill="#000000">C.J. van Houtenlaan </text>
<text text-anchor="middle" x="209.0587" y="-50.5548" font-family="Times,serif" font-size="7.00" fill="#000000"> Prinses Irenelaan </text>
<text text-anchor="middle" x="209.0587" y="-42.1548" font-family="Times,serif" font-size="7.00" fill="#000000"> Casparuslaan</text>
</g>
<!-- 4909 -->
<g id="node10" class="node">
<title>4909</title>
<ellipse fill="#d3d3d3" stroke="#c0c0c0" cx="166.3155" cy="-24.2355" rx="3.5" ry="3.5"/>
</g>
<!-- 4908&#45;&gt;4909 -->
<g id="edge9" class="edge">
<title>4908&#45;&gt;4909</title>
<path fill="none" stroke="#c0c0c0" d="M234.4445,-24.2355C224.3892,-24.2355 197.0563,-24.2355 180.2252,-24.2355"/>
<polygon fill="#c0c0c0" stroke="#c0c0c0" points="179.8615,-20.7356 169.8614,-24.2355 179.8614,-27.7356 179.8615,-20.7356"/>
<text text-anchor="middle" x="189.5506" y="-17.9355" font-family="Times,serif" font-size="7.00" fill="#000000">Plataanlaan </text>
<text text-anchor="middle" x="189.5506" y="-9.5355" font-family="Times,serif" font-size="7.00" fill="#000000"> Herensingel</text>
</g>
<!-- 4910 -->
<g id="node11" class="node">
<title>4910</title>
<ellipse fill="#d3d3d3" stroke="#c0c0c0" cx="166.3155" cy="-96.2355" rx="21.4778" ry="21.4778"/>
<text text-anchor="middle" x="166.3155" y="-94.1355" font-family="Times,serif" font-size="7.00" fill="#000000">SWP</text>
</g>
<!-- 4909&#45;&gt;4910 -->
<g id="edge10" class="edge">
<title>4909&#45;&gt;4910</title>
<path fill="none" stroke="#c0c0c0" d="M166.3155,-28.1066C166.3155,-35.0638 166.3155,-50.2924 166.3155,-64.5908"/>
<polygon fill="#c0c0c0" stroke="#c0c0c0" points="162.8156,-64.7063 166.3155,-74.7063 169.8156,-64.7063 162.8156,-64.7063"/>
<text text-anchor="middle" x="143.2831" y="-56.8487" font-family="Times,serif" font-size="7.00" fill="#000000">M. Nijfoffstraat </text>
<text text-anchor="middle" x="143.2831" y="-48.4487" font-family="Times,serif" font-size="7.00" fill="#000000"> Herensingel</text>
</g>
<!-- 6602 -->
<g id="node13" class="node">
<title>6602</title>
<ellipse fill="#d3d3d3" stroke="#c0c0c0" cx="238.3155" cy="-384.2355" rx="3.5" ry="3.5"/>
</g>
<!-- 6601&#45;&gt;6602 -->
<g id="edge15" class="edge">
<title>6601&#45;&gt;6602</title>
<path fill="none" stroke="#c0c0c0" d="M97.8751,-384.2355C115.3866,-384.2355 192.8234,-384.2355 224.6183,-384.2355"/>
<polygon fill="#c0c0c0" stroke="#c0c0c0" points="224.6204,-387.7356 234.6204,-384.2355 224.6203,-380.7356 224.6204,-387.7356"/>
<text text-anchor="middle" x="143.3655" y="-386.3355" font-family="Times,serif" font-size="7.00" fill="#000000">Bijlmerdreef</text>
</g>
<!-- 6603 -->
<g id="node14" class="node">
<title>6603</title>
<ellipse fill="#d3d3d3" stroke="#c0c0c0" cx="238.3155" cy="-456.2355" rx="3.5" ry="3.5"/>
</g>
<!-- 6602&#45;&gt;6603 -->
<g id="edge16" class="edge">
<title>6602&#45;&gt;6603</title>
<path fill="none" stroke="#c0c0c0" d="M238.3155,-388.1066C238.3155,-398.1618 238.3155,-425.4947 238.3155,-442.3259"/>
<polygon fill="#c0c0c0" stroke="#c0c0c0" points="234.8156,-442.6896 238.3155,-452.6896 241.8156,-442.6896 234.8156,-442.6896"/>
<text text-anchor="middle" x="221.7955" y="-417.3162" font-family="Times,serif" font-size="7.00" fill="#000000">Elsrijkdreef</text>
</g>
<!-- 6604 -->
<g id="node15" class="node">
<title>6604</title>
<ellipse fill="#d3d3d3" stroke="#c0c0c0" cx="310.3155" cy="-456.2355" rx="3.5" ry="3.5"/>
</g>
<!-- 6603&#45;&gt;6604 -->
<g id="edge17" class="edge">
<title>6603&#45;&gt;6604</title>
<path fill="none" stroke="#c0c0c0" d="M242.1865,-456.2355C252.2418,-456.2355 279.5747,-456.2355 296.4059,-456.2355"/>
<polygon fill="#c0c0c0" stroke="#c0c0c0" points="296.7696,-459.7356 306.7696,-456.2355 296.7695,-452.7356 296.7696,-459.7356"/>
<text text-anchor="middle" x="280.1812" y="-449.9355" font-family="Times,serif" font-size="7.00" fill="#000000">Provincialeweg</text>
</g>
<!-- 6605 -->
<g id="node16" class="node">
<title>6605</title>
<ellipse fill="#d3d3d3" stroke="#c0c0c0" cx="310.3155" cy="-384.2355" rx="3.5" ry="3.5"/>
</g>
<!-- 6604&#45;&gt;6605 -->
<g id="edge18" class="edge">
<title>6604&#45;&gt;6605</title>
<path fill="none" stroke="#c0c0c0" d="M310.3155,-452.3645C310.3155,-442.3092 310.3155,-414.9763 310.3155,-398.1452"/>
<polygon fill="#c0c0c0" stroke="#c0c0c0" points="313.8156,-397.7814 310.3155,-387.7815 306.8156,-397.7815 313.8156,-397.7814"/>
<text text-anchor="middle" x="286.6037" y="-427.3548" font-family="Times,serif" font-size="7.00" fill="#000000">Muiderstraatweg</text>
</g>
<!-- 6606 -->
<g id="node17" class="node">
<title>6606</title>
<ellipse fill="#d3d3d3" stroke="#c0c0c0" cx="382.3155" cy="-384.2355" rx="3.5" ry="3.5"/>
</g>
<!-- 6605&#45;&gt;6606 -->
<g id="edge19" class="edge">
<title>6605&#45;&gt;6606</title>
<path fill="none" stroke="#c0c0c0" d="M314.1865,-384.2355C324.2418,-384.2355 351.5747,-384.2355 368.4059,-384.2355"/>
<polygon fill="#c0c0c0" stroke="#c0c0c0" points="368.7696,-387.7356 378.7696,-384.2355 368.7695,-380.7356 368.7696,-387.7356"/>
<text text-anchor="middle" x="360.1479" y="-386.3355" font-family="Times,serif" font-size="7.00" fill="#000000">Weteringweg</text>
</g>
<!-- 6606&#45;&gt;6607 -->
<g id="edge20" class="edge">
<title>6606&#45;&gt;6607</title>
<path fill="none" stroke="#c0c0c0" d="M382.3155,-380.4864C382.3155,-356.5737 382.3155,-225.0062 382.3155,-181.9087"/>
<polygon fill="#c0c0c0" stroke="#c0c0c0" points="385.8156,-181.7544 382.3155,-171.7545 378.8156,-181.7545 385.8156,-181.7544"/>
<text text-anchor="middle" x="357.0494" y="-283.2976" font-family="Times,serif" font-size="7.00" fill="#000000">Diemerpolderweg</text>
</g>
<!-- 6608 -->
<g id="node19" class="node">
<title>6608</title>
<ellipse fill="#d3d3d3" stroke="#c0c0c0" cx="382.3155" cy="-24.2355" rx="3.5" ry="3.5"/>
</g>
<!-- 6607&#45;&gt;6608 -->
<g id="edge21" class="edge">
<title>6607&#45;&gt;6608</title>
<path fill="none" stroke="#c0c0c0" d="M382.3155,-164.6759C382.3155,-147.1644 382.3155,-69.7277 382.3155,-37.9327"/>
<polygon fill="#c0c0c0" stroke="#c0c0c0" points="385.8156,-37.9306 382.3155,-27.9307 378.8156,-37.9307 385.8156,-37.9306"/>
<text text-anchor="middle" x="353.1577" y="-120.2043" font-family="Times,serif" font-size="7.00" fill="#000000">Diemerpolderweg </text>
<text text-anchor="middle" x="353.1577" y="-111.8043" font-family="Times,serif" font-size="7.00" fill="#000000"> Fortdiemerdamweg </text>
<text text-anchor="middle" x="353.1577" y="-103.4043" font-family="Times,serif" font-size="7.00" fill="#000000"> Muiderlaan</text>
</g>
<!-- 6609 -->
<g id="node20" class="node">
<title>6609</title>
<ellipse fill="#d3d3d3" stroke="#c0c0c0" cx="454.3155" cy="-24.2355" rx="3.5" ry="3.5"/>
</g>
<!-- 6608&#45;&gt;6609 -->
<g id="edge23" class="edge">
<title>6608&#45;&gt;6609</title>
<path fill="none" stroke="#c0c0c0" d="M386.1865,-24.2355C396.2418,-24.2355 423.5747,-24.2355 440.4059,-24.2355"/>
<polygon fill="#c0c0c0" stroke="#c0c0c0" points="440.7696,-27.7356 450.7696,-24.2355 440.7695,-20.7356 440.7696,-27.7356"/>
<text text-anchor="middle" x="431.0843" y="-34.7355" font-family="Times,serif" font-size="7.00" fill="#000000">Pampuslaan </text>
<text text-anchor="middle" x="431.0843" y="-26.3355" font-family="Times,serif" font-size="7.00" fill="#000000"> (lijn 66)</text>
</g>
<!-- 36003 -->
<g id="node24" class="node">
<title>36003</title>
<ellipse fill="#d3d3d3" stroke="#c0c0c0" cx="310.3155" cy="-24.2355" rx="24.4733" ry="24.4733"/>
<text text-anchor="middle" x="310.3155" y="-22.1355" font-family="Times,serif" font-size="7.00" fill="#000000">BEDL</text>
</g>
<!-- 6608&#45;&gt;36003 -->
<g id="edge22" class="edge">
<title>6608&#45;&gt;36003</title>
<path fill="none" stroke="#c0c0c0" d="M378.4445,-24.2355C371.9272,-24.2355 358.1516,-24.2355 344.6817,-24.2355"/>
<polygon fill="#c0c0c0" stroke="#c0c0c0" points="344.566,-20.7356 334.566,-24.2355 344.5659,-27.7356 344.566,-20.7356"/>
<text text-anchor="middle" x="352.669" y="-17.9355" font-family="Times,serif" font-size="7.00" fill="#000000">Pampuslaan </text>
<text text-anchor="middle" x="352.669" y="-9.5355" font-family="Times,serif" font-size="7.00" fill="#000000"> (lijn 360)</text>
</g>
<!-- 6610 -->
<g id="node21" class="node">
<title>6610</title>
<ellipse fill="#d3d3d3" stroke="#c0c0c0" cx="526.3155" cy="-24.2355" rx="20.2807" ry="20.2807"/>
<text text-anchor="middle" x="526.3155" y="-22.1355" font-family="Times,serif" font-size="7.00" fill="#000000">VPS</text>
</g>
<!-- 6609&#45;&gt;6610 -->
<g id="edge24" class="edge">
<title>6609&#45;&gt;6610</title>
<path fill="none" stroke="#c0c0c0" d="M458.1865,-24.2355C465.2849,-24.2355 480.9932,-24.2355 495.5391,-24.2355"/>
<polygon fill="#c0c0c0" stroke="#c0c0c0" points="495.7856,-27.7356 505.7856,-24.2355 495.7855,-20.7356 495.7856,-27.7356"/>
<text text-anchor="middle" x="484.2485" y="-17.9355" font-family="Times,serif" font-size="7.00" fill="#000000">IJburglaan</text>
</g>
<!-- 36002 -->
<g id="node23" class="node">
<title>36002</title>
<ellipse fill="#d3d3d3" stroke="#c0c0c0" cx="238.3155" cy="-168.2355" rx="3.5" ry="3.5"/>
</g>
<!-- 36001&#45;&gt;36002 -->
<g id="edge12" class="edge">
<title>36001&#45;&gt;36002</title>
<path fill="none" stroke="#c0c0c0" d="M170.1865,-168.2355C180.2418,-168.2355 207.5747,-168.2355 224.4059,-168.2355"/>
<polygon fill="#c0c0c0" stroke="#c0c0c0" points="224.7695,-171.7354 234.7696,-168.2355 224.7696,-164.7354 224.7695,-171.7354"/>
<text text-anchor="middle" x="208.4703" y="-161.9355" font-family="Times,serif" font-size="7.00" fill="#000000">Langbroekdreef</text>
</g>
<!-- 36002&#45;&gt;4905 -->
<g id="edge13" class="edge">
<title>36002&#45;&gt;4905</title>
<path fill="none" stroke="#c0c0c0" d="M252.2849,-168.2355C265.0508,-168.2355 283.8214,-168.2355 296.5294,-168.2355"/>
<polygon fill="#c0c0c0" stroke="#c0c0c0" points="252.1866,-164.7356 242.1865,-168.2355 252.1865,-171.7356 252.1866,-164.7356"/>
<polygon fill="#c0c0c0" stroke="#c0c0c0" points="296.7696,-171.7356 306.7696,-168.2355 296.7695,-164.7356 296.7696,-171.7356"/>
<text text-anchor="middle" x="251.184" y="-187.1355" font-family="Times,serif" font-size="7.00" fill="#000000">Langbroekdreef </text>
<text text-anchor="middle" x="251.184" y="-178.7355" font-family="Times,serif" font-size="7.00" fill="#000000"> (lijn 49 via</text>
<text text-anchor="middle" x="251.184" y="-170.3355" font-family="Times,serif" font-size="7.00" fill="#000000">St. Gaasperplas)</text>
</g>
</g>
</svg>

