<?xml version="1.0" encoding="UTF-8" standalone="no"?>
<!DOCTYPE svg PUBLIC "-//W3C//DTD SVG 1.1//EN"
 "http://www.w3.org/Graphics/SVG/1.1/DTD/svg11.dtd">
<!-- Generated by graphviz version 2.40.1 (20161225.0304)
 -->
<!-- Title: G Pages: 1 -->
<svg width="318pt" height="394pt"
 viewBox="0.00 0.00 317.89 393.82" xmlns="http://www.w3.org/2000/svg" xmlns:xlink="http://www.w3.org/1999/xlink">
<g id="graph0" class="graph" transform="scale(1 1) rotate(0) translate(4 389.8155)">
<title>G</title>
<polygon fill="#ffffff" stroke="transparent" points="-4,4 -4,-389.8155 313.891,-389.8155 313.891,4 -4,4"/>
<!-- GZ -->
<g id="node1" class="node">
<title>GZ</title>
<ellipse fill="#d3d3d3" stroke="#c0c0c0" cx="60.0649" cy="-94.3155" rx="17.8219" ry="17.8219"/>
<text text-anchor="middle" x="60.0649" y="-92.2155" font-family="Times,serif" font-size="7.00" fill="#000000">GZ</text>
</g>
<!-- GZ03 -->
<g id="node7" class="node">
<title>GZ03</title>
<ellipse fill="#d3d3d3" stroke="#c0c0c0" cx="132.0649" cy="-94.3155" rx="3.5" ry="3.5"/>
</g>
<!-- GZ&#45;&gt;GZ03 -->
<g id="edge1" class="edge">
<title>GZ&#45;&gt;GZ03</title>
<path fill="none" stroke="#c0c0c0" d="M78.2335,-94.3155C90.7156,-94.3155 107.0239,-94.3155 118.4055,-94.3155"/>
<polygon fill="#c0c0c0" stroke="#c0c0c0" points="118.4079,-97.8156 128.4079,-94.3155 118.4078,-90.8156 118.4079,-97.8156"/>
<text text-anchor="middle" x="124.4656" y="-96.4155" font-family="Times,serif" font-size="7.00" fill="#000000">Joan Muyskenweg</text>
</g>
<!-- BMR -->
<g id="node2" class="node">
<title>BMR</title>
<ellipse fill="#d3d3d3" stroke="#c0c0c0" cx="276.0649" cy="-22.3155" rx="22.1325" ry="22.1325"/>
<text text-anchor="middle" x="276.0649" y="-20.2155" font-family="Times,serif" font-size="7.00" fill="#000000">BMR</text>
</g>
<!-- VPS -->
<g id="node3" class="node">
<title>VPS</title>
<ellipse fill="#d3d3d3" stroke="#c0c0c0" cx="132.0649" cy="-310.3155" rx="20.2807" ry="20.2807"/>
<text text-anchor="middle" x="132.0649" y="-308.2155" font-family="Times,serif" font-size="7.00" fill="#000000">VPS</text>
</g>
<!-- BEDL -->
<g id="node4" class="node">
<title>BEDL</title>
<ellipse fill="#d3d3d3" stroke="#c0c0c0" cx="276.0649" cy="-238.3155" rx="24.4733" ry="24.4733"/>
<text text-anchor="middle" x="276.0649" y="-236.2155" font-family="Times,serif" font-size="7.00" fill="#000000">BEDL</text>
</g>
<!-- GZ01 -->
<g id="node5" class="node">
<title>GZ01</title>
<ellipse fill="#d3d3d3" stroke="#c0c0c0" cx="204.0649" cy="-22.3155" rx="3.5" ry="3.5"/>
</g>
<!-- GZ01&#45;&gt;BMR -->
<g id="edge2" class="edge">
<title>GZ01&#45;&gt;BMR</title>
<path fill="none" stroke="#c0c0c0" d="M207.9359,-22.3155C214.686,-22.3155 229.222,-22.3155 243.1404,-22.3155"/>
<polygon fill="#c0c0c0" stroke="#c0c0c0" points="243.5244,-25.8156 253.5244,-22.3155 243.5243,-18.8156 243.5244,-25.8156"/>
<text text-anchor="middle" x="225.5382" y="-16.0155" font-family="Times,serif" font-size="7.00" fill="#000000">Hoogoorddreef</text>
</g>
<!-- GZ02 -->
<g id="node6" class="node">
<title>GZ02</title>
<ellipse fill="#d3d3d3" stroke="#c0c0c0" cx="204.0649" cy="-94.3155" rx="3.5" ry="3.5"/>
</g>
<!-- GZ02&#45;&gt;GZ01 -->
<g id="edge3" class="edge">
<title>GZ02&#45;&gt;GZ01</title>
<path fill="none" stroke="#c0c0c0" d="M204.0649,-90.4445C204.0649,-80.3892 204.0649,-53.0563 204.0649,-36.2252"/>
<polygon fill="#c0c0c0" stroke="#c0c0c0" points="207.565,-35.8614 204.0649,-25.8614 200.565,-35.8615 207.565,-35.8614"/>
<text text-anchor="middle" x="183.075" y="-65.4348" font-family="Times,serif" font-size="7.00" fill="#000000">Holterbergweg</text>
</g>
<!-- GZ03&#45;&gt;GZ02 -->
<g id="edge5" class="edge">
<title>GZ03&#45;&gt;GZ02</title>
<path fill="none" stroke="#c0c0c0" d="M135.9359,-94.3155C145.9912,-94.3155 173.3241,-94.3155 190.1552,-94.3155"/>
<polygon fill="#c0c0c0" stroke="#c0c0c0" points="190.519,-97.8156 200.519,-94.3155 190.5189,-90.8156 190.519,-97.8156"/>
<text text-anchor="middle" x="163.0456" y="-88.0155" font-family="Times,serif" font-size="7.00" fill="#000000">Joan Muyskenweg</text>
</g>
<!-- GZ04 -->
<g id="node8" class="node">
<title>GZ04</title>
<ellipse fill="#d3d3d3" stroke="#c0c0c0" cx="132.0649" cy="-166.3155" rx="3.5" ry="3.5"/>
</g>
<!-- GZ03&#45;&gt;GZ04 -->
<g id="edge4" class="edge">
<title>GZ03&#45;&gt;GZ04</title>
<path fill="none" stroke="#c0c0c0" d="M132.0649,-98.1865C132.0649,-108.2418 132.0649,-135.5747 132.0649,-152.4059"/>
<polygon fill="#c0c0c0" stroke="#c0c0c0" points="128.565,-152.7695 132.0649,-162.7696 135.565,-152.7696 128.565,-152.7695"/>
<text text-anchor="middle" x="106.217" y="-127.3962" font-family="Times,serif" font-size="7.00" fill="#000000">Van der Madeweg</text>
</g>
<!-- GZ05 -->
<g id="node9" class="node">
<title>GZ05</title>
<ellipse fill="#d3d3d3" stroke="#c0c0c0" cx="60.0649" cy="-166.3155" rx="3.5" ry="3.5"/>
</g>
<!-- GZ04&#45;&gt;GZ05 -->
<g id="edge6" class="edge">
<title>GZ04&#45;&gt;GZ05</title>
<path fill="none" stroke="#c0c0c0" d="M128.1939,-166.3155C118.1386,-166.3155 90.8057,-166.3155 73.9745,-166.3155"/>
<polygon fill="#c0c0c0" stroke="#c0c0c0" points="73.6109,-162.8156 63.6108,-166.3155 73.6108,-169.8156 73.6109,-162.8156"/>
<text text-anchor="middle" x="84.5632" y="-168.4155" font-family="Times,serif" font-size="7.00" fill="#000000">Spaklerweg</text>
</g>
<!-- GZ06 -->
<g id="node10" class="node">
<title>GZ06</title>
<ellipse fill="#d3d3d3" stroke="#c0c0c0" cx="60.0649" cy="-238.3155" rx="3.5" ry="3.5"/>
</g>
<!-- GZ05&#45;&gt;GZ06 -->
<g id="edge7" class="edge">
<title>GZ05&#45;&gt;GZ06</title>
<path fill="none" stroke="#c0c0c0" d="M60.0649,-170.1865C60.0649,-180.2418 60.0649,-207.5747 60.0649,-224.4059"/>
<polygon fill="#c0c0c0" stroke="#c0c0c0" points="56.565,-224.7695 60.0649,-234.7696 63.565,-224.7696 56.565,-224.7695"/>
<text text-anchor="middle" x="30.0325" y="-216.1962" font-family="Times,serif" font-size="7.00" fill="#000000">Verlengde van </text>
<text text-anchor="middle" x="30.0325" y="-207.7962" font-family="Times,serif" font-size="7.00" fill="#000000"> Marwijk Kooystraat </text>
<text text-anchor="middle" x="30.0325" y="-199.3962" font-family="Times,serif" font-size="7.00" fill="#000000"> [A10] ri Hengelo</text>
</g>
<!-- GZ08 -->
<g id="node12" class="node">
<title>GZ08</title>
<ellipse fill="#d3d3d3" stroke="#c0c0c0" cx="60.0649" cy="-382.3155" rx="3.5" ry="3.5"/>
</g>
<!-- GZ06&#45;&gt;GZ08 -->
<g id="edge8" class="edge">
<title>GZ06&#45;&gt;GZ08</title>
<path fill="none" stroke="#c0c0c0" d="M60.0649,-241.8751C60.0649,-259.3866 60.0649,-336.8234 60.0649,-368.6183"/>
<polygon fill="#c0c0c0" stroke="#c0c0c0" points="56.565,-368.6203 60.0649,-378.6204 63.565,-368.6204 56.565,-368.6203"/>
<text text-anchor="middle" x="51.7079" y="-307.3467" font-family="Times,serif" font-size="7.00" fill="#000000">[A10]</text>
</g>
<!-- GZ09 -->
<g id="node13" class="node">
<title>GZ09</title>
<ellipse fill="#d3d3d3" stroke="#c0c0c0" cx="204.0649" cy="-238.3155" rx="3.5" ry="3.5"/>
</g>
<!-- GZ06&#45;&gt;GZ09 -->
<g id="edge9" class="edge">
<title>GZ06&#45;&gt;GZ09</title>
<path fill="none" stroke="#c0c0c0" d="M63.6245,-238.3155C81.136,-238.3155 158.5728,-238.3155 190.3677,-238.3155"/>
<polygon fill="#c0c0c0" stroke="#c0c0c0" points="190.3698,-241.8156 200.3697,-238.3155 190.3697,-234.8156 190.3698,-241.8156"/>
<text text-anchor="middle" x="147.1601" y="-232.0155" font-family="Times,serif" font-size="7.00" fill="#000000">Afslag naar [A1] ri Hengelo </text>
<text text-anchor="middle" x="147.1601" y="-223.6155" font-family="Times,serif" font-size="7.00" fill="#000000"> Afrit (2): Diemen</text>
</g>
<!-- GZ07 -->
<g id="node11" class="node">
<title>GZ07</title>
<ellipse fill="#d3d3d3" stroke="#c0c0c0" cx="132.0649" cy="-382.3155" rx="3.5" ry="3.5"/>
</g>
<!-- GZ07&#45;&gt;VPS -->
<g id="edge10" class="edge">
<title>GZ07&#45;&gt;VPS</title>
<path fill="none" stroke="#c0c0c0" d="M132.0649,-378.4445C132.0649,-371.3462 132.0649,-355.6378 132.0649,-341.0919"/>
<polygon fill="#c0c0c0" stroke="#c0c0c0" points="135.5648,-340.8455 132.0649,-330.8454 128.5648,-340.8454 135.5648,-340.8455"/>
<text text-anchor="middle" x="117.2935" y="-361.8682" font-family="Times,serif" font-size="7.00" fill="#000000">IJburglaan</text>
</g>
<!-- GZ08&#45;&gt;GZ07 -->
<g id="edge11" class="edge">
<title>GZ08&#45;&gt;GZ07</title>
<path fill="none" stroke="#c0c0c0" d="M63.9359,-382.3155C73.9912,-382.3155 101.3241,-382.3155 118.1552,-382.3155"/>
<polygon fill="#c0c0c0" stroke="#c0c0c0" points="118.519,-385.8156 128.519,-382.3155 118.5189,-378.8156 118.519,-385.8156"/>
<text text-anchor="middle" x="91.0456" y="-376.0155" font-family="Times,serif" font-size="7.00" fill="#000000">Afrit (14): Zeeburg</text>
</g>
<!-- GZ10 -->
<g id="node14" class="node">
<title>GZ10</title>
<ellipse fill="#d3d3d3" stroke="#c0c0c0" cx="204.0649" cy="-310.3155" rx="3.5" ry="3.5"/>
</g>
<!-- GZ09&#45;&gt;GZ10 -->
<g id="edge12" class="edge">
<title>GZ09&#45;&gt;GZ10</title>
<path fill="none" stroke="#c0c0c0" d="M204.0649,-242.1865C204.0649,-252.2418 204.0649,-279.5747 204.0649,-296.4059"/>
<polygon fill="#c0c0c0" stroke="#c0c0c0" points="200.565,-296.7695 204.0649,-306.7696 207.565,-296.7696 200.565,-296.7695"/>
<text text-anchor="middle" x="185.2132" y="-271.3962" font-family="Times,serif" font-size="7.00" fill="#000000">Weteringweg</text>
</g>
<!-- GZ11 -->
<g id="node15" class="node">
<title>GZ11</title>
<ellipse fill="#d3d3d3" stroke="#c0c0c0" cx="276.0649" cy="-310.3155" rx="3.5" ry="3.5"/>
</g>
<!-- GZ10&#45;&gt;GZ11 -->
<g id="edge13" class="edge">
<title>GZ10&#45;&gt;GZ11</title>
<path fill="none" stroke="#c0c0c0" d="M207.9359,-310.3155C217.9912,-310.3155 245.3241,-310.3155 262.1552,-310.3155"/>
<polygon fill="#c0c0c0" stroke="#c0c0c0" points="262.519,-313.8156 272.519,-310.3155 262.5189,-306.8156 262.519,-313.8156"/>
<text text-anchor="middle" x="235.0456" y="-304.0155" font-family="Times,serif" font-size="7.00" fill="#000000">Diemerpolderweg </text>
<text text-anchor="middle" x="235.0456" y="-295.6155" font-family="Times,serif" font-size="7.00" fill="#000000"> Fortdiemerdamweg </text>
<text text-anchor="middle" x="235.0456" y="-287.2155" font-family="Times,serif" font-size="7.00" fill="#000000"> Muiderlaan</text>
</g>
<!-- GZ11&#45;&gt;BEDL -->
<g id="edge14" class="edge">
<title>GZ11&#45;&gt;BEDL</title>
<path fill="none" stroke="#c0c0c0" d="M276.0649,-306.4445C276.0649,-299.9272 276.0649,-286.1516 276.0649,-272.6817"/>
<polygon fill="#c0c0c0" stroke="#c0c0c0" points="279.565,-272.5659 276.0649,-262.566 272.565,-272.566 279.565,-272.5659"/>
<text text-anchor="middle" x="292.978" y="-291.6631" font-family="Times,serif" font-size="7.00" fill="#000000">Pampuslaan</text>
</g>
</g>
</svg>

