<?xml version="1.0" encoding="UTF-8" standalone="no"?>
<!DOCTYPE svg PUBLIC "-//W3C//DTD SVG 1.1//EN"
 "http://www.w3.org/Graphics/SVG/1.1/DTD/svg11.dtd">
<!-- Generated by graphviz version 2.40.1 (20161225.0304)
 -->
<!-- Title: G Pages: 1 -->
<svg width="326pt" height="394pt"
 viewBox="0.00 0.00 325.90 393.81" xmlns="http://www.w3.org/2000/svg" xmlns:xlink="http://www.w3.org/1999/xlink">
<g id="graph0" class="graph" transform="scale(1 1) rotate(0) translate(4 389.8106)">
<title>G</title>
<polygon fill="#ffffff" stroke="transparent" points="-4,4 -4,-389.8106 321.9018,-389.8106 321.9018,4 -4,4"/>
<!-- GZ -->
<g id="node1" class="node">
<title>GZ</title>
<ellipse fill="#d3d3d3" stroke="#c0c0c0" cx="63.0021" cy="-94.3106" rx="18.3778" ry="18.3778"/>
<text text-anchor="middle" x="63.0021" y="-92.2106" font-family="Arial" font-size="7.00" fill="#000000">GZ</text>
</g>
<!-- GZ03 -->
<g id="node7" class="node">
<title>GZ03</title>
<ellipse fill="#d3d3d3" stroke="#c0c0c0" cx="135.0021" cy="-94.3106" rx="3.5" ry="3.5"/>
</g>
<!-- GZ&#45;&gt;GZ03 -->
<g id="edge1" class="edge">
<title>GZ&#45;&gt;GZ03</title>
<path fill="none" stroke="#c0c0c0" d="M81.5439,-94.3106C93.8953,-94.3106 109.8644,-94.3106 121.1216,-94.3106"/>
<polygon fill="#c0c0c0" stroke="#c0c0c0" points="121.3854,-97.8107 131.3854,-94.3106 121.3853,-90.8107 121.3854,-97.8107"/>
<text text-anchor="middle" x="130.3124" y="-96.4106" font-family="Arial" font-size="7.00" fill="#000000">Joan Muyskenweg</text>
</g>
<!-- BMR -->
<g id="node2" class="node">
<title>BMR</title>
<ellipse fill="#d3d3d3" stroke="#c0c0c0" cx="279.0021" cy="-22.3106" rx="22.1227" ry="22.1227"/>
<text text-anchor="middle" x="279.0021" y="-20.2106" font-family="Arial" font-size="7.00" fill="#000000">BMR</text>
</g>
<!-- VPS -->
<g id="node3" class="node">
<title>VPS</title>
<ellipse fill="#d3d3d3" stroke="#c0c0c0" cx="135.0021" cy="-310.3106" rx="21.4356" ry="21.4356"/>
<text text-anchor="middle" x="135.0021" y="-308.2106" font-family="Arial" font-size="7.00" fill="#000000">VPS</text>
</g>
<!-- BEDL -->
<g id="node4" class="node">
<title>BEDL</title>
<ellipse fill="#d3d3d3" stroke="#c0c0c0" cx="279.0021" cy="-238.3106" rx="24.4833" ry="24.4833"/>
<text text-anchor="middle" x="279.0021" y="-236.2106" font-family="Arial" font-size="7.00" fill="#000000">BEDL</text>
</g>
<!-- GZ01 -->
<g id="node5" class="node">
<title>GZ01</title>
<ellipse fill="#d3d3d3" stroke="#c0c0c0" cx="207.0021" cy="-22.3106" rx="3.5" ry="3.5"/>
</g>
<!-- GZ01&#45;&gt;BMR -->
<g id="edge2" class="edge">
<title>GZ01&#45;&gt;BMR</title>
<path fill="none" stroke="#c0c0c0" d="M210.8731,-22.3106C217.6232,-22.3106 232.1592,-22.3106 246.0776,-22.3106"/>
<polygon fill="#c0c0c0" stroke="#c0c0c0" points="246.4616,-25.8107 256.4616,-22.3106 246.4615,-18.8107 246.4616,-25.8107"/>
<text text-anchor="middle" x="228.4754" y="-16.0106" font-family="Arial" font-size="7.00" fill="#000000">Hoogoorddreef</text>
</g>
<!-- GZ02 -->
<g id="node6" class="node">
<title>GZ02</title>
<ellipse fill="#d3d3d3" stroke="#c0c0c0" cx="207.0021" cy="-94.3106" rx="3.5" ry="3.5"/>
</g>
<!-- GZ02&#45;&gt;GZ01 -->
<g id="edge3" class="edge">
<title>GZ02&#45;&gt;GZ01</title>
<path fill="none" stroke="#c0c0c0" d="M207.0021,-90.4395C207.0021,-80.3842 207.0021,-53.0513 207.0021,-36.2202"/>
<polygon fill="#c0c0c0" stroke="#c0c0c0" points="210.5022,-35.8565 207.0021,-25.8565 203.5022,-35.8565 210.5022,-35.8565"/>
<text text-anchor="middle" x="184.2497" y="-65.4299" font-family="Arial" font-size="7.00" fill="#000000">Holterbergweg</text>
</g>
<!-- GZ03&#45;&gt;GZ02 -->
<g id="edge5" class="edge">
<title>GZ03&#45;&gt;GZ02</title>
<path fill="none" stroke="#c0c0c0" d="M138.8731,-94.3106C148.9284,-94.3106 176.2613,-94.3106 193.0924,-94.3106"/>
<polygon fill="#c0c0c0" stroke="#c0c0c0" points="193.4562,-97.8107 203.4562,-94.3106 193.4561,-90.8107 193.4562,-97.8107"/>
<text text-anchor="middle" x="165.9828" y="-88.0106" font-family="Arial" font-size="7.00" fill="#000000">Joan Muyskenweg</text>
</g>
<!-- GZ04 -->
<g id="node8" class="node">
<title>GZ04</title>
<ellipse fill="#d3d3d3" stroke="#c0c0c0" cx="135.0021" cy="-166.3106" rx="3.5" ry="3.5"/>
</g>
<!-- GZ03&#45;&gt;GZ04 -->
<g id="edge4" class="edge">
<title>GZ03&#45;&gt;GZ04</title>
<path fill="none" stroke="#c0c0c0" d="M135.0021,-98.1816C135.0021,-108.2369 135.0021,-135.5698 135.0021,-152.4009"/>
<polygon fill="#c0c0c0" stroke="#c0c0c0" points="131.5022,-152.7646 135.0021,-162.7646 138.5022,-152.7647 131.5022,-152.7646"/>
<text text-anchor="middle" x="106.6048" y="-127.3913" font-family="Arial" font-size="7.00" fill="#000000">Van der Madeweg</text>
</g>
<!-- GZ05 -->
<g id="node9" class="node">
<title>GZ05</title>
<ellipse fill="#d3d3d3" stroke="#c0c0c0" cx="63.0021" cy="-166.3106" rx="3.5" ry="3.5"/>
</g>
<!-- GZ04&#45;&gt;GZ05 -->
<g id="edge6" class="edge">
<title>GZ04&#45;&gt;GZ05</title>
<path fill="none" stroke="#c0c0c0" d="M131.1311,-166.3106C121.0758,-166.3106 93.7429,-166.3106 76.9117,-166.3106"/>
<polygon fill="#c0c0c0" stroke="#c0c0c0" points="76.5481,-162.8107 66.548,-166.3106 76.548,-169.8107 76.5481,-162.8107"/>
<text text-anchor="middle" x="85.7406" y="-168.4106" font-family="Arial" font-size="7.00" fill="#000000">Spaklerweg</text>
</g>
<!-- GZ06 -->
<g id="node10" class="node">
<title>GZ06</title>
<ellipse fill="#d3d3d3" stroke="#c0c0c0" cx="63.0021" cy="-238.3106" rx="3.5" ry="3.5"/>
</g>
<!-- GZ05&#45;&gt;GZ06 -->
<g id="edge7" class="edge">
<title>GZ05&#45;&gt;GZ06</title>
<path fill="none" stroke="#c0c0c0" d="M63.0021,-170.1816C63.0021,-180.2369 63.0021,-207.5698 63.0021,-224.4009"/>
<polygon fill="#c0c0c0" stroke="#c0c0c0" points="59.5022,-224.7646 63.0021,-234.7646 66.5022,-224.7647 59.5022,-224.7646"/>
<text text-anchor="middle" x="31.5011" y="-216.1913" font-family="Arial" font-size="7.00" fill="#000000">Verlengde van </text>
<text text-anchor="middle" x="31.5011" y="-207.7913" font-family="Arial" font-size="7.00" fill="#000000"> Marwijk Kooystraat </text>
<text text-anchor="middle" x="31.5011" y="-199.3913" font-family="Arial" font-size="7.00" fill="#000000"> [A10]: Hengelo</text>
</g>
<!-- GZ08 -->
<g id="node12" class="node">
<title>GZ08</title>
<ellipse fill="#d3d3d3" stroke="#c0c0c0" cx="63.0021" cy="-382.3106" rx="3.5" ry="3.5"/>
</g>
<!-- GZ06&#45;&gt;GZ08 -->
<g id="edge8" class="edge">
<title>GZ06&#45;&gt;GZ08</title>
<path fill="none" stroke="#c0c0c0" d="M63.0021,-241.8701C63.0021,-259.3816 63.0021,-336.8184 63.0021,-368.6134"/>
<polygon fill="#c0c0c0" stroke="#c0c0c0" points="59.5022,-368.6154 63.0021,-378.6154 66.5022,-368.6154 59.5022,-368.6154"/>
<text text-anchor="middle" x="54.8314" y="-307.3417" font-family="Arial" font-size="7.00" fill="#000000">[A10]</text>
</g>
<!-- GZ09 -->
<g id="node13" class="node">
<title>GZ09</title>
<ellipse fill="#d3d3d3" stroke="#c0c0c0" cx="207.0021" cy="-238.3106" rx="3.5" ry="3.5"/>
</g>
<!-- GZ06&#45;&gt;GZ09 -->
<g id="edge9" class="edge">
<title>GZ06&#45;&gt;GZ09</title>
<path fill="none" stroke="#c0c0c0" d="M66.5617,-238.3106C84.0732,-238.3106 161.51,-238.3106 193.3049,-238.3106"/>
<polygon fill="#c0c0c0" stroke="#c0c0c0" points="193.307,-241.8107 203.3069,-238.3106 193.3069,-234.8107 193.307,-241.8107"/>
<text text-anchor="middle" x="150.3567" y="-232.0106" font-family="Arial" font-size="7.00" fill="#000000">Afslag naar [A1]: Hengelo </text>
<text text-anchor="middle" x="150.3567" y="-223.6106" font-family="Arial" font-size="7.00" fill="#000000"> Afrit (2): Diemen</text>
</g>
<!-- GZ07 -->
<g id="node11" class="node">
<title>GZ07</title>
<ellipse fill="#d3d3d3" stroke="#c0c0c0" cx="135.0021" cy="-382.3106" rx="3.5" ry="3.5"/>
</g>
<!-- GZ07&#45;&gt;VPS -->
<g id="edge10" class="edge">
<title>GZ07&#45;&gt;VPS</title>
<path fill="none" stroke="#c0c0c0" d="M135.0021,-378.4395C135.0021,-371.4823 135.0021,-356.2537 135.0021,-341.9553"/>
<polygon fill="#c0c0c0" stroke="#c0c0c0" points="138.5022,-341.8397 135.0021,-331.8398 131.5022,-341.8398 138.5022,-341.8397"/>
<text text-anchor="middle" x="118.6637" y="-362.2974" font-family="Arial" font-size="7.00" fill="#000000">IJburglaan</text>
</g>
<!-- GZ08&#45;&gt;GZ07 -->
<g id="edge11" class="edge">
<title>GZ08&#45;&gt;GZ07</title>
<path fill="none" stroke="#c0c0c0" d="M66.8731,-382.3106C76.9284,-382.3106 104.2613,-382.3106 121.0924,-382.3106"/>
<polygon fill="#c0c0c0" stroke="#c0c0c0" points="121.4562,-385.8107 131.4562,-382.3106 121.4561,-378.8107 121.4562,-385.8107"/>
<text text-anchor="middle" x="93.9828" y="-376.0106" font-family="Arial" font-size="7.00" fill="#000000">Afrit (14): Zeeburg</text>
</g>
<!-- GZ10 -->
<g id="node14" class="node">
<title>GZ10</title>
<ellipse fill="#d3d3d3" stroke="#c0c0c0" cx="207.0021" cy="-310.3106" rx="3.5" ry="3.5"/>
</g>
<!-- GZ09&#45;&gt;GZ10 -->
<g id="edge12" class="edge">
<title>GZ09&#45;&gt;GZ10</title>
<path fill="none" stroke="#c0c0c0" d="M207.0021,-242.1816C207.0021,-252.2369 207.0021,-279.5698 207.0021,-296.4009"/>
<polygon fill="#c0c0c0" stroke="#c0c0c0" points="203.5022,-296.7646 207.0021,-306.7646 210.5022,-296.7647 203.5022,-296.7646"/>
<text text-anchor="middle" x="186.5835" y="-271.3913" font-family="Arial" font-size="7.00" fill="#000000">Weteringweg</text>
</g>
<!-- GZ11 -->
<g id="node15" class="node">
<title>GZ11</title>
<ellipse fill="#d3d3d3" stroke="#c0c0c0" cx="279.0021" cy="-310.3106" rx="3.5" ry="3.5"/>
</g>
<!-- GZ10&#45;&gt;GZ11 -->
<g id="edge13" class="edge">
<title>GZ10&#45;&gt;GZ11</title>
<path fill="none" stroke="#c0c0c0" d="M210.8731,-310.3106C220.9284,-310.3106 248.2613,-310.3106 265.0924,-310.3106"/>
<polygon fill="#c0c0c0" stroke="#c0c0c0" points="265.4562,-313.8107 275.4562,-310.3106 265.4561,-306.8107 265.4562,-313.8107"/>
<text text-anchor="middle" x="237.9828" y="-304.0106" font-family="Arial" font-size="7.00" fill="#000000">Diemerpolderweg </text>
<text text-anchor="middle" x="237.9828" y="-295.6106" font-family="Arial" font-size="7.00" fill="#000000"> Fortdiemerdamweg </text>
<text text-anchor="middle" x="237.9828" y="-287.2106" font-family="Arial" font-size="7.00" fill="#000000"> Muiderlaan</text>
</g>
<!-- GZ11&#45;&gt;BEDL -->
<g id="edge14" class="edge">
<title>GZ11&#45;&gt;BEDL</title>
<path fill="none" stroke="#c0c0c0" d="M279.0021,-306.4395C279.0021,-299.9222 279.0021,-286.1466 279.0021,-272.6767"/>
<polygon fill="#c0c0c0" stroke="#c0c0c0" points="282.5022,-272.561 279.0021,-262.561 275.5022,-272.5611 282.5022,-272.561"/>
<text text-anchor="middle" x="298.452" y="-291.6581" font-family="Arial" font-size="7.00" fill="#000000">Pampuslaan</text>
</g>
</g>
</svg>

