<?xml version="1.0" encoding="UTF-8" standalone="no"?>
<!DOCTYPE svg PUBLIC "-//W3C//DTD SVG 1.1//EN"
 "http://www.w3.org/Graphics/SVG/1.1/DTD/svg11.dtd">
<!-- Generated by graphviz version 2.40.1 (20161225.0304)
 -->
<!-- Title: G Pages: 1 -->
<svg width="971pt" height="844pt"
 viewBox="0.00 0.00 970.56 844.16" xmlns="http://www.w3.org/2000/svg" xmlns:xlink="http://www.w3.org/1999/xlink">
<g id="graph0" class="graph" transform="scale(1 1) rotate(0) translate(4 840.1608)">
<title>G</title>
<polygon fill="#ffffff" stroke="transparent" points="-4,4 -4,-840.1608 966.555,-840.1608 966.555,4 -4,4"/>
<text text-anchor="middle" x="481.2775" y="-5.8" font-family="Times,serif" font-size="6.00" fill="#000000">* Bij terugkomst volgt u de stippellijn</text>
<!-- 4100 -->
<g id="node1" class="node">
<title>4100</title>
<ellipse fill="#d3d3d3" stroke="#c0c0c0" cx="96.121" cy="-810.7" rx="25.4216" ry="25.4216"/>
<text text-anchor="middle" x="96.121" y="-807.7" font-family="Arial" font-size="10.00" fill="#000000">ASA</text>
</g>
<!-- 4102 -->
<g id="node2" class="node">
<title>4102</title>
<ellipse fill="#d3d3d3" stroke="#c0c0c0" cx="312.121" cy="-810.7" rx="3.5" ry="3.5"/>
</g>
<!-- 4102&#45;&gt;4100 -->
<g id="edge1" class="edge">
<title>4102&#45;&gt;4100</title>
<path fill="none" stroke="#c0c0c0" d="M308.3719,-810.7C287.7318,-810.7 186.8871,-810.7 131.9571,-810.7"/>
<polygon fill="#c0c0c0" stroke="#c0c0c0" points="131.6207,-807.2001 121.6206,-810.7 131.6206,-814.2001 131.6207,-807.2001"/>
<text text-anchor="middle" x="177.653" y="-825.7" font-family="Arial" font-size="10.00" fill="#000000">Hugo de Vrieslaan </text>
<text text-anchor="middle" x="177.653" y="-813.7" font-family="Arial" font-size="10.00" fill="#000000"> Overzichtweg</text>
</g>
<!-- 4103 -->
<g id="node3" class="node">
<title>4103</title>
<ellipse fill="#d3d3d3" stroke="#c0c0c0" cx="312.121" cy="-738.7" rx="3.5" ry="3.5"/>
</g>
<!-- 4103&#45;&gt;4102 -->
<g id="edge2" class="edge">
<title>4103&#45;&gt;4102</title>
<path fill="none" stroke="#c0c0c0" d="M312.121,-742.571C312.121,-752.6263 312.121,-779.9592 312.121,-796.7903"/>
<polygon fill="#c0c0c0" stroke="#c0c0c0" points="308.6211,-797.154 312.121,-807.1541 315.6211,-797.1541 308.6211,-797.154"/>
<text text-anchor="middle" x="281.5665" y="-772.6807" font-family="Arial" font-size="10.00" fill="#000000">Maxwellstraat</text>
</g>
<!-- 4104 -->
<g id="node4" class="node">
<title>4104</title>
<ellipse fill="#d3d3d3" stroke="#c0c0c0" cx="240.121" cy="-738.7" rx=".5" ry=".5"/>
</g>
<!-- 4104&#45;&gt;4103 -->
<g id="edge3" class="edge">
<title>4104&#45;&gt;4103</title>
<path fill="none" stroke="#c0c0c0" d="M240.9296,-738.7C246.4552,-738.7 279.0002,-738.7 298.1196,-738.7"/>
<polygon fill="#c0c0c0" stroke="#c0c0c0" points="298.3262,-742.2001 308.3261,-738.7 298.3261,-735.2001 298.3262,-742.2001"/>
<text text-anchor="middle" x="248.6886" y="-729.7" font-family="Arial" font-size="10.00" fill="#000000">Kruislaan</text>
</g>
<!-- 4105 -->
<g id="node5" class="node">
<title>4105</title>
<ellipse fill="#d3d3d3" stroke="#c0c0c0" cx="240.121" cy="-666.7" rx="3.5" ry="3.5"/>
</g>
<!-- 4105&#45;&gt;4104 -->
<g id="edge4" class="edge">
<title>4105&#45;&gt;4104</title>
<path fill="none" stroke="#c0c0c0" d="M240.121,-670.571C240.121,-681.3054 240.121,-711.73 240.121,-728.0483"/>
<polygon fill="#c0c0c0" stroke="#c0c0c0" points="236.6211,-728.0991 240.121,-738.0992 243.6211,-728.0992 236.6211,-728.0991"/>
<text text-anchor="middle" x="206.222" y="-702.3097" font-family="Arial" font-size="10.00" fill="#000000">Rozenburglaan</text>
</g>
<!-- 4106 -->
<g id="node6" class="node">
<title>4106</title>
<ellipse fill="#d3d3d3" stroke="#c0c0c0" cx="168.121" cy="-666.7" rx="3.5" ry="3.5"/>
</g>
<!-- 4106&#45;&gt;4105 -->
<g id="edge5" class="edge">
<title>4106&#45;&gt;4105</title>
<path fill="none" stroke="#c0c0c0" d="M171.992,-666.7C182.0473,-666.7 209.3802,-666.7 226.2114,-666.7"/>
<polygon fill="#c0c0c0" stroke="#c0c0c0" points="226.5751,-670.2001 236.5751,-666.7 226.5751,-663.2001 226.5751,-670.2001"/>
<text text-anchor="middle" x="209.66" y="-657.7" font-family="Arial" font-size="10.00" fill="#000000">Randweg</text>
</g>
<!-- 4107 -->
<g id="node7" class="node">
<title>4107</title>
<ellipse fill="#d3d3d3" stroke="#c0c0c0" cx="168.121" cy="-594.7" rx="3.5" ry="3.5"/>
</g>
<!-- 4107&#45;&gt;4106 -->
<g id="edge6" class="edge">
<title>4107&#45;&gt;4106</title>
<path fill="none" stroke="#c0c0c0" d="M168.121,-598.571C168.121,-608.6263 168.121,-635.9592 168.121,-652.7903"/>
<polygon fill="#c0c0c0" stroke="#c0c0c0" points="164.6211,-653.154 168.121,-663.1541 171.6211,-653.1541 164.6211,-653.154"/>
<text text-anchor="middle" x="135.6215" y="-628.6807" font-family="Arial" font-size="10.00" fill="#000000">Rijksstraatweg</text>
</g>
<!-- 4108 -->
<g id="node8" class="node">
<title>4108</title>
<ellipse fill="#d3d3d3" stroke="#c0c0c0" cx="96.121" cy="-594.7" rx="3.5" ry="3.5"/>
</g>
<!-- 4108&#45;&gt;4107 -->
<g id="edge7" class="edge">
<title>4108&#45;&gt;4107</title>
<path fill="none" stroke="#c0c0c0" d="M99.992,-594.7C110.0473,-594.7 137.3802,-594.7 154.2114,-594.7"/>
<polygon fill="#c0c0c0" stroke="#c0c0c0" points="154.5751,-598.2001 164.5751,-594.7 154.575,-591.2001 154.5751,-598.2001"/>
<text text-anchor="middle" x="136.9677" y="-585.7" font-family="Arial" font-size="10.00" fill="#000000">Busbaan</text>
</g>
<!-- 4109 -->
<g id="node9" class="node">
<title>4109</title>
<ellipse fill="#d3d3d3" stroke="#c0c0c0" cx="96.121" cy="-522.7" rx="3.5" ry="3.5"/>
</g>
<!-- 4109&#45;&gt;4108 -->
<g id="edge8" class="edge">
<title>4109&#45;&gt;4108</title>
<path fill="none" stroke="#c0c0c0" d="M96.121,-526.571C96.121,-536.6263 96.121,-563.9592 96.121,-580.7903"/>
<polygon fill="#c0c0c0" stroke="#c0c0c0" points="92.6211,-581.154 96.121,-591.1541 99.6211,-581.1541 92.6211,-581.154"/>
<text text-anchor="middle" x="48.0605" y="-580.6807" font-family="Arial" font-size="10.00" fill="#000000">Pablo Nerudalaan</text>
<text text-anchor="middle" x="48.0605" y="-568.6807" font-family="Arial" font-size="10.00" fill="#000000">Stationsweg </text>
<text text-anchor="middle" x="48.0605" y="-556.6807" font-family="Arial" font-size="10.00" fill="#000000">(via St. Duivendrecht)</text>
</g>
<!-- 4113 -->
<g id="node10" class="node">
<title>4113</title>
<ellipse fill="#d3d3d3" stroke="#c0c0c0" cx="312.121" cy="-522.7" rx="3.5" ry="3.5"/>
</g>
<!-- 4113&#45;&gt;4109 -->
<g id="edge9" class="edge">
<title>4113&#45;&gt;4109</title>
<path fill="none" stroke="#c0c0c0" d="M308.3719,-522.7C284.4592,-522.7 152.8917,-522.7 109.7942,-522.7"/>
<polygon fill="#c0c0c0" stroke="#c0c0c0" points="109.64,-519.2001 99.6399,-522.7 109.6399,-526.2001 109.64,-519.2001"/>
<text text-anchor="middle" x="189.3511" y="-525.7" font-family="Arial" font-size="10.00" fill="#000000">Busbaan</text>
</g>
<!-- 4115 -->
<g id="node11" class="node">
<title>4115</title>
<ellipse fill="#d3d3d3" stroke="#c0c0c0" cx="456.121" cy="-378.7" rx="3.5" ry="3.5"/>
</g>
<!-- 4401 -->
<g id="node16" class="node">
<title>4401</title>
<ellipse fill="#d3d3d3" stroke="#c0c0c0" cx="312.121" cy="-378.7" rx="3.5" ry="3.5"/>
</g>
<!-- 4115&#45;&gt;4401 -->
<g id="edge44" class="edge">
<title>4115&#45;&gt;4401</title>
<path fill="none" stroke="#c0c0c0" d="M452.5614,-378.7C435.0499,-378.7 357.6131,-378.7 325.8182,-378.7"/>
<polygon fill="#c0c0c0" stroke="#c0c0c0" points="325.8162,-375.2001 315.8162,-378.7 325.8161,-382.2001 325.8162,-375.2001"/>
<text text-anchor="middle" x="362.5258" y="-381.7" font-family="Arial" font-size="10.00" fill="#000000">Bijlmerdreef</text>
</g>
<!-- 4116 -->
<g id="node12" class="node">
<title>4116</title>
<ellipse fill="#d3d3d3" stroke="#c0c0c0" cx="456.121" cy="-234.7" rx="3.5" ry="3.5"/>
</g>
<!-- 4116&#45;&gt;4115 -->
<g id="edge11" class="edge">
<title>4116&#45;&gt;4115</title>
<path fill="none" stroke="#c0c0c0" d="M456.121,-238.2596C456.121,-255.7711 456.121,-333.2078 456.121,-365.0028"/>
<polygon fill="#c0c0c0" stroke="#c0c0c0" points="452.6211,-365.0048 456.121,-375.0048 459.6211,-365.0049 452.6211,-365.0048"/>
<text text-anchor="middle" x="420.277" y="-304.6312" font-family="Arial" font-size="10.00" fill="#000000">Groesbeekdreef</text>
</g>
<!-- 4117 -->
<g id="node13" class="node">
<title>4117</title>
<ellipse fill="#d3d3d3" stroke="#c0c0c0" cx="240.121" cy="-234.7" rx="3.5" ry="3.5"/>
</g>
<!-- 4117&#45;&gt;4116 -->
<g id="edge13" class="edge">
<title>4117&#45;&gt;4116</title>
<path fill="none" stroke="#c0c0c0" d="M243.8701,-234.7C267.7828,-234.7 399.3503,-234.7 442.4478,-234.7"/>
<polygon fill="#c0c0c0" stroke="#c0c0c0" points="442.6021,-238.2001 452.6021,-234.7 442.602,-231.2001 442.6021,-238.2001"/>
<text text-anchor="middle" x="314.8195" y="-237.7" font-family="Arial" font-size="10.00" fill="#000000">Karspeldreef</text>
</g>
<!-- 4118 -->
<g id="node14" class="node">
<title>4118</title>
<ellipse fill="#d3d3d3" stroke="#c0c0c0" cx="240.121" cy="-162.7" rx="3.5" ry="3.5"/>
</g>
<!-- 4118&#45;&gt;4117 -->
<g id="edge14" class="edge">
<title>4118&#45;&gt;4117</title>
<path fill="none" stroke="#c0c0c0" d="M240.121,-166.571C240.121,-176.6263 240.121,-203.9592 240.121,-220.7903"/>
<polygon fill="#c0c0c0" stroke="#c0c0c0" points="236.6211,-221.154 240.121,-231.1541 243.6211,-221.1541 236.6211,-221.154"/>
<text text-anchor="middle" x="206.507" y="-220.6807" font-family="Arial" font-size="10.00" fill="#000000">Meerkerkdreef </text>
<text text-anchor="middle" x="206.507" y="-208.6807" font-family="Arial" font-size="10.00" fill="#000000"> Huntumdreef </text>
<text text-anchor="middle" x="206.507" y="-196.6807" font-family="Arial" font-size="10.00" fill="#000000"> (lijn 41)</text>
</g>
<!-- 4701 -->
<g id="node33" class="node">
<title>4701</title>
<ellipse fill="#d3d3d3" stroke="#c0c0c0" cx="240.121" cy="-90.7" rx=".5" ry=".5"/>
</g>
<!-- 4118&#45;&gt;4701 -->
<g id="edge16" class="edge">
<title>4118&#45;&gt;4701</title>
<path fill="none" stroke="#c0c0c0" d="M240.121,-158.829C240.121,-148.0946 240.121,-117.6699 240.121,-101.3517"/>
<polygon fill="#c0c0c0" stroke="#c0c0c0" points="243.6211,-101.3008 240.121,-91.3008 236.6211,-101.3009 243.6211,-101.3008"/>
<text text-anchor="middle" x="206.507" y="-145.0903" font-family="Arial" font-size="10.00" fill="#000000">Meerkerkdreef </text>
<text text-anchor="middle" x="206.507" y="-133.0903" font-family="Arial" font-size="10.00" fill="#000000"> (lijn 47)</text>
</g>
<!-- 4119 -->
<g id="node15" class="node">
<title>4119</title>
<ellipse fill="#d3d3d3" stroke="#c0c0c0" cx="96.121" cy="-162.7" rx="25.4075" ry="25.4075"/>
<text text-anchor="middle" x="96.121" y="-159.7" font-family="Arial" font-size="10.00" fill="#000000">HLD</text>
</g>
<!-- 4119&#45;&gt;4118 -->
<g id="edge15" class="edge">
<title>4119&#45;&gt;4118</title>
<path fill="none" stroke="#c0c0c0" d="M121.8653,-162.7C152.3118,-162.7 201.8953,-162.7 226.0301,-162.7"/>
<polygon fill="#c0c0c0" stroke="#c0c0c0" points="226.318,-166.2001 236.318,-162.7 226.318,-159.2001 226.318,-166.2001"/>
<text text-anchor="middle" x="213.6797" y="-177.7" font-family="Arial" font-size="10.00" fill="#000000">Meibergdreef </text>
<text text-anchor="middle" x="213.6797" y="-165.7" font-family="Arial" font-size="10.00" fill="#000000"> Holendrechtdreef</text>
</g>
<!-- 4402 -->
<g id="node17" class="node">
<title>4402</title>
<ellipse fill="#d3d3d3" stroke="#c0c0c0" cx="312.121" cy="-450.7" rx="3.5" ry="3.5"/>
</g>
<!-- 4401&#45;&gt;4402 -->
<g id="edge20" class="edge">
<title>4401&#45;&gt;4402</title>
<path fill="none" stroke="#c0c0c0" d="M312.121,-382.571C312.121,-392.6263 312.121,-419.9592 312.121,-436.7903"/>
<polygon fill="#c0c0c0" stroke="#c0c0c0" points="308.6211,-437.154 312.121,-447.1541 315.6211,-437.1541 308.6211,-437.154"/>
<text text-anchor="middle" x="282.3925" y="-424.6807" font-family="Arial" font-size="10.00" fill="#000000">Dolingadreef </text>
<text text-anchor="middle" x="282.3925" y="-412.6807" font-family="Arial" font-size="10.00" fill="#000000"> (lijn 41, 44)</text>
</g>
<!-- 4712 -->
<g id="node44" class="node">
<title>4712</title>
<ellipse fill="#d3d3d3" stroke="#c0c0c0" cx="240.121" cy="-378.7" rx="3.5" ry="3.5"/>
</g>
<!-- 4401&#45;&gt;4712 -->
<g id="edge45" class="edge">
<title>4401&#45;&gt;4712</title>
<path fill="none" stroke="#c0c0c0" d="M298.1516,-378.7C285.3858,-378.7 266.6151,-378.7 253.9071,-378.7"/>
<polygon fill="#c0c0c0" stroke="#c0c0c0" points="298.25,-382.2001 308.25,-378.7 298.2499,-375.2001 298.25,-382.2001"/>
<polygon fill="#c0c0c0" stroke="#c0c0c0" points="253.667,-375.2001 243.6669,-378.7 253.6669,-382.2001 253.667,-375.2001"/>
<text text-anchor="middle" x="276.0294" y="-369.7" font-family="Arial" font-size="10.00" fill="#000000">Bijlmerdreef</text>
</g>
<!-- 4402&#45;&gt;4113 -->
<g id="edge10" class="edge">
<title>4402&#45;&gt;4113</title>
<path fill="none" stroke="#c0c0c0" d="M312.121,-454.571C312.121,-464.6263 312.121,-491.9592 312.121,-508.7903"/>
<polygon fill="#c0c0c0" stroke="#c0c0c0" points="308.6211,-509.154 312.121,-519.1541 315.6211,-509.1541 308.6211,-509.154"/>
<text text-anchor="middle" x="282.3925" y="-496.6807" font-family="Arial" font-size="10.00" fill="#000000">Dolingadreef </text>
<text text-anchor="middle" x="282.3925" y="-484.6807" font-family="Arial" font-size="10.00" fill="#000000">(lijn 41)</text>
</g>
<!-- 4403 -->
<g id="node18" class="node">
<title>4403</title>
<ellipse fill="#d3d3d3" stroke="#c0c0c0" cx="384.121" cy="-450.7" rx="3.5" ry="3.5"/>
</g>
<!-- 4402&#45;&gt;4403 -->
<g id="edge21" class="edge">
<title>4402&#45;&gt;4403</title>
<path fill="none" stroke="#c0c0c0" d="M315.992,-450.7C326.0473,-450.7 353.3802,-450.7 370.2114,-450.7"/>
<polygon fill="#c0c0c0" stroke="#c0c0c0" points="370.5751,-454.2001 380.5751,-450.7 370.575,-447.2001 370.5751,-454.2001"/>
<text text-anchor="middle" x="343.1017" y="-441.7" font-family="Arial" font-size="10.00" fill="#000000">Daalwijkdreef</text>
<text text-anchor="middle" x="343.1017" y="-429.7" font-family="Arial" font-size="10.00" fill="#000000">(lijn 44)</text>
</g>
<!-- 4404 -->
<g id="node19" class="node">
<title>4404</title>
<ellipse fill="#d3d3d3" stroke="#c0c0c0" cx="384.121" cy="-594.7" rx="3.5" ry="3.5"/>
</g>
<!-- 4403&#45;&gt;4404 -->
<g id="edge22" class="edge">
<title>4403&#45;&gt;4404</title>
<path fill="none" stroke="#c0c0c0" d="M384.121,-454.2596C384.121,-471.7711 384.121,-549.2078 384.121,-581.0028"/>
<polygon fill="#c0c0c0" stroke="#c0c0c0" points="380.6211,-581.0048 384.121,-591.0048 387.6211,-581.0049 380.6211,-581.0048"/>
<text text-anchor="middle" x="432.4555" y="-556.6312" font-family="Arial" font-size="10.00" fill="#000000">Bergwijkdreef </text>
<text text-anchor="middle" x="432.4555" y="-544.6312" font-family="Arial" font-size="10.00" fill="#000000"> Boven Rijkersloot </text>
<text text-anchor="middle" x="432.4555" y="-532.6312" font-family="Arial" font-size="10.00" fill="#000000"> Beneden R. </text>
<text text-anchor="middle" x="432.4555" y="-520.6312" font-family="Arial" font-size="10.00" fill="#000000"> (via St. Diemen Zuid)</text>
</g>
<!-- 4405 -->
<g id="node20" class="node">
<title>4405</title>
<ellipse fill="#d3d3d3" stroke="#c0c0c0" cx="528.121" cy="-594.7" rx="3.5" ry="3.5"/>
</g>
<!-- 4404&#45;&gt;4405 -->
<g id="edge23" class="edge">
<title>4404&#45;&gt;4405</title>
<path fill="none" stroke="#c0c0c0" d="M387.6806,-594.7C405.1921,-594.7 482.6289,-594.7 514.4238,-594.7"/>
<polygon fill="#c0c0c0" stroke="#c0c0c0" points="514.4259,-598.2001 524.4259,-594.7 514.4258,-591.2001 514.4259,-598.2001"/>
<text text-anchor="middle" x="421.5972" y="-621.7" font-family="Arial" font-size="10.00" fill="#000000">Beneden R. </text>
<text text-anchor="middle" x="421.5972" y="-609.7" font-family="Arial" font-size="10.00" fill="#000000"> Boven R.</text>
<text text-anchor="middle" x="421.5972" y="-597.7" font-family="Arial" font-size="10.00" fill="#000000"> Beukenhorst</text>
</g>
<!-- 4406 -->
<g id="node21" class="node">
<title>4406</title>
<ellipse fill="#d3d3d3" stroke="#c0c0c0" cx="528.121" cy="-450.7" rx="3.5" ry="3.5"/>
</g>
<!-- 4405&#45;&gt;4406 -->
<g id="edge24" class="edge">
<title>4405&#45;&gt;4406</title>
<path fill="none" stroke="#c0c0c0" d="M528.121,-591.1404C528.121,-573.6289 528.121,-496.1921 528.121,-464.3972"/>
<polygon fill="#c0c0c0" stroke="#c0c0c0" points="531.6211,-464.3951 528.121,-454.3951 524.6211,-464.3952 531.6211,-464.3951"/>
<text text-anchor="middle" x="566.4585" y="-542.7688" font-family="Arial" font-size="10.00" fill="#000000">Hartveldseweg </text>
<text text-anchor="middle" x="566.4585" y="-530.7688" font-family="Arial" font-size="10.00" fill="#000000"> Muiderstraatweg</text>
</g>
<!-- 4407 -->
<g id="node22" class="node">
<title>4407</title>
<ellipse fill="#d3d3d3" stroke="#c0c0c0" cx="600.121" cy="-450.7" rx="3.5" ry="3.5"/>
</g>
<!-- 4406&#45;&gt;4407 -->
<g id="edge25" class="edge">
<title>4406&#45;&gt;4407</title>
<path fill="none" stroke="#c0c0c0" d="M531.992,-450.7C542.0473,-450.7 569.3802,-450.7 586.2114,-450.7"/>
<polygon fill="#c0c0c0" stroke="#c0c0c0" points="586.5751,-454.2001 596.5751,-450.7 586.5751,-447.2001 586.5751,-454.2001"/>
<text text-anchor="middle" x="516.3152" y="-453.7" font-family="Arial" font-size="10.00" fill="#000000">Prins Bernhardlaan</text>
</g>
<!-- 4408 -->
<g id="node23" class="node">
<title>4408</title>
<ellipse fill="#d3d3d3" stroke="#c0c0c0" cx="600.121" cy="-522.7" rx="3.5" ry="3.5"/>
</g>
<!-- 4407&#45;&gt;4408 -->
<g id="edge26" class="edge">
<title>4407&#45;&gt;4408</title>
<path fill="none" stroke="#c0c0c0" d="M600.121,-454.571C600.121,-464.6263 600.121,-491.9592 600.121,-508.7903"/>
<polygon fill="#c0c0c0" stroke="#c0c0c0" points="596.6211,-509.154 600.121,-519.1541 603.6211,-509.1541 596.6211,-509.154"/>
<text text-anchor="middle" x="557.059" y="-484.6807" font-family="Arial" font-size="10.00" fill="#000000">Prinses Beatrixlaan</text>
</g>
<!-- 4409 -->
<g id="node24" class="node">
<title>4409</title>
<ellipse fill="#d3d3d3" stroke="#c0c0c0" cx="744.121" cy="-522.7" rx="3.5" ry="3.5"/>
</g>
<!-- 4408&#45;&gt;4409 -->
<g id="edge27" class="edge">
<title>4408&#45;&gt;4409</title>
<path fill="none" stroke="#c0c0c0" d="M603.6806,-522.7C621.1921,-522.7 698.6289,-522.7 730.4238,-522.7"/>
<polygon fill="#c0c0c0" stroke="#c0c0c0" points="730.4259,-526.2001 740.4258,-522.7 730.4258,-519.2001 730.4259,-526.2001"/>
<text text-anchor="middle" x="685.6632" y="-513.7" font-family="Arial" font-size="10.00" fill="#000000">Ouddiemerlaan </text>
<text text-anchor="middle" x="685.6632" y="-501.7" font-family="Arial" font-size="10.00" fill="#000000"> (via St. Diemen)</text>
</g>
<!-- 4410 -->
<g id="node25" class="node">
<title>4410</title>
<ellipse fill="#d3d3d3" stroke="#c0c0c0" cx="744.121" cy="-450.7" rx="3.5" ry="3.5"/>
</g>
<!-- 4409&#45;&gt;4410 -->
<g id="edge28" class="edge">
<title>4409&#45;&gt;4410</title>
<path fill="none" stroke="#c0c0c0" d="M744.121,-518.829C744.121,-508.7737 744.121,-481.4408 744.121,-464.6096"/>
<polygon fill="#c0c0c0" stroke="#c0c0c0" points="747.6211,-464.2459 744.121,-454.2459 740.6211,-464.246 747.6211,-464.2459"/>
<text text-anchor="middle" x="704.9535" y="-482.7193" font-family="Arial" font-size="10.00" fill="#000000">Diemerpolderweg</text>
</g>
<!-- 4417 -->
<g id="node30" class="node">
<title>4417</title>
<ellipse fill="#d3d3d3" stroke="#c0c0c0" cx="744.121" cy="-594.7" rx="3.5" ry="3.5"/>
</g>
<!-- 4409&#45;&gt;4417 -->
<g id="edge17" class="edge">
<title>4409&#45;&gt;4417</title>
<path fill="none" stroke="#c0c0c0" stroke-dasharray="5,2" d="M744.121,-526.571C744.121,-539.1894 744.121,-579.0162 744.121,-591.1541"/>
<text text-anchor="middle" x="719.39" y="-561.8625" font-family="Arial" font-size="10.00" fill="#000000">Buytenweg</text>
</g>
<!-- 4411 -->
<g id="node26" class="node">
<title>4411</title>
<ellipse fill="#d3d3d3" stroke="#c0c0c0" cx="816.121" cy="-450.7" rx="3.5" ry="3.5"/>
</g>
<!-- 4410&#45;&gt;4411 -->
<g id="edge29" class="edge">
<title>4410&#45;&gt;4411</title>
<path fill="none" stroke="#c0c0c0" d="M747.992,-450.7C758.0473,-450.7 785.3802,-450.7 802.2113,-450.7"/>
<polygon fill="#c0c0c0" stroke="#c0c0c0" points="802.5751,-454.2001 812.5751,-450.7 802.575,-447.2001 802.5751,-454.2001"/>
<text text-anchor="middle" x="786.0772" y="-441.7" font-family="Arial" font-size="10.00" fill="#000000">Vogelweg</text>
</g>
<!-- 4412 -->
<g id="node27" class="node">
<title>4412</title>
<ellipse fill="#d3d3d3" stroke="#c0c0c0" cx="816.121" cy="-522.7" rx="3.5" ry="3.5"/>
</g>
<!-- 4411&#45;&gt;4412 -->
<g id="edge30" class="edge">
<title>4411&#45;&gt;4412</title>
<path fill="none" stroke="#c0c0c0" d="M816.121,-454.571C816.121,-464.6263 816.121,-491.9592 816.121,-508.7903"/>
<polygon fill="#c0c0c0" stroke="#c0c0c0" points="812.6211,-509.154 816.121,-519.1541 819.6211,-509.1541 812.6211,-509.154"/>
<text text-anchor="middle" x="788.3415" y="-484.6807" font-family="Arial" font-size="10.00" fill="#000000">Tureluurweg</text>
</g>
<!-- 4413 -->
<g id="node28" class="node">
<title>4413</title>
<ellipse fill="#d3d3d3" stroke="#c0c0c0" cx="852.121" cy="-558.7" rx=".5" ry=".5"/>
</g>
<!-- 4412&#45;&gt;4413 -->
<g id="edge31" class="edge">
<title>4412&#45;&gt;4413</title>
<path fill="none" stroke="#c0c0c0" d="M818.9459,-525.5249C824.3536,-530.9326 836.3399,-542.9188 844.3251,-550.9041"/>
<polygon fill="#c0c0c0" stroke="#c0c0c0" points="841.9577,-553.4865 851.5037,-558.0827 846.9075,-548.5367 841.9577,-553.4865"/>
<text text-anchor="middle" x="798.2965" y="-541.2145" font-family="Arial" font-size="10.00" fill="#000000">Rietzangerweg</text>
</g>
<!-- 4419 -->
<g id="node32" class="node">
<title>4419</title>
<ellipse fill="#d3d3d3" stroke="#c0c0c0" cx="888.121" cy="-522.7" rx="3.5" ry="3.5"/>
</g>
<!-- 4413&#45;&gt;4419 -->
<g id="edge32" class="edge">
<title>4413&#45;&gt;4419</title>
<path fill="none" stroke="#c0c0c0" d="M852.5253,-558.2957C855.0329,-555.788 868.6701,-542.1509 878.3158,-532.5052"/>
<polygon fill="#c0c0c0" stroke="#c0c0c0" points="881.0219,-534.7488 885.6181,-525.2029 876.0722,-529.7991 881.0219,-534.7488"/>
</g>
<!-- 4415 -->
<g id="node29" class="node">
<title>4415</title>
<ellipse fill="#d3d3d3" stroke="#c0c0c0" cx="888.121" cy="-378.7" rx="27.3251" ry="27.3251"/>
<text text-anchor="middle" x="888.121" y="-375.7" font-family="Arial" font-size="10.00" fill="#000000">DMN</text>
</g>
<!-- 4418 -->
<g id="node31" class="node">
<title>4418</title>
<ellipse fill="#d3d3d3" stroke="#c0c0c0" cx="888.121" cy="-594.7" rx="3.5" ry="3.5"/>
</g>
<!-- 4417&#45;&gt;4418 -->
<g id="edge18" class="edge">
<title>4417&#45;&gt;4418</title>
<path fill="none" stroke="#c0c0c0" stroke-dasharray="5,2" d="M747.6806,-594.7C767.5166,-594.7 864.2432,-594.7 884.4258,-594.7"/>
<text text-anchor="middle" x="781.8792" y="-597.7" font-family="Arial" font-size="10.00" fill="#000000">Oude Waelweg</text>
</g>
<!-- 4418&#45;&gt;4419 -->
<g id="edge19" class="edge">
<title>4418&#45;&gt;4419</title>
<path fill="none" stroke="#c0c0c0" stroke-dasharray="5,2" d="M888.121,-590.829C888.121,-578.2106 888.121,-538.3837 888.121,-526.2459"/>
<text text-anchor="middle" x="865.895" y="-573.5374" font-family="Arial" font-size="10.00" fill="#000000">Meerkoet </text>
<text text-anchor="middle" x="865.895" y="-561.5374" font-family="Arial" font-size="10.00" fill="#000000"> Zeezigt</text>
</g>
<!-- 4419&#45;&gt;4415 -->
<g id="edge33" class="edge">
<title>4419&#45;&gt;4415</title>
<path fill="none" stroke="#c0c0c0" d="M888.121,-519.1404C888.121,-505.1861 888.121,-453.1795 888.121,-416.5382"/>
<polygon fill="#c0c0c0" stroke="#c0c0c0" points="891.6211,-416.1879 888.121,-406.1879 884.6211,-416.188 891.6211,-416.1879"/>
<text text-anchor="middle" x="925.338" y="-494.8393" font-family="Arial" font-size="10.00" fill="#000000">Meerkoet </text>
<text text-anchor="middle" x="925.338" y="-482.8393" font-family="Arial" font-size="10.00" fill="#000000"> Fregat </text>
<text text-anchor="middle" x="925.338" y="-470.8393" font-family="Arial" font-size="10.00" fill="#000000"> Hermelijnvlinder</text>
</g>
<!-- 4702 -->
<g id="node34" class="node">
<title>4702</title>
<ellipse fill="#d3d3d3" stroke="#c0c0c0" cx="312.121" cy="-90.7" rx="3.5" ry="3.5"/>
</g>
<!-- 4701&#45;&gt;4702 -->
<g id="edge34" class="edge">
<title>4701&#45;&gt;4702</title>
<path fill="none" stroke="#c0c0c0" d="M240.9296,-90.7C246.4552,-90.7 279.0002,-90.7 298.1196,-90.7"/>
<polygon fill="#c0c0c0" stroke="#c0c0c0" points="298.3262,-94.2001 308.3261,-90.7 298.3261,-87.2001 298.3262,-94.2001"/>
</g>
<!-- 4703 -->
<g id="node35" class="node">
<title>4703</title>
<ellipse fill="#d3d3d3" stroke="#c0c0c0" cx="312.121" cy="-18.7" rx="3.5" ry="3.5"/>
</g>
<!-- 4702&#45;&gt;4703 -->
<g id="edge35" class="edge">
<title>4702&#45;&gt;4703</title>
<path fill="none" stroke="#c0c0c0" d="M312.121,-86.829C312.121,-76.7737 312.121,-49.4408 312.121,-32.6097"/>
<polygon fill="#c0c0c0" stroke="#c0c0c0" points="315.6211,-32.2459 312.121,-22.2459 308.6211,-32.246 315.6211,-32.2459"/>
<text text-anchor="middle" x="275.4475" y="-62.7193" font-family="Arial" font-size="10.00" fill="#000000">Reigersbosdreef</text>
</g>
<!-- 4704 -->
<g id="node36" class="node">
<title>4704</title>
<ellipse fill="#d3d3d3" stroke="#c0c0c0" cx="528.121" cy="-18.7" rx=".5" ry=".5"/>
</g>
<!-- 4703&#45;&gt;4704 -->
<g id="edge36" class="edge">
<title>4703&#45;&gt;4704</title>
<path fill="none" stroke="#c0c0c0" d="M315.8701,-18.7C340.3459,-18.7 477.6058,-18.7 517.3424,-18.7"/>
<polygon fill="#c0c0c0" stroke="#c0c0c0" points="517.5936,-22.2001 527.5935,-18.7 517.5935,-15.2001 517.5936,-22.2001"/>
<text text-anchor="middle" x="374.6433" y="-21.7" font-family="Arial" font-size="10.00" fill="#000000">Schoonhovendreef</text>
</g>
<!-- 4705 -->
<g id="node37" class="node">
<title>4705</title>
<ellipse fill="#d3d3d3" stroke="#c0c0c0" cx="528.121" cy="-90.7" rx="3.5" ry="3.5"/>
</g>
<!-- 4704&#45;&gt;4705 -->
<g id="edge37" class="edge">
<title>4704&#45;&gt;4705</title>
<path fill="none" stroke="#c0c0c0" d="M528.121,-19.5086C528.121,-25.0342 528.121,-57.5792 528.121,-76.6986"/>
<polygon fill="#c0c0c0" stroke="#c0c0c0" points="524.6211,-76.9051 528.121,-86.9051 531.6211,-76.9051 524.6211,-76.9051"/>
<text text-anchor="middle" x="487.274" y="-63.1036" font-family="Arial" font-size="10.00" fill="#000000">Wageningendreef </text>
<text text-anchor="middle" x="487.274" y="-51.1036" font-family="Arial" font-size="10.00" fill="#000000"> (via St. Gein)</text>
</g>
<!-- 4706 -->
<g id="node38" class="node">
<title>4706</title>
<ellipse fill="#d3d3d3" stroke="#c0c0c0" cx="384.121" cy="-90.7" rx="3.5" ry="3.5"/>
</g>
<!-- 4705&#45;&gt;4706 -->
<g id="edge38" class="edge">
<title>4705&#45;&gt;4706</title>
<path fill="none" stroke="#c0c0c0" d="M524.5614,-90.7C507.0499,-90.7 429.6131,-90.7 397.8182,-90.7"/>
<polygon fill="#c0c0c0" stroke="#c0c0c0" points="397.8162,-87.2001 387.8162,-90.7 397.8161,-94.2001 397.8162,-87.2001"/>
<text text-anchor="middle" x="432.5708" y="-93.7" font-family="Arial" font-size="10.00" fill="#000000">Valburgdreef</text>
</g>
<!-- 4707 -->
<g id="node39" class="node">
<title>4707</title>
<ellipse fill="#d3d3d3" stroke="#c0c0c0" cx="384.121" cy="-162.7" rx="3.5" ry="3.5"/>
</g>
<!-- 4706&#45;&gt;4707 -->
<g id="edge39" class="edge">
<title>4706&#45;&gt;4707</title>
<path fill="none" stroke="#c0c0c0" d="M384.121,-94.571C384.121,-104.6263 384.121,-131.9592 384.121,-148.7903"/>
<polygon fill="#c0c0c0" stroke="#c0c0c0" points="380.6211,-149.154 384.121,-159.1541 387.6211,-149.1541 380.6211,-149.154"/>
<text text-anchor="middle" x="349.1075" y="-124.6807" font-family="Arial" font-size="10.00" fill="#000000">Langbroekdreef</text>
</g>
<!-- 4708 -->
<g id="node40" class="node">
<title>4708</title>
<ellipse fill="#d3d3d3" stroke="#c0c0c0" cx="528.121" cy="-162.7" rx="3.5" ry="3.5"/>
</g>
<!-- 4707&#45;&gt;4708 -->
<g id="edge40" class="edge">
<title>4707&#45;&gt;4708</title>
<path fill="none" stroke="#c0c0c0" d="M387.6806,-162.7C405.1921,-162.7 482.6289,-162.7 514.4238,-162.7"/>
<polygon fill="#c0c0c0" stroke="#c0c0c0" points="514.4259,-166.2001 524.4259,-162.7 514.4258,-159.2001 514.4259,-166.2001"/>
<text text-anchor="middle" x="475.2224" y="-153.7" font-family="Arial" font-size="10.00" fill="#000000">Langbroekdreef </text>
<text text-anchor="middle" x="475.2224" y="-141.7" font-family="Arial" font-size="10.00" fill="#000000"> (via St. Gaasperplas)</text>
</g>
<!-- 4709 -->
<g id="node41" class="node">
<title>4709</title>
<ellipse fill="#d3d3d3" stroke="#c0c0c0" cx="528.121" cy="-234.7" rx="3.5" ry="3.5"/>
</g>
<!-- 4708&#45;&gt;4709 -->
<g id="edge41" class="edge">
<title>4708&#45;&gt;4709</title>
<path fill="none" stroke="#c0c0c0" d="M528.121,-166.571C528.121,-176.6263 528.121,-203.9592 528.121,-220.7903"/>
<polygon fill="#c0c0c0" stroke="#c0c0c0" points="524.6211,-221.154 528.121,-231.1541 531.6211,-221.1541 524.6211,-221.154"/>
<text text-anchor="middle" x="496.457" y="-196.6807" font-family="Arial" font-size="10.00" fill="#000000">Kromwijkdreef</text>
</g>
<!-- 4710 -->
<g id="node42" class="node">
<title>4710</title>
<ellipse fill="#d3d3d3" stroke="#c0c0c0" cx="600.121" cy="-234.7" rx=".5" ry=".5"/>
</g>
<!-- 4709&#45;&gt;4710 -->
<g id="edge42" class="edge">
<title>4709&#45;&gt;4710</title>
<path fill="none" stroke="#c0c0c0" d="M531.992,-234.7C542.7264,-234.7 573.1511,-234.7 589.4693,-234.7"/>
<polygon fill="#c0c0c0" stroke="#c0c0c0" points="589.5202,-238.2001 599.5202,-234.7 589.5202,-231.2001 589.5202,-238.2001"/>
<text text-anchor="middle" x="589.0702" y="-237.7" font-family="Arial" font-size="10.00" fill="#000000">Karspeldreef</text>
</g>
<!-- 4711 -->
<g id="node43" class="node">
<title>4711</title>
<ellipse fill="#d3d3d3" stroke="#c0c0c0" cx="600.121" cy="-378.7" rx=".5" ry=".5"/>
</g>
<!-- 4710&#45;&gt;4711 -->
<g id="edge12" class="edge">
<title>4710&#45;&gt;4711</title>
<path fill="none" stroke="#c0c0c0" d="M600.121,-235.342C600.121,-243.8896 600.121,-335.4279 600.121,-367.598"/>
<polygon fill="#c0c0c0" stroke="#c0c0c0" points="596.6211,-367.8498 600.121,-377.8498 603.6211,-367.8498 596.6211,-367.8498"/>
<text text-anchor="middle" x="559.5635" y="-304.47" font-family="Arial" font-size="10.00" fill="#000000">`s&#45;Gravendijkdreef</text>
</g>
<!-- 4711&#45;&gt;4115 -->
<g id="edge43" class="edge">
<title>4711&#45;&gt;4115</title>
<path fill="none" stroke="#c0c0c0" d="M599.479,-378.7C591.1671,-378.7 504.3785,-378.7 470.0168,-378.7"/>
<polygon fill="#c0c0c0" stroke="#c0c0c0" points="469.6873,-375.2001 459.6873,-378.7 469.6873,-382.2001 469.6873,-375.2001"/>
<text text-anchor="middle" x="508.0839" y="-381.7" font-family="Arial" font-size="10.00" fill="#000000">Bijlmerdreef</text>
</g>
<!-- 4713 -->
<g id="node45" class="node">
<title>4713</title>
<ellipse fill="#d3d3d3" stroke="#c0c0c0" cx="240.121" cy="-306.7" rx="3.5" ry="3.5"/>
</g>
<!-- 4712&#45;&gt;4713 -->
<g id="edge46" class="edge">
<title>4712&#45;&gt;4713</title>
<path fill="none" stroke="#c0c0c0" d="M240.121,-364.7306C240.121,-351.9647 240.121,-333.1941 240.121,-320.4861"/>
<polygon fill="#c0c0c0" stroke="#c0c0c0" points="236.6211,-364.8289 240.121,-374.829 243.6211,-364.829 236.6211,-364.8289"/>
<polygon fill="#c0c0c0" stroke="#c0c0c0" points="243.6211,-320.2459 240.121,-310.2459 236.6211,-320.246 243.6211,-320.2459"/>
<text text-anchor="middle" x="207.8875" y="-345.6083" font-family="Arial" font-size="10.00" fill="#000000">Foppingadreef</text>
</g>
<!-- 4714 -->
<g id="node46" class="node">
<title>4714</title>
<ellipse fill="#d3d3d3" stroke="#c0c0c0" cx="96.121" cy="-306.7" rx="27.047" ry="27.047"/>
<text text-anchor="middle" x="96.121" y="-303.7" font-family="Arial" font-size="10.00" fill="#000000">BMR</text>
</g>
<!-- 4713&#45;&gt;4714 -->
<g id="edge47" class="edge">
<title>4713&#45;&gt;4714</title>
<path fill="none" stroke="#c0c0c0" d="M226.2435,-306.7C205.0598,-306.7 163.9202,-306.7 133.5459,-306.7"/>
<polygon fill="#c0c0c0" stroke="#c0c0c0" points="226.5615,-310.2001 236.5614,-306.7 226.5614,-303.2001 226.5615,-310.2001"/>
<polygon fill="#c0c0c0" stroke="#c0c0c0" points="133.3015,-303.2001 123.3015,-306.7 133.3014,-310.2001 133.3015,-303.2001"/>
<text text-anchor="middle" x="197.2612" y="-297.7" font-family="Arial" font-size="10.00" fill="#000000">Hoogoorddreef </text>
<text text-anchor="middle" x="197.2612" y="-285.7" font-family="Arial" font-size="10.00" fill="#000000"> (lijn 44*, 47)</text>
</g>
</g>
</svg>

