<?xml version="1.0" encoding="UTF-8" standalone="no"?>
<!DOCTYPE svg PUBLIC "-//W3C//DTD SVG 1.1//EN"
 "http://www.w3.org/Graphics/SVG/1.1/DTD/svg11.dtd">
<!-- Generated by graphviz version 2.40.1 (20161225.0304)
 -->
<!-- Title: G Pages: 1 -->
<svg width="545pt" height="829pt"
 viewBox="0.00 0.00 545.18 828.96" xmlns="http://www.w3.org/2000/svg" xmlns:xlink="http://www.w3.org/1999/xlink">
<g id="graph0" class="graph" transform="scale(1 1) rotate(0) translate(4 824.9608)">
<title>G</title>
<polygon fill="#ffffff" stroke="transparent" points="-4,4 -4,-824.9608 541.179,-824.9608 541.179,4 -4,4"/>
<!-- 4100 -->
<g id="node1" class="node">
<title>4100</title>
<ellipse fill="#d3d3d3" stroke="#c0c0c0" cx="173.679" cy="-795.5" rx="25.4216" ry="25.4216"/>
<text text-anchor="middle" x="173.679" y="-792.5" font-family="Arial" font-size="10.00" fill="#000000">ASA</text>
</g>
<!-- 4102 -->
<g id="node2" class="node">
<title>4102</title>
<ellipse fill="#d3d3d3" stroke="#c0c0c0" cx="317.679" cy="-795.5" rx="3.5" ry="3.5"/>
</g>
<!-- 4102&#45;&gt;4100 -->
<g id="edge1" class="edge">
<title>4102&#45;&gt;4100</title>
<path fill="none" stroke="#c0c0c0" d="M314.1194,-795.5C299.9286,-795.5 246.3846,-795.5 209.6676,-795.5"/>
<polygon fill="#c0c0c0" stroke="#c0c0c0" points="209.3403,-792.0001 199.3403,-795.5 209.3403,-799.0001 209.3403,-792.0001"/>
<text text-anchor="middle" x="261.8935" y="-786.5" font-family="Arial" font-size="10.00" fill="#000000">Overzichtweg </text>
<text text-anchor="middle" x="261.8935" y="-774.5" font-family="Arial" font-size="10.00" fill="#000000"> Hugo de Vrieslaan</text>
</g>
<!-- 4103 -->
<g id="node3" class="node">
<title>4103</title>
<ellipse fill="#d3d3d3" stroke="#c0c0c0" cx="317.679" cy="-723.5" rx="3.5" ry="3.5"/>
</g>
<!-- 4103&#45;&gt;4102 -->
<g id="edge2" class="edge">
<title>4103&#45;&gt;4102</title>
<path fill="none" stroke="#c0c0c0" d="M317.679,-727.371C317.679,-737.4263 317.679,-764.7592 317.679,-781.5903"/>
<polygon fill="#c0c0c0" stroke="#c0c0c0" points="314.1791,-781.954 317.679,-791.9541 321.1791,-781.9541 314.1791,-781.954"/>
<text text-anchor="middle" x="287.1245" y="-757.4807" font-family="Arial" font-size="10.00" fill="#000000">Maxwellstraat</text>
</g>
<!-- 4104 -->
<g id="node4" class="node">
<title>4104</title>
<ellipse fill="#d3d3d3" stroke="#c0c0c0" cx="245.679" cy="-723.5" rx="3.5" ry="3.5"/>
</g>
<!-- 4104&#45;&gt;4103 -->
<g id="edge3" class="edge">
<title>4104&#45;&gt;4103</title>
<path fill="none" stroke="#c0c0c0" d="M249.55,-723.5C259.6053,-723.5 286.9382,-723.5 303.7693,-723.5"/>
<polygon fill="#c0c0c0" stroke="#c0c0c0" points="304.1331,-727.0001 314.1331,-723.5 304.133,-720.0001 304.1331,-727.0001"/>
<text text-anchor="middle" x="287.0777" y="-714.5" font-family="Arial" font-size="10.00" fill="#000000">Kruislaan</text>
</g>
<!-- 4105 -->
<g id="node5" class="node">
<title>4105</title>
<ellipse fill="#d3d3d3" stroke="#c0c0c0" cx="245.679" cy="-651.5" rx="3.5" ry="3.5"/>
</g>
<!-- 4105&#45;&gt;4104 -->
<g id="edge4" class="edge">
<title>4105&#45;&gt;4104</title>
<path fill="none" stroke="#c0c0c0" d="M245.679,-655.371C245.679,-665.4263 245.679,-692.7592 245.679,-709.5903"/>
<polygon fill="#c0c0c0" stroke="#c0c0c0" points="242.1791,-709.954 245.679,-719.9541 249.1791,-709.9541 242.1791,-709.954"/>
<text text-anchor="middle" x="211.78" y="-685.4807" font-family="Arial" font-size="10.00" fill="#000000">Rozenburglaan</text>
</g>
<!-- 4106 -->
<g id="node6" class="node">
<title>4106</title>
<ellipse fill="#d3d3d3" stroke="#c0c0c0" cx="173.679" cy="-651.5" rx="3.5" ry="3.5"/>
</g>
<!-- 4106&#45;&gt;4105 -->
<g id="edge5" class="edge">
<title>4106&#45;&gt;4105</title>
<path fill="none" stroke="#c0c0c0" d="M177.55,-651.5C187.6053,-651.5 214.9382,-651.5 231.7693,-651.5"/>
<polygon fill="#c0c0c0" stroke="#c0c0c0" points="232.1331,-655.0001 242.1331,-651.5 232.133,-648.0001 232.1331,-655.0001"/>
<text text-anchor="middle" x="215.2179" y="-642.5" font-family="Arial" font-size="10.00" fill="#000000">Randweg</text>
</g>
<!-- 4107 -->
<g id="node7" class="node">
<title>4107</title>
<ellipse fill="#d3d3d3" stroke="#c0c0c0" cx="173.679" cy="-579.5" rx="3.5" ry="3.5"/>
</g>
<!-- 4107&#45;&gt;4106 -->
<g id="edge6" class="edge">
<title>4107&#45;&gt;4106</title>
<path fill="none" stroke="#c0c0c0" d="M173.679,-583.371C173.679,-593.4263 173.679,-620.7592 173.679,-637.5904"/>
<polygon fill="#c0c0c0" stroke="#c0c0c0" points="170.1791,-637.954 173.679,-647.9541 177.1791,-637.9541 170.1791,-637.954"/>
<text text-anchor="middle" x="141.1795" y="-613.4807" font-family="Arial" font-size="10.00" fill="#000000">Rijksstraatweg</text>
</g>
<!-- 4108 -->
<g id="node8" class="node">
<title>4108</title>
<ellipse fill="#d3d3d3" stroke="#c0c0c0" cx="101.679" cy="-579.5" rx="3.5" ry="3.5"/>
</g>
<!-- 4108&#45;&gt;4107 -->
<g id="edge7" class="edge">
<title>4108&#45;&gt;4107</title>
<path fill="none" stroke="#c0c0c0" d="M105.55,-579.5C115.6053,-579.5 142.9382,-579.5 159.7693,-579.5"/>
<polygon fill="#c0c0c0" stroke="#c0c0c0" points="160.1331,-583.0001 170.1331,-579.5 160.133,-576.0001 160.1331,-583.0001"/>
<text text-anchor="middle" x="142.5257" y="-570.5" font-family="Arial" font-size="10.00" fill="#000000">Busbaan</text>
</g>
<!-- 4109 -->
<g id="node9" class="node">
<title>4109</title>
<ellipse fill="#d3d3d3" stroke="#c0c0c0" cx="101.679" cy="-435.5" rx="3.5" ry="3.5"/>
</g>
<!-- 4109&#45;&gt;4108 -->
<g id="edge8" class="edge">
<title>4109&#45;&gt;4108</title>
<path fill="none" stroke="#c0c0c0" d="M101.679,-439.0596C101.679,-456.5711 101.679,-534.0079 101.679,-565.8028"/>
<polygon fill="#c0c0c0" stroke="#c0c0c0" points="98.1791,-565.8048 101.679,-575.8049 105.1791,-565.8049 98.1791,-565.8048"/>
<text text-anchor="middle" x="50.8395" y="-529.4312" font-family="Arial" font-size="10.00" fill="#000000">Stationsweg </text>
<text text-anchor="middle" x="50.8395" y="-517.4312" font-family="Arial" font-size="10.00" fill="#000000"> (via St. Duivendrecht) </text>
<text text-anchor="middle" x="50.8395" y="-505.4312" font-family="Arial" font-size="10.00" fill="#000000"> Pablo Nerudalaan</text>
</g>
<!-- 4110 -->
<g id="node10" class="node">
<title>4110</title>
<ellipse fill="#d3d3d3" stroke="#c0c0c0" cx="173.679" cy="-435.5" rx="3.5" ry="3.5"/>
</g>
<!-- 4110&#45;&gt;4109 -->
<g id="edge9" class="edge">
<title>4110&#45;&gt;4109</title>
<path fill="none" stroke="#c0c0c0" d="M169.808,-435.5C159.7527,-435.5 132.4198,-435.5 115.5886,-435.5"/>
<polygon fill="#c0c0c0" stroke="#c0c0c0" points="115.225,-432.0001 105.2249,-435.5 115.2249,-439.0001 115.225,-432.0001"/>
<text text-anchor="middle" x="142.6983" y="-426.5" font-family="Arial" font-size="10.00" fill="#000000">Alexander </text>
<text text-anchor="middle" x="142.6983" y="-414.5" font-family="Arial" font-size="10.00" fill="#000000"> Dumaslaan</text>
</g>
<!-- 4113 -->
<g id="node13" class="node">
<title>4113</title>
<ellipse fill="#d3d3d3" stroke="#c0c0c0" cx="173.679" cy="-507.5" rx="3.5" ry="3.5"/>
</g>
<!-- 4110&#45;&gt;4113 -->
<g id="edge13" class="edge">
<title>4110&#45;&gt;4113</title>
<path fill="none" stroke="#c0c0c0" d="M173.679,-439.371C173.679,-449.4263 173.679,-476.7592 173.679,-493.5904"/>
<polygon fill="#c0c0c0" stroke="#c0c0c0" points="170.1791,-493.9541 173.679,-503.9541 177.1791,-493.9541 170.1791,-493.9541"/>
<text text-anchor="middle" x="145.34" y="-469.4807" font-family="Arial" font-size="10.00" fill="#000000">Dolingadreef</text>
</g>
<!-- 4111 -->
<g id="node11" class="node">
<title>4111</title>
<ellipse fill="#d3d3d3" stroke="#c0c0c0" cx="245.679" cy="-435.5" rx="3.5" ry="3.5"/>
</g>
<!-- 4111&#45;&gt;4110 -->
<g id="edge10" class="edge">
<title>4111&#45;&gt;4110</title>
<path fill="none" stroke="#c0c0c0" d="M241.808,-435.5C231.7527,-435.5 204.4198,-435.5 187.5886,-435.5"/>
<polygon fill="#c0c0c0" stroke="#c0c0c0" points="187.225,-432.0001 177.2249,-435.5 187.2249,-439.0001 187.225,-432.0001"/>
<text text-anchor="middle" x="214.6983" y="-426.5" font-family="Arial" font-size="10.00" fill="#000000">Charlotte </text>
<text text-anchor="middle" x="214.6983" y="-414.5" font-family="Arial" font-size="10.00" fill="#000000"> Brontéstraat</text>
</g>
<!-- 4112 -->
<g id="node12" class="node">
<title>4112</title>
<ellipse fill="#d3d3d3" stroke="#c0c0c0" cx="245.679" cy="-507.5" rx="3.5" ry="3.5"/>
</g>
<!-- 4112&#45;&gt;4111 -->
<g id="edge11" class="edge">
<title>4112&#45;&gt;4111</title>
<path fill="none" stroke="#c0c0c0" d="M245.679,-503.629C245.679,-493.5737 245.679,-466.2408 245.679,-449.4097"/>
<polygon fill="#c0c0c0" stroke="#c0c0c0" points="249.1791,-449.0459 245.679,-439.0459 242.1791,-449.046 249.1791,-449.0459"/>
<text text-anchor="middle" x="218.453" y="-479.5193" font-family="Arial" font-size="10.00" fill="#000000">Dickenslaan</text>
</g>
<!-- 4113&#45;&gt;4112 -->
<g id="edge12" class="edge">
<title>4113&#45;&gt;4112</title>
<path fill="none" stroke="#c0c0c0" d="M177.55,-507.5C187.6053,-507.5 214.9382,-507.5 231.7693,-507.5"/>
<polygon fill="#c0c0c0" stroke="#c0c0c0" points="232.1331,-511.0001 242.1331,-507.5 232.133,-504.0001 232.1331,-511.0001"/>
<text text-anchor="middle" x="204.6597" y="-498.5" font-family="Arial" font-size="10.00" fill="#000000">Dalsteindreef</text>
</g>
<!-- 4114 -->
<g id="node14" class="node">
<title>4114</title>
<ellipse fill="#d3d3d3" stroke="#c0c0c0" cx="173.679" cy="-363.5" rx="3.5" ry="3.5"/>
</g>
<!-- 4114&#45;&gt;4110 -->
<g id="edge14" class="edge">
<title>4114&#45;&gt;4110</title>
<path fill="none" stroke="#c0c0c0" d="M173.679,-367.371C173.679,-377.4263 173.679,-404.7592 173.679,-421.5904"/>
<polygon fill="#c0c0c0" stroke="#c0c0c0" points="170.1791,-421.954 173.679,-431.9541 177.1791,-421.9541 170.1791,-421.954"/>
<text text-anchor="middle" x="145.34" y="-397.4807" font-family="Arial" font-size="10.00" fill="#000000">Dolingadreef</text>
</g>
<!-- 4115 -->
<g id="node15" class="node">
<title>4115</title>
<ellipse fill="#d3d3d3" stroke="#c0c0c0" cx="245.679" cy="-363.5" rx="3.5" ry="3.5"/>
</g>
<!-- 4115&#45;&gt;4114 -->
<g id="edge15" class="edge">
<title>4115&#45;&gt;4114</title>
<path fill="none" stroke="#c0c0c0" d="M241.808,-363.5C231.7527,-363.5 204.4198,-363.5 187.5886,-363.5"/>
<polygon fill="#c0c0c0" stroke="#c0c0c0" points="187.225,-360.0001 177.2249,-363.5 187.2249,-367.0001 187.225,-360.0001"/>
<text text-anchor="middle" x="214.6983" y="-354.5" font-family="Arial" font-size="10.00" fill="#000000">Bijlmerdreef</text>
</g>
<!-- 4116 -->
<g id="node16" class="node">
<title>4116</title>
<ellipse fill="#d3d3d3" stroke="#c0c0c0" cx="245.679" cy="-219.5" rx="3.5" ry="3.5"/>
</g>
<!-- 4116&#45;&gt;4115 -->
<g id="edge16" class="edge">
<title>4116&#45;&gt;4115</title>
<path fill="none" stroke="#c0c0c0" d="M245.679,-223.0596C245.679,-240.5711 245.679,-318.0079 245.679,-349.8028"/>
<polygon fill="#c0c0c0" stroke="#c0c0c0" points="242.1791,-349.8048 245.679,-359.8049 249.1791,-349.8049 242.1791,-349.8048"/>
<text text-anchor="middle" x="205.1215" y="-289.4312" font-family="Arial" font-size="10.00" fill="#000000">`s&#45;Gravendijkdreef</text>
</g>
<!-- 4117 -->
<g id="node17" class="node">
<title>4117</title>
<ellipse fill="#d3d3d3" stroke="#c0c0c0" cx="173.679" cy="-219.5" rx="3.5" ry="3.5"/>
</g>
<!-- 4117&#45;&gt;4116 -->
<g id="edge17" class="edge">
<title>4117&#45;&gt;4116</title>
<path fill="none" stroke="#c0c0c0" d="M177.55,-219.5C187.6053,-219.5 214.9382,-219.5 231.7693,-219.5"/>
<polygon fill="#c0c0c0" stroke="#c0c0c0" points="232.1331,-223.0001 242.1331,-219.5 232.133,-216.0001 232.1331,-223.0001"/>
<text text-anchor="middle" x="204.6597" y="-210.5" font-family="Arial" font-size="10.00" fill="#000000">Karspeldreef</text>
</g>
<!-- 4118 -->
<g id="node18" class="node">
<title>4118</title>
<ellipse fill="#d3d3d3" stroke="#c0c0c0" cx="173.679" cy="-147.5" rx="3.5" ry="3.5"/>
</g>
<!-- 4118&#45;&gt;4117 -->
<g id="edge18" class="edge">
<title>4118&#45;&gt;4117</title>
<path fill="none" stroke="#c0c0c0" d="M173.679,-151.371C173.679,-161.4263 173.679,-188.7592 173.679,-205.5904"/>
<polygon fill="#c0c0c0" stroke="#c0c0c0" points="170.1791,-205.954 173.679,-215.9541 177.1791,-205.9541 170.1791,-205.954"/>
<text text-anchor="middle" x="140.065" y="-205.4807" font-family="Arial" font-size="10.00" fill="#000000">Meerkerkdreef </text>
<text text-anchor="middle" x="140.065" y="-193.4807" font-family="Arial" font-size="10.00" fill="#000000"> Huntumdreef </text>
<text text-anchor="middle" x="140.065" y="-181.4807" font-family="Arial" font-size="10.00" fill="#000000"> (lijn 41)</text>
</g>
<!-- 4701 -->
<g id="node20" class="node">
<title>4701</title>
<ellipse fill="#d3d3d3" stroke="#c0c0c0" cx="173.679" cy="-75.5" rx="3.5" ry="3.5"/>
</g>
<!-- 4118&#45;&gt;4701 -->
<g id="edge20" class="edge">
<title>4118&#45;&gt;4701</title>
<path fill="none" stroke="#c0c0c0" d="M173.679,-143.629C173.679,-133.5737 173.679,-106.2408 173.679,-89.4097"/>
<polygon fill="#c0c0c0" stroke="#c0c0c0" points="177.1791,-89.0459 173.679,-79.0459 170.1791,-89.046 177.1791,-89.0459"/>
<text text-anchor="middle" x="140.065" y="-107.5193" font-family="Arial" font-size="10.00" fill="#000000">Meerkerkdreef </text>
<text text-anchor="middle" x="140.065" y="-95.5193" font-family="Arial" font-size="10.00" fill="#000000"> (lijn 47)</text>
</g>
<!-- 4119 -->
<g id="node19" class="node">
<title>4119</title>
<ellipse fill="#d3d3d3" stroke="#c0c0c0" cx="101.679" cy="-147.5" rx="25.7003" ry="25.7003"/>
<text text-anchor="middle" x="101.679" y="-144.5" font-family="Arial" font-size="10.00" fill="#000000">HOL</text>
</g>
<!-- 4119&#45;&gt;4118 -->
<g id="edge19" class="edge">
<title>4119&#45;&gt;4118</title>
<path fill="none" stroke="#c0c0c0" d="M127.6726,-147.5C138.5282,-147.5 150.7024,-147.5 159.7993,-147.5"/>
<polygon fill="#c0c0c0" stroke="#c0c0c0" points="159.8841,-151.0001 169.8841,-147.5 159.8841,-144.0001 159.8841,-151.0001"/>
<text text-anchor="middle" x="183.468" y="-138.5" font-family="Arial" font-size="10.00" fill="#000000">Meibergdreef </text>
<text text-anchor="middle" x="183.468" y="-126.5" font-family="Arial" font-size="10.00" fill="#000000"> Holendrechtdreef</text>
</g>
<!-- 4702 -->
<g id="node21" class="node">
<title>4702</title>
<ellipse fill="#d3d3d3" stroke="#c0c0c0" cx="245.679" cy="-75.5" rx="3.5" ry="3.5"/>
</g>
<!-- 4701&#45;&gt;4702 -->
<g id="edge21" class="edge">
<title>4701&#45;&gt;4702</title>
<path fill="none" stroke="#c0c0c0" d="M177.55,-75.5C187.6053,-75.5 214.9382,-75.5 231.7693,-75.5"/>
<polygon fill="#c0c0c0" stroke="#c0c0c0" points="232.1331,-79.0001 242.1331,-75.5 232.133,-72.0001 232.1331,-79.0001"/>
<text text-anchor="middle" x="204.6597" y="-66.5" font-family="Arial" font-size="10.00" fill="#000000">Meerkerkdreef</text>
</g>
<!-- 4703 -->
<g id="node22" class="node">
<title>4703</title>
<ellipse fill="#d3d3d3" stroke="#c0c0c0" cx="245.679" cy="-3.5" rx="3.5" ry="3.5"/>
</g>
<!-- 4702&#45;&gt;4703 -->
<g id="edge22" class="edge">
<title>4702&#45;&gt;4703</title>
<path fill="none" stroke="#c0c0c0" d="M245.679,-71.629C245.679,-61.5737 245.679,-34.2408 245.679,-17.4097"/>
<polygon fill="#c0c0c0" stroke="#c0c0c0" points="249.1791,-17.0459 245.679,-7.0459 242.1791,-17.046 249.1791,-17.0459"/>
<text text-anchor="middle" x="209.0055" y="-47.5193" font-family="Arial" font-size="10.00" fill="#000000">Reigersbosdreef</text>
</g>
<!-- 4704 -->
<g id="node23" class="node">
<title>4704</title>
<ellipse fill="#d3d3d3" stroke="#c0c0c0" cx="533.679" cy="-3.5" rx="3.5" ry="3.5"/>
</g>
<!-- 4703&#45;&gt;4704 -->
<g id="edge23" class="edge">
<title>4703&#45;&gt;4704</title>
<path fill="none" stroke="#c0c0c0" d="M249.3204,-3.5C277.9539,-3.5 467.1624,-3.5 519.9976,-3.5"/>
<polygon fill="#c0c0c0" stroke="#c0c0c0" points="520.1189,-7.0001 530.1189,-3.5 520.1189,-.0001 520.1189,-7.0001"/>
<text text-anchor="middle" x="342.696" y="-6.5" font-family="Arial" font-size="10.00" fill="#000000">Schoonhovendreef</text>
</g>
<!-- 4705 -->
<g id="node24" class="node">
<title>4705</title>
<ellipse fill="#d3d3d3" stroke="#c0c0c0" cx="533.679" cy="-75.5" rx="3.5" ry="3.5"/>
</g>
<!-- 4704&#45;&gt;4705 -->
<g id="edge24" class="edge">
<title>4704&#45;&gt;4705</title>
<path fill="none" stroke="#c0c0c0" d="M533.679,-7.371C533.679,-17.4263 533.679,-44.7592 533.679,-61.5904"/>
<polygon fill="#c0c0c0" stroke="#c0c0c0" points="530.1791,-61.954 533.679,-71.9541 537.1791,-61.9541 530.1791,-61.954"/>
<text text-anchor="middle" x="494.2215" y="-37.4807" font-family="Arial" font-size="10.00" fill="#000000">Wageningendreef</text>
</g>
<!-- 4706 -->
<g id="node25" class="node">
<title>4706</title>
<ellipse fill="#d3d3d3" stroke="#c0c0c0" cx="461.679" cy="-75.5" rx="3.5" ry="3.5"/>
</g>
<!-- 4705&#45;&gt;4706 -->
<g id="edge25" class="edge">
<title>4705&#45;&gt;4706</title>
<path fill="none" stroke="#c0c0c0" d="M529.808,-75.5C519.7527,-75.5 492.4198,-75.5 475.5887,-75.5"/>
<polygon fill="#c0c0c0" stroke="#c0c0c0" points="475.225,-72.0001 465.2249,-75.5 475.2249,-79.0001 475.225,-72.0001"/>
<text text-anchor="middle" x="502.6983" y="-66.5" font-family="Arial" font-size="10.00" fill="#000000">Valburgdreef</text>
</g>
<!-- 4707 -->
<g id="node26" class="node">
<title>4707</title>
<ellipse fill="#d3d3d3" stroke="#c0c0c0" cx="461.679" cy="-147.5" rx="3.5" ry="3.5"/>
</g>
<!-- 4706&#45;&gt;4707 -->
<g id="edge26" class="edge">
<title>4706&#45;&gt;4707</title>
<path fill="none" stroke="#c0c0c0" d="M461.679,-79.371C461.679,-89.4263 461.679,-116.7592 461.679,-133.5904"/>
<polygon fill="#c0c0c0" stroke="#c0c0c0" points="458.1791,-133.9541 461.679,-143.9541 465.1791,-133.9541 458.1791,-133.9541"/>
<text text-anchor="middle" x="426.6655" y="-109.4807" font-family="Arial" font-size="10.00" fill="#000000">Langbroekdreef</text>
</g>
<!-- 4708 -->
<g id="node27" class="node">
<title>4708</title>
<ellipse fill="#d3d3d3" stroke="#c0c0c0" cx="533.679" cy="-147.5" rx="3.5" ry="3.5"/>
</g>
<!-- 4707&#45;&gt;4708 -->
<g id="edge27" class="edge">
<title>4707&#45;&gt;4708</title>
<path fill="none" stroke="#c0c0c0" d="M465.55,-147.5C475.6053,-147.5 502.9382,-147.5 519.7693,-147.5"/>
<polygon fill="#c0c0c0" stroke="#c0c0c0" points="520.1331,-151.0001 530.1331,-147.5 520.133,-144.0001 520.1331,-151.0001"/>
<text text-anchor="middle" x="444.3192" y="-138.5" font-family="Arial" font-size="10.00" fill="#000000">Langbroekdreef </text>
<text text-anchor="middle" x="444.3192" y="-126.5" font-family="Arial" font-size="10.00" fill="#000000"> (via St. Gaasperplas)</text>
</g>
<!-- 4709 -->
<g id="node28" class="node">
<title>4709</title>
<ellipse fill="#d3d3d3" stroke="#c0c0c0" cx="533.679" cy="-219.5" rx="3.5" ry="3.5"/>
</g>
<!-- 4708&#45;&gt;4709 -->
<g id="edge28" class="edge">
<title>4708&#45;&gt;4709</title>
<path fill="none" stroke="#c0c0c0" d="M533.679,-151.371C533.679,-161.4263 533.679,-188.7592 533.679,-205.5904"/>
<polygon fill="#c0c0c0" stroke="#c0c0c0" points="530.1791,-205.954 533.679,-215.9541 537.1791,-205.9541 530.1791,-205.954"/>
<text text-anchor="middle" x="502.015" y="-181.4807" font-family="Arial" font-size="10.00" fill="#000000">Kromwijkdreef</text>
</g>
<!-- 4710 -->
<g id="node29" class="node">
<title>4710</title>
<ellipse fill="#d3d3d3" stroke="#c0c0c0" cx="461.679" cy="-219.5" rx="3.5" ry="3.5"/>
</g>
<!-- 4709&#45;&gt;4710 -->
<g id="edge29" class="edge">
<title>4709&#45;&gt;4710</title>
<path fill="none" stroke="#c0c0c0" d="M529.808,-219.5C519.7527,-219.5 492.4198,-219.5 475.5887,-219.5"/>
<polygon fill="#c0c0c0" stroke="#c0c0c0" points="475.225,-216.0001 465.2249,-219.5 475.2249,-223.0001 475.225,-216.0001"/>
<text text-anchor="middle" x="502.6983" y="-210.5" font-family="Arial" font-size="10.00" fill="#000000">Karspeldreef</text>
</g>
<!-- 4711 -->
<g id="node30" class="node">
<title>4711</title>
<ellipse fill="#d3d3d3" stroke="#c0c0c0" cx="461.679" cy="-363.5" rx="3.5" ry="3.5"/>
</g>
<!-- 4710&#45;&gt;4711 -->
<g id="edge30" class="edge">
<title>4710&#45;&gt;4711</title>
<path fill="none" stroke="#c0c0c0" d="M461.679,-223.0596C461.679,-240.5711 461.679,-318.0079 461.679,-349.8028"/>
<polygon fill="#c0c0c0" stroke="#c0c0c0" points="458.1791,-349.8048 461.679,-359.8049 465.1791,-349.8049 458.1791,-349.8048"/>
<text text-anchor="middle" x="425.835" y="-277.4312" font-family="Arial" font-size="10.00" fill="#000000">Groesbeekdreef</text>
</g>
<!-- 4712 -->
<g id="node31" class="node">
<title>4712</title>
<ellipse fill="#d3d3d3" stroke="#c0c0c0" cx="389.679" cy="-363.5" rx="3.5" ry="3.5"/>
</g>
<!-- 4711&#45;&gt;4712 -->
<g id="edge31" class="edge">
<title>4711&#45;&gt;4712</title>
<path fill="none" stroke="#c0c0c0" d="M457.808,-363.5C447.7527,-363.5 420.4198,-363.5 403.5886,-363.5"/>
<polygon fill="#c0c0c0" stroke="#c0c0c0" points="403.225,-360.0001 393.2249,-363.5 403.2249,-367.0001 403.225,-360.0001"/>
<text text-anchor="middle" x="430.6983" y="-354.5" font-family="Arial" font-size="10.00" fill="#000000">Bijlmerdreef</text>
</g>
<!-- 4713 -->
<g id="node32" class="node">
<title>4713</title>
<ellipse fill="#d3d3d3" stroke="#c0c0c0" cx="389.679" cy="-291.5" rx="3.5" ry="3.5"/>
</g>
<!-- 4712&#45;&gt;4713 -->
<g id="edge32" class="edge">
<title>4712&#45;&gt;4713</title>
<path fill="none" stroke="#c0c0c0" d="M389.679,-359.629C389.679,-349.5737 389.679,-322.2408 389.679,-305.4097"/>
<polygon fill="#c0c0c0" stroke="#c0c0c0" points="393.1791,-305.0459 389.679,-295.0459 386.1791,-305.046 393.1791,-305.0459"/>
<text text-anchor="middle" x="357.4455" y="-335.5193" font-family="Arial" font-size="10.00" fill="#000000">Foppingadreef</text>
</g>
<!-- 4714 -->
<g id="node33" class="node">
<title>4714</title>
<ellipse fill="#d3d3d3" stroke="#c0c0c0" cx="317.679" cy="-291.5" rx="27.047" ry="27.047"/>
<text text-anchor="middle" x="317.679" y="-288.5" font-family="Arial" font-size="10.00" fill="#000000">BMR</text>
</g>
<!-- 4713&#45;&gt;4714 -->
<g id="edge33" class="edge">
<title>4713&#45;&gt;4714</title>
<path fill="none" stroke="#c0c0c0" d="M385.808,-291.5C379.7233,-291.5 367.3121,-291.5 354.7296,-291.5"/>
<polygon fill="#c0c0c0" stroke="#c0c0c0" points="354.7196,-288.0001 344.7196,-291.5 354.7196,-295.0001 354.7196,-288.0001"/>
<text text-anchor="middle" x="403.6123" y="-294.5" font-family="Arial" font-size="10.00" fill="#000000">Hoogoorddreef</text>
</g>
</g>
</svg>

