<?xml version="1.0" encoding="UTF-8" standalone="no"?>
<!DOCTYPE svg PUBLIC "-//W3C//DTD SVG 1.1//EN"
 "http://www.w3.org/Graphics/SVG/1.1/DTD/svg11.dtd">
<!-- Generated by graphviz version 2.40.1 (20161225.0304)
 -->
<!-- Title: G Pages: 1 -->
<svg width="971pt" height="829pt"
 viewBox="0.00 0.00 970.56 828.96" xmlns="http://www.w3.org/2000/svg" xmlns:xlink="http://www.w3.org/1999/xlink">
<g id="graph0" class="graph" transform="scale(1 1) rotate(0) translate(4 824.9608)">
<title>G</title>
<polygon fill="#ffffff" stroke="transparent" points="-4,4 -4,-824.9608 966.555,-824.9608 966.555,4 -4,4"/>
<!-- 4100 -->
<g id="node1" class="node">
<title>4100</title>
<ellipse fill="#d3d3d3" stroke="#c0c0c0" cx="96.121" cy="-795.5" rx="25.4216" ry="25.4216"/>
<text text-anchor="middle" x="96.121" y="-792.5" font-family="Arial" font-size="10.00" fill="#000000">ASA</text>
</g>
<!-- 4102 -->
<g id="node2" class="node">
<title>4102</title>
<ellipse fill="#d3d3d3" stroke="#c0c0c0" cx="312.121" cy="-795.5" rx="3.5" ry="3.5"/>
</g>
<!-- 4102&#45;&gt;4100 -->
<g id="edge1" class="edge">
<title>4102&#45;&gt;4100</title>
<path fill="none" stroke="#c0c0c0" d="M308.3719,-795.5C287.7318,-795.5 186.8871,-795.5 131.9571,-795.5"/>
<polygon fill="#c0c0c0" stroke="#c0c0c0" points="131.6206,-792.0001 121.6206,-795.5 131.6206,-799.0001 131.6206,-792.0001"/>
<text text-anchor="middle" x="177.653" y="-810.5" font-family="Arial" font-size="10.00" fill="#000000">Hugo de Vrieslaan </text>
<text text-anchor="middle" x="177.653" y="-798.5" font-family="Arial" font-size="10.00" fill="#000000"> Overzichtweg</text>
</g>
<!-- 4103 -->
<g id="node3" class="node">
<title>4103</title>
<ellipse fill="#d3d3d3" stroke="#c0c0c0" cx="312.121" cy="-723.5" rx="3.5" ry="3.5"/>
</g>
<!-- 4103&#45;&gt;4102 -->
<g id="edge2" class="edge">
<title>4103&#45;&gt;4102</title>
<path fill="none" stroke="#c0c0c0" d="M312.121,-727.371C312.121,-737.4263 312.121,-764.7592 312.121,-781.5903"/>
<polygon fill="#c0c0c0" stroke="#c0c0c0" points="308.6211,-781.954 312.121,-791.9541 315.6211,-781.9541 308.6211,-781.954"/>
<text text-anchor="middle" x="281.5665" y="-757.4807" font-family="Arial" font-size="10.00" fill="#000000">Maxwellstraat</text>
</g>
<!-- 4104 -->
<g id="node4" class="node">
<title>4104</title>
<ellipse fill="#d3d3d3" stroke="#c0c0c0" cx="240.121" cy="-723.5" rx=".5" ry=".5"/>
</g>
<!-- 4104&#45;&gt;4103 -->
<g id="edge3" class="edge">
<title>4104&#45;&gt;4103</title>
<path fill="none" stroke="#c0c0c0" d="M240.9296,-723.5C246.4552,-723.5 279.0002,-723.5 298.1196,-723.5"/>
<polygon fill="#c0c0c0" stroke="#c0c0c0" points="298.3261,-727.0001 308.3261,-723.5 298.3261,-720.0001 298.3261,-727.0001"/>
<text text-anchor="middle" x="248.6886" y="-714.5" font-family="Arial" font-size="10.00" fill="#000000">Kruislaan</text>
</g>
<!-- 4105 -->
<g id="node5" class="node">
<title>4105</title>
<ellipse fill="#d3d3d3" stroke="#c0c0c0" cx="240.121" cy="-651.5" rx="3.5" ry="3.5"/>
</g>
<!-- 4105&#45;&gt;4104 -->
<g id="edge4" class="edge">
<title>4105&#45;&gt;4104</title>
<path fill="none" stroke="#c0c0c0" d="M240.121,-655.371C240.121,-666.1054 240.121,-696.5301 240.121,-712.8483"/>
<polygon fill="#c0c0c0" stroke="#c0c0c0" points="236.6211,-712.8991 240.121,-722.8992 243.6211,-712.8992 236.6211,-712.8991"/>
<text text-anchor="middle" x="206.222" y="-687.1097" font-family="Arial" font-size="10.00" fill="#000000">Rozenburglaan</text>
</g>
<!-- 4106 -->
<g id="node6" class="node">
<title>4106</title>
<ellipse fill="#d3d3d3" stroke="#c0c0c0" cx="168.121" cy="-651.5" rx="3.5" ry="3.5"/>
</g>
<!-- 4106&#45;&gt;4105 -->
<g id="edge5" class="edge">
<title>4106&#45;&gt;4105</title>
<path fill="none" stroke="#c0c0c0" d="M171.992,-651.5C182.0473,-651.5 209.3802,-651.5 226.2113,-651.5"/>
<polygon fill="#c0c0c0" stroke="#c0c0c0" points="226.5751,-655.0001 236.5751,-651.5 226.575,-648.0001 226.5751,-655.0001"/>
<text text-anchor="middle" x="209.6599" y="-642.5" font-family="Arial" font-size="10.00" fill="#000000">Randweg</text>
</g>
<!-- 4107 -->
<g id="node7" class="node">
<title>4107</title>
<ellipse fill="#d3d3d3" stroke="#c0c0c0" cx="168.121" cy="-579.5" rx="3.5" ry="3.5"/>
</g>
<!-- 4107&#45;&gt;4106 -->
<g id="edge6" class="edge">
<title>4107&#45;&gt;4106</title>
<path fill="none" stroke="#c0c0c0" d="M168.121,-583.371C168.121,-593.4263 168.121,-620.7592 168.121,-637.5904"/>
<polygon fill="#c0c0c0" stroke="#c0c0c0" points="164.6211,-637.9541 168.121,-647.9541 171.6211,-637.9541 164.6211,-637.9541"/>
<text text-anchor="middle" x="135.6215" y="-613.4807" font-family="Arial" font-size="10.00" fill="#000000">Rijksstraatweg</text>
</g>
<!-- 4108 -->
<g id="node8" class="node">
<title>4108</title>
<ellipse fill="#d3d3d3" stroke="#c0c0c0" cx="96.121" cy="-579.5" rx="3.5" ry="3.5"/>
</g>
<!-- 4108&#45;&gt;4107 -->
<g id="edge7" class="edge">
<title>4108&#45;&gt;4107</title>
<path fill="none" stroke="#c0c0c0" d="M99.992,-579.5C110.0473,-579.5 137.3802,-579.5 154.2113,-579.5"/>
<polygon fill="#c0c0c0" stroke="#c0c0c0" points="154.5751,-583.0001 164.5751,-579.5 154.575,-576.0001 154.5751,-583.0001"/>
<text text-anchor="middle" x="136.9677" y="-570.5" font-family="Arial" font-size="10.00" fill="#000000">Busbaan</text>
</g>
<!-- 4109 -->
<g id="node9" class="node">
<title>4109</title>
<ellipse fill="#d3d3d3" stroke="#c0c0c0" cx="96.121" cy="-507.5" rx="3.5" ry="3.5"/>
</g>
<!-- 4109&#45;&gt;4108 -->
<g id="edge8" class="edge">
<title>4109&#45;&gt;4108</title>
<path fill="none" stroke="#c0c0c0" d="M96.121,-511.371C96.121,-521.4263 96.121,-548.7592 96.121,-565.5904"/>
<polygon fill="#c0c0c0" stroke="#c0c0c0" points="92.6211,-565.9541 96.121,-575.9541 99.6211,-565.9541 92.6211,-565.9541"/>
<text text-anchor="middle" x="48.0605" y="-565.4807" font-family="Arial" font-size="10.00" fill="#000000">Pablo Nerudalaan</text>
<text text-anchor="middle" x="48.0605" y="-553.4807" font-family="Arial" font-size="10.00" fill="#000000">Stationsweg </text>
<text text-anchor="middle" x="48.0605" y="-541.4807" font-family="Arial" font-size="10.00" fill="#000000">(via St. Duivendrecht)</text>
</g>
<!-- 4113 -->
<g id="node10" class="node">
<title>4113</title>
<ellipse fill="#d3d3d3" stroke="#c0c0c0" cx="312.121" cy="-507.5" rx="3.5" ry="3.5"/>
</g>
<!-- 4113&#45;&gt;4109 -->
<g id="edge9" class="edge">
<title>4113&#45;&gt;4109</title>
<path fill="none" stroke="#c0c0c0" d="M308.3719,-507.5C284.4592,-507.5 152.8917,-507.5 109.7942,-507.5"/>
<polygon fill="#c0c0c0" stroke="#c0c0c0" points="109.64,-504.0001 99.6399,-507.5 109.6399,-511.0001 109.64,-504.0001"/>
<text text-anchor="middle" x="189.3511" y="-510.5" font-family="Arial" font-size="10.00" fill="#000000">Busbaan</text>
</g>
<!-- 4115 -->
<g id="node11" class="node">
<title>4115</title>
<ellipse fill="#d3d3d3" stroke="#c0c0c0" cx="456.121" cy="-363.5" rx="3.5" ry="3.5"/>
</g>
<!-- 4401 -->
<g id="node16" class="node">
<title>4401</title>
<ellipse fill="#d3d3d3" stroke="#c0c0c0" cx="312.121" cy="-363.5" rx="3.5" ry="3.5"/>
</g>
<!-- 4115&#45;&gt;4401 -->
<g id="edge44" class="edge">
<title>4115&#45;&gt;4401</title>
<path fill="none" stroke="#c0c0c0" d="M452.5614,-363.5C435.0499,-363.5 357.6131,-363.5 325.8182,-363.5"/>
<polygon fill="#c0c0c0" stroke="#c0c0c0" points="325.8162,-360.0001 315.8161,-363.5 325.8161,-367.0001 325.8162,-360.0001"/>
<text text-anchor="middle" x="362.5258" y="-366.5" font-family="Arial" font-size="10.00" fill="#000000">Bijlmerdreef</text>
</g>
<!-- 4116 -->
<g id="node12" class="node">
<title>4116</title>
<ellipse fill="#d3d3d3" stroke="#c0c0c0" cx="456.121" cy="-219.5" rx="3.5" ry="3.5"/>
</g>
<!-- 4116&#45;&gt;4115 -->
<g id="edge11" class="edge">
<title>4116&#45;&gt;4115</title>
<path fill="none" stroke="#c0c0c0" d="M456.121,-223.0596C456.121,-240.5711 456.121,-318.0079 456.121,-349.8028"/>
<polygon fill="#c0c0c0" stroke="#c0c0c0" points="452.6211,-349.8048 456.121,-359.8049 459.6211,-349.8049 452.6211,-349.8048"/>
<text text-anchor="middle" x="420.277" y="-289.4312" font-family="Arial" font-size="10.00" fill="#000000">Groesbeekdreef</text>
</g>
<!-- 4117 -->
<g id="node13" class="node">
<title>4117</title>
<ellipse fill="#d3d3d3" stroke="#c0c0c0" cx="168.121" cy="-219.5" rx="3.5" ry="3.5"/>
</g>
<!-- 4117&#45;&gt;4116 -->
<g id="edge13" class="edge">
<title>4117&#45;&gt;4116</title>
<path fill="none" stroke="#c0c0c0" d="M171.7624,-219.5C200.3959,-219.5 389.6044,-219.5 442.4396,-219.5"/>
<polygon fill="#c0c0c0" stroke="#c0c0c0" points="442.5609,-223.0001 452.5609,-219.5 442.5609,-216.0001 442.5609,-223.0001"/>
<text text-anchor="middle" x="278.7615" y="-222.5" font-family="Arial" font-size="10.00" fill="#000000">Karspeldreef</text>
</g>
<!-- 4118 -->
<g id="node14" class="node">
<title>4118</title>
<ellipse fill="#d3d3d3" stroke="#c0c0c0" cx="168.121" cy="-147.5" rx="3.5" ry="3.5"/>
</g>
<!-- 4118&#45;&gt;4117 -->
<g id="edge14" class="edge">
<title>4118&#45;&gt;4117</title>
<path fill="none" stroke="#c0c0c0" d="M168.121,-151.371C168.121,-161.4263 168.121,-188.7592 168.121,-205.5904"/>
<polygon fill="#c0c0c0" stroke="#c0c0c0" points="164.6211,-205.9541 168.121,-215.9541 171.6211,-205.9541 164.6211,-205.9541"/>
<text text-anchor="middle" x="134.507" y="-205.4807" font-family="Arial" font-size="10.00" fill="#000000">Meerkerkdreef </text>
<text text-anchor="middle" x="134.507" y="-193.4807" font-family="Arial" font-size="10.00" fill="#000000"> Huntumdreef </text>
<text text-anchor="middle" x="134.507" y="-181.4807" font-family="Arial" font-size="10.00" fill="#000000"> (lijn 41)</text>
</g>
<!-- 4701 -->
<g id="node33" class="node">
<title>4701</title>
<ellipse fill="#d3d3d3" stroke="#c0c0c0" cx="168.121" cy="-75.5" rx=".5" ry=".5"/>
</g>
<!-- 4118&#45;&gt;4701 -->
<g id="edge16" class="edge">
<title>4118&#45;&gt;4701</title>
<path fill="none" stroke="#c0c0c0" d="M168.121,-143.629C168.121,-132.8946 168.121,-102.47 168.121,-86.1517"/>
<polygon fill="#c0c0c0" stroke="#c0c0c0" points="171.6211,-86.1008 168.121,-76.1008 164.6211,-86.1009 171.6211,-86.1008"/>
<text text-anchor="middle" x="134.507" y="-105.8903" font-family="Arial" font-size="10.00" fill="#000000">Meerkerkdreef </text>
<text text-anchor="middle" x="134.507" y="-93.8903" font-family="Arial" font-size="10.00" fill="#000000"> (lijn 47)</text>
</g>
<!-- 4119 -->
<g id="node15" class="node">
<title>4119</title>
<ellipse fill="#d3d3d3" stroke="#c0c0c0" cx="96.121" cy="-147.5" rx="25.7003" ry="25.7003"/>
<text text-anchor="middle" x="96.121" y="-144.5" font-family="Arial" font-size="10.00" fill="#000000">HOL</text>
</g>
<!-- 4119&#45;&gt;4118 -->
<g id="edge15" class="edge">
<title>4119&#45;&gt;4118</title>
<path fill="none" stroke="#c0c0c0" d="M122.1146,-147.5C132.9702,-147.5 145.1444,-147.5 154.2413,-147.5"/>
<polygon fill="#c0c0c0" stroke="#c0c0c0" points="154.3261,-151.0001 164.3261,-147.5 154.3261,-144.0001 154.3261,-151.0001"/>
<text text-anchor="middle" x="177.91" y="-138.5" font-family="Arial" font-size="10.00" fill="#000000">Meibergdreef </text>
<text text-anchor="middle" x="177.91" y="-126.5" font-family="Arial" font-size="10.00" fill="#000000"> Holendrechtdreef</text>
</g>
<!-- 4402 -->
<g id="node17" class="node">
<title>4402</title>
<ellipse fill="#d3d3d3" stroke="#c0c0c0" cx="312.121" cy="-435.5" rx="3.5" ry="3.5"/>
</g>
<!-- 4401&#45;&gt;4402 -->
<g id="edge20" class="edge">
<title>4401&#45;&gt;4402</title>
<path fill="none" stroke="#c0c0c0" d="M312.121,-367.371C312.121,-377.4263 312.121,-404.7592 312.121,-421.5904"/>
<polygon fill="#c0c0c0" stroke="#c0c0c0" points="308.6211,-421.954 312.121,-431.9541 315.6211,-421.9541 308.6211,-421.954"/>
<text text-anchor="middle" x="282.3925" y="-409.4807" font-family="Arial" font-size="10.00" fill="#000000">Dolingadreef </text>
<text text-anchor="middle" x="282.3925" y="-397.4807" font-family="Arial" font-size="10.00" fill="#000000"> (lijn 41, 44)</text>
</g>
<!-- 4712 -->
<g id="node44" class="node">
<title>4712</title>
<ellipse fill="#d3d3d3" stroke="#c0c0c0" cx="240.121" cy="-363.5" rx="3.5" ry="3.5"/>
</g>
<!-- 4401&#45;&gt;4712 -->
<g id="edge45" class="edge">
<title>4401&#45;&gt;4712</title>
<path fill="none" stroke="#c0c0c0" d="M298.1516,-363.5C285.3857,-363.5 266.6151,-363.5 253.9071,-363.5"/>
<polygon fill="#c0c0c0" stroke="#c0c0c0" points="298.25,-367.0001 308.25,-363.5 298.2499,-360.0001 298.25,-367.0001"/>
<polygon fill="#c0c0c0" stroke="#c0c0c0" points="253.6669,-360.0001 243.6669,-363.5 253.6669,-367.0001 253.6669,-360.0001"/>
<text text-anchor="middle" x="276.0293" y="-354.5" font-family="Arial" font-size="10.00" fill="#000000">Bijlmerdreef</text>
</g>
<!-- 4402&#45;&gt;4113 -->
<g id="edge10" class="edge">
<title>4402&#45;&gt;4113</title>
<path fill="none" stroke="#c0c0c0" d="M312.121,-439.371C312.121,-449.4263 312.121,-476.7592 312.121,-493.5904"/>
<polygon fill="#c0c0c0" stroke="#c0c0c0" points="308.6211,-493.9541 312.121,-503.9541 315.6211,-493.9541 308.6211,-493.9541"/>
<text text-anchor="middle" x="282.3925" y="-481.4807" font-family="Arial" font-size="10.00" fill="#000000">Dolingadreef </text>
<text text-anchor="middle" x="282.3925" y="-469.4807" font-family="Arial" font-size="10.00" fill="#000000">(lijn 41)</text>
</g>
<!-- 4403 -->
<g id="node18" class="node">
<title>4403</title>
<ellipse fill="#d3d3d3" stroke="#c0c0c0" cx="384.121" cy="-435.5" rx="3.5" ry="3.5"/>
</g>
<!-- 4402&#45;&gt;4403 -->
<g id="edge21" class="edge">
<title>4402&#45;&gt;4403</title>
<path fill="none" stroke="#c0c0c0" d="M315.992,-435.5C326.0473,-435.5 353.3802,-435.5 370.2113,-435.5"/>
<polygon fill="#c0c0c0" stroke="#c0c0c0" points="370.5751,-439.0001 380.5751,-435.5 370.575,-432.0001 370.5751,-439.0001"/>
<text text-anchor="middle" x="343.1017" y="-426.5" font-family="Arial" font-size="10.00" fill="#000000">Daalwijkdreef</text>
<text text-anchor="middle" x="343.1017" y="-414.5" font-family="Arial" font-size="10.00" fill="#000000">(lijn 44)</text>
</g>
<!-- 4404 -->
<g id="node19" class="node">
<title>4404</title>
<ellipse fill="#d3d3d3" stroke="#c0c0c0" cx="384.121" cy="-579.5" rx="3.5" ry="3.5"/>
</g>
<!-- 4403&#45;&gt;4404 -->
<g id="edge22" class="edge">
<title>4403&#45;&gt;4404</title>
<path fill="none" stroke="#c0c0c0" d="M384.121,-439.0596C384.121,-456.5711 384.121,-534.0079 384.121,-565.8028"/>
<polygon fill="#c0c0c0" stroke="#c0c0c0" points="380.6211,-565.8048 384.121,-575.8049 387.6211,-565.8049 380.6211,-565.8048"/>
<text text-anchor="middle" x="432.4555" y="-541.4312" font-family="Arial" font-size="10.00" fill="#000000">Bergwijkdreef </text>
<text text-anchor="middle" x="432.4555" y="-529.4312" font-family="Arial" font-size="10.00" fill="#000000"> Boven Rijkersloot </text>
<text text-anchor="middle" x="432.4555" y="-517.4312" font-family="Arial" font-size="10.00" fill="#000000"> Beneden R. </text>
<text text-anchor="middle" x="432.4555" y="-505.4312" font-family="Arial" font-size="10.00" fill="#000000"> (via St. Diemen Zuid)</text>
</g>
<!-- 4405 -->
<g id="node20" class="node">
<title>4405</title>
<ellipse fill="#d3d3d3" stroke="#c0c0c0" cx="528.121" cy="-579.5" rx="3.5" ry="3.5"/>
</g>
<!-- 4404&#45;&gt;4405 -->
<g id="edge23" class="edge">
<title>4404&#45;&gt;4405</title>
<path fill="none" stroke="#c0c0c0" d="M387.6806,-579.5C405.1921,-579.5 482.6288,-579.5 514.4238,-579.5"/>
<polygon fill="#c0c0c0" stroke="#c0c0c0" points="514.4259,-583.0001 524.4258,-579.5 514.4258,-576.0001 514.4259,-583.0001"/>
<text text-anchor="middle" x="421.5972" y="-606.5" font-family="Arial" font-size="10.00" fill="#000000">Beneden R. </text>
<text text-anchor="middle" x="421.5972" y="-594.5" font-family="Arial" font-size="10.00" fill="#000000"> Boven R.</text>
<text text-anchor="middle" x="421.5972" y="-582.5" font-family="Arial" font-size="10.00" fill="#000000"> Beukenhorst</text>
</g>
<!-- 4406 -->
<g id="node21" class="node">
<title>4406</title>
<ellipse fill="#d3d3d3" stroke="#c0c0c0" cx="528.121" cy="-435.5" rx="3.5" ry="3.5"/>
</g>
<!-- 4405&#45;&gt;4406 -->
<g id="edge24" class="edge">
<title>4405&#45;&gt;4406</title>
<path fill="none" stroke="#c0c0c0" d="M528.121,-575.9404C528.121,-558.4289 528.121,-480.9922 528.121,-449.1972"/>
<polygon fill="#c0c0c0" stroke="#c0c0c0" points="531.6211,-449.1951 528.121,-439.1952 524.6211,-449.1952 531.6211,-449.1951"/>
<text text-anchor="middle" x="566.4585" y="-527.5688" font-family="Arial" font-size="10.00" fill="#000000">Hartveldseweg </text>
<text text-anchor="middle" x="566.4585" y="-515.5688" font-family="Arial" font-size="10.00" fill="#000000"> Muiderstraatweg</text>
</g>
<!-- 4407 -->
<g id="node22" class="node">
<title>4407</title>
<ellipse fill="#d3d3d3" stroke="#c0c0c0" cx="600.121" cy="-435.5" rx="3.5" ry="3.5"/>
</g>
<!-- 4406&#45;&gt;4407 -->
<g id="edge25" class="edge">
<title>4406&#45;&gt;4407</title>
<path fill="none" stroke="#c0c0c0" d="M531.992,-435.5C542.0473,-435.5 569.3802,-435.5 586.2113,-435.5"/>
<polygon fill="#c0c0c0" stroke="#c0c0c0" points="586.5751,-439.0001 596.5751,-435.5 586.575,-432.0001 586.5751,-439.0001"/>
<text text-anchor="middle" x="524.0987" y="-426.5" font-family="Arial" font-size="10.00" fill="#000000">Prins Bernhard&#45;</text>
<text text-anchor="middle" x="524.0987" y="-414.5" font-family="Arial" font-size="10.00" fill="#000000">&#45;laan</text>
</g>
<!-- 4408 -->
<g id="node23" class="node">
<title>4408</title>
<ellipse fill="#d3d3d3" stroke="#c0c0c0" cx="600.121" cy="-507.5" rx="3.5" ry="3.5"/>
</g>
<!-- 4407&#45;&gt;4408 -->
<g id="edge26" class="edge">
<title>4407&#45;&gt;4408</title>
<path fill="none" stroke="#c0c0c0" d="M600.121,-439.371C600.121,-449.4263 600.121,-476.7592 600.121,-493.5904"/>
<polygon fill="#c0c0c0" stroke="#c0c0c0" points="596.6211,-493.9541 600.121,-503.9541 603.6211,-493.9541 596.6211,-493.9541"/>
<text text-anchor="middle" x="582.8995" y="-493.4807" font-family="Arial" font-size="10.00" fill="#000000">Prinses</text>
<text text-anchor="middle" x="582.8995" y="-481.4807" font-family="Arial" font-size="10.00" fill="#000000">Beatrix&#45;</text>
<text text-anchor="middle" x="582.8995" y="-469.4807" font-family="Arial" font-size="10.00" fill="#000000">&#45;laan</text>
</g>
<!-- 4409 -->
<g id="node24" class="node">
<title>4409</title>
<ellipse fill="#d3d3d3" stroke="#c0c0c0" cx="744.121" cy="-507.5" rx="3.5" ry="3.5"/>
</g>
<!-- 4408&#45;&gt;4409 -->
<g id="edge27" class="edge">
<title>4408&#45;&gt;4409</title>
<path fill="none" stroke="#c0c0c0" d="M603.6806,-507.5C621.1921,-507.5 698.6289,-507.5 730.4238,-507.5"/>
<polygon fill="#c0c0c0" stroke="#c0c0c0" points="730.4259,-511.0001 740.4258,-507.5 730.4258,-504.0001 730.4259,-511.0001"/>
<text text-anchor="middle" x="685.6632" y="-498.5" font-family="Arial" font-size="10.00" fill="#000000">Ouddiemerlaan </text>
<text text-anchor="middle" x="685.6632" y="-486.5" font-family="Arial" font-size="10.00" fill="#000000"> (via St. Diemen)</text>
</g>
<!-- 4410 -->
<g id="node25" class="node">
<title>4410</title>
<ellipse fill="#d3d3d3" stroke="#c0c0c0" cx="744.121" cy="-435.5" rx="3.5" ry="3.5"/>
</g>
<!-- 4409&#45;&gt;4410 -->
<g id="edge28" class="edge">
<title>4409&#45;&gt;4410</title>
<path fill="none" stroke="#c0c0c0" d="M744.121,-503.629C744.121,-493.5737 744.121,-466.2408 744.121,-449.4097"/>
<polygon fill="#c0c0c0" stroke="#c0c0c0" points="747.6211,-449.0459 744.121,-439.0459 740.6211,-449.046 747.6211,-449.0459"/>
<text text-anchor="middle" x="704.9535" y="-467.5193" font-family="Arial" font-size="10.00" fill="#000000">Diemerpolderweg</text>
</g>
<!-- 4417 -->
<g id="node30" class="node">
<title>4417</title>
<ellipse fill="#d3d3d3" stroke="#c0c0c0" cx="744.121" cy="-579.5" rx="3.5" ry="3.5"/>
</g>
<!-- 4409&#45;&gt;4417 -->
<g id="edge17" class="edge">
<title>4409&#45;&gt;4417</title>
<path fill="none" stroke="#c0c0c0" stroke-dasharray="5,2" d="M744.121,-511.371C744.121,-523.9894 744.121,-563.8163 744.121,-575.9541"/>
<text text-anchor="middle" x="719.39" y="-546.6626" font-family="Arial" font-size="10.00" fill="#000000">Buytenweg</text>
</g>
<!-- 4411 -->
<g id="node26" class="node">
<title>4411</title>
<ellipse fill="#d3d3d3" stroke="#c0c0c0" cx="816.121" cy="-435.5" rx="3.5" ry="3.5"/>
</g>
<!-- 4410&#45;&gt;4411 -->
<g id="edge29" class="edge">
<title>4410&#45;&gt;4411</title>
<path fill="none" stroke="#c0c0c0" d="M747.992,-435.5C758.0473,-435.5 785.3802,-435.5 802.2113,-435.5"/>
<polygon fill="#c0c0c0" stroke="#c0c0c0" points="802.5751,-439.0001 812.5751,-435.5 802.575,-432.0001 802.5751,-439.0001"/>
<text text-anchor="middle" x="786.0772" y="-426.5" font-family="Arial" font-size="10.00" fill="#000000">Vogelweg</text>
</g>
<!-- 4412 -->
<g id="node27" class="node">
<title>4412</title>
<ellipse fill="#d3d3d3" stroke="#c0c0c0" cx="816.121" cy="-507.5" rx="3.5" ry="3.5"/>
</g>
<!-- 4411&#45;&gt;4412 -->
<g id="edge30" class="edge">
<title>4411&#45;&gt;4412</title>
<path fill="none" stroke="#c0c0c0" d="M816.121,-439.371C816.121,-449.4263 816.121,-476.7592 816.121,-493.5904"/>
<polygon fill="#c0c0c0" stroke="#c0c0c0" points="812.6211,-493.9541 816.121,-503.9541 819.6211,-493.9541 812.6211,-493.9541"/>
<text text-anchor="middle" x="788.3415" y="-469.4807" font-family="Arial" font-size="10.00" fill="#000000">Tureluurweg</text>
</g>
<!-- 4413 -->
<g id="node28" class="node">
<title>4413</title>
<ellipse fill="#d3d3d3" stroke="#c0c0c0" cx="852.121" cy="-543.5" rx=".5" ry=".5"/>
</g>
<!-- 4412&#45;&gt;4413 -->
<g id="edge31" class="edge">
<title>4412&#45;&gt;4413</title>
<path fill="none" stroke="#c0c0c0" d="M818.9459,-510.3249C824.3536,-515.7326 836.3399,-527.7189 844.3251,-535.7041"/>
<polygon fill="#c0c0c0" stroke="#c0c0c0" points="841.9577,-538.2865 851.5037,-542.8827 846.9075,-533.3368 841.9577,-538.2865"/>
<text text-anchor="middle" x="798.2965" y="-526.0145" font-family="Arial" font-size="10.00" fill="#000000">Rietzangerweg</text>
</g>
<!-- 4419 -->
<g id="node32" class="node">
<title>4419</title>
<ellipse fill="#d3d3d3" stroke="#c0c0c0" cx="888.121" cy="-507.5" rx="3.5" ry="3.5"/>
</g>
<!-- 4413&#45;&gt;4419 -->
<g id="edge32" class="edge">
<title>4413&#45;&gt;4419</title>
<path fill="none" stroke="#c0c0c0" d="M852.5253,-543.0957C855.0329,-540.5881 868.6701,-526.9509 878.3158,-517.3052"/>
<polygon fill="#c0c0c0" stroke="#c0c0c0" points="881.0219,-519.5489 885.6181,-510.0029 876.0722,-514.5991 881.0219,-519.5489"/>
</g>
<!-- 4415 -->
<g id="node29" class="node">
<title>4415</title>
<ellipse fill="#d3d3d3" stroke="#c0c0c0" cx="888.121" cy="-435.5" rx="27.3251" ry="27.3251"/>
<text text-anchor="middle" x="888.121" y="-432.5" font-family="Arial" font-size="10.00" fill="#000000">DMN</text>
</g>
<!-- 4418 -->
<g id="node31" class="node">
<title>4418</title>
<ellipse fill="#d3d3d3" stroke="#c0c0c0" cx="888.121" cy="-579.5" rx="3.5" ry="3.5"/>
</g>
<!-- 4417&#45;&gt;4418 -->
<g id="edge18" class="edge">
<title>4417&#45;&gt;4418</title>
<path fill="none" stroke="#c0c0c0" stroke-dasharray="5,2" d="M747.6806,-579.5C767.5166,-579.5 864.2432,-579.5 884.4258,-579.5"/>
<text text-anchor="middle" x="781.8792" y="-582.5" font-family="Arial" font-size="10.00" fill="#000000">Oude Waelweg</text>
</g>
<!-- 4418&#45;&gt;4419 -->
<g id="edge19" class="edge">
<title>4418&#45;&gt;4419</title>
<path fill="none" stroke="#c0c0c0" stroke-dasharray="5,2" d="M888.121,-575.629C888.121,-563.0106 888.121,-523.1838 888.121,-511.0459"/>
<text text-anchor="middle" x="865.895" y="-534.3375" font-family="Arial" font-size="10.00" fill="#000000">Meerkoet </text>
<text text-anchor="middle" x="865.895" y="-522.3375" font-family="Arial" font-size="10.00" fill="#000000"> Zeezigt</text>
</g>
<!-- 4419&#45;&gt;4415 -->
<g id="edge33" class="edge">
<title>4419&#45;&gt;4415</title>
<path fill="none" stroke="#c0c0c0" d="M888.121,-503.629C888.121,-497.6959 888.121,-485.7473 888.121,-473.4902"/>
<polygon fill="#c0c0c0" stroke="#c0c0c0" points="891.6211,-473.2469 888.121,-463.247 884.6211,-473.247 891.6211,-473.2469"/>
<text text-anchor="middle" x="925.338" y="-515.5596" font-family="Arial" font-size="10.00" fill="#000000">Meerkoet </text>
<text text-anchor="middle" x="925.338" y="-503.5596" font-family="Arial" font-size="10.00" fill="#000000"> Fregat </text>
<text text-anchor="middle" x="925.338" y="-491.5596" font-family="Arial" font-size="10.00" fill="#000000"> Hermelijnvlinder</text>
</g>
<!-- 4702 -->
<g id="node34" class="node">
<title>4702</title>
<ellipse fill="#d3d3d3" stroke="#c0c0c0" cx="240.121" cy="-75.5" rx="3.5" ry="3.5"/>
</g>
<!-- 4701&#45;&gt;4702 -->
<g id="edge34" class="edge">
<title>4701&#45;&gt;4702</title>
<path fill="none" stroke="#c0c0c0" d="M168.9296,-75.5C174.4552,-75.5 207.0002,-75.5 226.1196,-75.5"/>
<polygon fill="#c0c0c0" stroke="#c0c0c0" points="226.3261,-79.0001 236.3261,-75.5 226.3261,-72.0001 226.3261,-79.0001"/>
</g>
<!-- 4703 -->
<g id="node35" class="node">
<title>4703</title>
<ellipse fill="#d3d3d3" stroke="#c0c0c0" cx="240.121" cy="-3.5" rx="3.5" ry="3.5"/>
</g>
<!-- 4702&#45;&gt;4703 -->
<g id="edge35" class="edge">
<title>4702&#45;&gt;4703</title>
<path fill="none" stroke="#c0c0c0" d="M240.121,-71.629C240.121,-61.5737 240.121,-34.2408 240.121,-17.4097"/>
<polygon fill="#c0c0c0" stroke="#c0c0c0" points="243.6211,-17.0459 240.121,-7.0459 236.6211,-17.046 243.6211,-17.0459"/>
<text text-anchor="middle" x="203.4475" y="-47.5193" font-family="Arial" font-size="10.00" fill="#000000">Reigersbosdreef</text>
</g>
<!-- 4704 -->
<g id="node36" class="node">
<title>4704</title>
<ellipse fill="#d3d3d3" stroke="#c0c0c0" cx="528.121" cy="-3.5" rx=".5" ry=".5"/>
</g>
<!-- 4703&#45;&gt;4704 -->
<g id="edge36" class="edge">
<title>4703&#45;&gt;4704</title>
<path fill="none" stroke="#c0c0c0" d="M243.7624,-3.5C272.9052,-3.5 468.3849,-3.5 517.1273,-3.5"/>
<polygon fill="#c0c0c0" stroke="#c0c0c0" points="517.3999,-7.0001 527.3999,-3.5 517.3998,-.0001 517.3999,-7.0001"/>
<text text-anchor="middle" x="338.4819" y="-6.5" font-family="Arial" font-size="10.00" fill="#000000">Schoonhovendreef</text>
</g>
<!-- 4705 -->
<g id="node37" class="node">
<title>4705</title>
<ellipse fill="#d3d3d3" stroke="#c0c0c0" cx="528.121" cy="-75.5" rx="3.5" ry="3.5"/>
</g>
<!-- 4704&#45;&gt;4705 -->
<g id="edge37" class="edge">
<title>4704&#45;&gt;4705</title>
<path fill="none" stroke="#c0c0c0" d="M528.121,-4.3086C528.121,-9.8342 528.121,-42.3792 528.121,-61.4986"/>
<polygon fill="#c0c0c0" stroke="#c0c0c0" points="524.6211,-61.7051 528.121,-71.7051 531.6211,-61.7051 524.6211,-61.7051"/>
<text text-anchor="middle" x="487.274" y="-47.9036" font-family="Arial" font-size="10.00" fill="#000000">Wageningendreef </text>
<text text-anchor="middle" x="487.274" y="-35.9036" font-family="Arial" font-size="10.00" fill="#000000"> (via St. Gein)</text>
</g>
<!-- 4706 -->
<g id="node38" class="node">
<title>4706</title>
<ellipse fill="#d3d3d3" stroke="#c0c0c0" cx="384.121" cy="-75.5" rx="3.5" ry="3.5"/>
</g>
<!-- 4705&#45;&gt;4706 -->
<g id="edge38" class="edge">
<title>4705&#45;&gt;4706</title>
<path fill="none" stroke="#c0c0c0" d="M524.5614,-75.5C507.0499,-75.5 429.6131,-75.5 397.8182,-75.5"/>
<polygon fill="#c0c0c0" stroke="#c0c0c0" points="397.8162,-72.0001 387.8161,-75.5 397.8161,-79.0001 397.8162,-72.0001"/>
<text text-anchor="middle" x="432.5708" y="-78.5" font-family="Arial" font-size="10.00" fill="#000000">Valburgdreef</text>
</g>
<!-- 4707 -->
<g id="node39" class="node">
<title>4707</title>
<ellipse fill="#d3d3d3" stroke="#c0c0c0" cx="384.121" cy="-147.5" rx="3.5" ry="3.5"/>
</g>
<!-- 4706&#45;&gt;4707 -->
<g id="edge39" class="edge">
<title>4706&#45;&gt;4707</title>
<path fill="none" stroke="#c0c0c0" d="M384.121,-79.371C384.121,-89.4263 384.121,-116.7592 384.121,-133.5904"/>
<polygon fill="#c0c0c0" stroke="#c0c0c0" points="380.6211,-133.954 384.121,-143.9541 387.6211,-133.9541 380.6211,-133.954"/>
<text text-anchor="middle" x="349.1075" y="-109.4807" font-family="Arial" font-size="10.00" fill="#000000">Langbroekdreef</text>
</g>
<!-- 4708 -->
<g id="node40" class="node">
<title>4708</title>
<ellipse fill="#d3d3d3" stroke="#c0c0c0" cx="528.121" cy="-147.5" rx="3.5" ry="3.5"/>
</g>
<!-- 4707&#45;&gt;4708 -->
<g id="edge40" class="edge">
<title>4707&#45;&gt;4708</title>
<path fill="none" stroke="#c0c0c0" d="M387.6806,-147.5C405.1921,-147.5 482.6288,-147.5 514.4238,-147.5"/>
<polygon fill="#c0c0c0" stroke="#c0c0c0" points="514.4259,-151.0001 524.4258,-147.5 514.4258,-144.0001 514.4259,-151.0001"/>
<text text-anchor="middle" x="475.2224" y="-138.5" font-family="Arial" font-size="10.00" fill="#000000">Langbroekdreef </text>
<text text-anchor="middle" x="475.2224" y="-126.5" font-family="Arial" font-size="10.00" fill="#000000"> (via St. Gaasperplas)</text>
</g>
<!-- 4709 -->
<g id="node41" class="node">
<title>4709</title>
<ellipse fill="#d3d3d3" stroke="#c0c0c0" cx="528.121" cy="-219.5" rx="3.5" ry="3.5"/>
</g>
<!-- 4708&#45;&gt;4709 -->
<g id="edge41" class="edge">
<title>4708&#45;&gt;4709</title>
<path fill="none" stroke="#c0c0c0" d="M528.121,-151.371C528.121,-161.4263 528.121,-188.7592 528.121,-205.5904"/>
<polygon fill="#c0c0c0" stroke="#c0c0c0" points="524.6211,-205.9541 528.121,-215.9541 531.6211,-205.9541 524.6211,-205.9541"/>
<text text-anchor="middle" x="496.457" y="-181.4807" font-family="Arial" font-size="10.00" fill="#000000">Kromwijkdreef</text>
</g>
<!-- 4710 -->
<g id="node42" class="node">
<title>4710</title>
<ellipse fill="#d3d3d3" stroke="#c0c0c0" cx="600.121" cy="-219.5" rx=".5" ry=".5"/>
</g>
<!-- 4709&#45;&gt;4710 -->
<g id="edge42" class="edge">
<title>4709&#45;&gt;4710</title>
<path fill="none" stroke="#c0c0c0" d="M531.992,-219.5C542.7264,-219.5 573.151,-219.5 589.4693,-219.5"/>
<polygon fill="#c0c0c0" stroke="#c0c0c0" points="589.5202,-223.0001 599.5202,-219.5 589.5201,-216.0001 589.5202,-223.0001"/>
<text text-anchor="middle" x="589.0702" y="-210.5" font-family="Arial" font-size="10.00" fill="#000000">Karspeldreef</text>
</g>
<!-- 4711 -->
<g id="node43" class="node">
<title>4711</title>
<ellipse fill="#d3d3d3" stroke="#c0c0c0" cx="600.121" cy="-363.5" rx=".5" ry=".5"/>
</g>
<!-- 4710&#45;&gt;4711 -->
<g id="edge12" class="edge">
<title>4710&#45;&gt;4711</title>
<path fill="none" stroke="#c0c0c0" d="M600.121,-220.142C600.121,-228.6896 600.121,-320.2279 600.121,-352.398"/>
<polygon fill="#c0c0c0" stroke="#c0c0c0" points="596.6211,-352.6498 600.121,-362.6498 603.6211,-352.6499 596.6211,-352.6498"/>
<text text-anchor="middle" x="559.5635" y="-289.27" font-family="Arial" font-size="10.00" fill="#000000">`s&#45;Gravendijkdreef</text>
</g>
<!-- 4711&#45;&gt;4115 -->
<g id="edge43" class="edge">
<title>4711&#45;&gt;4115</title>
<path fill="none" stroke="#c0c0c0" d="M599.479,-363.5C591.1671,-363.5 504.3785,-363.5 470.0168,-363.5"/>
<polygon fill="#c0c0c0" stroke="#c0c0c0" points="469.6873,-360.0001 459.6873,-363.5 469.6872,-367.0001 469.6873,-360.0001"/>
<text text-anchor="middle" x="508.0839" y="-366.5" font-family="Arial" font-size="10.00" fill="#000000">Bijlmerdreef</text>
</g>
<!-- 4713 -->
<g id="node45" class="node">
<title>4713</title>
<ellipse fill="#d3d3d3" stroke="#c0c0c0" cx="240.121" cy="-291.5" rx="3.5" ry="3.5"/>
</g>
<!-- 4712&#45;&gt;4713 -->
<g id="edge46" class="edge">
<title>4712&#45;&gt;4713</title>
<path fill="none" stroke="#c0c0c0" d="M240.121,-349.5306C240.121,-336.7648 240.121,-317.9941 240.121,-305.2861"/>
<polygon fill="#c0c0c0" stroke="#c0c0c0" points="236.6211,-349.6289 240.121,-359.629 243.6211,-349.629 236.6211,-349.6289"/>
<polygon fill="#c0c0c0" stroke="#c0c0c0" points="243.6211,-305.0459 240.121,-295.0459 236.6211,-305.046 243.6211,-305.0459"/>
<text text-anchor="middle" x="207.8875" y="-330.4084" font-family="Arial" font-size="10.00" fill="#000000">Foppingadreef</text>
</g>
<!-- 4714 -->
<g id="node46" class="node">
<title>4714</title>
<ellipse fill="#d3d3d3" stroke="#c0c0c0" cx="96.121" cy="-291.5" rx="27.047" ry="27.047"/>
<text text-anchor="middle" x="96.121" y="-288.5" font-family="Arial" font-size="10.00" fill="#000000">BMR</text>
</g>
<!-- 4713&#45;&gt;4714 -->
<g id="edge47" class="edge">
<title>4713&#45;&gt;4714</title>
<path fill="none" stroke="#c0c0c0" d="M226.2434,-291.5C205.0598,-291.5 163.9202,-291.5 133.5459,-291.5"/>
<polygon fill="#c0c0c0" stroke="#c0c0c0" points="226.5614,-295.0001 236.5614,-291.5 226.5614,-288.0001 226.5614,-295.0001"/>
<polygon fill="#c0c0c0" stroke="#c0c0c0" points="133.3015,-288.0001 123.3015,-291.5 133.3014,-295.0001 133.3015,-288.0001"/>
<text text-anchor="middle" x="197.2612" y="-282.5" font-family="Arial" font-size="10.00" fill="#000000">Hoogoorddreef </text>
<text text-anchor="middle" x="197.2612" y="-270.5" font-family="Arial" font-size="10.00" fill="#000000"> (lijn 44*, 47)</text>
</g>
</g>
</svg>

