<?xml version="1.0" encoding="UTF-8" standalone="no"?>
<!DOCTYPE svg PUBLIC "-//W3C//DTD SVG 1.1//EN"
 "http://www.w3.org/Graphics/SVG/1.1/DTD/svg11.dtd">
<!-- Generated by graphviz version 2.40.1 (20161225.0304)
 -->
<!-- Title: G Pages: 1 -->
<svg width="515pt" height="825pt"
 viewBox="0.00 0.00 514.68 824.72" xmlns="http://www.w3.org/2000/svg" xmlns:xlink="http://www.w3.org/1999/xlink">
<g id="graph0" class="graph" transform="scale(1 1) rotate(0) translate(4 820.7167)">
<title>G</title>
<polygon fill="#ffffff" stroke="transparent" points="-4,4 -4,-820.7167 510.6753,-820.7167 510.6753,4 -4,4"/>
<!-- 4100 -->
<g id="node1" class="node">
<title>4100</title>
<ellipse fill="#d3d3d3" stroke="#c0c0c0" cx="143.1753" cy="-795.5" rx="21.4356" ry="21.4356"/>
<text text-anchor="middle" x="143.1753" y="-793.4" font-family="Arial" font-size="7.00" fill="#000000">ASA</text>
</g>
<!-- 4101 -->
<g id="node2" class="node">
<title>4101</title>
<ellipse fill="#d3d3d3" stroke="#c0c0c0" cx="215.1753" cy="-795.5" rx="3.5" ry="3.5"/>
</g>
<!-- 4101&#45;&gt;4100 -->
<g id="edge1" class="edge">
<title>4101&#45;&gt;4100</title>
<path fill="none" stroke="#c0c0c0" d="M211.3043,-795.5C204.347,-795.5 189.1184,-795.5 174.82,-795.5"/>
<polygon fill="#c0c0c0" stroke="#c0c0c0" points="174.7046,-792.0001 164.7045,-795.5 174.7045,-799.0001 174.7046,-792.0001"/>
<text text-anchor="middle" x="193.0621" y="-789.2" font-family="Arial" font-size="7.00" fill="#000000">Over&#45;</text>
<text text-anchor="middle" x="193.0621" y="-780.8" font-family="Arial" font-size="7.00" fill="#000000">&#45;zichtweg</text>
</g>
<!-- 4102 -->
<g id="node3" class="node">
<title>4102</title>
<ellipse fill="#d3d3d3" stroke="#c0c0c0" cx="287.1753" cy="-795.5" rx="3.5" ry="3.5"/>
</g>
<!-- 4102&#45;&gt;4101 -->
<g id="edge2" class="edge">
<title>4102&#45;&gt;4101</title>
<path fill="none" stroke="#c0c0c0" d="M283.3043,-795.5C273.249,-795.5 245.9161,-795.5 229.085,-795.5"/>
<polygon fill="#c0c0c0" stroke="#c0c0c0" points="228.7213,-792.0001 218.7212,-795.5 228.7212,-799.0001 228.7213,-792.0001"/>
<text text-anchor="middle" x="256.1946" y="-789.2" font-family="Arial" font-size="7.00" fill="#000000">Hugo de Vrieslaan</text>
</g>
<!-- 4103 -->
<g id="node4" class="node">
<title>4103</title>
<ellipse fill="#d3d3d3" stroke="#c0c0c0" cx="287.1753" cy="-723.5" rx="3.5" ry="3.5"/>
</g>
<!-- 4103&#45;&gt;4102 -->
<g id="edge3" class="edge">
<title>4103&#45;&gt;4102</title>
<path fill="none" stroke="#c0c0c0" d="M287.1753,-727.371C287.1753,-737.4263 287.1753,-764.7592 287.1753,-781.5903"/>
<polygon fill="#c0c0c0" stroke="#c0c0c0" points="283.6754,-781.954 287.1753,-791.9541 290.6754,-781.9541 283.6754,-781.954"/>
<text text-anchor="middle" x="265.7872" y="-756.5807" font-family="Arial" font-size="7.00" fill="#000000">Maxwellstraat</text>
</g>
<!-- 4104 -->
<g id="node5" class="node">
<title>4104</title>
<ellipse fill="#d3d3d3" stroke="#c0c0c0" cx="215.1753" cy="-723.5" rx="3.5" ry="3.5"/>
</g>
<!-- 4104&#45;&gt;4103 -->
<g id="edge4" class="edge">
<title>4104&#45;&gt;4103</title>
<path fill="none" stroke="#c0c0c0" d="M219.0463,-723.5C229.1016,-723.5 256.4345,-723.5 273.2657,-723.5"/>
<polygon fill="#c0c0c0" stroke="#c0c0c0" points="273.6294,-727.0001 283.6294,-723.5 273.6293,-720.0001 273.6294,-727.0001"/>
<text text-anchor="middle" x="260.7412" y="-725.6" font-family="Arial" font-size="7.00" fill="#000000">Kruislaan</text>
</g>
<!-- 4105 -->
<g id="node6" class="node">
<title>4105</title>
<ellipse fill="#d3d3d3" stroke="#c0c0c0" cx="215.1753" cy="-651.5" rx="3.5" ry="3.5"/>
</g>
<!-- 4105&#45;&gt;4104 -->
<g id="edge5" class="edge">
<title>4105&#45;&gt;4104</title>
<path fill="none" stroke="#c0c0c0" d="M215.1753,-655.371C215.1753,-665.4263 215.1753,-692.7592 215.1753,-709.5903"/>
<polygon fill="#c0c0c0" stroke="#c0c0c0" points="211.6754,-709.954 215.1753,-719.9541 218.6754,-709.9541 211.6754,-709.954"/>
<text text-anchor="middle" x="191.446" y="-684.5807" font-family="Arial" font-size="7.00" fill="#000000">Rozenburglaan</text>
</g>
<!-- 4106 -->
<g id="node7" class="node">
<title>4106</title>
<ellipse fill="#d3d3d3" stroke="#c0c0c0" cx="143.1753" cy="-651.5" rx="3.5" ry="3.5"/>
</g>
<!-- 4106&#45;&gt;4105 -->
<g id="edge6" class="edge">
<title>4106&#45;&gt;4105</title>
<path fill="none" stroke="#c0c0c0" d="M147.0463,-651.5C157.1016,-651.5 184.4345,-651.5 201.2657,-651.5"/>
<polygon fill="#c0c0c0" stroke="#c0c0c0" points="201.6294,-655.0001 211.6294,-651.5 201.6293,-648.0001 201.6294,-655.0001"/>
<text text-anchor="middle" x="188.9375" y="-653.6" font-family="Arial" font-size="7.00" fill="#000000">Randweg</text>
</g>
<!-- 4107 -->
<g id="node8" class="node">
<title>4107</title>
<ellipse fill="#d3d3d3" stroke="#c0c0c0" cx="143.1753" cy="-579.5" rx="3.5" ry="3.5"/>
</g>
<!-- 4107&#45;&gt;4106 -->
<g id="edge7" class="edge">
<title>4107&#45;&gt;4106</title>
<path fill="none" stroke="#c0c0c0" d="M143.1753,-583.371C143.1753,-593.4263 143.1753,-620.7592 143.1753,-637.5903"/>
<polygon fill="#c0c0c0" stroke="#c0c0c0" points="139.6754,-637.954 143.1753,-647.9541 146.6754,-637.9541 139.6754,-637.954"/>
<text text-anchor="middle" x="120.4257" y="-612.5807" font-family="Arial" font-size="7.00" fill="#000000">Rijksstraatweg</text>
</g>
<!-- 4108 -->
<g id="node9" class="node">
<title>4108</title>
<ellipse fill="#d3d3d3" stroke="#c0c0c0" cx="71.1753" cy="-579.5" rx="3.5" ry="3.5"/>
</g>
<!-- 4108&#45;&gt;4107 -->
<g id="edge8" class="edge">
<title>4108&#45;&gt;4107</title>
<path fill="none" stroke="#c0c0c0" d="M75.0463,-579.5C85.1016,-579.5 112.4345,-579.5 129.2657,-579.5"/>
<polygon fill="#c0c0c0" stroke="#c0c0c0" points="129.6294,-583.0001 139.6294,-579.5 129.6293,-576.0001 129.6294,-583.0001"/>
<text text-anchor="middle" x="88.3436" y="-581.6" font-family="Arial" font-size="7.00" fill="#000000">Busbaan</text>
</g>
<!-- 4109 -->
<g id="node10" class="node">
<title>4109</title>
<ellipse fill="#d3d3d3" stroke="#c0c0c0" cx="71.1753" cy="-435.5" rx="3.5" ry="3.5"/>
</g>
<!-- 4109&#45;&gt;4108 -->
<g id="edge9" class="edge">
<title>4109&#45;&gt;4108</title>
<path fill="none" stroke="#c0c0c0" d="M71.1753,-439.0596C71.1753,-456.5711 71.1753,-534.0079 71.1753,-565.8028"/>
<polygon fill="#c0c0c0" stroke="#c0c0c0" points="67.6754,-565.8048 71.1753,-575.8048 74.6754,-565.8049 67.6754,-565.8048"/>
<text text-anchor="middle" x="35.5877" y="-521.3312" font-family="Arial" font-size="7.00" fill="#000000">Stationsweg </text>
<text text-anchor="middle" x="35.5877" y="-512.9312" font-family="Arial" font-size="7.00" fill="#000000"> (via St. Duivendrecht) </text>
<text text-anchor="middle" x="35.5877" y="-504.5312" font-family="Arial" font-size="7.00" fill="#000000"> Pablo Nerudalaan</text>
</g>
<!-- 4110 -->
<g id="node11" class="node">
<title>4110</title>
<ellipse fill="#d3d3d3" stroke="#c0c0c0" cx="143.1753" cy="-435.5" rx="3.5" ry="3.5"/>
</g>
<!-- 4110&#45;&gt;4109 -->
<g id="edge10" class="edge">
<title>4110&#45;&gt;4109</title>
<path fill="none" stroke="#c0c0c0" d="M139.3043,-435.5C129.249,-435.5 101.9161,-435.5 85.085,-435.5"/>
<polygon fill="#c0c0c0" stroke="#c0c0c0" points="84.7213,-432.0001 74.7212,-435.5 84.7212,-439.0001 84.7213,-432.0001"/>
<text text-anchor="middle" x="93.5253" y="-446" font-family="Arial" font-size="7.00" fill="#000000">Alexander </text>
<text text-anchor="middle" x="93.5253" y="-437.6" font-family="Arial" font-size="7.00" fill="#000000"> Dumaslaan</text>
</g>
<!-- 4113 -->
<g id="node14" class="node">
<title>4113</title>
<ellipse fill="#d3d3d3" stroke="#c0c0c0" cx="143.1753" cy="-507.5" rx="3.5" ry="3.5"/>
</g>
<!-- 4110&#45;&gt;4113 -->
<g id="edge14" class="edge">
<title>4110&#45;&gt;4113</title>
<path fill="none" stroke="#c0c0c0" d="M143.1753,-439.371C143.1753,-449.4263 143.1753,-476.7592 143.1753,-493.5903"/>
<polygon fill="#c0c0c0" stroke="#c0c0c0" points="139.6754,-493.954 143.1753,-503.9541 146.6754,-493.9541 139.6754,-493.954"/>
<text text-anchor="middle" x="123.338" y="-468.5807" font-family="Arial" font-size="7.00" fill="#000000">Dolingadreef</text>
</g>
<!-- 4111 -->
<g id="node12" class="node">
<title>4111</title>
<ellipse fill="#d3d3d3" stroke="#c0c0c0" cx="215.1753" cy="-435.5" rx="3.5" ry="3.5"/>
</g>
<!-- 4111&#45;&gt;4110 -->
<g id="edge11" class="edge">
<title>4111&#45;&gt;4110</title>
<path fill="none" stroke="#c0c0c0" d="M211.3043,-435.5C201.249,-435.5 173.9161,-435.5 157.085,-435.5"/>
<polygon fill="#c0c0c0" stroke="#c0c0c0" points="156.7213,-432.0001 146.7212,-435.5 156.7212,-439.0001 156.7213,-432.0001"/>
<text text-anchor="middle" x="184.1946" y="-429.2" font-family="Arial" font-size="7.00" fill="#000000">Charlotte </text>
<text text-anchor="middle" x="184.1946" y="-420.8" font-family="Arial" font-size="7.00" fill="#000000"> Brontéstraat</text>
</g>
<!-- 4112 -->
<g id="node13" class="node">
<title>4112</title>
<ellipse fill="#d3d3d3" stroke="#c0c0c0" cx="215.1753" cy="-507.5" rx="3.5" ry="3.5"/>
</g>
<!-- 4112&#45;&gt;4111 -->
<g id="edge12" class="edge">
<title>4112&#45;&gt;4111</title>
<path fill="none" stroke="#c0c0c0" d="M215.1753,-503.629C215.1753,-493.5737 215.1753,-466.2408 215.1753,-449.4097"/>
<polygon fill="#c0c0c0" stroke="#c0c0c0" points="218.6754,-449.0459 215.1753,-439.0459 211.6754,-449.046 218.6754,-449.0459"/>
<text text-anchor="middle" x="196.1171" y="-478.6193" font-family="Arial" font-size="7.00" fill="#000000">Dickenslaan</text>
</g>
<!-- 4113&#45;&gt;4112 -->
<g id="edge13" class="edge">
<title>4113&#45;&gt;4112</title>
<path fill="none" stroke="#c0c0c0" d="M147.0463,-507.5C157.1016,-507.5 184.4345,-507.5 201.2657,-507.5"/>
<polygon fill="#c0c0c0" stroke="#c0c0c0" points="201.6294,-511.0001 211.6294,-507.5 201.6293,-504.0001 201.6294,-511.0001"/>
<text text-anchor="middle" x="184.4631" y="-501.2" font-family="Arial" font-size="7.00" fill="#000000">Dalsteindreef</text>
</g>
<!-- 4114 -->
<g id="node15" class="node">
<title>4114</title>
<ellipse fill="#d3d3d3" stroke="#c0c0c0" cx="143.1753" cy="-363.5" rx="3.5" ry="3.5"/>
</g>
<!-- 4114&#45;&gt;4110 -->
<g id="edge15" class="edge">
<title>4114&#45;&gt;4110</title>
<path fill="none" stroke="#c0c0c0" d="M143.1753,-367.371C143.1753,-377.4263 143.1753,-404.7592 143.1753,-421.5904"/>
<polygon fill="#c0c0c0" stroke="#c0c0c0" points="139.6754,-421.954 143.1753,-431.9541 146.6754,-421.9541 139.6754,-421.954"/>
<text text-anchor="middle" x="123.338" y="-396.5807" font-family="Arial" font-size="7.00" fill="#000000">Dolingadreef</text>
</g>
<!-- 4115 -->
<g id="node16" class="node">
<title>4115</title>
<ellipse fill="#d3d3d3" stroke="#c0c0c0" cx="215.1753" cy="-363.5" rx="3.5" ry="3.5"/>
</g>
<!-- 4115&#45;&gt;4114 -->
<g id="edge16" class="edge">
<title>4115&#45;&gt;4114</title>
<path fill="none" stroke="#c0c0c0" d="M211.3043,-363.5C201.249,-363.5 173.9161,-363.5 157.085,-363.5"/>
<polygon fill="#c0c0c0" stroke="#c0c0c0" points="156.7213,-360.0001 146.7212,-363.5 156.7212,-367.0001 156.7213,-360.0001"/>
<text text-anchor="middle" x="165.5298" y="-365.6" font-family="Arial" font-size="7.00" fill="#000000">Bijlmerdreef</text>
</g>
<!-- 4116 -->
<g id="node17" class="node">
<title>4116</title>
<ellipse fill="#d3d3d3" stroke="#c0c0c0" cx="215.1753" cy="-219.5" rx="3.5" ry="3.5"/>
</g>
<!-- 4116&#45;&gt;4115 -->
<g id="edge17" class="edge">
<title>4116&#45;&gt;4115</title>
<path fill="none" stroke="#c0c0c0" d="M215.1753,-223.0596C215.1753,-240.5711 215.1753,-318.0079 215.1753,-349.8028"/>
<polygon fill="#c0c0c0" stroke="#c0c0c0" points="211.6754,-349.8048 215.1753,-359.8048 218.6754,-349.8049 211.6754,-349.8048"/>
<text text-anchor="middle" x="186.7851" y="-288.5312" font-family="Arial" font-size="7.00" fill="#000000">`s&#45;Gravendijkdreef</text>
</g>
<!-- 4117 -->
<g id="node18" class="node">
<title>4117</title>
<ellipse fill="#d3d3d3" stroke="#c0c0c0" cx="143.1753" cy="-219.5" rx="3.5" ry="3.5"/>
</g>
<!-- 4117&#45;&gt;4116 -->
<g id="edge18" class="edge">
<title>4117&#45;&gt;4116</title>
<path fill="none" stroke="#c0c0c0" d="M147.0463,-219.5C157.1016,-219.5 184.4345,-219.5 201.2657,-219.5"/>
<polygon fill="#c0c0c0" stroke="#c0c0c0" points="201.6294,-223.0001 211.6294,-219.5 201.6293,-216.0001 201.6294,-223.0001"/>
<text text-anchor="middle" x="184.0748" y="-213.2" font-family="Arial" font-size="7.00" fill="#000000">Karspeldreef</text>
</g>
<!-- 4118 -->
<g id="node19" class="node">
<title>4118</title>
<ellipse fill="#d3d3d3" stroke="#c0c0c0" cx="143.1753" cy="-147.5" rx="3.5" ry="3.5"/>
</g>
<!-- 4118&#45;&gt;4117 -->
<g id="edge19" class="edge">
<title>4118&#45;&gt;4117</title>
<path fill="none" stroke="#c0c0c0" d="M143.1753,-151.371C143.1753,-161.4263 143.1753,-188.7592 143.1753,-205.5903"/>
<polygon fill="#c0c0c0" stroke="#c0c0c0" points="139.6754,-205.954 143.1753,-215.9541 146.6754,-205.9541 139.6754,-205.954"/>
<text text-anchor="middle" x="119.6455" y="-197.3807" font-family="Arial" font-size="7.00" fill="#000000">Meerkerkdreef </text>
<text text-anchor="middle" x="119.6455" y="-188.9807" font-family="Arial" font-size="7.00" fill="#000000"> Huntumdreef </text>
<text text-anchor="middle" x="119.6455" y="-180.5807" font-family="Arial" font-size="7.00" fill="#000000"> (lijn 41)</text>
</g>
<!-- 4701 -->
<g id="node21" class="node">
<title>4701</title>
<ellipse fill="#d3d3d3" stroke="#c0c0c0" cx="143.1753" cy="-75.5" rx="3.5" ry="3.5"/>
</g>
<!-- 4118&#45;&gt;4701 -->
<g id="edge21" class="edge">
<title>4118&#45;&gt;4701</title>
<path fill="none" stroke="#c0c0c0" d="M143.1753,-143.629C143.1753,-133.5737 143.1753,-106.2408 143.1753,-89.4097"/>
<polygon fill="#c0c0c0" stroke="#c0c0c0" points="146.6754,-89.0459 143.1753,-79.0459 139.6754,-89.046 146.6754,-89.0459"/>
<text text-anchor="middle" x="119.6455" y="-127.0193" font-family="Arial" font-size="7.00" fill="#000000">Meerkerkdreef </text>
<text text-anchor="middle" x="119.6455" y="-118.6193" font-family="Arial" font-size="7.00" fill="#000000"> (lijn 47)</text>
</g>
<!-- 4119 -->
<g id="node20" class="node">
<title>4119</title>
<ellipse fill="#d3d3d3" stroke="#c0c0c0" cx="71.1753" cy="-147.5" rx="21.4778" ry="21.4778"/>
<text text-anchor="middle" x="71.1753" y="-145.4" font-family="Arial" font-size="7.00" fill="#000000">HOL</text>
</g>
<!-- 4119&#45;&gt;4118 -->
<g id="edge20" class="edge">
<title>4119&#45;&gt;4118</title>
<path fill="none" stroke="#c0c0c0" d="M92.7777,-147.5C104.5571,-147.5 118.7987,-147.5 129.1335,-147.5"/>
<polygon fill="#c0c0c0" stroke="#c0c0c0" points="129.3741,-151.0001 139.3741,-147.5 129.3741,-144.0001 129.3741,-151.0001"/>
<text text-anchor="middle" x="138.768" y="-158" font-family="Arial" font-size="7.00" fill="#000000">Meibergdreef </text>
<text text-anchor="middle" x="138.768" y="-149.6" font-family="Arial" font-size="7.00" fill="#000000"> Holendrechtdreef</text>
</g>
<!-- 4702 -->
<g id="node22" class="node">
<title>4702</title>
<ellipse fill="#d3d3d3" stroke="#c0c0c0" cx="215.1753" cy="-75.5" rx="3.5" ry="3.5"/>
</g>
<!-- 4701&#45;&gt;4702 -->
<g id="edge22" class="edge">
<title>4701&#45;&gt;4702</title>
<path fill="none" stroke="#c0c0c0" d="M147.0463,-75.5C157.1016,-75.5 184.4345,-75.5 201.2657,-75.5"/>
<polygon fill="#c0c0c0" stroke="#c0c0c0" points="201.6294,-79.0001 211.6294,-75.5 201.6293,-72.0001 201.6294,-79.0001"/>
<text text-anchor="middle" x="185.4346" y="-69.2" font-family="Arial" font-size="7.00" fill="#000000">Meerkerkdreef</text>
</g>
<!-- 4703 -->
<g id="node23" class="node">
<title>4703</title>
<ellipse fill="#d3d3d3" stroke="#c0c0c0" cx="215.1753" cy="-3.5" rx="3.5" ry="3.5"/>
</g>
<!-- 4702&#45;&gt;4703 -->
<g id="edge23" class="edge">
<title>4702&#45;&gt;4703</title>
<path fill="none" stroke="#c0c0c0" d="M215.1753,-71.629C215.1753,-61.5737 215.1753,-34.2408 215.1753,-17.4097"/>
<polygon fill="#c0c0c0" stroke="#c0c0c0" points="218.6754,-17.0459 215.1753,-7.0459 211.6754,-17.046 218.6754,-17.0459"/>
<text text-anchor="middle" x="189.5039" y="-46.6193" font-family="Arial" font-size="7.00" fill="#000000">Reigersbosdreef</text>
</g>
<!-- 4704 -->
<g id="node24" class="node">
<title>4704</title>
<ellipse fill="#d3d3d3" stroke="#c0c0c0" cx="503.1753" cy="-3.5" rx="3.5" ry="3.5"/>
</g>
<!-- 4703&#45;&gt;4704 -->
<g id="edge24" class="edge">
<title>4703&#45;&gt;4704</title>
<path fill="none" stroke="#c0c0c0" d="M218.8167,-3.5C247.4503,-3.5 436.6587,-3.5 489.4939,-3.5"/>
<polygon fill="#c0c0c0" stroke="#c0c0c0" points="489.6152,-7.0001 499.6152,-3.5 489.6152,-.0001 489.6152,-7.0001"/>
<text text-anchor="middle" x="324.7812" y="-5.6" font-family="Arial" font-size="7.00" fill="#000000">Schoonhovendreef</text>
</g>
<!-- 4705 -->
<g id="node25" class="node">
<title>4705</title>
<ellipse fill="#d3d3d3" stroke="#c0c0c0" cx="503.1753" cy="-75.5" rx="3.5" ry="3.5"/>
</g>
<!-- 4704&#45;&gt;4705 -->
<g id="edge25" class="edge">
<title>4704&#45;&gt;4705</title>
<path fill="none" stroke="#c0c0c0" d="M503.1753,-7.371C503.1753,-17.4263 503.1753,-44.7592 503.1753,-61.5903"/>
<polygon fill="#c0c0c0" stroke="#c0c0c0" points="499.6754,-61.954 503.1753,-71.9541 506.6754,-61.9541 499.6754,-61.954"/>
<text text-anchor="middle" x="475.5551" y="-36.5807" font-family="Arial" font-size="7.00" fill="#000000">Wageningendreef</text>
</g>
<!-- 4706 -->
<g id="node26" class="node">
<title>4706</title>
<ellipse fill="#d3d3d3" stroke="#c0c0c0" cx="431.1753" cy="-75.5" rx="3.5" ry="3.5"/>
</g>
<!-- 4705&#45;&gt;4706 -->
<g id="edge26" class="edge">
<title>4705&#45;&gt;4706</title>
<path fill="none" stroke="#c0c0c0" d="M499.3043,-75.5C489.249,-75.5 461.9161,-75.5 445.085,-75.5"/>
<polygon fill="#c0c0c0" stroke="#c0c0c0" points="444.7213,-72.0001 434.7212,-75.5 444.7212,-79.0001 444.7213,-72.0001"/>
<text text-anchor="middle" x="472.1946" y="-69.2" font-family="Arial" font-size="7.00" fill="#000000">Valburgdreef</text>
</g>
<!-- 4707 -->
<g id="node27" class="node">
<title>4707</title>
<ellipse fill="#d3d3d3" stroke="#c0c0c0" cx="431.1753" cy="-147.5" rx="3.5" ry="3.5"/>
</g>
<!-- 4706&#45;&gt;4707 -->
<g id="edge27" class="edge">
<title>4706&#45;&gt;4707</title>
<path fill="none" stroke="#c0c0c0" d="M431.1753,-79.371C431.1753,-89.4263 431.1753,-116.7592 431.1753,-133.5903"/>
<polygon fill="#c0c0c0" stroke="#c0c0c0" points="427.6754,-133.954 431.1753,-143.9541 434.6754,-133.9541 427.6754,-133.954"/>
<text text-anchor="middle" x="406.6659" y="-108.5807" font-family="Arial" font-size="7.00" fill="#000000">Langbroekdreef</text>
</g>
<!-- 4708 -->
<g id="node28" class="node">
<title>4708</title>
<ellipse fill="#d3d3d3" stroke="#c0c0c0" cx="503.1753" cy="-147.5" rx="3.5" ry="3.5"/>
</g>
<!-- 4707&#45;&gt;4708 -->
<g id="edge28" class="edge">
<title>4707&#45;&gt;4708</title>
<path fill="none" stroke="#c0c0c0" d="M435.0463,-147.5C445.1016,-147.5 472.4345,-147.5 489.2656,-147.5"/>
<polygon fill="#c0c0c0" stroke="#c0c0c0" points="489.6294,-151.0001 499.6294,-147.5 489.6293,-144.0001 489.6294,-151.0001"/>
<text text-anchor="middle" x="428.3176" y="-158" font-family="Arial" font-size="7.00" fill="#000000">Langbroekdreef </text>
<text text-anchor="middle" x="428.3176" y="-149.6" font-family="Arial" font-size="7.00" fill="#000000"> (via St. Gaasperplas)</text>
</g>
<!-- 4709 -->
<g id="node29" class="node">
<title>4709</title>
<ellipse fill="#d3d3d3" stroke="#c0c0c0" cx="503.1753" cy="-219.5" rx="3.5" ry="3.5"/>
</g>
<!-- 4708&#45;&gt;4709 -->
<g id="edge29" class="edge">
<title>4708&#45;&gt;4709</title>
<path fill="none" stroke="#c0c0c0" d="M503.1753,-151.371C503.1753,-161.4263 503.1753,-188.7592 503.1753,-205.5903"/>
<polygon fill="#c0c0c0" stroke="#c0c0c0" points="499.6754,-205.954 503.1753,-215.9541 506.6754,-205.9541 499.6754,-205.954"/>
<text text-anchor="middle" x="481.0105" y="-180.5807" font-family="Arial" font-size="7.00" fill="#000000">Kromwijkdreef</text>
</g>
<!-- 4710 -->
<g id="node30" class="node">
<title>4710</title>
<ellipse fill="#d3d3d3" stroke="#c0c0c0" cx="431.1753" cy="-219.5" rx="3.5" ry="3.5"/>
</g>
<!-- 4709&#45;&gt;4710 -->
<g id="edge30" class="edge">
<title>4709&#45;&gt;4710</title>
<path fill="none" stroke="#c0c0c0" d="M499.3043,-219.5C489.249,-219.5 461.9161,-219.5 445.085,-219.5"/>
<polygon fill="#c0c0c0" stroke="#c0c0c0" points="444.7213,-216.0001 434.7212,-219.5 444.7212,-223.0001 444.7213,-216.0001"/>
<text text-anchor="middle" x="472.1946" y="-213.2" font-family="Arial" font-size="7.00" fill="#000000">Karspeldreef</text>
</g>
<!-- 4711 -->
<g id="node31" class="node">
<title>4711</title>
<ellipse fill="#d3d3d3" stroke="#c0c0c0" cx="431.1753" cy="-363.5" rx="3.5" ry="3.5"/>
</g>
<!-- 4710&#45;&gt;4711 -->
<g id="edge31" class="edge">
<title>4710&#45;&gt;4711</title>
<path fill="none" stroke="#c0c0c0" d="M431.1753,-223.0596C431.1753,-240.5711 431.1753,-318.0079 431.1753,-349.8028"/>
<polygon fill="#c0c0c0" stroke="#c0c0c0" points="427.6754,-349.8048 431.1753,-359.8048 434.6754,-349.8049 427.6754,-349.8048"/>
<text text-anchor="middle" x="406.0845" y="-288.5312" font-family="Arial" font-size="7.00" fill="#000000">Groesbeekdreef</text>
</g>
<!-- 4712 -->
<g id="node32" class="node">
<title>4712</title>
<ellipse fill="#d3d3d3" stroke="#c0c0c0" cx="359.1753" cy="-363.5" rx="3.5" ry="3.5"/>
</g>
<!-- 4711&#45;&gt;4712 -->
<g id="edge32" class="edge">
<title>4711&#45;&gt;4712</title>
<path fill="none" stroke="#c0c0c0" d="M427.3043,-363.5C417.249,-363.5 389.9161,-363.5 373.085,-363.5"/>
<polygon fill="#c0c0c0" stroke="#c0c0c0" points="372.7213,-360.0001 362.7212,-363.5 372.7212,-367.0001 372.7213,-360.0001"/>
<text text-anchor="middle" x="381.5298" y="-365.6" font-family="Arial" font-size="7.00" fill="#000000">Bijlmerdreef</text>
</g>
<!-- 4713 -->
<g id="node33" class="node">
<title>4713</title>
<ellipse fill="#d3d3d3" stroke="#c0c0c0" cx="359.1753" cy="-291.5" rx="3.5" ry="3.5"/>
</g>
<!-- 4712&#45;&gt;4713 -->
<g id="edge33" class="edge">
<title>4712&#45;&gt;4713</title>
<path fill="none" stroke="#c0c0c0" d="M359.1753,-359.629C359.1753,-349.5737 359.1753,-322.2408 359.1753,-305.4097"/>
<polygon fill="#c0c0c0" stroke="#c0c0c0" points="362.6754,-305.0459 359.1753,-295.0459 355.6754,-305.046 362.6754,-305.0459"/>
<text text-anchor="middle" x="336.6119" y="-334.6193" font-family="Arial" font-size="7.00" fill="#000000">Foppingadreef</text>
</g>
<!-- 4714 -->
<g id="node34" class="node">
<title>4714</title>
<ellipse fill="#d3d3d3" stroke="#c0c0c0" cx="287.1753" cy="-291.5" rx="22.1227" ry="22.1227"/>
<text text-anchor="middle" x="287.1753" y="-289.4" font-family="Arial" font-size="7.00" fill="#000000">BMR</text>
</g>
<!-- 4713&#45;&gt;4714 -->
<g id="edge34" class="edge">
<title>4713&#45;&gt;4714</title>
<path fill="none" stroke="#c0c0c0" d="M355.3043,-291.5C348.5542,-291.5 334.0182,-291.5 320.0998,-291.5"/>
<polygon fill="#c0c0c0" stroke="#c0c0c0" points="319.7159,-288.0001 309.7159,-291.5 319.7158,-295.0001 319.7159,-288.0001"/>
<text text-anchor="middle" x="337.702" y="-285.2" font-family="Arial" font-size="7.00" fill="#000000">Hoogoorddreef</text>
</g>
</g>
</svg>

