<?xml version="1.0" encoding="UTF-8" standalone="no"?>
<!DOCTYPE svg PUBLIC "-//W3C//DTD SVG 1.1//EN"
 "http://www.w3.org/Graphics/SVG/1.1/DTD/svg11.dtd">
<!-- Generated by graphviz version 2.40.1 (20161225.0304)
 -->
<!-- Title: G Pages: 1 -->
<svg width="936pt" height="447pt"
 viewBox="0.00 0.00 935.51 447.00" xmlns="http://www.w3.org/2000/svg" xmlns:xlink="http://www.w3.org/1999/xlink">
<g id="graph0" class="graph" transform="scale(1 1) rotate(0) translate(4 443)">
<title>G</title>
<polygon fill="#ffffff" stroke="transparent" points="-4,4 -4,-443 931.508,-443 931.508,4 -4,4"/>
<!-- 6300 -->
<g id="node1" class="node">
<title>6300</title>
<ellipse fill="#d3d3d3" stroke="#c0c0c0" cx="420.008" cy="-291.5" rx="23.2127" ry="23.2127"/>
<text text-anchor="middle" x="420.008" y="-288.5" font-family="Arial" font-size="10.00" fill="#000000">LLL</text>
</g>
<!-- 6301 -->
<g id="node2" class="node">
<title>6301</title>
<ellipse fill="#d3d3d3" stroke="#c0c0c0" cx="348.008" cy="-291.5" rx="3.5" ry="3.5"/>
</g>
<!-- 6300&#45;&gt;6301 -->
<g id="edge1" class="edge">
<title>6300&#45;&gt;6301</title>
<path fill="none" stroke="#c0c0c0" d="M396.8304,-291.5C385.2685,-291.5 371.6768,-291.5 361.774,-291.5"/>
<polygon fill="#c0c0c0" stroke="#c0c0c0" points="361.634,-288.0001 351.634,-291.5 361.634,-295.0001 361.634,-288.0001"/>
<text text-anchor="middle" x="352.6277" y="-306.5" font-family="Arial" font-size="10.00" fill="#000000">Pieter </text>
<text text-anchor="middle" x="352.6277" y="-294.5" font-family="Arial" font-size="10.00" fill="#000000"> Calandlaan</text>
</g>
<!-- 6302 -->
<g id="node3" class="node">
<title>6302</title>
<ellipse fill="#d3d3d3" stroke="#c0c0c0" cx="348.008" cy="-363.5" rx="3.5" ry="3.5"/>
</g>
<!-- 6301&#45;&gt;6302 -->
<g id="edge2" class="edge">
<title>6301&#45;&gt;6302</title>
<path fill="none" stroke="#c0c0c0" d="M348.008,-295.371C348.008,-305.4263 348.008,-332.7592 348.008,-349.5903"/>
<polygon fill="#c0c0c0" stroke="#c0c0c0" points="344.5081,-349.954 348.008,-359.9541 351.5081,-349.9541 344.5081,-349.954"/>
<text text-anchor="middle" x="393.2995" y="-337.4807" font-family="Arial" font-size="10.00" fill="#000000">Johan Huizingalaan </text>
<text text-anchor="middle" x="393.2995" y="-325.4807" font-family="Arial" font-size="10.00" fill="#000000"> (lijn 63)</text>
</g>
<!-- 6202 -->
<g id="node12" class="node">
<title>6202</title>
<ellipse fill="#d3d3d3" stroke="#c0c0c0" cx="348.008" cy="-219.5" rx="3.5" ry="3.5"/>
</g>
<!-- 6301&#45;&gt;6202 -->
<g id="edge11" class="edge">
<title>6301&#45;&gt;6202</title>
<path fill="none" stroke="#c0c0c0" d="M348.008,-287.629C348.008,-277.5737 348.008,-250.2408 348.008,-233.4096"/>
<polygon fill="#c0c0c0" stroke="#c0c0c0" points="351.5081,-233.0459 348.008,-223.0459 344.5081,-233.046 351.5081,-233.0459"/>
<text text-anchor="middle" x="302.7165" y="-275.5193" font-family="Arial" font-size="10.00" fill="#000000">Johan Huizingalaan </text>
<text text-anchor="middle" x="302.7165" y="-263.5193" font-family="Arial" font-size="10.00" fill="#000000"> (lijn 62)</text>
</g>
<!-- 6303 -->
<g id="node4" class="node">
<title>6303</title>
<ellipse fill="#d3d3d3" stroke="#c0c0c0" cx="276.008" cy="-363.5" rx="3.5" ry="3.5"/>
</g>
<!-- 6302&#45;&gt;6303 -->
<g id="edge3" class="edge">
<title>6302&#45;&gt;6303</title>
<path fill="none" stroke="#c0c0c0" d="M344.137,-363.5C334.0817,-363.5 306.7488,-363.5 289.9176,-363.5"/>
<polygon fill="#c0c0c0" stroke="#c0c0c0" points="289.5539,-360.0001 279.5539,-363.5 289.5539,-367.0001 289.5539,-360.0001"/>
<text text-anchor="middle" x="282.0233" y="-366.5" font-family="Arial" font-size="10.00" fill="#000000">Comeniusstraat</text>
</g>
<!-- 6304 -->
<g id="node5" class="node">
<title>6304</title>
<ellipse fill="#d3d3d3" stroke="#c0c0c0" cx="276.008" cy="-291.5" rx="3.5" ry="3.5"/>
</g>
<!-- 6303&#45;&gt;6304 -->
<g id="edge4" class="edge">
<title>6303&#45;&gt;6304</title>
<path fill="none" stroke="#c0c0c0" d="M276.008,-359.629C276.008,-349.5737 276.008,-322.2408 276.008,-305.4096"/>
<polygon fill="#c0c0c0" stroke="#c0c0c0" points="279.5081,-305.0459 276.008,-295.0459 272.5081,-305.046 279.5081,-305.0459"/>
<text text-anchor="middle" x="276.008" y="-323.5193" font-family="Arial" font-size="10.00" fill="#000000">Hemsterhuisstraat </text>
<text text-anchor="middle" x="276.008" y="-311.5193" font-family="Arial" font-size="10.00" fill="#000000"> Luis Bouw&#45;</text>
<text text-anchor="middle" x="276.008" y="-299.5193" font-family="Arial" font-size="10.00" fill="#000000">&#45;meesterstraat</text>
</g>
<!-- 6305 -->
<g id="node6" class="node">
<title>6305</title>
<ellipse fill="#d3d3d3" stroke="#c0c0c0" cx="204.008" cy="-291.5" rx="3.5" ry="3.5"/>
</g>
<!-- 6304&#45;&gt;6305 -->
<g id="edge5" class="edge">
<title>6304&#45;&gt;6305</title>
<path fill="none" stroke="#c0c0c0" d="M272.137,-291.5C262.0817,-291.5 234.7488,-291.5 217.9176,-291.5"/>
<polygon fill="#c0c0c0" stroke="#c0c0c0" points="217.554,-288.0001 207.5539,-291.5 217.5539,-295.0001 217.554,-288.0001"/>
<text text-anchor="middle" x="205.2958" y="-282.5" font-family="Arial" font-size="10.00" fill="#000000">Pieter Calandlaan</text>
</g>
<!-- 6306 -->
<g id="node7" class="node">
<title>6306</title>
<ellipse fill="#d3d3d3" stroke="#c0c0c0" cx="204.008" cy="-363.5" rx="3.5" ry="3.5"/>
</g>
<!-- 6305&#45;&gt;6306 -->
<g id="edge6" class="edge">
<title>6305&#45;&gt;6306</title>
<path fill="none" stroke="#c0c0c0" d="M204.008,-295.371C204.008,-305.4263 204.008,-332.7592 204.008,-349.5903"/>
<polygon fill="#c0c0c0" stroke="#c0c0c0" points="200.5081,-349.954 204.008,-359.9541 207.5081,-349.9541 200.5081,-349.954"/>
<text text-anchor="middle" x="172.3345" y="-325.4807" font-family="Arial" font-size="10.00" fill="#000000">Meer en Vaart</text>
</g>
<!-- 6307 -->
<g id="node8" class="node">
<title>6307</title>
<ellipse fill="#d3d3d3" stroke="#c0c0c0" cx="132.008" cy="-363.5" rx="3.5" ry="3.5"/>
</g>
<!-- 6306&#45;&gt;6307 -->
<g id="edge7" class="edge">
<title>6306&#45;&gt;6307</title>
<path fill="none" stroke="#c0c0c0" d="M200.137,-363.5C190.0817,-363.5 162.7488,-363.5 145.9177,-363.5"/>
<polygon fill="#c0c0c0" stroke="#c0c0c0" points="145.554,-360.0001 135.5539,-363.5 145.5539,-367.0001 145.554,-360.0001"/>
<text text-anchor="middle" x="173.0273" y="-354.5" font-family="Arial" font-size="10.00" fill="#000000">Osdorper Ban</text>
</g>
<!-- 6308 -->
<g id="node9" class="node">
<title>6308</title>
<ellipse fill="#d3d3d3" stroke="#c0c0c0" cx="132.008" cy="-435.5" rx="3.5" ry="3.5"/>
</g>
<!-- 6307&#45;&gt;6308 -->
<g id="edge8" class="edge">
<title>6307&#45;&gt;6308</title>
<path fill="none" stroke="#c0c0c0" d="M132.008,-367.371C132.008,-377.4263 132.008,-404.7592 132.008,-421.5903"/>
<polygon fill="#c0c0c0" stroke="#c0c0c0" points="128.5081,-421.954 132.008,-431.9541 135.5081,-421.9541 128.5081,-421.954"/>
<text text-anchor="middle" x="92.2755" y="-397.4807" font-family="Arial" font-size="10.00" fill="#000000">Baden Powellweg</text>
</g>
<!-- 6309 -->
<g id="node10" class="node">
<title>6309</title>
<ellipse fill="#d3d3d3" stroke="#c0c0c0" cx="60.008" cy="-435.5" rx="3.5" ry="3.5"/>
</g>
<!-- 6308&#45;&gt;6309 -->
<g id="edge9" class="edge">
<title>6308&#45;&gt;6309</title>
<path fill="none" stroke="#c0c0c0" d="M128.137,-435.5C118.0817,-435.5 90.7488,-435.5 73.9177,-435.5"/>
<polygon fill="#c0c0c0" stroke="#c0c0c0" points="73.554,-432.0001 63.5539,-435.5 73.5539,-439.0001 73.554,-432.0001"/>
<text text-anchor="middle" x="101.0273" y="-426.5" font-family="Arial" font-size="10.00" fill="#000000">Ookmeerweg</text>
</g>
<!-- 6310 -->
<g id="node11" class="node">
<title>6310</title>
<ellipse fill="#d3d3d3" stroke="#c0c0c0" cx="60.008" cy="-363.5" rx="26.7557" ry="26.7557"/>
<text text-anchor="middle" x="60.008" y="-360.5" font-family="Arial" font-size="10.00" fill="#000000">MTH</text>
</g>
<!-- 6309&#45;&gt;6310 -->
<g id="edge10" class="edge">
<title>6309&#45;&gt;6310</title>
<path fill="none" stroke="#c0c0c0" d="M60.008,-431.629C60.008,-425.4982 60.008,-412.9447 60.008,-400.2646"/>
<polygon fill="#c0c0c0" stroke="#c0c0c0" points="63.5081,-400.1886 60.008,-390.1886 56.5081,-400.1887 63.5081,-400.1886"/>
<text text-anchor="middle" x="30.004" y="-418.9468" font-family="Arial" font-size="10.00" fill="#000000">Baldwinstraat</text>
</g>
<!-- 6204 -->
<g id="node14" class="node">
<title>6204</title>
<ellipse fill="#d3d3d3" stroke="#c0c0c0" cx="492.008" cy="-219.5" rx="3.5" ry="3.5"/>
</g>
<!-- 6202&#45;&gt;6204 -->
<g id="edge12" class="edge">
<title>6202&#45;&gt;6204</title>
<path fill="none" stroke="#c0c0c0" d="M351.5676,-219.5C369.0791,-219.5 446.5158,-219.5 478.3108,-219.5"/>
<polygon fill="#c0c0c0" stroke="#c0c0c0" points="478.3129,-223.0001 488.3128,-219.5 478.3128,-216.0001 478.3129,-223.0001"/>
<text text-anchor="middle" x="414.9392" y="-210.5" font-family="Arial" font-size="10.00" fill="#000000">Aletta Jacobslaan </text>
<text text-anchor="middle" x="414.9392" y="-198.5" font-family="Arial" font-size="10.00" fill="#000000"> Vlaardingenlaan </text>
<text text-anchor="middle" x="414.9392" y="-186.5" font-family="Arial" font-size="10.00" fill="#000000"> (via St. Henk Sneevlietweg)</text>
</g>
<!-- 6203 -->
<g id="node13" class="node">
<title>6203</title>
<ellipse fill="#d3d3d3" stroke="#c0c0c0" cx="564.008" cy="-219.5" rx="3.5" ry="3.5"/>
</g>
<!-- 6207 -->
<g id="node17" class="node">
<title>6207</title>
<ellipse fill="#d3d3d3" stroke="#c0c0c0" cx="564.008" cy="-75.5" rx="3.5" ry="3.5"/>
</g>
<!-- 6203&#45;&gt;6207 -->
<g id="edge16" class="edge">
<title>6203&#45;&gt;6207</title>
<path fill="none" stroke="#c0c0c0" d="M564.008,-215.9404C564.008,-198.4289 564.008,-120.9921 564.008,-89.1972"/>
<polygon fill="#c0c0c0" stroke="#c0c0c0" points="567.5081,-89.1951 564.008,-79.1952 560.5081,-89.1952 567.5081,-89.1951"/>
<text text-anchor="middle" x="503.444" y="-143.5688" font-family="Arial" font-size="10.00" fill="#000000">Stadionplein </text>
<text text-anchor="middle" x="503.444" y="-131.5688" font-family="Arial" font-size="10.00" fill="#000000"> Amstelveenseweg </text>
<text text-anchor="middle" x="503.444" y="-119.5688" font-family="Arial" font-size="10.00" fill="#000000"> (via St. Amstelveenseweg)</text>
</g>
<!-- 6205 -->
<g id="node15" class="node">
<title>6205</title>
<ellipse fill="#d3d3d3" stroke="#c0c0c0" cx="492.008" cy="-291.5" rx="3.5" ry="3.5"/>
</g>
<!-- 6204&#45;&gt;6205 -->
<g id="edge13" class="edge">
<title>6204&#45;&gt;6205</title>
<path fill="none" stroke="#c0c0c0" d="M492.008,-223.371C492.008,-233.4263 492.008,-260.7592 492.008,-277.5903"/>
<polygon fill="#c0c0c0" stroke="#c0c0c0" points="488.5081,-277.954 492.008,-287.9541 495.5081,-277.9541 488.5081,-277.954"/>
<text text-anchor="middle" x="457.285" y="-241.4807" font-family="Arial" font-size="10.00" fill="#000000">Aalsmeer&#45;plein </text>
<text text-anchor="middle" x="457.285" y="-229.4807" font-family="Arial" font-size="10.00" fill="#000000"> &#45;weg</text>
</g>
<!-- 6206 -->
<g id="node16" class="node">
<title>6206</title>
<ellipse fill="#d3d3d3" stroke="#c0c0c0" cx="564.008" cy="-291.5" rx="3.5" ry="3.5"/>
</g>
<!-- 6205&#45;&gt;6206 -->
<g id="edge14" class="edge">
<title>6205&#45;&gt;6206</title>
<path fill="none" stroke="#c0c0c0" d="M495.879,-291.5C505.9343,-291.5 533.2672,-291.5 550.0983,-291.5"/>
<polygon fill="#c0c0c0" stroke="#c0c0c0" points="550.4621,-295.0001 560.4621,-291.5 550.462,-288.0001 550.4621,-295.0001"/>
<text text-anchor="middle" x="486.0367" y="-330.5" font-family="Arial" font-size="10.00" fill="#000000">Hoofddorp&#45;plein </text>
<text text-anchor="middle" x="486.0367" y="-318.5" font-family="Arial" font-size="10.00" fill="#000000"> &#45;weg </text>
<text text-anchor="middle" x="486.0367" y="-306.5" font-family="Arial" font-size="10.00" fill="#000000"> Zeil&#45;brug </text>
<text text-anchor="middle" x="486.0367" y="-294.5" font-family="Arial" font-size="10.00" fill="#000000"> &#45;straat</text>
</g>
<!-- 6206&#45;&gt;6203 -->
<g id="edge15" class="edge">
<title>6206&#45;&gt;6203</title>
<path fill="none" stroke="#c0c0c0" d="M564.008,-287.629C564.008,-277.5737 564.008,-250.2408 564.008,-233.4096"/>
<polygon fill="#c0c0c0" stroke="#c0c0c0" points="567.5081,-233.0459 564.008,-223.0459 560.5081,-233.046 567.5081,-233.0459"/>
<text text-anchor="middle" x="630.115" y="-275.5193" font-family="Arial" font-size="10.00" fill="#000000">Amstelveenseweg </text>
<text text-anchor="middle" x="630.115" y="-263.5193" font-family="Arial" font-size="10.00" fill="#000000"> (via Haarlemmermeerstation)</text>
</g>
<!-- 6208 -->
<g id="node18" class="node">
<title>6208</title>
<ellipse fill="#d3d3d3" stroke="#c0c0c0" cx="636.008" cy="-75.5" rx="3.5" ry="3.5"/>
</g>
<!-- 6207&#45;&gt;6208 -->
<g id="edge17" class="edge">
<title>6207&#45;&gt;6208</title>
<path fill="none" stroke="#c0c0c0" d="M567.879,-75.5C577.9343,-75.5 605.2672,-75.5 622.0983,-75.5"/>
<polygon fill="#c0c0c0" stroke="#c0c0c0" points="622.4621,-79.0001 632.4621,-75.5 622.462,-72.0001 622.4621,-79.0001"/>
<text text-anchor="middle" x="594.9887" y="-66.5" font-family="Arial" font-size="10.00" fill="#000000">De Boelelaan</text>
</g>
<!-- 6209 -->
<g id="node19" class="node">
<title>6209</title>
<ellipse fill="#d3d3d3" stroke="#c0c0c0" cx="636.008" cy="-147.5" rx="3.5" ry="3.5"/>
</g>
<!-- 6208&#45;&gt;6209 -->
<g id="edge18" class="edge">
<title>6208&#45;&gt;6209</title>
<path fill="none" stroke="#c0c0c0" d="M636.008,-79.371C636.008,-89.4263 636.008,-116.7592 636.008,-133.5903"/>
<polygon fill="#c0c0c0" stroke="#c0c0c0" points="632.5081,-133.954 636.008,-143.9541 639.5081,-133.9541 632.5081,-133.954"/>
<text text-anchor="middle" x="603.2225" y="-109.4807" font-family="Arial" font-size="10.00" fill="#000000">Parnassusweg</text>
</g>
<!-- 6210 -->
<g id="node20" class="node">
<title>6210</title>
<ellipse fill="#d3d3d3" stroke="#c0c0c0" cx="708.008" cy="-147.5" rx="3.5" ry="3.5"/>
</g>
<!-- 6209&#45;&gt;6210 -->
<g id="edge19" class="edge">
<title>6209&#45;&gt;6210</title>
<path fill="none" stroke="#c0c0c0" d="M639.879,-147.5C649.9343,-147.5 677.2672,-147.5 694.0983,-147.5"/>
<polygon fill="#c0c0c0" stroke="#c0c0c0" points="694.4621,-151.0001 704.4621,-147.5 694.462,-144.0001 694.4621,-151.0001"/>
<text text-anchor="middle" x="631.9847" y="-162.5" font-family="Arial" font-size="10.00" fill="#000000">Strawinskylaan </text>
<text text-anchor="middle" x="631.9847" y="-150.5" font-family="Arial" font-size="10.00" fill="#000000"> (via St. Zuid)</text>
</g>
<!-- 6211 -->
<g id="node21" class="node">
<title>6211</title>
<ellipse fill="#d3d3d3" stroke="#c0c0c0" cx="708.008" cy="-3.5" rx="3.5" ry="3.5"/>
</g>
<!-- 6210&#45;&gt;6211 -->
<g id="edge20" class="edge">
<title>6210&#45;&gt;6211</title>
<path fill="none" stroke="#c0c0c0" d="M708.008,-143.9404C708.008,-126.4289 708.008,-48.9921 708.008,-17.1972"/>
<polygon fill="#c0c0c0" stroke="#c0c0c0" points="711.5079,-17.1952 708.008,-7.1952 704.5079,-17.1951 711.5079,-17.1952"/>
<text text-anchor="middle" x="660.768" y="-95.5688" font-family="Arial" font-size="10.00" fill="#000000">Beethovenstraat </text>
<text text-anchor="middle" x="660.768" y="-83.5688" font-family="Arial" font-size="10.00" fill="#000000"> Van Leijenberghlaan</text>
</g>
<!-- 6212 -->
<g id="node22" class="node">
<title>6212</title>
<ellipse fill="#d3d3d3" stroke="#c0c0c0" cx="780.008" cy="-3.5" rx="3.5" ry="3.5"/>
</g>
<!-- 6211&#45;&gt;6212 -->
<g id="edge21" class="edge">
<title>6211&#45;&gt;6212</title>
<path fill="none" stroke="#c0c0c0" d="M711.879,-3.5C721.9343,-3.5 749.2672,-3.5 766.0983,-3.5"/>
<polygon fill="#c0c0c0" stroke="#c0c0c0" points="766.4621,-7.0001 776.4621,-3.5 766.462,-.0001 766.4621,-7.0001"/>
<text text-anchor="middle" x="692.8617" y="-6.5" font-family="Arial" font-size="10.00" fill="#000000">Van Boshuizenstraat</text>
</g>
<!-- 6213 -->
<g id="node23" class="node">
<title>6213</title>
<ellipse fill="#d3d3d3" stroke="#c0c0c0" cx="780.008" cy="-147.5" rx="3.5" ry="3.5"/>
</g>
<!-- 6212&#45;&gt;6213 -->
<g id="edge22" class="edge">
<title>6212&#45;&gt;6213</title>
<path fill="none" stroke="#c0c0c0" d="M780.008,-7.0596C780.008,-24.5711 780.008,-102.0079 780.008,-133.8028"/>
<polygon fill="#c0c0c0" stroke="#c0c0c0" points="776.5079,-133.8049 780.008,-143.8048 783.5079,-133.8048 776.5079,-133.8049"/>
<text text-anchor="middle" x="740.5505" y="-61.4312" font-family="Arial" font-size="10.00" fill="#000000">Europaboulevard </text>
<text text-anchor="middle" x="740.5505" y="-49.4312" font-family="Arial" font-size="10.00" fill="#000000"> (via St. RAI) </text>
<text text-anchor="middle" x="740.5505" y="-37.4312" font-family="Arial" font-size="10.00" fill="#000000"> Europaplein</text>
</g>
<!-- 6214 -->
<g id="node24" class="node">
<title>6214</title>
<ellipse fill="#d3d3d3" stroke="#c0c0c0" cx="852.008" cy="-147.5" rx="3.5" ry="3.5"/>
</g>
<!-- 6213&#45;&gt;6214 -->
<g id="edge23" class="edge">
<title>6213&#45;&gt;6214</title>
<path fill="none" stroke="#c0c0c0" d="M783.879,-147.5C793.9343,-147.5 821.2672,-147.5 838.0983,-147.5"/>
<polygon fill="#c0c0c0" stroke="#c0c0c0" points="838.4621,-151.0001 848.4621,-147.5 838.462,-144.0001 838.4621,-151.0001"/>
<text text-anchor="middle" x="810.9887" y="-138.5" font-family="Arial" font-size="10.00" fill="#000000">President </text>
<text text-anchor="middle" x="810.9887" y="-126.5" font-family="Arial" font-size="10.00" fill="#000000"> Kennedylaan</text>
</g>
<!-- 6215 -->
<g id="node25" class="node">
<title>6215</title>
<ellipse fill="#d3d3d3" stroke="#c0c0c0" cx="852.008" cy="-219.5" rx="3.5" ry="3.5"/>
</g>
<!-- 6214&#45;&gt;6215 -->
<g id="edge24" class="edge">
<title>6214&#45;&gt;6215</title>
<path fill="none" stroke="#c0c0c0" d="M852.008,-151.371C852.008,-161.4263 852.008,-188.7592 852.008,-205.5903"/>
<polygon fill="#c0c0c0" stroke="#c0c0c0" points="848.5081,-205.954 852.008,-215.9541 855.5081,-205.9541 848.5081,-205.954"/>
<text text-anchor="middle" x="828.1175" y="-181.4807" font-family="Arial" font-size="10.00" fill="#000000">Waalstraat</text>
</g>
<!-- 6216 -->
<g id="node26" class="node">
<title>6216</title>
<ellipse fill="#d3d3d3" stroke="#c0c0c0" cx="924.008" cy="-219.5" rx="3.5" ry="3.5"/>
</g>
<!-- 6215&#45;&gt;6216 -->
<g id="edge25" class="edge">
<title>6215&#45;&gt;6216</title>
<path fill="none" stroke="#c0c0c0" d="M855.879,-219.5C865.9343,-219.5 893.2672,-219.5 910.0983,-219.5"/>
<polygon fill="#c0c0c0" stroke="#c0c0c0" points="910.4621,-223.0001 920.4621,-219.5 910.462,-216.0001 910.4621,-223.0001"/>
<text text-anchor="middle" x="846.5962" y="-294.5" font-family="Arial" font-size="10.00" fill="#000000">Rooseveltlaan </text>
<text text-anchor="middle" x="846.5962" y="-282.5" font-family="Arial" font-size="10.00" fill="#000000"> Victorieplein </text>
<text text-anchor="middle" x="846.5962" y="-270.5" font-family="Arial" font-size="10.00" fill="#000000"> Vrijheidslaan </text>
<text text-anchor="middle" x="846.5962" y="-258.5" font-family="Arial" font-size="10.00" fill="#000000"> Berlagebrug </text>
<text text-anchor="middle" x="846.5962" y="-246.5" font-family="Arial" font-size="10.00" fill="#000000"> Mr. Treublaan </text>
<text text-anchor="middle" x="846.5962" y="-234.5" font-family="Arial" font-size="10.00" fill="#000000"> Prins Bernhard&#45;</text>
<text text-anchor="middle" x="846.5962" y="-222.5" font-family="Arial" font-size="10.00" fill="#000000">&#45;plein</text>
</g>
<!-- 6217 -->
<g id="node27" class="node">
<title>6217</title>
<ellipse fill="#d3d3d3" stroke="#c0c0c0" cx="924.008" cy="-75.5" rx="3.5" ry="3.5"/>
</g>
<!-- 6216&#45;&gt;6217 -->
<g id="edge26" class="edge">
<title>6216&#45;&gt;6217</title>
<path fill="none" stroke="#c0c0c0" d="M924.008,-215.9404C924.008,-198.4289 924.008,-120.9921 924.008,-89.1972"/>
<polygon fill="#c0c0c0" stroke="#c0c0c0" points="927.5079,-89.1952 924.008,-79.1952 920.5079,-89.1951 927.5079,-89.1952"/>
<text text-anchor="middle" x="897.6135" y="-155.5688" font-family="Arial" font-size="10.00" fill="#000000">Julianaplein</text>
</g>
<!-- 6218 -->
<g id="node28" class="node">
<title>6218</title>
<ellipse fill="#d3d3d3" stroke="#c0c0c0" cx="852.008" cy="-75.5" rx="25.4216" ry="25.4216"/>
<text text-anchor="middle" x="852.008" y="-72.5" font-family="Arial" font-size="10.00" fill="#000000">ASA</text>
</g>
<!-- 6217&#45;&gt;6218 -->
<g id="edge27" class="edge">
<title>6217&#45;&gt;6218</title>
<path fill="none" stroke="#c0c0c0" d="M920.137,-75.5C913.8679,-75.5 900.8831,-75.5 887.9145,-75.5"/>
<polygon fill="#c0c0c0" stroke="#c0c0c0" points="887.646,-72.0001 877.646,-75.5 887.6459,-79.0001 887.646,-72.0001"/>
<text text-anchor="middle" x="904.0257" y="-66.5" font-family="Arial" font-size="10.00" fill="#000000">Over&#45;</text>
<text text-anchor="middle" x="904.0257" y="-54.5" font-family="Arial" font-size="10.00" fill="#000000">&#45;zichtweg</text>
</g>
</g>
</svg>

