<?xml version="1.0" encoding="UTF-8" standalone="no"?>
<!DOCTYPE svg PUBLIC "-//W3C//DTD SVG 1.1//EN"
 "http://www.w3.org/Graphics/SVG/1.1/DTD/svg11.dtd">
<!-- Generated by graphviz version 2.40.1 (20161225.0304)
 -->
<!-- Title: G Pages: 1 -->
<svg width="567pt" height="411pt"
 viewBox="0.00 0.00 567.05 410.70" xmlns="http://www.w3.org/2000/svg" xmlns:xlink="http://www.w3.org/1999/xlink">
<g id="graph0" class="graph" transform="scale(1 1) rotate(0) translate(4 406.7)">
<title>G</title>
<polygon fill="#ffffff" stroke="transparent" points="-4,4 -4,-406.7 563.0525,-406.7 563.0525,4 -4,4"/>
<text text-anchor="middle" x="279.5262" y="-5.8" font-family="Times,serif" font-size="6.00" fill="#000000">* Bij terugkomst gebruikt u afrit (5): De Baarsjes</text>
<!-- GW -->
<g id="node1" class="node">
<title>GW</title>
<ellipse fill="#d3d3d3" stroke="#c0c0c0" cx="244.029" cy="-306.7" rx="23.4774" ry="23.4774"/>
<text text-anchor="middle" x="244.029" y="-303.7" font-family="Arial" font-size="10.00" fill="#000000">GW</text>
</g>
<!-- GW01 -->
<g id="node6" class="node">
<title>GW01</title>
<ellipse fill="#d3d3d3" stroke="#c0c0c0" cx="244.029" cy="-234.7" rx="3.5" ry="3.5"/>
</g>
<!-- GW&#45;&gt;GW01 -->
<g id="edge1" class="edge">
<title>GW&#45;&gt;GW01</title>
<path fill="none" stroke="#c0c0c0" d="M244.029,-283.1245C244.029,-271.5898 244.029,-258.1155 244.029,-248.3131"/>
<polygon fill="#c0c0c0" stroke="#c0c0c0" points="247.5291,-248.2828 244.029,-238.2828 240.5291,-248.2828 247.5291,-248.2828"/>
<text text-anchor="middle" x="206.241" y="-268.7188" font-family="Arial" font-size="10.00" fill="#000000">Jan Tooropstraat</text>
</g>
<!-- GW05 -->
<g id="node10" class="node">
<title>GW05</title>
<ellipse fill="#d3d3d3" stroke="#c0c0c0" cx="244.029" cy="-378.7" rx="3.5" ry="3.5"/>
</g>
<!-- GW&#45;&gt;GW05 -->
<g id="edge2" class="edge">
<title>GW&#45;&gt;GW05</title>
<path fill="none" stroke="#c0c0c0" d="M244.029,-330.2755C244.029,-341.8102 244.029,-355.2845 244.029,-365.0869"/>
<polygon fill="#c0c0c0" stroke="#c0c0c0" points="240.5291,-365.1172 244.029,-375.1172 247.5291,-365.1172 240.5291,-365.1172"/>
<text text-anchor="middle" x="206.241" y="-350.6812" font-family="Arial" font-size="10.00" fill="#000000">Jan Tooropstraat</text>
</g>
<!-- LLL -->
<g id="node2" class="node">
<title>LLL</title>
<ellipse fill="#d3d3d3" stroke="#c0c0c0" cx="244.029" cy="-162.7" rx="23.2127" ry="23.2127"/>
<text text-anchor="middle" x="244.029" y="-159.7" font-family="Arial" font-size="10.00" fill="#000000">LLL</text>
</g>
<!-- MTH -->
<g id="node3" class="node">
<title>MTH</title>
<ellipse fill="#d3d3d3" stroke="#c0c0c0" cx="172.029" cy="-306.7" rx="26.7557" ry="26.7557"/>
<text text-anchor="middle" x="172.029" y="-303.7" font-family="Arial" font-size="10.00" fill="#000000">MTH</text>
</g>
<!-- HMM -->
<g id="node4" class="node">
<title>HMM</title>
<ellipse fill="#d3d3d3" stroke="#c0c0c0" cx="532.029" cy="-234.7" rx="27.047" ry="27.047"/>
<text text-anchor="middle" x="532.029" y="-231.7" font-family="Arial" font-size="10.00" fill="#000000">HMS</text>
</g>
<!-- ASA -->
<g id="node5" class="node">
<title>ASA</title>
<ellipse fill="#d3d3d3" stroke="#c0c0c0" cx="388.029" cy="-90.7" rx="25.4216" ry="25.4216"/>
<text text-anchor="middle" x="388.029" y="-87.7" font-family="Arial" font-size="10.00" fill="#000000">ASA</text>
</g>
<!-- GW02 -->
<g id="node7" class="node">
<title>GW02</title>
<ellipse fill="#d3d3d3" stroke="#c0c0c0" cx="172.029" cy="-234.7" rx="3.5" ry="3.5"/>
</g>
<!-- GW01&#45;&gt;GW02 -->
<g id="edge3" class="edge">
<title>GW01&#45;&gt;GW02</title>
<path fill="none" stroke="#c0c0c0" d="M240.158,-234.7C230.1027,-234.7 202.7698,-234.7 185.9387,-234.7"/>
<polygon fill="#c0c0c0" stroke="#c0c0c0" points="185.575,-231.2001 175.5749,-234.7 185.5749,-238.2001 185.575,-231.2001"/>
<text text-anchor="middle" x="171.3703" y="-237.7" font-family="Arial" font-size="10.00" fill="#000000">Jan Evertsenstraat</text>
</g>
<!-- GW04 -->
<g id="node9" class="node">
<title>GW04</title>
<ellipse fill="#d3d3d3" stroke="#c0c0c0" cx="172.029" cy="-162.7" rx="3.5" ry="3.5"/>
</g>
<!-- GW02&#45;&gt;GW04 -->
<g id="edge4" class="edge">
<title>GW02&#45;&gt;GW04</title>
<path fill="none" stroke="#c0c0c0" d="M172.029,-230.829C172.029,-220.7737 172.029,-193.4408 172.029,-176.6096"/>
<polygon fill="#c0c0c0" stroke="#c0c0c0" points="175.5291,-176.2459 172.029,-166.2459 168.5291,-176.246 175.5291,-176.2459"/>
<text text-anchor="middle" x="126.7375" y="-218.7193" font-family="Arial" font-size="10.00" fill="#000000">Oostoever </text>
<text text-anchor="middle" x="126.7375" y="-206.7193" font-family="Arial" font-size="10.00" fill="#000000"> Johan Huizingalaan</text>
</g>
<!-- GW03 -->
<g id="node8" class="node">
<title>GW03</title>
<ellipse fill="#d3d3d3" stroke="#c0c0c0" cx="100.029" cy="-378.7" rx="3.5" ry="3.5"/>
</g>
<!-- GW06 -->
<g id="node11" class="node">
<title>GW06</title>
<ellipse fill="#d3d3d3" stroke="#c0c0c0" cx="100.029" cy="-306.7" rx="3.5" ry="3.5"/>
</g>
<!-- GW03&#45;&gt;GW06 -->
<g id="edge5" class="edge">
<title>GW03&#45;&gt;GW06</title>
<path fill="none" stroke="#c0c0c0" d="M100.029,-374.829C100.029,-364.7737 100.029,-337.4408 100.029,-320.6096"/>
<polygon fill="#c0c0c0" stroke="#c0c0c0" points="103.5291,-320.2459 100.029,-310.2459 96.5291,-320.246 103.5291,-320.2459"/>
<text text-anchor="middle" x="50.0145" y="-362.7193" font-family="Arial" font-size="10.00" fill="#000000">President Allendelaan </text>
<text text-anchor="middle" x="50.0145" y="-350.7193" font-family="Arial" font-size="10.00" fill="#000000"> Ookmeerweg</text>
</g>
<!-- GW04&#45;&gt;LLL -->
<g id="edge6" class="edge">
<title>GW04&#45;&gt;LLL</title>
<path fill="none" stroke="#c0c0c0" d="M175.9,-162.7C182.557,-162.7 196.7866,-162.7 210.5283,-162.7"/>
<polygon fill="#c0c0c0" stroke="#c0c0c0" points="210.808,-166.2001 220.808,-162.7 210.808,-159.2001 210.808,-166.2001"/>
<text text-anchor="middle" x="166.5397" y="-177.7" font-family="Arial" font-size="10.00" fill="#000000">Pieter </text>
<text text-anchor="middle" x="166.5397" y="-165.7" font-family="Arial" font-size="10.00" fill="#000000"> Calandlaan</text>
</g>
<!-- GW05&#45;&gt;GW03 -->
<g id="edge7" class="edge">
<title>GW05&#45;&gt;GW03</title>
<path fill="none" stroke="#c0c0c0" d="M240.4694,-378.7C222.9579,-378.7 145.5211,-378.7 113.7262,-378.7"/>
<polygon fill="#c0c0c0" stroke="#c0c0c0" points="113.7242,-375.2001 103.7242,-378.7 113.7241,-382.2001 113.7242,-375.2001"/>
<text text-anchor="middle" x="117.4648" y="-393.7" font-family="Arial" font-size="10.00" fill="#000000">Jan van Galenstraat </text>
<text text-anchor="middle" x="117.4648" y="-381.7" font-family="Arial" font-size="10.00" fill="#000000"> Burgemeester Röellstraat</text>
</g>
<!-- GW07 -->
<g id="node12" class="node">
<title>GW07</title>
<ellipse fill="#d3d3d3" stroke="#c0c0c0" cx="316.029" cy="-378.7" rx="3.5" ry="3.5"/>
</g>
<!-- GW05&#45;&gt;GW07 -->
<g id="edge8" class="edge">
<title>GW05&#45;&gt;GW07</title>
<path fill="none" stroke="#c0c0c0" d="M247.9,-378.7C257.9553,-378.7 285.2882,-378.7 302.1194,-378.7"/>
<polygon fill="#c0c0c0" stroke="#c0c0c0" points="302.4831,-382.2001 312.4831,-378.7 302.483,-375.2001 302.4831,-382.2001"/>
<text text-anchor="middle" x="230.2727" y="-369.7" font-family="Arial" font-size="10.00" fill="#000000">Jan van Galenstraat</text>
</g>
<!-- GW06&#45;&gt;MTH -->
<g id="edge9" class="edge">
<title>GW06&#45;&gt;MTH</title>
<path fill="none" stroke="#c0c0c0" d="M103.9,-306.7C110.0308,-306.7 122.5843,-306.7 135.2644,-306.7"/>
<polygon fill="#c0c0c0" stroke="#c0c0c0" points="135.3404,-310.2001 145.3404,-306.7 135.3403,-303.2001 135.3404,-310.2001"/>
<text text-anchor="middle" x="89.5782" y="-309.7" font-family="Arial" font-size="10.00" fill="#000000">Baldwinstraat</text>
</g>
<!-- GW08 -->
<g id="node13" class="node">
<title>GW08</title>
<ellipse fill="#d3d3d3" stroke="#c0c0c0" cx="316.029" cy="-234.7" rx="3.5" ry="3.5"/>
</g>
<!-- GW07&#45;&gt;GW08 -->
<g id="edge10" class="edge">
<title>GW07&#45;&gt;GW08</title>
<path fill="none" stroke="#c0c0c0" d="M316.029,-375.1404C316.029,-357.6289 316.029,-280.1921 316.029,-248.3972"/>
<polygon fill="#c0c0c0" stroke="#c0c0c0" points="319.5291,-248.3951 316.029,-238.3951 312.5291,-248.3952 319.5291,-248.3951"/>
<text text-anchor="middle" x="302.412" y="-314.7688" font-family="Arial" font-size="10.00" fill="#000000">[A10]*</text>
</g>
<!-- GW09 -->
<g id="node14" class="node">
<title>GW09</title>
<ellipse fill="#d3d3d3" stroke="#c0c0c0" cx="460.029" cy="-306.7" rx="3.5" ry="3.5"/>
</g>
<!-- GW08&#45;&gt;GW09 -->
<g id="edge15" class="edge">
<title>GW08&#45;&gt;GW09</title>
<path fill="none" stroke="#c0c0c0" d="M319.3072,-236.3391C336.4574,-244.9142 416.2531,-284.8121 447.4663,-300.4186"/>
<polygon fill="#c0c0c0" stroke="#c0c0c0" points="446.3088,-303.753 456.8184,-305.0947 449.4394,-297.492 446.3088,-303.753"/>
<text text-anchor="middle" x="338.9298" y="-295.3789" font-family="Arial" font-size="10.00" fill="#000000">(7): Slotervaart </text>
<text text-anchor="middle" x="338.9298" y="-283.3789" font-family="Arial" font-size="10.00" fill="#000000"> Henk Sneevletweg </text>
<text text-anchor="middle" x="338.9298" y="-271.3789" font-family="Arial" font-size="10.00" fill="#000000"> Aalsmeerweg</text>
</g>
<!-- GW16 -->
<g id="node20" class="node">
<title>GW16</title>
<ellipse fill="#d3d3d3" stroke="#c0c0c0" cx="316.029" cy="-18.7" rx="3.5" ry="3.5"/>
</g>
<!-- GW08&#45;&gt;GW16 -->
<g id="edge11" class="edge">
<title>GW08&#45;&gt;GW16</title>
<path fill="none" stroke="#c0c0c0" d="M316.029,-230.9509C316.029,-207.0382 316.029,-75.4707 316.029,-32.3732"/>
<polygon fill="#c0c0c0" stroke="#c0c0c0" points="319.5291,-32.2189 316.029,-22.2189 312.5291,-32.219 319.5291,-32.2189"/>
<text text-anchor="middle" x="304.3565" y="-134.6621" font-family="Arial" font-size="10.00" fill="#000000">[A10]</text>
</g>
<!-- GW10 -->
<g id="node15" class="node">
<title>GW10</title>
<ellipse fill="#d3d3d3" stroke="#c0c0c0" cx="532.029" cy="-306.7" rx="3.5" ry="3.5"/>
</g>
<!-- GW09&#45;&gt;GW10 -->
<g id="edge13" class="edge">
<title>GW09&#45;&gt;GW10</title>
<path fill="none" stroke="#c0c0c0" d="M463.9,-306.7C473.9553,-306.7 501.2882,-306.7 518.1194,-306.7"/>
<polygon fill="#c0c0c0" stroke="#c0c0c0" points="518.4831,-310.2001 528.4831,-306.7 518.483,-303.2001 518.4831,-310.2001"/>
<text text-anchor="middle" x="454.0577" y="-333.7" font-family="Arial" font-size="10.00" fill="#000000">Hoofddorp&#45;plein </text>
<text text-anchor="middle" x="454.0577" y="-321.7" font-family="Arial" font-size="10.00" fill="#000000"> &#45;weg </text>
<text text-anchor="middle" x="454.0577" y="-309.7" font-family="Arial" font-size="10.00" fill="#000000"> Zeilstraat</text>
</g>
<!-- GW10&#45;&gt;HMM -->
<g id="edge14" class="edge">
<title>GW10&#45;&gt;HMM</title>
<path fill="none" stroke="#c0c0c0" d="M532.029,-302.829C532.029,-296.7443 532.029,-284.3331 532.029,-271.7506"/>
<polygon fill="#c0c0c0" stroke="#c0c0c0" points="535.5291,-271.7406 532.029,-261.7406 528.5291,-271.7406 535.5291,-271.7406"/>
<text text-anchor="middle" x="491.465" y="-290.2898" font-family="Arial" font-size="10.00" fill="#000000">Amstelveenseweg</text>
</g>
<!-- GW13 -->
<g id="node16" class="node">
<title>GW13</title>
<ellipse fill="#d3d3d3" stroke="#c0c0c0" cx="460.029" cy="-90.7" rx="3.5" ry="3.5"/>
</g>
<!-- GW13&#45;&gt;ASA -->
<g id="edge17" class="edge">
<title>GW13&#45;&gt;ASA</title>
<path fill="none" stroke="#c0c0c0" d="M456.158,-90.7C449.8889,-90.7 436.9041,-90.7 423.9355,-90.7"/>
<polygon fill="#c0c0c0" stroke="#c0c0c0" points="423.667,-87.2001 413.667,-90.7 423.6669,-94.2001 423.667,-87.2001"/>
<text text-anchor="middle" x="470.3272" y="-93.7" font-family="Arial" font-size="10.00" fill="#000000">Overzichtweg</text>
</g>
<!-- GW14 -->
<g id="node17" class="node">
<title>GW14</title>
<ellipse fill="#d3d3d3" stroke="#c0c0c0" cx="532.029" cy="-18.7" rx="3.5" ry="3.5"/>
</g>
<!-- GW15 -->
<g id="node18" class="node">
<title>GW15</title>
<ellipse fill="#d3d3d3" stroke="#c0c0c0" cx="532.029" cy="-162.7" rx="3.5" ry="3.5"/>
</g>
<!-- GW14&#45;&gt;GW15 -->
<g id="edge18" class="edge">
<title>GW14&#45;&gt;GW15</title>
<path fill="none" stroke="#c0c0c0" d="M532.029,-22.2596C532.029,-39.7711 532.029,-117.2079 532.029,-149.0028"/>
<polygon fill="#c0c0c0" stroke="#c0c0c0" points="528.5291,-149.0048 532.029,-159.0048 535.5291,-149.0049 528.5291,-149.0048"/>
<text text-anchor="middle" x="520.3565" y="-88.6312" font-family="Arial" font-size="10.00" fill="#000000">[A10]</text>
</g>
<!-- GW12 -->
<g id="node19" class="node">
<title>GW12</title>
<ellipse fill="#d3d3d3" stroke="#c0c0c0" cx="460.029" cy="-162.7" rx="3.5" ry="3.5"/>
</g>
<!-- GW15&#45;&gt;GW12 -->
<g id="edge19" class="edge">
<title>GW15&#45;&gt;GW12</title>
<path fill="none" stroke="#c0c0c0" d="M528.158,-162.7C518.1027,-162.7 490.7698,-162.7 473.9387,-162.7"/>
<polygon fill="#c0c0c0" stroke="#c0c0c0" points="473.575,-159.2001 463.5749,-162.7 473.5749,-166.2001 473.575,-159.2001"/>
<text text-anchor="middle" x="455.7628" y="-189.7" font-family="Arial" font-size="10.00" fill="#000000">(12): Duivendrecht </text>
<text text-anchor="middle" x="455.7628" y="-177.7" font-family="Arial" font-size="10.00" fill="#000000"> Gooiseweg </text>
<text text-anchor="middle" x="455.7628" y="-165.7" font-family="Arial" font-size="10.00" fill="#000000"> Prins Bernhardplein</text>
</g>
<!-- GW12&#45;&gt;GW13 -->
<g id="edge16" class="edge">
<title>GW12&#45;&gt;GW13</title>
<path fill="none" stroke="#c0c0c0" d="M460.029,-158.829C460.029,-148.7737 460.029,-121.4408 460.029,-104.6096"/>
<polygon fill="#c0c0c0" stroke="#c0c0c0" points="463.5291,-104.2459 460.029,-94.2459 456.5291,-104.246 463.5291,-104.2459"/>
<text text-anchor="middle" x="433.6345" y="-134.7193" font-family="Arial" font-size="10.00" fill="#000000">Julianaplein</text>
</g>
<!-- GW16&#45;&gt;GW14 -->
<g id="edge12" class="edge">
<title>GW16&#45;&gt;GW14</title>
<path fill="none" stroke="#c0c0c0" d="M319.7781,-18.7C343.6908,-18.7 475.2583,-18.7 518.3558,-18.7"/>
<polygon fill="#c0c0c0" stroke="#c0c0c0" points="518.5101,-22.2001 528.5101,-18.7 518.51,-15.2001 518.5101,-22.2001"/>
<text text-anchor="middle" x="407.3944" y="-21.7" font-family="Arial" font-size="10.00" fill="#000000">[A10]</text>
</g>
</g>
</svg>

