<?xml version="1.0" encoding="UTF-8" standalone="no"?>
<!DOCTYPE svg PUBLIC "-//W3C//DTD SVG 1.1//EN"
 "http://www.w3.org/Graphics/SVG/1.1/DTD/svg11.dtd">
<!-- Generated by graphviz version 2.40.1 (20161225.0304)
 -->
<!-- Title: G Pages: 1 -->
<svg width="567pt" height="390pt"
 viewBox="0.00 0.00 566.81 390.20" xmlns="http://www.w3.org/2000/svg" xmlns:xlink="http://www.w3.org/1999/xlink">
<g id="graph0" class="graph" transform="scale(1 1) rotate(0) translate(4 386.2)">
<title>G</title>
<polygon fill="#ffffff" stroke="transparent" points="-4,4 -4,-386.2 562.8099,-386.2 562.8099,4 -4,4"/>
<text text-anchor="middle" x="279.405" y="-5.8" font-family="Times,serif" font-size="6.00" fill="#000000">* Bij terugkomst gebruikt u afrit (5): De Baarsjes</text>
<!-- GW -->
<g id="node1" class="node">
<title>GW</title>
<ellipse fill="#d3d3d3" stroke="#c0c0c0" cx="214.0203" cy="-306.7" rx="19.6737" ry="19.6737"/>
<text text-anchor="middle" x="214.0203" y="-304.6" font-family="Arial" font-size="7.00" fill="#000000">GW</text>
</g>
<!-- GW01 -->
<g id="node6" class="node">
<title>GW01</title>
<ellipse fill="#d3d3d3" stroke="#c0c0c0" cx="214.0203" cy="-234.7" rx="3.5" ry="3.5"/>
</g>
<!-- GW&#45;&gt;GW01 -->
<g id="edge1" class="edge">
<title>GW&#45;&gt;GW01</title>
<path fill="none" stroke="#c0c0c0" d="M214.0203,-286.644C214.0203,-274.5615 214.0203,-259.4763 214.0203,-248.6806"/>
<polygon fill="#c0c0c0" stroke="#c0c0c0" points="217.5204,-248.4147 214.0203,-238.4147 210.5204,-248.4148 217.5204,-248.4147"/>
<text text-anchor="middle" x="187.5687" y="-269.7623" font-family="Arial" font-size="7.00" fill="#000000">Jan Tooropstraat</text>
</g>
<!-- GW05 -->
<g id="node10" class="node">
<title>GW05</title>
<ellipse fill="#d3d3d3" stroke="#c0c0c0" cx="214.0203" cy="-378.7" rx="3.5" ry="3.5"/>
</g>
<!-- GW&#45;&gt;GW05 -->
<g id="edge2" class="edge">
<title>GW&#45;&gt;GW05</title>
<path fill="none" stroke="#c0c0c0" d="M214.0203,-326.756C214.0203,-338.8385 214.0203,-353.9236 214.0203,-364.7194"/>
<polygon fill="#c0c0c0" stroke="#c0c0c0" points="210.5204,-364.9852 214.0203,-374.9853 217.5204,-364.9853 210.5204,-364.9852"/>
<text text-anchor="middle" x="187.5687" y="-347.8377" font-family="Arial" font-size="7.00" fill="#000000">Jan Tooropstraat</text>
</g>
<!-- LLL -->
<g id="node2" class="node">
<title>LLL</title>
<ellipse fill="#d3d3d3" stroke="#c0c0c0" cx="214.0203" cy="-162.7" rx="19.637" ry="19.637"/>
<text text-anchor="middle" x="214.0203" y="-160.6" font-family="Arial" font-size="7.00" fill="#000000">LLL</text>
</g>
<!-- MTH -->
<g id="node3" class="node">
<title>MTH</title>
<ellipse fill="#d3d3d3" stroke="#c0c0c0" cx="142.0203" cy="-306.7" rx="22.0668" ry="22.0668"/>
<text text-anchor="middle" x="142.0203" y="-304.6" font-family="Arial" font-size="7.00" fill="#000000">MTH</text>
</g>
<!-- HMM -->
<g id="node4" class="node">
<title>HMM</title>
<ellipse fill="#d3d3d3" stroke="#c0c0c0" cx="502.0203" cy="-234.7" rx="22.1227" ry="22.1227"/>
<text text-anchor="middle" x="502.0203" y="-232.6" font-family="Arial" font-size="7.00" fill="#000000">HMS</text>
</g>
<!-- ASA -->
<g id="node5" class="node">
<title>ASA</title>
<ellipse fill="#d3d3d3" stroke="#c0c0c0" cx="358.0203" cy="-90.7" rx="21.4356" ry="21.4356"/>
<text text-anchor="middle" x="358.0203" y="-88.6" font-family="Arial" font-size="7.00" fill="#000000">ASA</text>
</g>
<!-- GW02 -->
<g id="node7" class="node">
<title>GW02</title>
<ellipse fill="#d3d3d3" stroke="#c0c0c0" cx="142.0203" cy="-234.7" rx="3.5" ry="3.5"/>
</g>
<!-- GW01&#45;&gt;GW02 -->
<g id="edge3" class="edge">
<title>GW01&#45;&gt;GW02</title>
<path fill="none" stroke="#c0c0c0" d="M210.1493,-234.7C200.094,-234.7 172.7611,-234.7 155.93,-234.7"/>
<polygon fill="#c0c0c0" stroke="#c0c0c0" points="155.5663,-231.2001 145.5662,-234.7 155.5662,-238.2001 155.5663,-231.2001"/>
<text text-anchor="middle" x="183.0396" y="-228.4" font-family="Arial" font-size="7.00" fill="#000000">Jan Evertsenstraat</text>
</g>
<!-- GW04 -->
<g id="node9" class="node">
<title>GW04</title>
<ellipse fill="#d3d3d3" stroke="#c0c0c0" cx="142.0203" cy="-162.7" rx="3.5" ry="3.5"/>
</g>
<!-- GW02&#45;&gt;GW04 -->
<g id="edge4" class="edge">
<title>GW02&#45;&gt;GW04</title>
<path fill="none" stroke="#c0c0c0" d="M142.0203,-230.829C142.0203,-220.7737 142.0203,-193.4408 142.0203,-176.6096"/>
<polygon fill="#c0c0c0" stroke="#c0c0c0" points="145.5204,-176.2459 142.0203,-166.2459 138.5204,-176.246 145.5204,-176.2459"/>
<text text-anchor="middle" x="110.3163" y="-214.2193" font-family="Arial" font-size="7.00" fill="#000000">Oostoever </text>
<text text-anchor="middle" x="110.3163" y="-205.8193" font-family="Arial" font-size="7.00" fill="#000000"> Johan Huizingalaan</text>
</g>
<!-- GW03 -->
<g id="node8" class="node">
<title>GW03</title>
<ellipse fill="#d3d3d3" stroke="#c0c0c0" cx="70.0203" cy="-378.7" rx="3.5" ry="3.5"/>
</g>
<!-- GW06 -->
<g id="node11" class="node">
<title>GW06</title>
<ellipse fill="#d3d3d3" stroke="#c0c0c0" cx="70.0203" cy="-306.7" rx="3.5" ry="3.5"/>
</g>
<!-- GW03&#45;&gt;GW06 -->
<g id="edge5" class="edge">
<title>GW03&#45;&gt;GW06</title>
<path fill="none" stroke="#c0c0c0" d="M70.0203,-374.829C70.0203,-364.7737 70.0203,-337.4408 70.0203,-320.6096"/>
<polygon fill="#c0c0c0" stroke="#c0c0c0" points="73.5204,-320.2459 70.0203,-310.2459 66.5204,-320.246 73.5204,-320.2459"/>
<text text-anchor="middle" x="35.0101" y="-358.2193" font-family="Arial" font-size="7.00" fill="#000000">President Allendelaan </text>
<text text-anchor="middle" x="35.0101" y="-349.8193" font-family="Arial" font-size="7.00" fill="#000000"> Ookmeerweg</text>
</g>
<!-- GW04&#45;&gt;LLL -->
<g id="edge6" class="edge">
<title>GW04&#45;&gt;LLL</title>
<path fill="none" stroke="#c0c0c0" d="M145.8913,-162.7C153.0837,-162.7 169.1156,-162.7 183.8212,-162.7"/>
<polygon fill="#c0c0c0" stroke="#c0c0c0" points="184.1495,-166.2001 194.1494,-162.7 184.1494,-159.2001 184.1495,-166.2001"/>
<text text-anchor="middle" x="174.1924" y="-156.4" font-family="Arial" font-size="7.00" fill="#000000">Pieter </text>
<text text-anchor="middle" x="174.1924" y="-148" font-family="Arial" font-size="7.00" fill="#000000"> Calandlaan</text>
</g>
<!-- GW05&#45;&gt;GW03 -->
<g id="edge7" class="edge">
<title>GW05&#45;&gt;GW03</title>
<path fill="none" stroke="#c0c0c0" d="M210.4607,-378.7C192.9492,-378.7 115.5124,-378.7 83.7175,-378.7"/>
<polygon fill="#c0c0c0" stroke="#c0c0c0" points="83.7155,-375.2001 73.7155,-378.7 83.7154,-382.2001 83.7155,-375.2001"/>
<text text-anchor="middle" x="167.9607" y="-372.4" font-family="Arial" font-size="7.00" fill="#000000">Jan van Galenstraat </text>
<text text-anchor="middle" x="167.9607" y="-364" font-family="Arial" font-size="7.00" fill="#000000"> Burgemeester Röellstraat</text>
</g>
<!-- GW07 -->
<g id="node12" class="node">
<title>GW07</title>
<ellipse fill="#d3d3d3" stroke="#c0c0c0" cx="286.0203" cy="-378.7" rx="3.5" ry="3.5"/>
</g>
<!-- GW05&#45;&gt;GW07 -->
<g id="edge8" class="edge">
<title>GW05&#45;&gt;GW07</title>
<path fill="none" stroke="#c0c0c0" d="M217.8913,-378.7C227.9466,-378.7 255.2795,-378.7 272.1107,-378.7"/>
<polygon fill="#c0c0c0" stroke="#c0c0c0" points="272.4744,-382.2001 282.4744,-378.7 272.4743,-375.2001 272.4744,-382.2001"/>
<text text-anchor="middle" x="245.001" y="-372.4" font-family="Arial" font-size="7.00" fill="#000000">Jan van Galenstraat</text>
</g>
<!-- GW06&#45;&gt;MTH -->
<g id="edge9" class="edge">
<title>GW06&#45;&gt;MTH</title>
<path fill="none" stroke="#c0c0c0" d="M73.8913,-306.7C80.7546,-306.7 95.6671,-306.7 109.7954,-306.7"/>
<polygon fill="#c0c0c0" stroke="#c0c0c0" points="109.8182,-310.2001 119.8181,-306.7 109.8181,-303.2001 109.8182,-310.2001"/>
<text text-anchor="middle" x="91.8434" y="-300.4" font-family="Arial" font-size="7.00" fill="#000000">Baldwinstraat</text>
</g>
<!-- GW08 -->
<g id="node13" class="node">
<title>GW08</title>
<ellipse fill="#d3d3d3" stroke="#c0c0c0" cx="286.0203" cy="-234.7" rx="3.5" ry="3.5"/>
</g>
<!-- GW07&#45;&gt;GW08 -->
<g id="edge10" class="edge">
<title>GW07&#45;&gt;GW08</title>
<path fill="none" stroke="#c0c0c0" d="M286.0203,-375.1404C286.0203,-357.6289 286.0203,-280.1921 286.0203,-248.3972"/>
<polygon fill="#c0c0c0" stroke="#c0c0c0" points="289.5204,-248.3951 286.0203,-238.3951 282.5204,-248.3952 289.5204,-248.3951"/>
<text text-anchor="middle" x="276.4884" y="-313.8688" font-family="Arial" font-size="7.00" fill="#000000">[A10]*</text>
</g>
<!-- GW09 -->
<g id="node14" class="node">
<title>GW09</title>
<ellipse fill="#d3d3d3" stroke="#c0c0c0" cx="430.0203" cy="-306.7" rx="3.5" ry="3.5"/>
</g>
<!-- GW08&#45;&gt;GW09 -->
<g id="edge15" class="edge">
<title>GW08&#45;&gt;GW09</title>
<path fill="none" stroke="#c0c0c0" d="M289.2985,-236.3391C306.4487,-244.9142 386.2444,-284.8121 417.4576,-300.4186"/>
<polygon fill="#c0c0c0" stroke="#c0c0c0" points="416.3001,-303.753 426.8097,-305.0947 419.4307,-297.492 416.3001,-303.753"/>
<text text-anchor="middle" x="322.2582" y="-287.2789" font-family="Arial" font-size="7.00" fill="#000000">(7): Slotervaart </text>
<text text-anchor="middle" x="322.2582" y="-278.8789" font-family="Arial" font-size="7.00" fill="#000000"> Henk Sneevletweg </text>
<text text-anchor="middle" x="322.2582" y="-270.4789" font-family="Arial" font-size="7.00" fill="#000000"> Aalsmeerweg</text>
</g>
<!-- GW16 -->
<g id="node20" class="node">
<title>GW16</title>
<ellipse fill="#d3d3d3" stroke="#c0c0c0" cx="286.0203" cy="-18.7" rx="3.5" ry="3.5"/>
</g>
<!-- GW08&#45;&gt;GW16 -->
<g id="edge11" class="edge">
<title>GW08&#45;&gt;GW16</title>
<path fill="none" stroke="#c0c0c0" d="M286.0203,-230.9509C286.0203,-207.0382 286.0203,-75.4707 286.0203,-32.3732"/>
<polygon fill="#c0c0c0" stroke="#c0c0c0" points="289.5204,-32.2189 286.0203,-22.2189 282.5204,-32.219 289.5204,-32.2189"/>
<text text-anchor="middle" x="277.8496" y="-133.7621" font-family="Arial" font-size="7.00" fill="#000000">[A10]</text>
</g>
<!-- GW10 -->
<g id="node15" class="node">
<title>GW10</title>
<ellipse fill="#d3d3d3" stroke="#c0c0c0" cx="502.0203" cy="-306.7" rx="3.5" ry="3.5"/>
</g>
<!-- GW09&#45;&gt;GW10 -->
<g id="edge13" class="edge">
<title>GW09&#45;&gt;GW10</title>
<path fill="none" stroke="#c0c0c0" d="M433.8913,-306.7C443.9466,-306.7 471.2795,-306.7 488.1107,-306.7"/>
<polygon fill="#c0c0c0" stroke="#c0c0c0" points="488.4744,-310.2001 498.4744,-306.7 488.4743,-303.2001 488.4744,-310.2001"/>
<text text-anchor="middle" x="461.001" y="-300.4" font-family="Arial" font-size="7.00" fill="#000000">Hoofddorp&#45;plein </text>
<text text-anchor="middle" x="461.001" y="-292" font-family="Arial" font-size="7.00" fill="#000000"> &#45;weg </text>
<text text-anchor="middle" x="461.001" y="-283.6" font-family="Arial" font-size="7.00" fill="#000000"> Zeilstraat</text>
</g>
<!-- GW10&#45;&gt;HMM -->
<g id="edge14" class="edge">
<title>GW10&#45;&gt;HMM</title>
<path fill="none" stroke="#c0c0c0" d="M502.0203,-302.829C502.0203,-296.0789 502.0203,-281.5428 502.0203,-267.6244"/>
<polygon fill="#c0c0c0" stroke="#c0c0c0" points="505.5204,-267.2405 502.0203,-257.2405 498.5204,-267.2406 505.5204,-267.2405"/>
<text text-anchor="middle" x="530.4151" y="-287.3267" font-family="Arial" font-size="7.00" fill="#000000">Amstelveenseweg</text>
</g>
<!-- GW13 -->
<g id="node16" class="node">
<title>GW13</title>
<ellipse fill="#d3d3d3" stroke="#c0c0c0" cx="430.0203" cy="-90.7" rx="3.5" ry="3.5"/>
</g>
<!-- GW13&#45;&gt;ASA -->
<g id="edge17" class="edge">
<title>GW13&#45;&gt;ASA</title>
<path fill="none" stroke="#c0c0c0" d="M426.1493,-90.7C419.192,-90.7 403.9634,-90.7 389.665,-90.7"/>
<polygon fill="#c0c0c0" stroke="#c0c0c0" points="389.5496,-87.2001 379.5495,-90.7 389.5495,-94.2001 389.5496,-87.2001"/>
<text text-anchor="middle" x="407.9071" y="-84.4" font-family="Arial" font-size="7.00" fill="#000000">Overzichtweg</text>
</g>
<!-- GW14 -->
<g id="node17" class="node">
<title>GW14</title>
<ellipse fill="#d3d3d3" stroke="#c0c0c0" cx="502.0203" cy="-18.7" rx="3.5" ry="3.5"/>
</g>
<!-- GW15 -->
<g id="node18" class="node">
<title>GW15</title>
<ellipse fill="#d3d3d3" stroke="#c0c0c0" cx="502.0203" cy="-162.7" rx="3.5" ry="3.5"/>
</g>
<!-- GW14&#45;&gt;GW15 -->
<g id="edge18" class="edge">
<title>GW14&#45;&gt;GW15</title>
<path fill="none" stroke="#c0c0c0" d="M502.0203,-22.2596C502.0203,-39.7711 502.0203,-117.2079 502.0203,-149.0028"/>
<polygon fill="#c0c0c0" stroke="#c0c0c0" points="498.5204,-149.0048 502.0203,-159.0048 505.5204,-149.0049 498.5204,-149.0048"/>
<text text-anchor="middle" x="493.8496" y="-87.7312" font-family="Arial" font-size="7.00" fill="#000000">[A10]</text>
</g>
<!-- GW12 -->
<g id="node19" class="node">
<title>GW12</title>
<ellipse fill="#d3d3d3" stroke="#c0c0c0" cx="430.0203" cy="-162.7" rx="3.5" ry="3.5"/>
</g>
<!-- GW15&#45;&gt;GW12 -->
<g id="edge19" class="edge">
<title>GW15&#45;&gt;GW12</title>
<path fill="none" stroke="#c0c0c0" d="M498.1493,-162.7C488.094,-162.7 460.7611,-162.7 443.93,-162.7"/>
<polygon fill="#c0c0c0" stroke="#c0c0c0" points="443.5663,-159.2001 433.5662,-162.7 443.5662,-166.2001 443.5663,-159.2001"/>
<text text-anchor="middle" x="471.0396" y="-156.4" font-family="Arial" font-size="7.00" fill="#000000">(12): Duivendrecht </text>
<text text-anchor="middle" x="471.0396" y="-148" font-family="Arial" font-size="7.00" fill="#000000"> Gooiseweg </text>
<text text-anchor="middle" x="471.0396" y="-139.6" font-family="Arial" font-size="7.00" fill="#000000"> Prins Bernhardplein</text>
</g>
<!-- GW12&#45;&gt;GW13 -->
<g id="edge16" class="edge">
<title>GW12&#45;&gt;GW13</title>
<path fill="none" stroke="#c0c0c0" d="M430.0203,-158.829C430.0203,-148.7737 430.0203,-121.4408 430.0203,-104.6096"/>
<polygon fill="#c0c0c0" stroke="#c0c0c0" points="433.5204,-104.2459 430.0203,-94.2459 426.5204,-104.246 433.5204,-104.2459"/>
<text text-anchor="middle" x="411.5442" y="-133.8193" font-family="Arial" font-size="7.00" fill="#000000">Julianaplein</text>
</g>
<!-- GW16&#45;&gt;GW14 -->
<g id="edge12" class="edge">
<title>GW16&#45;&gt;GW14</title>
<path fill="none" stroke="#c0c0c0" d="M289.7694,-18.7C313.6821,-18.7 445.2496,-18.7 488.3471,-18.7"/>
<polygon fill="#c0c0c0" stroke="#c0c0c0" points="488.5014,-22.2001 498.5014,-18.7 488.5013,-15.2001 488.5014,-22.2001"/>
<text text-anchor="middle" x="380.8875" y="-20.8" font-family="Arial" font-size="7.00" fill="#000000">[A10]</text>
</g>
</g>
</svg>

