<?xml version="1.0" encoding="UTF-8" standalone="no"?>
<!DOCTYPE svg PUBLIC "-//W3C//DTD SVG 1.1//EN"
 "http://www.w3.org/Graphics/SVG/1.1/DTD/svg11.dtd">
<!-- Generated by graphviz version 2.40.1 (20161225.0304)
 -->
<!-- Title: G Pages: 1 -->
<svg width="610pt" height="637pt"
 viewBox="0.00 0.00 609.53 636.66" xmlns="http://www.w3.org/2000/svg" xmlns:xlink="http://www.w3.org/1999/xlink">
<g id="graph0" class="graph" transform="scale(1 1) rotate(0) translate(4 632.6608)">
<title>G</title>
<polygon fill="#ffffff" stroke="transparent" points="-4,4 -4,-632.6608 605.5264,-632.6608 605.5264,4 -4,4"/>
<text text-anchor="middle" x="300.7632" y="-5.8" font-family="Times,serif" font-size="6.00" fill="#000000">* route in beide richtingen</text>
<!-- 3400 -->
<g id="node1" class="node">
<title>3400</title>
<ellipse fill="#d3d3d3" stroke="#c0c0c0" cx="307.143" cy="-544.6608" rx="21.5459" ry="21.5459"/>
<text text-anchor="middle" x="307.143" y="-541.6608" font-family="Arial" font-size="10.00" fill="#000000">ND</text>
</g>
<!-- 3401 -->
<g id="node2" class="node">
<title>3401</title>
<ellipse fill="#d3d3d3" stroke="#c0c0c0" cx="163.143" cy="-544.6608" rx="3.5" ry="3.5"/>
</g>
<!-- 3400&#45;&gt;3401 -->
<g id="edge1" class="edge">
<title>3400&#45;&gt;3401</title>
<path fill="none" stroke="#c0c0c0" d="M275.3907,-544.6608C244.6095,-544.6608 199.369,-544.6608 176.8813,-544.6608"/>
<polygon fill="#c0c0c0" stroke="#c0c0c0" points="275.5848,-548.1609 285.5847,-544.6608 275.5847,-541.1609 275.5848,-548.1609"/>
<polygon fill="#c0c0c0" stroke="#c0c0c0" points="176.7566,-541.1609 166.7565,-544.6608 176.7565,-548.1609 176.7566,-541.1609"/>
<text text-anchor="middle" x="198.6265" y="-559.6608" font-family="Arial" font-size="10.00" fill="#000000">IJdoornlaan </text>
<text text-anchor="middle" x="198.6265" y="-547.6608" font-family="Arial" font-size="10.00" fill="#000000"> (lijn 34*)</text>
</g>
<!-- 3701 -->
<g id="node15" class="node">
<title>3701</title>
<ellipse fill="#d3d3d3" stroke="#c0c0c0" cx="451.143" cy="-544.6608" rx=".5" ry=".5"/>
</g>
<!-- 3400&#45;&gt;3701 -->
<g id="edge15" class="edge">
<title>3400&#45;&gt;3701</title>
<path fill="none" stroke="#c0c0c0" d="M328.7013,-544.6608C359.9599,-544.6608 416.7097,-544.6608 440.3524,-544.6608"/>
<polygon fill="#c0c0c0" stroke="#c0c0c0" points="440.6135,-548.1609 450.6135,-544.6608 440.6135,-541.1609 440.6135,-548.1609"/>
<text text-anchor="middle" x="357.0173" y="-559.6608" font-family="Arial" font-size="10.00" fill="#000000">IJdoornlaan </text>
<text text-anchor="middle" x="357.0173" y="-547.6608" font-family="Arial" font-size="10.00" fill="#000000"> (lijn 37)</text>
</g>
<!-- 3402 -->
<g id="node3" class="node">
<title>3402</title>
<ellipse fill="#d3d3d3" stroke="#c0c0c0" cx="163.143" cy="-616.6608" rx=".5" ry=".5"/>
</g>
<!-- 3401&#45;&gt;3402 -->
<g id="edge2" class="edge">
<title>3401&#45;&gt;3402</title>
<path fill="none" stroke="#c0c0c0" d="M163.143,-558.6301C163.143,-572.402 163.143,-593.1624 163.143,-605.7602"/>
<polygon fill="#c0c0c0" stroke="#c0c0c0" points="166.6431,-558.5318 163.143,-548.5318 159.6431,-558.5318 166.6431,-558.5318"/>
<polygon fill="#c0c0c0" stroke="#c0c0c0" points="159.6431,-606.0599 163.143,-616.06 166.6431,-606.06 159.6431,-606.0599"/>
<text text-anchor="middle" x="134.5235" y="-585.1952" font-family="Arial" font-size="10.00" fill="#000000">Oosterlengte</text>
</g>
<!-- 3403 -->
<g id="node4" class="node">
<title>3403</title>
<ellipse fill="#d3d3d3" stroke="#c0c0c0" cx="91.143" cy="-616.6608" rx=".5" ry=".5"/>
</g>
<!-- 3402&#45;&gt;3403 -->
<g id="edge3" class="edge">
<title>3402&#45;&gt;3403</title>
<path fill="none" stroke="#c0c0c0" d="M152.0631,-616.6608C138.535,-616.6608 115.7898,-616.6608 102.2496,-616.6608"/>
<polygon fill="#c0c0c0" stroke="#c0c0c0" points="152.3344,-620.1609 162.3344,-616.6608 152.3344,-613.1609 152.3344,-620.1609"/>
<polygon fill="#c0c0c0" stroke="#c0c0c0" points="101.8556,-613.1609 91.8556,-616.6608 101.8556,-620.1609 101.8556,-613.1609"/>
<text text-anchor="middle" x="92.1484" y="-619.6608" font-family="Arial" font-size="10.00" fill="#000000">Noorderbreedte</text>
</g>
<!-- 3412 -->
<g id="node13" class="node">
<title>3412</title>
<ellipse fill="#d3d3d3" stroke="#c0c0c0" cx="91.143" cy="-544.6608" rx="3.5" ry="3.5"/>
</g>
<!-- 3403&#45;&gt;3412 -->
<g id="edge4" class="edge">
<title>3403&#45;&gt;3412</title>
<path fill="none" stroke="#c0c0c0" d="M91.143,-605.6936C91.143,-593.1135 91.143,-572.457 91.143,-558.7092"/>
<polygon fill="#c0c0c0" stroke="#c0c0c0" points="87.6431,-605.8521 91.143,-615.8522 94.6431,-605.8522 87.6431,-605.8521"/>
<polygon fill="#c0c0c0" stroke="#c0c0c0" points="94.6431,-558.4556 91.143,-548.4557 87.6431,-558.4557 94.6431,-558.4556"/>
<text text-anchor="middle" x="61.6935" y="-585.2014" font-family="Arial" font-size="10.00" fill="#000000">Westerlengte</text>
</g>
<!-- 3404 -->
<g id="node5" class="node">
<title>3404</title>
<ellipse fill="#d3d3d3" stroke="#c0c0c0" cx="91.143" cy="-472.6608" rx=".5" ry=".5"/>
</g>
<!-- 3405 -->
<g id="node6" class="node">
<title>3405</title>
<ellipse fill="#d3d3d3" stroke="#c0c0c0" cx="127.143" cy="-472.6608" rx="3.5" ry="3.5"/>
</g>
<!-- 3404&#45;&gt;3405 -->
<g id="edge6" class="edge">
<title>3404&#45;&gt;3405</title>
<path fill="none" stroke="#c0c0c0" d="M102.2971,-472.6608C105.8057,-472.6608 109.722,-472.6608 113.3891,-472.6608"/>
<polygon fill="#c0c0c0" stroke="#c0c0c0" points="102.0329,-469.1609 92.0329,-472.6608 102.0329,-476.1609 102.0329,-469.1609"/>
<polygon fill="#c0c0c0" stroke="#c0c0c0" points="113.4596,-476.1609 123.4595,-472.6608 113.4595,-469.1609 113.4596,-476.1609"/>
</g>
<!-- 3413 -->
<g id="node14" class="node">
<title>3413</title>
<ellipse fill="#d3d3d3" stroke="#c0c0c0" cx="163.143" cy="-364.6608" rx="3.5" ry="3.5"/>
</g>
<!-- 3405&#45;&gt;3413 -->
<g id="edge7" class="edge">
<title>3405&#45;&gt;3413</title>
<path fill="none" stroke="#c0c0c0" d="M131.5652,-459.3942C138.4908,-438.6173 151.8177,-398.6367 158.7347,-377.8856"/>
<polygon fill="#c0c0c0" stroke="#c0c0c0" points="128.1827,-458.4738 128.3408,-469.0674 134.8235,-460.6874 128.1827,-458.4738"/>
<polygon fill="#c0c0c0" stroke="#c0c0c0" points="162.0618,-378.972 161.9038,-368.3784 155.4211,-376.7584 162.0618,-378.972"/>
<text text-anchor="middle" x="106.5325" y="-421.6399" font-family="Arial" font-size="10.00" fill="#000000">Kamperfoelieweg</text>
</g>
<!-- 3406 -->
<g id="node7" class="node">
<title>3406</title>
<ellipse fill="#d3d3d3" stroke="#c0c0c0" cx="163.143" cy="-328.6608" rx="3.5" ry="3.5"/>
</g>
<!-- 3407 -->
<g id="node8" class="node">
<title>3407</title>
<ellipse fill="#d3d3d3" stroke="#c0c0c0" cx="307.143" cy="-328.6608" rx="3.5" ry="3.5"/>
</g>
<!-- 3406&#45;&gt;3407 -->
<g id="edge9" class="edge">
<title>3406&#45;&gt;3407</title>
<path fill="none" stroke="#c0c0c0" d="M177.0187,-328.6608C204.4913,-328.6608 265.5328,-328.6608 293.1228,-328.6608"/>
<polygon fill="#c0c0c0" stroke="#c0c0c0" points="176.7026,-325.1609 166.7026,-328.6608 176.7025,-332.1609 176.7026,-325.1609"/>
<polygon fill="#c0c0c0" stroke="#c0c0c0" points="293.4479,-332.1609 303.4478,-328.6608 293.4478,-325.1609 293.4479,-332.1609"/>
<text text-anchor="middle" x="235.0707" y="-319.6608" font-family="Arial" font-size="10.00" fill="#000000">Johan van Hasseltweg </text>
<text text-anchor="middle" x="235.0707" y="-307.6608" font-family="Arial" font-size="10.00" fill="#000000"> (via St. Noorderpark)</text>
</g>
<!-- 3408 -->
<g id="node9" class="node">
<title>3408</title>
<ellipse fill="#d3d3d3" stroke="#c0c0c0" cx="307.143" cy="-256.6608" rx="3.5" ry="3.5"/>
</g>
<!-- 3407&#45;&gt;3408 -->
<g id="edge10" class="edge">
<title>3407&#45;&gt;3408</title>
<path fill="none" stroke="#c0c0c0" d="M307.143,-314.6914C307.143,-301.9255 307.143,-283.1549 307.143,-270.4469"/>
<polygon fill="#c0c0c0" stroke="#c0c0c0" points="303.6431,-314.7897 307.143,-324.7897 310.6431,-314.7898 303.6431,-314.7897"/>
<polygon fill="#c0c0c0" stroke="#c0c0c0" points="310.6431,-270.2067 307.143,-260.2067 303.6431,-270.2067 310.6431,-270.2067"/>
<text text-anchor="middle" x="276.0235" y="-295.5691" font-family="Arial" font-size="10.00" fill="#000000">Meeuwenlaan</text>
</g>
<!-- 3409 -->
<g id="node10" class="node">
<title>3409</title>
<ellipse fill="#d3d3d3" stroke="#c0c0c0" cx="235.143" cy="-256.6608" rx="3.5" ry="3.5"/>
</g>
<!-- 3408&#45;&gt;3409 -->
<g id="edge11" class="edge">
<title>3408&#45;&gt;3409</title>
<path fill="none" stroke="#c0c0c0" d="M303.272,-256.6608C293.2167,-256.6608 265.8838,-256.6608 249.0527,-256.6608"/>
<polygon fill="#c0c0c0" stroke="#c0c0c0" points="248.689,-253.1609 238.6889,-256.6608 248.6889,-260.1609 248.689,-253.1609"/>
<text text-anchor="middle" x="276.1623" y="-247.6608" font-family="Arial" font-size="10.00" fill="#000000">Havikslaan </text>
<text text-anchor="middle" x="276.1623" y="-235.6608" font-family="Arial" font-size="10.00" fill="#000000"> Kraaienplein</text>
</g>
<!-- 3410 -->
<g id="node11" class="node">
<title>3410</title>
<ellipse fill="#d3d3d3" stroke="#c0c0c0" cx="307.143" cy="-112.6608" rx="3.5" ry="3.5"/>
</g>
<!-- 3409&#45;&gt;3410 -->
<g id="edge12" class="edge">
<title>3409&#45;&gt;3410</title>
<path fill="none" stroke="#c0c0c0" d="M236.7821,-253.3826C245.3572,-236.2323 285.2551,-156.4366 300.8616,-125.2235"/>
<polygon fill="#c0c0c0" stroke="#c0c0c0" points="304.196,-126.3809 305.5377,-115.8714 297.935,-123.2504 304.196,-126.3809"/>
<text text-anchor="middle" x="231.0339" y="-216.303" font-family="Arial" font-size="10.00" fill="#000000">Sperwerlaan </text>
<text text-anchor="middle" x="231.0339" y="-204.303" font-family="Arial" font-size="10.00" fill="#000000"> Spreeuwenpark </text>
<text text-anchor="middle" x="231.0339" y="-192.303" font-family="Arial" font-size="10.00" fill="#000000"> Valkenweg</text>
</g>
<!-- 3411 -->
<g id="node12" class="node">
<title>3411</title>
<ellipse fill="#d3d3d3" stroke="#c0c0c0" cx="307.143" cy="-184.6608" rx="27.3392" ry="27.3392"/>
<text text-anchor="middle" x="307.143" y="-181.6608" font-family="Arial" font-size="10.00" fill="#000000">VKW</text>
</g>
<!-- 3410&#45;&gt;3411 -->
<g id="edge13" class="edge">
<title>3410&#45;&gt;3411</title>
<path fill="none" stroke="#c0c0c0" d="M307.143,-116.5318C307.143,-122.4649 307.143,-134.4134 307.143,-146.6705"/>
<polygon fill="#c0c0c0" stroke="#c0c0c0" points="303.6431,-146.9138 307.143,-156.9138 310.6431,-146.9139 303.6431,-146.9138"/>
</g>
<!-- 3411&#45;&gt;3408 -->
<g id="edge14" class="edge">
<title>3411&#45;&gt;3408</title>
<path fill="none" stroke="#c0c0c0" d="M307.143,-212.2919C307.143,-222.7366 307.143,-234.1762 307.143,-242.8234"/>
<polygon fill="#c0c0c0" stroke="#c0c0c0" points="303.6431,-243.0533 307.143,-253.0533 310.6431,-243.0533 303.6431,-243.0533"/>
</g>
<!-- 3412&#45;&gt;3404 -->
<g id="edge5" class="edge">
<title>3412&#45;&gt;3404</title>
<path fill="none" stroke="#c0c0c0" d="M91.143,-530.6914C91.143,-516.9195 91.143,-496.1591 91.143,-483.5614"/>
<polygon fill="#c0c0c0" stroke="#c0c0c0" points="87.6431,-530.7897 91.143,-540.7897 94.6431,-530.7898 87.6431,-530.7897"/>
<polygon fill="#c0c0c0" stroke="#c0c0c0" points="94.6431,-483.2616 91.143,-473.2616 87.6431,-483.2616 94.6431,-483.2616"/>
<text text-anchor="middle" x="45.5715" y="-510.1264" font-family="Arial" font-size="10.00" fill="#000000">Banne Buikslootlaan</text>
</g>
<!-- 3413&#45;&gt;3406 -->
<g id="edge8" class="edge">
<title>3413&#45;&gt;3406</title>
<path fill="none" stroke="#c0c0c0" d="M163.143,-350.8581C163.143,-348.1676 163.143,-345.3446 163.143,-342.6482"/>
<polygon fill="#c0c0c0" stroke="#c0c0c0" points="159.6431,-351.0773 163.143,-361.0773 166.6431,-351.0774 159.6431,-351.0773"/>
<polygon fill="#c0c0c0" stroke="#c0c0c0" points="166.6431,-342.4453 163.143,-332.4454 159.6431,-342.4454 166.6431,-342.4453"/>
<text text-anchor="middle" x="143.1415" y="-349.7531" font-family="Arial" font-size="10.00" fill="#000000">Mosplein</text>
</g>
<!-- 3702 -->
<g id="node16" class="node">
<title>3702</title>
<ellipse fill="#d3d3d3" stroke="#c0c0c0" cx="523.143" cy="-472.6608" rx="3.5" ry="3.5"/>
</g>
<!-- 3701&#45;&gt;3702 -->
<g id="edge16" class="edge">
<title>3701&#45;&gt;3702</title>
<path fill="none" stroke="#c0c0c0" d="M451.6028,-544.201C456.2549,-539.5488 495.025,-500.7788 513.4671,-482.3367"/>
<polygon fill="#c0c0c0" stroke="#c0c0c0" points="516.0527,-484.7008 520.6489,-475.1549 511.1029,-479.7511 516.0527,-484.7008"/>
</g>
<!-- 3703 -->
<g id="node17" class="node">
<title>3703</title>
<ellipse fill="#d3d3d3" stroke="#c0c0c0" cx="595.143" cy="-472.6608" rx="3.5" ry="3.5"/>
</g>
<!-- 3702&#45;&gt;3703 -->
<g id="edge17" class="edge">
<title>3702&#45;&gt;3703</title>
<path fill="none" stroke="#c0c0c0" d="M527.014,-472.6608C537.0693,-472.6608 564.4022,-472.6608 581.2334,-472.6608"/>
<polygon fill="#c0c0c0" stroke="#c0c0c0" points="581.5971,-476.1609 591.5971,-472.6608 581.597,-469.1609 581.5971,-476.1609"/>
<text text-anchor="middle" x="554.1237" y="-463.6608" font-family="Arial" font-size="10.00" fill="#000000">Zuiderzeeweg</text>
</g>
<!-- 3704 -->
<g id="node18" class="node">
<title>3704</title>
<ellipse fill="#d3d3d3" stroke="#c0c0c0" cx="595.143" cy="-400.6608" rx=".5" ry=".5"/>
</g>
<!-- 3703&#45;&gt;3704 -->
<g id="edge18" class="edge">
<title>3703&#45;&gt;3704</title>
<path fill="none" stroke="#c0c0c0" d="M595.143,-468.7897C595.143,-458.0553 595.143,-427.6307 595.143,-411.3125"/>
<polygon fill="#c0c0c0" stroke="#c0c0c0" points="598.6431,-411.2616 595.143,-401.2616 591.6431,-411.2616 598.6431,-411.2616"/>
</g>
<!-- 3705 -->
<g id="node19" class="node">
<title>3705</title>
<ellipse fill="#d3d3d3" stroke="#c0c0c0" cx="523.143" cy="-184.6608" rx=".5" ry=".5"/>
</g>
<!-- 3704&#45;&gt;3705 -->
<g id="edge19" class="edge">
<title>3704&#45;&gt;3705</title>
<path fill="none" stroke="#c0c0c0" d="M594.9365,-400.0411C591.2848,-389.0861 540.2697,-236.0407 526.5303,-194.8227"/>
<polygon fill="#c0c0c0" stroke="#c0c0c0" points="529.8197,-193.6227 523.337,-185.2427 523.1789,-195.8363 529.8197,-193.6227"/>
<text text-anchor="middle" x="501.8354" y="-324.4319" font-family="Arial" font-size="10.00" fill="#000000">Zuiderzeeweg </text>
<text text-anchor="middle" x="501.8354" y="-312.4319" font-family="Arial" font-size="10.00" fill="#000000"> (via Schellingwouderbrug </text>
<text text-anchor="middle" x="501.8354" y="-300.4319" font-family="Arial" font-size="10.00" fill="#000000"> en Amsterdamsebrug) </text>
</g>
<!-- 3709 -->
<g id="node20" class="node">
<title>3709</title>
<ellipse fill="#d3d3d3" stroke="#c0c0c0" cx="451.143" cy="-184.6608" rx="3.5" ry="3.5"/>
</g>
<!-- 3705&#45;&gt;3709 -->
<g id="edge20" class="edge">
<title>3705&#45;&gt;3709</title>
<path fill="none" stroke="#c0c0c0" d="M522.3344,-184.6608C516.8088,-184.6608 484.2638,-184.6608 465.1444,-184.6608"/>
<polygon fill="#c0c0c0" stroke="#c0c0c0" points="464.9379,-181.1607 454.9379,-184.6608 464.9379,-188.1607 464.9379,-181.1607"/>
<text text-anchor="middle" x="547.6329" y="-223.6608" font-family="Arial" font-size="10.00" fill="#000000">Insulindeweg </text>
<text text-anchor="middle" x="547.6329" y="-211.6608" font-family="Arial" font-size="10.00" fill="#000000"> (via Muiderpoortstation)</text>
<text text-anchor="middle" x="547.6329" y="-199.6608" font-family="Arial" font-size="10.00" fill="#000000"> Wijttenbachstraat </text>
<text text-anchor="middle" x="547.6329" y="-187.6608" font-family="Arial" font-size="10.00" fill="#000000"> Oosterpark </text>
</g>
<!-- 3707 -->
<g id="node21" class="node">
<title>3707</title>
<ellipse fill="#d3d3d3" stroke="#c0c0c0" cx="451.143" cy="-40.6608" rx="3.5" ry="3.5"/>
</g>
<!-- 3709&#45;&gt;3707 -->
<g id="edge21" class="edge">
<title>3709&#45;&gt;3707</title>
<path fill="none" stroke="#c0c0c0" d="M451.143,-181.1012C451.143,-163.5897 451.143,-86.1529 451.143,-54.358"/>
<polygon fill="#c0c0c0" stroke="#c0c0c0" points="454.6431,-54.3559 451.143,-44.3559 447.6431,-54.356 454.6431,-54.3559"/>
<text text-anchor="middle" x="404.467" y="-180.7296" font-family="Arial" font-size="10.00" fill="#000000">Beuken&#45;weg </text>
<text text-anchor="middle" x="404.467" y="-168.7296" font-family="Arial" font-size="10.00" fill="#000000">(via &#45;plein)</text>
<text text-anchor="middle" x="404.467" y="-156.7296" font-family="Arial" font-size="10.00" fill="#000000"> Maritzstraat </text>
<text text-anchor="middle" x="404.467" y="-144.7296" font-family="Arial" font-size="10.00" fill="#000000"> Krugerplein </text>
<text text-anchor="middle" x="404.467" y="-132.7296" font-family="Arial" font-size="10.00" fill="#000000"> Schalk Burgerstraat </text>
<text text-anchor="middle" x="404.467" y="-120.7296" font-family="Arial" font-size="10.00" fill="#000000"> Nobelweg</text>
</g>
<!-- 3708 -->
<g id="node22" class="node">
<title>3708</title>
<ellipse fill="#d3d3d3" stroke="#c0c0c0" cx="307.143" cy="-40.6608" rx="25.4216" ry="25.4216"/>
<text text-anchor="middle" x="307.143" y="-37.6608" font-family="Arial" font-size="10.00" fill="#000000">ASA</text>
</g>
<!-- 3707&#45;&gt;3708 -->
<g id="edge22" class="edge">
<title>3707&#45;&gt;3708</title>
<path fill="none" stroke="#c0c0c0" d="M447.5834,-40.6608C433.3926,-40.6608 379.8486,-40.6608 343.1316,-40.6608"/>
<polygon fill="#c0c0c0" stroke="#c0c0c0" points="342.8043,-37.1609 332.8043,-40.6608 342.8043,-44.1609 342.8043,-37.1609"/>
<text text-anchor="middle" x="395.3575" y="-31.6608" font-family="Arial" font-size="10.00" fill="#000000">Hugo de Vrieslaan </text>
<text text-anchor="middle" x="395.3575" y="-19.6608" font-family="Arial" font-size="10.00" fill="#000000"> Overzichtweg</text>
</g>
</g>
</svg>

