<?xml version="1.0" encoding="UTF-8" standalone="no"?>
<!DOCTYPE svg PUBLIC "-//W3C//DTD SVG 1.1//EN"
 "http://www.w3.org/Graphics/SVG/1.1/DTD/svg11.dtd">
<!-- Generated by graphviz version 2.40.1 (20161225.0304)
 -->
<!-- Title: G Pages: 1 -->
<svg width="1100pt" height="771pt"
 viewBox="0.00 0.00 1100.00 771.25" xmlns="http://www.w3.org/2000/svg" xmlns:xlink="http://www.w3.org/1999/xlink">
<g id="graph0" class="graph" transform="scale(1 1) rotate(0) translate(4 767.255)">
<title>G</title>
<polygon fill="#ffffff" stroke="transparent" points="-4,4 -4,-767.255 1095.9996,-767.255 1095.9996,4 -4,4"/>
<!-- 3400 -->
<g id="node1" class="node">
<title>3400</title>
<ellipse fill="#d3d3d3" stroke="#c0c0c0" cx="656.4996" cy="-525.2167" rx="22.0668" ry="22.0668"/>
<text text-anchor="middle" x="656.4996" y="-523.1167" font-family="Arial" font-size="7.00" fill="#000000">NRD</text>
</g>
<!-- 3401 -->
<g id="node2" class="node">
<title>3401</title>
<ellipse fill="#d3d3d3" stroke="#c0c0c0" cx="584.4996" cy="-525.2167" rx="3.5" ry="3.5"/>
</g>
<!-- 3400&#45;&gt;3401 -->
<g id="edge1" class="edge">
<title>3400&#45;&gt;3401</title>
<path fill="none" stroke="#c0c0c0" d="M634.113,-525.2167C622.3738,-525.2167 608.3696,-525.2167 598.238,-525.2167"/>
<polygon fill="#c0c0c0" stroke="#c0c0c0" points="598.2128,-521.7168 588.2127,-525.2167 598.2127,-528.7168 598.2128,-521.7168"/>
<text text-anchor="middle" x="606.5472" y="-518.9167" font-family="Arial" font-size="7.00" fill="#000000">IJdoornlaan </text>
<text text-anchor="middle" x="606.5472" y="-510.5167" font-family="Arial" font-size="7.00" fill="#000000"> (lijn 34)</text>
</g>
<!-- 3801 -->
<g id="node40" class="node">
<title>3801</title>
<ellipse fill="#d3d3d3" stroke="#c0c0c0" cx="728.4996" cy="-525.2167" rx="3.5" ry="3.5"/>
</g>
<!-- 3400&#45;&gt;3801 -->
<g id="edge13" class="edge">
<title>3400&#45;&gt;3801</title>
<path fill="none" stroke="#c0c0c0" d="M678.8861,-525.2167C690.6254,-525.2167 704.6295,-525.2167 714.7612,-525.2167"/>
<polygon fill="#c0c0c0" stroke="#c0c0c0" points="714.7864,-528.7168 724.7864,-525.2167 714.7864,-521.7168 714.7864,-528.7168"/>
<text text-anchor="middle" x="706.452" y="-518.9167" font-family="Arial" font-size="7.00" fill="#000000">IJdoornlaan </text>
<text text-anchor="middle" x="706.452" y="-510.5167" font-family="Arial" font-size="7.00" fill="#000000"> (lijn 37, 38)</text>
</g>
<!-- 3402 -->
<g id="node3" class="node">
<title>3402</title>
<ellipse fill="#d3d3d3" stroke="#c0c0c0" cx="584.4996" cy="-597.2167" rx=".5" ry=".5"/>
</g>
<!-- 3401&#45;&gt;3402 -->
<g id="edge2" class="edge">
<title>3401&#45;&gt;3402</title>
<path fill="none" stroke="#c0c0c0" d="M584.4996,-529.0877C584.4996,-539.8221 584.4996,-570.2467 584.4996,-586.565"/>
<polygon fill="#c0c0c0" stroke="#c0c0c0" points="580.9997,-586.6158 584.4996,-596.6159 587.9997,-586.6159 580.9997,-586.6158"/>
<text text-anchor="middle" x="564.4659" y="-559.9263" font-family="Arial" font-size="7.00" fill="#000000">Oosterlengte</text>
</g>
<!-- 3403 -->
<g id="node4" class="node">
<title>3403</title>
<ellipse fill="#d3d3d3" stroke="#c0c0c0" cx="512.4996" cy="-597.2167" rx=".5" ry=".5"/>
</g>
<!-- 3402&#45;&gt;3403 -->
<g id="edge3" class="edge">
<title>3402&#45;&gt;3403</title>
<path fill="none" stroke="#c0c0c0" d="M583.691,-597.2167C577.8395,-597.2167 541.6876,-597.2167 523.2665,-597.2167"/>
<polygon fill="#c0c0c0" stroke="#c0c0c0" points="523.2122,-593.7168 513.2122,-597.2167 523.2121,-600.7168 523.2122,-593.7168"/>
<text text-anchor="middle" x="528.9732" y="-599.3167" font-family="Arial" font-size="7.00" fill="#000000">Noorderbreedte</text>
</g>
<!-- 3404 -->
<g id="node5" class="node">
<title>3404</title>
<ellipse fill="#d3d3d3" stroke="#c0c0c0" cx="512.4996" cy="-453.2167" rx=".5" ry=".5"/>
</g>
<!-- 3403&#45;&gt;3404 -->
<g id="edge4" class="edge">
<title>3403&#45;&gt;3404</title>
<path fill="none" stroke="#c0c0c0" d="M512.4996,-596.5747C512.4996,-588.027 512.4996,-496.4888 512.4996,-464.3187"/>
<polygon fill="#c0c0c0" stroke="#c0c0c0" points="515.9997,-464.0668 512.4996,-454.0669 508.9997,-464.0669 515.9997,-464.0668"/>
<text text-anchor="middle" x="479.6269" y="-540.9467" font-family="Arial" font-size="7.00" fill="#000000">Westerlengte </text>
<text text-anchor="middle" x="479.6269" y="-532.5467" font-family="Arial" font-size="7.00" fill="#000000"> Banne Buikslootlaan</text>
</g>
<!-- 3405 -->
<g id="node6" class="node">
<title>3405</title>
<ellipse fill="#d3d3d3" stroke="#c0c0c0" cx="584.4996" cy="-453.2167" rx="3.5" ry="3.5"/>
</g>
<!-- 3404&#45;&gt;3405 -->
<g id="edge5" class="edge">
<title>3404&#45;&gt;3405</title>
<path fill="none" stroke="#c0c0c0" d="M513.3082,-453.2167C518.8338,-453.2167 551.3788,-453.2167 570.4981,-453.2167"/>
<polygon fill="#c0c0c0" stroke="#c0c0c0" points="570.7047,-456.7168 580.7047,-453.2167 570.7046,-449.7168 570.7047,-456.7168"/>
</g>
<!-- 3406 -->
<g id="node7" class="node">
<title>3406</title>
<ellipse fill="#d3d3d3" stroke="#c0c0c0" cx="584.4996" cy="-309.2167" rx="3.5" ry="3.5"/>
</g>
<!-- 3405&#45;&gt;3406 -->
<g id="edge6" class="edge">
<title>3405&#45;&gt;3406</title>
<path fill="none" stroke="#c0c0c0" d="M584.4996,-449.6571C584.4996,-432.1456 584.4996,-354.7088 584.4996,-322.9139"/>
<polygon fill="#c0c0c0" stroke="#c0c0c0" points="587.9997,-322.9118 584.4996,-312.9118 580.9997,-322.9119 587.9997,-322.9118"/>
<text text-anchor="middle" x="557.4673" y="-388.3855" font-family="Arial" font-size="7.00" fill="#000000">Kamperfoelieweg</text>
</g>
<!-- 3407 -->
<g id="node8" class="node">
<title>3407</title>
<ellipse fill="#d3d3d3" stroke="#c0c0c0" cx="728.4996" cy="-309.2167" rx="3.5" ry="3.5"/>
</g>
<!-- 3406&#45;&gt;3407 -->
<g id="edge7" class="edge">
<title>3406&#45;&gt;3407</title>
<path fill="none" stroke="#c0c0c0" d="M598.3753,-309.2167C625.8479,-309.2167 686.8894,-309.2167 714.4793,-309.2167"/>
<polygon fill="#c0c0c0" stroke="#c0c0c0" points="598.0592,-305.7168 588.0591,-309.2167 598.0591,-312.7168 598.0592,-305.7168"/>
<polygon fill="#c0c0c0" stroke="#c0c0c0" points="714.8045,-312.7168 724.8044,-309.2167 714.8044,-305.7168 714.8045,-312.7168"/>
<text text-anchor="middle" x="674.5158" y="-302.9167" font-family="Arial" font-size="7.00" fill="#000000">Johan van Hasseltweg </text>
<text text-anchor="middle" x="674.5158" y="-294.5167" font-family="Arial" font-size="7.00" fill="#000000"> (via St. Noorderpark)</text>
</g>
<!-- 3506 -->
<g id="node17" class="node">
<title>3506</title>
<ellipse fill="#d3d3d3" stroke="#c0c0c0" cx="512.4996" cy="-381.2167" rx=".5" ry=".5"/>
</g>
<!-- 3406&#45;&gt;3506 -->
<g id="edge19" class="edge">
<title>3406&#45;&gt;3506</title>
<path fill="none" stroke="#c0c0c0" d="M581.765,-311.9512C571.6508,-322.0654 536.1277,-357.5886 520.2585,-373.4577"/>
<polygon fill="#c0c0c0" stroke="#c0c0c0" points="517.7292,-371.0373 513.133,-380.5833 522.6789,-375.9871 517.7292,-371.0373"/>
<text text-anchor="middle" x="527.867" y="-353.2045" font-family="Arial" font-size="7.00" fill="#000000">Klaprozenweg </text>
<text text-anchor="middle" x="527.867" y="-344.8045" font-family="Arial" font-size="7.00" fill="#000000"> (lijn 35)</text>
</g>
<!-- 3408 -->
<g id="node9" class="node">
<title>3408</title>
<ellipse fill="#d3d3d3" stroke="#c0c0c0" cx="728.4996" cy="-237.2167" rx="3.5" ry="3.5"/>
</g>
<!-- 3407&#45;&gt;3408 -->
<g id="edge8" class="edge">
<title>3407&#45;&gt;3408</title>
<path fill="none" stroke="#c0c0c0" d="M728.4996,-305.3456C728.4996,-295.2903 728.4996,-267.9574 728.4996,-251.1263"/>
<polygon fill="#c0c0c0" stroke="#c0c0c0" points="731.9997,-250.7626 728.4996,-240.7626 724.9997,-250.7626 731.9997,-250.7626"/>
<text text-anchor="middle" x="705.7433" y="-271.936" font-family="Arial" font-size="7.00" fill="#000000">Meeuwenlaan </text>
<text text-anchor="middle" x="705.7433" y="-263.536" font-family="Arial" font-size="7.00" fill="#000000"> (lijn 34, 38)</text>
</g>
<!-- 3409 -->
<g id="node10" class="node">
<title>3409</title>
<ellipse fill="#d3d3d3" stroke="#c0c0c0" cx="656.4996" cy="-237.2167" rx="3.5" ry="3.5"/>
</g>
<!-- 3408&#45;&gt;3409 -->
<g id="edge9" class="edge">
<title>3408&#45;&gt;3409</title>
<path fill="none" stroke="#c0c0c0" d="M724.6285,-237.2167C714.5733,-237.2167 687.2404,-237.2167 670.4092,-237.2167"/>
<polygon fill="#c0c0c0" stroke="#c0c0c0" points="670.0455,-233.7168 660.0455,-237.2167 670.0455,-240.7168 670.0455,-233.7168"/>
<text text-anchor="middle" x="697.5189" y="-230.9167" font-family="Arial" font-size="7.00" fill="#000000">Havikslaan </text>
<text text-anchor="middle" x="697.5189" y="-222.5167" font-family="Arial" font-size="7.00" fill="#000000"> Kraaienplein </text>
<text text-anchor="middle" x="697.5189" y="-214.1167" font-family="Arial" font-size="7.00" fill="#000000"> (lijn 34)</text>
</g>
<!-- 3410 -->
<g id="node11" class="node">
<title>3410</title>
<ellipse fill="#d3d3d3" stroke="#c0c0c0" cx="728.4996" cy="-165.2167" rx="20.8359" ry="20.8359"/>
<text text-anchor="middle" x="728.4996" y="-163.1167" font-family="Arial" font-size="7.00" fill="#000000">VLK</text>
</g>
<!-- 3408&#45;&gt;3410 -->
<g id="edge12" class="edge">
<title>3408&#45;&gt;3410</title>
<path fill="none" stroke="#c0c0c0" d="M728.4996,-233.3456C728.4996,-226.2943 728.4996,-210.7467 728.4996,-196.2822"/>
<polygon fill="#c0c0c0" stroke="#c0c0c0" points="731.9997,-196.0783 728.4996,-186.0783 724.9997,-196.0783 731.9997,-196.0783"/>
<text text-anchor="middle" x="752.2285" y="-225.3139" font-family="Arial" font-size="7.00" fill="#000000">Meeuwenlaan &#160;</text>
<text text-anchor="middle" x="752.2285" y="-216.9139" font-family="Arial" font-size="7.00" fill="#000000"> (lijn 38)</text>
</g>
<!-- 3409&#45;&gt;3410 -->
<g id="edge10" class="edge">
<title>3409&#45;&gt;3410</title>
<path fill="none" stroke="#c0c0c0" d="M666.4072,-227.309C676.7719,-216.9443 693.3713,-200.345 706.8004,-186.9159"/>
<polygon fill="#c0c0c0" stroke="#c0c0c0" points="663.8304,-224.9361 659.2341,-234.4821 668.7801,-229.8859 663.8304,-224.9361"/>
<polygon fill="#c0c0c0" stroke="#c0c0c0" points="709.2789,-189.3871 713.8751,-179.8412 704.3291,-184.4374 709.2789,-189.3871"/>
<text text-anchor="middle" x="660.1522" y="-200.8125" font-family="Arial" font-size="7.00" fill="#000000">Sperwerlaan </text>
<text text-anchor="middle" x="660.1522" y="-192.4125" font-family="Arial" font-size="7.00" fill="#000000"> Spreeuwenpark </text>
<text text-anchor="middle" x="660.1522" y="-184.0125" font-family="Arial" font-size="7.00" fill="#000000"> Valkenweg</text>
</g>
<!-- 3806 -->
<g id="node45" class="node">
<title>3806</title>
<ellipse fill="#d3d3d3" stroke="#c0c0c0" cx="584.4996" cy="-237.2167" rx="3.5" ry="3.5"/>
</g>
<!-- 3409&#45;&gt;3806 -->
<g id="edge11" class="edge">
<title>3409&#45;&gt;3806</title>
<path fill="none" stroke="#c0c0c0" d="M652.6285,-237.2167C642.5733,-237.2167 615.2404,-237.2167 598.4092,-237.2167"/>
<polygon fill="#c0c0c0" stroke="#c0c0c0" points="598.0455,-233.7168 588.0455,-237.2167 598.0455,-240.7168 598.0455,-233.7168"/>
<text text-anchor="middle" x="625.5189" y="-230.9167" font-family="Arial" font-size="7.00" fill="#000000">Hagedoornplein </text>
<text text-anchor="middle" x="625.5189" y="-222.5167" font-family="Arial" font-size="7.00" fill="#000000"> (lijn 38)</text>
</g>
<!-- 3501 -->
<g id="node12" class="node">
<title>3501</title>
<ellipse fill="#d3d3d3" stroke="#c0c0c0" cx="800.4996" cy="-453.2167" rx="21.5347" ry="21.5347"/>
<text text-anchor="middle" x="800.4996" y="-451.1167" font-family="Arial" font-size="7.00" fill="#000000">OLO</text>
</g>
<!-- 3502 -->
<g id="node13" class="node">
<title>3502</title>
<ellipse fill="#d3d3d3" stroke="#c0c0c0" cx="872.4996" cy="-453.2167" rx="3.5" ry="3.5"/>
</g>
<!-- 3501&#45;&gt;3502 -->
<g id="edge47" class="edge">
<title>3501&#45;&gt;3502</title>
<path fill="none" stroke="#c0c0c0" d="M832.5911,-453.2167C841.7177,-453.2167 851.1834,-453.2167 858.6045,-453.2167"/>
<polygon fill="#c0c0c0" stroke="#c0c0c0" points="832.4932,-449.7168 822.4932,-453.2167 832.4931,-456.7168 832.4932,-449.7168"/>
<polygon fill="#c0c0c0" stroke="#c0c0c0" points="858.7425,-456.7168 868.7425,-453.2167 858.7425,-449.7168 858.7425,-456.7168"/>
<text text-anchor="middle" x="852.0135" y="-446.9167" font-family="Arial" font-size="7.00" fill="#000000">Buik&#45; </text>
<text text-anchor="middle" x="852.0135" y="-438.5167" font-family="Arial" font-size="7.00" fill="#000000"> &#45;sloter&#45; </text>
<text text-anchor="middle" x="852.0135" y="-430.1167" font-family="Arial" font-size="7.00" fill="#000000"> &#45;meer&#45; </text>
<text text-anchor="middle" x="852.0135" y="-421.7167" font-family="Arial" font-size="7.00" fill="#000000"> &#45;plein</text>
</g>
<!-- 3805 -->
<g id="node44" class="node">
<title>3805</title>
<ellipse fill="#d3d3d3" stroke="#c0c0c0" cx="728.4996" cy="-453.2167" rx="3.5" ry="3.5"/>
</g>
<!-- 3501&#45;&gt;3805 -->
<g id="edge46" class="edge">
<title>3501&#45;&gt;3805</title>
<path fill="none" stroke="#c0c0c0" d="M778.506,-453.2167C766.7456,-453.2167 752.6226,-453.2167 742.3894,-453.2167"/>
<polygon fill="#c0c0c0" stroke="#c0c0c0" points="742.2567,-449.7168 732.2566,-453.2167 742.2566,-456.7168 742.2567,-449.7168"/>
<text text-anchor="middle" x="747.6163" y="-488.9167" font-family="Arial" font-size="7.00" fill="#000000">Buik&#45; </text>
<text text-anchor="middle" x="747.6163" y="-480.5167" font-family="Arial" font-size="7.00" fill="#000000"> &#45;sloter&#45; </text>
<text text-anchor="middle" x="747.6163" y="-472.1167" font-family="Arial" font-size="7.00" fill="#000000"> &#45;meer&#45; </text>
<text text-anchor="middle" x="747.6163" y="-463.7167" font-family="Arial" font-size="7.00" fill="#000000"> &#45;plein </text>
<text text-anchor="middle" x="747.6163" y="-455.3167" font-family="Arial" font-size="7.00" fill="#000000"> (lijn 38)</text>
</g>
<!-- 3503 -->
<g id="node14" class="node">
<title>3503</title>
<ellipse fill="#d3d3d3" stroke="#c0c0c0" cx="944.4996" cy="-453.2167" rx="3.5" ry="3.5"/>
</g>
<!-- 3502&#45;&gt;3503 -->
<g id="edge15" class="edge">
<title>3502&#45;&gt;3503</title>
<path fill="none" stroke="#c0c0c0" d="M876.3706,-453.2167C886.4259,-453.2167 913.7588,-453.2167 930.5899,-453.2167"/>
<polygon fill="#c0c0c0" stroke="#c0c0c0" points="930.9537,-456.7168 940.9536,-453.2167 930.9536,-449.7168 930.9537,-456.7168"/>
<text text-anchor="middle" x="913.3012" y="-446.9167" font-family="Arial" font-size="7.00" fill="#000000">Werengouw </text>
<text text-anchor="middle" x="913.3012" y="-438.5167" font-family="Arial" font-size="7.00" fill="#000000"> (lijn 35)</text>
</g>
<!-- 3504 -->
<g id="node15" class="node">
<title>3504</title>
<ellipse fill="#d3d3d3" stroke="#c0c0c0" cx="944.4996" cy="-381.2167" rx="3.5" ry="3.5"/>
</g>
<!-- 3503&#45;&gt;3504 -->
<g id="edge16" class="edge">
<title>3503&#45;&gt;3504</title>
<path fill="none" stroke="#c0c0c0" d="M944.4996,-449.3456C944.4996,-439.2903 944.4996,-411.9574 944.4996,-395.1263"/>
<polygon fill="#c0c0c0" stroke="#c0c0c0" points="947.9997,-394.7626 944.4996,-384.7626 940.9997,-394.7626 947.9997,-394.7626"/>
<text text-anchor="middle" x="916.3015" y="-424.336" font-family="Arial" font-size="7.00" fill="#000000">Volendammerweg</text>
</g>
<!-- 3505 -->
<g id="node16" class="node">
<title>3505</title>
<ellipse fill="#d3d3d3" stroke="#c0c0c0" cx="728.4996" cy="-381.2167" rx="3.5" ry="3.5"/>
</g>
<!-- 3504&#45;&gt;3505 -->
<g id="edge17" class="edge">
<title>3504&#45;&gt;3505</title>
<path fill="none" stroke="#c0c0c0" d="M940.7505,-381.2167C916.8378,-381.2167 785.2703,-381.2167 742.1728,-381.2167"/>
<polygon fill="#c0c0c0" stroke="#c0c0c0" points="742.0185,-377.7168 732.0185,-381.2167 742.0185,-384.7168 742.0185,-377.7168"/>
<text text-anchor="middle" x="808.6029" y="-383.3167" font-family="Arial" font-size="7.00" fill="#000000">(Nieuwe) Purmerweg</text>
</g>
<!-- 3505&#45;&gt;3407 -->
<g id="edge18" class="edge">
<title>3505&#45;&gt;3407</title>
<path fill="none" stroke="#c0c0c0" d="M728.4996,-377.3456C728.4996,-367.2903 728.4996,-339.9574 728.4996,-323.1263"/>
<polygon fill="#c0c0c0" stroke="#c0c0c0" points="731.9997,-322.7626 728.4996,-312.7626 724.9997,-322.7626 731.9997,-322.7626"/>
<text text-anchor="middle" x="705.7433" y="-360.736" font-family="Arial" font-size="7.00" fill="#000000">Waddenweg </text>
<text text-anchor="middle" x="705.7433" y="-352.336" font-family="Arial" font-size="7.00" fill="#000000"> Meeuwenlaan</text>
</g>
<!-- 3507 -->
<g id="node18" class="node">
<title>3507</title>
<ellipse fill="#d3d3d3" stroke="#c0c0c0" cx="440.4996" cy="-381.2167" rx="3.5" ry="3.5"/>
</g>
<!-- 3506&#45;&gt;3507 -->
<g id="edge20" class="edge">
<title>3506&#45;&gt;3507</title>
<path fill="none" stroke="#c0c0c0" d="M511.691,-381.2167C506.1654,-381.2167 473.6204,-381.2167 454.501,-381.2167"/>
<polygon fill="#c0c0c0" stroke="#c0c0c0" points="454.2945,-377.7168 444.2945,-381.2167 454.2944,-384.7168 454.2945,-377.7168"/>
</g>
<!-- 3508 -->
<g id="node19" class="node">
<title>3508</title>
<ellipse fill="#d3d3d3" stroke="#c0c0c0" cx="296.4996" cy="-381.2167" rx="3.5" ry="3.5"/>
</g>
<!-- 3507&#45;&gt;3508 -->
<g id="edge21" class="edge">
<title>3507&#45;&gt;3508</title>
<path fill="none" stroke="#c0c0c0" d="M436.94,-381.2167C419.4285,-381.2167 341.9917,-381.2167 310.1968,-381.2167"/>
<polygon fill="#c0c0c0" stroke="#c0c0c0" points="310.1948,-377.7168 300.1947,-381.2167 310.1947,-384.7168 310.1948,-377.7168"/>
<text text-anchor="middle" x="350.4236" y="-391.7167" font-family="Arial" font-size="7.00" fill="#000000">Klaprozenweg </text>
<text text-anchor="middle" x="350.4236" y="-383.3167" font-family="Arial" font-size="7.00" fill="#000000"> (lijn 35)</text>
</g>
<!-- 3810 -->
<g id="node49" class="node">
<title>3810</title>
<ellipse fill="#d3d3d3" stroke="#c0c0c0" cx="440.4996" cy="-453.2167" rx="3.5" ry="3.5"/>
</g>
<!-- 3507&#45;&gt;3810 -->
<g id="edge53" class="edge">
<title>3507&#45;&gt;3810</title>
<path fill="none" stroke="#c0c0c0" d="M440.4996,-385.0877C440.4996,-395.143 440.4996,-422.4759 440.4996,-439.307"/>
<polygon fill="#c0c0c0" stroke="#c0c0c0" points="436.9997,-439.6707 440.4996,-449.6707 443.9997,-439.6708 436.9997,-439.6707"/>
<text text-anchor="middle" x="425.1377" y="-422.6974" font-family="Arial" font-size="7.00" fill="#000000">Floraweg </text>
<text text-anchor="middle" x="425.1377" y="-414.2974" font-family="Arial" font-size="7.00" fill="#000000"> (lijn 38)</text>
</g>
<!-- 3509 -->
<g id="node20" class="node">
<title>3509</title>
<ellipse fill="#d3d3d3" stroke="#c0c0c0" cx="296.4996" cy="-453.2167" rx="3.5" ry="3.5"/>
</g>
<!-- 3508&#45;&gt;3509 -->
<g id="edge22" class="edge">
<title>3508&#45;&gt;3509</title>
<path fill="none" stroke="#c0c0c0" d="M296.4996,-385.0877C296.4996,-395.143 296.4996,-422.4759 296.4996,-439.307"/>
<polygon fill="#c0c0c0" stroke="#c0c0c0" points="292.9997,-439.6707 296.4996,-449.6707 299.9997,-439.6708 292.9997,-439.6707"/>
<text text-anchor="middle" x="282.6942" y="-414.2974" font-family="Arial" font-size="7.00" fill="#000000">Atatürk</text>
</g>
<!-- 3510 -->
<g id="node21" class="node">
<title>3510</title>
<ellipse fill="#d3d3d3" stroke="#c0c0c0" cx="224.4996" cy="-453.2167" rx="3.5" ry="3.5"/>
</g>
<!-- 3509&#45;&gt;3510 -->
<g id="edge23" class="edge">
<title>3509&#45;&gt;3510</title>
<path fill="none" stroke="#c0c0c0" d="M292.6285,-453.2167C282.5733,-453.2167 255.2403,-453.2167 238.4092,-453.2167"/>
<polygon fill="#c0c0c0" stroke="#c0c0c0" points="238.0455,-449.7168 228.0455,-453.2167 238.0455,-456.7168 238.0455,-449.7168"/>
<text text-anchor="middle" x="265.5189" y="-446.9167" font-family="Arial" font-size="7.00" fill="#000000">Strekkerweg</text>
</g>
<!-- 3511 -->
<g id="node22" class="node">
<title>3511</title>
<ellipse fill="#d3d3d3" stroke="#c0c0c0" cx="224.4996" cy="-525.2167" rx=".5" ry=".5"/>
</g>
<!-- 3510&#45;&gt;3511 -->
<g id="edge24" class="edge">
<title>3510&#45;&gt;3511</title>
<path fill="none" stroke="#c0c0c0" d="M224.4996,-457.0877C224.4996,-467.8221 224.4996,-498.2467 224.4996,-514.565"/>
<polygon fill="#c0c0c0" stroke="#c0c0c0" points="220.9997,-514.6158 224.4996,-524.6158 227.9997,-514.6159 220.9997,-514.6158"/>
<text text-anchor="middle" x="196.1013" y="-487.9263" font-family="Arial" font-size="7.00" fill="#000000">Scheepsbouwweg</text>
</g>
<!-- 3512 -->
<g id="node23" class="node">
<title>3512</title>
<ellipse fill="#d3d3d3" stroke="#c0c0c0" cx="152.4996" cy="-525.2167" rx="3.5" ry="3.5"/>
</g>
<!-- 3511&#45;&gt;3512 -->
<g id="edge25" class="edge">
<title>3511&#45;&gt;3512</title>
<path fill="none" stroke="#c0c0c0" d="M223.691,-525.2167C218.1653,-525.2167 185.6204,-525.2167 166.501,-525.2167"/>
<polygon fill="#c0c0c0" stroke="#c0c0c0" points="166.2945,-521.7168 156.2944,-525.2167 166.2944,-528.7168 166.2945,-521.7168"/>
<text text-anchor="middle" x="217.6528" y="-527.3167" font-family="Arial" font-size="7.00" fill="#000000">Werktuigstraat</text>
</g>
<!-- 3513 -->
<g id="node24" class="node">
<title>3513</title>
<ellipse fill="#d3d3d3" stroke="#c0c0c0" cx="80.4996" cy="-597.2167" rx="3.5" ry="3.5"/>
</g>
<!-- 3512&#45;&gt;3513 -->
<g id="edge26" class="edge">
<title>3512&#45;&gt;3513</title>
<path fill="none" stroke="#c0c0c0" d="M149.765,-527.9512C140.1421,-537.5742 107.5185,-570.1977 90.7048,-587.0114"/>
<polygon fill="#c0c0c0" stroke="#c0c0c0" points="87.8331,-584.9334 83.2369,-594.4794 92.7828,-589.8832 87.8331,-584.9334"/>
<text text-anchor="middle" x="99.0358" y="-559.5813" font-family="Arial" font-size="7.00" fill="#000000">Meteorenweg</text>
</g>
<!-- 3514 -->
<g id="node25" class="node">
<title>3514</title>
<ellipse fill="#d3d3d3" stroke="#c0c0c0" cx="80.4996" cy="-669.2167" rx="3.5" ry="3.5"/>
</g>
<!-- 3513&#45;&gt;3514 -->
<g id="edge27" class="edge">
<title>3513&#45;&gt;3514</title>
<path fill="none" stroke="#c0c0c0" d="M80.4996,-601.0877C80.4996,-611.143 80.4996,-638.4759 80.4996,-655.307"/>
<polygon fill="#c0c0c0" stroke="#c0c0c0" points="76.9997,-655.6707 80.4996,-665.6707 83.9997,-655.6708 76.9997,-655.6707"/>
<text text-anchor="middle" x="57.3548" y="-630.2974" font-family="Arial" font-size="7.00" fill="#000000">Kometensingel</text>
</g>
<!-- 3515 -->
<g id="node26" class="node">
<title>3515</title>
<ellipse fill="#d3d3d3" stroke="#c0c0c0" cx="8.4996" cy="-741.2167" rx="3.5" ry="3.5"/>
</g>
<!-- 3514&#45;&gt;3515 -->
<g id="edge28" class="edge">
<title>3514&#45;&gt;3515</title>
<path fill="none" stroke="#c0c0c0" d="M77.765,-671.9512C68.1421,-681.5742 35.5185,-714.1977 18.7048,-731.0114"/>
<polygon fill="#c0c0c0" stroke="#c0c0c0" points="15.8331,-728.9334 11.2369,-738.4794 20.7828,-733.8832 15.8331,-728.9334"/>
<text text-anchor="middle" x="24.1174" y="-711.9813" font-family="Arial" font-size="7.00" fill="#000000">Kometensingel </text>
<text text-anchor="middle" x="24.1174" y="-703.5813" font-family="Arial" font-size="7.00" fill="#000000"> Oostzanerdijk</text>
</g>
<!-- 3516 -->
<g id="node27" class="node">
<title>3516</title>
<ellipse fill="#d3d3d3" stroke="#c0c0c0" cx="152.4996" cy="-741.2167" rx="3.5" ry="3.5"/>
</g>
<!-- 3515&#45;&gt;3516 -->
<g id="edge29" class="edge">
<title>3515&#45;&gt;3516</title>
<path fill="none" stroke="#c0c0c0" d="M12.0591,-741.2167C29.5706,-741.2167 107.0074,-741.2167 138.8024,-741.2167"/>
<polygon fill="#c0c0c0" stroke="#c0c0c0" points="138.8044,-744.7168 148.8044,-741.2167 138.8044,-737.7168 138.8044,-744.7168"/>
<text text-anchor="middle" x="52.6776" y="-743.3167" font-family="Arial" font-size="7.00" fill="#000000">Molenaarsweg</text>
</g>
<!-- 3517 -->
<g id="node28" class="node">
<title>3517</title>
<ellipse fill="#d3d3d3" stroke="#c0c0c0" cx="152.4996" cy="-669.2167" rx=".5" ry=".5"/>
</g>
<!-- 3516&#45;&gt;3517 -->
<g id="edge30" class="edge">
<title>3516&#45;&gt;3517</title>
<path fill="none" stroke="#c0c0c0" d="M152.4996,-737.3456C152.4996,-726.6112 152.4996,-696.1866 152.4996,-679.8684"/>
<polygon fill="#c0c0c0" stroke="#c0c0c0" points="155.9997,-679.8175 152.4996,-669.8175 148.9997,-679.8175 155.9997,-679.8175"/>
<text text-anchor="middle" x="134.6079" y="-710.707" font-family="Arial" font-size="7.00" fill="#000000">Stellingweg</text>
</g>
<!-- 3518 -->
<g id="node29" class="node">
<title>3518</title>
<ellipse fill="#d3d3d3" stroke="#c0c0c0" cx="224.4996" cy="-669.2167" rx="3.5" ry="3.5"/>
</g>
<!-- 3517&#45;&gt;3518 -->
<g id="edge31" class="edge">
<title>3517&#45;&gt;3518</title>
<path fill="none" stroke="#c0c0c0" d="M153.3082,-669.2167C158.8338,-669.2167 191.3787,-669.2167 210.4981,-669.2167"/>
<polygon fill="#c0c0c0" stroke="#c0c0c0" points="210.7047,-672.7168 220.7047,-669.2167 210.7046,-665.7168 210.7047,-672.7168"/>
</g>
<!-- 3519 -->
<g id="node30" class="node">
<title>3519</title>
<ellipse fill="#d3d3d3" stroke="#c0c0c0" cx="224.4996" cy="-741.2167" rx="22.0767" ry="22.0767"/>
<text text-anchor="middle" x="224.4996" y="-739.1167" font-family="Arial" font-size="7.00" fill="#000000">MOL</text>
</g>
<!-- 3518&#45;&gt;3519 -->
<g id="edge32" class="edge">
<title>3518&#45;&gt;3519</title>
<path fill="none" stroke="#c0c0c0" d="M224.4996,-673.0877C224.4996,-679.951 224.4996,-694.8635 224.4996,-708.9918"/>
<polygon fill="#c0c0c0" stroke="#c0c0c0" points="220.9997,-709.0145 224.4996,-719.0145 227.9997,-709.0146 220.9997,-709.0145"/>
<text text-anchor="middle" x="206.6079" y="-693.1398" font-family="Arial" font-size="7.00" fill="#000000">Stellingweg</text>
</g>
<!-- 3700 -->
<g id="node31" class="node">
<title>3700</title>
<ellipse fill="#d3d3d3" stroke="#c0c0c0" cx="872.4996" cy="-525.2167" rx="3.5" ry="3.5"/>
</g>
<!-- 3700&#45;&gt;3502 -->
<g id="edge14" class="edge">
<title>3700&#45;&gt;3502</title>
<path fill="none" stroke="#c0c0c0" d="M872.4996,-521.3456C872.4996,-511.2903 872.4996,-483.9574 872.4996,-467.1263"/>
<polygon fill="#c0c0c0" stroke="#c0c0c0" points="875.9997,-466.7626 872.4996,-456.7626 868.9997,-466.7626 875.9997,-466.7626"/>
<text text-anchor="middle" x="845.2741" y="-504.736" font-family="Arial" font-size="7.00" fill="#000000">Th. Weeversweg </text>
<text text-anchor="middle" x="845.2741" y="-496.336" font-family="Arial" font-size="7.00" fill="#000000"> (lijn 38)</text>
</g>
<!-- 3701 -->
<g id="node32" class="node">
<title>3701</title>
<ellipse fill="#d3d3d3" stroke="#c0c0c0" cx="944.4996" cy="-525.2167" rx=".5" ry=".5"/>
</g>
<!-- 3700&#45;&gt;3701 -->
<g id="edge33" class="edge">
<title>3700&#45;&gt;3701</title>
<path fill="none" stroke="#c0c0c0" d="M876.3706,-525.2167C887.105,-525.2167 917.5296,-525.2167 933.8479,-525.2167"/>
<polygon fill="#c0c0c0" stroke="#c0c0c0" points="933.8988,-528.7168 943.8987,-525.2167 933.8987,-521.7168 933.8988,-528.7168"/>
<text text-anchor="middle" x="924.3659" y="-535.7167" font-family="Arial" font-size="7.00" fill="#000000">IJdoornlaan </text>
<text text-anchor="middle" x="924.3659" y="-527.3167" font-family="Arial" font-size="7.00" fill="#000000"> (lijn 37)</text>
</g>
<!-- 3702 -->
<g id="node33" class="node">
<title>3702</title>
<ellipse fill="#d3d3d3" stroke="#c0c0c0" cx="1016.4996" cy="-453.2167" rx="3.5" ry="3.5"/>
</g>
<!-- 3701&#45;&gt;3702 -->
<g id="edge34" class="edge">
<title>3701&#45;&gt;3702</title>
<path fill="none" stroke="#c0c0c0" d="M944.9593,-524.7569C949.6115,-520.1047 988.3816,-481.3346 1006.8236,-462.8926"/>
<polygon fill="#c0c0c0" stroke="#c0c0c0" points="1009.4093,-465.2567 1014.0055,-455.7107 1004.4595,-460.307 1009.4093,-465.2567"/>
</g>
<!-- 3703 -->
<g id="node34" class="node">
<title>3703</title>
<ellipse fill="#d3d3d3" stroke="#c0c0c0" cx="1088.4996" cy="-453.2167" rx="3.5" ry="3.5"/>
</g>
<!-- 3702&#45;&gt;3703 -->
<g id="edge35" class="edge">
<title>3702&#45;&gt;3703</title>
<path fill="none" stroke="#c0c0c0" d="M1020.3706,-453.2167C1030.4259,-453.2167 1057.7588,-453.2167 1074.5899,-453.2167"/>
<polygon fill="#c0c0c0" stroke="#c0c0c0" points="1074.9537,-456.7168 1084.9536,-453.2167 1074.9536,-449.7168 1074.9537,-456.7168"/>
<text text-anchor="middle" x="1058.4683" y="-446.9167" font-family="Arial" font-size="7.00" fill="#000000">Zuiderzeeweg</text>
</g>
<!-- 3704 -->
<g id="node35" class="node">
<title>3704</title>
<ellipse fill="#d3d3d3" stroke="#c0c0c0" cx="1088.4996" cy="-381.2167" rx=".5" ry=".5"/>
</g>
<!-- 3703&#45;&gt;3704 -->
<g id="edge36" class="edge">
<title>3703&#45;&gt;3704</title>
<path fill="none" stroke="#c0c0c0" d="M1088.4996,-449.3456C1088.4996,-438.6112 1088.4996,-408.1866 1088.4996,-391.8684"/>
<polygon fill="#c0c0c0" stroke="#c0c0c0" points="1091.9997,-391.8174 1088.4996,-381.8175 1084.9997,-391.8175 1091.9997,-391.8174"/>
</g>
<!-- 3706 -->
<g id="node36" class="node">
<title>3706</title>
<ellipse fill="#d3d3d3" stroke="#c0c0c0" cx="872.4996" cy="-165.2167" rx=".5" ry=".5"/>
</g>
<!-- 3704&#45;&gt;3706 -->
<g id="edge37" class="edge">
<title>3704&#45;&gt;3706</title>
<path fill="none" stroke="#c0c0c0" d="M1087.8799,-380.597C1076.7091,-369.4262 917.7964,-210.5135 880.3583,-173.0754"/>
<polygon fill="#c0c0c0" stroke="#c0c0c0" points="882.6274,-170.3948 873.0815,-165.7986 877.6777,-175.3445 882.6274,-170.3948"/>
<text text-anchor="middle" x="942.8905" y="-329.3362" font-family="Arial" font-size="7.00" fill="#000000">Zuiderzeeweg </text>
<text text-anchor="middle" x="942.8905" y="-320.9362" font-family="Arial" font-size="7.00" fill="#000000"> (via Schellingwouderbrug </text>
<text text-anchor="middle" x="942.8905" y="-312.5362" font-family="Arial" font-size="7.00" fill="#000000"> en Amsterdamsebrug) </text>
<text text-anchor="middle" x="942.8905" y="-304.1362" font-family="Arial" font-size="7.00" fill="#000000"> Insulindeweg </text>
<text text-anchor="middle" x="942.8905" y="-295.7362" font-family="Arial" font-size="7.00" fill="#000000"> (via Muiderpoortstation) </text>
<text text-anchor="middle" x="942.8905" y="-287.3362" font-family="Arial" font-size="7.00" fill="#000000"> Wijttenbachweg </text>
<text text-anchor="middle" x="942.8905" y="-278.9362" font-family="Arial" font-size="7.00" fill="#000000"> Oosterpark</text>
</g>
<!-- 3707 -->
<g id="node37" class="node">
<title>3707</title>
<ellipse fill="#d3d3d3" stroke="#c0c0c0" cx="800.4996" cy="-165.2167" rx="3.5" ry="3.5"/>
</g>
<!-- 3706&#45;&gt;3707 -->
<g id="edge38" class="edge">
<title>3706&#45;&gt;3707</title>
<path fill="none" stroke="#c0c0c0" d="M871.691,-165.2167C866.1653,-165.2167 833.6204,-165.2167 814.501,-165.2167"/>
<polygon fill="#c0c0c0" stroke="#c0c0c0" points="814.2945,-161.7168 804.2945,-165.2167 814.2944,-168.7168 814.2945,-161.7168"/>
</g>
<!-- 3708 -->
<g id="node38" class="node">
<title>3708</title>
<ellipse fill="#d3d3d3" stroke="#c0c0c0" cx="800.4996" cy="-21.2167" rx="3.5" ry="3.5"/>
</g>
<!-- 3707&#45;&gt;3708 -->
<g id="edge39" class="edge">
<title>3707&#45;&gt;3708</title>
<path fill="none" stroke="#c0c0c0" d="M800.4996,-161.6571C800.4996,-144.1456 800.4996,-66.7088 800.4996,-34.9139"/>
<polygon fill="#c0c0c0" stroke="#c0c0c0" points="803.9997,-34.9118 800.4996,-24.9118 796.9997,-34.9119 803.9997,-34.9118"/>
<text text-anchor="middle" x="767.8264" y="-133.9855" font-family="Arial" font-size="7.00" fill="#000000">Beukenweg </text>
<text text-anchor="middle" x="767.8264" y="-125.5855" font-family="Arial" font-size="7.00" fill="#000000"> Maritzstraat </text>
<text text-anchor="middle" x="767.8264" y="-117.1855" font-family="Arial" font-size="7.00" fill="#000000"> Krugerplein </text>
<text text-anchor="middle" x="767.8264" y="-108.7855" font-family="Arial" font-size="7.00" fill="#000000"> Schalk Burgerstraat </text>
<text text-anchor="middle" x="767.8264" y="-100.3855" font-family="Arial" font-size="7.00" fill="#000000"> Nobelweg</text>
</g>
<!-- 3710 -->
<g id="node39" class="node">
<title>3710</title>
<ellipse fill="#d3d3d3" stroke="#c0c0c0" cx="656.4996" cy="-21.2167" rx="21.4356" ry="21.4356"/>
<text text-anchor="middle" x="656.4996" y="-19.1167" font-family="Arial" font-size="7.00" fill="#000000">ASA</text>
</g>
<!-- 3708&#45;&gt;3710 -->
<g id="edge40" class="edge">
<title>3708&#45;&gt;3710</title>
<path fill="none" stroke="#c0c0c0" d="M796.94,-21.2167C782.1579,-21.2167 724.6749,-21.2167 687.9903,-21.2167"/>
<polygon fill="#c0c0c0" stroke="#c0c0c0" points="687.7957,-17.7168 677.7957,-21.2167 687.7956,-24.7168 687.7957,-17.7168"/>
<text text-anchor="middle" x="712.7071" y="-31.7167" font-family="Arial" font-size="7.00" fill="#000000">Hugo de Vrieslaan </text>
<text text-anchor="middle" x="712.7071" y="-23.3167" font-family="Arial" font-size="7.00" fill="#000000"> Overzichtweg</text>
</g>
<!-- 3802 -->
<g id="node41" class="node">
<title>3802</title>
<ellipse fill="#d3d3d3" stroke="#c0c0c0" cx="728.4996" cy="-597.2167" rx="3.5" ry="3.5"/>
</g>
<!-- 3801&#45;&gt;3802 -->
<g id="edge42" class="edge">
<title>3801&#45;&gt;3802</title>
<path fill="none" stroke="#c0c0c0" d="M728.4996,-529.0877C728.4996,-539.143 728.4996,-566.4759 728.4996,-583.307"/>
<polygon fill="#c0c0c0" stroke="#c0c0c0" points="724.9997,-583.6707 728.4996,-593.6707 731.9997,-583.6708 724.9997,-583.6707"/>
<text text-anchor="middle" x="701.6633" y="-566.6974" font-family="Arial" font-size="7.00" fill="#000000">H. Cleyndertweg </text>
<text text-anchor="middle" x="701.6633" y="-558.2974" font-family="Arial" font-size="7.00" fill="#000000"> (lijn 38)</text>
</g>
<!-- 3804 -->
<g id="node43" class="node">
<title>3804</title>
<ellipse fill="#d3d3d3" stroke="#c0c0c0" cx="800.4996" cy="-525.2167" rx="3.5" ry="3.5"/>
</g>
<!-- 3801&#45;&gt;3804 -->
<g id="edge41" class="edge">
<title>3801&#45;&gt;3804</title>
<path fill="none" stroke="#c0c0c0" d="M732.3706,-525.2167C742.4259,-525.2167 769.7588,-525.2167 786.5899,-525.2167"/>
<polygon fill="#c0c0c0" stroke="#c0c0c0" points="786.9537,-528.7168 796.9536,-525.2167 786.9536,-521.7168 786.9537,-528.7168"/>
<text text-anchor="middle" x="778.7369" y="-535.7167" font-family="Arial" font-size="7.00" fill="#000000">IJdoornlaan </text>
<text text-anchor="middle" x="778.7369" y="-527.3167" font-family="Arial" font-size="7.00" fill="#000000"> (lijn 37)</text>
</g>
<!-- 3803 -->
<g id="node42" class="node">
<title>3803</title>
<ellipse fill="#d3d3d3" stroke="#c0c0c0" cx="800.4996" cy="-597.2167" rx="3.5" ry="3.5"/>
</g>
<!-- 3802&#45;&gt;3803 -->
<g id="edge43" class="edge">
<title>3802&#45;&gt;3803</title>
<path fill="none" stroke="#c0c0c0" d="M732.3706,-597.2167C742.4259,-597.2167 769.7588,-597.2167 786.5899,-597.2167"/>
<polygon fill="#c0c0c0" stroke="#c0c0c0" points="786.9537,-600.7168 796.9536,-597.2167 786.9536,-593.7168 786.9537,-600.7168"/>
<text text-anchor="middle" x="759.4803" y="-590.9167" font-family="Arial" font-size="7.00" fill="#000000">J.H. van Heekweg</text>
</g>
<!-- 3803&#45;&gt;3804 -->
<g id="edge44" class="edge">
<title>3803&#45;&gt;3804</title>
<path fill="none" stroke="#c0c0c0" d="M800.4996,-593.3456C800.4996,-583.2903 800.4996,-555.9574 800.4996,-539.1263"/>
<polygon fill="#c0c0c0" stroke="#c0c0c0" points="803.9997,-538.7626 800.4996,-528.7626 796.9997,-538.7626 803.9997,-538.7626"/>
<text text-anchor="middle" x="780.2804" y="-568.336" font-family="Arial" font-size="7.00" fill="#000000">J. Drijverweg</text>
</g>
<!-- 3804&#45;&gt;3700 -->
<g id="edge45" class="edge">
<title>3804&#45;&gt;3700</title>
<path fill="none" stroke="#c0c0c0" d="M804.3706,-525.2167C814.4259,-525.2167 841.7588,-525.2167 858.5899,-525.2167"/>
<polygon fill="#c0c0c0" stroke="#c0c0c0" points="858.9537,-528.7168 868.9536,-525.2167 858.9536,-521.7168 858.9537,-528.7168"/>
<text text-anchor="middle" x="849.7643" y="-527.3167" font-family="Arial" font-size="7.00" fill="#000000">IJdoornlaan</text>
</g>
<!-- 3805&#45;&gt;3505 -->
<g id="edge48" class="edge">
<title>3805&#45;&gt;3505</title>
<path fill="none" stroke="#c0c0c0" d="M728.4996,-449.3456C728.4996,-439.2903 728.4996,-411.9574 728.4996,-395.1263"/>
<polygon fill="#c0c0c0" stroke="#c0c0c0" points="731.9997,-394.7626 728.4996,-384.7626 724.9997,-394.7626 731.9997,-394.7626"/>
<text text-anchor="middle" x="709.0497" y="-424.336" font-family="Arial" font-size="7.00" fill="#000000">Waddenweg</text>
</g>
<!-- 3807 -->
<g id="node46" class="node">
<title>3807</title>
<ellipse fill="#d3d3d3" stroke="#c0c0c0" cx="512.4996" cy="-165.2167" rx="3.5" ry="3.5"/>
</g>
<!-- 3806&#45;&gt;3807 -->
<g id="edge49" class="edge">
<title>3806&#45;&gt;3807</title>
<path fill="none" stroke="#c0c0c0" d="M581.765,-234.4821C572.1421,-224.8592 539.5185,-192.2356 522.7048,-175.4219"/>
<polygon fill="#c0c0c0" stroke="#c0c0c0" points="524.7828,-172.5502 515.2369,-167.954 519.8331,-177.4999 524.7828,-172.5502"/>
<text text-anchor="middle" x="531.2318" y="-207.052" font-family="Arial" font-size="7.00" fill="#000000">Meidoornweg</text>
</g>
<!-- 3808 -->
<g id="node47" class="node">
<title>3808</title>
<ellipse fill="#d3d3d3" stroke="#c0c0c0" cx="512.4996" cy="-93.2167" rx="3.5" ry="3.5"/>
</g>
<!-- 3807&#45;&gt;3808 -->
<g id="edge50" class="edge">
<title>3807&#45;&gt;3808</title>
<path fill="none" stroke="#c0c0c0" d="M512.4996,-151.2473C512.4996,-138.4814 512.4996,-119.7107 512.4996,-107.0027"/>
<polygon fill="#c0c0c0" stroke="#c0c0c0" points="508.9997,-151.3456 512.4996,-161.3456 515.9997,-151.3457 508.9997,-151.3456"/>
<polygon fill="#c0c0c0" stroke="#c0c0c0" points="515.9997,-106.7626 512.4996,-96.7626 508.9997,-106.7626 515.9997,-106.7626"/>
<text text-anchor="middle" x="490.1311" y="-131.225" font-family="Arial" font-size="7.00" fill="#000000">Ranonkelkade</text>
</g>
<!-- 3809 -->
<g id="node48" class="node">
<title>3809</title>
<ellipse fill="#d3d3d3" stroke="#c0c0c0" cx="440.4996" cy="-237.2167" rx="3.5" ry="3.5"/>
</g>
<!-- 3807&#45;&gt;3809 -->
<g id="edge51" class="edge">
<title>3807&#45;&gt;3809</title>
<path fill="none" stroke="#c0c0c0" d="M509.765,-167.9512C500.1421,-177.5742 467.5185,-210.1977 450.7048,-227.0114"/>
<polygon fill="#c0c0c0" stroke="#c0c0c0" points="447.8331,-224.9334 443.2369,-234.4794 452.7828,-229.8832 447.8331,-224.9334"/>
<text text-anchor="middle" x="453.0032" y="-216.3813" font-family="Arial" font-size="7.00" fill="#000000">Van der Pekbrug </text>
<text text-anchor="middle" x="453.0032" y="-207.9813" font-family="Arial" font-size="7.00" fill="#000000"> Docklandsweg </text>
<text text-anchor="middle" x="453.0032" y="-199.5813" font-family="Arial" font-size="7.00" fill="#000000"> Asterweg</text>
</g>
<!-- 3809&#45;&gt;3507 -->
<g id="edge52" class="edge">
<title>3809&#45;&gt;3507</title>
<path fill="none" stroke="#c0c0c0" d="M440.4996,-240.7762C440.4996,-258.2878 440.4996,-335.7245 440.4996,-367.5195"/>
<polygon fill="#c0c0c0" stroke="#c0c0c0" points="436.9997,-367.5215 440.4996,-377.5215 443.9997,-367.5215 436.9997,-367.5215"/>
<text text-anchor="middle" x="415.0241" y="-306.2479" font-family="Arial" font-size="7.00" fill="#000000">Ridderspoorweg</text>
</g>
<!-- 3811 -->
<g id="node50" class="node">
<title>3811</title>
<ellipse fill="#d3d3d3" stroke="#c0c0c0" cx="368.4996" cy="-453.2167" rx="3.5" ry="3.5"/>
</g>
<!-- 3810&#45;&gt;3811 -->
<g id="edge54" class="edge">
<title>3810&#45;&gt;3811</title>
<path fill="none" stroke="#c0c0c0" d="M436.6285,-453.2167C426.5733,-453.2167 399.2404,-453.2167 382.4092,-453.2167"/>
<polygon fill="#c0c0c0" stroke="#c0c0c0" points="382.0455,-449.7168 372.0455,-453.2167 382.0455,-456.7168 382.0455,-449.7168"/>
<text text-anchor="middle" x="393.3804" y="-455.3167" font-family="Arial" font-size="7.00" fill="#000000">Slijperweg</text>
</g>
<!-- 3812 -->
<g id="node51" class="node">
<title>3812</title>
<ellipse fill="#d3d3d3" stroke="#c0c0c0" cx="368.4996" cy="-525.2167" rx="3.5" ry="3.5"/>
</g>
<!-- 3811&#45;&gt;3812 -->
<g id="edge55" class="edge">
<title>3811&#45;&gt;3812</title>
<path fill="none" stroke="#c0c0c0" d="M368.4996,-457.0877C368.4996,-467.143 368.4996,-494.4759 368.4996,-511.307"/>
<polygon fill="#c0c0c0" stroke="#c0c0c0" points="364.9997,-511.6707 368.4996,-521.6707 371.9997,-511.6708 364.9997,-511.6707"/>
<text text-anchor="middle" x="344.1928" y="-486.2974" font-family="Arial" font-size="7.00" fill="#000000">Vuurwerkerweg</text>
</g>
<!-- 3813 -->
<g id="node52" class="node">
<title>3813</title>
<ellipse fill="#d3d3d3" stroke="#c0c0c0" cx="296.4996" cy="-525.2167" rx="21.5249" ry="21.5249"/>
<text text-anchor="middle" x="296.4996" y="-523.1167" font-family="Arial" font-size="7.00" fill="#000000">MET</text>
</g>
<!-- 3812&#45;&gt;3813 -->
<g id="edge56" class="edge">
<title>3812&#45;&gt;3813</title>
<path fill="none" stroke="#c0c0c0" d="M364.6285,-525.2167C357.7183,-525.2167 342.6481,-525.2167 328.4342,-525.2167"/>
<polygon fill="#c0c0c0" stroke="#c0c0c0" points="328.3646,-521.7168 318.3646,-525.2167 328.3646,-528.7168 328.3646,-521.7168"/>
<text text-anchor="middle" x="346.5314" y="-518.9167" font-family="Arial" font-size="7.00" fill="#000000">Metaal&#45; </text>
<text text-anchor="middle" x="346.5314" y="-510.5167" font-family="Arial" font-size="7.00" fill="#000000"> &#45;bewerker&#45; </text>
<text text-anchor="middle" x="346.5314" y="-502.1167" font-family="Arial" font-size="7.00" fill="#000000"> &#45;weg</text>
</g>
</g>
</svg>

