<?xml version="1.0" encoding="UTF-8" standalone="no"?>
<!DOCTYPE svg PUBLIC "-//W3C//DTD SVG 1.1//EN"
 "http://www.w3.org/Graphics/SVG/1.1/DTD/svg11.dtd">
<!-- Generated by graphviz version 2.40.1 (20161225.0304)
 -->
<!-- Title: G Pages: 1 -->
<svg width="1121pt" height="780pt"
 viewBox="0.00 0.00 1120.67 780.10" xmlns="http://www.w3.org/2000/svg" xmlns:xlink="http://www.w3.org/1999/xlink">
<g id="graph0" class="graph" transform="scale(1 1) rotate(0) translate(4 776.0954)">
<title>G</title>
<polygon fill="#ffffff" stroke="transparent" points="-4,4 -4,-776.0954 1116.6717,-776.0954 1116.6717,4 -4,4"/>
<!-- 3400 -->
<g id="node1" class="node">
<title>3400</title>
<ellipse fill="#d3d3d3" stroke="#c0c0c0" cx="677.1717" cy="-529.4608" rx="26.7557" ry="26.7557"/>
<text text-anchor="middle" x="677.1717" y="-526.4608" font-family="Arial" font-size="10.00" fill="#000000">NRD</text>
</g>
<!-- 3401 -->
<g id="node2" class="node">
<title>3401</title>
<ellipse fill="#d3d3d3" stroke="#c0c0c0" cx="605.1717" cy="-529.4608" rx="3.5" ry="3.5"/>
</g>
<!-- 3400&#45;&gt;3401 -->
<g id="edge1" class="edge">
<title>3400&#45;&gt;3401</title>
<path fill="none" stroke="#c0c0c0" d="M650.3615,-529.4608C639.7089,-529.4608 627.9058,-529.4608 619.0343,-529.4608"/>
<polygon fill="#c0c0c0" stroke="#c0c0c0" points="618.8724,-525.9609 608.8723,-529.4608 618.8723,-532.9609 618.8724,-525.9609"/>
<text text-anchor="middle" x="607.1884" y="-544.4608" font-family="Arial" font-size="10.00" fill="#000000">IJdoornlaan </text>
<text text-anchor="middle" x="607.1884" y="-532.4608" font-family="Arial" font-size="10.00" fill="#000000"> (lijn 34)</text>
</g>
<!-- 3801 -->
<g id="node40" class="node">
<title>3801</title>
<ellipse fill="#d3d3d3" stroke="#c0c0c0" cx="749.1717" cy="-529.4608" rx="3.5" ry="3.5"/>
</g>
<!-- 3400&#45;&gt;3801 -->
<g id="edge13" class="edge">
<title>3400&#45;&gt;3801</title>
<path fill="none" stroke="#c0c0c0" d="M703.9818,-529.4608C714.6344,-529.4608 726.4376,-529.4608 735.3091,-529.4608"/>
<polygon fill="#c0c0c0" stroke="#c0c0c0" points="735.4711,-532.9609 745.471,-529.4608 735.471,-525.9609 735.4711,-532.9609"/>
<text text-anchor="middle" x="747.155" y="-544.4608" font-family="Arial" font-size="10.00" fill="#000000">IJdoornlaan </text>
<text text-anchor="middle" x="747.155" y="-532.4608" font-family="Arial" font-size="10.00" fill="#000000"> (lijn 37, 38)</text>
</g>
<!-- 3402 -->
<g id="node3" class="node">
<title>3402</title>
<ellipse fill="#d3d3d3" stroke="#c0c0c0" cx="605.1717" cy="-601.4608" rx=".5" ry=".5"/>
</g>
<!-- 3401&#45;&gt;3402 -->
<g id="edge2" class="edge">
<title>3401&#45;&gt;3402</title>
<path fill="none" stroke="#c0c0c0" d="M605.1717,-533.3318C605.1717,-544.0662 605.1717,-574.4908 605.1717,-590.8091"/>
<polygon fill="#c0c0c0" stroke="#c0c0c0" points="601.6718,-590.8599 605.1717,-600.86 608.6718,-590.86 601.6718,-590.8599"/>
<text text-anchor="middle" x="576.5522" y="-565.0705" font-family="Arial" font-size="10.00" fill="#000000">Oosterlengte</text>
</g>
<!-- 3403 -->
<g id="node4" class="node">
<title>3403</title>
<ellipse fill="#d3d3d3" stroke="#c0c0c0" cx="533.1717" cy="-601.4608" rx=".5" ry=".5"/>
</g>
<!-- 3402&#45;&gt;3403 -->
<g id="edge3" class="edge">
<title>3402&#45;&gt;3403</title>
<path fill="none" stroke="#c0c0c0" d="M604.3631,-601.4608C598.5116,-601.4608 562.3597,-601.4608 543.9386,-601.4608"/>
<polygon fill="#c0c0c0" stroke="#c0c0c0" points="543.8843,-597.9609 533.8843,-601.4608 543.8842,-604.9609 543.8843,-597.9609"/>
<text text-anchor="middle" x="553.0404" y="-616.4608" font-family="Arial" font-size="10.00" fill="#000000">Noorder&#45; </text>
<text text-anchor="middle" x="553.0404" y="-604.4608" font-family="Arial" font-size="10.00" fill="#000000"> &#45;breedte</text>
</g>
<!-- 3404 -->
<g id="node5" class="node">
<title>3404</title>
<ellipse fill="#d3d3d3" stroke="#c0c0c0" cx="533.1717" cy="-457.4608" rx=".5" ry=".5"/>
</g>
<!-- 3403&#45;&gt;3404 -->
<g id="edge4" class="edge">
<title>3403&#45;&gt;3404</title>
<path fill="none" stroke="#c0c0c0" d="M533.1717,-600.8188C533.1717,-592.2712 533.1717,-500.7329 533.1717,-468.5628"/>
<polygon fill="#c0c0c0" stroke="#c0c0c0" points="536.6718,-468.3109 533.1717,-458.311 529.6718,-468.311 536.6718,-468.3109"/>
<text text-anchor="middle" x="486.2107" y="-549.6908" font-family="Arial" font-size="10.00" fill="#000000">Westerlengte </text>
<text text-anchor="middle" x="486.2107" y="-537.6908" font-family="Arial" font-size="10.00" fill="#000000"> Banne Buikslootlaan</text>
</g>
<!-- 3405 -->
<g id="node6" class="node">
<title>3405</title>
<ellipse fill="#d3d3d3" stroke="#c0c0c0" cx="605.1717" cy="-457.4608" rx="3.5" ry="3.5"/>
</g>
<!-- 3404&#45;&gt;3405 -->
<g id="edge5" class="edge">
<title>3404&#45;&gt;3405</title>
<path fill="none" stroke="#c0c0c0" d="M533.9803,-457.4608C539.5059,-457.4608 572.0509,-457.4608 591.1702,-457.4608"/>
<polygon fill="#c0c0c0" stroke="#c0c0c0" points="591.3768,-460.9609 601.3768,-457.4608 591.3767,-453.9609 591.3768,-460.9609"/>
</g>
<!-- 3406 -->
<g id="node7" class="node">
<title>3406</title>
<ellipse fill="#d3d3d3" stroke="#c0c0c0" cx="605.1717" cy="-313.4608" rx="3.5" ry="3.5"/>
</g>
<!-- 3405&#45;&gt;3406 -->
<g id="edge6" class="edge">
<title>3405&#45;&gt;3406</title>
<path fill="none" stroke="#c0c0c0" d="M605.1717,-453.9012C605.1717,-436.3897 605.1717,-358.9529 605.1717,-327.158"/>
<polygon fill="#c0c0c0" stroke="#c0c0c0" points="608.6718,-327.1559 605.1717,-317.1559 601.6718,-327.156 608.6718,-327.1559"/>
<text text-anchor="middle" x="566.5542" y="-393.5296" font-family="Arial" font-size="10.00" fill="#000000">Kamperfoelieweg</text>
</g>
<!-- 3407 -->
<g id="node8" class="node">
<title>3407</title>
<ellipse fill="#d3d3d3" stroke="#c0c0c0" cx="749.1717" cy="-313.4608" rx="3.5" ry="3.5"/>
</g>
<!-- 3406&#45;&gt;3407 -->
<g id="edge7" class="edge">
<title>3406&#45;&gt;3407</title>
<path fill="none" stroke="#c0c0c0" d="M619.0474,-313.4608C646.52,-313.4608 707.5615,-313.4608 735.1514,-313.4608"/>
<polygon fill="#c0c0c0" stroke="#c0c0c0" points="618.7313,-309.9609 608.7312,-313.4608 618.7312,-316.9609 618.7313,-309.9609"/>
<polygon fill="#c0c0c0" stroke="#c0c0c0" points="735.4766,-316.9609 745.4765,-313.4608 735.4765,-309.9609 735.4766,-316.9609"/>
<text text-anchor="middle" x="677.0994" y="-304.4608" font-family="Arial" font-size="10.00" fill="#000000">Johan van Hasseltweg </text>
<text text-anchor="middle" x="677.0994" y="-292.4608" font-family="Arial" font-size="10.00" fill="#000000"> (via St. Noorderpark)</text>
</g>
<!-- 3506 -->
<g id="node17" class="node">
<title>3506</title>
<ellipse fill="#d3d3d3" stroke="#c0c0c0" cx="533.1717" cy="-385.4608" rx=".5" ry=".5"/>
</g>
<!-- 3406&#45;&gt;3506 -->
<g id="edge19" class="edge">
<title>3406&#45;&gt;3506</title>
<path fill="none" stroke="#c0c0c0" d="M602.4371,-316.1954C592.3229,-326.3095 556.7998,-361.8327 540.9306,-377.7018"/>
<polygon fill="#c0c0c0" stroke="#c0c0c0" points="538.4013,-375.2814 533.8051,-384.8274 543.351,-380.2312 538.4013,-375.2814"/>
<text text-anchor="middle" x="538.6199" y="-361.9486" font-family="Arial" font-size="10.00" fill="#000000">Klaprozenweg </text>
<text text-anchor="middle" x="538.6199" y="-349.9486" font-family="Arial" font-size="10.00" fill="#000000"> (lijn 35)</text>
</g>
<!-- 3408 -->
<g id="node9" class="node">
<title>3408</title>
<ellipse fill="#d3d3d3" stroke="#c0c0c0" cx="749.1717" cy="-241.4608" rx="3.5" ry="3.5"/>
</g>
<!-- 3407&#45;&gt;3408 -->
<g id="edge8" class="edge">
<title>3407&#45;&gt;3408</title>
<path fill="none" stroke="#c0c0c0" d="M749.1717,-309.5898C749.1717,-299.5345 749.1717,-272.2016 749.1717,-255.3704"/>
<polygon fill="#c0c0c0" stroke="#c0c0c0" points="752.6718,-255.0067 749.1717,-245.0067 745.6718,-255.0068 752.6718,-255.0067"/>
<text text-anchor="middle" x="716.6627" y="-273.4801" font-family="Arial" font-size="10.00" fill="#000000">Meeuwenlaan </text>
<text text-anchor="middle" x="716.6627" y="-261.4801" font-family="Arial" font-size="10.00" fill="#000000"> (lijn 34, 38)</text>
</g>
<!-- 3409 -->
<g id="node10" class="node">
<title>3409</title>
<ellipse fill="#d3d3d3" stroke="#c0c0c0" cx="677.1717" cy="-241.4608" rx="3.5" ry="3.5"/>
</g>
<!-- 3408&#45;&gt;3409 -->
<g id="edge9" class="edge">
<title>3408&#45;&gt;3409</title>
<path fill="none" stroke="#c0c0c0" d="M745.3006,-241.4608C735.2454,-241.4608 707.9125,-241.4608 691.0813,-241.4608"/>
<polygon fill="#c0c0c0" stroke="#c0c0c0" points="690.7176,-237.9609 680.7176,-241.4608 690.7176,-244.9609 690.7176,-237.9609"/>
<text text-anchor="middle" x="718.191" y="-232.4608" font-family="Arial" font-size="10.00" fill="#000000">Havikslaan </text>
<text text-anchor="middle" x="718.191" y="-220.4608" font-family="Arial" font-size="10.00" fill="#000000"> Kraaienplein </text>
<text text-anchor="middle" x="718.191" y="-208.4608" font-family="Arial" font-size="10.00" fill="#000000"> (lijn 34)</text>
</g>
<!-- 3410 -->
<g id="node11" class="node">
<title>3410</title>
<ellipse fill="#d3d3d3" stroke="#c0c0c0" cx="749.1717" cy="-169.4608" rx="24.8531" ry="24.8531"/>
<text text-anchor="middle" x="749.1717" y="-166.4608" font-family="Arial" font-size="10.00" fill="#000000">VLK</text>
</g>
<!-- 3408&#45;&gt;3410 -->
<g id="edge12" class="edge">
<title>3408&#45;&gt;3410</title>
<path fill="none" stroke="#c0c0c0" d="M749.1717,-237.5898C749.1717,-231.1656 749.1717,-217.689 749.1717,-204.4044"/>
<polygon fill="#c0c0c0" stroke="#c0c0c0" points="752.6718,-204.4029 749.1717,-194.403 745.6718,-204.403 752.6718,-204.4029"/>
<text text-anchor="middle" x="783.0702" y="-211.9971" font-family="Arial" font-size="10.00" fill="#000000">Meeuwenlaan &#160;</text>
<text text-anchor="middle" x="783.0702" y="-199.9971" font-family="Arial" font-size="10.00" fill="#000000"> (lijn 38)</text>
</g>
<!-- 3409&#45;&gt;3410 -->
<g id="edge10" class="edge">
<title>3409&#45;&gt;3410</title>
<path fill="none" stroke="#c0c0c0" d="M687.2903,-231.3422C696.9099,-221.7226 711.7604,-206.8721 724.5021,-194.1303"/>
<polygon fill="#c0c0c0" stroke="#c0c0c0" points="684.5025,-229.1802 679.9062,-238.7262 689.4522,-234.13 684.5025,-229.1802"/>
<polygon fill="#c0c0c0" stroke="#c0c0c0" points="727.1089,-196.4733 731.7052,-186.9273 722.1592,-191.5235 727.1089,-196.4733"/>
<text text-anchor="middle" x="668.1082" y="-203.7363" font-family="Arial" font-size="10.00" fill="#000000">Sperwerlaan </text>
<text text-anchor="middle" x="668.1082" y="-191.7363" font-family="Arial" font-size="10.00" fill="#000000"> Spreeuwenpark </text>
<text text-anchor="middle" x="668.1082" y="-179.7363" font-family="Arial" font-size="10.00" fill="#000000"> Valkenweg</text>
</g>
<!-- 3806 -->
<g id="node45" class="node">
<title>3806</title>
<ellipse fill="#d3d3d3" stroke="#c0c0c0" cx="605.1717" cy="-241.4608" rx="3.5" ry="3.5"/>
</g>
<!-- 3409&#45;&gt;3806 -->
<g id="edge11" class="edge">
<title>3409&#45;&gt;3806</title>
<path fill="none" stroke="#c0c0c0" d="M673.3006,-241.4608C663.2454,-241.4608 635.9125,-241.4608 619.0813,-241.4608"/>
<polygon fill="#c0c0c0" stroke="#c0c0c0" points="618.7176,-237.9609 608.7176,-241.4608 618.7176,-244.9609 618.7176,-237.9609"/>
<text text-anchor="middle" x="609.5135" y="-256.4608" font-family="Arial" font-size="10.00" fill="#000000">Hagedoornplein </text>
<text text-anchor="middle" x="609.5135" y="-244.4608" font-family="Arial" font-size="10.00" fill="#000000"> (lijn 38)</text>
</g>
<!-- 3501 -->
<g id="node12" class="node">
<title>3501</title>
<ellipse fill="#d3d3d3" stroke="#c0c0c0" cx="821.1717" cy="-457.4608" rx="26.4937" ry="26.4937"/>
<text text-anchor="middle" x="821.1717" y="-454.4608" font-family="Arial" font-size="10.00" fill="#000000">OLO</text>
</g>
<!-- 3502 -->
<g id="node13" class="node">
<title>3502</title>
<ellipse fill="#d3d3d3" stroke="#c0c0c0" cx="893.1717" cy="-457.4608" rx="3.5" ry="3.5"/>
</g>
<!-- 3501&#45;&gt;3502 -->
<g id="edge47" class="edge">
<title>3501&#45;&gt;3502</title>
<path fill="none" stroke="#c0c0c0" d="M857.7565,-457.4608C865.3724,-457.4608 872.9533,-457.4608 879.1355,-457.4608"/>
<polygon fill="#c0c0c0" stroke="#c0c0c0" points="857.573,-453.9609 847.573,-457.4608 857.5729,-460.9609 857.573,-453.9609"/>
<polygon fill="#c0c0c0" stroke="#c0c0c0" points="879.424,-460.9609 889.424,-457.4608 879.424,-453.9609 879.424,-460.9609"/>
<text text-anchor="middle" x="868.446" y="-448.4608" font-family="Arial" font-size="10.00" fill="#000000">Buik&#45; </text>
<text text-anchor="middle" x="868.446" y="-436.4608" font-family="Arial" font-size="10.00" fill="#000000"> &#45;sloter&#45; </text>
<text text-anchor="middle" x="868.446" y="-424.4608" font-family="Arial" font-size="10.00" fill="#000000"> &#45;meer&#45; </text>
<text text-anchor="middle" x="868.446" y="-412.4608" font-family="Arial" font-size="10.00" fill="#000000"> &#45;plein</text>
</g>
<!-- 3805 -->
<g id="node44" class="node">
<title>3805</title>
<ellipse fill="#d3d3d3" stroke="#c0c0c0" cx="749.1717" cy="-457.4608" rx="3.5" ry="3.5"/>
</g>
<!-- 3501&#45;&gt;3805 -->
<g id="edge46" class="edge">
<title>3501&#45;&gt;3805</title>
<path fill="none" stroke="#c0c0c0" d="M794.7704,-457.4608C784.0771,-457.4608 772.1649,-457.4608 763.1981,-457.4608"/>
<polygon fill="#c0c0c0" stroke="#c0c0c0" points="762.9194,-453.9609 752.9193,-457.4608 762.9193,-460.9609 762.9194,-453.9609"/>
<text text-anchor="middle" x="769.819" y="-448.4608" font-family="Arial" font-size="10.00" fill="#000000">Buik&#45; </text>
<text text-anchor="middle" x="769.819" y="-436.4608" font-family="Arial" font-size="10.00" fill="#000000"> &#45;sloter&#45; </text>
<text text-anchor="middle" x="769.819" y="-424.4608" font-family="Arial" font-size="10.00" fill="#000000"> &#45;meer&#45; </text>
<text text-anchor="middle" x="769.819" y="-412.4608" font-family="Arial" font-size="10.00" fill="#000000"> &#45;plein </text>
<text text-anchor="middle" x="769.819" y="-400.4608" font-family="Arial" font-size="10.00" fill="#000000"> (lijn 38)</text>
</g>
<!-- 3503 -->
<g id="node14" class="node">
<title>3503</title>
<ellipse fill="#d3d3d3" stroke="#c0c0c0" cx="965.1717" cy="-457.4608" rx="3.5" ry="3.5"/>
</g>
<!-- 3502&#45;&gt;3503 -->
<g id="edge15" class="edge">
<title>3502&#45;&gt;3503</title>
<path fill="none" stroke="#c0c0c0" d="M897.0427,-457.4608C907.098,-457.4608 934.4309,-457.4608 951.262,-457.4608"/>
<polygon fill="#c0c0c0" stroke="#c0c0c0" points="951.6258,-460.9609 961.6257,-457.4608 951.6257,-453.9609 951.6258,-460.9609"/>
<text text-anchor="middle" x="924.1523" y="-448.4608" font-family="Arial" font-size="10.00" fill="#000000">Werengouw </text>
<text text-anchor="middle" x="924.1523" y="-436.4608" font-family="Arial" font-size="10.00" fill="#000000"> (lijn 35)</text>
</g>
<!-- 3504 -->
<g id="node15" class="node">
<title>3504</title>
<ellipse fill="#d3d3d3" stroke="#c0c0c0" cx="965.1717" cy="-385.4608" rx="3.5" ry="3.5"/>
</g>
<!-- 3503&#45;&gt;3504 -->
<g id="edge16" class="edge">
<title>3503&#45;&gt;3504</title>
<path fill="none" stroke="#c0c0c0" d="M965.1717,-453.5898C965.1717,-443.5345 965.1717,-416.2016 965.1717,-399.3704"/>
<polygon fill="#c0c0c0" stroke="#c0c0c0" points="968.6718,-399.0067 965.1717,-389.0067 961.6718,-399.0068 968.6718,-399.0067"/>
<text text-anchor="middle" x="1005.4547" y="-429.4801" font-family="Arial" font-size="10.00" fill="#000000">Volendammerweg</text>
</g>
<!-- 3505 -->
<g id="node16" class="node">
<title>3505</title>
<ellipse fill="#d3d3d3" stroke="#c0c0c0" cx="749.1717" cy="-385.4608" rx="3.5" ry="3.5"/>
</g>
<!-- 3504&#45;&gt;3505 -->
<g id="edge17" class="edge">
<title>3504&#45;&gt;3505</title>
<path fill="none" stroke="#c0c0c0" d="M961.4226,-385.4608C937.5099,-385.4608 805.9424,-385.4608 762.8449,-385.4608"/>
<polygon fill="#c0c0c0" stroke="#c0c0c0" points="762.6906,-381.9609 752.6906,-385.4608 762.6906,-388.9609 762.6906,-381.9609"/>
<text text-anchor="middle" x="815.1927" y="-388.4608" font-family="Arial" font-size="10.00" fill="#000000">(Nieuwe) Purmerweg</text>
</g>
<!-- 3505&#45;&gt;3407 -->
<g id="edge18" class="edge">
<title>3505&#45;&gt;3407</title>
<path fill="none" stroke="#c0c0c0" d="M749.1717,-381.5898C749.1717,-371.5345 749.1717,-344.2016 749.1717,-327.3704"/>
<polygon fill="#c0c0c0" stroke="#c0c0c0" points="752.6718,-327.0067 749.1717,-317.0067 745.6718,-327.0068 752.6718,-327.0067"/>
<text text-anchor="middle" x="716.6627" y="-369.4801" font-family="Arial" font-size="10.00" fill="#000000">Waddenweg </text>
<text text-anchor="middle" x="716.6627" y="-357.4801" font-family="Arial" font-size="10.00" fill="#000000"> Meeuwenlaan</text>
</g>
<!-- 3507 -->
<g id="node18" class="node">
<title>3507</title>
<ellipse fill="#d3d3d3" stroke="#c0c0c0" cx="461.1717" cy="-385.4608" rx="3.5" ry="3.5"/>
</g>
<!-- 3506&#45;&gt;3507 -->
<g id="edge20" class="edge">
<title>3506&#45;&gt;3507</title>
<path fill="none" stroke="#c0c0c0" d="M532.3631,-385.4608C526.8375,-385.4608 494.2925,-385.4608 475.1731,-385.4608"/>
<polygon fill="#c0c0c0" stroke="#c0c0c0" points="474.9666,-381.9609 464.9666,-385.4608 474.9665,-388.9609 474.9666,-381.9609"/>
</g>
<!-- 3508 -->
<g id="node19" class="node">
<title>3508</title>
<ellipse fill="#d3d3d3" stroke="#c0c0c0" cx="317.1717" cy="-385.4608" rx="3.5" ry="3.5"/>
</g>
<!-- 3507&#45;&gt;3508 -->
<g id="edge21" class="edge">
<title>3507&#45;&gt;3508</title>
<path fill="none" stroke="#c0c0c0" d="M457.6121,-385.4608C440.1006,-385.4608 362.6638,-385.4608 330.8689,-385.4608"/>
<polygon fill="#c0c0c0" stroke="#c0c0c0" points="330.8669,-381.9609 320.8668,-385.4608 330.8668,-388.9609 330.8669,-381.9609"/>
<text text-anchor="middle" x="361.1765" y="-400.4608" font-family="Arial" font-size="10.00" fill="#000000">Klaprozenweg </text>
<text text-anchor="middle" x="361.1765" y="-388.4608" font-family="Arial" font-size="10.00" fill="#000000"> (lijn 35)</text>
</g>
<!-- 3810 -->
<g id="node49" class="node">
<title>3810</title>
<ellipse fill="#d3d3d3" stroke="#c0c0c0" cx="461.1717" cy="-457.4608" rx="3.5" ry="3.5"/>
</g>
<!-- 3507&#45;&gt;3810 -->
<g id="edge53" class="edge">
<title>3507&#45;&gt;3810</title>
<path fill="none" stroke="#c0c0c0" d="M461.1717,-389.3318C461.1717,-399.3871 461.1717,-426.72 461.1717,-443.5511"/>
<polygon fill="#c0c0c0" stroke="#c0c0c0" points="457.6718,-443.9148 461.1717,-453.9149 464.6718,-443.9149 457.6718,-443.9148"/>
<text text-anchor="middle" x="439.2262" y="-431.4415" font-family="Arial" font-size="10.00" fill="#000000">Floraweg </text>
<text text-anchor="middle" x="439.2262" y="-419.4415" font-family="Arial" font-size="10.00" fill="#000000"> (lijn 38)</text>
</g>
<!-- 3509 -->
<g id="node20" class="node">
<title>3509</title>
<ellipse fill="#d3d3d3" stroke="#c0c0c0" cx="317.1717" cy="-457.4608" rx="3.5" ry="3.5"/>
</g>
<!-- 3508&#45;&gt;3509 -->
<g id="edge22" class="edge">
<title>3508&#45;&gt;3509</title>
<path fill="none" stroke="#c0c0c0" d="M317.1717,-389.3318C317.1717,-399.3871 317.1717,-426.72 317.1717,-443.5511"/>
<polygon fill="#c0c0c0" stroke="#c0c0c0" points="313.6718,-443.9148 317.1717,-453.9149 320.6718,-443.9149 313.6718,-443.9148"/>
<text text-anchor="middle" x="297.4497" y="-419.4415" font-family="Arial" font-size="10.00" fill="#000000">Atatürk</text>
</g>
<!-- 3510 -->
<g id="node21" class="node">
<title>3510</title>
<ellipse fill="#d3d3d3" stroke="#c0c0c0" cx="245.1717" cy="-457.4608" rx="3.5" ry="3.5"/>
</g>
<!-- 3509&#45;&gt;3510 -->
<g id="edge23" class="edge">
<title>3509&#45;&gt;3510</title>
<path fill="none" stroke="#c0c0c0" d="M313.3006,-457.4608C303.2454,-457.4608 275.9124,-457.4608 259.0813,-457.4608"/>
<polygon fill="#c0c0c0" stroke="#c0c0c0" points="258.7176,-453.9609 248.7176,-457.4608 258.7176,-460.9609 258.7176,-453.9609"/>
<text text-anchor="middle" x="286.191" y="-448.4608" font-family="Arial" font-size="10.00" fill="#000000">Strekkerweg</text>
</g>
<!-- 3511 -->
<g id="node22" class="node">
<title>3511</title>
<ellipse fill="#d3d3d3" stroke="#c0c0c0" cx="245.1717" cy="-529.4608" rx=".5" ry=".5"/>
</g>
<!-- 3510&#45;&gt;3511 -->
<g id="edge24" class="edge">
<title>3510&#45;&gt;3511</title>
<path fill="none" stroke="#c0c0c0" d="M245.1717,-461.3318C245.1717,-472.0662 245.1717,-502.4908 245.1717,-518.8091"/>
<polygon fill="#c0c0c0" stroke="#c0c0c0" points="241.6718,-518.8599 245.1717,-528.86 248.6718,-518.86 241.6718,-518.8599"/>
<text text-anchor="middle" x="204.6027" y="-493.0705" font-family="Arial" font-size="10.00" fill="#000000">Scheepsbouwweg</text>
</g>
<!-- 3512 -->
<g id="node23" class="node">
<title>3512</title>
<ellipse fill="#d3d3d3" stroke="#c0c0c0" cx="173.1717" cy="-529.4608" rx="3.5" ry="3.5"/>
</g>
<!-- 3511&#45;&gt;3512 -->
<g id="edge25" class="edge">
<title>3511&#45;&gt;3512</title>
<path fill="none" stroke="#c0c0c0" d="M244.3631,-529.4608C238.8374,-529.4608 206.2925,-529.4608 187.1731,-529.4608"/>
<polygon fill="#c0c0c0" stroke="#c0c0c0" points="186.9666,-525.9609 176.9665,-529.4608 186.9665,-532.9609 186.9666,-525.9609"/>
<text text-anchor="middle" x="238.5436" y="-544.4608" font-family="Arial" font-size="10.00" fill="#000000">Werktuig&#45; </text>
<text text-anchor="middle" x="238.5436" y="-532.4608" font-family="Arial" font-size="10.00" fill="#000000"> &#45;straat</text>
</g>
<!-- 3513 -->
<g id="node24" class="node">
<title>3513</title>
<ellipse fill="#d3d3d3" stroke="#c0c0c0" cx="101.1717" cy="-601.4608" rx="3.5" ry="3.5"/>
</g>
<!-- 3512&#45;&gt;3513 -->
<g id="edge26" class="edge">
<title>3512&#45;&gt;3513</title>
<path fill="none" stroke="#c0c0c0" d="M170.4371,-532.1954C160.8142,-541.8183 128.1906,-574.4418 111.3769,-591.2555"/>
<polygon fill="#c0c0c0" stroke="#c0c0c0" points="108.5052,-589.1775 103.909,-598.7235 113.4549,-594.1273 108.5052,-589.1775"/>
<text text-anchor="middle" x="110.6225" y="-564.7254" font-family="Arial" font-size="10.00" fill="#000000">Meteorenweg</text>
</g>
<!-- 3514 -->
<g id="node25" class="node">
<title>3514</title>
<ellipse fill="#d3d3d3" stroke="#c0c0c0" cx="101.1717" cy="-673.4608" rx="3.5" ry="3.5"/>
</g>
<!-- 3513&#45;&gt;3514 -->
<g id="edge27" class="edge">
<title>3513&#45;&gt;3514</title>
<path fill="none" stroke="#c0c0c0" d="M101.1717,-605.3318C101.1717,-615.3871 101.1717,-642.72 101.1717,-659.5511"/>
<polygon fill="#c0c0c0" stroke="#c0c0c0" points="97.6718,-659.9148 101.1717,-669.9149 104.6718,-659.9149 97.6718,-659.9148"/>
<text text-anchor="middle" x="68.1077" y="-635.4415" font-family="Arial" font-size="10.00" fill="#000000">Kometensingel</text>
</g>
<!-- 3515 -->
<g id="node26" class="node">
<title>3515</title>
<ellipse fill="#d3d3d3" stroke="#c0c0c0" cx="29.1717" cy="-745.4608" rx="3.5" ry="3.5"/>
</g>
<!-- 3514&#45;&gt;3515 -->
<g id="edge28" class="edge">
<title>3514&#45;&gt;3515</title>
<path fill="none" stroke="#c0c0c0" d="M98.4371,-676.1954C88.8142,-685.8183 56.1906,-718.4418 39.3769,-735.2555"/>
<polygon fill="#c0c0c0" stroke="#c0c0c0" points="36.5052,-733.1775 31.909,-742.7235 41.4549,-738.1273 36.5052,-733.1775"/>
<text text-anchor="middle" x="34.4535" y="-720.7255" font-family="Arial" font-size="10.00" fill="#000000">Kometensingel </text>
<text text-anchor="middle" x="34.4535" y="-708.7255" font-family="Arial" font-size="10.00" fill="#000000"> Oostzanerdijk</text>
</g>
<!-- 3516 -->
<g id="node27" class="node">
<title>3516</title>
<ellipse fill="#d3d3d3" stroke="#c0c0c0" cx="173.1717" cy="-745.4608" rx="3.5" ry="3.5"/>
</g>
<!-- 3515&#45;&gt;3516 -->
<g id="edge29" class="edge">
<title>3515&#45;&gt;3516</title>
<path fill="none" stroke="#c0c0c0" d="M32.7312,-745.4608C50.2427,-745.4608 127.6795,-745.4608 159.4745,-745.4608"/>
<polygon fill="#c0c0c0" stroke="#c0c0c0" points="159.4765,-748.9609 169.4765,-745.4608 159.4765,-741.9609 159.4765,-748.9609"/>
<text text-anchor="middle" x="128.6073" y="-748.4608" font-family="Arial" font-size="10.00" fill="#000000">Molenaarsweg</text>
</g>
<!-- 3517 -->
<g id="node28" class="node">
<title>3517</title>
<ellipse fill="#d3d3d3" stroke="#c0c0c0" cx="173.1717" cy="-673.4608" rx=".5" ry=".5"/>
</g>
<!-- 3516&#45;&gt;3517 -->
<g id="edge30" class="edge">
<title>3516&#45;&gt;3517</title>
<path fill="none" stroke="#c0c0c0" d="M173.1717,-741.5898C173.1717,-730.8554 173.1717,-700.4307 173.1717,-684.1125"/>
<polygon fill="#c0c0c0" stroke="#c0c0c0" points="176.6718,-684.0616 173.1717,-674.0616 169.6718,-684.0616 176.6718,-684.0616"/>
<text text-anchor="middle" x="147.6122" y="-715.8511" font-family="Arial" font-size="10.00" fill="#000000">Stellingweg</text>
</g>
<!-- 3518 -->
<g id="node29" class="node">
<title>3518</title>
<ellipse fill="#d3d3d3" stroke="#c0c0c0" cx="245.1717" cy="-673.4608" rx="3.5" ry="3.5"/>
</g>
<!-- 3517&#45;&gt;3518 -->
<g id="edge31" class="edge">
<title>3517&#45;&gt;3518</title>
<path fill="none" stroke="#c0c0c0" d="M173.9803,-673.4608C179.5059,-673.4608 212.0508,-673.4608 231.1702,-673.4608"/>
<polygon fill="#c0c0c0" stroke="#c0c0c0" points="231.3768,-676.9609 241.3768,-673.4608 231.3767,-669.9609 231.3768,-676.9609"/>
</g>
<!-- 3519 -->
<g id="node30" class="node">
<title>3519</title>
<ellipse fill="#d3d3d3" stroke="#c0c0c0" cx="245.1717" cy="-745.4608" rx="26.7699" ry="26.7699"/>
<text text-anchor="middle" x="245.1717" y="-742.4608" font-family="Arial" font-size="10.00" fill="#000000">MOL</text>
</g>
<!-- 3518&#45;&gt;3519 -->
<g id="edge32" class="edge">
<title>3518&#45;&gt;3519</title>
<path fill="none" stroke="#c0c0c0" d="M245.1717,-677.3318C245.1717,-683.4626 245.1717,-696.0161 245.1717,-708.6961"/>
<polygon fill="#c0c0c0" stroke="#c0c0c0" points="241.6718,-708.7721 245.1717,-718.7721 248.6718,-708.7722 241.6718,-708.7721"/>
<text text-anchor="middle" x="219.6122" y="-696.014" font-family="Arial" font-size="10.00" fill="#000000">Stellingweg</text>
</g>
<!-- 3700 -->
<g id="node31" class="node">
<title>3700</title>
<ellipse fill="#d3d3d3" stroke="#c0c0c0" cx="893.1717" cy="-529.4608" rx="3.5" ry="3.5"/>
</g>
<!-- 3700&#45;&gt;3502 -->
<g id="edge14" class="edge">
<title>3700&#45;&gt;3502</title>
<path fill="none" stroke="#c0c0c0" d="M893.1717,-525.5898C893.1717,-515.5345 893.1717,-488.2016 893.1717,-471.3704"/>
<polygon fill="#c0c0c0" stroke="#c0c0c0" points="896.6718,-471.0067 893.1717,-461.0067 889.6718,-471.0068 896.6718,-471.0067"/>
<text text-anchor="middle" x="854.2782" y="-513.4801" font-family="Arial" font-size="10.00" fill="#000000">Th. Weeversweg </text>
<text text-anchor="middle" x="854.2782" y="-501.4801" font-family="Arial" font-size="10.00" fill="#000000"> (lijn 38)</text>
</g>
<!-- 3701 -->
<g id="node32" class="node">
<title>3701</title>
<ellipse fill="#d3d3d3" stroke="#c0c0c0" cx="965.1717" cy="-529.4608" rx=".5" ry=".5"/>
</g>
<!-- 3700&#45;&gt;3701 -->
<g id="edge33" class="edge">
<title>3700&#45;&gt;3701</title>
<path fill="none" stroke="#c0c0c0" d="M897.0427,-529.4608C907.7771,-529.4608 938.2017,-529.4608 954.52,-529.4608"/>
<polygon fill="#c0c0c0" stroke="#c0c0c0" points="954.5709,-532.9609 964.5708,-529.4608 954.5708,-525.9609 954.5709,-532.9609"/>
<text text-anchor="middle" x="953.2908" y="-544.4608" font-family="Arial" font-size="10.00" fill="#000000">IJdoornlaan </text>
<text text-anchor="middle" x="953.2908" y="-532.4608" font-family="Arial" font-size="10.00" fill="#000000"> (lijn 37)</text>
</g>
<!-- 3702 -->
<g id="node33" class="node">
<title>3702</title>
<ellipse fill="#d3d3d3" stroke="#c0c0c0" cx="1037.1717" cy="-457.4608" rx="3.5" ry="3.5"/>
</g>
<!-- 3701&#45;&gt;3702 -->
<g id="edge34" class="edge">
<title>3701&#45;&gt;3702</title>
<path fill="none" stroke="#c0c0c0" d="M965.6314,-529.001C970.2836,-524.3488 1009.0537,-485.5788 1027.4957,-467.1367"/>
<polygon fill="#c0c0c0" stroke="#c0c0c0" points="1030.0814,-469.5008 1034.6776,-459.9549 1025.1316,-464.5511 1030.0814,-469.5008"/>
</g>
<!-- 3703 -->
<g id="node34" class="node">
<title>3703</title>
<ellipse fill="#d3d3d3" stroke="#c0c0c0" cx="1109.1717" cy="-457.4608" rx="3.5" ry="3.5"/>
</g>
<!-- 3702&#45;&gt;3703 -->
<g id="edge35" class="edge">
<title>3702&#45;&gt;3703</title>
<path fill="none" stroke="#c0c0c0" d="M1041.0427,-457.4608C1051.098,-457.4608 1078.4309,-457.4608 1095.262,-457.4608"/>
<polygon fill="#c0c0c0" stroke="#c0c0c0" points="1095.6258,-460.9609 1105.6257,-457.4608 1095.6257,-453.9609 1095.6258,-460.9609"/>
<text text-anchor="middle" x="1068.1523" y="-448.4608" font-family="Arial" font-size="10.00" fill="#000000">Zuiderzeeweg</text>
</g>
<!-- 3704 -->
<g id="node35" class="node">
<title>3704</title>
<ellipse fill="#d3d3d3" stroke="#c0c0c0" cx="1109.1717" cy="-385.4608" rx=".5" ry=".5"/>
</g>
<!-- 3703&#45;&gt;3704 -->
<g id="edge36" class="edge">
<title>3703&#45;&gt;3704</title>
<path fill="none" stroke="#c0c0c0" d="M1109.1717,-453.5898C1109.1717,-442.8554 1109.1717,-412.4307 1109.1717,-396.1125"/>
<polygon fill="#c0c0c0" stroke="#c0c0c0" points="1112.6718,-396.0616 1109.1717,-386.0616 1105.6718,-396.0616 1112.6718,-396.0616"/>
</g>
<!-- 3706 -->
<g id="node36" class="node">
<title>3706</title>
<ellipse fill="#d3d3d3" stroke="#c0c0c0" cx="893.1717" cy="-169.4608" rx=".5" ry=".5"/>
</g>
<!-- 3704&#45;&gt;3706 -->
<g id="edge37" class="edge">
<title>3704&#45;&gt;3706</title>
<path fill="none" stroke="#c0c0c0" d="M1108.552,-384.8412C1097.3812,-373.6703 938.4685,-214.7576 901.0304,-177.3195"/>
<polygon fill="#c0c0c0" stroke="#c0c0c0" points="903.2995,-174.6389 893.7536,-170.0427 898.3498,-179.5887 903.2995,-174.6389"/>
<text text-anchor="middle" x="945.8932" y="-356.0804" font-family="Arial" font-size="10.00" fill="#000000">Zuiderzeeweg </text>
<text text-anchor="middle" x="945.8932" y="-344.0804" font-family="Arial" font-size="10.00" fill="#000000"> (via Schellingwouderbrug </text>
<text text-anchor="middle" x="945.8932" y="-332.0804" font-family="Arial" font-size="10.00" fill="#000000"> en Amsterdamsebrug) </text>
<text text-anchor="middle" x="945.8932" y="-320.0804" font-family="Arial" font-size="10.00" fill="#000000"> Insulindeweg </text>
<text text-anchor="middle" x="945.8932" y="-308.0804" font-family="Arial" font-size="10.00" fill="#000000"> (via Muiderpoortstation) </text>
<text text-anchor="middle" x="945.8932" y="-296.0804" font-family="Arial" font-size="10.00" fill="#000000"> Wijttenbachweg </text>
<text text-anchor="middle" x="945.8932" y="-284.0804" font-family="Arial" font-size="10.00" fill="#000000"> Oosterpark</text>
</g>
<!-- 3707 -->
<g id="node37" class="node">
<title>3707</title>
<ellipse fill="#d3d3d3" stroke="#c0c0c0" cx="821.1717" cy="-169.4608" rx="3.5" ry="3.5"/>
</g>
<!-- 3706&#45;&gt;3707 -->
<g id="edge38" class="edge">
<title>3706&#45;&gt;3707</title>
<path fill="none" stroke="#c0c0c0" d="M892.3631,-169.4608C886.8374,-169.4608 854.2925,-169.4608 835.1731,-169.4608"/>
<polygon fill="#c0c0c0" stroke="#c0c0c0" points="834.9665,-165.9607 824.9666,-169.4608 834.9666,-172.9607 834.9665,-165.9607"/>
</g>
<!-- 3708 -->
<g id="node38" class="node">
<title>3708</title>
<ellipse fill="#d3d3d3" stroke="#c0c0c0" cx="821.1717" cy="-25.4608" rx="3.5" ry="3.5"/>
</g>
<!-- 3707&#45;&gt;3708 -->
<g id="edge39" class="edge">
<title>3707&#45;&gt;3708</title>
<path fill="none" stroke="#c0c0c0" d="M821.1717,-165.9012C821.1717,-148.3897 821.1717,-70.9529 821.1717,-39.158"/>
<polygon fill="#c0c0c0" stroke="#c0c0c0" points="824.6718,-39.1559 821.1717,-29.156 817.6718,-39.156 824.6718,-39.1559"/>
<text text-anchor="middle" x="774.4957" y="-93.5296" font-family="Arial" font-size="10.00" fill="#000000">Beukenweg </text>
<text text-anchor="middle" x="774.4957" y="-81.5296" font-family="Arial" font-size="10.00" fill="#000000"> Maritzstraat </text>
<text text-anchor="middle" x="774.4957" y="-69.5296" font-family="Arial" font-size="10.00" fill="#000000"> Krugerplein </text>
<text text-anchor="middle" x="774.4957" y="-57.5296" font-family="Arial" font-size="10.00" fill="#000000"> Schalk Burgerstraat </text>
<text text-anchor="middle" x="774.4957" y="-45.5296" font-family="Arial" font-size="10.00" fill="#000000"> Nobelweg</text>
</g>
<!-- 3710 -->
<g id="node39" class="node">
<title>3710</title>
<ellipse fill="#d3d3d3" stroke="#c0c0c0" cx="677.1717" cy="-25.4608" rx="25.4216" ry="25.4216"/>
<text text-anchor="middle" x="677.1717" y="-22.4608" font-family="Arial" font-size="10.00" fill="#000000">ASA</text>
</g>
<!-- 3708&#45;&gt;3710 -->
<g id="edge40" class="edge">
<title>3708&#45;&gt;3710</title>
<path fill="none" stroke="#c0c0c0" d="M817.6121,-25.4608C803.4213,-25.4608 749.8773,-25.4608 713.1603,-25.4608"/>
<polygon fill="#c0c0c0" stroke="#c0c0c0" points="712.833,-21.9609 702.833,-25.4608 712.8329,-28.9609 712.833,-21.9609"/>
<text text-anchor="middle" x="765.3862" y="-16.4608" font-family="Arial" font-size="10.00" fill="#000000">Hugo de Vrieslaan </text>
<text text-anchor="middle" x="765.3862" y="-4.4608" font-family="Arial" font-size="10.00" fill="#000000"> Overzichtweg</text>
</g>
<!-- 3802 -->
<g id="node41" class="node">
<title>3802</title>
<ellipse fill="#d3d3d3" stroke="#c0c0c0" cx="749.1717" cy="-601.4608" rx="3.5" ry="3.5"/>
</g>
<!-- 3801&#45;&gt;3802 -->
<g id="edge42" class="edge">
<title>3801&#45;&gt;3802</title>
<path fill="none" stroke="#c0c0c0" d="M749.1717,-533.3318C749.1717,-543.3871 749.1717,-570.72 749.1717,-587.5511"/>
<polygon fill="#c0c0c0" stroke="#c0c0c0" points="745.6718,-587.9148 749.1717,-597.9149 752.6718,-587.9149 745.6718,-587.9148"/>
<text text-anchor="middle" x="710.8342" y="-575.4415" font-family="Arial" font-size="10.00" fill="#000000">H. Cleyndertweg </text>
<text text-anchor="middle" x="710.8342" y="-563.4415" font-family="Arial" font-size="10.00" fill="#000000"> (lijn 38)</text>
</g>
<!-- 3804 -->
<g id="node43" class="node">
<title>3804</title>
<ellipse fill="#d3d3d3" stroke="#c0c0c0" cx="821.1717" cy="-529.4608" rx="3.5" ry="3.5"/>
</g>
<!-- 3801&#45;&gt;3804 -->
<g id="edge41" class="edge">
<title>3801&#45;&gt;3804</title>
<path fill="none" stroke="#c0c0c0" d="M753.0427,-529.4608C763.098,-529.4608 790.4309,-529.4608 807.262,-529.4608"/>
<polygon fill="#c0c0c0" stroke="#c0c0c0" points="807.6258,-532.9609 817.6257,-529.4608 807.6257,-525.9609 807.6258,-532.9609"/>
<text text-anchor="middle" x="780.1524" y="-520.4608" font-family="Arial" font-size="10.00" fill="#000000">IJdoornlaan </text>
<text text-anchor="middle" x="780.1524" y="-508.4608" font-family="Arial" font-size="10.00" fill="#000000"> (lijn 37)</text>
</g>
<!-- 3803 -->
<g id="node42" class="node">
<title>3803</title>
<ellipse fill="#d3d3d3" stroke="#c0c0c0" cx="821.1717" cy="-601.4608" rx="3.5" ry="3.5"/>
</g>
<!-- 3802&#45;&gt;3803 -->
<g id="edge43" class="edge">
<title>3802&#45;&gt;3803</title>
<path fill="none" stroke="#c0c0c0" d="M753.0427,-601.4608C763.098,-601.4608 790.4309,-601.4608 807.262,-601.4608"/>
<polygon fill="#c0c0c0" stroke="#c0c0c0" points="807.6258,-604.9609 817.6257,-601.4608 807.6257,-597.9609 807.6258,-604.9609"/>
<text text-anchor="middle" x="739.5889" y="-604.4608" font-family="Arial" font-size="10.00" fill="#000000">J.H. van Heekweg</text>
</g>
<!-- 3803&#45;&gt;3804 -->
<g id="edge44" class="edge">
<title>3803&#45;&gt;3804</title>
<path fill="none" stroke="#c0c0c0" d="M821.1717,-597.5898C821.1717,-587.5345 821.1717,-560.2016 821.1717,-543.3704"/>
<polygon fill="#c0c0c0" stroke="#c0c0c0" points="824.6718,-543.0067 821.1717,-533.0067 817.6718,-543.0068 824.6718,-543.0067"/>
<text text-anchor="middle" x="792.2872" y="-573.4801" font-family="Arial" font-size="10.00" fill="#000000">J. Drijverweg</text>
</g>
<!-- 3804&#45;&gt;3700 -->
<g id="edge45" class="edge">
<title>3804&#45;&gt;3700</title>
<path fill="none" stroke="#c0c0c0" d="M825.0427,-529.4608C835.098,-529.4608 862.4309,-529.4608 879.262,-529.4608"/>
<polygon fill="#c0c0c0" stroke="#c0c0c0" points="879.6258,-532.9609 889.6257,-529.4608 879.6257,-525.9609 879.6258,-532.9609"/>
<text text-anchor="middle" x="826.0324" y="-532.4608" font-family="Arial" font-size="10.00" fill="#000000">IJdoornlaan</text>
</g>
<!-- 3805&#45;&gt;3505 -->
<g id="edge48" class="edge">
<title>3805&#45;&gt;3505</title>
<path fill="none" stroke="#c0c0c0" d="M749.1717,-453.5898C749.1717,-443.5345 749.1717,-416.2016 749.1717,-399.3704"/>
<polygon fill="#c0c0c0" stroke="#c0c0c0" points="752.6718,-399.0067 749.1717,-389.0067 745.6718,-399.0068 752.6718,-399.0067"/>
<text text-anchor="middle" x="721.3862" y="-429.4801" font-family="Arial" font-size="10.00" fill="#000000">Waddenweg</text>
</g>
<!-- 3807 -->
<g id="node46" class="node">
<title>3807</title>
<ellipse fill="#d3d3d3" stroke="#c0c0c0" cx="533.1717" cy="-169.4608" rx="3.5" ry="3.5"/>
</g>
<!-- 3806&#45;&gt;3807 -->
<g id="edge49" class="edge">
<title>3806&#45;&gt;3807</title>
<path fill="none" stroke="#c0c0c0" d="M602.4371,-238.7262C592.8142,-229.1033 560.1906,-196.4798 543.3769,-179.666"/>
<polygon fill="#c0c0c0" stroke="#c0c0c0" points="545.4549,-176.7943 535.909,-172.1981 540.5052,-181.7441 545.4549,-176.7943"/>
<text text-anchor="middle" x="542.9025" y="-212.1961" font-family="Arial" font-size="10.00" fill="#000000">Meidoornweg</text>
</g>
<!-- 3808 -->
<g id="node47" class="node">
<title>3808</title>
<ellipse fill="#d3d3d3" stroke="#c0c0c0" cx="533.1717" cy="-97.4608" rx="3.5" ry="3.5"/>
</g>
<!-- 3807&#45;&gt;3808 -->
<g id="edge50" class="edge">
<title>3807&#45;&gt;3808</title>
<path fill="none" stroke="#c0c0c0" d="M533.1717,-155.4914C533.1717,-142.7256 533.1717,-123.9549 533.1717,-111.2469"/>
<polygon fill="#c0c0c0" stroke="#c0c0c0" points="529.6718,-155.5897 533.1717,-165.5898 536.6718,-155.5898 529.6718,-155.5897"/>
<polygon fill="#c0c0c0" stroke="#c0c0c0" points="536.6718,-111.0067 533.1717,-101.0067 529.6718,-111.0068 536.6718,-111.0067"/>
<text text-anchor="middle" x="501.2167" y="-136.3692" font-family="Arial" font-size="10.00" fill="#000000">Ranonkelkade</text>
</g>
<!-- 3809 -->
<g id="node48" class="node">
<title>3809</title>
<ellipse fill="#d3d3d3" stroke="#c0c0c0" cx="461.1717" cy="-241.4608" rx="3.5" ry="3.5"/>
</g>
<!-- 3807&#45;&gt;3809 -->
<g id="edge51" class="edge">
<title>3807&#45;&gt;3809</title>
<path fill="none" stroke="#c0c0c0" d="M530.4371,-172.1954C520.8142,-181.8183 488.1906,-214.4418 471.3769,-231.2555"/>
<polygon fill="#c0c0c0" stroke="#c0c0c0" points="468.5052,-229.1775 463.909,-238.7235 473.4549,-234.1273 468.5052,-229.1775"/>
<text text-anchor="middle" x="462.0045" y="-228.7255" font-family="Arial" font-size="10.00" fill="#000000">Van der Pekbrug </text>
<text text-anchor="middle" x="462.0045" y="-216.7255" font-family="Arial" font-size="10.00" fill="#000000"> Docklandsweg </text>
<text text-anchor="middle" x="462.0045" y="-204.7255" font-family="Arial" font-size="10.00" fill="#000000"> Asterweg</text>
</g>
<!-- 3809&#45;&gt;3507 -->
<g id="edge52" class="edge">
<title>3809&#45;&gt;3507</title>
<path fill="none" stroke="#c0c0c0" d="M461.1717,-245.0204C461.1717,-262.5319 461.1717,-339.9687 461.1717,-371.7636"/>
<polygon fill="#c0c0c0" stroke="#c0c0c0" points="457.6718,-371.7656 461.1717,-381.7656 464.6718,-371.7657 457.6718,-371.7656"/>
<text text-anchor="middle" x="424.7782" y="-311.392" font-family="Arial" font-size="10.00" fill="#000000">Ridderspoorweg</text>
</g>
<!-- 3811 -->
<g id="node50" class="node">
<title>3811</title>
<ellipse fill="#d3d3d3" stroke="#c0c0c0" cx="389.1717" cy="-457.4608" rx="3.5" ry="3.5"/>
</g>
<!-- 3810&#45;&gt;3811 -->
<g id="edge54" class="edge">
<title>3810&#45;&gt;3811</title>
<path fill="none" stroke="#c0c0c0" d="M457.3006,-457.4608C447.2454,-457.4608 419.9125,-457.4608 403.0813,-457.4608"/>
<polygon fill="#c0c0c0" stroke="#c0c0c0" points="402.7176,-453.9609 392.7176,-457.4608 402.7176,-460.9609 402.7176,-453.9609"/>
<text text-anchor="middle" x="430.191" y="-448.4608" font-family="Arial" font-size="10.00" fill="#000000">Slijperweg</text>
</g>
<!-- 3812 -->
<g id="node51" class="node">
<title>3812</title>
<ellipse fill="#d3d3d3" stroke="#c0c0c0" cx="389.1717" cy="-529.4608" rx="3.5" ry="3.5"/>
</g>
<!-- 3811&#45;&gt;3812 -->
<g id="edge55" class="edge">
<title>3811&#45;&gt;3812</title>
<path fill="none" stroke="#c0c0c0" d="M389.1717,-461.3318C389.1717,-471.3871 389.1717,-498.72 389.1717,-515.5511"/>
<polygon fill="#c0c0c0" stroke="#c0c0c0" points="385.6718,-515.9148 389.1717,-525.9149 392.6718,-515.9149 385.6718,-515.9148"/>
<text text-anchor="middle" x="354.4477" y="-491.4415" font-family="Arial" font-size="10.00" fill="#000000">Vuurwerkerweg</text>
</g>
<!-- 3813 -->
<g id="node52" class="node">
<title>3813</title>
<ellipse fill="#d3d3d3" stroke="#c0c0c0" cx="317.1717" cy="-529.4608" rx="26.4794" ry="26.4794"/>
<text text-anchor="middle" x="317.1717" y="-526.4608" font-family="Arial" font-size="10.00" fill="#000000">MET</text>
</g>
<!-- 3812&#45;&gt;3813 -->
<g id="edge56" class="edge">
<title>3812&#45;&gt;3813</title>
<path fill="none" stroke="#c0c0c0" d="M385.3006,-529.4608C379.1238,-529.4608 366.4272,-529.4608 353.6503,-529.4608"/>
<polygon fill="#c0c0c0" stroke="#c0c0c0" points="353.5092,-525.9609 343.5092,-529.4608 353.5092,-532.9609 353.5092,-525.9609"/>
<text text-anchor="middle" x="396.14" y="-556.4608" font-family="Arial" font-size="10.00" fill="#000000">Metaal&#45; </text>
<text text-anchor="middle" x="396.14" y="-544.4608" font-family="Arial" font-size="10.00" fill="#000000"> &#45;bewerker&#45; </text>
<text text-anchor="middle" x="396.14" y="-532.4608" font-family="Arial" font-size="10.00" fill="#000000"> &#45;weg</text>
</g>
</g>
</svg>

