<?xml version="1.0" encoding="UTF-8" standalone="no"?>
<!DOCTYPE svg PUBLIC "-//W3C//DTD SVG 1.1//EN"
 "http://www.w3.org/Graphics/SVG/1.1/DTD/svg11.dtd">
<!-- Generated by graphviz version 2.40.1 (20161225.0304)
 -->
<!-- Title: G Pages: 1 -->
<svg width="681pt" height="693pt"
 viewBox="0.00 0.00 681.42 693.46" xmlns="http://www.w3.org/2000/svg" xmlns:xlink="http://www.w3.org/1999/xlink">
<g id="graph0" class="graph" transform="scale(1 1) rotate(0) translate(4 689.4608)">
<title>G</title>
<polygon fill="#ffffff" stroke="transparent" points="-4,4 -4,-689.4608 677.422,-689.4608 677.422,4 -4,4"/>
<!-- 3400 -->
<g id="node1" class="node">
<title>3400</title>
<ellipse fill="#d3d3d3" stroke="#c0c0c0" cx="309.922" cy="-601.4608" rx="26.7557" ry="26.7557"/>
<text text-anchor="middle" x="309.922" y="-598.4608" font-family="Arial" font-size="10.00" fill="#000000">NRD</text>
</g>
<!-- 3401 -->
<g id="node2" class="node">
<title>3401</title>
<ellipse fill="#d3d3d3" stroke="#c0c0c0" cx="165.922" cy="-601.4608" rx="3.5" ry="3.5"/>
</g>
<!-- 3400&#45;&gt;3401 -->
<g id="edge1" class="edge">
<title>3400&#45;&gt;3401</title>
<path fill="none" stroke="#c0c0c0" d="M283.1742,-601.4608C252.5628,-601.4608 203.5991,-601.4608 179.8042,-601.4608"/>
<polygon fill="#c0c0c0" stroke="#c0c0c0" points="179.6663,-597.9609 169.6663,-601.4608 179.6663,-604.9609 179.6663,-597.9609"/>
<text text-anchor="middle" x="203.9797" y="-616.4608" font-family="Arial" font-size="10.00" fill="#000000">IJdoornlaan </text>
<text text-anchor="middle" x="203.9797" y="-604.4608" font-family="Arial" font-size="10.00" fill="#000000"> (lijn 34)</text>
</g>
<!-- 3701 -->
<g id="node12" class="node">
<title>3701</title>
<ellipse fill="#d3d3d3" stroke="#c0c0c0" cx="525.922" cy="-601.4608" rx=".5" ry=".5"/>
</g>
<!-- 3400&#45;&gt;3701 -->
<g id="edge11" class="edge">
<title>3400&#45;&gt;3701</title>
<path fill="none" stroke="#c0c0c0" d="M336.8418,-601.4608C384.4849,-601.4608 481.737,-601.4608 514.7045,-601.4608"/>
<polygon fill="#c0c0c0" stroke="#c0c0c0" points="515.0784,-604.9609 525.0784,-601.4608 515.0783,-597.9609 515.0784,-604.9609"/>
<text text-anchor="middle" x="398.2637" y="-616.4608" font-family="Arial" font-size="10.00" fill="#000000">IJdoornlaan </text>
<text text-anchor="middle" x="398.2637" y="-604.4608" font-family="Arial" font-size="10.00" fill="#000000"> (lijn 37)</text>
</g>
<!-- 3402 -->
<g id="node3" class="node">
<title>3402</title>
<ellipse fill="#d3d3d3" stroke="#c0c0c0" cx="165.922" cy="-673.4608" rx=".5" ry=".5"/>
</g>
<!-- 3401&#45;&gt;3402 -->
<g id="edge2" class="edge">
<title>3401&#45;&gt;3402</title>
<path fill="none" stroke="#c0c0c0" d="M165.922,-605.3318C165.922,-616.0662 165.922,-646.4908 165.922,-662.8091"/>
<polygon fill="#c0c0c0" stroke="#c0c0c0" points="162.4221,-662.8599 165.922,-672.86 169.4221,-662.86 162.4221,-662.8599"/>
<text text-anchor="middle" x="137.3025" y="-637.0705" font-family="Arial" font-size="10.00" fill="#000000">Oosterlengte</text>
</g>
<!-- 3403 -->
<g id="node4" class="node">
<title>3403</title>
<ellipse fill="#d3d3d3" stroke="#c0c0c0" cx="93.922" cy="-673.4608" rx=".5" ry=".5"/>
</g>
<!-- 3402&#45;&gt;3403 -->
<g id="edge3" class="edge">
<title>3402&#45;&gt;3403</title>
<path fill="none" stroke="#c0c0c0" d="M165.1134,-673.4608C159.2619,-673.4608 123.11,-673.4608 104.689,-673.4608"/>
<polygon fill="#c0c0c0" stroke="#c0c0c0" points="104.6346,-669.9609 94.6346,-673.4608 104.6346,-676.9609 104.6346,-669.9609"/>
<text text-anchor="middle" x="99.8932" y="-676.4608" font-family="Arial" font-size="10.00" fill="#000000">Noorderbreedte</text>
</g>
<!-- 3404 -->
<g id="node5" class="node">
<title>3404</title>
<ellipse fill="#d3d3d3" stroke="#c0c0c0" cx="93.922" cy="-529.4608" rx=".5" ry=".5"/>
</g>
<!-- 3403&#45;&gt;3404 -->
<g id="edge4" class="edge">
<title>3403&#45;&gt;3404</title>
<path fill="none" stroke="#c0c0c0" d="M93.922,-672.8188C93.922,-664.2712 93.922,-572.7329 93.922,-540.5628"/>
<polygon fill="#c0c0c0" stroke="#c0c0c0" points="97.4221,-540.311 93.922,-530.311 90.4221,-540.311 97.4221,-540.311"/>
<text text-anchor="middle" x="46.961" y="-621.6908" font-family="Arial" font-size="10.00" fill="#000000">Westerlengte </text>
<text text-anchor="middle" x="46.961" y="-609.6908" font-family="Arial" font-size="10.00" fill="#000000"> Banne Buikslootlaan</text>
</g>
<!-- 3405 -->
<g id="node6" class="node">
<title>3405</title>
<ellipse fill="#d3d3d3" stroke="#c0c0c0" cx="165.922" cy="-529.4608" rx="3.5" ry="3.5"/>
</g>
<!-- 3404&#45;&gt;3405 -->
<g id="edge5" class="edge">
<title>3404&#45;&gt;3405</title>
<path fill="none" stroke="#c0c0c0" d="M94.7306,-529.4608C100.2562,-529.4608 132.8012,-529.4608 151.9206,-529.4608"/>
<polygon fill="#c0c0c0" stroke="#c0c0c0" points="152.1271,-532.9609 162.1271,-529.4608 152.1271,-525.9609 152.1271,-532.9609"/>
</g>
<!-- 3406 -->
<g id="node7" class="node">
<title>3406</title>
<ellipse fill="#d3d3d3" stroke="#c0c0c0" cx="165.922" cy="-385.4608" rx="3.5" ry="3.5"/>
</g>
<!-- 3405&#45;&gt;3406 -->
<g id="edge6" class="edge">
<title>3405&#45;&gt;3406</title>
<path fill="none" stroke="#c0c0c0" d="M165.922,-525.9012C165.922,-508.3897 165.922,-430.9529 165.922,-399.158"/>
<polygon fill="#c0c0c0" stroke="#c0c0c0" points="169.4221,-399.1559 165.922,-389.156 162.4221,-399.156 169.4221,-399.1559"/>
<text text-anchor="middle" x="127.3045" y="-465.5296" font-family="Arial" font-size="10.00" fill="#000000">Kamperfoelieweg</text>
</g>
<!-- 3407 -->
<g id="node8" class="node">
<title>3407</title>
<ellipse fill="#d3d3d3" stroke="#c0c0c0" cx="309.922" cy="-385.4608" rx="3.5" ry="3.5"/>
</g>
<!-- 3406&#45;&gt;3407 -->
<g id="edge7" class="edge">
<title>3406&#45;&gt;3407</title>
<path fill="none" stroke="#c0c0c0" d="M179.7977,-385.4608C207.2703,-385.4608 268.3118,-385.4608 295.9018,-385.4608"/>
<polygon fill="#c0c0c0" stroke="#c0c0c0" points="179.4816,-381.9609 169.4816,-385.4608 179.4815,-388.9609 179.4816,-381.9609"/>
<polygon fill="#c0c0c0" stroke="#c0c0c0" points="296.2269,-388.9609 306.2268,-385.4608 296.2268,-381.9609 296.2269,-388.9609"/>
<text text-anchor="middle" x="237.8497" y="-376.4608" font-family="Arial" font-size="10.00" fill="#000000">Johan van Hasseltweg </text>
<text text-anchor="middle" x="237.8497" y="-364.4608" font-family="Arial" font-size="10.00" fill="#000000"> (via St. Noorderpark)</text>
</g>
<!-- 3408 -->
<g id="node9" class="node">
<title>3408</title>
<ellipse fill="#d3d3d3" stroke="#c0c0c0" cx="309.922" cy="-313.4608" rx="3.5" ry="3.5"/>
</g>
<!-- 3407&#45;&gt;3408 -->
<g id="edge8" class="edge">
<title>3407&#45;&gt;3408</title>
<path fill="none" stroke="#c0c0c0" d="M309.922,-381.5898C309.922,-371.5345 309.922,-344.2016 309.922,-327.3705"/>
<polygon fill="#c0c0c0" stroke="#c0c0c0" points="313.4221,-327.0067 309.922,-317.0067 306.4221,-327.0068 313.4221,-327.0067"/>
<text text-anchor="middle" x="278.8025" y="-345.4801" font-family="Arial" font-size="10.00" fill="#000000">Meeuwenlaan</text>
</g>
<!-- 3409 -->
<g id="node10" class="node">
<title>3409</title>
<ellipse fill="#d3d3d3" stroke="#c0c0c0" cx="237.922" cy="-313.4608" rx="3.5" ry="3.5"/>
</g>
<!-- 3408&#45;&gt;3409 -->
<g id="edge9" class="edge">
<title>3408&#45;&gt;3409</title>
<path fill="none" stroke="#c0c0c0" d="M306.051,-313.4608C295.9957,-313.4608 268.6628,-313.4608 251.8316,-313.4608"/>
<polygon fill="#c0c0c0" stroke="#c0c0c0" points="251.468,-309.9609 241.4679,-313.4608 251.4679,-316.9609 251.468,-309.9609"/>
<text text-anchor="middle" x="278.9413" y="-304.4608" font-family="Arial" font-size="10.00" fill="#000000">Havikslaan </text>
<text text-anchor="middle" x="278.9413" y="-292.4608" font-family="Arial" font-size="10.00" fill="#000000"> Kraaienplein</text>
</g>
<!-- 3410 -->
<g id="node11" class="node">
<title>3410</title>
<ellipse fill="#d3d3d3" stroke="#c0c0c0" cx="309.922" cy="-241.4608" rx="24.8531" ry="24.8531"/>
<text text-anchor="middle" x="309.922" y="-238.4608" font-family="Arial" font-size="10.00" fill="#000000">VLK</text>
</g>
<!-- 3409&#45;&gt;3410 -->
<g id="edge10" class="edge">
<title>3409&#45;&gt;3410</title>
<path fill="none" stroke="#c0c0c0" d="M248.0406,-303.3422C257.6602,-293.7226 272.5107,-278.8721 285.2525,-266.1303"/>
<polygon fill="#c0c0c0" stroke="#c0c0c0" points="245.2528,-301.1803 240.6566,-310.7262 250.2025,-306.13 245.2528,-301.1803"/>
<polygon fill="#c0c0c0" stroke="#c0c0c0" points="287.8593,-268.4733 292.4555,-258.9273 282.9095,-263.5235 287.8593,-268.4733"/>
<text text-anchor="middle" x="228.8585" y="-275.7363" font-family="Arial" font-size="10.00" fill="#000000">Sperwerlaan </text>
<text text-anchor="middle" x="228.8585" y="-263.7363" font-family="Arial" font-size="10.00" fill="#000000"> Spreeuwenpark </text>
<text text-anchor="middle" x="228.8585" y="-251.7363" font-family="Arial" font-size="10.00" fill="#000000"> Valkenweg</text>
</g>
<!-- 3702 -->
<g id="node13" class="node">
<title>3702</title>
<ellipse fill="#d3d3d3" stroke="#c0c0c0" cx="597.922" cy="-529.4608" rx="3.5" ry="3.5"/>
</g>
<!-- 3701&#45;&gt;3702 -->
<g id="edge12" class="edge">
<title>3701&#45;&gt;3702</title>
<path fill="none" stroke="#c0c0c0" d="M526.3818,-601.001C531.0339,-596.3489 569.804,-557.5788 588.2461,-539.1367"/>
<polygon fill="#c0c0c0" stroke="#c0c0c0" points="590.8317,-541.5009 595.4279,-531.9549 585.8819,-536.5511 590.8317,-541.5009"/>
</g>
<!-- 3703 -->
<g id="node14" class="node">
<title>3703</title>
<ellipse fill="#d3d3d3" stroke="#c0c0c0" cx="669.922" cy="-529.4608" rx="3.5" ry="3.5"/>
</g>
<!-- 3702&#45;&gt;3703 -->
<g id="edge13" class="edge">
<title>3702&#45;&gt;3703</title>
<path fill="none" stroke="#c0c0c0" d="M601.793,-529.4608C611.8483,-529.4608 639.1812,-529.4608 656.0123,-529.4608"/>
<polygon fill="#c0c0c0" stroke="#c0c0c0" points="656.3761,-532.9609 666.3761,-529.4608 656.376,-525.9609 656.3761,-532.9609"/>
<text text-anchor="middle" x="628.9027" y="-520.4608" font-family="Arial" font-size="10.00" fill="#000000">Zuiderzeeweg</text>
</g>
<!-- 3704 -->
<g id="node15" class="node">
<title>3704</title>
<ellipse fill="#d3d3d3" stroke="#c0c0c0" cx="669.922" cy="-457.4608" rx=".5" ry=".5"/>
</g>
<!-- 3703&#45;&gt;3704 -->
<g id="edge14" class="edge">
<title>3703&#45;&gt;3704</title>
<path fill="none" stroke="#c0c0c0" d="M669.922,-525.5898C669.922,-514.8554 669.922,-484.4307 669.922,-468.1125"/>
<polygon fill="#c0c0c0" stroke="#c0c0c0" points="673.4221,-468.0616 669.922,-458.0616 666.4221,-468.0617 673.4221,-468.0616"/>
</g>
<!-- 3705 -->
<g id="node16" class="node">
<title>3705</title>
<ellipse fill="#d3d3d3" stroke="#c0c0c0" cx="453.922" cy="-241.4608" rx="3.5" ry="3.5"/>
</g>
<!-- 3704&#45;&gt;3705 -->
<g id="edge15" class="edge">
<title>3704&#45;&gt;3705</title>
<path fill="none" stroke="#c0c0c0" d="M669.3024,-456.8412C658.3059,-445.8447 504.144,-291.6828 463.6217,-251.1605"/>
<polygon fill="#c0c0c0" stroke="#c0c0c0" points="466.0347,-248.6237 456.4887,-244.0275 461.0849,-253.5735 466.0347,-248.6237"/>
<text text-anchor="middle" x="507.564" y="-393.0008" font-family="Arial" font-size="10.00" fill="#000000">Zuiderzeeweg </text>
<text text-anchor="middle" x="507.564" y="-381.0008" font-family="Arial" font-size="10.00" fill="#000000"> (via Schellingwouderbrug </text>
<text text-anchor="middle" x="507.564" y="-369.0008" font-family="Arial" font-size="10.00" fill="#000000"> en Amsterdamsebrug) </text>
<text text-anchor="middle" x="507.564" y="-357.0008" font-family="Arial" font-size="10.00" fill="#000000"> Insulindeweg </text>
</g>
<!-- 3706 -->
<g id="node17" class="node">
<title>3706</title>
<ellipse fill="#d3d3d3" stroke="#c0c0c0" cx="453.922" cy="-313.4608" rx="3.5" ry="3.5"/>
</g>
<!-- 3705&#45;&gt;3706 -->
<g id="edge16" class="edge">
<title>3705&#45;&gt;3706</title>
<path fill="none" stroke="#c0c0c0" d="M453.922,-245.3318C453.922,-255.3871 453.922,-282.72 453.922,-299.5512"/>
<polygon fill="#c0c0c0" stroke="#c0c0c0" points="450.4221,-299.9148 453.922,-309.9149 457.4221,-299.9149 450.4221,-299.9148"/>
<text text-anchor="middle" x="420.0275" y="-275.4415" font-family="Arial" font-size="10.00" fill="#000000">Molukkenstraat</text>
</g>
<!-- 3709 -->
<g id="node18" class="node">
<title>3709</title>
<ellipse fill="#d3d3d3" stroke="#c0c0c0" cx="381.922" cy="-313.4608" rx="3.5" ry="3.5"/>
</g>
<!-- 3706&#45;&gt;3709 -->
<g id="edge17" class="edge">
<title>3706&#45;&gt;3709</title>
<path fill="none" stroke="#c0c0c0" d="M450.051,-313.4608C439.9957,-313.4608 412.6628,-313.4608 395.8316,-313.4608"/>
<polygon fill="#c0c0c0" stroke="#c0c0c0" points="395.468,-309.9609 385.4679,-313.4608 395.4679,-316.9609 395.468,-309.9609"/>
<text text-anchor="middle" x="422.9413" y="-304.4608" font-family="Arial" font-size="10.00" fill="#000000">Zeeburgerdijk</text>
<text text-anchor="middle" x="422.9413" y="-292.4608" font-family="Arial" font-size="10.00" fill="#000000">Mauritskade</text>
</g>
<!-- 3707 -->
<g id="node19" class="node">
<title>3707</title>
<ellipse fill="#d3d3d3" stroke="#c0c0c0" cx="381.922" cy="-25.4608" rx="3.5" ry="3.5"/>
</g>
<!-- 3709&#45;&gt;3707 -->
<g id="edge18" class="edge">
<title>3709&#45;&gt;3707</title>
<path fill="none" stroke="#c0c0c0" d="M381.922,-309.8194C381.922,-281.1858 381.922,-91.9774 381.922,-39.1422"/>
<polygon fill="#c0c0c0" stroke="#c0c0c0" points="385.4221,-39.0208 381.922,-29.0209 378.4221,-39.0209 385.4221,-39.0208"/>
<text text-anchor="middle" x="335.246" y="-165.4808" font-family="Arial" font-size="10.00" fill="#000000">Oosterpark</text>
<text text-anchor="middle" x="335.246" y="-153.4808" font-family="Arial" font-size="10.00" fill="#000000">Beukenweg </text>
<text text-anchor="middle" x="335.246" y="-141.4808" font-family="Arial" font-size="10.00" fill="#000000"> Maritzstraat </text>
<text text-anchor="middle" x="335.246" y="-129.4808" font-family="Arial" font-size="10.00" fill="#000000"> Krugerplein </text>
<text text-anchor="middle" x="335.246" y="-117.4808" font-family="Arial" font-size="10.00" fill="#000000"> Schalk Burgerstraat </text>
<text text-anchor="middle" x="335.246" y="-105.4808" font-family="Arial" font-size="10.00" fill="#000000"> Nobelweg</text>
</g>
<!-- 3708 -->
<g id="node20" class="node">
<title>3708</title>
<ellipse fill="#d3d3d3" stroke="#c0c0c0" cx="237.922" cy="-25.4608" rx="25.4216" ry="25.4216"/>
<text text-anchor="middle" x="237.922" y="-22.4608" font-family="Arial" font-size="10.00" fill="#000000">ASA</text>
</g>
<!-- 3707&#45;&gt;3708 -->
<g id="edge19" class="edge">
<title>3707&#45;&gt;3708</title>
<path fill="none" stroke="#c0c0c0" d="M378.3624,-25.4608C364.1716,-25.4608 310.6276,-25.4608 273.9106,-25.4608"/>
<polygon fill="#c0c0c0" stroke="#c0c0c0" points="273.5833,-21.9609 263.5833,-25.4608 273.5833,-28.9609 273.5833,-21.9609"/>
<text text-anchor="middle" x="326.1365" y="-16.4608" font-family="Arial" font-size="10.00" fill="#000000">Hugo de Vrieslaan </text>
<text text-anchor="middle" x="326.1365" y="-4.4608" font-family="Arial" font-size="10.00" fill="#000000"> Overzichtweg</text>
</g>
</g>
</svg>

