<?xml version="1.0" encoding="UTF-8" standalone="no"?>
<!DOCTYPE svg PUBLIC "-//W3C//DTD SVG 1.1//EN"
 "http://www.w3.org/Graphics/SVG/1.1/DTD/svg11.dtd">
<!-- Generated by graphviz version 2.40.1 (20161225.0304)
 -->
<!-- Title: G Pages: 1 -->
<svg width="612pt" height="709pt"
 viewBox="0.00 0.00 612.31 708.66" xmlns="http://www.w3.org/2000/svg" xmlns:xlink="http://www.w3.org/1999/xlink">
<g id="graph0" class="graph" transform="scale(1 1) rotate(0) translate(4 704.6608)">
<title>G</title>
<polygon fill="#ffffff" stroke="transparent" points="-4,4 -4,-704.6608 608.3054,-704.6608 608.3054,4 -4,4"/>
<text text-anchor="middle" x="302.1527" y="-5.8" font-family="Times,serif" font-size="6.00" fill="#000000">* route in beide richtingen</text>
<!-- 3400 -->
<g id="node1" class="node">
<title>3400</title>
<ellipse fill="#d3d3d3" stroke="#c0c0c0" cx="309.922" cy="-616.6608" rx="26.7557" ry="26.7557"/>
<text text-anchor="middle" x="309.922" y="-613.6608" font-family="Arial" font-size="10.00" fill="#000000">NRD</text>
</g>
<!-- 3401 -->
<g id="node2" class="node">
<title>3401</title>
<ellipse fill="#d3d3d3" stroke="#c0c0c0" cx="165.922" cy="-616.6608" rx="3.5" ry="3.5"/>
</g>
<!-- 3400&#45;&gt;3401 -->
<g id="edge1" class="edge">
<title>3400&#45;&gt;3401</title>
<path fill="none" stroke="#c0c0c0" d="M272.8739,-616.6608C242.4876,-616.6608 201.1354,-616.6608 179.8492,-616.6608"/>
<polygon fill="#c0c0c0" stroke="#c0c0c0" points="273.1742,-620.1609 283.1742,-616.6608 273.1741,-613.1609 273.1742,-620.1609"/>
<polygon fill="#c0c0c0" stroke="#c0c0c0" points="179.6663,-613.1609 169.6663,-616.6608 179.6663,-620.1609 179.6663,-613.1609"/>
<text text-anchor="middle" x="198.8521" y="-631.6608" font-family="Arial" font-size="10.00" fill="#000000">IJdoornlaan </text>
<text text-anchor="middle" x="198.8521" y="-619.6608" font-family="Arial" font-size="10.00" fill="#000000"> (lijn 34*)</text>
</g>
<!-- 3701 -->
<g id="node13" class="node">
<title>3701</title>
<ellipse fill="#d3d3d3" stroke="#c0c0c0" cx="453.922" cy="-616.6608" rx=".5" ry=".5"/>
</g>
<!-- 3400&#45;&gt;3701 -->
<g id="edge13" class="edge">
<title>3400&#45;&gt;3701</title>
<path fill="none" stroke="#c0c0c0" d="M336.6698,-616.6608C368.5431,-616.6608 420.3132,-616.6608 442.8513,-616.6608"/>
<polygon fill="#c0c0c0" stroke="#c0c0c0" points="443.0627,-620.1609 453.0627,-616.6608 443.0627,-613.1609 443.0627,-620.1609"/>
<text text-anchor="middle" x="417.27" y="-631.6608" font-family="Arial" font-size="10.00" fill="#000000">IJdoornlaan </text>
<text text-anchor="middle" x="417.27" y="-619.6608" font-family="Arial" font-size="10.00" fill="#000000"> (lijn 37)</text>
</g>
<!-- 3402 -->
<g id="node3" class="node">
<title>3402</title>
<ellipse fill="#d3d3d3" stroke="#c0c0c0" cx="165.922" cy="-688.6608" rx=".5" ry=".5"/>
</g>
<!-- 3401&#45;&gt;3402 -->
<g id="edge2" class="edge">
<title>3401&#45;&gt;3402</title>
<path fill="none" stroke="#c0c0c0" d="M165.922,-630.6302C165.922,-644.402 165.922,-665.1625 165.922,-677.7602"/>
<polygon fill="#c0c0c0" stroke="#c0c0c0" points="169.4221,-630.5318 165.922,-620.5318 162.4221,-630.5319 169.4221,-630.5318"/>
<polygon fill="#c0c0c0" stroke="#c0c0c0" points="162.4221,-678.0599 165.922,-688.06 169.4221,-678.06 162.4221,-678.0599"/>
<text text-anchor="middle" x="137.3025" y="-657.1952" font-family="Arial" font-size="10.00" fill="#000000">Oosterlengte</text>
</g>
<!-- 3403 -->
<g id="node4" class="node">
<title>3403</title>
<ellipse fill="#d3d3d3" stroke="#c0c0c0" cx="93.922" cy="-688.6608" rx=".5" ry=".5"/>
</g>
<!-- 3402&#45;&gt;3403 -->
<g id="edge3" class="edge">
<title>3402&#45;&gt;3403</title>
<path fill="none" stroke="#c0c0c0" d="M154.8421,-688.6608C141.314,-688.6608 118.5688,-688.6608 105.0286,-688.6608"/>
<polygon fill="#c0c0c0" stroke="#c0c0c0" points="155.1134,-692.1609 165.1134,-688.6608 155.1134,-685.1609 155.1134,-692.1609"/>
<polygon fill="#c0c0c0" stroke="#c0c0c0" points="104.6346,-685.1609 94.6346,-688.6608 104.6346,-692.1609 104.6346,-685.1609"/>
<text text-anchor="middle" x="94.9274" y="-691.6608" font-family="Arial" font-size="10.00" fill="#000000">Noorderbreedte</text>
</g>
<!-- 3404 -->
<g id="node5" class="node">
<title>3404</title>
<ellipse fill="#d3d3d3" stroke="#c0c0c0" cx="93.922" cy="-544.6608" rx=".5" ry=".5"/>
</g>
<!-- 3403&#45;&gt;3404 -->
<g id="edge4" class="edge">
<title>3403&#45;&gt;3404</title>
<path fill="none" stroke="#c0c0c0" d="M93.922,-677.8505C93.922,-651.2578 93.922,-582.8661 93.922,-555.8654"/>
<polygon fill="#c0c0c0" stroke="#c0c0c0" points="90.4221,-678.0187 93.922,-688.0188 97.4221,-678.0188 90.4221,-678.0187"/>
<polygon fill="#c0c0c0" stroke="#c0c0c0" points="97.4221,-555.5109 93.922,-545.511 90.4221,-555.511 97.4221,-555.5109"/>
<text text-anchor="middle" x="46.961" y="-631.8579" font-family="Arial" font-size="10.00" fill="#000000">Westerlengte </text>
<text text-anchor="middle" x="46.961" y="-619.8579" font-family="Arial" font-size="10.00" fill="#000000"> Banne Buikslootlaan</text>
</g>
<!-- 3405 -->
<g id="node6" class="node">
<title>3405</title>
<ellipse fill="#d3d3d3" stroke="#c0c0c0" cx="165.922" cy="-544.6608" rx="3.5" ry="3.5"/>
</g>
<!-- 3404&#45;&gt;3405 -->
<g id="edge5" class="edge">
<title>3404&#45;&gt;3405</title>
<path fill="none" stroke="#c0c0c0" d="M104.8892,-544.6608C117.4693,-544.6608 138.1257,-544.6608 151.8736,-544.6608"/>
<polygon fill="#c0c0c0" stroke="#c0c0c0" points="104.7306,-541.1609 94.7306,-544.6608 104.7306,-548.1609 104.7306,-541.1609"/>
<polygon fill="#c0c0c0" stroke="#c0c0c0" points="152.1271,-548.1609 162.1271,-544.6608 152.1271,-541.1609 152.1271,-548.1609"/>
</g>
<!-- 3406 -->
<g id="node7" class="node">
<title>3406</title>
<ellipse fill="#d3d3d3" stroke="#c0c0c0" cx="165.922" cy="-400.6608" rx="3.5" ry="3.5"/>
</g>
<!-- 3405&#45;&gt;3406 -->
<g id="edge6" class="edge">
<title>3405&#45;&gt;3406</title>
<path fill="none" stroke="#c0c0c0" d="M165.922,-530.7851C165.922,-503.3125 165.922,-442.271 165.922,-414.681"/>
<polygon fill="#c0c0c0" stroke="#c0c0c0" points="162.4221,-531.1012 165.922,-541.1012 169.4221,-531.1013 162.4221,-531.1012"/>
<polygon fill="#c0c0c0" stroke="#c0c0c0" points="169.4221,-414.3559 165.922,-404.356 162.4221,-414.356 169.4221,-414.3559"/>
<text text-anchor="middle" x="125.915" y="-487.7331" font-family="Arial" font-size="10.00" fill="#000000">Kamperfoelieweg </text>
<text text-anchor="middle" x="125.915" y="-475.7331" font-family="Arial" font-size="10.00" fill="#000000"> Mosplein</text>
</g>
<!-- 3407 -->
<g id="node8" class="node">
<title>3407</title>
<ellipse fill="#d3d3d3" stroke="#c0c0c0" cx="309.922" cy="-400.6608" rx="3.5" ry="3.5"/>
</g>
<!-- 3406&#45;&gt;3407 -->
<g id="edge7" class="edge">
<title>3406&#45;&gt;3407</title>
<path fill="none" stroke="#c0c0c0" d="M179.7977,-400.6608C207.2703,-400.6608 268.3118,-400.6608 295.9018,-400.6608"/>
<polygon fill="#c0c0c0" stroke="#c0c0c0" points="179.4816,-397.1609 169.4816,-400.6608 179.4815,-404.1609 179.4816,-397.1609"/>
<polygon fill="#c0c0c0" stroke="#c0c0c0" points="296.2269,-404.1609 306.2268,-400.6608 296.2268,-397.1609 296.2269,-404.1609"/>
<text text-anchor="middle" x="237.8497" y="-391.6608" font-family="Arial" font-size="10.00" fill="#000000">Johan van Hasseltweg </text>
<text text-anchor="middle" x="237.8497" y="-379.6608" font-family="Arial" font-size="10.00" fill="#000000"> (via St. Noorderpark)</text>
</g>
<!-- 3408 -->
<g id="node9" class="node">
<title>3408</title>
<ellipse fill="#d3d3d3" stroke="#c0c0c0" cx="309.922" cy="-328.6608" rx="3.5" ry="3.5"/>
</g>
<!-- 3407&#45;&gt;3408 -->
<g id="edge8" class="edge">
<title>3407&#45;&gt;3408</title>
<path fill="none" stroke="#c0c0c0" d="M309.922,-386.6914C309.922,-373.9256 309.922,-355.1549 309.922,-342.4469"/>
<polygon fill="#c0c0c0" stroke="#c0c0c0" points="306.4221,-386.7897 309.922,-396.7898 313.4221,-386.7898 306.4221,-386.7897"/>
<polygon fill="#c0c0c0" stroke="#c0c0c0" points="313.4221,-342.2067 309.922,-332.2067 306.4221,-342.2068 313.4221,-342.2067"/>
<text text-anchor="middle" x="278.8025" y="-367.5692" font-family="Arial" font-size="10.00" fill="#000000">Meeuwenlaan</text>
</g>
<!-- 3409 -->
<g id="node10" class="node">
<title>3409</title>
<ellipse fill="#d3d3d3" stroke="#c0c0c0" cx="237.922" cy="-328.6608" rx="3.5" ry="3.5"/>
</g>
<!-- 3408&#45;&gt;3409 -->
<g id="edge9" class="edge">
<title>3408&#45;&gt;3409</title>
<path fill="none" stroke="#c0c0c0" d="M306.051,-328.6608C295.9957,-328.6608 268.6628,-328.6608 251.8317,-328.6608"/>
<polygon fill="#c0c0c0" stroke="#c0c0c0" points="251.468,-325.1609 241.4679,-328.6608 251.4679,-332.1609 251.468,-325.1609"/>
<text text-anchor="middle" x="278.9413" y="-319.6608" font-family="Arial" font-size="10.00" fill="#000000">Havikslaan </text>
<text text-anchor="middle" x="278.9413" y="-307.6608" font-family="Arial" font-size="10.00" fill="#000000"> Kraaienplein</text>
</g>
<!-- 3410 -->
<g id="node11" class="node">
<title>3410</title>
<ellipse fill="#d3d3d3" stroke="#c0c0c0" cx="309.922" cy="-184.6608" rx="3.5" ry="3.5"/>
</g>
<!-- 3409&#45;&gt;3410 -->
<g id="edge10" class="edge">
<title>3409&#45;&gt;3410</title>
<path fill="none" stroke="#c0c0c0" d="M239.5611,-325.3826C248.1362,-308.2324 288.0341,-228.4367 303.6406,-197.2235"/>
<polygon fill="#c0c0c0" stroke="#c0c0c0" points="306.975,-198.381 308.3167,-187.8714 300.714,-195.2504 306.975,-198.381"/>
<text text-anchor="middle" x="233.8129" y="-288.3031" font-family="Arial" font-size="10.00" fill="#000000">Sperwerlaan </text>
<text text-anchor="middle" x="233.8129" y="-276.3031" font-family="Arial" font-size="10.00" fill="#000000"> Spreeuwenpark </text>
<text text-anchor="middle" x="233.8129" y="-264.3031" font-family="Arial" font-size="10.00" fill="#000000"> Valkenweg</text>
</g>
<!-- 3411 -->
<g id="node12" class="node">
<title>3411</title>
<ellipse fill="#d3d3d3" stroke="#c0c0c0" cx="309.922" cy="-256.6608" rx="24.8531" ry="24.8531"/>
<text text-anchor="middle" x="309.922" y="-253.6608" font-family="Arial" font-size="10.00" fill="#000000">VLK</text>
</g>
<!-- 3410&#45;&gt;3411 -->
<g id="edge11" class="edge">
<title>3410&#45;&gt;3411</title>
<path fill="none" stroke="#c0c0c0" d="M309.922,-188.5318C309.922,-194.956 309.922,-208.4326 309.922,-221.7172"/>
<polygon fill="#c0c0c0" stroke="#c0c0c0" points="306.4221,-221.7186 309.922,-231.7186 313.4221,-221.7186 306.4221,-221.7186"/>
</g>
<!-- 3411&#45;&gt;3408 -->
<g id="edge12" class="edge">
<title>3411&#45;&gt;3408</title>
<path fill="none" stroke="#c0c0c0" d="M309.922,-281.4391C309.922,-292.5264 309.922,-305.1914 309.922,-314.6124"/>
<polygon fill="#c0c0c0" stroke="#c0c0c0" points="306.4219,-314.7226 309.922,-324.7226 313.4219,-314.7226 306.4219,-314.7226"/>
</g>
<!-- 3702 -->
<g id="node14" class="node">
<title>3702</title>
<ellipse fill="#d3d3d3" stroke="#c0c0c0" cx="525.922" cy="-544.6608" rx="3.5" ry="3.5"/>
</g>
<!-- 3701&#45;&gt;3702 -->
<g id="edge14" class="edge">
<title>3701&#45;&gt;3702</title>
<path fill="none" stroke="#c0c0c0" d="M454.3818,-616.201C459.0339,-611.5489 497.804,-572.7788 516.2461,-554.3367"/>
<polygon fill="#c0c0c0" stroke="#c0c0c0" points="518.8317,-556.7009 523.4279,-547.1549 513.8819,-551.7511 518.8317,-556.7009"/>
</g>
<!-- 3703 -->
<g id="node15" class="node">
<title>3703</title>
<ellipse fill="#d3d3d3" stroke="#c0c0c0" cx="597.922" cy="-544.6608" rx="3.5" ry="3.5"/>
</g>
<!-- 3702&#45;&gt;3703 -->
<g id="edge15" class="edge">
<title>3702&#45;&gt;3703</title>
<path fill="none" stroke="#c0c0c0" d="M529.793,-544.6608C539.8483,-544.6608 567.1812,-544.6608 584.0123,-544.6608"/>
<polygon fill="#c0c0c0" stroke="#c0c0c0" points="584.3761,-548.1609 594.3761,-544.6608 584.376,-541.1609 584.3761,-548.1609"/>
<text text-anchor="middle" x="556.9027" y="-535.6608" font-family="Arial" font-size="10.00" fill="#000000">Zuiderzeeweg</text>
</g>
<!-- 3704 -->
<g id="node16" class="node">
<title>3704</title>
<ellipse fill="#d3d3d3" stroke="#c0c0c0" cx="597.922" cy="-472.6608" rx=".5" ry=".5"/>
</g>
<!-- 3703&#45;&gt;3704 -->
<g id="edge16" class="edge">
<title>3703&#45;&gt;3704</title>
<path fill="none" stroke="#c0c0c0" d="M597.922,-540.7898C597.922,-530.0554 597.922,-499.6307 597.922,-483.3125"/>
<polygon fill="#c0c0c0" stroke="#c0c0c0" points="601.4221,-483.2616 597.922,-473.2616 594.4221,-483.2616 601.4221,-483.2616"/>
</g>
<!-- 3705 -->
<g id="node17" class="node">
<title>3705</title>
<ellipse fill="#d3d3d3" stroke="#c0c0c0" cx="525.922" cy="-256.6608" rx=".5" ry=".5"/>
</g>
<!-- 3704&#45;&gt;3705 -->
<g id="edge17" class="edge">
<title>3704&#45;&gt;3705</title>
<path fill="none" stroke="#c0c0c0" d="M597.7155,-472.0412C594.0638,-461.0861 543.0487,-308.0407 529.3093,-266.8227"/>
<polygon fill="#c0c0c0" stroke="#c0c0c0" points="532.5987,-265.6227 526.116,-257.2427 525.9579,-267.8363 532.5987,-265.6227"/>
<text text-anchor="middle" x="504.6144" y="-396.4319" font-family="Arial" font-size="10.00" fill="#000000">Zuiderzeeweg </text>
<text text-anchor="middle" x="504.6144" y="-384.4319" font-family="Arial" font-size="10.00" fill="#000000"> (via Schellingwouderbrug </text>
<text text-anchor="middle" x="504.6144" y="-372.4319" font-family="Arial" font-size="10.00" fill="#000000"> en Amsterdamsebrug) </text>
</g>
<!-- 3709 -->
<g id="node18" class="node">
<title>3709</title>
<ellipse fill="#d3d3d3" stroke="#c0c0c0" cx="453.922" cy="-256.6608" rx="3.5" ry="3.5"/>
</g>
<!-- 3705&#45;&gt;3709 -->
<g id="edge18" class="edge">
<title>3705&#45;&gt;3709</title>
<path fill="none" stroke="#c0c0c0" d="M525.1134,-256.6608C519.5878,-256.6608 487.0428,-256.6608 467.9234,-256.6608"/>
<polygon fill="#c0c0c0" stroke="#c0c0c0" points="467.7169,-253.1607 457.7169,-256.6608 467.7169,-260.1607 467.7169,-253.1607"/>
<text text-anchor="middle" x="550.4119" y="-295.6608" font-family="Arial" font-size="10.00" fill="#000000">Insulindeweg </text>
<text text-anchor="middle" x="550.4119" y="-283.6608" font-family="Arial" font-size="10.00" fill="#000000"> (via Muiderpoortstation)</text>
<text text-anchor="middle" x="550.4119" y="-271.6608" font-family="Arial" font-size="10.00" fill="#000000"> Wijttenbachstraat </text>
<text text-anchor="middle" x="550.4119" y="-259.6608" font-family="Arial" font-size="10.00" fill="#000000"> Oosterpark </text>
</g>
<!-- 3707 -->
<g id="node19" class="node">
<title>3707</title>
<ellipse fill="#d3d3d3" stroke="#c0c0c0" cx="453.922" cy="-40.6608" rx="3.5" ry="3.5"/>
</g>
<!-- 3709&#45;&gt;3707 -->
<g id="edge19" class="edge">
<title>3709&#45;&gt;3707</title>
<path fill="none" stroke="#c0c0c0" d="M453.922,-252.9117C453.922,-228.999 453.922,-97.4315 453.922,-54.334"/>
<polygon fill="#c0c0c0" stroke="#c0c0c0" points="457.4221,-54.1797 453.922,-44.1797 450.4221,-54.1798 457.4221,-54.1797"/>
<text text-anchor="middle" x="407.246" y="-204.6229" font-family="Arial" font-size="10.00" fill="#000000">Beukenweg </text>
<text text-anchor="middle" x="407.246" y="-192.6229" font-family="Arial" font-size="10.00" fill="#000000"> Maritzstraat </text>
<text text-anchor="middle" x="407.246" y="-180.6229" font-family="Arial" font-size="10.00" fill="#000000"> Krugerplein </text>
<text text-anchor="middle" x="407.246" y="-168.6229" font-family="Arial" font-size="10.00" fill="#000000"> Schalk Burgerstraat </text>
<text text-anchor="middle" x="407.246" y="-156.6229" font-family="Arial" font-size="10.00" fill="#000000"> Nobelweg</text>
</g>
<!-- 3708 -->
<g id="node20" class="node">
<title>3708</title>
<ellipse fill="#d3d3d3" stroke="#c0c0c0" cx="309.922" cy="-40.6608" rx="25.4216" ry="25.4216"/>
<text text-anchor="middle" x="309.922" y="-37.6608" font-family="Arial" font-size="10.00" fill="#000000">ASA</text>
</g>
<!-- 3707&#45;&gt;3708 -->
<g id="edge20" class="edge">
<title>3707&#45;&gt;3708</title>
<path fill="none" stroke="#c0c0c0" d="M450.3624,-40.6608C436.1716,-40.6608 382.6276,-40.6608 345.9106,-40.6608"/>
<polygon fill="#c0c0c0" stroke="#c0c0c0" points="345.5833,-37.1609 335.5833,-40.6608 345.5833,-44.1609 345.5833,-37.1609"/>
<text text-anchor="middle" x="398.1365" y="-31.6608" font-family="Arial" font-size="10.00" fill="#000000">Hugo de Vrieslaan </text>
<text text-anchor="middle" x="398.1365" y="-19.6608" font-family="Arial" font-size="10.00" fill="#000000"> Overzichtweg</text>
</g>
</g>
</svg>

