<?xml version="1.0" encoding="UTF-8" standalone="no"?>
<!DOCTYPE svg PUBLIC "-//W3C//DTD SVG 1.1//EN"
 "http://www.w3.org/Graphics/SVG/1.1/DTD/svg11.dtd">
<!-- Generated by graphviz version 2.40.1 (20161225.0304)
 -->
<!-- Title: G Pages: 1 -->
<svg width="1049pt" height="750pt"
 viewBox="0.00 0.00 1048.67 750.20" xmlns="http://www.w3.org/2000/svg" xmlns:xlink="http://www.w3.org/1999/xlink">
<g id="graph0" class="graph" transform="scale(1 1) rotate(0) translate(4 746.2)">
<title>G</title>
<polygon fill="#ffffff" stroke="transparent" points="-4,4 -4,-746.2 1044.6717,-746.2 1044.6717,4 -4,4"/>
<text text-anchor="middle" x="520.3358" y="-5.8" font-family="Times,serif" font-size="6.00" fill="#000000">* route in beide richtingen</text>
<!-- 3901 -->
<g id="node1" class="node">
<title>3901</title>
<ellipse fill="#d3d3d3" stroke="#c0c0c0" cx="893.1717" cy="-378.7" rx="26.4937" ry="26.4937"/>
<text text-anchor="middle" x="893.1717" y="-375.7" font-family="Arial" font-size="10.00" fill="#000000">OLO</text>
</g>
<!-- 3902 -->
<g id="node2" class="node">
<title>3902</title>
<ellipse fill="#d3d3d3" stroke="#c0c0c0" cx="1037.1717" cy="-378.7" rx="3.5" ry="3.5"/>
</g>
<!-- 3901&#45;&gt;3902 -->
<g id="edge34" class="edge">
<title>3901&#45;&gt;3902</title>
<path fill="none" stroke="#c0c0c0" d="M919.5835,-378.7C950.1418,-378.7 999.312,-378.7 1023.22,-378.7"/>
<polygon fill="#c0c0c0" stroke="#c0c0c0" points="1023.4079,-382.2001 1033.4078,-378.7 1023.4078,-375.2001 1023.4079,-382.2001"/>
<text text-anchor="middle" x="971.4017" y="-369.7" font-family="Arial" font-size="10.00" fill="#000000">Buikslotermeerplein</text>
<text text-anchor="middle" x="971.4017" y="-357.7" font-family="Arial" font-size="10.00" fill="#000000">(lijn 39)</text>
</g>
<!-- 3805 -->
<g id="node33" class="node">
<title>3805</title>
<ellipse fill="#d3d3d3" stroke="#c0c0c0" cx="749.1716" cy="-378.7" rx="3.5" ry="3.5"/>
</g>
<!-- 3901&#45;&gt;3805 -->
<g id="edge33" class="edge">
<title>3901&#45;&gt;3805</title>
<path fill="none" stroke="#c0c0c0" d="M856.4681,-378.7C826.0836,-378.7 784.5558,-378.7 763.1685,-378.7"/>
<polygon fill="#c0c0c0" stroke="#c0c0c0" points="856.7599,-382.2001 866.7598,-378.7 856.7598,-375.2001 856.7599,-382.2001"/>
<polygon fill="#c0c0c0" stroke="#c0c0c0" points="762.9355,-375.2001 752.9355,-378.7 762.9354,-382.2001 762.9355,-375.2001"/>
<text text-anchor="middle" x="809.8183" y="-369.7" font-family="Arial" font-size="10.00" fill="#000000">Buikslotermeerplein </text>
<text text-anchor="middle" x="809.8183" y="-357.7" font-family="Arial" font-size="10.00" fill="#000000"> (lijn 38*)</text>
</g>
<!-- 3903 -->
<g id="node3" class="node">
<title>3903</title>
<ellipse fill="#d3d3d3" stroke="#c0c0c0" cx="1037.1717" cy="-666.7" rx="3.5" ry="3.5"/>
</g>
<!-- 3902&#45;&gt;3903 -->
<g id="edge7" class="edge">
<title>3902&#45;&gt;3903</title>
<path fill="none" stroke="#c0c0c0" d="M1037.1717,-382.3414C1037.1717,-410.9749 1037.1717,-600.1834 1037.1717,-653.0186"/>
<polygon fill="#c0c0c0" stroke="#c0c0c0" points="1033.6718,-653.1399 1037.1717,-663.1399 1040.6718,-653.1399 1033.6718,-653.1399"/>
<text text-anchor="middle" x="999.6677" y="-520.68" font-family="Arial" font-size="10.00" fill="#000000">Th. Weeversweg</text>
</g>
<!-- 3904 -->
<g id="node4" class="node">
<title>3904</title>
<ellipse fill="#d3d3d3" stroke="#c0c0c0" cx="965.1717" cy="-666.7" rx="3.5" ry="3.5"/>
</g>
<!-- 3903&#45;&gt;3904 -->
<g id="edge8" class="edge">
<title>3903&#45;&gt;3904</title>
<path fill="none" stroke="#c0c0c0" d="M1033.3006,-666.7C1023.2453,-666.7 995.9124,-666.7 979.0813,-666.7"/>
<polygon fill="#c0c0c0" stroke="#c0c0c0" points="978.7176,-663.2001 968.7176,-666.7 978.7176,-670.2001 978.7176,-663.2001"/>
<text text-anchor="middle" x="1006.191" y="-657.7" font-family="Arial" font-size="10.00" fill="#000000">IJdoornlaan</text>
</g>
<!-- 3920 -->
<g id="node20" class="node">
<title>3920</title>
<ellipse fill="#d3d3d3" stroke="#c0c0c0" cx="965.1717" cy="-738.7" rx="3.5" ry="3.5"/>
</g>
<!-- 3904&#45;&gt;3920 -->
<g id="edge9" class="edge">
<title>3904&#45;&gt;3920</title>
<path fill="none" stroke="#c0c0c0" d="M965.1717,-670.571C965.1717,-680.6263 965.1717,-707.9592 965.1717,-724.7903"/>
<polygon fill="#c0c0c0" stroke="#c0c0c0" points="961.6718,-725.154 965.1717,-735.1541 968.6718,-725.1541 961.6718,-725.154"/>
<text text-anchor="middle" x="936.2872" y="-700.6807" font-family="Arial" font-size="10.00" fill="#000000">J. Drijverweg</text>
</g>
<!-- 3905 -->
<g id="node5" class="node">
<title>3905</title>
<ellipse fill="#d3d3d3" stroke="#c0c0c0" cx="209.1717" cy="-450.7" rx="3.5" ry="3.5"/>
</g>
<!-- 3912 -->
<g id="node12" class="node">
<title>3912</title>
<ellipse fill="#d3d3d3" stroke="#c0c0c0" cx="173.1717" cy="-450.7" rx="3.5" ry="3.5"/>
</g>
<!-- 3905&#45;&gt;3912 -->
<g id="edge25" class="edge">
<title>3905&#45;&gt;3912</title>
<path fill="none" stroke="#c0c0c0" d="M205.5882,-450.7C201.3199,-450.7 193.9303,-450.7 187.2836,-450.7"/>
<polygon fill="#c0c0c0" stroke="#c0c0c0" points="186.9563,-447.2001 176.9562,-450.7 186.9562,-454.2001 186.9563,-447.2001"/>
</g>
<!-- 3906 -->
<g id="node6" class="node">
<title>3906</title>
<ellipse fill="#d3d3d3" stroke="#c0c0c0" cx="533.1716" cy="-306.7" rx=".5" ry=".5"/>
</g>
<!-- 3907 -->
<g id="node7" class="node">
<title>3907</title>
<ellipse fill="#d3d3d3" stroke="#c0c0c0" cx="461.1716" cy="-306.7" rx="3.5" ry="3.5"/>
</g>
<!-- 3908 -->
<g id="node8" class="node">
<title>3908</title>
<ellipse fill="#d3d3d3" stroke="#c0c0c0" cx="317.1716" cy="-306.7" rx="3.5" ry="3.5"/>
</g>
<!-- 3907&#45;&gt;3908 -->
<g id="edge20" class="edge">
<title>3907&#45;&gt;3908</title>
<path fill="none" stroke="#c0c0c0" d="M457.6121,-306.7C440.1006,-306.7 362.6638,-306.7 330.8688,-306.7"/>
<polygon fill="#c0c0c0" stroke="#c0c0c0" points="330.8668,-303.2001 320.8668,-306.7 330.8668,-310.2001 330.8668,-303.2001"/>
<text text-anchor="middle" x="361.1765" y="-321.7" font-family="Arial" font-size="10.00" fill="#000000">Klaprozenweg </text>
<text text-anchor="middle" x="361.1765" y="-309.7" font-family="Arial" font-size="10.00" fill="#000000"> (lijn 39)</text>
</g>
<!-- 3804 -->
<g id="node32" class="node">
<title>3804</title>
<ellipse fill="#d3d3d3" stroke="#c0c0c0" cx="461.1716" cy="-234.7" rx="23.1985" ry="23.1985"/>
<text text-anchor="middle" x="461.1716" y="-231.7" font-family="Arial" font-size="10.00" fill="#000000">BUI</text>
</g>
<!-- 3907&#45;&gt;3804 -->
<g id="edge4" class="edge">
<title>3907&#45;&gt;3804</title>
<path fill="none" stroke="#c0c0c0" d="M461.1716,-302.829C461.1716,-296.172 461.1716,-281.9423 461.1716,-268.2007"/>
<polygon fill="#c0c0c0" stroke="#c0c0c0" points="464.6717,-267.921 461.1716,-257.921 457.6717,-267.921 464.6717,-267.921"/>
<text text-anchor="middle" x="423.3886" y="-276.5148" font-family="Arial" font-size="10.00" fill="#000000">Ridderspoorweg </text>
<text text-anchor="middle" x="423.3886" y="-264.5148" font-family="Arial" font-size="10.00" fill="#000000"> (lijn 38)</text>
</g>
<!-- 3909 -->
<g id="node9" class="node">
<title>3909</title>
<ellipse fill="#d3d3d3" stroke="#c0c0c0" cx="317.1716" cy="-378.7" rx="3.5" ry="3.5"/>
</g>
<!-- 3908&#45;&gt;3909 -->
<g id="edge21" class="edge">
<title>3908&#45;&gt;3909</title>
<path fill="none" stroke="#c0c0c0" d="M317.1716,-310.571C317.1716,-320.6263 317.1716,-347.9592 317.1716,-364.7903"/>
<polygon fill="#c0c0c0" stroke="#c0c0c0" points="313.6717,-365.154 317.1716,-375.1541 320.6717,-365.1541 313.6717,-365.154"/>
<text text-anchor="middle" x="297.4496" y="-340.6807" font-family="Arial" font-size="10.00" fill="#000000">Atatürk</text>
</g>
<!-- 3910 -->
<g id="node10" class="node">
<title>3910</title>
<ellipse fill="#d3d3d3" stroke="#c0c0c0" cx="245.1716" cy="-378.7" rx="3.5" ry="3.5"/>
</g>
<!-- 3909&#45;&gt;3910 -->
<g id="edge22" class="edge">
<title>3909&#45;&gt;3910</title>
<path fill="none" stroke="#c0c0c0" d="M313.3006,-378.7C303.2453,-378.7 275.9124,-378.7 259.0813,-378.7"/>
<polygon fill="#c0c0c0" stroke="#c0c0c0" points="258.7176,-375.2001 248.7176,-378.7 258.7175,-382.2001 258.7176,-375.2001"/>
<text text-anchor="middle" x="286.1909" y="-369.7" font-family="Arial" font-size="10.00" fill="#000000">Strekkerweg</text>
</g>
<!-- 3911 -->
<g id="node11" class="node">
<title>3911</title>
<ellipse fill="#d3d3d3" stroke="#c0c0c0" cx="245.1716" cy="-450.7" rx=".5" ry=".5"/>
</g>
<!-- 3910&#45;&gt;3911 -->
<g id="edge23" class="edge">
<title>3910&#45;&gt;3911</title>
<path fill="none" stroke="#c0c0c0" d="M245.1716,-382.571C245.1716,-393.3054 245.1716,-423.73 245.1716,-440.0483"/>
<polygon fill="#c0c0c0" stroke="#c0c0c0" points="241.6717,-440.0991 245.1716,-450.0992 248.6717,-440.0992 241.6717,-440.0991"/>
<text text-anchor="middle" x="204.6026" y="-414.3097" font-family="Arial" font-size="10.00" fill="#000000">Scheepsbouwweg</text>
</g>
<!-- 3911&#45;&gt;3905 -->
<g id="edge24" class="edge">
<title>3911&#45;&gt;3905</title>
<path fill="none" stroke="#c0c0c0" d="M244.2817,-450.7C241.3042,-450.7 231.3964,-450.7 222.8619,-450.7"/>
<polygon fill="#c0c0c0" stroke="#c0c0c0" points="222.8551,-447.2001 212.8551,-450.7 222.8551,-454.2001 222.8551,-447.2001"/>
<text text-anchor="middle" x="265.7958" y="-453.7" font-family="Arial" font-size="10.00" fill="#000000">Werktuigstraat</text>
</g>
<!-- 3913 -->
<g id="node13" class="node">
<title>3913</title>
<ellipse fill="#d3d3d3" stroke="#c0c0c0" cx="101.1717" cy="-522.7" rx="3.5" ry="3.5"/>
</g>
<!-- 3912&#45;&gt;3913 -->
<g id="edge26" class="edge">
<title>3912&#45;&gt;3913</title>
<path fill="none" stroke="#c0c0c0" d="M170.4371,-453.4345C160.8142,-463.0575 128.1906,-495.681 111.3769,-512.4947"/>
<polygon fill="#c0c0c0" stroke="#c0c0c0" points="108.5052,-510.4167 103.909,-519.9627 113.4549,-515.3665 108.5052,-510.4167"/>
<text text-anchor="middle" x="110.6225" y="-485.9646" font-family="Arial" font-size="10.00" fill="#000000">Meteorenweg</text>
</g>
<!-- 3914 -->
<g id="node14" class="node">
<title>3914</title>
<ellipse fill="#d3d3d3" stroke="#c0c0c0" cx="101.1717" cy="-594.7" rx="3.5" ry="3.5"/>
</g>
<!-- 3913&#45;&gt;3914 -->
<g id="edge27" class="edge">
<title>3913&#45;&gt;3914</title>
<path fill="none" stroke="#c0c0c0" d="M101.1717,-526.571C101.1717,-536.6263 101.1717,-563.9592 101.1717,-580.7903"/>
<polygon fill="#c0c0c0" stroke="#c0c0c0" points="97.6718,-581.154 101.1717,-591.1541 104.6718,-581.1541 97.6718,-581.154"/>
<text text-anchor="middle" x="68.1077" y="-556.6807" font-family="Arial" font-size="10.00" fill="#000000">Kometensingel</text>
</g>
<!-- 3915 -->
<g id="node15" class="node">
<title>3915</title>
<ellipse fill="#d3d3d3" stroke="#c0c0c0" cx="29.1717" cy="-666.7" rx="3.5" ry="3.5"/>
</g>
<!-- 3914&#45;&gt;3915 -->
<g id="edge28" class="edge">
<title>3914&#45;&gt;3915</title>
<path fill="none" stroke="#c0c0c0" d="M98.4371,-597.4345C88.8142,-607.0575 56.1906,-639.681 39.3769,-656.4947"/>
<polygon fill="#c0c0c0" stroke="#c0c0c0" points="36.5052,-654.4167 31.909,-663.9627 41.4549,-659.3665 36.5052,-654.4167"/>
<text text-anchor="middle" x="34.4535" y="-641.9646" font-family="Arial" font-size="10.00" fill="#000000">Kometensingel </text>
<text text-anchor="middle" x="34.4535" y="-629.9646" font-family="Arial" font-size="10.00" fill="#000000"> Oostzanerdijk</text>
</g>
<!-- 3916 -->
<g id="node16" class="node">
<title>3916</title>
<ellipse fill="#d3d3d3" stroke="#c0c0c0" cx="173.1717" cy="-666.7" rx="3.5" ry="3.5"/>
</g>
<!-- 3915&#45;&gt;3916 -->
<g id="edge29" class="edge">
<title>3915&#45;&gt;3916</title>
<path fill="none" stroke="#c0c0c0" d="M32.7312,-666.7C50.2427,-666.7 127.6795,-666.7 159.4745,-666.7"/>
<polygon fill="#c0c0c0" stroke="#c0c0c0" points="159.4765,-670.2001 169.4765,-666.7 159.4765,-663.2001 159.4765,-670.2001"/>
<text text-anchor="middle" x="128.6073" y="-669.7" font-family="Arial" font-size="10.00" fill="#000000">Molenaarsweg</text>
</g>
<!-- 3917 -->
<g id="node17" class="node">
<title>3917</title>
<ellipse fill="#d3d3d3" stroke="#c0c0c0" cx="173.1717" cy="-594.7" rx=".5" ry=".5"/>
</g>
<!-- 3916&#45;&gt;3917 -->
<g id="edge30" class="edge">
<title>3916&#45;&gt;3917</title>
<path fill="none" stroke="#c0c0c0" d="M173.1717,-662.829C173.1717,-652.0945 173.1717,-621.6699 173.1717,-605.3517"/>
<polygon fill="#c0c0c0" stroke="#c0c0c0" points="176.6718,-605.3008 173.1717,-595.3008 169.6718,-605.3008 176.6718,-605.3008"/>
<text text-anchor="middle" x="147.6122" y="-637.0903" font-family="Arial" font-size="10.00" fill="#000000">Stellingweg</text>
</g>
<!-- 3918 -->
<g id="node18" class="node">
<title>3918</title>
<ellipse fill="#d3d3d3" stroke="#c0c0c0" cx="245.1716" cy="-594.7" rx="3.5" ry="3.5"/>
</g>
<!-- 3917&#45;&gt;3918 -->
<g id="edge31" class="edge">
<title>3917&#45;&gt;3918</title>
<path fill="none" stroke="#c0c0c0" d="M173.9803,-594.7C179.5059,-594.7 212.0508,-594.7 231.1702,-594.7"/>
<polygon fill="#c0c0c0" stroke="#c0c0c0" points="231.3768,-598.2001 241.3767,-594.7 231.3767,-591.2001 231.3768,-598.2001"/>
</g>
<!-- 3919 -->
<g id="node19" class="node">
<title>3919</title>
<ellipse fill="#d3d3d3" stroke="#c0c0c0" cx="245.1716" cy="-666.7" rx="26.7699" ry="26.7699"/>
<text text-anchor="middle" x="245.1716" y="-663.7" font-family="Arial" font-size="10.00" fill="#000000">MOL</text>
</g>
<!-- 3918&#45;&gt;3919 -->
<g id="edge32" class="edge">
<title>3918&#45;&gt;3919</title>
<path fill="none" stroke="#c0c0c0" d="M245.1716,-598.571C245.1716,-604.7018 245.1716,-617.2553 245.1716,-629.9353"/>
<polygon fill="#c0c0c0" stroke="#c0c0c0" points="241.6717,-630.0113 245.1716,-640.0113 248.6717,-630.0114 241.6717,-630.0113"/>
<text text-anchor="middle" x="219.6121" y="-617.2532" font-family="Arial" font-size="10.00" fill="#000000">Stellingweg</text>
</g>
<!-- 3921 -->
<g id="node21" class="node">
<title>3921</title>
<ellipse fill="#d3d3d3" stroke="#c0c0c0" cx="821.1717" cy="-738.7" rx="3.5" ry="3.5"/>
</g>
<!-- 3920&#45;&gt;3921 -->
<g id="edge10" class="edge">
<title>3920&#45;&gt;3921</title>
<path fill="none" stroke="#c0c0c0" d="M961.6121,-738.7C944.1006,-738.7 866.6638,-738.7 834.8689,-738.7"/>
<polygon fill="#c0c0c0" stroke="#c0c0c0" points="834.8668,-735.2001 824.8668,-738.7 834.8668,-742.2001 834.8668,-735.2001"/>
<text text-anchor="middle" x="918.5222" y="-729.7" font-family="Arial" font-size="10.00" fill="#000000">J.H. van Heekweg</text>
</g>
<!-- 3922 -->
<g id="node22" class="node">
<title>3922</title>
<ellipse fill="#d3d3d3" stroke="#c0c0c0" cx="821.1717" cy="-666.7" rx="3.5" ry="3.5"/>
</g>
<!-- 3921&#45;&gt;3922 -->
<g id="edge11" class="edge">
<title>3921&#45;&gt;3922</title>
<path fill="none" stroke="#c0c0c0" d="M821.1717,-734.829C821.1717,-724.7737 821.1717,-697.4408 821.1717,-680.6096"/>
<polygon fill="#c0c0c0" stroke="#c0c0c0" points="824.6718,-680.2459 821.1717,-670.2459 817.6718,-680.246 824.6718,-680.2459"/>
<text text-anchor="middle" x="784.2237" y="-710.7193" font-family="Arial" font-size="10.00" fill="#000000">H. Cleyndertweg</text>
</g>
<!-- 3923 -->
<g id="node23" class="node">
<title>3923</title>
<ellipse fill="#d3d3d3" stroke="#c0c0c0" cx="677.1716" cy="-666.7" rx="3.5" ry="3.5"/>
</g>
<!-- 3922&#45;&gt;3923 -->
<g id="edge12" class="edge">
<title>3922&#45;&gt;3923</title>
<path fill="none" stroke="#c0c0c0" d="M817.6121,-666.7C800.1006,-666.7 722.6638,-666.7 690.8688,-666.7"/>
<polygon fill="#c0c0c0" stroke="#c0c0c0" points="690.8668,-663.2001 680.8668,-666.7 690.8668,-670.2001 690.8668,-663.2001"/>
<text text-anchor="middle" x="754.2405" y="-657.7" font-family="Arial" font-size="10.00" fill="#000000">IJdoornlaan (via St. Noord)</text>
</g>
<!-- 3924 -->
<g id="node24" class="node">
<title>3924</title>
<ellipse fill="#d3d3d3" stroke="#c0c0c0" cx="677.1716" cy="-594.7" rx=".5" ry=".5"/>
</g>
<!-- 3923&#45;&gt;3924 -->
<g id="edge14" class="edge">
<title>3923&#45;&gt;3924</title>
<path fill="none" stroke="#c0c0c0" d="M677.1716,-662.829C677.1716,-652.0945 677.1716,-621.6699 677.1716,-605.3517"/>
<polygon fill="#c0c0c0" stroke="#c0c0c0" points="680.6717,-605.3008 677.1716,-595.3008 673.6717,-605.3008 680.6717,-605.3008"/>
<text text-anchor="middle" x="639.6591" y="-637.0903" font-family="Arial" font-size="10.00" fill="#000000">Statenjachtstraat</text>
</g>
<!-- 3925 -->
<g id="node25" class="node">
<title>3925</title>
<ellipse fill="#d3d3d3" stroke="#c0c0c0" cx="605.1716" cy="-594.7" rx="3.5" ry="3.5"/>
</g>
<!-- 3924&#45;&gt;3925 -->
<g id="edge15" class="edge">
<title>3924&#45;&gt;3925</title>
<path fill="none" stroke="#c0c0c0" d="M676.363,-594.7C670.8374,-594.7 638.2925,-594.7 619.1731,-594.7"/>
<polygon fill="#c0c0c0" stroke="#c0c0c0" points="618.9666,-591.2001 608.9665,-594.7 618.9665,-598.2001 618.9666,-591.2001"/>
</g>
<!-- 3926 -->
<g id="node26" class="node">
<title>3926</title>
<ellipse fill="#d3d3d3" stroke="#c0c0c0" cx="605.1716" cy="-522.7" rx=".5" ry=".5"/>
</g>
<!-- 3925&#45;&gt;3926 -->
<g id="edge16" class="edge">
<title>3925&#45;&gt;3926</title>
<path fill="none" stroke="#c0c0c0" d="M605.1716,-590.829C605.1716,-580.0945 605.1716,-549.6699 605.1716,-533.3517"/>
<polygon fill="#c0c0c0" stroke="#c0c0c0" points="608.6717,-533.3008 605.1716,-523.3008 601.6717,-533.3008 608.6717,-533.3008"/>
<text text-anchor="middle" x="575.9916" y="-565.0903" font-family="Arial" font-size="10.00" fill="#000000">Schepenlaan</text>
</g>
<!-- 3927 -->
<g id="node27" class="node">
<title>3927</title>
<ellipse fill="#d3d3d3" stroke="#c0c0c0" cx="533.1716" cy="-522.7" rx="3.5" ry="3.5"/>
</g>
<!-- 3926&#45;&gt;3927 -->
<g id="edge17" class="edge">
<title>3926&#45;&gt;3927</title>
<path fill="none" stroke="#c0c0c0" d="M604.363,-522.7C598.8374,-522.7 566.2925,-522.7 547.1731,-522.7"/>
<polygon fill="#c0c0c0" stroke="#c0c0c0" points="546.9666,-519.2001 536.9665,-522.7 546.9665,-526.2001 546.9666,-519.2001"/>
</g>
<!-- 3928 -->
<g id="node28" class="node">
<title>3928</title>
<ellipse fill="#d3d3d3" stroke="#c0c0c0" cx="533.1716" cy="-450.7" rx="3.5" ry="3.5"/>
</g>
<!-- 3927&#45;&gt;3928 -->
<g id="edge18" class="edge">
<title>3927&#45;&gt;3928</title>
<path fill="none" stroke="#c0c0c0" d="M533.1716,-518.829C533.1716,-508.7737 533.1716,-481.4408 533.1716,-464.6096"/>
<polygon fill="#c0c0c0" stroke="#c0c0c0" points="536.6717,-464.2459 533.1716,-454.2459 529.6717,-464.246 536.6717,-464.2459"/>
<text text-anchor="middle" x="494.5541" y="-494.7193" font-family="Arial" font-size="10.00" fill="#000000">Kamperfoelieweg</text>
</g>
<!-- 3810 -->
<g id="node38" class="node">
<title>3810</title>
<ellipse fill="#d3d3d3" stroke="#c0c0c0" cx="461.1716" cy="-378.7" rx="3.5" ry="3.5"/>
</g>
<!-- 3928&#45;&gt;3810 -->
<g id="edge19" class="edge">
<title>3928&#45;&gt;3810</title>
<path fill="none" stroke="#c0c0c0" d="M530.4371,-447.9654C520.8141,-438.3425 488.1906,-405.719 471.3769,-388.9052"/>
<polygon fill="#c0c0c0" stroke="#c0c0c0" points="473.4549,-386.0335 463.9089,-381.4373 468.5052,-390.9833 473.4549,-386.0335"/>
<text text-anchor="middle" x="480.351" y="-421.4353" font-family="Arial" font-size="10.00" fill="#000000">Floraweg</text>
</g>
<!-- 3801 -->
<g id="node29" class="node">
<title>3801</title>
<ellipse fill="#d3d3d3" stroke="#c0c0c0" cx="749.1716" cy="-234.7" rx="3.5" ry="3.5"/>
</g>
<!-- 3803 -->
<g id="node31" class="node">
<title>3803</title>
<ellipse fill="#d3d3d3" stroke="#c0c0c0" cx="605.1716" cy="-234.7" rx="3.5" ry="3.5"/>
</g>
<!-- 3801&#45;&gt;3803 -->
<g id="edge2" class="edge">
<title>3801&#45;&gt;3803</title>
<path fill="none" stroke="#c0c0c0" d="M735.296,-234.7C707.8233,-234.7 646.7818,-234.7 619.1919,-234.7"/>
<polygon fill="#c0c0c0" stroke="#c0c0c0" points="735.6121,-238.2001 745.6121,-234.7 735.612,-231.2001 735.6121,-238.2001"/>
<polygon fill="#c0c0c0" stroke="#c0c0c0" points="618.8668,-231.2001 608.8668,-234.7 618.8668,-238.2001 618.8668,-231.2001"/>
<text text-anchor="middle" x="677.2439" y="-225.7" font-family="Arial" font-size="10.00" fill="#000000">Johan van Hasseltweg </text>
<text text-anchor="middle" x="677.2439" y="-213.7" font-family="Arial" font-size="10.00" fill="#000000"> (via St. Noorderpark)</text>
</g>
<!-- 3802 -->
<g id="node30" class="node">
<title>3802</title>
<ellipse fill="#d3d3d3" stroke="#c0c0c0" cx="605.1716" cy="-198.7" rx="3.5" ry="3.5"/>
</g>
<!-- 3802&#45;&gt;3803 -->
<g id="edge1" class="edge">
<title>3802&#45;&gt;3803</title>
<path fill="none" stroke="#c0c0c0" d="M605.1716,-202.2834C605.1716,-206.5517 605.1716,-213.9413 605.1716,-220.5881"/>
<polygon fill="#c0c0c0" stroke="#c0c0c0" points="601.6717,-220.9154 605.1716,-230.9154 608.6717,-220.9154 601.6717,-220.9154"/>
<text text-anchor="middle" x="585.1701" y="-214.4357" font-family="Arial" font-size="10.00" fill="#000000">Mosplein</text>
</g>
<!-- 3803&#45;&gt;3907 -->
<g id="edge3" class="edge">
<title>3803&#45;&gt;3907</title>
<path fill="none" stroke="#c0c0c0" d="M601.8934,-236.3391C584.7432,-244.9142 504.9475,-284.812 473.7344,-300.4186"/>
<polygon fill="#c0c0c0" stroke="#c0c0c0" points="471.7613,-297.492 464.3823,-305.0947 474.8918,-303.753 471.7613,-297.492"/>
<text text-anchor="middle" x="506.1394" y="-271.3789" font-family="Arial" font-size="10.00" fill="#000000">Klaprozenweg</text>
</g>
<!-- 3809 -->
<g id="node37" class="node">
<title>3809</title>
<ellipse fill="#d3d3d3" stroke="#c0c0c0" cx="461.1716" cy="-162.7" rx="3.5" ry="3.5"/>
</g>
<!-- 3804&#45;&gt;3809 -->
<g id="edge5" class="edge">
<title>3804&#45;&gt;3809</title>
<path fill="none" stroke="#c0c0c0" d="M461.1716,-211.5224C461.1716,-199.9605 461.1716,-186.3688 461.1716,-176.466"/>
<polygon fill="#c0c0c0" stroke="#c0c0c0" points="464.6717,-176.326 461.1716,-166.326 457.6717,-176.326 464.6717,-176.326"/>
<text text-anchor="middle" x="424.7781" y="-196.9942" font-family="Arial" font-size="10.00" fill="#000000">Ridderspoorweg</text>
</g>
<!-- 3805&#45;&gt;3801 -->
<g id="edge13" class="edge">
<title>3805&#45;&gt;3801</title>
<path fill="none" stroke="#c0c0c0" d="M749.1716,-364.8243C749.1716,-337.3517 749.1716,-276.3101 749.1716,-248.7202"/>
<polygon fill="#c0c0c0" stroke="#c0c0c0" points="745.6717,-365.1404 749.1716,-375.1404 752.6717,-365.1404 745.6717,-365.1404"/>
<polygon fill="#c0c0c0" stroke="#c0c0c0" points="752.6717,-248.3951 749.1716,-238.3951 745.6717,-248.3952 752.6717,-248.3951"/>
<text text-anchor="middle" x="716.6626" y="-321.7723" font-family="Arial" font-size="10.00" fill="#000000">Waddenweg </text>
<text text-anchor="middle" x="716.6626" y="-309.7723" font-family="Arial" font-size="10.00" fill="#000000"> Meeuwenlaan</text>
</g>
<!-- 3806 -->
<g id="node34" class="node">
<title>3806</title>
<ellipse fill="#d3d3d3" stroke="#c0c0c0" cx="677.1716" cy="-126.7" rx="3.5" ry="3.5"/>
</g>
<!-- 3806&#45;&gt;3802 -->
<g id="edge35" class="edge">
<title>3806&#45;&gt;3802</title>
<path fill="none" stroke="#c0c0c0" d="M674.4371,-129.4346C664.8141,-139.0575 632.1906,-171.681 615.3769,-188.4947"/>
<polygon fill="#c0c0c0" stroke="#c0c0c0" points="612.5051,-186.4167 607.9089,-195.9627 617.4549,-191.3665 612.5051,-186.4167"/>
<text text-anchor="middle" x="611.008" y="-161.9646" font-family="Arial" font-size="10.00" fill="#000000">Hagedoornweg</text>
</g>
<!-- 3807 -->
<g id="node35" class="node">
<title>3807</title>
<ellipse fill="#d3d3d3" stroke="#c0c0c0" cx="605.1716" cy="-54.7" rx="3.5" ry="3.5"/>
</g>
<!-- 3807&#45;&gt;3806 -->
<g id="edge36" class="edge">
<title>3807&#45;&gt;3806</title>
<path fill="none" stroke="#c0c0c0" d="M607.9062,-57.4346C617.5291,-67.0575 650.1527,-99.681 666.9664,-116.4947"/>
<polygon fill="#c0c0c0" stroke="#c0c0c0" points="664.8884,-119.3665 674.4343,-123.9627 669.8381,-114.4167 664.8884,-119.3665"/>
<text text-anchor="middle" x="607.4318" y="-89.9647" font-family="Arial" font-size="10.00" fill="#000000">Meidoornweg</text>
</g>
<!-- 3808 -->
<g id="node36" class="node">
<title>3808</title>
<ellipse fill="#d3d3d3" stroke="#c0c0c0" cx="605.1716" cy="-18.7" rx="3.5" ry="3.5"/>
</g>
<!-- 3808&#45;&gt;3807 -->
<g id="edge37" class="edge">
<title>3808&#45;&gt;3807</title>
<path fill="none" stroke="#c0c0c0" d="M605.1716,-22.2834C605.1716,-26.5518 605.1716,-33.9413 605.1716,-40.5881"/>
<polygon fill="#c0c0c0" stroke="#c0c0c0" points="601.6717,-40.9154 605.1716,-50.9154 608.6717,-40.9154 601.6717,-40.9154"/>
<text text-anchor="middle" x="573.2166" y="-34.4358" font-family="Arial" font-size="10.00" fill="#000000">Ranonkelkade</text>
</g>
<!-- 3809&#45;&gt;3808 -->
<g id="edge6" class="edge">
<title>3809&#45;&gt;3808</title>
<path fill="none" stroke="#c0c0c0" d="M463.671,-160.2006C479.5109,-144.3608 566.2053,-57.6663 595.4976,-28.374"/>
<polygon fill="#c0c0c0" stroke="#c0c0c0" points="598.0072,-30.8142 602.6034,-21.2682 593.0575,-25.8644 598.0072,-30.8142"/>
<text text-anchor="middle" x="490.6818" y="-121.2873" font-family="Arial" font-size="10.00" fill="#000000">Asterweg </text>
<text text-anchor="middle" x="490.6818" y="-109.2873" font-family="Arial" font-size="10.00" fill="#000000"> Docklandsweg </text>
<text text-anchor="middle" x="490.6818" y="-97.2873" font-family="Arial" font-size="10.00" fill="#000000"> Van der Pekbrug</text>
</g>
<!-- 3810&#45;&gt;3907 -->
<g id="edge38" class="edge">
<title>3810&#45;&gt;3907</title>
<path fill="none" stroke="#c0c0c0" d="M461.1716,-374.829C461.1716,-364.7737 461.1716,-337.4408 461.1716,-320.6096"/>
<polygon fill="#c0c0c0" stroke="#c0c0c0" points="464.6717,-320.2459 461.1716,-310.2459 457.6717,-320.2459 464.6717,-320.2459"/>
<text text-anchor="middle" x="440.6156" y="-350.7193" font-family="Arial" font-size="10.00" fill="#000000">Floraweg</text>
</g>
</g>
</svg>

