<?xml version="1.0" encoding="UTF-8" standalone="no"?>
<!DOCTYPE svg PUBLIC "-//W3C//DTD SVG 1.1//EN"
 "http://www.w3.org/Graphics/SVG/1.1/DTD/svg11.dtd">
<!-- Generated by graphviz version 2.40.1 (20161225.0304)
 -->
<!-- Title: G Pages: 1 -->
<svg width="1049pt" height="735pt"
 viewBox="0.00 0.00 1048.67 735.00" xmlns="http://www.w3.org/2000/svg" xmlns:xlink="http://www.w3.org/1999/xlink">
<g id="graph0" class="graph" transform="scale(1 1) rotate(0) translate(4 731)">
<title>G</title>
<polygon fill="#ffffff" stroke="transparent" points="-4,4 -4,-731 1044.6717,-731 1044.6717,4 -4,4"/>
<!-- 3901 -->
<g id="node1" class="node">
<title>3901</title>
<ellipse fill="#d3d3d3" stroke="#c0c0c0" cx="893.1717" cy="-363.5" rx="26.4937" ry="26.4937"/>
<text text-anchor="middle" x="893.1717" y="-360.5" font-family="Arial" font-size="10.00" fill="#000000">OLO</text>
</g>
<!-- 3902 -->
<g id="node2" class="node">
<title>3902</title>
<ellipse fill="#d3d3d3" stroke="#c0c0c0" cx="1037.1717" cy="-363.5" rx="3.5" ry="3.5"/>
</g>
<!-- 3901&#45;&gt;3902 -->
<g id="edge30" class="edge">
<title>3901&#45;&gt;3902</title>
<path fill="none" stroke="#c0c0c0" d="M919.5835,-363.5C950.1418,-363.5 999.312,-363.5 1023.22,-363.5"/>
<polygon fill="#c0c0c0" stroke="#c0c0c0" points="1023.4079,-367.0001 1033.4078,-363.5 1023.4078,-360.0001 1023.4079,-367.0001"/>
<text text-anchor="middle" x="971.4017" y="-354.5" font-family="Arial" font-size="10.00" fill="#000000">Buikslotermeerplein</text>
<text text-anchor="middle" x="971.4017" y="-342.5" font-family="Arial" font-size="10.00" fill="#000000">(lijn 39)</text>
</g>
<!-- 3805 -->
<g id="node31" class="node">
<title>3805</title>
<ellipse fill="#d3d3d3" stroke="#c0c0c0" cx="749.1717" cy="-363.5" rx="3.5" ry="3.5"/>
</g>
<!-- 3901&#45;&gt;3805 -->
<g id="edge29" class="edge">
<title>3901&#45;&gt;3805</title>
<path fill="none" stroke="#c0c0c0" d="M866.7598,-363.5C836.2015,-363.5 787.0313,-363.5 763.1233,-363.5"/>
<polygon fill="#c0c0c0" stroke="#c0c0c0" points="762.9355,-360.0001 752.9355,-363.5 762.9355,-367.0001 762.9355,-360.0001"/>
<text text-anchor="middle" x="814.9416" y="-354.5" font-family="Arial" font-size="10.00" fill="#000000">Buikslotermeerplein </text>
<text text-anchor="middle" x="814.9416" y="-342.5" font-family="Arial" font-size="10.00" fill="#000000"> (lijn 38)</text>
</g>
<!-- 3903 -->
<g id="node3" class="node">
<title>3903</title>
<ellipse fill="#d3d3d3" stroke="#c0c0c0" cx="1037.1717" cy="-651.5" rx="3.5" ry="3.5"/>
</g>
<!-- 3902&#45;&gt;3903 -->
<g id="edge4" class="edge">
<title>3902&#45;&gt;3903</title>
<path fill="none" stroke="#c0c0c0" d="M1037.1717,-367.1414C1037.1717,-395.775 1037.1717,-584.9835 1037.1717,-637.8186"/>
<polygon fill="#c0c0c0" stroke="#c0c0c0" points="1033.6718,-637.9399 1037.1717,-647.9399 1040.6718,-637.94 1033.6718,-637.9399"/>
<text text-anchor="middle" x="999.6677" y="-505.48" font-family="Arial" font-size="10.00" fill="#000000">Th. Weeversweg</text>
</g>
<!-- 3904 -->
<g id="node4" class="node">
<title>3904</title>
<ellipse fill="#d3d3d3" stroke="#c0c0c0" cx="965.1717" cy="-651.5" rx="3.5" ry="3.5"/>
</g>
<!-- 3903&#45;&gt;3904 -->
<g id="edge5" class="edge">
<title>3903&#45;&gt;3904</title>
<path fill="none" stroke="#c0c0c0" d="M1033.3006,-651.5C1023.2453,-651.5 995.9124,-651.5 979.0813,-651.5"/>
<polygon fill="#c0c0c0" stroke="#c0c0c0" points="978.7176,-648.0001 968.7176,-651.5 978.7176,-655.0001 978.7176,-648.0001"/>
<text text-anchor="middle" x="1006.191" y="-642.5" font-family="Arial" font-size="10.00" fill="#000000">IJdoornlaan</text>
</g>
<!-- 3920 -->
<g id="node19" class="node">
<title>3920</title>
<ellipse fill="#d3d3d3" stroke="#c0c0c0" cx="965.1717" cy="-723.5" rx="3.5" ry="3.5"/>
</g>
<!-- 3904&#45;&gt;3920 -->
<g id="edge6" class="edge">
<title>3904&#45;&gt;3920</title>
<path fill="none" stroke="#c0c0c0" d="M965.1717,-655.371C965.1717,-665.4263 965.1717,-692.7592 965.1717,-709.5904"/>
<polygon fill="#c0c0c0" stroke="#c0c0c0" points="961.6718,-709.954 965.1717,-719.9541 968.6718,-709.9541 961.6718,-709.954"/>
<text text-anchor="middle" x="936.2872" y="-685.4807" font-family="Arial" font-size="10.00" fill="#000000">J. Drijverweg</text>
</g>
<!-- 3906 -->
<g id="node5" class="node">
<title>3906</title>
<ellipse fill="#d3d3d3" stroke="#c0c0c0" cx="533.1717" cy="-291.5" rx=".5" ry=".5"/>
</g>
<!-- 3907 -->
<g id="node6" class="node">
<title>3907</title>
<ellipse fill="#d3d3d3" stroke="#c0c0c0" cx="461.1717" cy="-291.5" rx="3.5" ry="3.5"/>
</g>
<!-- 3908 -->
<g id="node7" class="node">
<title>3908</title>
<ellipse fill="#d3d3d3" stroke="#c0c0c0" cx="317.1717" cy="-291.5" rx="3.5" ry="3.5"/>
</g>
<!-- 3907&#45;&gt;3908 -->
<g id="edge17" class="edge">
<title>3907&#45;&gt;3908</title>
<path fill="none" stroke="#c0c0c0" d="M457.6121,-291.5C440.1006,-291.5 362.6638,-291.5 330.8689,-291.5"/>
<polygon fill="#c0c0c0" stroke="#c0c0c0" points="330.8669,-288.0001 320.8668,-291.5 330.8668,-295.0001 330.8669,-288.0001"/>
<text text-anchor="middle" x="361.1765" y="-306.5" font-family="Arial" font-size="10.00" fill="#000000">Klaprozenweg </text>
<text text-anchor="middle" x="361.1765" y="-294.5" font-family="Arial" font-size="10.00" fill="#000000"> (lijn 39)</text>
</g>
<!-- 3810 -->
<g id="node36" class="node">
<title>3810</title>
<ellipse fill="#d3d3d3" stroke="#c0c0c0" cx="461.1717" cy="-363.5" rx="3.5" ry="3.5"/>
</g>
<!-- 3907&#45;&gt;3810 -->
<g id="edge35" class="edge">
<title>3907&#45;&gt;3810</title>
<path fill="none" stroke="#c0c0c0" d="M461.1717,-305.4694C461.1717,-318.2353 461.1717,-337.0059 461.1717,-349.7139"/>
<polygon fill="#c0c0c0" stroke="#c0c0c0" points="464.6718,-305.371 461.1717,-295.371 457.6718,-305.3711 464.6718,-305.371"/>
<polygon fill="#c0c0c0" stroke="#c0c0c0" points="457.6718,-349.954 461.1717,-359.9541 464.6718,-349.9541 457.6718,-349.954"/>
<text text-anchor="middle" x="440.6157" y="-330.5917" font-family="Arial" font-size="10.00" fill="#000000">Floraweg</text>
</g>
<!-- 3909 -->
<g id="node8" class="node">
<title>3909</title>
<ellipse fill="#d3d3d3" stroke="#c0c0c0" cx="317.1717" cy="-363.5" rx="3.5" ry="3.5"/>
</g>
<!-- 3908&#45;&gt;3909 -->
<g id="edge18" class="edge">
<title>3908&#45;&gt;3909</title>
<path fill="none" stroke="#c0c0c0" d="M317.1717,-295.371C317.1717,-305.4263 317.1717,-332.7592 317.1717,-349.5904"/>
<polygon fill="#c0c0c0" stroke="#c0c0c0" points="313.6718,-349.954 317.1717,-359.9541 320.6718,-349.9541 313.6718,-349.954"/>
<text text-anchor="middle" x="297.4497" y="-325.4807" font-family="Arial" font-size="10.00" fill="#000000">Atatürk</text>
</g>
<!-- 3910 -->
<g id="node9" class="node">
<title>3910</title>
<ellipse fill="#d3d3d3" stroke="#c0c0c0" cx="245.1717" cy="-363.5" rx="3.5" ry="3.5"/>
</g>
<!-- 3909&#45;&gt;3910 -->
<g id="edge19" class="edge">
<title>3909&#45;&gt;3910</title>
<path fill="none" stroke="#c0c0c0" d="M313.3006,-363.5C303.2454,-363.5 275.9125,-363.5 259.0813,-363.5"/>
<polygon fill="#c0c0c0" stroke="#c0c0c0" points="258.7176,-360.0001 248.7176,-363.5 258.7176,-367.0001 258.7176,-360.0001"/>
<text text-anchor="middle" x="286.191" y="-354.5" font-family="Arial" font-size="10.00" fill="#000000">Strekkerweg</text>
</g>
<!-- 3911 -->
<g id="node10" class="node">
<title>3911</title>
<ellipse fill="#d3d3d3" stroke="#c0c0c0" cx="245.1717" cy="-435.5" rx=".5" ry=".5"/>
</g>
<!-- 3910&#45;&gt;3911 -->
<g id="edge20" class="edge">
<title>3910&#45;&gt;3911</title>
<path fill="none" stroke="#c0c0c0" d="M245.1717,-367.371C245.1717,-378.1054 245.1717,-408.5301 245.1717,-424.8483"/>
<polygon fill="#c0c0c0" stroke="#c0c0c0" points="241.6718,-424.8992 245.1717,-434.8992 248.6718,-424.8992 241.6718,-424.8992"/>
<text text-anchor="middle" x="204.6027" y="-399.1097" font-family="Arial" font-size="10.00" fill="#000000">Scheepsbouwweg</text>
</g>
<!-- 3912 -->
<g id="node11" class="node">
<title>3912</title>
<ellipse fill="#d3d3d3" stroke="#c0c0c0" cx="173.1717" cy="-435.5" rx="3.5" ry="3.5"/>
</g>
<!-- 3911&#45;&gt;3912 -->
<g id="edge21" class="edge">
<title>3911&#45;&gt;3912</title>
<path fill="none" stroke="#c0c0c0" d="M244.3631,-435.5C238.8375,-435.5 206.2925,-435.5 187.1731,-435.5"/>
<polygon fill="#c0c0c0" stroke="#c0c0c0" points="186.9666,-432.0001 176.9665,-435.5 186.9665,-439.0001 186.9666,-432.0001"/>
<text text-anchor="middle" x="247.9921" y="-426.5" font-family="Arial" font-size="10.00" fill="#000000">Werktuigstraat</text>
</g>
<!-- 3913 -->
<g id="node12" class="node">
<title>3913</title>
<ellipse fill="#d3d3d3" stroke="#c0c0c0" cx="101.1717" cy="-507.5" rx="3.5" ry="3.5"/>
</g>
<!-- 3912&#45;&gt;3913 -->
<g id="edge22" class="edge">
<title>3912&#45;&gt;3913</title>
<path fill="none" stroke="#c0c0c0" d="M170.4371,-438.2346C160.8142,-447.8575 128.1906,-480.481 111.3769,-497.2948"/>
<polygon fill="#c0c0c0" stroke="#c0c0c0" points="108.5052,-495.2167 103.909,-504.7627 113.4549,-500.1665 108.5052,-495.2167"/>
<text text-anchor="middle" x="110.6225" y="-470.7647" font-family="Arial" font-size="10.00" fill="#000000">Meteorenweg</text>
</g>
<!-- 3914 -->
<g id="node13" class="node">
<title>3914</title>
<ellipse fill="#d3d3d3" stroke="#c0c0c0" cx="101.1717" cy="-579.5" rx="3.5" ry="3.5"/>
</g>
<!-- 3913&#45;&gt;3914 -->
<g id="edge23" class="edge">
<title>3913&#45;&gt;3914</title>
<path fill="none" stroke="#c0c0c0" d="M101.1717,-511.371C101.1717,-521.4263 101.1717,-548.7592 101.1717,-565.5904"/>
<polygon fill="#c0c0c0" stroke="#c0c0c0" points="97.6718,-565.9541 101.1717,-575.9541 104.6718,-565.9541 97.6718,-565.9541"/>
<text text-anchor="middle" x="68.1077" y="-541.4807" font-family="Arial" font-size="10.00" fill="#000000">Kometensingel</text>
</g>
<!-- 3915 -->
<g id="node14" class="node">
<title>3915</title>
<ellipse fill="#d3d3d3" stroke="#c0c0c0" cx="29.1717" cy="-651.5" rx="3.5" ry="3.5"/>
</g>
<!-- 3914&#45;&gt;3915 -->
<g id="edge24" class="edge">
<title>3914&#45;&gt;3915</title>
<path fill="none" stroke="#c0c0c0" d="M98.4371,-582.2346C88.8142,-591.8575 56.1906,-624.4811 39.3769,-641.2948"/>
<polygon fill="#c0c0c0" stroke="#c0c0c0" points="36.5052,-639.2167 31.909,-648.7627 41.4549,-644.1665 36.5052,-639.2167"/>
<text text-anchor="middle" x="34.4535" y="-626.7647" font-family="Arial" font-size="10.00" fill="#000000">Kometensingel </text>
<text text-anchor="middle" x="34.4535" y="-614.7647" font-family="Arial" font-size="10.00" fill="#000000"> Oostzanerdijk</text>
</g>
<!-- 3916 -->
<g id="node15" class="node">
<title>3916</title>
<ellipse fill="#d3d3d3" stroke="#c0c0c0" cx="173.1717" cy="-651.5" rx="3.5" ry="3.5"/>
</g>
<!-- 3915&#45;&gt;3916 -->
<g id="edge25" class="edge">
<title>3915&#45;&gt;3916</title>
<path fill="none" stroke="#c0c0c0" d="M32.7312,-651.5C50.2427,-651.5 127.6795,-651.5 159.4745,-651.5"/>
<polygon fill="#c0c0c0" stroke="#c0c0c0" points="159.4765,-655.0001 169.4765,-651.5 159.4765,-648.0001 159.4765,-655.0001"/>
<text text-anchor="middle" x="128.6073" y="-654.5" font-family="Arial" font-size="10.00" fill="#000000">Molenaarsweg</text>
</g>
<!-- 3917 -->
<g id="node16" class="node">
<title>3917</title>
<ellipse fill="#d3d3d3" stroke="#c0c0c0" cx="173.1717" cy="-579.5" rx=".5" ry=".5"/>
</g>
<!-- 3916&#45;&gt;3917 -->
<g id="edge26" class="edge">
<title>3916&#45;&gt;3917</title>
<path fill="none" stroke="#c0c0c0" d="M173.1717,-647.629C173.1717,-636.8946 173.1717,-606.47 173.1717,-590.1517"/>
<polygon fill="#c0c0c0" stroke="#c0c0c0" points="176.6718,-590.1008 173.1717,-580.1008 169.6718,-590.1009 176.6718,-590.1008"/>
<text text-anchor="middle" x="147.6122" y="-621.8903" font-family="Arial" font-size="10.00" fill="#000000">Stellingweg</text>
</g>
<!-- 3918 -->
<g id="node17" class="node">
<title>3918</title>
<ellipse fill="#d3d3d3" stroke="#c0c0c0" cx="245.1717" cy="-579.5" rx="3.5" ry="3.5"/>
</g>
<!-- 3917&#45;&gt;3918 -->
<g id="edge27" class="edge">
<title>3917&#45;&gt;3918</title>
<path fill="none" stroke="#c0c0c0" d="M173.9803,-579.5C179.5059,-579.5 212.0508,-579.5 231.1702,-579.5"/>
<polygon fill="#c0c0c0" stroke="#c0c0c0" points="231.3768,-583.0001 241.3768,-579.5 231.3767,-576.0001 231.3768,-583.0001"/>
</g>
<!-- 3919 -->
<g id="node18" class="node">
<title>3919</title>
<ellipse fill="#d3d3d3" stroke="#c0c0c0" cx="245.1717" cy="-651.5" rx="26.7699" ry="26.7699"/>
<text text-anchor="middle" x="245.1717" y="-648.5" font-family="Arial" font-size="10.00" fill="#000000">MOL</text>
</g>
<!-- 3918&#45;&gt;3919 -->
<g id="edge28" class="edge">
<title>3918&#45;&gt;3919</title>
<path fill="none" stroke="#c0c0c0" d="M245.1717,-583.371C245.1717,-589.5018 245.1717,-602.0553 245.1717,-614.7354"/>
<polygon fill="#c0c0c0" stroke="#c0c0c0" points="241.6718,-614.8113 245.1717,-624.8114 248.6718,-614.8114 241.6718,-614.8113"/>
<text text-anchor="middle" x="219.6122" y="-602.0532" font-family="Arial" font-size="10.00" fill="#000000">Stellingweg</text>
</g>
<!-- 3921 -->
<g id="node20" class="node">
<title>3921</title>
<ellipse fill="#d3d3d3" stroke="#c0c0c0" cx="821.1717" cy="-723.5" rx="3.5" ry="3.5"/>
</g>
<!-- 3920&#45;&gt;3921 -->
<g id="edge7" class="edge">
<title>3920&#45;&gt;3921</title>
<path fill="none" stroke="#c0c0c0" d="M961.6121,-723.5C944.1006,-723.5 866.6638,-723.5 834.8689,-723.5"/>
<polygon fill="#c0c0c0" stroke="#c0c0c0" points="834.8668,-720.0001 824.8668,-723.5 834.8668,-727.0001 834.8668,-720.0001"/>
<text text-anchor="middle" x="918.5222" y="-714.5" font-family="Arial" font-size="10.00" fill="#000000">J.H. van Heekweg</text>
</g>
<!-- 3922 -->
<g id="node21" class="node">
<title>3922</title>
<ellipse fill="#d3d3d3" stroke="#c0c0c0" cx="821.1717" cy="-651.5" rx="3.5" ry="3.5"/>
</g>
<!-- 3921&#45;&gt;3922 -->
<g id="edge8" class="edge">
<title>3921&#45;&gt;3922</title>
<path fill="none" stroke="#c0c0c0" d="M821.1717,-719.629C821.1717,-709.5737 821.1717,-682.2408 821.1717,-665.4097"/>
<polygon fill="#c0c0c0" stroke="#c0c0c0" points="824.6718,-665.0459 821.1717,-655.0459 817.6718,-665.046 824.6718,-665.0459"/>
<text text-anchor="middle" x="784.2237" y="-695.5193" font-family="Arial" font-size="10.00" fill="#000000">H. Cleyndertweg</text>
</g>
<!-- 3923 -->
<g id="node22" class="node">
<title>3923</title>
<ellipse fill="#d3d3d3" stroke="#c0c0c0" cx="677.1717" cy="-651.5" rx="3.5" ry="3.5"/>
</g>
<!-- 3922&#45;&gt;3923 -->
<g id="edge9" class="edge">
<title>3922&#45;&gt;3923</title>
<path fill="none" stroke="#c0c0c0" d="M817.6121,-651.5C800.1006,-651.5 722.6638,-651.5 690.8689,-651.5"/>
<polygon fill="#c0c0c0" stroke="#c0c0c0" points="690.8669,-648.0001 680.8668,-651.5 690.8668,-655.0001 690.8669,-648.0001"/>
<text text-anchor="middle" x="754.2405" y="-642.5" font-family="Arial" font-size="10.00" fill="#000000">IJdoornlaan (via St. Noord)</text>
</g>
<!-- 3924 -->
<g id="node23" class="node">
<title>3924</title>
<ellipse fill="#d3d3d3" stroke="#c0c0c0" cx="677.1717" cy="-579.5" rx=".5" ry=".5"/>
</g>
<!-- 3923&#45;&gt;3924 -->
<g id="edge11" class="edge">
<title>3923&#45;&gt;3924</title>
<path fill="none" stroke="#c0c0c0" d="M677.1717,-647.629C677.1717,-636.8946 677.1717,-606.47 677.1717,-590.1517"/>
<polygon fill="#c0c0c0" stroke="#c0c0c0" points="680.6718,-590.1008 677.1717,-580.1008 673.6718,-590.1009 680.6718,-590.1008"/>
<text text-anchor="middle" x="639.6592" y="-621.8903" font-family="Arial" font-size="10.00" fill="#000000">Statenjachtstraat</text>
</g>
<!-- 3925 -->
<g id="node24" class="node">
<title>3925</title>
<ellipse fill="#d3d3d3" stroke="#c0c0c0" cx="605.1717" cy="-579.5" rx="3.5" ry="3.5"/>
</g>
<!-- 3924&#45;&gt;3925 -->
<g id="edge12" class="edge">
<title>3924&#45;&gt;3925</title>
<path fill="none" stroke="#c0c0c0" d="M676.3631,-579.5C670.8375,-579.5 638.2925,-579.5 619.1731,-579.5"/>
<polygon fill="#c0c0c0" stroke="#c0c0c0" points="618.9666,-576.0001 608.9666,-579.5 618.9665,-583.0001 618.9666,-576.0001"/>
</g>
<!-- 3926 -->
<g id="node25" class="node">
<title>3926</title>
<ellipse fill="#d3d3d3" stroke="#c0c0c0" cx="605.1717" cy="-507.5" rx=".5" ry=".5"/>
</g>
<!-- 3925&#45;&gt;3926 -->
<g id="edge13" class="edge">
<title>3925&#45;&gt;3926</title>
<path fill="none" stroke="#c0c0c0" d="M605.1717,-575.629C605.1717,-564.8946 605.1717,-534.47 605.1717,-518.1517"/>
<polygon fill="#c0c0c0" stroke="#c0c0c0" points="608.6718,-518.1008 605.1717,-508.1008 601.6718,-518.1009 608.6718,-518.1008"/>
<text text-anchor="middle" x="575.9917" y="-549.8903" font-family="Arial" font-size="10.00" fill="#000000">Schepenlaan</text>
</g>
<!-- 3927 -->
<g id="node26" class="node">
<title>3927</title>
<ellipse fill="#d3d3d3" stroke="#c0c0c0" cx="533.1717" cy="-507.5" rx="3.5" ry="3.5"/>
</g>
<!-- 3926&#45;&gt;3927 -->
<g id="edge14" class="edge">
<title>3926&#45;&gt;3927</title>
<path fill="none" stroke="#c0c0c0" d="M604.3631,-507.5C598.8375,-507.5 566.2925,-507.5 547.1731,-507.5"/>
<polygon fill="#c0c0c0" stroke="#c0c0c0" points="546.9666,-504.0001 536.9666,-507.5 546.9665,-511.0001 546.9666,-504.0001"/>
</g>
<!-- 3928 -->
<g id="node27" class="node">
<title>3928</title>
<ellipse fill="#d3d3d3" stroke="#c0c0c0" cx="533.1717" cy="-435.5" rx="3.5" ry="3.5"/>
</g>
<!-- 3927&#45;&gt;3928 -->
<g id="edge15" class="edge">
<title>3927&#45;&gt;3928</title>
<path fill="none" stroke="#c0c0c0" d="M533.1717,-503.629C533.1717,-493.5737 533.1717,-466.2408 533.1717,-449.4097"/>
<polygon fill="#c0c0c0" stroke="#c0c0c0" points="536.6718,-449.0459 533.1717,-439.0459 529.6718,-449.046 536.6718,-449.0459"/>
<text text-anchor="middle" x="494.5542" y="-479.5193" font-family="Arial" font-size="10.00" fill="#000000">Kamperfoelieweg</text>
</g>
<!-- 3928&#45;&gt;3810 -->
<g id="edge16" class="edge">
<title>3928&#45;&gt;3810</title>
<path fill="none" stroke="#c0c0c0" d="M530.4371,-432.7654C520.8142,-423.1425 488.1906,-390.519 471.3769,-373.7053"/>
<polygon fill="#c0c0c0" stroke="#c0c0c0" points="473.4549,-370.8335 463.909,-366.2373 468.5052,-375.7833 473.4549,-370.8335"/>
<text text-anchor="middle" x="480.351" y="-406.2354" font-family="Arial" font-size="10.00" fill="#000000">Floraweg</text>
</g>
<!-- 3801 -->
<g id="node28" class="node">
<title>3801</title>
<ellipse fill="#d3d3d3" stroke="#c0c0c0" cx="749.1717" cy="-147.5" rx=".5" ry=".5"/>
</g>
<!-- 3803 -->
<g id="node30" class="node">
<title>3803</title>
<ellipse fill="#d3d3d3" stroke="#c0c0c0" cx="677.1717" cy="-75.5" rx="3.5" ry="3.5"/>
</g>
<!-- 3801&#45;&gt;3803 -->
<g id="edge3" class="edge">
<title>3801&#45;&gt;3803</title>
<path fill="none" stroke="#c0c0c0" d="M748.7119,-147.0402C744.0597,-142.3881 705.2897,-103.618 686.8476,-85.1759"/>
<polygon fill="#c0c0c0" stroke="#c0c0c0" points="689.2117,-82.5903 679.6658,-77.9941 684.262,-87.5401 689.2117,-82.5903"/>
</g>
<!-- 3802 -->
<g id="node29" class="node">
<title>3802</title>
<ellipse fill="#d3d3d3" stroke="#c0c0c0" cx="677.1717" cy="-147.5" rx="3.5" ry="3.5"/>
</g>
<!-- 3806 -->
<g id="node32" class="node">
<title>3806</title>
<ellipse fill="#d3d3d3" stroke="#c0c0c0" cx="605.1717" cy="-147.5" rx="3.5" ry="3.5"/>
</g>
<!-- 3802&#45;&gt;3806 -->
<g id="edge2" class="edge">
<title>3802&#45;&gt;3806</title>
<path fill="none" stroke="#c0c0c0" d="M673.3006,-147.5C663.2454,-147.5 635.9125,-147.5 619.0813,-147.5"/>
<polygon fill="#c0c0c0" stroke="#c0c0c0" points="618.7176,-144.0001 608.7176,-147.5 618.7176,-151.0001 618.7176,-144.0001"/>
<text text-anchor="middle" x="610.903" y="-138.5" font-family="Arial" font-size="10.00" fill="#000000">Hagedoornplein</text>
</g>
<!-- 3803&#45;&gt;3802 -->
<g id="edge1" class="edge">
<title>3803&#45;&gt;3802</title>
<path fill="none" stroke="#c0c0c0" d="M677.1717,-79.371C677.1717,-89.4263 677.1717,-116.7592 677.1717,-133.5904"/>
<polygon fill="#c0c0c0" stroke="#c0c0c0" points="673.6718,-133.954 677.1717,-143.9541 680.6718,-133.9541 673.6718,-133.954"/>
<text text-anchor="middle" x="714.9597" y="-133.4807" font-family="Arial" font-size="10.00" fill="#000000">Valkenweg </text>
<text text-anchor="middle" x="714.9597" y="-121.4807" font-family="Arial" font-size="10.00" fill="#000000"> Spreeuwenpark </text>
<text text-anchor="middle" x="714.9597" y="-109.4807" font-family="Arial" font-size="10.00" fill="#000000"> Sperwerlaan</text>
</g>
<!-- 3805&#45;&gt;3801 -->
<g id="edge10" class="edge">
<title>3805&#45;&gt;3801</title>
<path fill="none" stroke="#c0c0c0" d="M749.1717,-359.7509C749.1717,-335.2752 749.1717,-198.0152 749.1717,-158.2786"/>
<polygon fill="#c0c0c0" stroke="#c0c0c0" points="752.6718,-158.0275 749.1717,-148.0275 745.6718,-158.0275 752.6718,-158.0275"/>
<text text-anchor="middle" x="716.6627" y="-274.0148" font-family="Arial" font-size="10.00" fill="#000000">Waddenweg </text>
<text text-anchor="middle" x="716.6627" y="-262.0148" font-family="Arial" font-size="10.00" fill="#000000"> Meeuwenlaan</text>
</g>
<!-- 3807 -->
<g id="node33" class="node">
<title>3807</title>
<ellipse fill="#d3d3d3" stroke="#c0c0c0" cx="533.1717" cy="-75.5" rx="3.5" ry="3.5"/>
</g>
<!-- 3806&#45;&gt;3807 -->
<g id="edge31" class="edge">
<title>3806&#45;&gt;3807</title>
<path fill="none" stroke="#c0c0c0" d="M602.4371,-144.7655C592.8142,-135.1425 560.1906,-102.519 543.3769,-85.7053"/>
<polygon fill="#c0c0c0" stroke="#c0c0c0" points="545.4549,-82.8335 535.909,-78.2373 540.5052,-87.7833 545.4549,-82.8335"/>
<text text-anchor="middle" x="542.9025" y="-118.2354" font-family="Arial" font-size="10.00" fill="#000000">Meidoornweg</text>
</g>
<!-- 3808 -->
<g id="node34" class="node">
<title>3808</title>
<ellipse fill="#d3d3d3" stroke="#c0c0c0" cx="533.1717" cy="-3.5" rx="3.5" ry="3.5"/>
</g>
<!-- 3807&#45;&gt;3808 -->
<g id="edge32" class="edge">
<title>3807&#45;&gt;3808</title>
<path fill="none" stroke="#c0c0c0" d="M533.1717,-61.5306C533.1717,-48.7648 533.1717,-29.9941 533.1717,-17.2861"/>
<polygon fill="#c0c0c0" stroke="#c0c0c0" points="529.6718,-61.6289 533.1717,-71.629 536.6718,-61.629 529.6718,-61.6289"/>
<polygon fill="#c0c0c0" stroke="#c0c0c0" points="536.6718,-17.0459 533.1717,-7.0459 529.6718,-17.046 536.6718,-17.0459"/>
<text text-anchor="middle" x="501.2167" y="-42.4084" font-family="Arial" font-size="10.00" fill="#000000">Ranonkelkade</text>
</g>
<!-- 3809 -->
<g id="node35" class="node">
<title>3809</title>
<ellipse fill="#d3d3d3" stroke="#c0c0c0" cx="461.1717" cy="-147.5" rx="3.5" ry="3.5"/>
</g>
<!-- 3807&#45;&gt;3809 -->
<g id="edge33" class="edge">
<title>3807&#45;&gt;3809</title>
<path fill="none" stroke="#c0c0c0" d="M530.4371,-78.2346C520.8142,-87.8575 488.1906,-120.481 471.3769,-137.2948"/>
<polygon fill="#c0c0c0" stroke="#c0c0c0" points="468.5052,-135.2167 463.909,-144.7627 473.4549,-140.1665 468.5052,-135.2167"/>
<text text-anchor="middle" x="462.0045" y="-134.7647" font-family="Arial" font-size="10.00" fill="#000000">Van der Pekbrug </text>
<text text-anchor="middle" x="462.0045" y="-122.7647" font-family="Arial" font-size="10.00" fill="#000000"> Docklandsweg </text>
<text text-anchor="middle" x="462.0045" y="-110.7647" font-family="Arial" font-size="10.00" fill="#000000"> Asterweg</text>
</g>
<!-- 3809&#45;&gt;3907 -->
<g id="edge34" class="edge">
<title>3809&#45;&gt;3907</title>
<path fill="none" stroke="#c0c0c0" d="M461.1717,-151.0596C461.1717,-168.5711 461.1717,-246.0079 461.1717,-277.8028"/>
<polygon fill="#c0c0c0" stroke="#c0c0c0" points="457.6718,-277.8048 461.1717,-287.8049 464.6718,-277.8049 457.6718,-277.8048"/>
<text text-anchor="middle" x="424.7782" y="-217.4312" font-family="Arial" font-size="10.00" fill="#000000">Ridderspoorweg</text>
</g>
<!-- 3811 -->
<g id="node37" class="node">
<title>3811</title>
<ellipse fill="#d3d3d3" stroke="#c0c0c0" cx="389.1717" cy="-363.5" rx="3.5" ry="3.5"/>
</g>
<!-- 3810&#45;&gt;3811 -->
<g id="edge36" class="edge">
<title>3810&#45;&gt;3811</title>
<path fill="none" stroke="#c0c0c0" d="M457.3006,-363.5C447.2453,-363.5 419.9124,-363.5 403.0813,-363.5"/>
<polygon fill="#c0c0c0" stroke="#c0c0c0" points="402.7176,-360.0001 392.7176,-363.5 402.7176,-367.0001 402.7176,-360.0001"/>
<text text-anchor="middle" x="430.191" y="-354.5" font-family="Arial" font-size="10.00" fill="#000000">Slijperweg</text>
</g>
<!-- 3812 -->
<g id="node38" class="node">
<title>3812</title>
<ellipse fill="#d3d3d3" stroke="#c0c0c0" cx="389.1717" cy="-435.5" rx=".5" ry=".5"/>
</g>
<!-- 3811&#45;&gt;3812 -->
<g id="edge37" class="edge">
<title>3811&#45;&gt;3812</title>
<path fill="none" stroke="#c0c0c0" d="M389.1717,-367.371C389.1717,-378.1054 389.1717,-408.5301 389.1717,-424.8483"/>
<polygon fill="#c0c0c0" stroke="#c0c0c0" points="385.6718,-424.8992 389.1717,-434.8992 392.6718,-424.8992 385.6718,-424.8992"/>
<text text-anchor="middle" x="354.4477" y="-399.1097" font-family="Arial" font-size="10.00" fill="#000000">Vuurwerkerweg</text>
</g>
<!-- 3813 -->
<g id="node39" class="node">
<title>3813</title>
<ellipse fill="#d3d3d3" stroke="#c0c0c0" cx="317.1717" cy="-435.5" rx="26.4794" ry="26.4794"/>
<text text-anchor="middle" x="317.1717" y="-432.5" font-family="Arial" font-size="10.00" fill="#000000">MET</text>
</g>
<!-- 3812&#45;&gt;3813 -->
<g id="edge38" class="edge">
<title>3812&#45;&gt;3813</title>
<path fill="none" stroke="#c0c0c0" d="M388.3631,-435.5C384.7131,-435.5 369.2739,-435.5 353.7023,-435.5"/>
<polygon fill="#c0c0c0" stroke="#c0c0c0" points="353.573,-432.0001 343.573,-435.5 353.5729,-439.0001 353.573,-432.0001"/>
<text text-anchor="middle" x="397.6972" y="-462.5" font-family="Arial" font-size="10.00" fill="#000000">Metaal&#45; </text>
<text text-anchor="middle" x="397.6972" y="-450.5" font-family="Arial" font-size="10.00" fill="#000000"> &#45;bewerker&#45; </text>
<text text-anchor="middle" x="397.6972" y="-438.5" font-family="Arial" font-size="10.00" fill="#000000"> &#45;weg</text>
</g>
</g>
</svg>

