<?xml version="1.0" encoding="UTF-8" standalone="no"?>
<!DOCTYPE svg PUBLIC "-//W3C//DTD SVG 1.1//EN"
 "http://www.w3.org/Graphics/SVG/1.1/DTD/svg11.dtd">
<!-- Generated by graphviz version 2.40.1 (20161225.0304)
 -->
<!-- Title: G Pages: 1 -->
<svg width="1422pt" height="972pt"
 viewBox="0.00 0.00 1422.28 971.50" xmlns="http://www.w3.org/2000/svg" xmlns:xlink="http://www.w3.org/1999/xlink">
<g id="graph0" class="graph" transform="scale(1 1) rotate(0) translate(4 967.5)">
<title>G</title>
<polygon fill="#ffffff" stroke="transparent" points="-4,4 -4,-967.5 1418.282,-967.5 1418.282,4 -4,4"/>
<!-- 1500 -->
<g id="node1" class="node">
<title>1500</title>
<ellipse fill="#d3d3d3" stroke="#c0c0c0" cx="510.782" cy="-456" rx="25.4216" ry="25.4216"/>
<text text-anchor="middle" x="510.782" y="-453" font-family="Arial" font-size="10.00" fill="#000000">SLO</text>
</g>
<!-- 1501 -->
<g id="node2" class="node">
<title>1501</title>
<ellipse fill="#d3d3d3" stroke="#c0c0c0" cx="618.782" cy="-456" rx="3.5" ry="3.5"/>
</g>
<!-- 1500&#45;&gt;1501 -->
<g id="edge1" class="edge">
<title>1500&#45;&gt;1501</title>
<path fill="none" stroke="#c0c0c0" d="M536.3765,-456C557.8596,-456 587.7278,-456 604.9795,-456"/>
<polygon fill="#c0c0c0" stroke="#c0c0c0" points="605.0115,-459.5001 615.0114,-456 605.0114,-452.5001 605.0115,-459.5001"/>
<text text-anchor="middle" x="584.5703" y="-447" font-family="Arial" font-size="10.00" fill="#000000">Arlandaweg </text>
<text text-anchor="middle" x="584.5703" y="-435" font-family="Arial" font-size="10.00" fill="#000000"> (lijn 15)</text>
</g>
<!-- 2201 -->
<g id="node16" class="node">
<title>2201</title>
<ellipse fill="#d3d3d3" stroke="#c0c0c0" cx="402.782" cy="-456" rx="3.5" ry="3.5"/>
</g>
<!-- 1500&#45;&gt;2201 -->
<g id="edge14" class="edge">
<title>1500&#45;&gt;2201</title>
<path fill="none" stroke="#c0c0c0" d="M485.1875,-456C463.7045,-456 433.8363,-456 416.5845,-456"/>
<polygon fill="#c0c0c0" stroke="#c0c0c0" points="416.5526,-452.5001 406.5526,-456 416.5526,-459.5001 416.5526,-452.5001"/>
<text text-anchor="middle" x="450.886" y="-447" font-family="Arial" font-size="10.00" fill="#000000">Arlandaweg </text>
<text text-anchor="middle" x="450.886" y="-435" font-family="Arial" font-size="10.00" fill="#000000"> (lijn 22, 36, </text>
<text text-anchor="middle" x="450.886" y="-423" font-family="Arial" font-size="10.00" fill="#000000"> 61, 369)</text>
</g>
<!-- 1502 -->
<g id="node3" class="node">
<title>1502</title>
<ellipse fill="#d3d3d3" stroke="#c0c0c0" cx="618.782" cy="-384" rx="3.5" ry="3.5"/>
</g>
<!-- 1501&#45;&gt;1502 -->
<g id="edge2" class="edge">
<title>1501&#45;&gt;1502</title>
<path fill="none" stroke="#c0c0c0" d="M618.782,-452.129C618.782,-442.0737 618.782,-414.7408 618.782,-397.9096"/>
<polygon fill="#c0c0c0" stroke="#c0c0c0" points="622.2821,-397.5459 618.782,-387.5459 615.2821,-397.546 622.2821,-397.5459"/>
<text text-anchor="middle" x="595.446" y="-416.0193" font-family="Arial" font-size="10.00" fill="#000000">Kimpoweg</text>
</g>
<!-- 1503 -->
<g id="node4" class="node">
<title>1503</title>
<ellipse fill="#d3d3d3" stroke="#c0c0c0" cx="690.782" cy="-384" rx="3.5" ry="3.5"/>
</g>
<!-- 1502&#45;&gt;1503 -->
<g id="edge3" class="edge">
<title>1502&#45;&gt;1503</title>
<path fill="none" stroke="#c0c0c0" d="M622.653,-384C632.7083,-384 660.0412,-384 676.8724,-384"/>
<polygon fill="#c0c0c0" stroke="#c0c0c0" points="677.2361,-387.5001 687.2361,-384 677.236,-380.5001 677.2361,-387.5001"/>
<text text-anchor="middle" x="649.7627" y="-375" font-family="Arial" font-size="10.00" fill="#000000">Haarlemmer&#45;</text>
<text text-anchor="middle" x="649.7627" y="-363" font-family="Arial" font-size="10.00" fill="#000000">&#45;weg</text>
</g>
<!-- 1504 -->
<g id="node5" class="node">
<title>1504</title>
<ellipse fill="#d3d3d3" stroke="#c0c0c0" cx="690.782" cy="-312" rx="3.5" ry="3.5"/>
</g>
<!-- 1503&#45;&gt;1504 -->
<g id="edge4" class="edge">
<title>1503&#45;&gt;1504</title>
<path fill="none" stroke="#c0c0c0" d="M690.782,-380.129C690.782,-370.0737 690.782,-342.7408 690.782,-325.9097"/>
<polygon fill="#c0c0c0" stroke="#c0c0c0" points="694.2821,-325.5459 690.782,-315.5459 687.2821,-325.546 694.2821,-325.5459"/>
<text text-anchor="middle" x="663.832" y="-344.0193" font-family="Arial" font-size="10.00" fill="#000000">Einsteinweg</text>
<text text-anchor="middle" x="663.832" y="-332.0193" font-family="Arial" font-size="10.00" fill="#000000">(aka [A10])</text>
</g>
<!-- 1505 -->
<g id="node6" class="node">
<title>1505</title>
<ellipse fill="#d3d3d3" stroke="#c0c0c0" cx="762.782" cy="-312" rx="3.5" ry="3.5"/>
</g>
<!-- 1504&#45;&gt;1505 -->
<g id="edge5" class="edge">
<title>1504&#45;&gt;1505</title>
<path fill="none" stroke="#c0c0c0" d="M694.653,-312C704.7083,-312 732.0412,-312 748.8724,-312"/>
<polygon fill="#c0c0c0" stroke="#c0c0c0" points="749.2361,-315.5001 759.2361,-312 749.236,-308.5001 749.2361,-315.5001"/>
<text text-anchor="middle" x="721.7627" y="-303" font-family="Arial" font-size="10.00" fill="#000000">Bos en &#45;</text>
<text text-anchor="middle" x="721.7627" y="-291" font-family="Arial" font-size="10.00" fill="#000000">&#45; Lommerplein</text>
</g>
<!-- 1506 -->
<g id="node7" class="node">
<title>1506</title>
<ellipse fill="#d3d3d3" stroke="#c0c0c0" cx="762.782" cy="-240" rx="3.5" ry="3.5"/>
</g>
<!-- 1505&#45;&gt;1506 -->
<g id="edge6" class="edge">
<title>1505&#45;&gt;1506</title>
<path fill="none" stroke="#c0c0c0" d="M762.782,-308.129C762.782,-298.0737 762.782,-270.7408 762.782,-253.9097"/>
<polygon fill="#c0c0c0" stroke="#c0c0c0" points="766.2821,-253.5459 762.782,-243.5459 759.2821,-253.546 766.2821,-253.5459"/>
<text text-anchor="middle" x="740.276" y="-272.0193" font-family="Arial" font-size="10.00" fill="#000000">Hoofdweg</text>
</g>
<!-- 1507 -->
<g id="node8" class="node">
<title>1507</title>
<ellipse fill="#d3d3d3" stroke="#c0c0c0" cx="690.782" cy="-240" rx="3.5" ry="3.5"/>
</g>
<!-- 1506&#45;&gt;1507 -->
<g id="edge7" class="edge">
<title>1506&#45;&gt;1507</title>
<path fill="none" stroke="#c0c0c0" d="M758.911,-240C748.8557,-240 721.5228,-240 704.6917,-240"/>
<polygon fill="#c0c0c0" stroke="#c0c0c0" points="704.328,-236.5001 694.3279,-240 704.3279,-243.5001 704.328,-236.5001"/>
<text text-anchor="middle" x="731.8013" y="-231" font-family="Arial" font-size="10.00" fill="#000000">Surinameplein</text>
</g>
<!-- 1508 -->
<g id="node9" class="node">
<title>1508</title>
<ellipse fill="#d3d3d3" stroke="#c0c0c0" cx="690.782" cy="-168" rx="3.5" ry="3.5"/>
</g>
<!-- 1507&#45;&gt;1508 -->
<g id="edge8" class="edge">
<title>1507&#45;&gt;1508</title>
<path fill="none" stroke="#c0c0c0" d="M690.782,-236.129C690.782,-226.0737 690.782,-198.7408 690.782,-181.9097"/>
<polygon fill="#c0c0c0" stroke="#c0c0c0" points="694.2821,-181.5459 690.782,-171.5459 687.2821,-181.546 694.2821,-181.5459"/>
<text text-anchor="middle" x="639.3965" y="-212.0193" font-family="Arial" font-size="10.00" fill="#000000">Haarlemmermeerstraat</text>
</g>
<!-- 1509 -->
<g id="node10" class="node">
<title>1509</title>
<ellipse fill="#d3d3d3" stroke="#c0c0c0" cx="834.782" cy="-168" rx="3.5" ry="3.5"/>
</g>
<!-- 1508&#45;&gt;1509 -->
<g id="edge9" class="edge">
<title>1508&#45;&gt;1509</title>
<path fill="none" stroke="#c0c0c0" d="M694.3416,-168C711.8531,-168 789.2899,-168 821.0848,-168"/>
<polygon fill="#c0c0c0" stroke="#c0c0c0" points="821.0869,-171.5001 831.0869,-168 821.0868,-164.5001 821.0869,-171.5001"/>
<text text-anchor="middle" x="794.6652" y="-207" font-family="Arial" font-size="10.00" fill="#000000">Hoofddorp&#45;plein </text>
<text text-anchor="middle" x="794.6652" y="-195" font-family="Arial" font-size="10.00" fill="#000000"> &#45;weg </text>
<text text-anchor="middle" x="794.6652" y="-183" font-family="Arial" font-size="10.00" fill="#000000"> Zeil&#45;brug </text>
<text text-anchor="middle" x="794.6652" y="-171" font-family="Arial" font-size="10.00" fill="#000000"> &#45;straat</text>
</g>
<!-- 1510 -->
<g id="node11" class="node">
<title>1510</title>
<ellipse fill="#d3d3d3" stroke="#c0c0c0" cx="834.782" cy="-96" rx="3.5" ry="3.5"/>
</g>
<!-- 1509&#45;&gt;1510 -->
<g id="edge10" class="edge">
<title>1509&#45;&gt;1510</title>
<path fill="none" stroke="#c0c0c0" d="M834.782,-164.129C834.782,-154.0737 834.782,-126.7408 834.782,-109.9097"/>
<polygon fill="#c0c0c0" stroke="#c0c0c0" points="838.2821,-109.5459 834.782,-99.5459 831.2821,-109.546 838.2821,-109.5459"/>
<text text-anchor="middle" x="783.402" y="-128.0193" font-family="Arial" font-size="10.00" fill="#000000">Amstelveenseweg </text>
<text text-anchor="middle" x="783.402" y="-116.0193" font-family="Arial" font-size="10.00" fill="#000000"> (via Haarlemmermeer&#45;</text>
<text text-anchor="middle" x="783.402" y="-104.0193" font-family="Arial" font-size="10.00" fill="#000000">&#45;station)</text>
</g>
<!-- 1511 -->
<g id="node12" class="node">
<title>1511</title>
<ellipse fill="#d3d3d3" stroke="#c0c0c0" cx="906.782" cy="-96" rx="3.5" ry="3.5"/>
</g>
<!-- 1510&#45;&gt;1511 -->
<g id="edge11" class="edge">
<title>1510&#45;&gt;1511</title>
<path fill="none" stroke="#c0c0c0" d="M838.653,-96C848.7083,-96 876.0412,-96 892.8724,-96"/>
<polygon fill="#c0c0c0" stroke="#c0c0c0" points="893.2361,-99.5001 903.2361,-96 893.236,-92.5001 893.2361,-99.5001"/>
<text text-anchor="middle" x="865.7627" y="-87" font-family="Arial" font-size="10.00" fill="#000000">Stadion&#45;plein </text>
<text text-anchor="middle" x="865.7627" y="-75" font-family="Arial" font-size="10.00" fill="#000000"> &#45;weg </text>
<text text-anchor="middle" x="865.7627" y="-63" font-family="Arial" font-size="10.00" fill="#000000"> Olympiaplein</text>
</g>
<!-- 1512 -->
<g id="node13" class="node">
<title>1512</title>
<ellipse fill="#d3d3d3" stroke="#c0c0c0" cx="906.782" cy="-24" rx="3.5" ry="3.5"/>
</g>
<!-- 1511&#45;&gt;1512 -->
<g id="edge12" class="edge">
<title>1511&#45;&gt;1512</title>
<path fill="none" stroke="#c0c0c0" d="M906.782,-92.129C906.782,-82.0737 906.782,-54.7408 906.782,-37.9097"/>
<polygon fill="#c0c0c0" stroke="#c0c0c0" points="910.2821,-37.5459 906.782,-27.5459 903.2821,-37.546 910.2821,-37.5459"/>
<text text-anchor="middle" x="939.5675" y="-68.0193" font-family="Arial" font-size="10.00" fill="#000000">Parnassusweg</text>
</g>
<!-- 1513 -->
<g id="node14" class="node">
<title>1513</title>
<ellipse fill="#d3d3d3" stroke="#c0c0c0" cx="978.782" cy="-24" rx="22.908" ry="22.908"/>
<text text-anchor="middle" x="978.782" y="-21" font-family="Arial" font-size="10.00" fill="#000000">ZUI</text>
</g>
<!-- 1512&#45;&gt;1513 -->
<g id="edge13" class="edge">
<title>1512&#45;&gt;1513</title>
<path fill="none" stroke="#c0c0c0" d="M910.653,-24C917.3566,-24 931.739,-24 945.5695,-24"/>
<polygon fill="#c0c0c0" stroke="#c0c0c0" points="945.9019,-27.5001 955.9018,-24 945.9018,-20.5001 945.9019,-27.5001"/>
<text text-anchor="middle" x="937.4175" y="-15" font-family="Arial" font-size="10.00" fill="#000000">Strawin&#45;</text>
<text text-anchor="middle" x="937.4175" y="-3" font-family="Arial" font-size="10.00" fill="#000000">&#45;skylaan</text>
</g>
<!-- 2200 -->
<g id="node15" class="node">
<title>2200</title>
<ellipse fill="#d3d3d3" stroke="#c0c0c0" cx="690.782" cy="-528" rx="3.5" ry="3.5"/>
</g>
<!-- 2203 -->
<g id="node18" class="node">
<title>2203</title>
<ellipse fill="#d3d3d3" stroke="#c0c0c0" cx="762.782" cy="-528" rx="3.5" ry="3.5"/>
</g>
<!-- 2200&#45;&gt;2203 -->
<g id="edge34" class="edge">
<title>2200&#45;&gt;2203</title>
<path fill="none" stroke="#c0c0c0" d="M694.653,-528C704.7083,-528 732.0412,-528 748.8724,-528"/>
<polygon fill="#c0c0c0" stroke="#c0c0c0" points="749.2361,-531.5001 759.2361,-528 749.236,-524.5001 749.2361,-531.5001"/>
<text text-anchor="middle" x="721.7627" y="-519" font-family="Arial" font-size="10.00" fill="#000000">Transformator&#45;</text>
<text text-anchor="middle" x="721.7627" y="-507" font-family="Arial" font-size="10.00" fill="#000000">&#45;weg </text>
<text text-anchor="middle" x="721.7627" y="-495" font-family="Arial" font-size="10.00" fill="#000000"> (lijn 22)</text>
</g>
<!-- 3602 -->
<g id="node35" class="node">
<title>3602</title>
<ellipse fill="#d3d3d3" stroke="#c0c0c0" cx="690.782" cy="-888" rx="3.5" ry="3.5"/>
</g>
<!-- 2200&#45;&gt;3602 -->
<g id="edge33" class="edge">
<title>2200&#45;&gt;3602</title>
<path fill="none" stroke="#c0c0c0" d="M690.782,-531.563C690.782,-564.2871 690.782,-812.7774 690.782,-874.2694"/>
<polygon fill="#c0c0c0" stroke="#c0c0c0" points="687.2821,-874.4078 690.782,-884.4078 694.2821,-874.4078 687.2821,-874.4078"/>
<text text-anchor="middle" x="662.4425" y="-729.9162" font-family="Arial" font-size="10.00" fill="#000000">Einsteinweg </text>
<text text-anchor="middle" x="662.4425" y="-717.9162" font-family="Arial" font-size="10.00" fill="#000000"> (aka [A10])</text>
<text text-anchor="middle" x="662.4425" y="-705.9162" font-family="Arial" font-size="10.00" fill="#000000"> (lijn 36)</text>
</g>
<!-- 2202 -->
<g id="node17" class="node">
<title>2202</title>
<ellipse fill="#d3d3d3" stroke="#c0c0c0" cx="402.782" cy="-528" rx="3.5" ry="3.5"/>
</g>
<!-- 2201&#45;&gt;2202 -->
<g id="edge15" class="edge">
<title>2201&#45;&gt;2202</title>
<path fill="none" stroke="#c0c0c0" d="M402.782,-459.871C402.782,-469.9263 402.782,-497.2592 402.782,-514.0903"/>
<polygon fill="#c0c0c0" stroke="#c0c0c0" points="399.2821,-514.454 402.782,-524.4541 406.2821,-514.4541 399.2821,-514.454"/>
<text text-anchor="middle" x="376.669" y="-501.9807" font-family="Arial" font-size="10.00" fill="#000000">Radarweg </text>
<text text-anchor="middle" x="376.669" y="-489.9807" font-family="Arial" font-size="10.00" fill="#000000"> (lijn 22, 36)</text>
</g>
<!-- 6101 -->
<g id="node54" class="node">
<title>6101</title>
<ellipse fill="#d3d3d3" stroke="#c0c0c0" cx="330.782" cy="-456" rx="3.5" ry="3.5"/>
</g>
<!-- 2201&#45;&gt;6101 -->
<g id="edge53" class="edge">
<title>2201&#45;&gt;6101</title>
<path fill="none" stroke="#c0c0c0" d="M398.911,-456C388.8557,-456 361.5228,-456 344.6917,-456"/>
<polygon fill="#c0c0c0" stroke="#c0c0c0" points="344.328,-452.5001 334.3279,-456 344.3279,-459.5001 344.328,-452.5001"/>
<text text-anchor="middle" x="371.8013" y="-447" font-family="Arial" font-size="10.00" fill="#000000">Arlandaweg </text>
<text text-anchor="middle" x="371.8013" y="-435" font-family="Arial" font-size="10.00" fill="#000000"> (lijn 61)</text>
</g>
<!-- 36901 -->
<g id="node64" class="node">
<title>36901</title>
<ellipse fill="#d3d3d3" stroke="#c0c0c0" cx="402.782" cy="-384" rx="3.5" ry="3.5"/>
</g>
<!-- 2201&#45;&gt;36901 -->
<g id="edge63" class="edge">
<title>2201&#45;&gt;36901</title>
<path fill="none" stroke="#c0c0c0" d="M402.782,-452.129C402.782,-442.0737 402.782,-414.7408 402.782,-397.9096"/>
<polygon fill="#c0c0c0" stroke="#c0c0c0" points="406.2821,-397.5459 402.782,-387.5459 399.2821,-397.546 406.2821,-397.5459"/>
<text text-anchor="middle" x="378.6115" y="-416.0193" font-family="Arial" font-size="10.00" fill="#000000">Radarweg </text>
<text text-anchor="middle" x="378.6115" y="-404.0193" font-family="Arial" font-size="10.00" fill="#000000"> (lijn 369)</text>
</g>
<!-- 2202&#45;&gt;2200 -->
<g id="edge16" class="edge">
<title>2202&#45;&gt;2200</title>
<path fill="none" stroke="#c0c0c0" d="M406.4234,-528C435.057,-528 624.2654,-528 677.1006,-528"/>
<polygon fill="#c0c0c0" stroke="#c0c0c0" points="677.222,-531.5001 687.2219,-528 677.2219,-524.5001 677.222,-531.5001"/>
<text text-anchor="middle" x="499.815" y="-543" font-family="Arial" font-size="10.00" fill="#000000">Basisweg </text>
<text text-anchor="middle" x="499.815" y="-531" font-family="Arial" font-size="10.00" fill="#000000"> Transformatorweg</text>
</g>
<!-- 2204 -->
<g id="node19" class="node">
<title>2204</title>
<ellipse fill="#d3d3d3" stroke="#c0c0c0" cx="762.782" cy="-456" rx="3.5" ry="3.5"/>
</g>
<!-- 2203&#45;&gt;2204 -->
<g id="edge17" class="edge">
<title>2203&#45;&gt;2204</title>
<path fill="none" stroke="#c0c0c0" d="M762.782,-524.129C762.782,-514.0737 762.782,-486.7408 762.782,-469.9096"/>
<polygon fill="#c0c0c0" stroke="#c0c0c0" points="766.2821,-469.5459 762.782,-459.5459 759.2821,-469.546 766.2821,-469.5459"/>
<text text-anchor="middle" x="800.5605" y="-500.0193" font-family="Arial" font-size="10.00" fill="#000000">Nieuwe Hemweg</text>
</g>
<!-- 2205 -->
<g id="node20" class="node">
<title>2205</title>
<ellipse fill="#d3d3d3" stroke="#c0c0c0" cx="834.782" cy="-456" rx="3.5" ry="3.5"/>
</g>
<!-- 2204&#45;&gt;2205 -->
<g id="edge18" class="edge">
<title>2204&#45;&gt;2205</title>
<path fill="none" stroke="#c0c0c0" d="M766.653,-456C776.7083,-456 804.0412,-456 820.8724,-456"/>
<polygon fill="#c0c0c0" stroke="#c0c0c0" points="821.2361,-459.5001 831.2361,-456 821.236,-452.5001 821.2361,-459.5001"/>
<text text-anchor="middle" x="751.8152" y="-447" font-family="Arial" font-size="10.00" fill="#000000">Spaarndammerdijk</text>
</g>
<!-- 2206 -->
<g id="node21" class="node">
<title>2206</title>
<ellipse fill="#d3d3d3" stroke="#c0c0c0" cx="834.782" cy="-384" rx="3.5" ry="3.5"/>
</g>
<!-- 2205&#45;&gt;2206 -->
<g id="edge19" class="edge">
<title>2205&#45;&gt;2206</title>
<path fill="none" stroke="#c0c0c0" d="M834.782,-452.129C834.782,-442.0737 834.782,-414.7408 834.782,-397.9096"/>
<polygon fill="#c0c0c0" stroke="#c0c0c0" points="838.2821,-397.5459 834.782,-387.5459 831.2821,-397.546 838.2821,-397.5459"/>
<text text-anchor="middle" x="786.441" y="-416.0193" font-family="Arial" font-size="10.00" fill="#000000">Spaarndammerstraat </text>
<text text-anchor="middle" x="786.441" y="-404.0193" font-family="Arial" font-size="10.00" fill="#000000"> Westerpark </text>
<text text-anchor="middle" x="786.441" y="-392.0193" font-family="Arial" font-size="10.00" fill="#000000"> (via Mirakelbrug)</text>
</g>
<!-- 2207 -->
<g id="node22" class="node">
<title>2207</title>
<ellipse fill="#d3d3d3" stroke="#c0c0c0" cx="906.782" cy="-384" rx="3.5" ry="3.5"/>
</g>
<!-- 2206&#45;&gt;2207 -->
<g id="edge20" class="edge">
<title>2206&#45;&gt;2207</title>
<path fill="none" stroke="#c0c0c0" d="M838.653,-384C848.7083,-384 876.0412,-384 892.8724,-384"/>
<polygon fill="#c0c0c0" stroke="#c0c0c0" points="893.2361,-387.5001 903.2361,-384 893.236,-380.5001 893.2361,-387.5001"/>
<text text-anchor="middle" x="865.7627" y="-375" font-family="Arial" font-size="10.00" fill="#000000">Willemsbrug</text>
</g>
<!-- 2208 -->
<g id="node23" class="node">
<title>2208</title>
<ellipse fill="#d3d3d3" stroke="#c0c0c0" cx="906.782" cy="-456" rx="3.5" ry="3.5"/>
</g>
<!-- 2207&#45;&gt;2208 -->
<g id="edge21" class="edge">
<title>2207&#45;&gt;2208</title>
<path fill="none" stroke="#c0c0c0" d="M906.782,-387.871C906.782,-397.9263 906.782,-425.2592 906.782,-442.0903"/>
<polygon fill="#c0c0c0" stroke="#c0c0c0" points="903.2821,-442.454 906.782,-452.4541 910.2821,-442.4541 903.2821,-442.454"/>
<text text-anchor="middle" x="944.8345" y="-417.9807" font-family="Arial" font-size="10.00" fill="#000000">Haarlemmerplein</text>
</g>
<!-- 2209 -->
<g id="node24" class="node">
<title>2209</title>
<ellipse fill="#d3d3d3" stroke="#c0c0c0" cx="1050.782" cy="-456" rx="3.5" ry="3.5"/>
</g>
<!-- 2208&#45;&gt;2209 -->
<g id="edge22" class="edge">
<title>2208&#45;&gt;2209</title>
<path fill="none" stroke="#c0c0c0" d="M910.3416,-456C927.8531,-456 1005.2899,-456 1037.0848,-456"/>
<polygon fill="#c0c0c0" stroke="#c0c0c0" points="1037.0869,-459.5001 1047.0869,-456 1037.0868,-452.5001 1037.0869,-459.5001"/>
<text text-anchor="middle" x="917.8732" y="-483" font-family="Arial" font-size="10.00" fill="#000000">Tussen de Bogen </text>
<text text-anchor="middle" x="917.8732" y="-471" font-family="Arial" font-size="10.00" fill="#000000"> Haarlemmer Houttuinen </text>
<text text-anchor="middle" x="917.8732" y="-459" font-family="Arial" font-size="10.00" fill="#000000"> Nieuwe Westerdokstraat</text>
</g>
<!-- 2210 -->
<g id="node25" class="node">
<title>2210</title>
<ellipse fill="#d3d3d3" stroke="#c0c0c0" cx="1050.782" cy="-528" rx="3.5" ry="3.5"/>
</g>
<!-- 2209&#45;&gt;2210 -->
<g id="edge23" class="edge">
<title>2209&#45;&gt;2210</title>
<path fill="none" stroke="#c0c0c0" d="M1050.782,-459.871C1050.782,-469.9263 1050.782,-497.2592 1050.782,-514.0903"/>
<polygon fill="#c0c0c0" stroke="#c0c0c0" points="1047.2821,-514.454 1050.782,-524.4541 1054.2821,-514.4541 1047.2821,-514.454"/>
<text text-anchor="middle" x="1029.1105" y="-489.9807" font-family="Arial" font-size="10.00" fill="#000000">Droogbak</text>
</g>
<!-- 2211 -->
<g id="node26" class="node">
<title>2211</title>
<ellipse fill="#d3d3d3" stroke="#c0c0c0" cx="1122.782" cy="-528" rx="3.5" ry="3.5"/>
</g>
<!-- 2210&#45;&gt;2211 -->
<g id="edge24" class="edge">
<title>2210&#45;&gt;2211</title>
<path fill="none" stroke="#c0c0c0" d="M1054.653,-528C1064.7083,-528 1092.0412,-528 1108.8724,-528"/>
<polygon fill="#c0c0c0" stroke="#c0c0c0" points="1109.2361,-531.5001 1119.2361,-528 1109.236,-524.5001 1109.2361,-531.5001"/>
<text text-anchor="middle" x="1009.8132" y="-519" font-family="Arial" font-size="10.00" fill="#000000">De Ruijterkade (via Centraal St.)</text>
</g>
<!-- 2212 -->
<g id="node27" class="node">
<title>2212</title>
<ellipse fill="#d3d3d3" stroke="#c0c0c0" cx="1122.782" cy="-456" rx="3.5" ry="3.5"/>
</g>
<!-- 2211&#45;&gt;2212 -->
<g id="edge25" class="edge">
<title>2211&#45;&gt;2212</title>
<path fill="none" stroke="#c0c0c0" d="M1122.782,-524.129C1122.782,-514.0737 1122.782,-486.7408 1122.782,-469.9096"/>
<polygon fill="#c0c0c0" stroke="#c0c0c0" points="1126.2821,-469.5459 1122.782,-459.5459 1119.2821,-469.546 1126.2821,-469.5459"/>
<text text-anchor="middle" x="1110.839" y="-488.0193" font-family="Arial" font-size="10.00" fill="#000000">Kam&#45;</text>
<text text-anchor="middle" x="1110.839" y="-476.0193" font-family="Arial" font-size="10.00" fill="#000000">&#45;per&#45;</text>
<text text-anchor="middle" x="1110.839" y="-464.0193" font-family="Arial" font-size="10.00" fill="#000000">&#45;brug</text>
</g>
<!-- 2213 -->
<g id="node28" class="node">
<title>2213</title>
<ellipse fill="#d3d3d3" stroke="#c0c0c0" cx="1194.782" cy="-456" rx=".5" ry=".5"/>
</g>
<!-- 2212&#45;&gt;2213 -->
<g id="edge26" class="edge">
<title>2212&#45;&gt;2213</title>
<path fill="none" stroke="#c0c0c0" d="M1126.653,-456C1137.3874,-456 1167.8121,-456 1184.1303,-456"/>
<polygon fill="#c0c0c0" stroke="#c0c0c0" points="1184.1812,-459.5001 1194.1812,-456 1184.1811,-452.5001 1184.1812,-459.5001"/>
<text text-anchor="middle" x="1186.5062" y="-447" font-family="Arial" font-size="10.00" fill="#000000">Prins &#45;</text>
<text text-anchor="middle" x="1186.5062" y="-435" font-family="Arial" font-size="10.00" fill="#000000">&#45; Hendrikkade</text>
</g>
<!-- 2214 -->
<g id="node29" class="node">
<title>2214</title>
<ellipse fill="#d3d3d3" stroke="#c0c0c0" cx="1194.782" cy="-528" rx="3.5" ry="3.5"/>
</g>
<!-- 2213&#45;&gt;2214 -->
<g id="edge27" class="edge">
<title>2213&#45;&gt;2214</title>
<path fill="none" stroke="#c0c0c0" d="M1194.782,-456.8086C1194.782,-462.3342 1194.782,-494.8792 1194.782,-513.9986"/>
<polygon fill="#c0c0c0" stroke="#c0c0c0" points="1191.2821,-514.2051 1194.782,-524.2051 1198.2821,-514.2051 1191.2821,-514.2051"/>
</g>
<!-- 2215 -->
<g id="node30" class="node">
<title>2215</title>
<ellipse fill="#d3d3d3" stroke="#c0c0c0" cx="1338.782" cy="-528" rx="3.5" ry="3.5"/>
</g>
<!-- 2214&#45;&gt;2215 -->
<g id="edge28" class="edge">
<title>2214&#45;&gt;2215</title>
<path fill="none" stroke="#c0c0c0" d="M1198.3416,-528C1215.8531,-528 1293.2899,-528 1325.0848,-528"/>
<polygon fill="#c0c0c0" stroke="#c0c0c0" points="1325.0869,-531.5001 1335.0868,-528 1325.0868,-524.5001 1325.0869,-531.5001"/>
<text text-anchor="middle" x="1285.3312" y="-519" font-family="Arial" font-size="10.00" fill="#000000">Kattenburger&#45;plein </text>
<text text-anchor="middle" x="1285.3312" y="-507" font-family="Arial" font-size="10.00" fill="#000000"> &#45; gracht </text>
<text text-anchor="middle" x="1285.3312" y="-495" font-family="Arial" font-size="10.00" fill="#000000"> Wittenburgergracht </text>
<text text-anchor="middle" x="1285.3312" y="-483" font-family="Arial" font-size="10.00" fill="#000000"> Oostenburgergracht </text>
<text text-anchor="middle" x="1285.3312" y="-471" font-family="Arial" font-size="10.00" fill="#000000"> Cruquiuskade</text>
</g>
<!-- 2216 -->
<g id="node31" class="node">
<title>2216</title>
<ellipse fill="#d3d3d3" stroke="#c0c0c0" cx="1338.782" cy="-456" rx="3.5" ry="3.5"/>
</g>
<!-- 2215&#45;&gt;2216 -->
<g id="edge29" class="edge">
<title>2215&#45;&gt;2216</title>
<path fill="none" stroke="#c0c0c0" d="M1338.782,-524.129C1338.782,-514.0737 1338.782,-486.7408 1338.782,-469.9096"/>
<polygon fill="#c0c0c0" stroke="#c0c0c0" points="1342.2821,-469.5459 1338.782,-459.5459 1335.2821,-469.546 1342.2821,-469.5459"/>
<text text-anchor="middle" x="1366.847" y="-500.0193" font-family="Arial" font-size="10.00" fill="#000000">Panamalaan</text>
</g>
<!-- 2217 -->
<g id="node32" class="node">
<title>2217</title>
<ellipse fill="#d3d3d3" stroke="#c0c0c0" cx="1410.782" cy="-456" rx="3.5" ry="3.5"/>
</g>
<!-- 2216&#45;&gt;2217 -->
<g id="edge30" class="edge">
<title>2216&#45;&gt;2217</title>
<path fill="none" stroke="#c0c0c0" d="M1342.653,-456C1352.7083,-456 1380.0412,-456 1396.8723,-456"/>
<polygon fill="#c0c0c0" stroke="#c0c0c0" points="1397.2361,-459.5001 1407.2361,-456 1397.236,-452.5001 1397.2361,-459.5001"/>
<text text-anchor="middle" x="1369.7627" y="-447" font-family="Arial" font-size="10.00" fill="#000000">Zeeburgerdijk</text>
</g>
<!-- 2218 -->
<g id="node33" class="node">
<title>2218</title>
<ellipse fill="#d3d3d3" stroke="#c0c0c0" cx="1410.782" cy="-384" rx="3.5" ry="3.5"/>
</g>
<!-- 2217&#45;&gt;2218 -->
<g id="edge31" class="edge">
<title>2217&#45;&gt;2218</title>
<path fill="none" stroke="#c0c0c0" d="M1410.782,-452.129C1410.782,-442.0737 1410.782,-414.7408 1410.782,-397.9096"/>
<polygon fill="#c0c0c0" stroke="#c0c0c0" points="1414.2821,-397.5459 1410.782,-387.5459 1407.2821,-397.546 1414.2821,-397.5459"/>
<text text-anchor="middle" x="1376.8875" y="-428.0193" font-family="Arial" font-size="10.00" fill="#000000">Molukkenstraat</text>
</g>
<!-- 2219 -->
<g id="node34" class="node">
<title>2219</title>
<ellipse fill="#d3d3d3" stroke="#c0c0c0" cx="1338.782" cy="-384" rx="24.0478" ry="24.0478"/>
<text text-anchor="middle" x="1338.782" y="-381" font-family="Arial" font-size="10.00" fill="#000000">MUI</text>
</g>
<!-- 2218&#45;&gt;2219 -->
<g id="edge32" class="edge">
<title>2218&#45;&gt;2219</title>
<path fill="none" stroke="#c0c0c0" d="M1406.911,-384C1400.4402,-384 1386.8145,-384 1373.4368,-384"/>
<polygon fill="#c0c0c0" stroke="#c0c0c0" points="1373.3778,-380.5001 1363.3778,-384 1373.3778,-387.5001 1373.3778,-380.5001"/>
<text text-anchor="middle" x="1390.1739" y="-375" font-family="Arial" font-size="10.00" fill="#000000">Insulinde&#45;</text>
<text text-anchor="middle" x="1390.1739" y="-363" font-family="Arial" font-size="10.00" fill="#000000">&#45;weg</text>
</g>
<!-- 3603 -->
<g id="node36" class="node">
<title>3603</title>
<ellipse fill="#d3d3d3" stroke="#c0c0c0" cx="834.782" cy="-960" rx="3.5" ry="3.5"/>
</g>
<!-- 3602&#45;&gt;3603 -->
<g id="edge35" class="edge">
<title>3602&#45;&gt;3603</title>
<path fill="none" stroke="#c0c0c0" d="M694.0602,-889.6391C711.2104,-898.2142 791.0061,-938.1121 822.2193,-953.7186"/>
<polygon fill="#c0c0c0" stroke="#c0c0c0" points="821.0619,-957.053 831.5714,-958.3947 824.1924,-950.792 821.0619,-957.053"/>
<text text-anchor="middle" x="715.0803" y="-936.6789" font-family="Arial" font-size="10.00" fill="#000000">[A10] </text>
<text text-anchor="middle" x="715.0803" y="-924.6789" font-family="Arial" font-size="10.00" fill="#000000"> Afrit (18): Tuindorp</text>
</g>
<!-- 3604 -->
<g id="node37" class="node">
<title>3604</title>
<ellipse fill="#d3d3d3" stroke="#c0c0c0" cx="834.782" cy="-888" rx="3.5" ry="3.5"/>
</g>
<!-- 3603&#45;&gt;3604 -->
<g id="edge36" class="edge">
<title>3603&#45;&gt;3604</title>
<path fill="none" stroke="#c0c0c0" d="M834.782,-956.129C834.782,-946.0737 834.782,-918.7408 834.782,-901.9097"/>
<polygon fill="#c0c0c0" stroke="#c0c0c0" points="838.2821,-901.5459 834.782,-891.5459 831.2821,-901.546 838.2821,-901.5459"/>
<text text-anchor="middle" x="884.5165" y="-932.0193" font-family="Arial" font-size="10.00" fill="#000000">Verlengde Stellingweg</text>
</g>
<!-- 3605 -->
<g id="node38" class="node">
<title>3605</title>
<ellipse fill="#d3d3d3" stroke="#c0c0c0" cx="762.782" cy="-888" rx="3.5" ry="3.5"/>
</g>
<!-- 3604&#45;&gt;3605 -->
<g id="edge37" class="edge">
<title>3604&#45;&gt;3605</title>
<path fill="none" stroke="#c0c0c0" d="M820.8126,-888C808.0468,-888 789.2761,-888 776.5681,-888"/>
<polygon fill="#c0c0c0" stroke="#c0c0c0" points="820.911,-891.5001 830.911,-888 820.9109,-884.5001 820.911,-891.5001"/>
<polygon fill="#c0c0c0" stroke="#c0c0c0" points="776.328,-884.5001 766.3279,-888 776.3279,-891.5001 776.328,-884.5001"/>
<text text-anchor="middle" x="798.6904" y="-879" font-family="Arial" font-size="10.00" fill="#000000">Molenaarsweg</text>
</g>
<!-- 3606 -->
<g id="node39" class="node">
<title>3606</title>
<ellipse fill="#d3d3d3" stroke="#c0c0c0" cx="834.782" cy="-816" rx=".5" ry=".5"/>
</g>
<!-- 3604&#45;&gt;3606 -->
<g id="edge38" class="edge">
<title>3604&#45;&gt;3606</title>
<path fill="none" stroke="#c0c0c0" d="M834.782,-884.129C834.782,-873.3946 834.782,-842.9699 834.782,-826.6517"/>
<polygon fill="#c0c0c0" stroke="#c0c0c0" points="838.2821,-826.6008 834.782,-816.6008 831.2821,-826.6009 838.2821,-826.6008"/>
<text text-anchor="middle" x="809.2225" y="-858.3903" font-family="Arial" font-size="10.00" fill="#000000">Stellingweg</text>
</g>
<!-- 3607 -->
<g id="node40" class="node">
<title>3607</title>
<ellipse fill="#d3d3d3" stroke="#c0c0c0" cx="906.782" cy="-816" rx="3.5" ry="3.5"/>
</g>
<!-- 3606&#45;&gt;3607 -->
<g id="edge39" class="edge">
<title>3606&#45;&gt;3607</title>
<path fill="none" stroke="#c0c0c0" d="M835.5906,-816C841.1162,-816 873.6612,-816 892.7806,-816"/>
<polygon fill="#c0c0c0" stroke="#c0c0c0" points="892.9872,-819.5001 902.9871,-816 892.9871,-812.5001 892.9872,-819.5001"/>
</g>
<!-- 3608 -->
<g id="node41" class="node">
<title>3608</title>
<ellipse fill="#d3d3d3" stroke="#c0c0c0" cx="906.782" cy="-888" rx="3.5" ry="3.5"/>
</g>
<!-- 3607&#45;&gt;3608 -->
<g id="edge40" class="edge">
<title>3607&#45;&gt;3608</title>
<path fill="none" stroke="#c0c0c0" d="M906.782,-829.9694C906.782,-842.7352 906.782,-861.5059 906.782,-874.2139"/>
<polygon fill="#c0c0c0" stroke="#c0c0c0" points="910.2821,-829.871 906.782,-819.871 903.2821,-829.8711 910.2821,-829.871"/>
<polygon fill="#c0c0c0" stroke="#c0c0c0" points="903.2821,-874.454 906.782,-884.4541 910.2821,-874.4541 903.2821,-874.454"/>
<text text-anchor="middle" x="881.2225" y="-855.0916" font-family="Arial" font-size="10.00" fill="#000000">Stellingweg</text>
</g>
<!-- 3609 -->
<g id="node42" class="node">
<title>3609</title>
<ellipse fill="#d3d3d3" stroke="#c0c0c0" cx="906.782" cy="-744" rx="3.5" ry="3.5"/>
</g>
<!-- 3607&#45;&gt;3609 -->
<g id="edge41" class="edge">
<title>3607&#45;&gt;3609</title>
<path fill="none" stroke="#c0c0c0" d="M906.782,-812.129C906.782,-802.0737 906.782,-774.7408 906.782,-757.9097"/>
<polygon fill="#c0c0c0" stroke="#c0c0c0" points="910.2821,-757.5459 906.782,-747.5459 903.2821,-757.546 910.2821,-757.5459"/>
<text text-anchor="middle" x="874.273" y="-800.0193" font-family="Arial" font-size="10.00" fill="#000000">Appelweg </text>
<text text-anchor="middle" x="874.273" y="-788.0193" font-family="Arial" font-size="10.00" fill="#000000"> Pomonastraat</text>
</g>
<!-- 3610 -->
<g id="node43" class="node">
<title>3610</title>
<ellipse fill="#d3d3d3" stroke="#c0c0c0" cx="978.782" cy="-744" rx="3.5" ry="3.5"/>
</g>
<!-- 3609&#45;&gt;3610 -->
<g id="edge42" class="edge">
<title>3609&#45;&gt;3610</title>
<path fill="none" stroke="#c0c0c0" d="M910.653,-744C920.7083,-744 948.0412,-744 964.8724,-744"/>
<polygon fill="#c0c0c0" stroke="#c0c0c0" points="965.2361,-747.5001 975.2361,-744 965.2361,-740.5001 965.2361,-747.5001"/>
<text text-anchor="middle" x="937.7627" y="-735" font-family="Arial" font-size="10.00" fill="#000000">Werktuigstraat</text>
</g>
<!-- 3611 -->
<g id="node44" class="node">
<title>3611</title>
<ellipse fill="#d3d3d3" stroke="#c0c0c0" cx="978.782" cy="-672" rx="3.5" ry="3.5"/>
</g>
<!-- 3610&#45;&gt;3611 -->
<g id="edge43" class="edge">
<title>3610&#45;&gt;3611</title>
<path fill="none" stroke="#c0c0c0" d="M978.782,-740.129C978.782,-730.0737 978.782,-702.7408 978.782,-685.9097"/>
<polygon fill="#c0c0c0" stroke="#c0c0c0" points="982.2821,-685.5459 978.782,-675.5459 975.2821,-685.546 982.2821,-685.5459"/>
<text text-anchor="middle" x="938.213" y="-716.0193" font-family="Arial" font-size="10.00" fill="#000000">Scheepsbouwweg</text>
</g>
<!-- 3612 -->
<g id="node45" class="node">
<title>3612</title>
<ellipse fill="#d3d3d3" stroke="#c0c0c0" cx="1050.782" cy="-672" rx="3.5" ry="3.5"/>
</g>
<!-- 3611&#45;&gt;3612 -->
<g id="edge44" class="edge">
<title>3611&#45;&gt;3612</title>
<path fill="none" stroke="#c0c0c0" d="M982.653,-672C992.7083,-672 1020.0412,-672 1036.8724,-672"/>
<polygon fill="#c0c0c0" stroke="#c0c0c0" points="1037.2361,-675.5001 1047.2361,-672 1037.2361,-668.5001 1037.2361,-675.5001"/>
<text text-anchor="middle" x="1009.7627" y="-663" font-family="Arial" font-size="10.00" fill="#000000">Strekkerweg</text>
</g>
<!-- 3613 -->
<g id="node46" class="node">
<title>3613</title>
<ellipse fill="#d3d3d3" stroke="#c0c0c0" cx="1050.782" cy="-600" rx="3.5" ry="3.5"/>
</g>
<!-- 3612&#45;&gt;3613 -->
<g id="edge45" class="edge">
<title>3612&#45;&gt;3613</title>
<path fill="none" stroke="#c0c0c0" d="M1050.782,-668.129C1050.782,-658.0737 1050.782,-630.7408 1050.782,-613.9097"/>
<polygon fill="#c0c0c0" stroke="#c0c0c0" points="1054.2821,-613.5459 1050.782,-603.5459 1047.2821,-613.546 1054.2821,-613.5459"/>
<text text-anchor="middle" x="1031.06" y="-644.0193" font-family="Arial" font-size="10.00" fill="#000000">Atatürk</text>
</g>
<!-- 3614 -->
<g id="node47" class="node">
<title>3614</title>
<ellipse fill="#d3d3d3" stroke="#c0c0c0" cx="1122.782" cy="-600" rx="3.5" ry="3.5"/>
</g>
<!-- 3613&#45;&gt;3614 -->
<g id="edge46" class="edge">
<title>3613&#45;&gt;3614</title>
<path fill="none" stroke="#c0c0c0" d="M1054.653,-600C1064.7083,-600 1092.0412,-600 1108.8724,-600"/>
<polygon fill="#c0c0c0" stroke="#c0c0c0" points="1109.2361,-603.5001 1119.2361,-600 1109.236,-596.5001 1109.2361,-603.5001"/>
<text text-anchor="middle" x="1081.7627" y="-591" font-family="Arial" font-size="10.00" fill="#000000">Klaprozenweg</text>
</g>
<!-- 3615 -->
<g id="node48" class="node">
<title>3615</title>
<ellipse fill="#d3d3d3" stroke="#c0c0c0" cx="1122.782" cy="-636" rx="3.5" ry="3.5"/>
</g>
<!-- 3614&#45;&gt;3615 -->
<g id="edge47" class="edge">
<title>3614&#45;&gt;3615</title>
<path fill="none" stroke="#c0c0c0" d="M1122.782,-603.5834C1122.782,-607.8518 1122.782,-615.2413 1122.782,-621.8881"/>
<polygon fill="#c0c0c0" stroke="#c0c0c0" points="1119.2821,-622.2154 1122.782,-632.2154 1126.2821,-622.2154 1119.2821,-622.2154"/>
</g>
<!-- 3616 -->
<g id="node49" class="node">
<title>3616</title>
<ellipse fill="#d3d3d3" stroke="#c0c0c0" cx="1194.782" cy="-672" rx="3.5" ry="3.5"/>
</g>
<!-- 3615&#45;&gt;3616 -->
<g id="edge48" class="edge">
<title>3615&#45;&gt;3616</title>
<path fill="none" stroke="#c0c0c0" d="M1126.2547,-637.7364C1136.2057,-642.7119 1165.1919,-657.2049 1182.1088,-665.6634"/>
<polygon fill="#c0c0c0" stroke="#c0c0c0" points="1181.0005,-669.0224 1191.5101,-670.364 1184.1311,-662.7614 1181.0005,-669.0224"/>
<text text-anchor="middle" x="1133.6258" y="-654.6999" font-family="Arial" font-size="10.00" fill="#000000">Floraweg</text>
</g>
<!-- 3617 -->
<g id="node50" class="node">
<title>3617</title>
<ellipse fill="#d3d3d3" stroke="#c0c0c0" cx="1122.782" cy="-744" rx="3.5" ry="3.5"/>
</g>
<!-- 3616&#45;&gt;3617 -->
<g id="edge49" class="edge">
<title>3616&#45;&gt;3617</title>
<path fill="none" stroke="#c0c0c0" d="M1192.0474,-674.7346C1182.4245,-684.3575 1149.801,-716.981 1132.9873,-733.7947"/>
<polygon fill="#c0c0c0" stroke="#c0c0c0" points="1130.1155,-731.7167 1125.5193,-741.2627 1135.0653,-736.6665 1130.1155,-731.7167"/>
<text text-anchor="middle" x="1123.8998" y="-707.2647" font-family="Arial" font-size="10.00" fill="#000000">Kamperfoelieweg</text>
</g>
<!-- 3618 -->
<g id="node51" class="node">
<title>3618</title>
<ellipse fill="#d3d3d3" stroke="#c0c0c0" cx="1050.782" cy="-744" rx=".5" ry=".5"/>
</g>
<!-- 3617&#45;&gt;3618 -->
<g id="edge50" class="edge">
<title>3617&#45;&gt;3618</title>
<path fill="none" stroke="#c0c0c0" d="M1118.911,-744C1108.1766,-744 1077.752,-744 1061.4337,-744"/>
<polygon fill="#c0c0c0" stroke="#c0c0c0" points="1061.3829,-740.5001 1051.3828,-744 1061.3828,-747.5001 1061.3829,-740.5001"/>
<text text-anchor="middle" x="1044.6008" y="-735" font-family="Arial" font-size="10.00" fill="#000000">Banne Buikslootlaan</text>
</g>
<!-- 3619 -->
<g id="node52" class="node">
<title>3619</title>
<ellipse fill="#d3d3d3" stroke="#c0c0c0" cx="1050.782" cy="-816" rx="3.5" ry="3.5"/>
</g>
<!-- 3618&#45;&gt;3619 -->
<g id="edge51" class="edge">
<title>3618&#45;&gt;3619</title>
<path fill="none" stroke="#c0c0c0" d="M1050.782,-744.8086C1050.782,-750.3342 1050.782,-782.8792 1050.782,-801.9986"/>
<polygon fill="#c0c0c0" stroke="#c0c0c0" points="1047.2821,-802.2051 1050.782,-812.2051 1054.2821,-802.2051 1047.2821,-802.2051"/>
</g>
<!-- 3620 -->
<g id="node53" class="node">
<title>3620</title>
<ellipse fill="#d3d3d3" stroke="#c0c0c0" cx="1122.782" cy="-816" rx="26.7557" ry="26.7557"/>
<text text-anchor="middle" x="1122.782" y="-813" font-family="Arial" font-size="10.00" fill="#000000">NRD</text>
</g>
<!-- 3619&#45;&gt;3620 -->
<g id="edge52" class="edge">
<title>3619&#45;&gt;3620</title>
<path fill="none" stroke="#c0c0c0" d="M1054.653,-816C1060.7838,-816 1073.3373,-816 1086.0174,-816"/>
<polygon fill="#c0c0c0" stroke="#c0c0c0" points="1086.0934,-819.5001 1096.0934,-816 1086.0933,-812.5001 1086.0934,-819.5001"/>
<text text-anchor="middle" x="1070.3352" y="-807" font-family="Arial" font-size="10.00" fill="#000000">IJdoorn&#45;</text>
<text text-anchor="middle" x="1070.3352" y="-795" font-family="Arial" font-size="10.00" fill="#000000">&#45;laan</text>
</g>
<!-- 6102 -->
<g id="node55" class="node">
<title>6102</title>
<ellipse fill="#d3d3d3" stroke="#c0c0c0" cx="330.782" cy="-528" rx="3.5" ry="3.5"/>
</g>
<!-- 6101&#45;&gt;6102 -->
<g id="edge54" class="edge">
<title>6101&#45;&gt;6102</title>
<path fill="none" stroke="#c0c0c0" d="M330.782,-459.871C330.782,-469.9263 330.782,-497.2592 330.782,-514.0903"/>
<polygon fill="#c0c0c0" stroke="#c0c0c0" points="327.2821,-514.454 330.782,-524.4541 334.2821,-514.4541 327.2821,-514.454"/>
<text text-anchor="middle" x="304.6665" y="-489.9807" font-family="Arial" font-size="10.00" fill="#000000">Barajasweg</text>
</g>
<!-- 6103 -->
<g id="node56" class="node">
<title>6103</title>
<ellipse fill="#d3d3d3" stroke="#c0c0c0" cx="258.782" cy="-528" rx="3.5" ry="3.5"/>
</g>
<!-- 6102&#45;&gt;6103 -->
<g id="edge55" class="edge">
<title>6102&#45;&gt;6103</title>
<path fill="none" stroke="#c0c0c0" d="M326.911,-528C316.8557,-528 289.5228,-528 272.6917,-528"/>
<polygon fill="#c0c0c0" stroke="#c0c0c0" points="272.328,-524.5001 262.3279,-528 272.3279,-531.5001 272.328,-524.5001"/>
<text text-anchor="middle" x="299.8013" y="-519" font-family="Arial" font-size="10.00" fill="#000000">Naritaweg</text>
</g>
<!-- 36902 -->
<g id="node65" class="node">
<title>36902</title>
<ellipse fill="#d3d3d3" stroke="#c0c0c0" cx="258.782" cy="-384" rx="3.5" ry="3.5"/>
</g>
<!-- 6103&#45;&gt;36902 -->
<g id="edge56" class="edge">
<title>6103&#45;&gt;36902</title>
<path fill="none" stroke="#c0c0c0" d="M258.782,-524.4404C258.782,-506.9289 258.782,-429.4921 258.782,-397.6972"/>
<polygon fill="#c0c0c0" stroke="#c0c0c0" points="262.2821,-397.6951 258.782,-387.6952 255.2821,-397.6952 262.2821,-397.6951"/>
<text text-anchor="middle" x="236.831" y="-464.0688" font-family="Arial" font-size="10.00" fill="#000000">Seineweg</text>
</g>
<!-- 6104 -->
<g id="node57" class="node">
<title>6104</title>
<ellipse fill="#d3d3d3" stroke="#c0c0c0" cx="42.782" cy="-312" rx="3.5" ry="3.5"/>
</g>
<!-- 6105 -->
<g id="node58" class="node">
<title>6105</title>
<ellipse fill="#d3d3d3" stroke="#c0c0c0" cx="42.782" cy="-240" rx="3.5" ry="3.5"/>
</g>
<!-- 6104&#45;&gt;6105 -->
<g id="edge57" class="edge">
<title>6104&#45;&gt;6105</title>
<path fill="none" stroke="#c0c0c0" d="M42.782,-308.129C42.782,-298.0737 42.782,-270.7408 42.782,-253.9097"/>
<polygon fill="#c0c0c0" stroke="#c0c0c0" points="46.2821,-253.5459 42.782,-243.5459 39.2821,-253.546 46.2821,-253.5459"/>
<text text-anchor="middle" x="21.391" y="-296.0193" font-family="Arial" font-size="10.00" fill="#000000">Aalberse&#45;</text>
<text text-anchor="middle" x="21.391" y="-284.0193" font-family="Arial" font-size="10.00" fill="#000000">&#45;straat</text>
</g>
<!-- 6106 -->
<g id="node59" class="node">
<title>6106</title>
<ellipse fill="#d3d3d3" stroke="#c0c0c0" cx="114.782" cy="-240" rx="3.5" ry="3.5"/>
</g>
<!-- 6105&#45;&gt;6106 -->
<g id="edge58" class="edge">
<title>6105&#45;&gt;6106</title>
<path fill="none" stroke="#c0c0c0" d="M46.653,-240C56.7083,-240 84.0412,-240 100.8723,-240"/>
<polygon fill="#c0c0c0" stroke="#c0c0c0" points="101.2361,-243.5001 111.2361,-240 101.236,-236.5001 101.2361,-243.5001"/>
<text text-anchor="middle" x="73.7627" y="-231" font-family="Arial" font-size="10.00" fill="#000000">De Savornin&#45; </text>
<text text-anchor="middle" x="73.7627" y="-219" font-family="Arial" font-size="10.00" fill="#000000"> &#45;Lohmanlaan</text>
</g>
<!-- 6107 -->
<g id="node60" class="node">
<title>6107</title>
<ellipse fill="#d3d3d3" stroke="#c0c0c0" cx="114.782" cy="-168" rx="3.5" ry="3.5"/>
</g>
<!-- 6106&#45;&gt;6107 -->
<g id="edge59" class="edge">
<title>6106&#45;&gt;6107</title>
<path fill="none" stroke="#c0c0c0" d="M114.782,-236.129C114.782,-226.0737 114.782,-198.7408 114.782,-181.9097"/>
<polygon fill="#c0c0c0" stroke="#c0c0c0" points="118.2821,-181.5459 114.782,-171.5459 111.2821,-181.546 118.2821,-181.5459"/>
<text text-anchor="middle" x="85.613" y="-200.0193" font-family="Arial" font-size="10.00" fill="#000000">Troelstralaan</text>
</g>
<!-- 6108 -->
<g id="node61" class="node">
<title>6108</title>
<ellipse fill="#d3d3d3" stroke="#c0c0c0" cx="186.782" cy="-168" rx="3.5" ry="3.5"/>
</g>
<!-- 6107&#45;&gt;6108 -->
<g id="edge60" class="edge">
<title>6107&#45;&gt;6108</title>
<path fill="none" stroke="#c0c0c0" d="M118.653,-168C128.7083,-168 156.0412,-168 172.8723,-168"/>
<polygon fill="#c0c0c0" stroke="#c0c0c0" points="173.2361,-171.5001 183.2361,-168 173.236,-164.5001 173.2361,-171.5001"/>
<text text-anchor="middle" x="145.7627" y="-159" font-family="Arial" font-size="10.00" fill="#000000">Ookmeerweg</text>
</g>
<!-- 6109 -->
<g id="node62" class="node">
<title>6109</title>
<ellipse fill="#d3d3d3" stroke="#c0c0c0" cx="186.782" cy="-96" rx="3.5" ry="3.5"/>
</g>
<!-- 6108&#45;&gt;6109 -->
<g id="edge61" class="edge">
<title>6108&#45;&gt;6109</title>
<path fill="none" stroke="#c0c0c0" d="M186.782,-164.129C186.782,-154.0737 186.782,-126.7408 186.782,-109.9097"/>
<polygon fill="#c0c0c0" stroke="#c0c0c0" points="190.2821,-109.5459 186.782,-99.5459 183.2821,-109.546 190.2821,-109.5459"/>
<text text-anchor="middle" x="155.1085" y="-140.0193" font-family="Arial" font-size="10.00" fill="#000000">Meer en Vaart</text>
</g>
<!-- 6110 -->
<g id="node63" class="node">
<title>6110</title>
<ellipse fill="#d3d3d3" stroke="#c0c0c0" cx="42.782" cy="-96" rx="26.7699" ry="26.7699"/>
<text text-anchor="middle" x="42.782" y="-93" font-family="Arial" font-size="10.00" fill="#000000">OSD</text>
</g>
<!-- 6109&#45;&gt;6110 -->
<g id="edge62" class="edge">
<title>6109&#45;&gt;6110</title>
<path fill="none" stroke="#c0c0c0" d="M183.2224,-96C169.1893,-96 116.6726,-96 80.0007,-96"/>
<polygon fill="#c0c0c0" stroke="#c0c0c0" points="79.6562,-92.5001 69.6562,-96 79.6562,-99.5001 79.6562,-92.5001"/>
<text text-anchor="middle" x="103.2721" y="-111" font-family="Arial" font-size="10.00" fill="#000000">Osdorpplein </text>
<text text-anchor="middle" x="103.2721" y="-99" font-family="Arial" font-size="10.00" fill="#000000"> (lijn 61)</text>
</g>
<!-- 36905 -->
<g id="node68" class="node">
<title>36905</title>
<ellipse fill="#d3d3d3" stroke="#c0c0c0" cx="186.782" cy="-24" rx="3.5" ry="3.5"/>
</g>
<!-- 6109&#45;&gt;36905 -->
<g id="edge69" class="edge">
<title>6109&#45;&gt;36905</title>
<path fill="none" stroke="#c0c0c0" stroke-dasharray="1,5" d="M186.782,-92.129C186.782,-82.0737 186.782,-54.7408 186.782,-37.9097"/>
<polygon fill="#c0c0c0" stroke="#c0c0c0" points="190.2821,-37.5459 186.782,-27.5459 183.2821,-37.546 190.2821,-37.5459"/>
<text text-anchor="middle" x="153.719" y="-80.0193" font-family="Arial" font-size="10.00" fill="#000000">Meer en Vaart </text>
<text text-anchor="middle" x="153.719" y="-68.0193" font-family="Arial" font-size="10.00" fill="#000000"> (lijn 369)</text>
</g>
<!-- 36901&#45;&gt;36902 -->
<g id="edge64" class="edge">
<title>36901&#45;&gt;36902</title>
<path fill="none" stroke="#c0c0c0" d="M399.2224,-384C381.7109,-384 304.2741,-384 272.4792,-384"/>
<polygon fill="#c0c0c0" stroke="#c0c0c0" points="272.4772,-380.5001 262.4772,-384 272.4771,-387.5001 272.4772,-380.5001"/>
<text text-anchor="middle" x="299.1873" y="-387" font-family="Arial" font-size="10.00" fill="#000000">Haarlemmerweg</text>
</g>
<!-- 36903 -->
<g id="node66" class="node">
<title>36903</title>
<ellipse fill="#d3d3d3" stroke="#c0c0c0" cx="258.782" cy="-312" rx="3.5" ry="3.5"/>
</g>
<!-- 36902&#45;&gt;36903 -->
<g id="edge65" class="edge">
<title>36902&#45;&gt;36903</title>
<path fill="none" stroke="#c0c0c0" d="M258.782,-380.129C258.782,-370.0737 258.782,-342.7408 258.782,-325.9097"/>
<polygon fill="#c0c0c0" stroke="#c0c0c0" points="262.2821,-325.5459 258.782,-315.5459 255.2821,-325.546 262.2821,-325.5459"/>
<text text-anchor="middle" x="198.209" y="-356.0193" font-family="Arial" font-size="10.00" fill="#000000">Burgemeester de Vlugtlaan</text>
</g>
<!-- 36903&#45;&gt;6104 -->
<g id="edge66" class="edge">
<title>36903&#45;&gt;6104</title>
<path fill="none" stroke="#c0c0c0" d="M255.0329,-312C231.1202,-312 99.5527,-312 56.4552,-312"/>
<polygon fill="#c0c0c0" stroke="#c0c0c0" points="56.301,-308.5001 46.3009,-312 56.3009,-315.5001 56.301,-308.5001"/>
<text text-anchor="middle" x="188.8083" y="-303" font-family="Arial" font-size="10.00" fill="#000000">Antony Moddermanstraat </text>
<text text-anchor="middle" x="188.8083" y="-291" font-family="Arial" font-size="10.00" fill="#000000"> Ruys de Beerenbrouckstraat </text>
<text text-anchor="middle" x="188.8083" y="-279" font-family="Arial" font-size="10.00" fill="#000000"> (lijn 61)</text>
</g>
<!-- 36904 -->
<g id="node67" class="node">
<title>36904</title>
<ellipse fill="#d3d3d3" stroke="#c0c0c0" cx="258.782" cy="-240" rx="3.5" ry="3.5"/>
</g>
<!-- 36903&#45;&gt;36904 -->
<g id="edge67" class="edge">
<title>36903&#45;&gt;36904</title>
<path fill="none" stroke="#c0c0c0" d="M258.782,-308.129C258.782,-298.0737 258.782,-270.7408 258.782,-253.9097"/>
<polygon fill="#c0c0c0" stroke="#c0c0c0" points="262.2821,-253.5459 258.782,-243.5459 255.2821,-253.546 262.2821,-253.5459"/>
<text text-anchor="middle" x="320.7445" y="-296.0193" font-family="Arial" font-size="10.00" fill="#000000">Burgemeester de Vlugtlaan </text>
<text text-anchor="middle" x="320.7445" y="-284.0193" font-family="Arial" font-size="10.00" fill="#000000"> (lijn 369)</text>
</g>
<!-- 36904&#45;&gt;6108 -->
<g id="edge68" class="edge">
<title>36904&#45;&gt;6108</title>
<path fill="none" stroke="#c0c0c0" d="M256.0474,-237.2654C246.4245,-227.6425 213.801,-195.019 196.9873,-178.2053"/>
<polygon fill="#c0c0c0" stroke="#c0c0c0" points="199.0653,-175.3335 189.5193,-170.7373 194.1155,-180.2833 199.0653,-175.3335"/>
<text text-anchor="middle" x="176.5028" y="-222.7353" font-family="Arial" font-size="10.00" fill="#000000">Slotermeerlaan </text>
<text text-anchor="middle" x="176.5028" y="-210.7353" font-family="Arial" font-size="10.00" fill="#000000"> President Allendelaan</text>
</g>
</g>
</svg>

