<?xml version="1.0" encoding="UTF-8" standalone="no"?>
<!DOCTYPE svg PUBLIC "-//W3C//DTD SVG 1.1//EN"
 "http://www.w3.org/Graphics/SVG/1.1/DTD/svg11.dtd">
<!-- Generated by graphviz version 2.40.1 (20161225.0304)
 -->
<!-- Title: G Pages: 1 -->
<svg width="1605pt" height="970pt"
 viewBox="0.00 0.00 1605.33 970.20" xmlns="http://www.w3.org/2000/svg" xmlns:xlink="http://www.w3.org/1999/xlink">
<g id="graph0" class="graph" transform="scale(1 1) rotate(0) translate(4 966.2031)">
<title>G</title>
<polygon fill="#ffffff" stroke="transparent" points="-4,4 -4,-966.2031 1601.3283,-966.2031 1601.3283,4 -4,4"/>
<!-- 1500 -->
<g id="node1" class="node">
<title>1500</title>
<ellipse fill="#d3d3d3" stroke="#c0c0c0" cx="585.8283" cy="-454.7031" rx="25.4216" ry="25.4216"/>
<text text-anchor="middle" x="585.8283" y="-451.7031" font-family="Arial" font-size="10.00" fill="#000000">SLO</text>
</g>
<!-- 1501 -->
<g id="node2" class="node">
<title>1501</title>
<ellipse fill="#d3d3d3" stroke="#c0c0c0" cx="657.8283" cy="-454.7031" rx="3.5" ry="3.5"/>
</g>
<!-- 1500&#45;&gt;1501 -->
<g id="edge1" class="edge">
<title>1500&#45;&gt;1501</title>
<path fill="none" stroke="#c0c0c0" d="M611.4155,-454.7031C622.3086,-454.7031 634.5934,-454.7031 643.7868,-454.7031"/>
<polygon fill="#c0c0c0" stroke="#c0c0c0" points="643.9859,-458.2032 653.9859,-454.7031 643.9859,-451.2032 643.9859,-458.2032"/>
<text text-anchor="middle" x="655.3857" y="-445.7031" font-family="Arial" font-size="10.00" fill="#000000">Arlandaweg </text>
<text text-anchor="middle" x="655.3857" y="-433.7031" font-family="Arial" font-size="10.00" fill="#000000"> (lijn 15)</text>
</g>
<!-- 2201 -->
<g id="node16" class="node">
<title>2201</title>
<ellipse fill="#d3d3d3" stroke="#c0c0c0" cx="441.8283" cy="-454.7031" rx="3.5" ry="3.5"/>
</g>
<!-- 1500&#45;&gt;2201 -->
<g id="edge14" class="edge">
<title>1500&#45;&gt;2201</title>
<path fill="none" stroke="#c0c0c0" d="M560.084,-454.7031C529.6375,-454.7031 480.054,-454.7031 455.9192,-454.7031"/>
<polygon fill="#c0c0c0" stroke="#c0c0c0" points="455.6313,-451.2032 445.6313,-454.7031 455.6313,-458.2032 455.6313,-451.2032"/>
<text text-anchor="middle" x="508.0016" y="-445.7031" font-family="Arial" font-size="10.00" fill="#000000">Arlandaweg </text>
<text text-anchor="middle" x="508.0016" y="-433.7031" font-family="Arial" font-size="10.00" fill="#000000"> (lijn 22, 36, 61, 369)</text>
</g>
<!-- 1502 -->
<g id="node3" class="node">
<title>1502</title>
<ellipse fill="#d3d3d3" stroke="#c0c0c0" cx="657.8283" cy="-382.7031" rx="3.5" ry="3.5"/>
</g>
<!-- 1501&#45;&gt;1502 -->
<g id="edge2" class="edge">
<title>1501&#45;&gt;1502</title>
<path fill="none" stroke="#c0c0c0" d="M657.8283,-450.832C657.8283,-440.7768 657.8283,-413.4439 657.8283,-396.6127"/>
<polygon fill="#c0c0c0" stroke="#c0c0c0" points="661.3284,-396.249 657.8283,-386.249 654.3284,-396.249 661.3284,-396.249"/>
<text text-anchor="middle" x="634.4923" y="-414.7224" font-family="Arial" font-size="10.00" fill="#000000">Kimpoweg</text>
</g>
<!-- 1503 -->
<g id="node4" class="node">
<title>1503</title>
<ellipse fill="#d3d3d3" stroke="#c0c0c0" cx="729.8283" cy="-382.7031" rx="3.5" ry="3.5"/>
</g>
<!-- 1502&#45;&gt;1503 -->
<g id="edge3" class="edge">
<title>1502&#45;&gt;1503</title>
<path fill="none" stroke="#c0c0c0" d="M661.6993,-382.7031C671.7546,-382.7031 699.0875,-382.7031 715.9187,-382.7031"/>
<polygon fill="#c0c0c0" stroke="#c0c0c0" points="716.2824,-386.2032 726.2824,-382.7031 716.2824,-379.2032 716.2824,-386.2032"/>
<text text-anchor="middle" x="688.809" y="-373.7031" font-family="Arial" font-size="10.00" fill="#000000">Haarlemmer&#45;</text>
<text text-anchor="middle" x="688.809" y="-361.7031" font-family="Arial" font-size="10.00" fill="#000000">&#45;weg</text>
</g>
<!-- 1504 -->
<g id="node5" class="node">
<title>1504</title>
<ellipse fill="#d3d3d3" stroke="#c0c0c0" cx="729.8283" cy="-310.7031" rx="3.5" ry="3.5"/>
</g>
<!-- 1503&#45;&gt;1504 -->
<g id="edge4" class="edge">
<title>1503&#45;&gt;1504</title>
<path fill="none" stroke="#c0c0c0" d="M729.8283,-378.832C729.8283,-368.7768 729.8283,-341.4439 729.8283,-324.6127"/>
<polygon fill="#c0c0c0" stroke="#c0c0c0" points="733.3284,-324.249 729.8283,-314.249 726.3284,-324.249 733.3284,-324.249"/>
<text text-anchor="middle" x="702.8783" y="-342.7224" font-family="Arial" font-size="10.00" fill="#000000">Einsteinweg</text>
</g>
<!-- 1505 -->
<g id="node6" class="node">
<title>1505</title>
<ellipse fill="#d3d3d3" stroke="#c0c0c0" cx="801.8283" cy="-310.7031" rx="3.5" ry="3.5"/>
</g>
<!-- 1504&#45;&gt;1505 -->
<g id="edge5" class="edge">
<title>1504&#45;&gt;1505</title>
<path fill="none" stroke="#c0c0c0" d="M733.6994,-310.7031C743.7546,-310.7031 771.0875,-310.7031 787.9187,-310.7031"/>
<polygon fill="#c0c0c0" stroke="#c0c0c0" points="788.2824,-314.2032 798.2824,-310.7031 788.2824,-307.2032 788.2824,-314.2032"/>
<text text-anchor="middle" x="714.9675" y="-301.7031" font-family="Arial" font-size="10.00" fill="#000000">Bos en Lommerplein</text>
</g>
<!-- 1506 -->
<g id="node7" class="node">
<title>1506</title>
<ellipse fill="#d3d3d3" stroke="#c0c0c0" cx="801.8283" cy="-238.7031" rx="3.5" ry="3.5"/>
</g>
<!-- 1505&#45;&gt;1506 -->
<g id="edge6" class="edge">
<title>1505&#45;&gt;1506</title>
<path fill="none" stroke="#c0c0c0" d="M801.8283,-306.832C801.8283,-296.7768 801.8283,-269.4439 801.8283,-252.6127"/>
<polygon fill="#c0c0c0" stroke="#c0c0c0" points="805.3284,-252.249 801.8283,-242.249 798.3284,-252.249 805.3284,-252.249"/>
<text text-anchor="middle" x="779.3223" y="-282.7224" font-family="Arial" font-size="10.00" fill="#000000">Hoofdweg</text>
</g>
<!-- 1507 -->
<g id="node8" class="node">
<title>1507</title>
<ellipse fill="#d3d3d3" stroke="#c0c0c0" cx="729.8283" cy="-238.7031" rx="3.5" ry="3.5"/>
</g>
<!-- 1506&#45;&gt;1507 -->
<g id="edge7" class="edge">
<title>1506&#45;&gt;1507</title>
<path fill="none" stroke="#c0c0c0" d="M797.9573,-238.7031C787.902,-238.7031 760.5691,-238.7031 743.738,-238.7031"/>
<polygon fill="#c0c0c0" stroke="#c0c0c0" points="743.3743,-235.2032 733.3743,-238.7031 743.3742,-242.2032 743.3743,-235.2032"/>
<text text-anchor="middle" x="770.8476" y="-229.7031" font-family="Arial" font-size="10.00" fill="#000000">Surinameplein</text>
</g>
<!-- 1508 -->
<g id="node9" class="node">
<title>1508</title>
<ellipse fill="#d3d3d3" stroke="#c0c0c0" cx="729.8283" cy="-166.7031" rx="3.5" ry="3.5"/>
</g>
<!-- 1507&#45;&gt;1508 -->
<g id="edge8" class="edge">
<title>1507&#45;&gt;1508</title>
<path fill="none" stroke="#c0c0c0" d="M729.8283,-234.832C729.8283,-224.7768 729.8283,-197.4439 729.8283,-180.6127"/>
<polygon fill="#c0c0c0" stroke="#c0c0c0" points="733.3284,-180.249 729.8283,-170.249 726.3284,-180.249 733.3284,-180.249"/>
<text text-anchor="middle" x="678.4428" y="-210.7224" font-family="Arial" font-size="10.00" fill="#000000">Haarlemmermeerstraat</text>
</g>
<!-- 1509 -->
<g id="node10" class="node">
<title>1509</title>
<ellipse fill="#d3d3d3" stroke="#c0c0c0" cx="873.8283" cy="-166.7031" rx="3.5" ry="3.5"/>
</g>
<!-- 1508&#45;&gt;1509 -->
<g id="edge9" class="edge">
<title>1508&#45;&gt;1509</title>
<path fill="none" stroke="#c0c0c0" d="M733.3879,-166.7031C750.8994,-166.7031 828.3362,-166.7031 860.1311,-166.7031"/>
<polygon fill="#c0c0c0" stroke="#c0c0c0" points="860.1332,-170.2032 870.1332,-166.7031 860.1331,-163.2032 860.1332,-170.2032"/>
<text text-anchor="middle" x="833.7115" y="-205.7031" font-family="Arial" font-size="10.00" fill="#000000">Hoofddorp&#45;plein </text>
<text text-anchor="middle" x="833.7115" y="-193.7031" font-family="Arial" font-size="10.00" fill="#000000"> &#45;weg </text>
<text text-anchor="middle" x="833.7115" y="-181.7031" font-family="Arial" font-size="10.00" fill="#000000"> Zeil&#45;brug </text>
<text text-anchor="middle" x="833.7115" y="-169.7031" font-family="Arial" font-size="10.00" fill="#000000"> &#45;straat</text>
</g>
<!-- 1510 -->
<g id="node11" class="node">
<title>1510</title>
<ellipse fill="#d3d3d3" stroke="#c0c0c0" cx="873.8283" cy="-94.7031" rx="3.5" ry="3.5"/>
</g>
<!-- 1509&#45;&gt;1510 -->
<g id="edge10" class="edge">
<title>1509&#45;&gt;1510</title>
<path fill="none" stroke="#c0c0c0" d="M873.8283,-162.832C873.8283,-152.7768 873.8283,-125.4439 873.8283,-108.6127"/>
<polygon fill="#c0c0c0" stroke="#c0c0c0" points="877.3284,-108.249 873.8283,-98.249 870.3284,-108.249 877.3284,-108.249"/>
<text text-anchor="middle" x="822.4483" y="-126.7224" font-family="Arial" font-size="10.00" fill="#000000">Amstelveenseweg </text>
<text text-anchor="middle" x="822.4483" y="-114.7224" font-family="Arial" font-size="10.00" fill="#000000"> (via Haarlemmermeer&#45;</text>
<text text-anchor="middle" x="822.4483" y="-102.7224" font-family="Arial" font-size="10.00" fill="#000000">&#45;station)</text>
</g>
<!-- 1511 -->
<g id="node12" class="node">
<title>1511</title>
<ellipse fill="#d3d3d3" stroke="#c0c0c0" cx="945.8283" cy="-94.7031" rx="3.5" ry="3.5"/>
</g>
<!-- 1510&#45;&gt;1511 -->
<g id="edge11" class="edge">
<title>1510&#45;&gt;1511</title>
<path fill="none" stroke="#c0c0c0" d="M877.6994,-94.7031C887.7546,-94.7031 915.0875,-94.7031 931.9187,-94.7031"/>
<polygon fill="#c0c0c0" stroke="#c0c0c0" points="932.2824,-98.2032 942.2824,-94.7031 932.2824,-91.2032 932.2824,-98.2032"/>
<text text-anchor="middle" x="904.809" y="-85.7031" font-family="Arial" font-size="10.00" fill="#000000">Stadion&#45;plein </text>
<text text-anchor="middle" x="904.809" y="-73.7031" font-family="Arial" font-size="10.00" fill="#000000"> &#45;weg </text>
<text text-anchor="middle" x="904.809" y="-61.7031" font-family="Arial" font-size="10.00" fill="#000000"> Olympiaplein</text>
</g>
<!-- 1512 -->
<g id="node13" class="node">
<title>1512</title>
<ellipse fill="#d3d3d3" stroke="#c0c0c0" cx="945.8283" cy="-22.7031" rx="3.5" ry="3.5"/>
</g>
<!-- 1511&#45;&gt;1512 -->
<g id="edge12" class="edge">
<title>1511&#45;&gt;1512</title>
<path fill="none" stroke="#c0c0c0" d="M945.8283,-90.832C945.8283,-80.7768 945.8283,-53.4439 945.8283,-36.6127"/>
<polygon fill="#c0c0c0" stroke="#c0c0c0" points="949.3284,-36.249 945.8283,-26.249 942.3284,-36.249 949.3284,-36.249"/>
<text text-anchor="middle" x="978.6138" y="-66.7224" font-family="Arial" font-size="10.00" fill="#000000">Parnassusweg</text>
</g>
<!-- 1513 -->
<g id="node14" class="node">
<title>1513</title>
<ellipse fill="#d3d3d3" stroke="#c0c0c0" cx="1089.8283" cy="-22.7031" rx="22.908" ry="22.908"/>
<text text-anchor="middle" x="1089.8283" y="-19.7031" font-family="Arial" font-size="10.00" fill="#000000">ZUI</text>
</g>
<!-- 1512&#45;&gt;1513 -->
<g id="edge13" class="edge">
<title>1512&#45;&gt;1513</title>
<path fill="none" stroke="#c0c0c0" d="M949.3879,-22.7031C963.9729,-22.7031 1020.1277,-22.7031 1056.8593,-22.7031"/>
<polygon fill="#c0c0c0" stroke="#c0c0c0" points="1057.1104,-26.2032 1067.1104,-22.7031 1057.1104,-19.2032 1057.1104,-26.2032"/>
<text text-anchor="middle" x="1019.9308" y="-13.7031" font-family="Arial" font-size="10.00" fill="#000000">Strawinskylaan</text>
</g>
<!-- 2200 -->
<g id="node15" class="node">
<title>2200</title>
<ellipse fill="#d3d3d3" stroke="#c0c0c0" cx="729.8283" cy="-526.7031" rx="3.5" ry="3.5"/>
</g>
<!-- 2203 -->
<g id="node18" class="node">
<title>2203</title>
<ellipse fill="#d3d3d3" stroke="#c0c0c0" cx="801.8283" cy="-526.7031" rx="3.5" ry="3.5"/>
</g>
<!-- 2200&#45;&gt;2203 -->
<g id="edge34" class="edge">
<title>2200&#45;&gt;2203</title>
<path fill="none" stroke="#c0c0c0" d="M733.6994,-526.7031C743.7546,-526.7031 771.0875,-526.7031 787.9187,-526.7031"/>
<polygon fill="#c0c0c0" stroke="#c0c0c0" points="788.2824,-530.2032 798.2824,-526.7031 788.2824,-523.2032 788.2824,-530.2032"/>
<text text-anchor="middle" x="760.809" y="-517.7031" font-family="Arial" font-size="10.00" fill="#000000">Transformator&#45;</text>
<text text-anchor="middle" x="760.809" y="-505.7031" font-family="Arial" font-size="10.00" fill="#000000">&#45;weg </text>
<text text-anchor="middle" x="760.809" y="-493.7031" font-family="Arial" font-size="10.00" fill="#000000"> (lijn 22)</text>
</g>
<!-- 3602 -->
<g id="node35" class="node">
<title>3602</title>
<ellipse fill="#d3d3d3" stroke="#c0c0c0" cx="729.8283" cy="-886.7031" rx="3.5" ry="3.5"/>
</g>
<!-- 2200&#45;&gt;3602 -->
<g id="edge33" class="edge">
<title>2200&#45;&gt;3602</title>
<path fill="none" stroke="#c0c0c0" d="M729.8283,-530.2661C729.8283,-562.9902 729.8283,-811.4805 729.8283,-872.9724"/>
<polygon fill="#c0c0c0" stroke="#c0c0c0" points="726.3284,-873.1109 729.8283,-883.1109 733.3284,-873.1109 726.3284,-873.1109"/>
<text text-anchor="middle" x="701.4888" y="-728.6193" font-family="Arial" font-size="10.00" fill="#000000">Einsteinweg </text>
<text text-anchor="middle" x="701.4888" y="-716.6193" font-family="Arial" font-size="10.00" fill="#000000"> (aka [A10])</text>
<text text-anchor="middle" x="701.4888" y="-704.6193" font-family="Arial" font-size="10.00" fill="#000000"> (lijn 36)</text>
</g>
<!-- 2202 -->
<g id="node17" class="node">
<title>2202</title>
<ellipse fill="#d3d3d3" stroke="#c0c0c0" cx="441.8283" cy="-526.7031" rx="3.5" ry="3.5"/>
</g>
<!-- 2201&#45;&gt;2202 -->
<g id="edge15" class="edge">
<title>2201&#45;&gt;2202</title>
<path fill="none" stroke="#c0c0c0" d="M441.8283,-458.5741C441.8283,-468.6294 441.8283,-495.9623 441.8283,-512.7934"/>
<polygon fill="#c0c0c0" stroke="#c0c0c0" points="438.3284,-513.1571 441.8283,-523.1571 445.3284,-513.1572 438.3284,-513.1571"/>
<text text-anchor="middle" x="415.7153" y="-500.6838" font-family="Arial" font-size="10.00" fill="#000000">Radarweg </text>
<text text-anchor="middle" x="415.7153" y="-488.6838" font-family="Arial" font-size="10.00" fill="#000000"> (lijn 22, 36)</text>
</g>
<!-- 6101 -->
<g id="node54" class="node">
<title>6101</title>
<ellipse fill="#d3d3d3" stroke="#c0c0c0" cx="369.8283" cy="-454.7031" rx="3.5" ry="3.5"/>
</g>
<!-- 2201&#45;&gt;6101 -->
<g id="edge53" class="edge">
<title>2201&#45;&gt;6101</title>
<path fill="none" stroke="#c0c0c0" d="M437.9573,-454.7031C427.902,-454.7031 400.5691,-454.7031 383.738,-454.7031"/>
<polygon fill="#c0c0c0" stroke="#c0c0c0" points="383.3743,-451.2032 373.3742,-454.7031 383.3742,-458.2032 383.3743,-451.2032"/>
<text text-anchor="middle" x="410.8476" y="-445.7031" font-family="Arial" font-size="10.00" fill="#000000">Arlandaweg </text>
<text text-anchor="middle" x="410.8476" y="-433.7031" font-family="Arial" font-size="10.00" fill="#000000"> (lijn 61)</text>
</g>
<!-- 36901 -->
<g id="node64" class="node">
<title>36901</title>
<ellipse fill="#d3d3d3" stroke="#c0c0c0" cx="441.8283" cy="-382.7031" rx="3.5" ry="3.5"/>
</g>
<!-- 2201&#45;&gt;36901 -->
<g id="edge63" class="edge">
<title>2201&#45;&gt;36901</title>
<path fill="none" stroke="#c0c0c0" d="M441.8283,-450.832C441.8283,-440.7768 441.8283,-413.4439 441.8283,-396.6127"/>
<polygon fill="#c0c0c0" stroke="#c0c0c0" points="445.3284,-396.249 441.8283,-386.249 438.3284,-396.249 445.3284,-396.249"/>
<text text-anchor="middle" x="417.6578" y="-414.7224" font-family="Arial" font-size="10.00" fill="#000000">Radarweg </text>
<text text-anchor="middle" x="417.6578" y="-402.7224" font-family="Arial" font-size="10.00" fill="#000000"> (lijn 369)</text>
</g>
<!-- 2202&#45;&gt;2200 -->
<g id="edge16" class="edge">
<title>2202&#45;&gt;2200</title>
<path fill="none" stroke="#c0c0c0" d="M445.4697,-526.7031C474.1033,-526.7031 663.3118,-526.7031 716.1469,-526.7031"/>
<polygon fill="#c0c0c0" stroke="#c0c0c0" points="716.2683,-530.2032 726.2682,-526.7031 716.2682,-523.2032 716.2683,-530.2032"/>
<text text-anchor="middle" x="538.8613" y="-541.7031" font-family="Arial" font-size="10.00" fill="#000000">Basisweg </text>
<text text-anchor="middle" x="538.8613" y="-529.7031" font-family="Arial" font-size="10.00" fill="#000000"> Transformatorweg</text>
</g>
<!-- 2204 -->
<g id="node19" class="node">
<title>2204</title>
<ellipse fill="#d3d3d3" stroke="#c0c0c0" cx="801.8283" cy="-454.7031" rx="3.5" ry="3.5"/>
</g>
<!-- 2203&#45;&gt;2204 -->
<g id="edge17" class="edge">
<title>2203&#45;&gt;2204</title>
<path fill="none" stroke="#c0c0c0" d="M801.8283,-522.832C801.8283,-512.7768 801.8283,-485.4439 801.8283,-468.6127"/>
<polygon fill="#c0c0c0" stroke="#c0c0c0" points="805.3284,-468.249 801.8283,-458.249 798.3284,-468.249 805.3284,-468.249"/>
<text text-anchor="middle" x="839.6068" y="-498.7224" font-family="Arial" font-size="10.00" fill="#000000">Nieuwe Hemweg</text>
</g>
<!-- 2205 -->
<g id="node20" class="node">
<title>2205</title>
<ellipse fill="#d3d3d3" stroke="#c0c0c0" cx="873.8283" cy="-454.7031" rx="3.5" ry="3.5"/>
</g>
<!-- 2204&#45;&gt;2205 -->
<g id="edge18" class="edge">
<title>2204&#45;&gt;2205</title>
<path fill="none" stroke="#c0c0c0" d="M805.6994,-454.7031C815.7546,-454.7031 843.0875,-454.7031 859.9187,-454.7031"/>
<polygon fill="#c0c0c0" stroke="#c0c0c0" points="860.2824,-458.2032 870.2824,-454.7031 860.2824,-451.2032 860.2824,-458.2032"/>
<text text-anchor="middle" x="790.8615" y="-445.7031" font-family="Arial" font-size="10.00" fill="#000000">Spaarndammerdijk</text>
</g>
<!-- 2206 -->
<g id="node21" class="node">
<title>2206</title>
<ellipse fill="#d3d3d3" stroke="#c0c0c0" cx="873.8283" cy="-382.7031" rx="3.5" ry="3.5"/>
</g>
<!-- 2205&#45;&gt;2206 -->
<g id="edge19" class="edge">
<title>2205&#45;&gt;2206</title>
<path fill="none" stroke="#c0c0c0" d="M873.8283,-450.832C873.8283,-440.7768 873.8283,-413.4439 873.8283,-396.6127"/>
<polygon fill="#c0c0c0" stroke="#c0c0c0" points="877.3284,-396.249 873.8283,-386.249 870.3284,-396.249 877.3284,-396.249"/>
<text text-anchor="middle" x="825.4873" y="-414.7224" font-family="Arial" font-size="10.00" fill="#000000">Spaarndammerstraat </text>
<text text-anchor="middle" x="825.4873" y="-402.7224" font-family="Arial" font-size="10.00" fill="#000000"> Westerpark </text>
<text text-anchor="middle" x="825.4873" y="-390.7224" font-family="Arial" font-size="10.00" fill="#000000"> (via Mirakelbrug)</text>
</g>
<!-- 2207 -->
<g id="node22" class="node">
<title>2207</title>
<ellipse fill="#d3d3d3" stroke="#c0c0c0" cx="945.8283" cy="-382.7031" rx="3.5" ry="3.5"/>
</g>
<!-- 2206&#45;&gt;2207 -->
<g id="edge20" class="edge">
<title>2206&#45;&gt;2207</title>
<path fill="none" stroke="#c0c0c0" d="M877.6994,-382.7031C887.7546,-382.7031 915.0875,-382.7031 931.9187,-382.7031"/>
<polygon fill="#c0c0c0" stroke="#c0c0c0" points="932.2824,-386.2032 942.2824,-382.7031 932.2824,-379.2032 932.2824,-386.2032"/>
<text text-anchor="middle" x="904.809" y="-373.7031" font-family="Arial" font-size="10.00" fill="#000000">Willemsbrug</text>
</g>
<!-- 2208 -->
<g id="node23" class="node">
<title>2208</title>
<ellipse fill="#d3d3d3" stroke="#c0c0c0" cx="945.8283" cy="-454.7031" rx="3.5" ry="3.5"/>
</g>
<!-- 2207&#45;&gt;2208 -->
<g id="edge21" class="edge">
<title>2207&#45;&gt;2208</title>
<path fill="none" stroke="#c0c0c0" d="M945.8283,-386.5741C945.8283,-396.6294 945.8283,-423.9623 945.8283,-440.7934"/>
<polygon fill="#c0c0c0" stroke="#c0c0c0" points="942.3284,-441.1571 945.8283,-451.1571 949.3284,-441.1572 942.3284,-441.1571"/>
<text text-anchor="middle" x="983.8808" y="-416.6838" font-family="Arial" font-size="10.00" fill="#000000">Haarlemmerplein</text>
</g>
<!-- 2209 -->
<g id="node24" class="node">
<title>2209</title>
<ellipse fill="#d3d3d3" stroke="#c0c0c0" cx="1161.8283" cy="-454.7031" rx="3.5" ry="3.5"/>
</g>
<!-- 2208&#45;&gt;2209 -->
<g id="edge22" class="edge">
<title>2208&#45;&gt;2209</title>
<path fill="none" stroke="#c0c0c0" d="M949.5774,-454.7031C973.4901,-454.7031 1105.0576,-454.7031 1148.1551,-454.7031"/>
<polygon fill="#c0c0c0" stroke="#c0c0c0" points="1148.3094,-458.2032 1158.3094,-454.7031 1148.3093,-451.2032 1148.3094,-458.2032"/>
<text text-anchor="middle" x="1104.7063" y="-445.7031" font-family="Arial" font-size="10.00" fill="#000000">Tussen de Bogen </text>
<text text-anchor="middle" x="1104.7063" y="-433.7031" font-family="Arial" font-size="10.00" fill="#000000"> Haarlemmer Houttuinen </text>
<text text-anchor="middle" x="1104.7063" y="-421.7031" font-family="Arial" font-size="10.00" fill="#000000"> Nieuwe Westerdokstraat</text>
</g>
<!-- 2210 -->
<g id="node25" class="node">
<title>2210</title>
<ellipse fill="#d3d3d3" stroke="#c0c0c0" cx="1161.8283" cy="-526.7031" rx="3.5" ry="3.5"/>
</g>
<!-- 2209&#45;&gt;2210 -->
<g id="edge23" class="edge">
<title>2209&#45;&gt;2210</title>
<path fill="none" stroke="#c0c0c0" d="M1161.8283,-458.5741C1161.8283,-468.6294 1161.8283,-495.9623 1161.8283,-512.7934"/>
<polygon fill="#c0c0c0" stroke="#c0c0c0" points="1158.3284,-513.1571 1161.8283,-523.1571 1165.3284,-513.1572 1158.3284,-513.1571"/>
<text text-anchor="middle" x="1140.1568" y="-488.6838" font-family="Arial" font-size="10.00" fill="#000000">Droogbak</text>
</g>
<!-- 2211 -->
<g id="node26" class="node">
<title>2211</title>
<ellipse fill="#d3d3d3" stroke="#c0c0c0" cx="1305.8283" cy="-526.7031" rx="3.5" ry="3.5"/>
</g>
<!-- 2210&#45;&gt;2211 -->
<g id="edge24" class="edge">
<title>2210&#45;&gt;2211</title>
<path fill="none" stroke="#c0c0c0" d="M1165.3879,-526.7031C1182.8994,-526.7031 1260.3362,-526.7031 1292.1311,-526.7031"/>
<polygon fill="#c0c0c0" stroke="#c0c0c0" points="1292.1332,-530.2032 1302.1332,-526.7031 1292.1331,-523.2032 1292.1332,-530.2032"/>
<text text-anchor="middle" x="1248.205" y="-517.7031" font-family="Arial" font-size="10.00" fill="#000000">De Ruijterkade </text>
<text text-anchor="middle" x="1248.205" y="-505.7031" font-family="Arial" font-size="10.00" fill="#000000"> (via Centraal St.)</text>
</g>
<!-- 2212 -->
<g id="node27" class="node">
<title>2212</title>
<ellipse fill="#d3d3d3" stroke="#c0c0c0" cx="1305.8283" cy="-454.7031" rx="3.5" ry="3.5"/>
</g>
<!-- 2211&#45;&gt;2212 -->
<g id="edge25" class="edge">
<title>2211&#45;&gt;2212</title>
<path fill="none" stroke="#c0c0c0" d="M1305.8283,-522.832C1305.8283,-512.7768 1305.8283,-485.4439 1305.8283,-468.6127"/>
<polygon fill="#c0c0c0" stroke="#c0c0c0" points="1309.3284,-468.249 1305.8283,-458.249 1302.3284,-468.249 1309.3284,-468.249"/>
<text text-anchor="middle" x="1278.3233" y="-486.7224" font-family="Arial" font-size="10.00" fill="#000000">Kamperbrug</text>
</g>
<!-- 2213 -->
<g id="node28" class="node">
<title>2213</title>
<ellipse fill="#d3d3d3" stroke="#c0c0c0" cx="1377.8283" cy="-454.7031" rx="3.5" ry="3.5"/>
</g>
<!-- 2212&#45;&gt;2213 -->
<g id="edge26" class="edge">
<title>2212&#45;&gt;2213</title>
<path fill="none" stroke="#c0c0c0" d="M1309.6993,-454.7031C1319.7546,-454.7031 1347.0875,-454.7031 1363.9187,-454.7031"/>
<polygon fill="#c0c0c0" stroke="#c0c0c0" points="1364.2824,-458.2032 1374.2824,-454.7031 1364.2823,-451.2032 1364.2824,-458.2032"/>
<text text-anchor="middle" x="1336.809" y="-445.7031" font-family="Arial" font-size="10.00" fill="#000000">Prins Hendrik&#45;</text>
<text text-anchor="middle" x="1336.809" y="-433.7031" font-family="Arial" font-size="10.00" fill="#000000">&#45;kade</text>
</g>
<!-- 2214 -->
<g id="node29" class="node">
<title>2214</title>
<ellipse fill="#d3d3d3" stroke="#c0c0c0" cx="1377.8283" cy="-526.7031" rx="3.5" ry="3.5"/>
</g>
<!-- 2213&#45;&gt;2214 -->
<g id="edge27" class="edge">
<title>2213&#45;&gt;2214</title>
<path fill="none" stroke="#c0c0c0" d="M1377.8283,-458.5741C1377.8283,-468.6294 1377.8283,-495.9623 1377.8283,-512.7934"/>
<polygon fill="#c0c0c0" stroke="#c0c0c0" points="1374.3284,-513.1571 1377.8283,-523.1571 1381.3284,-513.1572 1374.3284,-513.1571"/>
</g>
<!-- 2215 -->
<g id="node30" class="node">
<title>2215</title>
<ellipse fill="#d3d3d3" stroke="#c0c0c0" cx="1521.8283" cy="-526.7031" rx="3.5" ry="3.5"/>
</g>
<!-- 2214&#45;&gt;2215 -->
<g id="edge28" class="edge">
<title>2214&#45;&gt;2215</title>
<path fill="none" stroke="#c0c0c0" d="M1381.3879,-526.7031C1398.8994,-526.7031 1476.3362,-526.7031 1508.1311,-526.7031"/>
<polygon fill="#c0c0c0" stroke="#c0c0c0" points="1508.1332,-530.2032 1518.1332,-526.7031 1508.1331,-523.2032 1508.1332,-530.2032"/>
<text text-anchor="middle" x="1468.3775" y="-517.7031" font-family="Arial" font-size="10.00" fill="#000000">Kattenburger&#45;plein </text>
<text text-anchor="middle" x="1468.3775" y="-505.7031" font-family="Arial" font-size="10.00" fill="#000000"> &#45; gracht </text>
<text text-anchor="middle" x="1468.3775" y="-493.7031" font-family="Arial" font-size="10.00" fill="#000000"> Wittenburgergracht </text>
<text text-anchor="middle" x="1468.3775" y="-481.7031" font-family="Arial" font-size="10.00" fill="#000000"> Oostenburgergracht </text>
<text text-anchor="middle" x="1468.3775" y="-469.7031" font-family="Arial" font-size="10.00" fill="#000000"> Cruquiuskade</text>
</g>
<!-- 2216 -->
<g id="node31" class="node">
<title>2216</title>
<ellipse fill="#d3d3d3" stroke="#c0c0c0" cx="1521.8283" cy="-454.7031" rx="3.5" ry="3.5"/>
</g>
<!-- 2215&#45;&gt;2216 -->
<g id="edge29" class="edge">
<title>2215&#45;&gt;2216</title>
<path fill="none" stroke="#c0c0c0" d="M1521.8283,-522.832C1521.8283,-512.7768 1521.8283,-485.4439 1521.8283,-468.6127"/>
<polygon fill="#c0c0c0" stroke="#c0c0c0" points="1525.3284,-468.249 1521.8283,-458.249 1518.3284,-468.249 1525.3284,-468.249"/>
<text text-anchor="middle" x="1549.8933" y="-498.7224" font-family="Arial" font-size="10.00" fill="#000000">Panamalaan</text>
</g>
<!-- 2217 -->
<g id="node32" class="node">
<title>2217</title>
<ellipse fill="#d3d3d3" stroke="#c0c0c0" cx="1593.8283" cy="-454.7031" rx="3.5" ry="3.5"/>
</g>
<!-- 2216&#45;&gt;2217 -->
<g id="edge30" class="edge">
<title>2216&#45;&gt;2217</title>
<path fill="none" stroke="#c0c0c0" d="M1525.6993,-454.7031C1535.7546,-454.7031 1563.0875,-454.7031 1579.9187,-454.7031"/>
<polygon fill="#c0c0c0" stroke="#c0c0c0" points="1580.2824,-458.2032 1590.2824,-454.7031 1580.2823,-451.2032 1580.2824,-458.2032"/>
<text text-anchor="middle" x="1552.809" y="-445.7031" font-family="Arial" font-size="10.00" fill="#000000">Zeeburgerdijk</text>
</g>
<!-- 2218 -->
<g id="node33" class="node">
<title>2218</title>
<ellipse fill="#d3d3d3" stroke="#c0c0c0" cx="1593.8283" cy="-382.7031" rx="3.5" ry="3.5"/>
</g>
<!-- 2217&#45;&gt;2218 -->
<g id="edge31" class="edge">
<title>2217&#45;&gt;2218</title>
<path fill="none" stroke="#c0c0c0" d="M1593.8283,-450.832C1593.8283,-440.7768 1593.8283,-413.4439 1593.8283,-396.6127"/>
<polygon fill="#c0c0c0" stroke="#c0c0c0" points="1597.3284,-396.249 1593.8283,-386.249 1590.3284,-396.249 1597.3284,-396.249"/>
<text text-anchor="middle" x="1559.9338" y="-426.7224" font-family="Arial" font-size="10.00" fill="#000000">Molukkenstraat</text>
</g>
<!-- 2219 -->
<g id="node34" class="node">
<title>2219</title>
<ellipse fill="#d3d3d3" stroke="#c0c0c0" cx="1449.8283" cy="-382.7031" rx="24.0478" ry="24.0478"/>
<text text-anchor="middle" x="1449.8283" y="-379.7031" font-family="Arial" font-size="10.00" fill="#000000">MUI</text>
</g>
<!-- 2218&#45;&gt;2219 -->
<g id="edge32" class="edge">
<title>2218&#45;&gt;2219</title>
<path fill="none" stroke="#c0c0c0" d="M1590.2687,-382.7031C1575.9202,-382.7031 1521.3392,-382.7031 1484.5994,-382.7031"/>
<polygon fill="#c0c0c0" stroke="#c0c0c0" points="1484.2967,-379.2032 1474.2967,-382.7031 1484.2967,-386.2032 1484.2967,-379.2032"/>
<text text-anchor="middle" x="1508.2596" y="-385.7031" font-family="Arial" font-size="10.00" fill="#000000">Insulindeweg</text>
</g>
<!-- 3603 -->
<g id="node36" class="node">
<title>3603</title>
<ellipse fill="#d3d3d3" stroke="#c0c0c0" cx="873.8283" cy="-958.7031" rx="3.5" ry="3.5"/>
</g>
<!-- 3602&#45;&gt;3603 -->
<g id="edge35" class="edge">
<title>3602&#45;&gt;3603</title>
<path fill="none" stroke="#c0c0c0" d="M733.1065,-888.3422C750.2568,-896.9173 830.0524,-936.8151 861.2656,-952.4217"/>
<polygon fill="#c0c0c0" stroke="#c0c0c0" points="860.1082,-955.7561 870.6177,-957.0978 863.2387,-949.4951 860.1082,-955.7561"/>
<text text-anchor="middle" x="754.1266" y="-935.3819" font-family="Arial" font-size="10.00" fill="#000000">[A10] </text>
<text text-anchor="middle" x="754.1266" y="-923.3819" font-family="Arial" font-size="10.00" fill="#000000"> Afrit (18): Tuindorp</text>
</g>
<!-- 3604 -->
<g id="node37" class="node">
<title>3604</title>
<ellipse fill="#d3d3d3" stroke="#c0c0c0" cx="873.8283" cy="-886.7031" rx="3.5" ry="3.5"/>
</g>
<!-- 3603&#45;&gt;3604 -->
<g id="edge36" class="edge">
<title>3603&#45;&gt;3604</title>
<path fill="none" stroke="#c0c0c0" d="M873.8283,-954.832C873.8283,-944.7768 873.8283,-917.4439 873.8283,-900.6127"/>
<polygon fill="#c0c0c0" stroke="#c0c0c0" points="877.3284,-900.249 873.8283,-890.249 870.3284,-900.249 877.3284,-900.249"/>
<text text-anchor="middle" x="923.5628" y="-930.7224" font-family="Arial" font-size="10.00" fill="#000000">Verlengde Stellingweg</text>
</g>
<!-- 3605 -->
<g id="node38" class="node">
<title>3605</title>
<ellipse fill="#d3d3d3" stroke="#c0c0c0" cx="801.8283" cy="-886.7031" rx="3.5" ry="3.5"/>
</g>
<!-- 3604&#45;&gt;3605 -->
<g id="edge37" class="edge">
<title>3604&#45;&gt;3605</title>
<path fill="none" stroke="#c0c0c0" d="M859.859,-886.7031C847.0931,-886.7031 828.3224,-886.7031 815.6144,-886.7031"/>
<polygon fill="#c0c0c0" stroke="#c0c0c0" points="859.9573,-890.2032 869.9573,-886.7031 859.9572,-883.2032 859.9573,-890.2032"/>
<polygon fill="#c0c0c0" stroke="#c0c0c0" points="815.3743,-883.2032 805.3743,-886.7031 815.3742,-890.2032 815.3743,-883.2032"/>
<text text-anchor="middle" x="837.7367" y="-877.7031" font-family="Arial" font-size="10.00" fill="#000000">Molenaarsweg</text>
</g>
<!-- 3606 -->
<g id="node39" class="node">
<title>3606</title>
<ellipse fill="#d3d3d3" stroke="#c0c0c0" cx="873.8283" cy="-814.7031" rx=".5" ry=".5"/>
</g>
<!-- 3604&#45;&gt;3606 -->
<g id="edge38" class="edge">
<title>3604&#45;&gt;3606</title>
<path fill="none" stroke="#c0c0c0" d="M873.8283,-882.832C873.8283,-872.0976 873.8283,-841.673 873.8283,-825.3548"/>
<polygon fill="#c0c0c0" stroke="#c0c0c0" points="877.3284,-825.3039 873.8283,-815.3039 870.3284,-825.3039 877.3284,-825.3039"/>
<text text-anchor="middle" x="848.2688" y="-857.0934" font-family="Arial" font-size="10.00" fill="#000000">Stellingweg</text>
</g>
<!-- 3607 -->
<g id="node40" class="node">
<title>3607</title>
<ellipse fill="#d3d3d3" stroke="#c0c0c0" cx="945.8283" cy="-814.7031" rx="3.5" ry="3.5"/>
</g>
<!-- 3606&#45;&gt;3607 -->
<g id="edge39" class="edge">
<title>3606&#45;&gt;3607</title>
<path fill="none" stroke="#c0c0c0" d="M874.6369,-814.7031C880.1625,-814.7031 912.7075,-814.7031 931.8269,-814.7031"/>
<polygon fill="#c0c0c0" stroke="#c0c0c0" points="932.0335,-818.2032 942.0334,-814.7031 932.0334,-811.2032 932.0335,-818.2032"/>
</g>
<!-- 3608 -->
<g id="node41" class="node">
<title>3608</title>
<ellipse fill="#d3d3d3" stroke="#c0c0c0" cx="945.8283" cy="-886.7031" rx="3.5" ry="3.5"/>
</g>
<!-- 3607&#45;&gt;3608 -->
<g id="edge40" class="edge">
<title>3607&#45;&gt;3608</title>
<path fill="none" stroke="#c0c0c0" d="M945.8283,-828.6724C945.8283,-841.4383 945.8283,-860.209 945.8283,-872.917"/>
<polygon fill="#c0c0c0" stroke="#c0c0c0" points="949.3284,-828.5741 945.8283,-818.5741 942.3284,-828.5741 949.3284,-828.5741"/>
<polygon fill="#c0c0c0" stroke="#c0c0c0" points="942.3284,-873.1571 945.8283,-883.1571 949.3284,-873.1572 942.3284,-873.1571"/>
<text text-anchor="middle" x="920.2688" y="-853.7947" font-family="Arial" font-size="10.00" fill="#000000">Stellingweg</text>
</g>
<!-- 3609 -->
<g id="node42" class="node">
<title>3609</title>
<ellipse fill="#d3d3d3" stroke="#c0c0c0" cx="945.8283" cy="-742.7031" rx="3.5" ry="3.5"/>
</g>
<!-- 3607&#45;&gt;3609 -->
<g id="edge41" class="edge">
<title>3607&#45;&gt;3609</title>
<path fill="none" stroke="#c0c0c0" d="M945.8283,-810.832C945.8283,-800.7768 945.8283,-773.4439 945.8283,-756.6127"/>
<polygon fill="#c0c0c0" stroke="#c0c0c0" points="949.3284,-756.249 945.8283,-746.249 942.3284,-756.249 949.3284,-756.249"/>
<text text-anchor="middle" x="913.3193" y="-798.7224" font-family="Arial" font-size="10.00" fill="#000000">Appelweg </text>
<text text-anchor="middle" x="913.3193" y="-786.7224" font-family="Arial" font-size="10.00" fill="#000000"> Pomonastraat</text>
</g>
<!-- 3610 -->
<g id="node43" class="node">
<title>3610</title>
<ellipse fill="#d3d3d3" stroke="#c0c0c0" cx="1017.8283" cy="-742.7031" rx="3.5" ry="3.5"/>
</g>
<!-- 3609&#45;&gt;3610 -->
<g id="edge42" class="edge">
<title>3609&#45;&gt;3610</title>
<path fill="none" stroke="#c0c0c0" d="M949.6993,-742.7031C959.7546,-742.7031 987.0875,-742.7031 1003.9187,-742.7031"/>
<polygon fill="#c0c0c0" stroke="#c0c0c0" points="1004.2824,-746.2032 1014.2824,-742.7031 1004.2823,-739.2032 1004.2824,-746.2032"/>
<text text-anchor="middle" x="976.809" y="-733.7031" font-family="Arial" font-size="10.00" fill="#000000">Werktuigstraat</text>
</g>
<!-- 3611 -->
<g id="node44" class="node">
<title>3611</title>
<ellipse fill="#d3d3d3" stroke="#c0c0c0" cx="1017.8283" cy="-670.7031" rx="3.5" ry="3.5"/>
</g>
<!-- 3610&#45;&gt;3611 -->
<g id="edge43" class="edge">
<title>3610&#45;&gt;3611</title>
<path fill="none" stroke="#c0c0c0" d="M1017.8283,-738.832C1017.8283,-728.7768 1017.8283,-701.4439 1017.8283,-684.6127"/>
<polygon fill="#c0c0c0" stroke="#c0c0c0" points="1021.3284,-684.249 1017.8283,-674.249 1014.3284,-684.249 1021.3284,-684.249"/>
<text text-anchor="middle" x="977.2593" y="-714.7224" font-family="Arial" font-size="10.00" fill="#000000">Scheepsbouwweg</text>
</g>
<!-- 3612 -->
<g id="node45" class="node">
<title>3612</title>
<ellipse fill="#d3d3d3" stroke="#c0c0c0" cx="1089.8283" cy="-670.7031" rx="3.5" ry="3.5"/>
</g>
<!-- 3611&#45;&gt;3612 -->
<g id="edge44" class="edge">
<title>3611&#45;&gt;3612</title>
<path fill="none" stroke="#c0c0c0" d="M1021.6993,-670.7031C1031.7546,-670.7031 1059.0875,-670.7031 1075.9187,-670.7031"/>
<polygon fill="#c0c0c0" stroke="#c0c0c0" points="1076.2824,-674.2032 1086.2824,-670.7031 1076.2823,-667.2032 1076.2824,-674.2032"/>
<text text-anchor="middle" x="1048.809" y="-661.7031" font-family="Arial" font-size="10.00" fill="#000000">Strekkerweg</text>
</g>
<!-- 3613 -->
<g id="node46" class="node">
<title>3613</title>
<ellipse fill="#d3d3d3" stroke="#c0c0c0" cx="1089.8283" cy="-598.7031" rx="3.5" ry="3.5"/>
</g>
<!-- 3612&#45;&gt;3613 -->
<g id="edge45" class="edge">
<title>3612&#45;&gt;3613</title>
<path fill="none" stroke="#c0c0c0" d="M1089.8283,-666.832C1089.8283,-656.7768 1089.8283,-629.4439 1089.8283,-612.6127"/>
<polygon fill="#c0c0c0" stroke="#c0c0c0" points="1093.3284,-612.249 1089.8283,-602.249 1086.3284,-612.249 1093.3284,-612.249"/>
<text text-anchor="middle" x="1070.1063" y="-642.7224" font-family="Arial" font-size="10.00" fill="#000000">Atatürk</text>
</g>
<!-- 3614 -->
<g id="node47" class="node">
<title>3614</title>
<ellipse fill="#d3d3d3" stroke="#c0c0c0" cx="1161.8283" cy="-598.7031" rx="3.5" ry="3.5"/>
</g>
<!-- 3613&#45;&gt;3614 -->
<g id="edge46" class="edge">
<title>3613&#45;&gt;3614</title>
<path fill="none" stroke="#c0c0c0" d="M1093.6993,-598.7031C1103.7546,-598.7031 1131.0875,-598.7031 1147.9187,-598.7031"/>
<polygon fill="#c0c0c0" stroke="#c0c0c0" points="1148.2824,-602.2032 1158.2824,-598.7031 1148.2823,-595.2032 1148.2824,-602.2032"/>
<text text-anchor="middle" x="1120.809" y="-589.7031" font-family="Arial" font-size="10.00" fill="#000000">Klaprozenweg</text>
</g>
<!-- 3615 -->
<g id="node48" class="node">
<title>3615</title>
<ellipse fill="#d3d3d3" stroke="#c0c0c0" cx="1161.8283" cy="-634.7031" rx="3.5" ry="3.5"/>
</g>
<!-- 3614&#45;&gt;3615 -->
<g id="edge47" class="edge">
<title>3614&#45;&gt;3615</title>
<path fill="none" stroke="#c0c0c0" d="M1161.8283,-602.2865C1161.8283,-606.5548 1161.8283,-613.9444 1161.8283,-620.5912"/>
<polygon fill="#c0c0c0" stroke="#c0c0c0" points="1158.3284,-620.9185 1161.8283,-630.9185 1165.3284,-620.9185 1158.3284,-620.9185"/>
<text text-anchor="middle" x="1141.2723" y="-614.4388" font-family="Arial" font-size="10.00" fill="#000000">Floraweg</text>
</g>
<!-- 3616 -->
<g id="node49" class="node">
<title>3616</title>
<ellipse fill="#d3d3d3" stroke="#c0c0c0" cx="1233.8283" cy="-670.7031" rx="3.5" ry="3.5"/>
</g>
<!-- 3615&#45;&gt;3616 -->
<g id="edge48" class="edge">
<title>3615&#45;&gt;3616</title>
<path fill="none" stroke="#c0c0c0" d="M1165.301,-636.4394C1175.252,-641.4149 1204.2382,-655.908 1221.1551,-664.3665"/>
<polygon fill="#c0c0c0" stroke="#c0c0c0" points="1220.0469,-667.7254 1230.5564,-669.0671 1223.1774,-661.4644 1220.0469,-667.7254"/>
<text text-anchor="middle" x="1172.6721" y="-653.403" font-family="Arial" font-size="10.00" fill="#000000">Floraweg</text>
</g>
<!-- 3617 -->
<g id="node50" class="node">
<title>3617</title>
<ellipse fill="#d3d3d3" stroke="#c0c0c0" cx="1161.8283" cy="-742.7031" rx="3.5" ry="3.5"/>
</g>
<!-- 3616&#45;&gt;3617 -->
<g id="edge49" class="edge">
<title>3616&#45;&gt;3617</title>
<path fill="none" stroke="#c0c0c0" d="M1231.0937,-673.4376C1221.4708,-683.0606 1188.8473,-715.6841 1172.0336,-732.4978"/>
<polygon fill="#c0c0c0" stroke="#c0c0c0" points="1169.1618,-730.4198 1164.5656,-739.9658 1174.1116,-735.3696 1169.1618,-730.4198"/>
<text text-anchor="middle" x="1162.9462" y="-705.9677" font-family="Arial" font-size="10.00" fill="#000000">Kamperfoelieweg</text>
</g>
<!-- 3618 -->
<g id="node51" class="node">
<title>3618</title>
<ellipse fill="#d3d3d3" stroke="#c0c0c0" cx="1089.8283" cy="-742.7031" rx=".5" ry=".5"/>
</g>
<!-- 3617&#45;&gt;3618 -->
<g id="edge50" class="edge">
<title>3617&#45;&gt;3618</title>
<path fill="none" stroke="#c0c0c0" d="M1157.9573,-742.7031C1147.2229,-742.7031 1116.7983,-742.7031 1100.48,-742.7031"/>
<polygon fill="#c0c0c0" stroke="#c0c0c0" points="1100.4292,-739.2032 1090.4291,-742.7031 1100.4291,-746.2032 1100.4292,-739.2032"/>
<text text-anchor="middle" x="1083.6471" y="-733.7031" font-family="Arial" font-size="10.00" fill="#000000">Banne Buikslootlaan</text>
</g>
<!-- 3619 -->
<g id="node52" class="node">
<title>3619</title>
<ellipse fill="#d3d3d3" stroke="#c0c0c0" cx="1089.8283" cy="-814.7031" rx="3.5" ry="3.5"/>
</g>
<!-- 3618&#45;&gt;3619 -->
<g id="edge51" class="edge">
<title>3618&#45;&gt;3619</title>
<path fill="none" stroke="#c0c0c0" d="M1089.8283,-743.5117C1089.8283,-749.0373 1089.8283,-781.5823 1089.8283,-800.7017"/>
<polygon fill="#c0c0c0" stroke="#c0c0c0" points="1086.3284,-800.9082 1089.8283,-810.9082 1093.3284,-800.9082 1086.3284,-800.9082"/>
</g>
<!-- 3620 -->
<g id="node53" class="node">
<title>3620</title>
<ellipse fill="#d3d3d3" stroke="#c0c0c0" cx="1233.8283" cy="-814.7031" rx="26.7557" ry="26.7557"/>
<text text-anchor="middle" x="1233.8283" y="-811.7031" font-family="Arial" font-size="10.00" fill="#000000">NRD</text>
</g>
<!-- 3619&#45;&gt;3620 -->
<g id="edge52" class="edge">
<title>3619&#45;&gt;3620</title>
<path fill="none" stroke="#c0c0c0" d="M1093.3879,-814.7031C1107.421,-814.7031 1159.9377,-814.7031 1196.6096,-814.7031"/>
<polygon fill="#c0c0c0" stroke="#c0c0c0" points="1196.9541,-818.2032 1206.9541,-814.7031 1196.9541,-811.2032 1196.9541,-818.2032"/>
<text text-anchor="middle" x="1171.1187" y="-817.7031" font-family="Arial" font-size="10.00" fill="#000000">IJdoornlaan</text>
</g>
<!-- 6102 -->
<g id="node55" class="node">
<title>6102</title>
<ellipse fill="#d3d3d3" stroke="#c0c0c0" cx="369.8283" cy="-526.7031" rx="3.5" ry="3.5"/>
</g>
<!-- 6101&#45;&gt;6102 -->
<g id="edge54" class="edge">
<title>6101&#45;&gt;6102</title>
<path fill="none" stroke="#c0c0c0" d="M369.8283,-458.5741C369.8283,-468.6294 369.8283,-495.9623 369.8283,-512.7934"/>
<polygon fill="#c0c0c0" stroke="#c0c0c0" points="366.3284,-513.1571 369.8283,-523.1571 373.3284,-513.1572 366.3284,-513.1571"/>
<text text-anchor="middle" x="343.7128" y="-488.6838" font-family="Arial" font-size="10.00" fill="#000000">Barajasweg</text>
</g>
<!-- 6103 -->
<g id="node56" class="node">
<title>6103</title>
<ellipse fill="#d3d3d3" stroke="#c0c0c0" cx="297.8283" cy="-526.7031" rx="3.5" ry="3.5"/>
</g>
<!-- 6102&#45;&gt;6103 -->
<g id="edge55" class="edge">
<title>6102&#45;&gt;6103</title>
<path fill="none" stroke="#c0c0c0" d="M365.9573,-526.7031C355.902,-526.7031 328.5691,-526.7031 311.738,-526.7031"/>
<polygon fill="#c0c0c0" stroke="#c0c0c0" points="311.3743,-523.2032 301.3742,-526.7031 311.3742,-530.2032 311.3743,-523.2032"/>
<text text-anchor="middle" x="338.8476" y="-517.7031" font-family="Arial" font-size="10.00" fill="#000000">Naritaweg</text>
</g>
<!-- 36902 -->
<g id="node65" class="node">
<title>36902</title>
<ellipse fill="#d3d3d3" stroke="#c0c0c0" cx="297.8283" cy="-382.7031" rx="3.5" ry="3.5"/>
</g>
<!-- 6103&#45;&gt;36902 -->
<g id="edge56" class="edge">
<title>6103&#45;&gt;36902</title>
<path fill="none" stroke="#c0c0c0" d="M297.8283,-523.1435C297.8283,-505.632 297.8283,-428.1952 297.8283,-396.4003"/>
<polygon fill="#c0c0c0" stroke="#c0c0c0" points="301.3284,-396.3982 297.8283,-386.3982 294.3284,-396.3983 301.3284,-396.3982"/>
<text text-anchor="middle" x="275.8773" y="-462.7719" font-family="Arial" font-size="10.00" fill="#000000">Seineweg</text>
</g>
<!-- 6104 -->
<g id="node57" class="node">
<title>6104</title>
<ellipse fill="#d3d3d3" stroke="#c0c0c0" cx="81.8283" cy="-310.7031" rx="3.5" ry="3.5"/>
</g>
<!-- 6105 -->
<g id="node58" class="node">
<title>6105</title>
<ellipse fill="#d3d3d3" stroke="#c0c0c0" cx="81.8283" cy="-238.7031" rx="3.5" ry="3.5"/>
</g>
<!-- 6104&#45;&gt;6105 -->
<g id="edge57" class="edge">
<title>6104&#45;&gt;6105</title>
<path fill="none" stroke="#c0c0c0" d="M81.8283,-306.832C81.8283,-296.7768 81.8283,-269.4439 81.8283,-252.6127"/>
<polygon fill="#c0c0c0" stroke="#c0c0c0" points="85.3284,-252.249 81.8283,-242.249 78.3284,-252.249 85.3284,-252.249"/>
<text text-anchor="middle" x="49.5993" y="-282.7224" font-family="Arial" font-size="10.00" fill="#000000">Aalbersestraat</text>
</g>
<!-- 6106 -->
<g id="node59" class="node">
<title>6106</title>
<ellipse fill="#d3d3d3" stroke="#c0c0c0" cx="153.8283" cy="-238.7031" rx="3.5" ry="3.5"/>
</g>
<!-- 6105&#45;&gt;6106 -->
<g id="edge58" class="edge">
<title>6105&#45;&gt;6106</title>
<path fill="none" stroke="#c0c0c0" d="M85.6993,-238.7031C95.7546,-238.7031 123.0875,-238.7031 139.9187,-238.7031"/>
<polygon fill="#c0c0c0" stroke="#c0c0c0" points="140.2824,-242.2032 150.2824,-238.7031 140.2823,-235.2032 140.2824,-242.2032"/>
<text text-anchor="middle" x="56.4045" y="-229.7031" font-family="Arial" font-size="10.00" fill="#000000">De Savornin Lohmanlaan</text>
</g>
<!-- 6107 -->
<g id="node60" class="node">
<title>6107</title>
<ellipse fill="#d3d3d3" stroke="#c0c0c0" cx="153.8283" cy="-166.7031" rx="3.5" ry="3.5"/>
</g>
<!-- 6106&#45;&gt;6107 -->
<g id="edge59" class="edge">
<title>6106&#45;&gt;6107</title>
<path fill="none" stroke="#c0c0c0" d="M153.8283,-234.832C153.8283,-224.7768 153.8283,-197.4439 153.8283,-180.6127"/>
<polygon fill="#c0c0c0" stroke="#c0c0c0" points="157.3284,-180.249 153.8283,-170.249 150.3284,-180.249 157.3284,-180.249"/>
<text text-anchor="middle" x="124.6593" y="-210.7224" font-family="Arial" font-size="10.00" fill="#000000">Troelstralaan</text>
</g>
<!-- 6108 -->
<g id="node61" class="node">
<title>6108</title>
<ellipse fill="#d3d3d3" stroke="#c0c0c0" cx="225.8283" cy="-166.7031" rx="3.5" ry="3.5"/>
</g>
<!-- 6107&#45;&gt;6108 -->
<g id="edge60" class="edge">
<title>6107&#45;&gt;6108</title>
<path fill="none" stroke="#c0c0c0" d="M157.6993,-166.7031C167.7546,-166.7031 195.0875,-166.7031 211.9187,-166.7031"/>
<polygon fill="#c0c0c0" stroke="#c0c0c0" points="212.2824,-170.2032 222.2824,-166.7031 212.2823,-163.2032 212.2824,-170.2032"/>
<text text-anchor="middle" x="184.809" y="-157.7031" font-family="Arial" font-size="10.00" fill="#000000">Ookmeerweg</text>
</g>
<!-- 6109 -->
<g id="node62" class="node">
<title>6109</title>
<ellipse fill="#d3d3d3" stroke="#c0c0c0" cx="225.8283" cy="-94.7031" rx="3.5" ry="3.5"/>
</g>
<!-- 6108&#45;&gt;6109 -->
<g id="edge61" class="edge">
<title>6108&#45;&gt;6109</title>
<path fill="none" stroke="#c0c0c0" d="M225.8283,-162.832C225.8283,-152.7768 225.8283,-125.4439 225.8283,-108.6127"/>
<polygon fill="#c0c0c0" stroke="#c0c0c0" points="229.3284,-108.249 225.8283,-98.249 222.3284,-108.249 229.3284,-108.249"/>
<text text-anchor="middle" x="194.1548" y="-138.7224" font-family="Arial" font-size="10.00" fill="#000000">Meer en Vaart</text>
</g>
<!-- 6110 -->
<g id="node63" class="node">
<title>6110</title>
<ellipse fill="#d3d3d3" stroke="#c0c0c0" cx="81.8283" cy="-94.7031" rx="26.7699" ry="26.7699"/>
<text text-anchor="middle" x="81.8283" y="-91.7031" font-family="Arial" font-size="10.00" fill="#000000">OSD</text>
</g>
<!-- 6109&#45;&gt;6110 -->
<g id="edge62" class="edge">
<title>6109&#45;&gt;6110</title>
<path fill="none" stroke="#c0c0c0" d="M222.2687,-94.7031C208.2356,-94.7031 155.719,-94.7031 119.047,-94.7031"/>
<polygon fill="#c0c0c0" stroke="#c0c0c0" points="118.7025,-91.2032 108.7025,-94.7031 118.7025,-98.2032 118.7025,-91.2032"/>
<text text-anchor="middle" x="142.3184" y="-109.7031" font-family="Arial" font-size="10.00" fill="#000000">Osdorpplein </text>
<text text-anchor="middle" x="142.3184" y="-97.7031" font-family="Arial" font-size="10.00" fill="#000000"> (lijn 61)</text>
</g>
<!-- 36905 -->
<g id="node68" class="node">
<title>36905</title>
<ellipse fill="#d3d3d3" stroke="#c0c0c0" cx="225.8283" cy="-22.7031" rx="3.5" ry="3.5"/>
</g>
<!-- 6109&#45;&gt;36905 -->
<g id="edge69" class="edge">
<title>6109&#45;&gt;36905</title>
<path fill="none" stroke="#c0c0c0" stroke-dasharray="1,5" d="M225.8283,-90.832C225.8283,-80.7768 225.8283,-53.4439 225.8283,-36.6127"/>
<polygon fill="#c0c0c0" stroke="#c0c0c0" points="229.3284,-36.249 225.8283,-26.249 222.3284,-36.249 229.3284,-36.249"/>
<text text-anchor="middle" x="192.7653" y="-78.7224" font-family="Arial" font-size="10.00" fill="#000000">Meer en Vaart </text>
<text text-anchor="middle" x="192.7653" y="-66.7224" font-family="Arial" font-size="10.00" fill="#000000"> (lijn 369)</text>
</g>
<!-- 36901&#45;&gt;36902 -->
<g id="edge64" class="edge">
<title>36901&#45;&gt;36902</title>
<path fill="none" stroke="#c0c0c0" d="M438.2687,-382.7031C420.7572,-382.7031 343.3204,-382.7031 311.5255,-382.7031"/>
<polygon fill="#c0c0c0" stroke="#c0c0c0" points="311.5235,-379.2032 301.5235,-382.7031 311.5234,-386.2032 311.5235,-379.2032"/>
<text text-anchor="middle" x="338.2336" y="-385.7031" font-family="Arial" font-size="10.00" fill="#000000">Haarlemmerweg</text>
</g>
<!-- 36903 -->
<g id="node66" class="node">
<title>36903</title>
<ellipse fill="#d3d3d3" stroke="#c0c0c0" cx="297.8283" cy="-310.7031" rx="3.5" ry="3.5"/>
</g>
<!-- 36902&#45;&gt;36903 -->
<g id="edge65" class="edge">
<title>36902&#45;&gt;36903</title>
<path fill="none" stroke="#c0c0c0" d="M297.8283,-378.832C297.8283,-368.7768 297.8283,-341.4439 297.8283,-324.6127"/>
<polygon fill="#c0c0c0" stroke="#c0c0c0" points="301.3284,-324.249 297.8283,-314.249 294.3284,-324.249 301.3284,-324.249"/>
<text text-anchor="middle" x="237.2553" y="-354.7224" font-family="Arial" font-size="10.00" fill="#000000">Burgemeester de Vlugtlaan</text>
</g>
<!-- 36903&#45;&gt;6104 -->
<g id="edge66" class="edge">
<title>36903&#45;&gt;6104</title>
<path fill="none" stroke="#c0c0c0" d="M294.0792,-310.7031C270.1665,-310.7031 138.599,-310.7031 95.5015,-310.7031"/>
<polygon fill="#c0c0c0" stroke="#c0c0c0" points="95.3473,-307.2032 85.3472,-310.7031 95.3472,-314.2032 95.3473,-307.2032"/>
<text text-anchor="middle" x="227.8546" y="-301.7031" font-family="Arial" font-size="10.00" fill="#000000">Antony Moddermanstraat </text>
<text text-anchor="middle" x="227.8546" y="-289.7031" font-family="Arial" font-size="10.00" fill="#000000"> Ruys de Beerenbrouckstraat </text>
<text text-anchor="middle" x="227.8546" y="-277.7031" font-family="Arial" font-size="10.00" fill="#000000"> (lijn 61)</text>
</g>
<!-- 36904 -->
<g id="node67" class="node">
<title>36904</title>
<ellipse fill="#d3d3d3" stroke="#c0c0c0" cx="297.8283" cy="-238.7031" rx="3.5" ry="3.5"/>
</g>
<!-- 36903&#45;&gt;36904 -->
<g id="edge67" class="edge">
<title>36903&#45;&gt;36904</title>
<path fill="none" stroke="#c0c0c0" d="M297.8283,-306.832C297.8283,-296.7768 297.8283,-269.4439 297.8283,-252.6127"/>
<polygon fill="#c0c0c0" stroke="#c0c0c0" points="301.3284,-252.249 297.8283,-242.249 294.3284,-252.249 301.3284,-252.249"/>
<text text-anchor="middle" x="359.7908" y="-294.7224" font-family="Arial" font-size="10.00" fill="#000000">Burgemeester de Vlugtlaan </text>
<text text-anchor="middle" x="359.7908" y="-282.7224" font-family="Arial" font-size="10.00" fill="#000000"> (lijn 369)</text>
</g>
<!-- 36904&#45;&gt;6108 -->
<g id="edge68" class="edge">
<title>36904&#45;&gt;6108</title>
<path fill="none" stroke="#c0c0c0" d="M295.0937,-235.9685C285.4708,-226.3456 252.8473,-193.722 236.0336,-176.9083"/>
<polygon fill="#c0c0c0" stroke="#c0c0c0" points="238.1116,-174.0366 228.5656,-169.4404 233.1618,-178.9864 238.1116,-174.0366"/>
<text text-anchor="middle" x="215.5492" y="-221.4384" font-family="Arial" font-size="10.00" fill="#000000">Slotermeerlaan </text>
<text text-anchor="middle" x="215.5492" y="-209.4384" font-family="Arial" font-size="10.00" fill="#000000"> President Allendelaan</text>
</g>
</g>
</svg>

