<?xml version="1.0" encoding="UTF-8" standalone="no"?>
<!DOCTYPE svg PUBLIC "-//W3C//DTD SVG 1.1//EN"
 "http://www.w3.org/Graphics/SVG/1.1/DTD/svg11.dtd">
<!-- Generated by graphviz version 2.40.1 (20161225.0304)
 -->
<!-- Title: G Pages: 1 -->
<svg width="863pt" height="636pt"
 viewBox="0.00 0.00 863.23 635.70" xmlns="http://www.w3.org/2000/svg" xmlns:xlink="http://www.w3.org/1999/xlink">
<g id="graph0" class="graph" transform="scale(1 1) rotate(0) translate(4 631.6994)">
<title>G</title>
<polygon fill="#ffffff" stroke="transparent" points="-4,4 -4,-631.6994 859.2285,-631.6994 859.2285,4 -4,4"/>
<!-- 36901 -->
<g id="node1" class="node">
<title>36901</title>
<ellipse fill="#d3d3d3" stroke="#c0c0c0" cx="829.7677" cy="-602.2386" rx="25.4216" ry="25.4216"/>
<text text-anchor="middle" x="829.7677" y="-599.2386" font-family="Arial" font-size="10.00" fill="#000000">SLO</text>
</g>
<!-- 36902 -->
<g id="node2" class="node">
<title>36902</title>
<ellipse fill="#d3d3d3" stroke="#c0c0c0" cx="685.7677" cy="-602.2386" rx="3.5" ry="3.5"/>
</g>
<!-- 36901&#45;&gt;36902 -->
<g id="edge1" class="edge">
<title>36901&#45;&gt;36902</title>
<path fill="none" stroke="#c0c0c0" d="M804.0234,-602.2386C773.5768,-602.2386 723.9933,-602.2386 699.8586,-602.2386"/>
<polygon fill="#c0c0c0" stroke="#c0c0c0" points="699.5707,-598.7387 689.5707,-602.2386 699.5706,-605.7387 699.5707,-598.7387"/>
<text text-anchor="middle" x="724.1565" y="-617.2386" font-family="Arial" font-size="10.00" fill="#000000">Arlandaweg </text>
<text text-anchor="middle" x="724.1565" y="-605.2386" font-family="Arial" font-size="10.00" fill="#000000"> (lijn 369)</text>
</g>
<!-- 36903 -->
<g id="node3" class="node">
<title>36903</title>
<ellipse fill="#d3d3d3" stroke="#c0c0c0" cx="685.7677" cy="-530.2386" rx="3.5" ry="3.5"/>
</g>
<!-- 36902&#45;&gt;36903 -->
<g id="edge2" class="edge">
<title>36902&#45;&gt;36903</title>
<path fill="none" stroke="#c0c0c0" d="M685.7677,-598.3676C685.7677,-588.3123 685.7677,-560.9794 685.7677,-544.1483"/>
<polygon fill="#c0c0c0" stroke="#c0c0c0" points="689.2678,-543.7845 685.7677,-533.7845 682.2678,-543.7846 689.2678,-543.7845"/>
<text text-anchor="middle" x="662.9867" y="-574.2579" font-family="Arial" font-size="10.00" fill="#000000">Radarweg</text>
</g>
<!-- 36904 -->
<g id="node4" class="node">
<title>36904</title>
<ellipse fill="#d3d3d3" stroke="#c0c0c0" cx="613.7677" cy="-530.2386" rx="3.5" ry="3.5"/>
</g>
<!-- 36903&#45;&gt;36904 -->
<g id="edge3" class="edge">
<title>36903&#45;&gt;36904</title>
<path fill="none" stroke="#c0c0c0" d="M681.8966,-530.2386C671.8414,-530.2386 644.5085,-530.2386 627.6773,-530.2386"/>
<polygon fill="#c0c0c0" stroke="#c0c0c0" points="627.3136,-526.7387 617.3136,-530.2386 627.3136,-533.7387 627.3136,-526.7387"/>
<text text-anchor="middle" x="618.1235" y="-533.2386" font-family="Arial" font-size="10.00" fill="#000000">Haarlemmerweg</text>
</g>
<!-- 36905 -->
<g id="node5" class="node">
<title>36905</title>
<ellipse fill="#d3d3d3" stroke="#c0c0c0" cx="613.7677" cy="-458.2386" rx="3.5" ry="3.5"/>
</g>
<!-- 36904&#45;&gt;36905 -->
<g id="edge4" class="edge">
<title>36904&#45;&gt;36905</title>
<path fill="none" stroke="#c0c0c0" d="M613.7677,-526.3676C613.7677,-516.3123 613.7677,-488.9794 613.7677,-472.1483"/>
<polygon fill="#c0c0c0" stroke="#c0c0c0" points="617.2678,-471.7845 613.7677,-461.7845 610.2678,-471.7846 617.2678,-471.7845"/>
<text text-anchor="middle" x="553.1947" y="-502.2579" font-family="Arial" font-size="10.00" fill="#000000">Burgemeester de Vlugtlaan</text>
</g>
<!-- 36906 -->
<g id="node6" class="node">
<title>36906</title>
<ellipse fill="#d3d3d3" stroke="#c0c0c0" cx="541.7677" cy="-386.2386" rx="3.5" ry="3.5"/>
</g>
<!-- 36905&#45;&gt;36906 -->
<g id="edge5" class="edge">
<title>36905&#45;&gt;36906</title>
<path fill="none" stroke="#c0c0c0" d="M611.0331,-455.504C601.4102,-445.8811 568.7866,-413.2576 551.9729,-396.4439"/>
<polygon fill="#c0c0c0" stroke="#c0c0c0" points="554.0509,-393.5721 544.505,-388.9759 549.1012,-398.5219 554.0509,-393.5721"/>
<text text-anchor="middle" x="531.4885" y="-440.974" font-family="Arial" font-size="10.00" fill="#000000">Slotermeerlaan </text>
<text text-anchor="middle" x="531.4885" y="-428.974" font-family="Arial" font-size="10.00" fill="#000000"> President Allendelaan</text>
</g>
<!-- 36907 -->
<g id="node7" class="node">
<title>36907</title>
<ellipse fill="#d3d3d3" stroke="#c0c0c0" cx="541.7677" cy="-314.2386" rx="3.5" ry="3.5"/>
</g>
<!-- 36906&#45;&gt;36907 -->
<g id="edge6" class="edge">
<title>36906&#45;&gt;36907</title>
<path fill="none" stroke="#c0c0c0" d="M541.7677,-382.3676C541.7677,-372.3123 541.7677,-344.9794 541.7677,-328.1483"/>
<polygon fill="#c0c0c0" stroke="#c0c0c0" points="545.2678,-327.7845 541.7677,-317.7846 538.2678,-327.7846 545.2678,-327.7845"/>
<text text-anchor="middle" x="510.0942" y="-358.2579" font-family="Arial" font-size="10.00" fill="#000000">Meer en Vaart</text>
</g>
<!-- 36908 -->
<g id="node8" class="node">
<title>36908</title>
<ellipse fill="#d3d3d3" stroke="#c0c0c0" cx="469.7677" cy="-314.2386" rx="3.5" ry="3.5"/>
</g>
<!-- 36907&#45;&gt;36908 -->
<g id="edge7" class="edge">
<title>36907&#45;&gt;36908</title>
<path fill="none" stroke="#c0c0c0" d="M537.8966,-314.2386C527.8414,-314.2386 500.5085,-314.2386 483.6773,-314.2386"/>
<polygon fill="#c0c0c0" stroke="#c0c0c0" points="483.3136,-310.7387 473.3136,-314.2386 483.3136,-317.7387 483.3136,-310.7387"/>
<text text-anchor="middle" x="471.0555" y="-317.2386" font-family="Arial" font-size="10.00" fill="#000000">Pieter Calandlaan</text>
</g>
<!-- 36909 -->
<g id="node9" class="node">
<title>36909</title>
<ellipse fill="#d3d3d3" stroke="#c0c0c0" cx="469.7677" cy="-242.2386" rx="3.5" ry="3.5"/>
</g>
<!-- 36908&#45;&gt;36909 -->
<g id="edge8" class="edge">
<title>36908&#45;&gt;36909</title>
<path fill="none" stroke="#c0c0c0" d="M469.7677,-310.3676C469.7677,-300.3123 469.7677,-272.9794 469.7677,-256.1483"/>
<polygon fill="#c0c0c0" stroke="#c0c0c0" points="473.2678,-255.7845 469.7677,-245.7846 466.2678,-255.7846 473.2678,-255.7845"/>
<text text-anchor="middle" x="428.6497" y="-286.2579" font-family="Arial" font-size="10.00" fill="#000000">Louis Davidsstraat</text>
</g>
<!-- 36910 -->
<g id="node10" class="node">
<title>36910</title>
<ellipse fill="#d3d3d3" stroke="#c0c0c0" cx="541.7677" cy="-242.2386" rx="3.5" ry="3.5"/>
</g>
<!-- 36909&#45;&gt;36910 -->
<g id="edge9" class="edge">
<title>36909&#45;&gt;36910</title>
<path fill="none" stroke="#c0c0c0" d="M473.6387,-242.2386C483.694,-242.2386 511.0269,-242.2386 527.858,-242.2386"/>
<polygon fill="#c0c0c0" stroke="#c0c0c0" points="528.2218,-245.7387 538.2217,-242.2386 528.2217,-238.7387 528.2218,-245.7387"/>
<text text-anchor="middle" x="500.7484" y="-233.2386" font-family="Arial" font-size="10.00" fill="#000000">Plesmanlaan</text>
</g>
<!-- 36911 -->
<g id="node11" class="node">
<title>36911</title>
<ellipse fill="#d3d3d3" stroke="#c0c0c0" cx="541.7677" cy="-170.2386" rx=".5" ry=".5"/>
</g>
<!-- 36910&#45;&gt;36911 -->
<g id="edge10" class="edge">
<title>36910&#45;&gt;36911</title>
<path fill="none" stroke="#c0c0c0" d="M541.7677,-238.3676C541.7677,-227.6332 541.7677,-197.2086 541.7677,-180.8903"/>
<polygon fill="#c0c0c0" stroke="#c0c0c0" points="545.2678,-180.8394 541.7677,-170.8394 538.2678,-180.8395 545.2678,-180.8394"/>
<text text-anchor="middle" x="494.2467" y="-212.6289" font-family="Arial" font-size="10.00" fill="#000000">Laan van Vlaanderen</text>
</g>
<!-- 36912 -->
<g id="node12" class="node">
<title>36912</title>
<ellipse fill="#d3d3d3" stroke="#c0c0c0" cx="469.7677" cy="-170.2386" rx="3.5" ry="3.5"/>
</g>
<!-- 36911&#45;&gt;36912 -->
<g id="edge11" class="edge">
<title>36911&#45;&gt;36912</title>
<path fill="none" stroke="#c0c0c0" d="M540.9591,-170.2386C535.4335,-170.2386 502.8885,-170.2386 483.7691,-170.2386"/>
<polygon fill="#c0c0c0" stroke="#c0c0c0" points="483.5626,-166.7387 473.5626,-170.2386 483.5625,-173.7387 483.5626,-166.7387"/>
</g>
<!-- 36913 -->
<g id="node13" class="node">
<title>36913</title>
<ellipse fill="#d3d3d3" stroke="#c0c0c0" cx="469.7677" cy="-98.2386" rx="3.5" ry="3.5"/>
</g>
<!-- 36912&#45;&gt;36913 -->
<g id="edge12" class="edge">
<title>36912&#45;&gt;36913</title>
<path fill="none" stroke="#c0c0c0" d="M469.7677,-166.3676C469.7677,-156.3123 469.7677,-128.9794 469.7677,-112.1483"/>
<polygon fill="#c0c0c0" stroke="#c0c0c0" points="473.2678,-111.7845 469.7677,-101.7845 466.2678,-111.7846 473.2678,-111.7845"/>
<text text-anchor="middle" x="436.4242" y="-142.2579" font-family="Arial" font-size="10.00" fill="#000000">Anderlechtlaan</text>
</g>
<!-- 36914 -->
<g id="node14" class="node">
<title>36914</title>
<ellipse fill="#d3d3d3" stroke="#c0c0c0" cx="397.7677" cy="-98.2386" rx="3.5" ry="3.5"/>
</g>
<!-- 36913&#45;&gt;36914 -->
<g id="edge13" class="edge">
<title>36913&#45;&gt;36914</title>
<path fill="none" stroke="#c0c0c0" d="M465.8966,-98.2386C455.8414,-98.2386 428.5085,-98.2386 411.6773,-98.2386"/>
<polygon fill="#c0c0c0" stroke="#c0c0c0" points="411.3136,-94.7387 401.3136,-98.2386 411.3136,-101.7387 411.3136,-94.7387"/>
<text text-anchor="middle" x="397.384" y="-113.2386" font-family="Arial" font-size="10.00" fill="#000000">Oude Haagseweg </text>
<text text-anchor="middle" x="397.384" y="-101.2386" font-family="Arial" font-size="10.00" fill="#000000"> Zuidtangent</text>
</g>
<!-- 36915 -->
<g id="node15" class="node">
<title>36915</title>
<ellipse fill="#d3d3d3" stroke="#c0c0c0" cx="397.7677" cy="-26.2386" rx="3.5" ry="3.5"/>
</g>
<!-- 36914&#45;&gt;36915 -->
<g id="edge14" class="edge">
<title>36914&#45;&gt;36915</title>
<path fill="none" stroke="#c0c0c0" d="M397.7677,-94.3676C397.7677,-84.3123 397.7677,-56.9794 397.7677,-40.1483"/>
<polygon fill="#c0c0c0" stroke="#c0c0c0" points="401.2678,-39.7845 397.7677,-29.7845 394.2678,-39.7846 401.2678,-39.7845"/>
</g>
<!-- 36916 -->
<g id="node16" class="node">
<title>36916</title>
<ellipse fill="#d3d3d3" stroke="#c0c0c0" cx="325.7677" cy="-26.2386" rx="3.5" ry="3.5"/>
</g>
<!-- 36915&#45;&gt;36916 -->
<g id="edge15" class="edge">
<title>36915&#45;&gt;36916</title>
<path fill="none" stroke="#c0c0c0" d="M393.8966,-26.2386C383.8414,-26.2386 356.5085,-26.2386 339.6773,-26.2386"/>
<polygon fill="#c0c0c0" stroke="#c0c0c0" points="339.3136,-22.7387 329.3136,-26.2386 339.3136,-29.7387 339.3136,-22.7387"/>
<text text-anchor="middle" x="366.787" y="-17.2386" font-family="Arial" font-size="10.00" fill="#000000">Zuidtangent</text>
</g>
<!-- 36917 -->
<g id="node17" class="node">
<title>36917</title>
<ellipse fill="#d3d3d3" stroke="#c0c0c0" cx="325.7677" cy="-98.2386" rx="3.5" ry="3.5"/>
</g>
<!-- 36916&#45;&gt;36917 -->
<g id="edge16" class="edge">
<title>36916&#45;&gt;36917</title>
<path fill="none" stroke="#c0c0c0" d="M325.7677,-30.1096C325.7677,-40.1649 325.7677,-67.4978 325.7677,-84.329"/>
<polygon fill="#c0c0c0" stroke="#c0c0c0" points="322.2678,-84.6926 325.7677,-94.6927 329.2678,-84.6927 322.2678,-84.6926"/>
<text text-anchor="middle" x="297.7082" y="-60.2193" font-family="Arial" font-size="10.00" fill="#000000">Cateringweg</text>
</g>
<!-- 36918 -->
<g id="node18" class="node">
<title>36918</title>
<ellipse fill="#d3d3d3" stroke="#c0c0c0" cx="181.7677" cy="-98.2386" rx="3.5" ry="3.5"/>
</g>
<!-- 36917&#45;&gt;36918 -->
<g id="edge17" class="edge">
<title>36917&#45;&gt;36918</title>
<path fill="none" stroke="#c0c0c0" d="M322.2081,-98.2386C304.6966,-98.2386 227.2598,-98.2386 195.4649,-98.2386"/>
<polygon fill="#c0c0c0" stroke="#c0c0c0" points="195.4629,-94.7387 185.4628,-98.2386 195.4628,-101.7387 195.4629,-94.7387"/>
<text text-anchor="middle" x="221.334" y="-137.2386" font-family="Arial" font-size="10.00" fill="#000000">Schipholweg </text>
<text text-anchor="middle" x="221.334" y="-125.2386" font-family="Arial" font-size="10.00" fill="#000000"> Zuidtangent </text>
<text text-anchor="middle" x="221.334" y="-113.2386" font-family="Arial" font-size="10.00" fill="#000000"> (via Knooppunt </text>
<text text-anchor="middle" x="221.334" y="-101.2386" font-family="Arial" font-size="10.00" fill="#000000"> Schiphol&#45;Noord)</text>
</g>
<!-- 36919 -->
<g id="node19" class="node">
<title>36919</title>
<ellipse fill="#d3d3d3" stroke="#c0c0c0" cx="181.7677" cy="-170.2386" rx="3.5" ry="3.5"/>
</g>
<!-- 36918&#45;&gt;36919 -->
<g id="edge18" class="edge">
<title>36918&#45;&gt;36919</title>
<path fill="none" stroke="#c0c0c0" d="M181.7677,-102.1096C181.7677,-112.1649 181.7677,-139.4978 181.7677,-156.329"/>
<polygon fill="#c0c0c0" stroke="#c0c0c0" points="178.2678,-156.6927 181.7677,-166.6927 185.2678,-156.6927 178.2678,-156.6927"/>
<text text-anchor="middle" x="150.9287" y="-132.2193" font-family="Arial" font-size="10.00" fill="#000000">Koetsierstraat</text>
</g>
<!-- 36920 -->
<g id="node20" class="node">
<title>36920</title>
<ellipse fill="#d3d3d3" stroke="#c0c0c0" cx="37.7677" cy="-26.2386" rx="3.5" ry="3.5"/>
</g>
<!-- 36919&#45;&gt;36920 -->
<g id="edge19" class="edge">
<title>36919&#45;&gt;36920</title>
<path fill="none" stroke="#c0c0c0" d="M179.2683,-167.7392C163.4285,-151.8994 76.734,-65.2049 47.4417,-35.9127"/>
<polygon fill="#c0c0c0" stroke="#c0c0c0" points="49.8818,-33.403 40.3359,-28.8068 44.9321,-38.3528 49.8818,-33.403"/>
<text text-anchor="middle" x="56.6775" y="-128.8259" font-family="Arial" font-size="10.00" fill="#000000">Loevesteinse Randweg </text>
<text text-anchor="middle" x="56.6775" y="-116.8259" font-family="Arial" font-size="10.00" fill="#000000"> (via Buitenvelderttunnel) </text>
<text text-anchor="middle" x="56.6775" y="-104.8259" font-family="Arial" font-size="10.00" fill="#000000"> Westelijke Randweg</text>
</g>
<!-- 36921 -->
<g id="node21" class="node">
<title>36921</title>
<ellipse fill="#d3d3d3" stroke="#c0c0c0" cx="181.7677" cy="-26.2386" rx="26.4794" ry="26.4794"/>
<text text-anchor="middle" x="181.7677" y="-23.2386" font-family="Arial" font-size="10.00" fill="#000000">SCH</text>
</g>
<!-- 36920&#45;&gt;36921 -->
<g id="edge20" class="edge">
<title>36920&#45;&gt;36921</title>
<path fill="none" stroke="#c0c0c0" d="M41.3272,-26.2386C55.4393,-26.2386 108.4683,-26.2386 145.1655,-26.2386"/>
<polygon fill="#c0c0c0" stroke="#c0c0c0" points="145.5024,-29.7387 155.5024,-26.2386 145.5024,-22.7387 145.5024,-29.7387"/>
<text text-anchor="middle" x="123.8114" y="-41.2386" font-family="Arial" font-size="10.00" fill="#000000">Handelskade </text>
<text text-anchor="middle" x="123.8114" y="-29.2386" font-family="Arial" font-size="10.00" fill="#000000"> Koepelstraat</text>
</g>
</g>
</svg>

