<?xml version="1.0" encoding="UTF-8" standalone="no"?>
<!DOCTYPE svg PUBLIC "-//W3C//DTD SVG 1.1//EN"
 "http://www.w3.org/Graphics/SVG/1.1/DTD/svg11.dtd">
<!-- Generated by graphviz version 2.40.1 (20161225.0304)
 -->
<!-- Title: G Pages: 1 -->
<svg width="876pt" height="766pt"
 viewBox="0.00 0.00 876.00 766.24" xmlns="http://www.w3.org/2000/svg" xmlns:xlink="http://www.w3.org/1999/xlink">
<g id="graph0" class="graph" transform="scale(1 1) rotate(0) translate(4 762.2386)">
<title>G</title>
<polygon fill="#ffffff" stroke="transparent" points="-4,4 -4,-762.2386 872,-762.2386 872,4 -4,4"/>
<!-- 24601 -->
<g id="node1" class="node">
<title>24601</title>
<ellipse fill="#d3d3d3" stroke="#c0c0c0" cx="792.5" cy="-530.2386" rx="26.7699" ry="26.7699"/>
<text text-anchor="middle" x="792.5" y="-527.2386" font-family="Arial" font-size="10.00" fill="#000000">BOR</text>
</g>
<!-- 24602 -->
<g id="node2" class="node">
<title>24602</title>
<ellipse fill="#d3d3d3" stroke="#c0c0c0" cx="792.5" cy="-674.2386" rx="3.5" ry="3.5"/>
</g>
<!-- 24601&#45;&gt;24602 -->
<g id="edge1" class="edge">
<title>24601&#45;&gt;24602</title>
<path fill="none" stroke="#c0c0c0" d="M792.5,-556.9864C792.5,-587.5978 792.5,-636.5615 792.5,-660.3564"/>
<polygon fill="#c0c0c0" stroke="#c0c0c0" points="789.0001,-660.4943 792.5,-670.4943 796.0001,-660.4943 789.0001,-660.4943"/>
<text text-anchor="middle" x="760.2665" y="-635.6714" font-family="Arial" font-size="10.00" fill="#000000">C. van </text>
<text text-anchor="middle" x="760.2665" y="-623.6714" font-family="Arial" font-size="10.00" fill="#000000"> Eesterenlaan </text>
<text text-anchor="middle" x="760.2665" y="-611.6714" font-family="Arial" font-size="10.00" fill="#000000"> (lijn 246)</text>
</g>
<!-- 24603 -->
<g id="node3" class="node">
<title>24603</title>
<ellipse fill="#d3d3d3" stroke="#c0c0c0" cx="864.5" cy="-674.2386" rx="3.5" ry="3.5"/>
</g>
<!-- 24602&#45;&gt;24603 -->
<g id="edge2" class="edge">
<title>24602&#45;&gt;24603</title>
<path fill="none" stroke="#c0c0c0" d="M796.371,-674.2386C806.4263,-674.2386 833.7592,-674.2386 850.5903,-674.2386"/>
<polygon fill="#c0c0c0" stroke="#c0c0c0" points="850.9541,-677.7387 860.9541,-674.2386 850.954,-670.7387 850.9541,-677.7387"/>
<text text-anchor="middle" x="775.1352" y="-677.2386" font-family="Arial" font-size="10.00" fill="#000000">J.F. Van Hengelstraat</text>
</g>
<!-- 24604 -->
<g id="node4" class="node">
<title>24604</title>
<ellipse fill="#d3d3d3" stroke="#c0c0c0" cx="864.5" cy="-746.2386" rx="3.5" ry="3.5"/>
</g>
<!-- 24603&#45;&gt;24604 -->
<g id="edge3" class="edge">
<title>24603&#45;&gt;24604</title>
<path fill="none" stroke="#c0c0c0" d="M864.5,-678.1096C864.5,-688.1649 864.5,-715.4978 864.5,-732.329"/>
<polygon fill="#c0c0c0" stroke="#c0c0c0" points="861.0001,-732.6926 864.5,-742.6927 868.0001,-732.6927 861.0001,-732.6926"/>
<text text-anchor="middle" x="826.992" y="-720.2193" font-family="Arial" font-size="10.00" fill="#000000">Verbindingsdam </text>
<text text-anchor="middle" x="826.992" y="-708.2193" font-family="Arial" font-size="10.00" fill="#000000"> Azartplein</text>
</g>
<!-- 24605 -->
<g id="node5" class="node">
<title>24605</title>
<ellipse fill="#d3d3d3" stroke="#c0c0c0" cx="720.5" cy="-746.2386" rx="3.5" ry="3.5"/>
</g>
<!-- 24604&#45;&gt;24605 -->
<g id="edge4" class="edge">
<title>24604&#45;&gt;24605</title>
<path fill="none" stroke="#c0c0c0" d="M860.9404,-746.2386C843.4289,-746.2386 765.9922,-746.2386 734.1972,-746.2386"/>
<polygon fill="#c0c0c0" stroke="#c0c0c0" points="734.1952,-742.7387 724.1952,-746.2386 734.1951,-749.7387 734.1952,-742.7387"/>
<text text-anchor="middle" x="767.8388" y="-749.2386" font-family="Arial" font-size="10.00" fill="#000000">Sumatrakade</text>
</g>
<!-- 24606 -->
<g id="node6" class="node">
<title>24606</title>
<ellipse fill="#d3d3d3" stroke="#c0c0c0" cx="720.5" cy="-602.2386" rx=".5" ry=".5"/>
</g>
<!-- 24605&#45;&gt;24606 -->
<g id="edge5" class="edge">
<title>24605&#45;&gt;24606</title>
<path fill="none" stroke="#c0c0c0" d="M720.5,-742.679C720.5,-724.681 720.5,-643.3813 720.5,-613.3935"/>
<polygon fill="#c0c0c0" stroke="#c0c0c0" points="724.0001,-612.9961 720.5,-602.9961 717.0001,-612.9961 724.0001,-612.9961"/>
<text text-anchor="middle" x="677.709" y="-717.0363" font-family="Arial" font-size="10.00" fill="#000000">Tosaristraat </text>
<text text-anchor="middle" x="677.709" y="-705.0363" font-family="Arial" font-size="10.00" fill="#000000"> Jan Schaeferbrug </text>
<text text-anchor="middle" x="677.709" y="-693.0363" font-family="Arial" font-size="10.00" fill="#000000"> Vemenplein </text>
<text text-anchor="middle" x="677.709" y="-681.0363" font-family="Arial" font-size="10.00" fill="#000000"> Kattenburgerstraat</text>
</g>
<!-- 24607 -->
<g id="node7" class="node">
<title>24607</title>
<ellipse fill="#d3d3d3" stroke="#c0c0c0" cx="648.5" cy="-602.2386" rx="3.5" ry="3.5"/>
</g>
<!-- 24606&#45;&gt;24607 -->
<g id="edge6" class="edge">
<title>24606&#45;&gt;24607</title>
<path fill="none" stroke="#c0c0c0" d="M719.6914,-602.2386C714.1658,-602.2386 681.6208,-602.2386 662.5014,-602.2386"/>
<polygon fill="#c0c0c0" stroke="#c0c0c0" points="662.2949,-598.7387 652.2949,-602.2386 662.2949,-605.7387 662.2949,-598.7387"/>
<text text-anchor="middle" x="691.0964" y="-593.2386" font-family="Arial" font-size="10.00" fill="#000000">Prins </text>
<text text-anchor="middle" x="691.0964" y="-581.2386" font-family="Arial" font-size="10.00" fill="#000000"> Hendrikkade</text>
</g>
<!-- 24608 -->
<g id="node8" class="node">
<title>24608</title>
<ellipse fill="#d3d3d3" stroke="#c0c0c0" cx="576.5" cy="-530.2386" rx="3.5" ry="3.5"/>
</g>
<!-- 24607&#45;&gt;24608 -->
<g id="edge7" class="edge">
<title>24607&#45;&gt;24608</title>
<path fill="none" stroke="#c0c0c0" d="M645.7655,-599.504C636.1425,-589.8811 603.519,-557.2576 586.7053,-540.4439"/>
<polygon fill="#c0c0c0" stroke="#c0c0c0" points="588.7833,-537.5721 579.2373,-532.9759 583.8335,-542.5219 588.7833,-537.5721"/>
<text text-anchor="middle" x="571.2244" y="-596.974" font-family="Arial" font-size="10.00" fill="#000000">Foeliestraat </text>
<text text-anchor="middle" x="571.2244" y="-584.974" font-family="Arial" font-size="10.00" fill="#000000"> Valkenburgerstraat </text>
<text text-anchor="middle" x="571.2244" y="-572.974" font-family="Arial" font-size="10.00" fill="#000000"> Mr. Visserplein</text>
</g>
<!-- 24609 -->
<g id="node9" class="node">
<title>24609</title>
<ellipse fill="#d3d3d3" stroke="#c0c0c0" cx="648.5" cy="-458.2386" rx="3.5" ry="3.5"/>
</g>
<!-- 24608&#45;&gt;24609 -->
<g id="edge8" class="edge">
<title>24608&#45;&gt;24609</title>
<path fill="none" stroke="#c0c0c0" d="M579.2346,-527.504C588.8575,-517.8811 621.4811,-485.2576 638.2948,-468.4439"/>
<polygon fill="#c0c0c0" stroke="#c0c0c0" points="641.1665,-470.5219 645.7627,-460.9759 636.2167,-465.5721 641.1665,-470.5219"/>
<text text-anchor="middle" x="551.2617" y="-488.974" font-family="Arial" font-size="10.00" fill="#000000">Jonas Daniël Meijerplein </text>
<text text-anchor="middle" x="551.2617" y="-476.974" font-family="Arial" font-size="10.00" fill="#000000"> Weesper&#45;straat </text>
<text text-anchor="middle" x="551.2617" y="-464.974" font-family="Arial" font-size="10.00" fill="#000000"> &#45;plein </text>
<text text-anchor="middle" x="551.2617" y="-452.974" font-family="Arial" font-size="10.00" fill="#000000"> &#45;poort </text>
<text text-anchor="middle" x="551.2617" y="-440.974" font-family="Arial" font-size="10.00" fill="#000000"> Rhijnspoorplein</text>
</g>
<!-- 24610 -->
<g id="node10" class="node">
<title>24610</title>
<ellipse fill="#d3d3d3" stroke="#c0c0c0" cx="576.5" cy="-386.2386" rx="3.5" ry="3.5"/>
</g>
<!-- 24609&#45;&gt;24610 -->
<g id="edge9" class="edge">
<title>24609&#45;&gt;24610</title>
<path fill="none" stroke="#c0c0c0" d="M645.7655,-455.504C636.1425,-445.8811 603.519,-413.2576 586.7053,-396.4439"/>
<polygon fill="#c0c0c0" stroke="#c0c0c0" points="588.7833,-393.5721 579.2373,-388.9759 583.8335,-398.5219 588.7833,-393.5721"/>
<text text-anchor="middle" x="587.6164" y="-416.974" font-family="Arial" font-size="10.00" fill="#000000">Mauritskade </text>
<text text-anchor="middle" x="587.6164" y="-404.974" font-family="Arial" font-size="10.00" fill="#000000"> Torontobrug</text>
</g>
<!-- 24611 -->
<g id="node11" class="node">
<title>24611</title>
<ellipse fill="#d3d3d3" stroke="#c0c0c0" cx="648.5" cy="-314.2386" rx="3.5" ry="3.5"/>
</g>
<!-- 24610&#45;&gt;24611 -->
<g id="edge10" class="edge">
<title>24610&#45;&gt;24611</title>
<path fill="none" stroke="#c0c0c0" d="M579.2346,-383.5041C588.8575,-373.8811 621.4811,-341.2576 638.2948,-324.4439"/>
<polygon fill="#c0c0c0" stroke="#c0c0c0" points="641.1665,-326.5219 645.7627,-316.9759 636.2167,-321.5721 641.1665,-326.5219"/>
<text text-anchor="middle" x="585.9887" y="-356.974" font-family="Arial" font-size="10.00" fill="#000000">Amsteldijk</text>
</g>
<!-- 24612 -->
<g id="node12" class="node">
<title>24612</title>
<ellipse fill="#d3d3d3" stroke="#c0c0c0" cx="576.5" cy="-242.2386" rx="3.5" ry="3.5"/>
</g>
<!-- 24611&#45;&gt;24612 -->
<g id="edge11" class="edge">
<title>24611&#45;&gt;24612</title>
<path fill="none" stroke="#c0c0c0" d="M645.7655,-311.5041C636.1425,-301.8811 603.519,-269.2576 586.7053,-252.4439"/>
<polygon fill="#c0c0c0" stroke="#c0c0c0" points="588.7833,-249.5721 579.2373,-244.9759 583.8335,-254.5219 588.7833,-249.5721"/>
<text text-anchor="middle" x="575.3989" y="-296.974" font-family="Arial" font-size="10.00" fill="#000000">Ceintuurbaan </text>
<text text-anchor="middle" x="575.3989" y="-284.974" font-family="Arial" font-size="10.00" fill="#000000"> (via Sarphatipark)</text>
</g>
<!-- 24613 -->
<g id="node13" class="node">
<title>24613</title>
<ellipse fill="#d3d3d3" stroke="#c0c0c0" cx="576.5" cy="-170.2386" rx="3.5" ry="3.5"/>
</g>
<!-- 24612&#45;&gt;24613 -->
<g id="edge12" class="edge">
<title>24612&#45;&gt;24613</title>
<path fill="none" stroke="#c0c0c0" d="M576.5,-238.3676C576.5,-228.3123 576.5,-200.9794 576.5,-184.1483"/>
<polygon fill="#c0c0c0" stroke="#c0c0c0" points="580.0001,-183.7845 576.5,-173.7846 573.0001,-183.7846 580.0001,-183.7845"/>
<text text-anchor="middle" x="621.5105" y="-202.2579" font-family="Arial" font-size="10.00" fill="#000000">Ferdinand Bolstraat </text>
<text text-anchor="middle" x="621.5105" y="-190.2579" font-family="Arial" font-size="10.00" fill="#000000"> Schelde&#45;straat </text>
<text text-anchor="middle" x="621.5105" y="-178.2579" font-family="Arial" font-size="10.00" fill="#000000"> &#45;plein</text>
</g>
<!-- 24614 -->
<g id="node14" class="node">
<title>24614</title>
<ellipse fill="#d3d3d3" stroke="#c0c0c0" cx="504.5" cy="-242.2386" rx="3.5" ry="3.5"/>
</g>
<!-- 24613&#45;&gt;24614 -->
<g id="edge13" class="edge">
<title>24613&#45;&gt;24614</title>
<path fill="none" stroke="#c0c0c0" d="M573.7655,-172.9732C564.1425,-182.5961 531.519,-215.2197 514.7053,-232.0334"/>
<polygon fill="#c0c0c0" stroke="#c0c0c0" points="511.8335,-229.9553 507.2373,-239.5013 516.7833,-234.9051 511.8335,-229.9553"/>
<text text-anchor="middle" x="502.2829" y="-217.5033" font-family="Arial" font-size="10.00" fill="#000000">Wielingenstraat </text>
<text text-anchor="middle" x="502.2829" y="-205.5033" font-family="Arial" font-size="10.00" fill="#000000"> Diepenbrockstraat</text>
</g>
<!-- 24615 -->
<g id="node15" class="node">
<title>24615</title>
<ellipse fill="#d3d3d3" stroke="#c0c0c0" cx="432.5" cy="-242.2386" rx="3.5" ry="3.5"/>
</g>
<!-- 24614&#45;&gt;24615 -->
<g id="edge14" class="edge">
<title>24614&#45;&gt;24615</title>
<path fill="none" stroke="#c0c0c0" d="M500.629,-242.2386C490.5737,-242.2386 463.2408,-242.2386 446.4097,-242.2386"/>
<polygon fill="#c0c0c0" stroke="#c0c0c0" points="446.046,-238.7387 436.0459,-242.2386 446.0459,-245.7387 446.046,-238.7387"/>
<text text-anchor="middle" x="473.5193" y="-233.2386" font-family="Arial" font-size="10.00" fill="#000000">Stadionweg</text>
</g>
<!-- 24616 -->
<g id="node16" class="node">
<title>24616</title>
<ellipse fill="#d3d3d3" stroke="#c0c0c0" cx="432.5" cy="-98.2386" rx="3.5" ry="3.5"/>
</g>
<!-- 24615&#45;&gt;24616 -->
<g id="edge15" class="edge">
<title>24615&#45;&gt;24616</title>
<path fill="none" stroke="#c0c0c0" d="M432.5,-238.679C432.5,-221.1675 432.5,-143.7308 432.5,-111.9358"/>
<polygon fill="#c0c0c0" stroke="#c0c0c0" points="436.0001,-111.9337 432.5,-101.9338 429.0001,-111.9338 436.0001,-111.9337"/>
<text text-anchor="middle" x="406.9345" y="-190.3074" font-family="Arial" font-size="10.00" fill="#000000">Beethoven&#45;</text>
<text text-anchor="middle" x="406.9345" y="-178.3074" font-family="Arial" font-size="10.00" fill="#000000">&#45;straat</text>
</g>
<!-- 24617 -->
<g id="node17" class="node">
<title>24617</title>
<ellipse fill="#d3d3d3" stroke="#c0c0c0" cx="360.5" cy="-98.2386" rx="3.5" ry="3.5"/>
</g>
<!-- 24616&#45;&gt;24617 -->
<g id="edge16" class="edge">
<title>24616&#45;&gt;24617</title>
<path fill="none" stroke="#c0c0c0" d="M428.629,-98.2386C418.5737,-98.2386 391.2408,-98.2386 374.4097,-98.2386"/>
<polygon fill="#c0c0c0" stroke="#c0c0c0" points="374.046,-94.7387 364.0459,-98.2386 374.0459,-101.7387 374.046,-94.7387"/>
<text text-anchor="middle" x="401.5193" y="-89.2386" font-family="Arial" font-size="10.00" fill="#000000">De Boelelaan</text>
</g>
<!-- 24618 -->
<g id="node18" class="node">
<title>24618</title>
<ellipse fill="#d3d3d3" stroke="#c0c0c0" cx="360.5" cy="-170.2386" rx="3.5" ry="3.5"/>
</g>
<!-- 24617&#45;&gt;24618 -->
<g id="edge17" class="edge">
<title>24617&#45;&gt;24618</title>
<path fill="none" stroke="#c0c0c0" d="M360.5,-102.1096C360.5,-112.1649 360.5,-139.4978 360.5,-156.329"/>
<polygon fill="#c0c0c0" stroke="#c0c0c0" points="357.0001,-156.6927 360.5,-166.6927 364.0001,-156.6927 357.0001,-156.6927"/>
<text text-anchor="middle" x="333.549" y="-144.2193" font-family="Arial" font-size="10.00" fill="#000000">Amstel&#45;</text>
<text text-anchor="middle" x="333.549" y="-132.2193" font-family="Arial" font-size="10.00" fill="#000000">&#45;veenseweg</text>
</g>
<!-- 24618&#45;&gt;24618 -->
<g id="edge18" class="edge">
<title>24618&#45;&gt;24618</title>
<path fill="none" stroke="#c0c0c0" d="M363.0807,-172.8687C370.6306,-179.131 382,-178.2542 382,-170.2386 382,-165.2289 377.5589,-163.0077 372.3847,-163.5752"/>
<polygon fill="#c0c0c0" stroke="#c0c0c0" points="370.8636,-160.4199 363.0807,-167.6085 373.6478,-166.8424 370.8636,-160.4199"/>
</g>
<!-- 24619 -->
<g id="node19" class="node">
<title>24619</title>
<ellipse fill="#d3d3d3" stroke="#c0c0c0" cx="288.5" cy="-170.2386" rx="3.5" ry="3.5"/>
</g>
<!-- 24618&#45;&gt;24619 -->
<g id="edge19" class="edge">
<title>24618&#45;&gt;24619</title>
<path fill="none" stroke="#c0c0c0" d="M356.629,-170.2386C346.5737,-170.2386 319.2408,-170.2386 302.4097,-170.2386"/>
<polygon fill="#c0c0c0" stroke="#c0c0c0" points="302.046,-166.7387 292.0459,-170.2386 302.0459,-173.7387 302.046,-166.7387"/>
<text text-anchor="middle" x="292.5623" y="-197.2386" font-family="Arial" font-size="10.00" fill="#000000">[A10] </text>
<text text-anchor="middle" x="292.5623" y="-185.2386" font-family="Arial" font-size="10.00" fill="#000000"> [A4]: Den Haag </text>
<text text-anchor="middle" x="292.5623" y="-173.2386" font-family="Arial" font-size="10.00" fill="#000000"> (1): Sloten</text>
</g>
<!-- 24620 -->
<g id="node20" class="node">
<title>24620</title>
<ellipse fill="#d3d3d3" stroke="#c0c0c0" cx="288.5" cy="-98.2386" rx="3.5" ry="3.5"/>
</g>
<!-- 24619&#45;&gt;24620 -->
<g id="edge20" class="edge">
<title>24619&#45;&gt;24620</title>
<path fill="none" stroke="#c0c0c0" d="M288.5,-166.3676C288.5,-156.3123 288.5,-128.9794 288.5,-112.1483"/>
<polygon fill="#c0c0c0" stroke="#c0c0c0" points="292.0001,-111.7845 288.5,-101.7845 285.0001,-111.7846 292.0001,-111.7845"/>
<text text-anchor="middle" x="255.1565" y="-142.2579" font-family="Arial" font-size="10.00" fill="#000000">Anderlechtlaan</text>
</g>
<!-- 24621 -->
<g id="node21" class="node">
<title>24621</title>
<ellipse fill="#d3d3d3" stroke="#c0c0c0" cx="216.5" cy="-98.2386" rx="3.5" ry="3.5"/>
</g>
<!-- 24620&#45;&gt;24621 -->
<g id="edge21" class="edge">
<title>24620&#45;&gt;24621</title>
<path fill="none" stroke="#c0c0c0" d="M284.629,-98.2386C274.5737,-98.2386 247.2408,-98.2386 230.4097,-98.2386"/>
<polygon fill="#c0c0c0" stroke="#c0c0c0" points="230.046,-94.7387 220.0459,-98.2386 230.0459,-101.7387 230.046,-94.7387"/>
<text text-anchor="middle" x="216.1163" y="-113.2386" font-family="Arial" font-size="10.00" fill="#000000">Oude Haagseweg </text>
<text text-anchor="middle" x="216.1163" y="-101.2386" font-family="Arial" font-size="10.00" fill="#000000"> Zuidtangent</text>
</g>
<!-- 24622 -->
<g id="node22" class="node">
<title>24622</title>
<ellipse fill="#d3d3d3" stroke="#c0c0c0" cx="216.5" cy="-26.2386" rx="3.5" ry="3.5"/>
</g>
<!-- 24621&#45;&gt;24622 -->
<g id="edge22" class="edge">
<title>24621&#45;&gt;24622</title>
<path fill="none" stroke="#c0c0c0" d="M216.5,-94.3676C216.5,-84.3123 216.5,-56.9794 216.5,-40.1483"/>
<polygon fill="#c0c0c0" stroke="#c0c0c0" points="220.0001,-39.7845 216.5,-29.7845 213.0001,-39.7846 220.0001,-39.7845"/>
</g>
<!-- 24623 -->
<g id="node23" class="node">
<title>24623</title>
<ellipse fill="#d3d3d3" stroke="#c0c0c0" cx="144.5" cy="-26.2386" rx="3.5" ry="3.5"/>
</g>
<!-- 24622&#45;&gt;24623 -->
<g id="edge23" class="edge">
<title>24622&#45;&gt;24623</title>
<path fill="none" stroke="#c0c0c0" d="M212.629,-26.2386C202.5737,-26.2386 175.2408,-26.2386 158.4097,-26.2386"/>
<polygon fill="#c0c0c0" stroke="#c0c0c0" points="158.046,-22.7387 148.0459,-26.2386 158.0459,-29.7387 158.046,-22.7387"/>
<text text-anchor="middle" x="185.5193" y="-17.2386" font-family="Arial" font-size="10.00" fill="#000000">Zuidtangent</text>
</g>
<!-- 24624 -->
<g id="node24" class="node">
<title>24624</title>
<ellipse fill="#d3d3d3" stroke="#c0c0c0" cx="144.5" cy="-98.2386" rx="3.5" ry="3.5"/>
</g>
<!-- 24623&#45;&gt;24624 -->
<g id="edge24" class="edge">
<title>24623&#45;&gt;24624</title>
<path fill="none" stroke="#c0c0c0" d="M144.5,-30.1096C144.5,-40.1649 144.5,-67.4978 144.5,-84.329"/>
<polygon fill="#c0c0c0" stroke="#c0c0c0" points="141.0001,-84.6926 144.5,-94.6927 148.0001,-84.6927 141.0001,-84.6926"/>
<text text-anchor="middle" x="116.4405" y="-60.2193" font-family="Arial" font-size="10.00" fill="#000000">Cateringweg</text>
</g>
<!-- 24625 -->
<g id="node25" class="node">
<title>24625</title>
<ellipse fill="#d3d3d3" stroke="#c0c0c0" cx="72.5" cy="-98.2386" rx=".5" ry=".5"/>
</g>
<!-- 24624&#45;&gt;24625 -->
<g id="edge25" class="edge">
<title>24624&#45;&gt;24625</title>
<path fill="none" stroke="#c0c0c0" d="M140.629,-98.2386C129.8946,-98.2386 99.4699,-98.2386 83.1517,-98.2386"/>
<polygon fill="#c0c0c0" stroke="#c0c0c0" points="83.1009,-94.7387 73.1008,-98.2386 83.1008,-101.7387 83.1009,-94.7387"/>
<text text-anchor="middle" x="74.3878" y="-137.2386" font-family="Arial" font-size="10.00" fill="#000000">Schipholweg </text>
<text text-anchor="middle" x="74.3878" y="-125.2386" font-family="Arial" font-size="10.00" fill="#000000"> Zuidtangent </text>
<text text-anchor="middle" x="74.3878" y="-113.2386" font-family="Arial" font-size="10.00" fill="#000000"> (via Knooppunt </text>
<text text-anchor="middle" x="74.3878" y="-101.2386" font-family="Arial" font-size="10.00" fill="#000000"> Schiphol&#45;Noord)</text>
</g>
<!-- 24626 -->
<g id="node26" class="node">
<title>24626</title>
<ellipse fill="#d3d3d3" stroke="#c0c0c0" cx=".5" cy="-26.2386" rx=".5" ry=".5"/>
</g>
<!-- 24625&#45;&gt;24626 -->
<g id="edge26" class="edge">
<title>24625&#45;&gt;24626</title>
<path fill="none" stroke="#c0c0c0" d="M72.0402,-97.7788C67.2002,-92.9388 25.4308,-51.1694 8.0446,-33.7832"/>
<polygon fill="#c0c0c0" stroke="#c0c0c0" points="10.4643,-31.2531 .9183,-26.6569 5.5145,-36.2029 10.4643,-31.2531"/>
</g>
<!-- 24627 -->
<g id="node27" class="node">
<title>24627</title>
<ellipse fill="#d3d3d3" stroke="#c0c0c0" cx="72.5" cy="-26.2386" rx="26.4794" ry="26.4794"/>
<text text-anchor="middle" x="72.5" y="-23.2386" font-family="Arial" font-size="10.00" fill="#000000">SCH</text>
</g>
<!-- 24626&#45;&gt;24627 -->
<g id="edge27" class="edge">
<title>24626&#45;&gt;24627</title>
<path fill="none" stroke="#c0c0c0" d="M1.3086,-26.2386C4.9585,-26.2386 20.3978,-26.2386 35.9694,-26.2386"/>
<polygon fill="#c0c0c0" stroke="#c0c0c0" points="36.0987,-29.7387 46.0987,-26.2386 36.0987,-22.7387 36.0987,-29.7387"/>
</g>
</g>
</svg>

