<?xml version="1.0" encoding="UTF-8" standalone="no"?>
<!DOCTYPE svg PUBLIC "-//W3C//DTD SVG 1.1//EN"
 "http://www.w3.org/Graphics/SVG/1.1/DTD/svg11.dtd">
<!-- Generated by graphviz version 2.40.1 (20161225.0304)
 -->
<!-- Title: G Pages: 1 -->
<svg width="948pt" height="709pt"
 viewBox="0.00 0.00 948.00 709.27" xmlns="http://www.w3.org/2000/svg" xmlns:xlink="http://www.w3.org/1999/xlink">
<g id="graph0" class="graph" transform="scale(1 1) rotate(0) translate(4 705.2692)">
<title>G</title>
<polygon fill="#ffffff" stroke="transparent" points="-4,4 -4,-705.2692 944,-705.2692 944,4 -4,4"/>
<!-- 24501 -->
<g id="node1" class="node">
<title>24501</title>
<ellipse fill="#d3d3d3" stroke="#c0c0c0" cx="504.5" cy="-674.2386" rx="27.0612" ry="27.0612"/>
<text text-anchor="middle" x="504.5" y="-671.2386" font-family="Arial" font-size="10.00" fill="#000000">OOS</text>
</g>
<!-- 24502 -->
<g id="node2" class="node">
<title>24502</title>
<ellipse fill="#d3d3d3" stroke="#c0c0c0" cx="648.5" cy="-674.2386" rx="3.5" ry="3.5"/>
</g>
<!-- 24501&#45;&gt;24502 -->
<g id="edge1" class="edge">
<title>24501&#45;&gt;24502</title>
<path fill="none" stroke="#c0c0c0" d="M531.5853,-674.2386C562.2478,-674.2386 611.0051,-674.2386 634.687,-674.2386"/>
<polygon fill="#c0c0c0" stroke="#c0c0c0" points="634.7752,-677.7387 644.7751,-674.2386 634.7751,-670.7387 634.7752,-677.7387"/>
<text text-anchor="middle" x="600.2277" y="-665.2386" font-family="Arial" font-size="10.00" fill="#000000">Molenaarsweg </text>
<text text-anchor="middle" x="600.2277" y="-653.2386" font-family="Arial" font-size="10.00" fill="#000000"> Lange Vonder </text>
<text text-anchor="middle" x="600.2277" y="-641.2386" font-family="Arial" font-size="10.00" fill="#000000"> Vorticellaweg </text>
<text text-anchor="middle" x="600.2277" y="-629.2386" font-family="Arial" font-size="10.00" fill="#000000"> (lijn 245)</text>
</g>
<!-- 24503 -->
<g id="node3" class="node">
<title>24503</title>
<ellipse fill="#d3d3d3" stroke="#c0c0c0" cx="720.5" cy="-602.2386" rx=".5" ry=".5"/>
</g>
<!-- 24502&#45;&gt;24503 -->
<g id="edge2" class="edge">
<title>24502&#45;&gt;24503</title>
<path fill="none" stroke="#c0c0c0" d="M651.2345,-671.504C661.3487,-661.3898 696.8719,-625.8667 712.741,-609.9975"/>
<polygon fill="#c0c0c0" stroke="#c0c0c0" points="715.2704,-612.418 719.8666,-602.872 710.3206,-607.4682 715.2704,-612.418"/>
</g>
<!-- 24504 -->
<g id="node4" class="node">
<title>24504</title>
<ellipse fill="#d3d3d3" stroke="#c0c0c0" cx="792.5" cy="-602.2386" rx=".5" ry=".5"/>
</g>
<!-- 24503&#45;&gt;24504 -->
<g id="edge3" class="edge">
<title>24503&#45;&gt;24504</title>
<path fill="none" stroke="#c0c0c0" d="M721.3086,-602.2386C727.1601,-602.2386 763.312,-602.2386 781.733,-602.2386"/>
<polygon fill="#c0c0c0" stroke="#c0c0c0" points="781.7874,-605.7387 791.7874,-602.2386 781.7874,-598.7387 781.7874,-605.7387"/>
<text text-anchor="middle" x="717.9083" y="-617.2386" font-family="Arial" font-size="10.00" fill="#000000">IJdoornlaan </text>
<text text-anchor="middle" x="717.9083" y="-605.2386" font-family="Arial" font-size="10.00" fill="#000000"> (via St. Noord)</text>
</g>
<!-- 24505 -->
<g id="node5" class="node">
<title>24505</title>
<ellipse fill="#d3d3d3" stroke="#c0c0c0" cx="864.5" cy="-530.2386" rx="3.5" ry="3.5"/>
</g>
<!-- 24504&#45;&gt;24505 -->
<g id="edge4" class="edge">
<title>24504&#45;&gt;24505</title>
<path fill="none" stroke="#c0c0c0" d="M792.9598,-601.7788C797.6119,-597.1267 836.382,-558.3566 854.8241,-539.9145"/>
<polygon fill="#c0c0c0" stroke="#c0c0c0" points="857.4097,-542.2787 862.0059,-532.7327 852.4599,-537.3289 857.4097,-542.2787"/>
</g>
<!-- 24506 -->
<g id="node6" class="node">
<title>24506</title>
<ellipse fill="#d3d3d3" stroke="#c0c0c0" cx="936.5" cy="-530.2386" rx="3.5" ry="3.5"/>
</g>
<!-- 24505&#45;&gt;24506 -->
<g id="edge5" class="edge">
<title>24505&#45;&gt;24506</title>
<path fill="none" stroke="#c0c0c0" d="M868.371,-530.2386C878.4263,-530.2386 905.7592,-530.2386 922.5903,-530.2386"/>
<polygon fill="#c0c0c0" stroke="#c0c0c0" points="922.9541,-533.7387 932.9541,-530.2386 922.954,-526.7387 922.9541,-533.7387"/>
<text text-anchor="middle" x="895.4807" y="-521.2386" font-family="Arial" font-size="10.00" fill="#000000">Zuiderzeeweg</text>
</g>
<!-- 24507 -->
<g id="node7" class="node">
<title>24507</title>
<ellipse fill="#d3d3d3" stroke="#c0c0c0" cx="936.5" cy="-458.2386" rx=".5" ry=".5"/>
</g>
<!-- 24506&#45;&gt;24507 -->
<g id="edge6" class="edge">
<title>24506&#45;&gt;24507</title>
<path fill="none" stroke="#c0c0c0" d="M936.5,-526.3676C936.5,-515.6332 936.5,-485.2086 936.5,-468.8903"/>
<polygon fill="#c0c0c0" stroke="#c0c0c0" points="940.0001,-468.8394 936.5,-458.8394 933.0001,-468.8395 940.0001,-468.8394"/>
</g>
<!-- 24508 -->
<g id="node8" class="node">
<title>24508</title>
<ellipse fill="#d3d3d3" stroke="#c0c0c0" cx="792.5" cy="-314.2386" rx=".5" ry=".5"/>
</g>
<!-- 24507&#45;&gt;24508 -->
<g id="edge7" class="edge">
<title>24507&#45;&gt;24508</title>
<path fill="none" stroke="#c0c0c0" d="M936.0869,-457.8255C928.8634,-450.6021 828.9746,-350.7132 800.2031,-321.9417"/>
<polygon fill="#c0c0c0" stroke="#c0c0c0" points="802.4339,-319.2227 792.8879,-314.6265 797.4841,-324.1725 802.4339,-319.2227"/>
<text text-anchor="middle" x="809.247" y="-464.8836" font-family="Arial" font-size="10.00" fill="#000000">Zuiderzeeweg </text>
<text text-anchor="middle" x="809.247" y="-452.8836" font-family="Arial" font-size="10.00" fill="#000000"> (via Schellingwouderbrug </text>
<text text-anchor="middle" x="809.247" y="-440.8836" font-family="Arial" font-size="10.00" fill="#000000"> en Amsterdamsebrug) </text>
<text text-anchor="middle" x="809.247" y="-428.8836" font-family="Arial" font-size="10.00" fill="#000000"> Insulindeweg </text>
<text text-anchor="middle" x="809.247" y="-416.8836" font-family="Arial" font-size="10.00" fill="#000000"> (via Muiderpoortstation) </text>
<text text-anchor="middle" x="809.247" y="-404.8836" font-family="Arial" font-size="10.00" fill="#000000"> Wijttenbachweg </text>
<text text-anchor="middle" x="809.247" y="-392.8836" font-family="Arial" font-size="10.00" fill="#000000"> Oosterpark</text>
</g>
<!-- 24509 -->
<g id="node9" class="node">
<title>24509</title>
<ellipse fill="#d3d3d3" stroke="#c0c0c0" cx="720.5" cy="-314.2386" rx="3.5" ry="3.5"/>
</g>
<!-- 24508&#45;&gt;24509 -->
<g id="edge8" class="edge">
<title>24508&#45;&gt;24509</title>
<path fill="none" stroke="#c0c0c0" d="M791.6914,-314.2386C786.1658,-314.2386 753.6208,-314.2386 734.5014,-314.2386"/>
<polygon fill="#c0c0c0" stroke="#c0c0c0" points="734.2949,-310.7387 724.2949,-314.2386 734.2948,-317.7387 734.2949,-310.7387"/>
</g>
<!-- 24510 -->
<g id="node10" class="node">
<title>24510</title>
<ellipse fill="#d3d3d3" stroke="#c0c0c0" cx="720.5" cy="-170.2386" rx="3.5" ry="3.5"/>
</g>
<!-- 24509&#45;&gt;24510 -->
<g id="edge9" class="edge">
<title>24509&#45;&gt;24510</title>
<path fill="none" stroke="#c0c0c0" d="M720.5,-310.679C720.5,-293.1675 720.5,-215.7307 720.5,-183.9358"/>
<polygon fill="#c0c0c0" stroke="#c0c0c0" points="724.0001,-183.9337 720.5,-173.9338 717.0001,-183.9338 724.0001,-183.9337"/>
<text text-anchor="middle" x="673.824" y="-298.3074" font-family="Arial" font-size="10.00" fill="#000000">Beukenweg </text>
<text text-anchor="middle" x="673.824" y="-286.3074" font-family="Arial" font-size="10.00" fill="#000000"> Maritzstraat </text>
<text text-anchor="middle" x="673.824" y="-274.3074" font-family="Arial" font-size="10.00" fill="#000000"> Krugerplein </text>
<text text-anchor="middle" x="673.824" y="-262.3074" font-family="Arial" font-size="10.00" fill="#000000"> Schalk Burgerstraat </text>
<text text-anchor="middle" x="673.824" y="-250.3074" font-family="Arial" font-size="10.00" fill="#000000"> Nobelweg</text>
</g>
<!-- 24511 -->
<g id="node11" class="node">
<title>24511</title>
<ellipse fill="#d3d3d3" stroke="#c0c0c0" cx="648.5" cy="-170.2386" rx="3.5" ry="3.5"/>
</g>
<!-- 24510&#45;&gt;24511 -->
<g id="edge10" class="edge">
<title>24510&#45;&gt;24511</title>
<path fill="none" stroke="#c0c0c0" d="M716.629,-170.2386C706.5737,-170.2386 679.2408,-170.2386 662.4096,-170.2386"/>
<polygon fill="#c0c0c0" stroke="#c0c0c0" points="662.0459,-166.7387 652.0459,-170.2386 662.0459,-173.7387 662.0459,-166.7387"/>
<text text-anchor="middle" x="648.3973" y="-173.2386" font-family="Arial" font-size="10.00" fill="#000000">Hugo de Vrieslaan</text>
</g>
<!-- 24512 -->
<g id="node12" class="node">
<title>24512</title>
<ellipse fill="#d3d3d3" stroke="#c0c0c0" cx="648.5" cy="-242.2386" rx="3.5" ry="3.5"/>
</g>
<!-- 24511&#45;&gt;24512 -->
<g id="edge11" class="edge">
<title>24511&#45;&gt;24512</title>
<path fill="none" stroke="#c0c0c0" d="M648.5,-174.1096C648.5,-184.1649 648.5,-211.4978 648.5,-228.329"/>
<polygon fill="#c0c0c0" stroke="#c0c0c0" points="645.0001,-228.6926 648.5,-238.6927 652.0001,-228.6927 645.0001,-228.6926"/>
<text text-anchor="middle" x="605.9985" y="-216.2193" font-family="Arial" font-size="10.00" fill="#000000">Julianaplein </text>
<text text-anchor="middle" x="605.9985" y="-204.2193" font-family="Arial" font-size="10.00" fill="#000000"> (via Amstelstation)</text>
</g>
<!-- 24513 -->
<g id="node13" class="node">
<title>24513</title>
<ellipse fill="#d3d3d3" stroke="#c0c0c0" cx="504.5" cy="-242.2386" rx="3.5" ry="3.5"/>
</g>
<!-- 24512&#45;&gt;24513 -->
<g id="edge12" class="edge">
<title>24512&#45;&gt;24513</title>
<path fill="none" stroke="#c0c0c0" d="M644.9404,-242.2386C627.4289,-242.2386 549.9921,-242.2386 518.1972,-242.2386"/>
<polygon fill="#c0c0c0" stroke="#c0c0c0" points="518.1952,-238.7387 508.1951,-242.2386 518.1951,-245.7387 518.1952,-238.7387"/>
<text text-anchor="middle" x="536.2833" y="-305.2386" font-family="Arial" font-size="10.00" fill="#000000">Prins Bernhardplein </text>
<text text-anchor="middle" x="536.2833" y="-293.2386" font-family="Arial" font-size="10.00" fill="#000000"> Mr. Treublaan </text>
<text text-anchor="middle" x="536.2833" y="-281.2386" font-family="Arial" font-size="10.00" fill="#000000"> Berlagebrug </text>
<text text-anchor="middle" x="536.2833" y="-269.2386" font-family="Arial" font-size="10.00" fill="#000000"> Vrijheidslaan </text>
<text text-anchor="middle" x="536.2833" y="-257.2386" font-family="Arial" font-size="10.00" fill="#000000"> Victorieplein &#160;</text>
<text text-anchor="middle" x="536.2833" y="-245.2386" font-family="Arial" font-size="10.00" fill="#000000"> Rooseveltlaan</text>
</g>
<!-- 24514 -->
<g id="node14" class="node">
<title>24514</title>
<ellipse fill="#d3d3d3" stroke="#c0c0c0" cx="504.5" cy="-170.2386" rx="3.5" ry="3.5"/>
</g>
<!-- 24513&#45;&gt;24514 -->
<g id="edge13" class="edge">
<title>24513&#45;&gt;24514</title>
<path fill="none" stroke="#c0c0c0" d="M504.5,-238.3676C504.5,-228.3123 504.5,-200.9794 504.5,-184.1483"/>
<polygon fill="#c0c0c0" stroke="#c0c0c0" points="508.0001,-183.7845 504.5,-173.7845 501.0001,-183.7846 508.0001,-183.7845"/>
<text text-anchor="middle" x="465.0425" y="-226.2579" font-family="Arial" font-size="10.00" fill="#000000">Europaplein </text>
<text text-anchor="middle" x="465.0425" y="-214.2579" font-family="Arial" font-size="10.00" fill="#000000"> Europaboulevard</text>
</g>
<!-- 24515 -->
<g id="node15" class="node">
<title>24515</title>
<ellipse fill="#d3d3d3" stroke="#c0c0c0" cx="288.5" cy="-170.2386" rx="3.5" ry="3.5"/>
</g>
<!-- 24514&#45;&gt;24515 -->
<g id="edge14" class="edge">
<title>24514&#45;&gt;24515</title>
<path fill="none" stroke="#c0c0c0" d="M500.7509,-170.2386C476.8382,-170.2386 345.2707,-170.2386 302.1732,-170.2386"/>
<polygon fill="#c0c0c0" stroke="#c0c0c0" points="302.019,-166.7387 292.0189,-170.2386 302.0189,-173.7387 302.019,-166.7387"/>
<text text-anchor="middle" x="364.505" y="-197.2386" font-family="Arial" font-size="10.00" fill="#000000">[A10] </text>
<text text-anchor="middle" x="364.505" y="-185.2386" font-family="Arial" font-size="10.00" fill="#000000"> [A4]: Den Haag </text>
<text text-anchor="middle" x="364.505" y="-173.2386" font-family="Arial" font-size="10.00" fill="#000000"> (1): Sloten</text>
</g>
<!-- 24516 -->
<g id="node16" class="node">
<title>24516</title>
<ellipse fill="#d3d3d3" stroke="#c0c0c0" cx="288.5" cy="-98.2386" rx="3.5" ry="3.5"/>
</g>
<!-- 24515&#45;&gt;24516 -->
<g id="edge15" class="edge">
<title>24515&#45;&gt;24516</title>
<path fill="none" stroke="#c0c0c0" d="M288.5,-166.3676C288.5,-156.3123 288.5,-128.9794 288.5,-112.1483"/>
<polygon fill="#c0c0c0" stroke="#c0c0c0" points="292.0001,-111.7845 288.5,-101.7845 285.0001,-111.7846 292.0001,-111.7845"/>
<text text-anchor="middle" x="255.1565" y="-142.2579" font-family="Arial" font-size="10.00" fill="#000000">Anderlechtlaan</text>
</g>
<!-- 24517 -->
<g id="node17" class="node">
<title>24517</title>
<ellipse fill="#d3d3d3" stroke="#c0c0c0" cx="216.5" cy="-98.2386" rx="3.5" ry="3.5"/>
</g>
<!-- 24516&#45;&gt;24517 -->
<g id="edge16" class="edge">
<title>24516&#45;&gt;24517</title>
<path fill="none" stroke="#c0c0c0" d="M284.629,-98.2386C274.5737,-98.2386 247.2408,-98.2386 230.4096,-98.2386"/>
<polygon fill="#c0c0c0" stroke="#c0c0c0" points="230.0459,-94.7387 220.0459,-98.2386 230.0459,-101.7387 230.0459,-94.7387"/>
<text text-anchor="middle" x="216.1163" y="-113.2386" font-family="Arial" font-size="10.00" fill="#000000">Oude Haagseweg </text>
<text text-anchor="middle" x="216.1163" y="-101.2386" font-family="Arial" font-size="10.00" fill="#000000"> Zuidtangent</text>
</g>
<!-- 24518 -->
<g id="node18" class="node">
<title>24518</title>
<ellipse fill="#d3d3d3" stroke="#c0c0c0" cx="216.5" cy="-26.2386" rx="3.5" ry="3.5"/>
</g>
<!-- 24517&#45;&gt;24518 -->
<g id="edge17" class="edge">
<title>24517&#45;&gt;24518</title>
<path fill="none" stroke="#c0c0c0" d="M216.5,-94.3676C216.5,-84.3123 216.5,-56.9794 216.5,-40.1483"/>
<polygon fill="#c0c0c0" stroke="#c0c0c0" points="220.0001,-39.7845 216.5,-29.7845 213.0001,-39.7846 220.0001,-39.7845"/>
</g>
<!-- 24519 -->
<g id="node19" class="node">
<title>24519</title>
<ellipse fill="#d3d3d3" stroke="#c0c0c0" cx="144.5" cy="-26.2386" rx="3.5" ry="3.5"/>
</g>
<!-- 24518&#45;&gt;24519 -->
<g id="edge18" class="edge">
<title>24518&#45;&gt;24519</title>
<path fill="none" stroke="#c0c0c0" d="M212.629,-26.2386C202.5737,-26.2386 175.2408,-26.2386 158.4096,-26.2386"/>
<polygon fill="#c0c0c0" stroke="#c0c0c0" points="158.046,-22.7387 148.0459,-26.2386 158.0459,-29.7387 158.046,-22.7387"/>
<text text-anchor="middle" x="185.5193" y="-17.2386" font-family="Arial" font-size="10.00" fill="#000000">Zuidtangent</text>
</g>
<!-- 24520 -->
<g id="node20" class="node">
<title>24520</title>
<ellipse fill="#d3d3d3" stroke="#c0c0c0" cx="144.5" cy="-98.2386" rx="3.5" ry="3.5"/>
</g>
<!-- 24519&#45;&gt;24520 -->
<g id="edge19" class="edge">
<title>24519&#45;&gt;24520</title>
<path fill="none" stroke="#c0c0c0" d="M144.5,-30.1096C144.5,-40.1649 144.5,-67.4978 144.5,-84.329"/>
<polygon fill="#c0c0c0" stroke="#c0c0c0" points="141.0001,-84.6926 144.5,-94.6927 148.0001,-84.6927 141.0001,-84.6926"/>
<text text-anchor="middle" x="116.4405" y="-60.2193" font-family="Arial" font-size="10.00" fill="#000000">Cateringweg</text>
</g>
<!-- 24521 -->
<g id="node21" class="node">
<title>24521</title>
<ellipse fill="#d3d3d3" stroke="#c0c0c0" cx="72.5" cy="-98.2386" rx=".5" ry=".5"/>
</g>
<!-- 24520&#45;&gt;24521 -->
<g id="edge20" class="edge">
<title>24520&#45;&gt;24521</title>
<path fill="none" stroke="#c0c0c0" d="M140.629,-98.2386C129.8946,-98.2386 99.4699,-98.2386 83.1517,-98.2386"/>
<polygon fill="#c0c0c0" stroke="#c0c0c0" points="83.1009,-94.7387 73.1008,-98.2386 83.1008,-101.7387 83.1009,-94.7387"/>
<text text-anchor="middle" x="74.3878" y="-137.2386" font-family="Arial" font-size="10.00" fill="#000000">Schipholweg </text>
<text text-anchor="middle" x="74.3878" y="-125.2386" font-family="Arial" font-size="10.00" fill="#000000"> Zuidtangent </text>
<text text-anchor="middle" x="74.3878" y="-113.2386" font-family="Arial" font-size="10.00" fill="#000000"> (via Knooppunt </text>
<text text-anchor="middle" x="74.3878" y="-101.2386" font-family="Arial" font-size="10.00" fill="#000000"> Schiphol&#45;Noord)</text>
</g>
<!-- 24522 -->
<g id="node22" class="node">
<title>24522</title>
<ellipse fill="#d3d3d3" stroke="#c0c0c0" cx=".5" cy="-26.2386" rx=".5" ry=".5"/>
</g>
<!-- 24521&#45;&gt;24522 -->
<g id="edge21" class="edge">
<title>24521&#45;&gt;24522</title>
<path fill="none" stroke="#c0c0c0" d="M72.0402,-97.7788C67.2002,-92.9388 25.4308,-51.1694 8.0446,-33.7832"/>
<polygon fill="#c0c0c0" stroke="#c0c0c0" points="10.4643,-31.2531 .9183,-26.6569 5.5145,-36.2029 10.4643,-31.2531"/>
</g>
<!-- 24523 -->
<g id="node23" class="node">
<title>24523</title>
<ellipse fill="#d3d3d3" stroke="#c0c0c0" cx="72.5" cy="-26.2386" rx="26.4794" ry="26.4794"/>
<text text-anchor="middle" x="72.5" y="-23.2386" font-family="Arial" font-size="10.00" fill="#000000">SCH</text>
</g>
<!-- 24522&#45;&gt;24523 -->
<g id="edge22" class="edge">
<title>24522&#45;&gt;24523</title>
<path fill="none" stroke="#c0c0c0" d="M1.3086,-26.2386C4.9585,-26.2386 20.3978,-26.2386 35.9694,-26.2386"/>
<polygon fill="#c0c0c0" stroke="#c0c0c0" points="36.0987,-29.7387 46.0987,-26.2386 36.0987,-22.7387 36.0987,-29.7387"/>
</g>
</g>
</svg>

