<?xml version="1.0" encoding="UTF-8" standalone="no"?>
<!DOCTYPE svg PUBLIC "-//W3C//DTD SVG 1.1//EN"
 "http://www.w3.org/Graphics/SVG/1.1/DTD/svg11.dtd">
<!-- Generated by graphviz version 2.40.1 (20161225.0304)
 -->
<!-- Title: G Pages: 1 -->
<svg width="718pt" height="563pt"
 viewBox="0.00 0.00 717.55 562.91" xmlns="http://www.w3.org/2000/svg" xmlns:xlink="http://www.w3.org/1999/xlink">
<g id="graph0" class="graph" transform="scale(1 1) rotate(0) translate(4 558.9145)">
<title>G</title>
<polygon fill="#ffffff" stroke="transparent" points="-4,4 -4,-558.9145 713.5489,-558.9145 713.5489,4 -4,4"/>
<!-- 24701 -->
<g id="node1" class="node">
<title>24701</title>
<ellipse fill="#d3d3d3" stroke="#c0c0c0" cx="576.5" cy="-530.2386" rx="24.8531" ry="24.8531"/>
<text text-anchor="middle" x="576.5" y="-527.2386" font-family="Arial" font-size="10.00" fill="#000000">BEL</text>
</g>
<!-- 24702 -->
<g id="node2" class="node">
<title>24702</title>
<ellipse fill="#d3d3d3" stroke="#c0c0c0" cx="648.5" cy="-530.2386" rx="3.5" ry="3.5"/>
</g>
<!-- 24701&#45;&gt;24702 -->
<g id="edge1" class="edge">
<title>24701&#45;&gt;24702</title>
<path fill="none" stroke="#c0c0c0" d="M601.2783,-530.2386C612.3656,-530.2386 625.0306,-530.2386 634.4516,-530.2386"/>
<polygon fill="#c0c0c0" stroke="#c0c0c0" points="634.5618,-533.7387 644.5618,-530.2386 634.5618,-526.7387 634.5618,-533.7387"/>
<text text-anchor="middle" x="663.7069" y="-545.2386" font-family="Arial" font-size="10.00" fill="#000000">Bos en Lommerweg </text>
<text text-anchor="middle" x="663.7069" y="-533.2386" font-family="Arial" font-size="10.00" fill="#000000"> (lijn 247)</text>
</g>
<!-- 24703 -->
<g id="node3" class="node">
<title>24703</title>
<ellipse fill="#d3d3d3" stroke="#c0c0c0" cx="648.5" cy="-458.2386" rx="3.5" ry="3.5"/>
</g>
<!-- 24702&#45;&gt;24703 -->
<g id="edge2" class="edge">
<title>24702&#45;&gt;24703</title>
<path fill="none" stroke="#c0c0c0" d="M648.5,-526.3676C648.5,-516.3123 648.5,-488.9794 648.5,-472.1483"/>
<polygon fill="#c0c0c0" stroke="#c0c0c0" points="652.0001,-471.7845 648.5,-461.7845 645.0001,-471.7846 652.0001,-471.7845"/>
<text text-anchor="middle" x="596.831" y="-490.2579" font-family="Arial" font-size="10.00" fill="#000000">Admiraal de Ruijterweg</text>
</g>
<!-- 24704 -->
<g id="node4" class="node">
<title>24704</title>
<ellipse fill="#d3d3d3" stroke="#c0c0c0" cx="576.5" cy="-458.2386" rx="3.5" ry="3.5"/>
</g>
<!-- 24703&#45;&gt;24704 -->
<g id="edge3" class="edge">
<title>24703&#45;&gt;24704</title>
<path fill="none" stroke="#c0c0c0" d="M644.629,-458.2386C634.5737,-458.2386 607.2408,-458.2386 590.4097,-458.2386"/>
<polygon fill="#c0c0c0" stroke="#c0c0c0" points="590.046,-454.7387 580.0459,-458.2386 590.0459,-461.7387 590.046,-454.7387"/>
<text text-anchor="middle" x="574.4518" y="-473.2386" font-family="Arial" font-size="10.00" fill="#000000">Jan Evertsenstraat </text>
<text text-anchor="middle" x="574.4518" y="-461.2386" font-family="Arial" font-size="10.00" fill="#000000"> Mercatorplein</text>
</g>
<!-- 24705 -->
<g id="node5" class="node">
<title>24705</title>
<ellipse fill="#d3d3d3" stroke="#c0c0c0" cx="576.5" cy="-386.2386" rx="3.5" ry="3.5"/>
</g>
<!-- 24704&#45;&gt;24705 -->
<g id="edge4" class="edge">
<title>24704&#45;&gt;24705</title>
<path fill="none" stroke="#c0c0c0" d="M576.5,-454.3676C576.5,-444.3123 576.5,-416.9794 576.5,-400.1483"/>
<polygon fill="#c0c0c0" stroke="#c0c0c0" points="580.0001,-399.7845 576.5,-389.7845 573.0001,-399.7846 580.0001,-399.7845"/>
<text text-anchor="middle" x="543.162" y="-442.2579" font-family="Arial" font-size="10.00" fill="#000000">Hoofdweg </text>
<text text-anchor="middle" x="543.162" y="-430.2579" font-family="Arial" font-size="10.00" fill="#000000"> Surinameplein</text>
</g>
<!-- 24706 -->
<g id="node6" class="node">
<title>24706</title>
<ellipse fill="#d3d3d3" stroke="#c0c0c0" cx="504.5" cy="-386.2386" rx="3.5" ry="3.5"/>
</g>
<!-- 24705&#45;&gt;24706 -->
<g id="edge5" class="edge">
<title>24705&#45;&gt;24706</title>
<path fill="none" stroke="#c0c0c0" d="M572.629,-386.2386C562.5737,-386.2386 535.2408,-386.2386 518.4097,-386.2386"/>
<polygon fill="#c0c0c0" stroke="#c0c0c0" points="518.046,-382.7387 508.0459,-386.2386 518.0459,-389.7387 518.046,-382.7387"/>
<text text-anchor="middle" x="545.5193" y="-377.2386" font-family="Arial" font-size="10.00" fill="#000000">Cornelis </text>
<text text-anchor="middle" x="545.5193" y="-365.2386" font-family="Arial" font-size="10.00" fill="#000000"> Lelylaan</text>
</g>
<!-- 24707 -->
<g id="node7" class="node">
<title>24707</title>
<ellipse fill="#d3d3d3" stroke="#c0c0c0" cx="482.9" cy="-386.2386" rx=".36" ry=".36"/>
</g>
<!-- 24706&#45;&gt;24707 -->
<g id="edge6" class="edge">
<title>24706&#45;&gt;24707</title>
<path fill="none" stroke="#c0c0c0" d="M503.0828,-382.679C498.4275,-377.6215 483.8508,-378.577 482.9443,-385.5455"/>
</g>
<!-- 24708 -->
<g id="node8" class="node">
<title>24708</title>
<ellipse fill="#d3d3d3" stroke="#c0c0c0" cx="504.5" cy="-314.2386" rx="3.5" ry="3.5"/>
</g>
<!-- 24706&#45;&gt;24708 -->
<g id="edge8" class="edge">
<title>24706&#45;&gt;24708</title>
<path fill="none" stroke="#c0c0c0" d="M504.5,-382.3676C504.5,-372.3123 504.5,-344.9794 504.5,-328.1483"/>
<polygon fill="#c0c0c0" stroke="#c0c0c0" points="508.0001,-327.7845 504.5,-317.7845 501.0001,-327.7846 508.0001,-327.7845"/>
<text text-anchor="middle" x="476.716" y="-358.2579" font-family="Arial" font-size="10.00" fill="#000000">Delflandlaan</text>
</g>
<!-- 24707&#45;&gt;24706 -->
<g id="edge7" class="edge">
<title>24707&#45;&gt;24706</title>
<path fill="none" stroke="#c0c0c0" d="M482.9157,-386.6539C483.2347,-390.8404 488.3783,-392.9518 493.5638,-392.9881"/>
<polygon fill="#c0c0c0" stroke="#c0c0c0" points="494.7739,-396.2737 503.1242,-389.7527 492.53,-389.6431 494.7739,-396.2737"/>
</g>
<!-- 24709 -->
<g id="node9" class="node">
<title>24709</title>
<ellipse fill="#d3d3d3" stroke="#c0c0c0" cx="432.5" cy="-314.2386" rx="3.5" ry="3.5"/>
</g>
<!-- 24708&#45;&gt;24709 -->
<g id="edge9" class="edge">
<title>24708&#45;&gt;24709</title>
<path fill="none" stroke="#c0c0c0" d="M500.629,-314.2386C490.5737,-314.2386 463.2408,-314.2386 446.4097,-314.2386"/>
<polygon fill="#c0c0c0" stroke="#c0c0c0" points="446.046,-310.7387 436.0459,-314.2386 446.0459,-317.7387 446.046,-310.7387"/>
<text text-anchor="middle" x="432.3983" y="-341.2386" font-family="Arial" font-size="10.00" fill="#000000">Schipluidenlaan </text>
<text text-anchor="middle" x="432.3983" y="-329.2386" font-family="Arial" font-size="10.00" fill="#000000"> (via St. Lelylaan) </text>
<text text-anchor="middle" x="432.3983" y="-317.2386" font-family="Arial" font-size="10.00" fill="#000000"> Pieter Calandlaan</text>
</g>
<!-- 24710 -->
<g id="node10" class="node">
<title>24710</title>
<ellipse fill="#d3d3d3" stroke="#c0c0c0" cx="432.5" cy="-242.2386" rx="3.5" ry="3.5"/>
</g>
<!-- 24709&#45;&gt;24710 -->
<g id="edge10" class="edge">
<title>24709&#45;&gt;24710</title>
<path fill="none" stroke="#c0c0c0" d="M432.5,-310.3676C432.5,-300.3123 432.5,-272.9794 432.5,-256.1483"/>
<polygon fill="#c0c0c0" stroke="#c0c0c0" points="436.0001,-255.7845 432.5,-245.7845 429.0001,-255.7846 436.0001,-255.7845"/>
<text text-anchor="middle" x="388.598" y="-286.2579" font-family="Arial" font-size="10.00" fill="#000000">Johan Huizingalaan</text>
</g>
<!-- 24711 -->
<g id="node11" class="node">
<title>24711</title>
<ellipse fill="#d3d3d3" stroke="#c0c0c0" cx="360.5" cy="-242.2386" rx="3.5" ry="3.5"/>
</g>
<!-- 24710&#45;&gt;24711 -->
<g id="edge11" class="edge">
<title>24710&#45;&gt;24711</title>
<path fill="none" stroke="#c0c0c0" d="M428.629,-242.2386C418.5737,-242.2386 391.2408,-242.2386 374.4097,-242.2386"/>
<polygon fill="#c0c0c0" stroke="#c0c0c0" points="374.046,-238.7387 364.0459,-242.2386 374.0459,-245.7387 374.046,-238.7387"/>
<text text-anchor="middle" x="365.1163" y="-257.2386" font-family="Arial" font-size="10.00" fill="#000000">Louwesweg </text>
<text text-anchor="middle" x="365.1163" y="-245.2386" font-family="Arial" font-size="10.00" fill="#000000"> Antwerpenbaan</text>
</g>
<!-- 24712 -->
<g id="node12" class="node">
<title>24712</title>
<ellipse fill="#d3d3d3" stroke="#c0c0c0" cx="360.5" cy="-170.2386" rx=".5" ry=".5"/>
</g>
<!-- 24711&#45;&gt;24712 -->
<g id="edge12" class="edge">
<title>24711&#45;&gt;24712</title>
<path fill="none" stroke="#c0c0c0" d="M360.5,-238.3676C360.5,-227.6332 360.5,-197.2086 360.5,-180.8903"/>
<polygon fill="#c0c0c0" stroke="#c0c0c0" points="364.0001,-180.8394 360.5,-170.8394 357.0001,-180.8395 364.0001,-180.8394"/>
<text text-anchor="middle" x="312.979" y="-212.6289" font-family="Arial" font-size="10.00" fill="#000000">Laan van Vlaanderen</text>
</g>
<!-- 24713 -->
<g id="node13" class="node">
<title>24713</title>
<ellipse fill="#d3d3d3" stroke="#c0c0c0" cx="288.5" cy="-170.2386" rx="3.5" ry="3.5"/>
</g>
<!-- 24712&#45;&gt;24713 -->
<g id="edge13" class="edge">
<title>24712&#45;&gt;24713</title>
<path fill="none" stroke="#c0c0c0" d="M359.6914,-170.2386C354.1658,-170.2386 321.6208,-170.2386 302.5014,-170.2386"/>
<polygon fill="#c0c0c0" stroke="#c0c0c0" points="302.2949,-166.7387 292.2949,-170.2386 302.2949,-173.7387 302.2949,-166.7387"/>
</g>
<!-- 24714 -->
<g id="node14" class="node">
<title>24714</title>
<ellipse fill="#d3d3d3" stroke="#c0c0c0" cx="288.5" cy="-98.2386" rx="3.5" ry="3.5"/>
</g>
<!-- 24713&#45;&gt;24714 -->
<g id="edge14" class="edge">
<title>24713&#45;&gt;24714</title>
<path fill="none" stroke="#c0c0c0" d="M288.5,-166.3676C288.5,-156.3123 288.5,-128.9794 288.5,-112.1483"/>
<polygon fill="#c0c0c0" stroke="#c0c0c0" points="292.0001,-111.7845 288.5,-101.7845 285.0001,-111.7846 292.0001,-111.7845"/>
<text text-anchor="middle" x="255.1565" y="-142.2579" font-family="Arial" font-size="10.00" fill="#000000">Anderlechtlaan</text>
</g>
<!-- 24715 -->
<g id="node15" class="node">
<title>24715</title>
<ellipse fill="#d3d3d3" stroke="#c0c0c0" cx="216.5" cy="-98.2386" rx="3.5" ry="3.5"/>
</g>
<!-- 24714&#45;&gt;24715 -->
<g id="edge15" class="edge">
<title>24714&#45;&gt;24715</title>
<path fill="none" stroke="#c0c0c0" d="M284.629,-98.2386C274.5737,-98.2386 247.2408,-98.2386 230.4097,-98.2386"/>
<polygon fill="#c0c0c0" stroke="#c0c0c0" points="230.046,-94.7387 220.0459,-98.2386 230.0459,-101.7387 230.046,-94.7387"/>
<text text-anchor="middle" x="216.1163" y="-113.2386" font-family="Arial" font-size="10.00" fill="#000000">Oude Haagseweg </text>
<text text-anchor="middle" x="216.1163" y="-101.2386" font-family="Arial" font-size="10.00" fill="#000000"> Zuidtangent</text>
</g>
<!-- 24716 -->
<g id="node16" class="node">
<title>24716</title>
<ellipse fill="#d3d3d3" stroke="#c0c0c0" cx="216.5" cy="-26.2386" rx="3.5" ry="3.5"/>
</g>
<!-- 24715&#45;&gt;24716 -->
<g id="edge16" class="edge">
<title>24715&#45;&gt;24716</title>
<path fill="none" stroke="#c0c0c0" d="M216.5,-94.3676C216.5,-84.3123 216.5,-56.9794 216.5,-40.1483"/>
<polygon fill="#c0c0c0" stroke="#c0c0c0" points="220.0001,-39.7845 216.5,-29.7845 213.0001,-39.7846 220.0001,-39.7845"/>
</g>
<!-- 24717 -->
<g id="node17" class="node">
<title>24717</title>
<ellipse fill="#d3d3d3" stroke="#c0c0c0" cx="144.5" cy="-26.2386" rx="3.5" ry="3.5"/>
</g>
<!-- 24716&#45;&gt;24717 -->
<g id="edge17" class="edge">
<title>24716&#45;&gt;24717</title>
<path fill="none" stroke="#c0c0c0" d="M212.629,-26.2386C202.5737,-26.2386 175.2408,-26.2386 158.4097,-26.2386"/>
<polygon fill="#c0c0c0" stroke="#c0c0c0" points="158.046,-22.7387 148.0459,-26.2386 158.0459,-29.7387 158.046,-22.7387"/>
<text text-anchor="middle" x="185.5193" y="-17.2386" font-family="Arial" font-size="10.00" fill="#000000">Zuidtangent</text>
</g>
<!-- 24718 -->
<g id="node18" class="node">
<title>24718</title>
<ellipse fill="#d3d3d3" stroke="#c0c0c0" cx="144.5" cy="-98.2386" rx="3.5" ry="3.5"/>
</g>
<!-- 24717&#45;&gt;24718 -->
<g id="edge18" class="edge">
<title>24717&#45;&gt;24718</title>
<path fill="none" stroke="#c0c0c0" d="M144.5,-30.1096C144.5,-40.1649 144.5,-67.4978 144.5,-84.329"/>
<polygon fill="#c0c0c0" stroke="#c0c0c0" points="141.0001,-84.6926 144.5,-94.6927 148.0001,-84.6927 141.0001,-84.6926"/>
<text text-anchor="middle" x="116.4405" y="-60.2193" font-family="Arial" font-size="10.00" fill="#000000">Cateringweg</text>
</g>
<!-- 24719 -->
<g id="node19" class="node">
<title>24719</title>
<ellipse fill="#d3d3d3" stroke="#c0c0c0" cx="72.5" cy="-98.2386" rx=".5" ry=".5"/>
</g>
<!-- 24718&#45;&gt;24719 -->
<g id="edge19" class="edge">
<title>24718&#45;&gt;24719</title>
<path fill="none" stroke="#c0c0c0" d="M140.629,-98.2386C129.8946,-98.2386 99.47,-98.2386 83.1517,-98.2386"/>
<polygon fill="#c0c0c0" stroke="#c0c0c0" points="83.1009,-94.7387 73.1008,-98.2386 83.1008,-101.7387 83.1009,-94.7387"/>
<text text-anchor="middle" x="74.3878" y="-137.2386" font-family="Arial" font-size="10.00" fill="#000000">Schipholweg </text>
<text text-anchor="middle" x="74.3878" y="-125.2386" font-family="Arial" font-size="10.00" fill="#000000"> Zuidtangent </text>
<text text-anchor="middle" x="74.3878" y="-113.2386" font-family="Arial" font-size="10.00" fill="#000000"> (via Knooppunt </text>
<text text-anchor="middle" x="74.3878" y="-101.2386" font-family="Arial" font-size="10.00" fill="#000000"> Schiphol&#45;Noord)</text>
</g>
<!-- 24720 -->
<g id="node20" class="node">
<title>24720</title>
<ellipse fill="#d3d3d3" stroke="#c0c0c0" cx=".5" cy="-26.2386" rx=".5" ry=".5"/>
</g>
<!-- 24719&#45;&gt;24720 -->
<g id="edge20" class="edge">
<title>24719&#45;&gt;24720</title>
<path fill="none" stroke="#c0c0c0" d="M72.0402,-97.7788C67.2002,-92.9388 25.4308,-51.1694 8.0446,-33.7832"/>
<polygon fill="#c0c0c0" stroke="#c0c0c0" points="10.4643,-31.2531 .9183,-26.6569 5.5145,-36.2029 10.4643,-31.2531"/>
</g>
<!-- 24721 -->
<g id="node21" class="node">
<title>24721</title>
<ellipse fill="#d3d3d3" stroke="#c0c0c0" cx="72.5" cy="-26.2386" rx="26.4794" ry="26.4794"/>
<text text-anchor="middle" x="72.5" y="-23.2386" font-family="Arial" font-size="10.00" fill="#000000">SCH</text>
</g>
<!-- 24720&#45;&gt;24721 -->
<g id="edge21" class="edge">
<title>24720&#45;&gt;24721</title>
<path fill="none" stroke="#c0c0c0" d="M1.3086,-26.2386C4.9585,-26.2386 20.3978,-26.2386 35.9694,-26.2386"/>
<polygon fill="#c0c0c0" stroke="#c0c0c0" points="36.0987,-29.7387 46.0987,-26.2386 36.0987,-22.7387 36.0987,-29.7387"/>
</g>
</g>
</svg>

