<?xml version="1.0" encoding="UTF-8" standalone="no"?>
<!DOCTYPE svg PUBLIC "-//W3C//DTD SVG 1.1//EN"
 "http://www.w3.org/Graphics/SVG/1.1/DTD/svg11.dtd">
<!-- Generated by graphviz version 2.40.1 (20161225.0304)
 -->
<!-- Title: G Pages: 1 -->
<svg width="805pt" height="268pt"
 viewBox="0.00 0.00 805.13 268.16" xmlns="http://www.w3.org/2000/svg" xmlns:xlink="http://www.w3.org/1999/xlink">
<g id="graph0" class="graph" transform="scale(1 1) rotate(0) translate(4 264.1608)">
<title>G</title>
<polygon fill="#ffffff" stroke="transparent" points="-4,4 -4,-264.1608 801.1308,-264.1608 801.1308,4 -4,4"/>
<text text-anchor="middle" x="398.5654" y="-5.8" font-family="Times,serif" font-size="6.00" fill="#000000">* Bij terugkomst volgt u de stippellijn</text>
<!-- 23101 -->
<g id="node1" class="node">
<title>23101</title>
<ellipse fill="#d3d3d3" stroke="#c0c0c0" cx="771.67" cy="-40.6608" rx="25.4216" ry="25.4216"/>
<text text-anchor="middle" x="771.67" y="-37.6608" font-family="Arial" font-size="10.00" fill="#000000">SLO</text>
</g>
<!-- 23102 -->
<g id="node2" class="node">
<title>23102</title>
<ellipse fill="#d3d3d3" stroke="#c0c0c0" cx="627.67" cy="-40.6608" rx="3.5" ry="3.5"/>
</g>
<!-- 23101&#45;&gt;23102 -->
<g id="edge1" class="edge">
<title>23101&#45;&gt;23102</title>
<path fill="none" stroke="#c0c0c0" d="M745.9257,-40.6608C715.4792,-40.6608 665.8957,-40.6608 641.7609,-40.6608"/>
<polygon fill="#c0c0c0" stroke="#c0c0c0" points="641.473,-37.1609 631.473,-40.6608 641.473,-44.1609 641.473,-37.1609"/>
<text text-anchor="middle" x="666.0588" y="-55.6608" font-family="Arial" font-size="10.00" fill="#000000">Arlandaweg </text>
<text text-anchor="middle" x="666.0588" y="-43.6608" font-family="Arial" font-size="10.00" fill="#000000"> (lijn 231*)</text>
</g>
<!-- 23103 -->
<g id="node3" class="node">
<title>23103</title>
<ellipse fill="#d3d3d3" stroke="#c0c0c0" cx="627.67" cy="-112.6608" rx="3.5" ry="3.5"/>
</g>
<!-- 23102&#45;&gt;23103 -->
<g id="edge2" class="edge">
<title>23102&#45;&gt;23103</title>
<path fill="none" stroke="#c0c0c0" d="M627.67,-44.5318C627.67,-54.5871 627.67,-81.92 627.67,-98.7511"/>
<polygon fill="#c0c0c0" stroke="#c0c0c0" points="624.1701,-99.1148 627.67,-109.1149 631.1701,-99.1149 624.1701,-99.1148"/>
<text text-anchor="middle" x="604.889" y="-74.6415" font-family="Arial" font-size="10.00" fill="#000000">Radarweg</text>
</g>
<!-- 23104 -->
<g id="node4" class="node">
<title>23104</title>
<ellipse fill="#d3d3d3" stroke="#c0c0c0" cx="555.67" cy="-112.6608" rx="3.5" ry="3.5"/>
</g>
<!-- 23103&#45;&gt;23104 -->
<g id="edge3" class="edge">
<title>23103&#45;&gt;23104</title>
<path fill="none" stroke="#c0c0c0" d="M623.799,-112.6608C613.7437,-112.6608 586.4108,-112.6608 569.5796,-112.6608"/>
<polygon fill="#c0c0c0" stroke="#c0c0c0" points="569.2159,-109.1609 559.2159,-112.6608 569.2159,-116.1609 569.2159,-109.1609"/>
<text text-anchor="middle" x="596.6893" y="-103.6608" font-family="Arial" font-size="10.00" fill="#000000">Kastrupstraat </text>
<text text-anchor="middle" x="596.6893" y="-91.6608" font-family="Arial" font-size="10.00" fill="#000000"> Rhoneweg</text>
</g>
<!-- 23105 -->
<g id="node5" class="node">
<title>23105</title>
<ellipse fill="#d3d3d3" stroke="#c0c0c0" cx="555.67" cy="-184.6608" rx="3.5" ry="3.5"/>
</g>
<!-- 23104&#45;&gt;23105 -->
<g id="edge4" class="edge">
<title>23104&#45;&gt;23105</title>
<path fill="none" stroke="#c0c0c0" d="M555.67,-116.5318C555.67,-126.5871 555.67,-153.92 555.67,-170.7511"/>
<polygon fill="#c0c0c0" stroke="#c0c0c0" points="552.1701,-171.1148 555.67,-181.1149 559.1701,-171.1149 552.1701,-171.1148"/>
<text text-anchor="middle" x="533.719" y="-146.6415" font-family="Arial" font-size="10.00" fill="#000000">Seineweg</text>
</g>
<!-- 23106 -->
<g id="node6" class="node">
<title>23106</title>
<ellipse fill="#d3d3d3" stroke="#c0c0c0" cx="483.67" cy="-256.6608" rx="3.5" ry="3.5"/>
</g>
<!-- 23105&#45;&gt;23106 -->
<g id="edge5" class="edge">
<title>23105&#45;&gt;23106</title>
<path fill="none" stroke="#c0c0c0" d="M552.9354,-187.3954C543.3125,-197.0183 510.6889,-229.6418 493.8752,-246.4555"/>
<polygon fill="#c0c0c0" stroke="#c0c0c0" points="491.0035,-244.3775 486.4073,-253.9235 495.9533,-249.3273 491.0035,-244.3775"/>
<text text-anchor="middle" x="502.0133" y="-219.9255" font-family="Arial" font-size="10.00" fill="#000000">Basisweg</text>
</g>
<!-- 23107 -->
<g id="node7" class="node">
<title>23107</title>
<ellipse fill="#d3d3d3" stroke="#c0c0c0" cx="411.67" cy="-184.6608" rx="3.5" ry="3.5"/>
</g>
<!-- 23106&#45;&gt;23107 -->
<g id="edge6" class="edge">
<title>23106&#45;&gt;23107</title>
<path fill="none" stroke="#c0c0c0" d="M480.9354,-253.9262C471.3125,-244.3033 438.689,-211.6798 421.8752,-194.866"/>
<polygon fill="#c0c0c0" stroke="#c0c0c0" points="423.9533,-191.9943 414.4073,-187.3981 419.0035,-196.9441 423.9533,-191.9943"/>
<text text-anchor="middle" x="428.0693" y="-239.3961" font-family="Arial" font-size="10.00" fill="#000000">Noordzee&#45;</text>
<text text-anchor="middle" x="428.0693" y="-227.3961" font-family="Arial" font-size="10.00" fill="#000000">&#45;weg</text>
</g>
<!-- 23108 -->
<g id="node8" class="node">
<title>23108</title>
<ellipse fill="#d3d3d3" stroke="#c0c0c0" cx="339.67" cy="-256.6608" rx="3.5" ry="3.5"/>
</g>
<!-- 23107&#45;&gt;23108 -->
<g id="edge7" class="edge">
<title>23107&#45;&gt;23108</title>
<path fill="none" stroke="#c0c0c0" d="M408.9354,-187.3954C399.3125,-197.0183 366.689,-229.6418 349.8752,-246.4555"/>
<polygon fill="#c0c0c0" stroke="#c0c0c0" points="347.0035,-244.3775 342.4073,-253.9235 351.9533,-249.3273 347.0035,-244.3775"/>
<text text-anchor="middle" x="364.6838" y="-243.9255" font-family="Arial" font-size="10.00" fill="#000000">West&#45;</text>
<text text-anchor="middle" x="364.6838" y="-231.9255" font-family="Arial" font-size="10.00" fill="#000000">&#45;poort&#45;</text>
<text text-anchor="middle" x="364.6838" y="-219.9255" font-family="Arial" font-size="10.00" fill="#000000">&#45;weg</text>
</g>
<!-- 23109 -->
<g id="node9" class="node">
<title>23109</title>
<ellipse fill="#d3d3d3" stroke="#c0c0c0" cx="339.67" cy="-184.6608" rx="3.5" ry="3.5"/>
</g>
<!-- 23108&#45;&gt;23109 -->
<g id="edge8" class="edge">
<title>23108&#45;&gt;23109</title>
<path fill="none" stroke="#c0c0c0" d="M339.67,-252.7898C339.67,-242.7345 339.67,-215.4016 339.67,-198.5704"/>
<polygon fill="#c0c0c0" stroke="#c0c0c0" points="343.1701,-198.2067 339.67,-188.2067 336.1701,-198.2068 343.1701,-198.2067"/>
<text text-anchor="middle" x="295.773" y="-228.6801" font-family="Arial" font-size="10.00" fill="#000000">Australiëhavenweg</text>
</g>
<!-- 23110 -->
<g id="node10" class="node">
<title>23110</title>
<ellipse fill="#d3d3d3" stroke="#c0c0c0" cx="51.67" cy="-184.6608" rx="3.5" ry="3.5"/>
</g>
<!-- 23109&#45;&gt;23110 -->
<g id="edge9" class="edge">
<title>23109&#45;&gt;23110</title>
<path fill="none" stroke="#c0c0c0" d="M336.0286,-184.6608C307.395,-184.6608 118.1866,-184.6608 65.3514,-184.6608"/>
<polygon fill="#c0c0c0" stroke="#c0c0c0" points="65.2301,-181.1609 55.2301,-184.6608 65.2301,-188.1609 65.2301,-181.1609"/>
<text text-anchor="middle" x="170.6805" y="-199.6608" font-family="Arial" font-size="10.00" fill="#000000">Bornhout </text>
<text text-anchor="middle" x="170.6805" y="-187.6608" font-family="Arial" font-size="10.00" fill="#000000"> Scharenburg</text>
</g>
<!-- 23111 -->
<g id="node11" class="node">
<title>23111</title>
<ellipse fill="#d3d3d3" stroke="#c0c0c0" cx="51.67" cy="-40.6608" rx="3.5" ry="3.5"/>
</g>
<!-- 23110&#45;&gt;23111 -->
<g id="edge10" class="edge">
<title>23110&#45;&gt;23111</title>
<path fill="none" stroke="#c0c0c0" d="M51.67,-181.1012C51.67,-163.5897 51.67,-86.1529 51.67,-54.358"/>
<polygon fill="#c0c0c0" stroke="#c0c0c0" points="55.1701,-54.3559 51.67,-44.356 48.1701,-54.356 55.1701,-54.3559"/>
<text text-anchor="middle" x="25.835" y="-120.7296" font-family="Arial" font-size="10.00" fill="#000000">Dortmuiden</text>
</g>
<!-- 23112 -->
<g id="node12" class="node">
<title>23112</title>
<ellipse fill="#d3d3d3" stroke="#c0c0c0" cx="123.67" cy="-40.6608" rx=".5" ry=".5"/>
</g>
<!-- 23111&#45;&gt;23112 -->
<g id="edge11" class="edge">
<title>23111&#45;&gt;23112</title>
<path fill="none" stroke="#c0c0c0" d="M55.541,-40.6608C66.2754,-40.6608 96.7,-40.6608 113.0183,-40.6608"/>
<polygon fill="#c0c0c0" stroke="#c0c0c0" points="113.0692,-44.1609 123.0692,-40.6608 113.0691,-37.1609 113.0692,-44.1609"/>
<text text-anchor="middle" x="108.7247" y="-43.6608" font-family="Arial" font-size="10.00" fill="#000000">Tijnmuiden</text>
</g>
<!-- 23113 -->
<g id="node13" class="node">
<title>23113</title>
<ellipse fill="#d3d3d3" stroke="#c0c0c0" cx="123.67" cy="-112.6608" rx="3.5" ry="3.5"/>
</g>
<!-- 23112&#45;&gt;23113 -->
<g id="edge12" class="edge">
<title>23112&#45;&gt;23113</title>
<path fill="none" stroke="#c0c0c0" d="M123.67,-41.4694C123.67,-46.995 123.67,-79.54 123.67,-98.6594"/>
<polygon fill="#c0c0c0" stroke="#c0c0c0" points="120.1701,-98.8659 123.67,-108.8659 127.1701,-98.8659 120.1701,-98.8659"/>
</g>
<!-- 23114 -->
<g id="node14" class="node">
<title>23114</title>
<ellipse fill="#d3d3d3" stroke="#c0c0c0" cx="195.67" cy="-112.6608" rx="25.4216" ry="25.4216"/>
<text text-anchor="middle" x="195.67" y="-109.6608" font-family="Arial" font-size="10.00" fill="#000000">ABB</text>
</g>
<!-- 23113&#45;&gt;23114 -->
<g id="edge13" class="edge">
<title>23113&#45;&gt;23114</title>
<path fill="none" stroke="#c0c0c0" d="M127.541,-112.6608C133.8101,-112.6608 146.7949,-112.6608 159.7635,-112.6608"/>
<polygon fill="#c0c0c0" stroke="#c0c0c0" points="160.032,-116.1609 170.032,-112.6608 160.032,-109.1609 160.032,-116.1609"/>
<text text-anchor="middle" x="119.1968" y="-115.6608" font-family="Arial" font-size="10.00" fill="#000000">Abberdaan</text>
</g>
<!-- 23115 -->
<g id="node15" class="node">
<title>23115</title>
<ellipse fill="#d3d3d3" stroke="#c0c0c0" cx="267.67" cy="-112.6608" rx="3.5" ry="3.5"/>
</g>
<!-- 23114&#45;&gt;23115 -->
<g id="edge14" class="edge">
<title>23114&#45;&gt;23115</title>
<path fill="none" stroke="#c0c0c0" stroke-dasharray="5,2" d="M221.2572,-112.6608C237.1017,-112.6608 255.8906,-112.6608 263.8276,-112.6608"/>
<text text-anchor="middle" x="266.9979" y="-115.6608" font-family="Arial" font-size="10.00" fill="#000000">Abberdaan</text>
</g>
<!-- 23116 -->
<g id="node16" class="node">
<title>23116</title>
<ellipse fill="#d3d3d3" stroke="#c0c0c0" cx="267.67" cy="-40.6608" rx=".5" ry=".5"/>
</g>
<!-- 23115&#45;&gt;23116 -->
<g id="edge15" class="edge">
<title>23115&#45;&gt;23116</title>
<path fill="none" stroke="#c0c0c0" stroke-dasharray="5,2" d="M267.67,-108.7898C267.67,-94.7693 267.67,-47.1582 267.67,-41.2616"/>
<text text-anchor="middle" x="244.334" y="-78.0257" font-family="Arial" font-size="10.00" fill="#000000">Jarmuiden</text>
</g>
<!-- 23117 -->
<g id="node17" class="node">
<title>23117</title>
<ellipse fill="#d3d3d3" stroke="#c0c0c0" cx="339.67" cy="-40.6608" rx="3.5" ry="3.5"/>
</g>
<!-- 23116&#45;&gt;23117 -->
<g id="edge16" class="edge">
<title>23116&#45;&gt;23117</title>
<path fill="none" stroke="#c0c0c0" stroke-dasharray="5,2" d="M268.4786,-40.6608C275.2146,-40.6608 322.1034,-40.6608 335.8751,-40.6608"/>
</g>
<!-- 23117&#45;&gt;23109 -->
<g id="edge17" class="edge">
<title>23117&#45;&gt;23109</title>
<path fill="none" stroke="#c0c0c0" stroke-dasharray="5,2" d="M339.67,-44.2204C339.67,-64.0564 339.67,-160.783 339.67,-180.9656"/>
<text text-anchor="middle" x="315.219" y="-103.593" font-family="Arial" font-size="10.00" fill="#000000">Australië&#45;</text>
<text text-anchor="middle" x="315.219" y="-91.593" font-family="Arial" font-size="10.00" fill="#000000">&#45;havenweg</text>
</g>
</g>
</svg>

