<?xml version="1.0" encoding="UTF-8" standalone="no"?>
<svg
   xmlns:dc="http://purl.org/dc/elements/1.1/"
   xmlns:cc="http://creativecommons.org/ns#"
   xmlns:rdf="http://www.w3.org/1999/02/22-rdf-syntax-ns#"
   xmlns:svg="http://www.w3.org/2000/svg"
   xmlns="http://www.w3.org/2000/svg"
   xmlns:sodipodi="http://sodipodi.sourceforge.net/DTD/sodipodi-0.dtd"
   xmlns:inkscape="http://www.inkscape.org/namespaces/inkscape"
   width="210mm"
   height="297mm"
   viewBox="0 0 210 297"
   version="1.1"
   id="svg8"
   inkscape:version="1.0.2-2 (e86c870879, 2021-01-15)"
   sodipodi:docname="tekening.svg">
  <defs
     id="defs2" />
  <sodipodi:namedview
     id="base"
     pagecolor="#ffffff"
     bordercolor="#666666"
     borderopacity="1.0"
     inkscape:pageopacity="0.0"
     inkscape:pageshadow="2"
     inkscape:zoom="2.8"
     inkscape:cx="320.57723"
     inkscape:cy="483.73778"
     inkscape:document-units="mm"
     inkscape:current-layer="layer1"
     inkscape:document-rotation="0"
     showgrid="false"
     inkscape:window-width="1920"
     inkscape:window-height="1057"
     inkscape:window-x="-8"
     inkscape:window-y="-8"
     inkscape:window-maximized="1" />
  <metadata
     id="metadata5">
    <rdf:RDF>
      <cc:Work
         rdf:about="">
        <dc:format>image/svg+xml</dc:format>
        <dc:type
           rdf:resource="http://purl.org/dc/dcmitype/StillImage" />
        <dc:title />
      </cc:Work>
    </rdf:RDF>
  </metadata>
  <g
     inkscape:groupmode="layer"
     id="layer2"
     inkscape:label="Laag 2"
     sodipodi:insensitive="true"
     style="display:none">
    <text
       xml:space="preserve"
       style="font-size:38.1px;line-height:1.25;font-family:'Antykwa Poltawskiego Light';-inkscape-font-specification:'Antykwa Poltawskiego Light, ';stroke-width:0.264583"
       x="59.720238"
       y="148.16667"
       id="text842"><tspan
         sodipodi:role="line"
         id="tspan840"
         x="59.720238"
         y="148.16667"
         style="font-style:normal;font-variant:normal;font-weight:normal;font-stretch:normal;font-size:38.1px;font-family:'Kunstler Script';-inkscape-font-specification:'Kunstler Script, Normal';font-variant-ligatures:normal;font-variant-caps:normal;font-variant-numeric:normal;font-variant-east-asian:normal;stroke-width:0.264583">siema</tspan></text>
  </g>
  <g
     inkscape:label="Laag 1"
     inkscape:groupmode="layer"
     id="layer1"
     style="display:inline">
    <path
       style="fill:none;stroke:#cc0000;stroke-width:0.264583px;stroke-linecap:butt;stroke-linejoin:miter;stroke-opacity:1"
       d="m 113.31592,144.66752 c 0,0 -4.46352,4.31769 -5.64317,3.49553 -1.42977,-0.99649 2.6003,-5.02986 4.97949,-7.08699 -3.08397,2.91064 -8.82712,3.06623 -8.65384,2.20169 0.39304,-1.96098 5.29112,-2.75384 5.94783,-1.90653 1.48834,1.92033 -6.6495,7.11516 -7.434,6.93409 -1.60022,-0.36936 -0.12592,-3.31999 0.89972,-4.71663 -1.63411,0.31232 -6.36522,5.7956 -7.712967,4.23053 -1.37577,-1.59762 5.355957,-4.40783 4.038384,-6.52969 -1.45573,-2.34435 -7.606583,4.29197 -11.248302,6.77731 2.466914,-2.66487 7.196567,-5.46538 4.895131,-7.07069 -1.285029,-0.89633 -7.257681,4.01295 -11.003552,7.07528 1.273125,-3.03596 7.533275,-5.6111 4.629947,-7.19293 -1.886032,-1.02757 -8.606533,7.33484 -13.041376,7.39515 -4.018003,0.0547 4.528371,-9.27701 6.672417,-6.77918 1.547758,1.80316 -3.409271,2.32332 -5.797282,3.21739 -5.421525,2.02981 -5.42891,4.58801 -7.230068,3.30192 -0.550003,-0.39272 0.207202,-2.14095 1.41798,-3.36169 1.513299,-1.52576 2.638282,-2.16101 3.917145,-3.64334 -5.023215,3.6332 -8.010677,5.63953 -10.424215,5.99246 -2.141812,0.31319 -4.201648,-1.06802 -2.687177,0.94264 1.385442,1.83936 5.189275,-1.38193 5.901778,-2.79293 1.009237,-1.99862 -0.02485,-3.8543 1.776277,-6.00874 -3.132005,2.80065 -6.591034,5.26836 -6.591034,5.26836"
       id="path835"
       sodipodi:nodetypes="cscssscsscscsssssscssscc" />
  </g>
</svg>
