999
"DXF R12 Output" (www.mydxf.blogspot.com)
 0 
SECTION
 2 
HEADER
 9 
$ACADVER
 1 
AC1009
 9 
$EXTMIN
 10 
 0 
 20 
 0 
 9 
$EXTMAX
 10 
 8.5 
 20 
 11 
 0 
ENDSEC
 0 
SECTION
 2 
ENTITIES
0
LINE
8
Layer 1
10
53.407700
20
0.278628
11
49.435109
21
0.989837
0
LINE
8
Layer 1
10
49.435109
20
0.989837
11
45.743375
21
2.061762
0
LINE
8
Layer 1
10
45.743375
20
2.061762
11
42.434478
21
3.458428
0
LINE
8
Layer 1
10
42.434478
20
3.458428
11
39.610400
21
5.143858
0
LINE
8
Layer 1
10
39.610400
20
5.143858
11
37.864250
21
6.564793
0
LINE
8
Layer 1
10
37.864250
20
6.564793
11
36.126511
21
8.268622
0
LINE
8
Layer 1
10
36.126511
20
8.268622
11
34.657800
21
9.977953
0
LINE
8
Layer 1
10
34.657800
20
9.977953
11
33.718730
21
11.415398
0
LINE
8
Layer 1
10
33.718730
20
11.415398
11
33.181185
21
12.291403
0
LINE
8
Layer 1
10
33.181185
20
12.291403
11
32.735017
21
12.655768
0
LINE
8
Layer 1
10
32.735017
20
12.655768
11
31.571047
21
13.060587
0
LINE
8
Layer 1
10
31.571047
20
13.060587
11
31.105942
21
13.260675
0
LINE
8
Layer 1
10
31.105942
20
13.260675
11
30.681967
21
13.289141
0
LINE
8
Layer 1
10
30.681967
20
13.289141
11
29.324957
21
12.741281
0
LINE
8
Layer 1
10
29.324957
20
12.741281
11
27.826795
21
12.194100
0
LINE
8
Layer 1
10
27.826795
20
12.194100
11
26.301868
21
12.017620
0
LINE
8
Layer 1
10
26.301868
20
12.017620
11
24.763781
21
12.211765
0
LINE
8
Layer 1
10
24.763781
20
12.211765
11
23.226137
21
12.776460
0
LINE
8
Layer 1
10
23.226137
20
12.776460
11
21.835618
21
13.333326
0
LINE
8
Layer 1
10
21.835618
20
13.333326
11
21.404732
21
13.299414
0
LINE
8
Layer 1
10
21.404732
20
13.299414
11
20.923067
21
13.087977
0
LINE
8
Layer 1
10
20.923067
20
13.087977
11
19.696188
21
12.599191
0
LINE
8
Layer 1
10
19.696188
20
12.599191
11
18.330945
21
12.307414
0
LINE
8
Layer 1
10
18.330945
20
12.307414
11
16.931438
21
12.226679
0
LINE
8
Layer 1
10
16.931438
20
12.226679
11
15.601767
21
12.371020
0
LINE
8
Layer 1
10
15.601767
20
12.371020
11
14.165943
21
12.544764
0
LINE
8
Layer 1
10
14.165943
20
12.544764
11
13.712733
21
12.394628
0
LINE
8
Layer 1
10
13.712733
20
12.394628
11
13.203107
21
12.055891
0
LINE
8
Layer 1
10
13.203107
20
12.055891
11
12.160413
21
11.551931
0
LINE
8
Layer 1
10
12.160413
20
11.551931
11
10.580357
21
11.430092
0
LINE
8
Layer 1
10
10.580357
20
11.430092
11
8.471687
21
11.704978
0
LINE
8
Layer 1
10
8.471687
20
11.704978
11
6.675358
21
12.494605
0
LINE
8
Layer 1
10
6.675358
20
12.494605
11
5.903061
21
13.076861
0
LINE
8
Layer 1
10
5.903061
20
13.076861
11
5.219337
21
13.781099
0
LINE
8
Layer 1
10
5.219337
20
13.781099
11
4.131587
21
15.546582
0
LINE
8
Layer 1
10
4.131587
20
15.546582
11
3.610918
21
17.427545
0
LINE
8
Layer 1
10
3.610918
20
17.427545
11
3.460788
21
19.871928
0
LINE
8
Layer 1
10
3.460788
20
19.871928
11
3.680397
21
22.817613
0
LINE
8
Layer 1
10
3.680397
20
22.817613
11
4.268947
21
26.202482
0
LINE
8
Layer 1
10
4.268947
20
26.202482
11
5.029620
21
29.730252
0
LINE
8
Layer 1
10
5.029620
20
29.730252
11
4.100743
21
30.435186
0
LINE
8
Layer 1
10
4.100743
20
30.435186
11
2.616807
21
31.734163
0
LINE
8
Layer 1
10
2.616807
20
31.734163
11
1.464419
21
33.125364
0
LINE
8
Layer 1
10
1.464419
20
33.125364
11
0.644162
21
34.605895
0
LINE
8
Layer 1
10
0.644162
20
34.605895
11
0.156617
21
36.172861
0
LINE
8
Layer 1
10
0.156617
20
36.172861
11
0.002365
21
37.823368
0
LINE
8
Layer 1
10
0.002365
20
37.823368
11
0.181990
21
39.554520
0
LINE
8
Layer 1
10
0.181990
20
39.554520
11
0.696072
21
41.363425
0
LINE
8
Layer 1
10
0.696072
20
41.363425
11
1.545193
21
43.247186
0
LINE
8
Layer 1
10
1.545193
20
43.247186
11
2.948596
21
45.198381
0
LINE
8
Layer 1
10
2.948596
20
45.198381
11
5.101961
21
47.509280
0
LINE
8
Layer 1
10
5.101961
20
47.509280
11
7.438171
21
49.621224
0
LINE
8
Layer 1
10
7.438171
20
49.621224
11
9.390113
21
50.975556
0
LINE
8
Layer 1
10
9.390113
20
50.975556
11
11.276523
21
51.831565
0
LINE
8
Layer 1
10
11.276523
20
51.831565
11
13.119565
21
52.483375
0
LINE
8
Layer 1
10
13.119565
20
52.483375
11
14.915028
21
52.930646
0
LINE
8
Layer 1
10
14.915028
20
52.930646
11
16.658703
21
53.173035
0
LINE
8
Layer 1
10
16.658703
20
53.173035
11
18.346379
21
53.210201
0
LINE
8
Layer 1
10
18.346379
20
53.210201
11
19.973846
21
53.041803
0
LINE
8
Layer 1
10
19.973846
20
53.041803
11
21.536894
21
52.667498
0
LINE
8
Layer 1
10
21.536894
20
52.667498
11
23.031313
21
52.086946
0
LINE
8
Layer 1
10
23.031313
20
52.086946
11
24.311573
21
51.288271
0
LINE
8
Layer 1
10
24.311573
20
51.288271
11
25.592403
21
50.149952
0
LINE
8
Layer 1
10
25.592403
20
50.149952
11
26.717061
21
48.831979
0
LINE
8
Layer 1
10
26.717061
20
48.831979
11
27.528803
21
47.494346
0
LINE
8
Layer 1
10
27.528803
20
47.494346
11
28.179099
21
46.099186
0
LINE
8
Layer 1
10
28.179099
20
46.099186
11
32.350900
21
46.099200
0
LINE
8
Layer 1
10
32.350900
20
46.099200
11
36.116022
21
45.996916
0
LINE
8
Layer 1
10
36.116022
20
45.996916
11
36.921069
21
45.767135
0
LINE
8
Layer 1
10
36.921069
20
45.767135
11
37.627320
21
45.327661
0
LINE
8
Layer 1
10
37.627320
20
45.327661
11
38.541652
21
44.558360
0
LINE
8
Layer 1
10
38.541652
20
44.558360
11
39.283663
21
43.658405
0
LINE
8
Layer 1
10
39.283663
20
43.658405
11
39.848562
21
42.646704
0
LINE
8
Layer 1
10
39.848562
20
42.646704
11
40.231555
21
41.542161
0
LINE
8
Layer 1
10
40.231555
20
41.542161
11
40.427851
21
40.363683
0
LINE
8
Layer 1
10
40.427851
20
40.363683
11
40.432657
21
39.130177
0
LINE
8
Layer 1
10
40.432657
20
39.130177
11
40.241180
21
37.860547
0
LINE
8
Layer 1
10
40.241180
20
37.860547
11
39.848630
21
36.573701
0
LINE
8
Layer 1
10
39.848630
20
36.573701
11
39.827556
21
36.187706
0
LINE
8
Layer 1
10
39.827556
20
36.187706
11
40.243543
21
36.080433
0
LINE
8
Layer 1
10
40.243543
20
36.080433
11
42.178743
21
35.556714
0
LINE
8
Layer 1
10
42.178743
20
35.556714
11
43.451817
21
35.209683
0
LINE
8
Layer 1
10
43.451817
20
35.209683
11
44.591713
21
35.164679
0
LINE
8
Layer 1
10
44.591713
20
35.164679
11
45.748126
21
35.124759
0
LINE
8
Layer 1
10
45.748126
20
35.124759
11
47.037163
21
34.843849
0
LINE
8
Layer 1
10
47.037163
20
34.843849
11
48.378195
21
34.553202
0
LINE
8
Layer 1
10
48.378195
20
34.553202
11
49.644103
21
34.548899
0
LINE
8
Layer 1
10
49.644103
20
34.548899
11
50.886672
21
34.549938
0
LINE
8
Layer 1
10
50.886672
20
34.549938
11
52.159063
21
34.306939
0
LINE
8
Layer 1
10
52.159063
20
34.306939
11
53.349058
21
34.050977
0
LINE
8
Layer 1
10
53.349058
20
34.050977
11
53.708475
21
34.155727
0
LINE
8
Layer 1
10
53.708475
20
34.155727
11
54.092113
21
34.426878
0
LINE
8
Layer 1
10
54.092113
20
34.426878
11
54.912458
21
34.892717
0
LINE
8
Layer 1
10
54.912458
20
34.892717
11
56.083256
21
35.336163
0
LINE
8
Layer 1
10
56.083256
20
35.336163
11
57.326058
21
35.667802
0
LINE
8
Layer 1
10
57.326058
20
35.667802
11
58.362413
21
35.798218
0
LINE
8
Layer 1
10
58.362413
20
35.798218
11
59.011206
21
36.022530
0
LINE
8
Layer 1
10
59.011206
20
36.022530
11
59.313103
21
36.689847
0
LINE
8
Layer 1
10
59.313103
20
36.689847
11
59.266888
21
37.791742
0
LINE
8
Layer 1
10
59.266888
20
37.791742
11
58.871344
21
39.319788
0
LINE
8
Layer 1
10
58.871344
20
39.319788
11
58.413489
21
41.186701
0
LINE
8
Layer 1
10
58.413489
20
41.186701
11
58.465735
21
42.682428
0
LINE
8
Layer 1
10
58.465735
20
42.682428
11
59.076950
21
44.015330
0
LINE
8
Layer 1
10
59.076950
20
44.015330
11
60.296004
21
45.393768
0
LINE
8
Layer 1
10
60.296004
20
45.393768
11
62.195259
21
46.980679
0
LINE
8
Layer 1
10
62.195259
20
46.980679
11
64.360834
21
48.395579
0
LINE
8
Layer 1
10
64.360834
20
48.395579
11
66.721440
21
49.613668
0
LINE
8
Layer 1
10
66.721440
20
49.613668
11
69.205787
21
50.610149
0
LINE
8
Layer 1
10
69.205787
20
50.610149
11
71.742585
21
51.360224
0
LINE
8
Layer 1
10
71.742585
20
51.360224
11
74.260547
21
51.839094
0
LINE
8
Layer 1
10
74.260547
20
51.839094
11
76.688383
21
52.021961
0
LINE
8
Layer 1
10
76.688383
20
52.021961
11
78.954804
21
51.884028
0
LINE
8
Layer 1
10
78.954804
20
51.884028
11
81.888290
21
51.355109
0
LINE
8
Layer 1
10
81.888290
20
51.355109
11
84.049194
21
50.454378
0
LINE
8
Layer 1
10
84.049194
20
50.454378
11
85.642837
21
49.409020
0
LINE
8
Layer 1
10
85.642837
20
49.409020
11
87.191075
21
47.963848
0
LINE
8
Layer 1
10
87.191075
20
47.963848
11
88.492701
21
46.335826
0
LINE
8
Layer 1
10
88.492701
20
46.335826
11
89.346504
21
44.741918
0
LINE
8
Layer 1
10
89.346504
20
44.741918
11
90.008247
21
42.478579
0
LINE
8
Layer 1
10
90.008247
20
42.478579
11
90.364773
21
40.157507
0
LINE
8
Layer 1
10
90.364773
20
40.157507
11
90.396434
21
38.005130
0
LINE
8
Layer 1
10
90.396434
20
38.005130
11
90.083583
21
36.247878
0
LINE
8
Layer 1
10
90.083583
20
36.247878
11
91.017833
21
35.491238
0
LINE
8
Layer 1
10
91.017833
20
35.491238
11
92.256716
21
35.096694
0
LINE
8
Layer 1
10
92.256716
20
35.096694
11
93.668417
21
35.027593
0
LINE
8
Layer 1
10
93.668417
20
35.027593
11
95.121124
21
35.247286
0
LINE
8
Layer 1
10
95.121124
20
35.247286
11
96.483024
21
35.719119
0
LINE
8
Layer 1
10
96.483024
20
35.719119
11
97.622302
21
36.406441
0
LINE
8
Layer 1
10
97.622302
20
36.406441
11
98.407146
21
37.272602
0
LINE
8
Layer 1
10
98.407146
20
37.272602
11
98.705743
21
38.280948
0
LINE
8
Layer 1
10
98.705743
20
38.280948
11
98.806075
21
39.532785
0
LINE
8
Layer 1
10
98.806075
20
39.532785
11
99.111293
21
40.613887
0
LINE
8
Layer 1
10
99.111293
20
40.613887
11
99.634078
21
41.555172
0
LINE
8
Layer 1
10
99.634078
20
41.555172
11
100.387113
21
42.387558
0
LINE
8
Layer 1
10
100.387113
20
42.387558
11
101.785841
21
43.326022
0
LINE
8
Layer 1
10
101.785841
20
43.326022
11
103.339774
21
43.809974
0
LINE
8
Layer 1
10
103.339774
20
43.809974
11
104.936932
21
43.821789
0
LINE
8
Layer 1
10
104.936932
20
43.821789
11
106.465333
21
43.343839
0
LINE
8
Layer 1
10
106.465333
20
43.343839
11
108.117122
21
42.231206
0
LINE
8
Layer 1
10
108.117122
20
42.231206
11
109.604447
21
40.709021
0
LINE
8
Layer 1
10
109.604447
20
40.709021
11
110.761169
21
38.981446
0
LINE
8
Layer 1
10
110.761169
20
38.981446
11
111.421153
21
37.252639
0
LINE
8
Layer 1
10
111.421153
20
37.252639
11
111.816118
21
36.057315
0
LINE
8
Layer 1
10
111.816118
20
36.057315
11
112.101390
21
35.761295
0
LINE
8
Layer 1
10
112.101390
20
35.761295
11
112.509763
21
35.566339
0
LINE
8
Layer 1
10
112.509763
20
35.566339
11
113.493313
21
35.010149
0
LINE
8
Layer 1
10
113.493313
20
35.010149
11
114.421281
21
34.113169
0
LINE
8
Layer 1
10
114.421281
20
34.113169
11
115.174539
21
33.016663
0
LINE
8
Layer 1
10
115.174539
20
33.016663
11
115.633963
21
31.861889
0
LINE
8
Layer 1
10
115.633963
20
31.861889
11
115.800482
21
30.627103
0
LINE
8
Layer 1
10
115.800482
20
30.627103
11
115.649400
21
29.401921
0
LINE
8
Layer 1
10
115.649400
20
29.401921
11
115.137575
21
28.016498
0
LINE
8
Layer 1
10
115.137575
20
28.016498
11
114.221863
21
26.300989
0
LINE
8
Layer 1
10
114.221863
20
26.300989
11
113.156364
21
24.157900
0
LINE
8
Layer 1
10
113.156364
20
24.157900
11
113.193108
21
23.774415
0
LINE
8
Layer 1
10
113.193108
20
23.774415
11
113.591407
21
23.777109
0
LINE
8
Layer 1
10
113.591407
20
23.777109
11
118.081862
21
24.566759
0
LINE
8
Layer 1
10
118.081862
20
24.566759
11
122.738787
21
25.073499
0
LINE
8
Layer 1
10
122.738787
20
25.073499
11
124.539373
21
24.956212
0
LINE
8
Layer 1
10
124.539373
20
24.956212
11
126.506225
21
24.645598
0
LINE
8
Layer 1
10
126.506225
20
24.645598
11
128.327070
21
24.203700
0
LINE
8
Layer 1
10
128.327070
20
24.203700
11
129.689637
21
23.692559
0
LINE
8
Layer 1
10
129.689637
20
23.692559
11
130.812084
21
22.912107
0
LINE
8
Layer 1
10
130.812084
20
22.912107
11
131.939147
21
21.837459
0
LINE
8
Layer 1
10
131.939147
20
21.837459
11
132.744859
21
20.741376
0
LINE
8
Layer 1
10
132.744859
20
20.741376
11
133.299543
21
19.581304
0
LINE
8
Layer 1
10
133.299543
20
19.581304
11
133.604161
21
18.374632
0
LINE
8
Layer 1
10
133.604161
20
18.374632
11
133.659671
21
17.138751
0
LINE
8
Layer 1
10
133.659671
20
17.138751
11
133.467034
21
15.891052
0
LINE
8
Layer 1
10
133.467034
20
15.891052
11
133.027210
21
14.648923
0
LINE
8
Layer 1
10
133.027210
20
14.648923
11
132.341159
21
13.429755
0
LINE
8
Layer 1
10
132.341159
20
13.429755
11
131.409840
21
12.250939
0
LINE
8
Layer 1
10
131.409840
20
12.250939
11
129.736053
21
10.768388
0
LINE
8
Layer 1
10
129.736053
20
10.768388
11
127.724246
21
9.584852
0
LINE
8
Layer 1
10
127.724246
20
9.584852
11
125.420258
21
8.707327
0
LINE
8
Layer 1
10
125.420258
20
8.707327
11
122.869931
21
8.142808
0
LINE
8
Layer 1
10
122.869931
20
8.142808
11
120.119105
21
7.898288
0
LINE
8
Layer 1
10
120.119105
20
7.898288
11
117.213621
21
7.980764
0
LINE
8
Layer 1
10
117.213621
20
7.980764
11
114.199319
21
8.397229
0
LINE
8
Layer 1
10
114.199319
20
8.397229
11
111.122040
21
9.154679
0
LINE
8
Layer 1
10
111.122040
20
9.154679
11
108.723150
21
9.876038
0
LINE
8
Layer 1
10
108.723150
20
9.876038
11
100.679820
21
7.446728
0
LINE
8
Layer 1
10
100.679820
20
7.446728
11
91.060234
21
4.678077
0
LINE
8
Layer 1
10
91.060234
20
4.678077
11
82.709208
21
2.570989
0
LINE
8
Layer 1
10
82.709208
20
2.570989
11
75.521712
21
1.101336
0
LINE
8
Layer 1
10
75.521712
20
1.101336
11
69.392720
21
0.244988
0
LINE
8
Layer 1
10
69.392720
20
0.244988
11
65.826330
21
0.055371
0
LINE
8
Layer 1
10
65.826330
20
0.055371
11
61.149851
21
-0.000552
0
LINE
8
Layer 1
10
61.149851
20
-0.000552
11
56.598257
21
0.074644
0
LINE
8
Layer 1
10
56.598257
20
0.074644
11
53.406520
21
0.278380
0
LINE
8
Layer 1
10
53.406520
20
0.278380
11
53.407700
21
0.278628
0
LINE
8
Layer 2
10
105.099000
20
10.201600
11
108.433593
21
11.176672
0
LINE
8
Layer 2
10
108.433593
20
11.176672
11
109.152040
21
11.213504
0
LINE
8
Layer 2
10
109.152040
20
11.213504
11
109.674380
21
11.028764
0
LINE
8
Layer 2
10
109.674380
20
11.028764
11
111.474259
21
10.285544
0
LINE
8
Layer 2
10
111.474259
20
10.285544
11
113.589903
21
9.765198
0
LINE
8
Layer 2
10
113.589903
20
9.765198
11
116.070613
21
9.458862
0
LINE
8
Layer 2
10
116.070613
20
9.458862
11
118.965690
21
9.357674
0
LINE
8
Layer 2
10
118.965690
20
9.357674
11
121.765354
21
9.428593
0
LINE
8
Layer 2
10
121.765354
20
9.428593
11
123.930364
21
9.680765
0
LINE
8
Layer 2
10
123.930364
20
9.680765
11
125.752209
21
10.168232
0
LINE
8
Layer 2
10
125.752209
20
10.168232
11
127.522380
21
10.945034
0
LINE
8
Layer 2
10
127.522380
20
10.945034
11
129.376487
21
12.200831
0
LINE
8
Layer 2
10
129.376487
20
12.200831
11
130.870496
21
13.814671
0
LINE
8
Layer 2
10
130.870496
20
13.814671
11
131.867385
21
15.599606
0
LINE
8
Layer 2
10
131.867385
20
15.599606
11
132.136589
21
16.497812
0
LINE
8
Layer 2
10
132.136589
20
16.497812
11
132.230130
21
17.368684
0
LINE
8
Layer 2
10
132.230130
20
17.368684
11
132.156598
21
18.386135
0
LINE
8
Layer 2
10
132.156598
20
18.386135
11
131.903913
21
19.260583
0
LINE
8
Layer 2
10
131.903913
20
19.260583
11
131.423948
21
20.104961
0
LINE
8
Layer 2
10
131.423948
20
20.104961
11
130.668570
21
21.032204
0
LINE
8
Layer 2
10
130.668570
20
21.032204
11
129.731633
21
21.864591
0
LINE
8
Layer 2
10
129.731633
20
21.864591
11
128.577448
21
22.531761
0
LINE
8
Layer 2
10
128.577448
20
22.531761
11
127.211789
21
23.032852
0
LINE
8
Layer 2
10
127.211789
20
23.032852
11
125.640429
21
23.367002
0
LINE
8
Layer 2
10
125.640429
20
23.367002
11
123.869143
21
23.533347
0
LINE
8
Layer 2
10
123.869143
20
23.533347
11
121.903705
21
23.531026
0
LINE
8
Layer 2
10
121.903705
20
23.531026
11
117.413470
21
23.016934
0
LINE
8
Layer 2
10
117.413470
20
23.016934
11
114.392726
21
22.508464
0
LINE
8
Layer 2
10
114.392726
20
22.508464
11
112.778611
21
22.371778
0
LINE
8
Layer 2
10
112.778611
20
22.371778
11
112.345648
21
22.451140
0
LINE
8
Layer 2
10
112.345648
20
22.451140
11
112.080271
21
22.633390
0
LINE
8
Layer 2
10
112.080271
20
22.633390
11
111.806850
21
23.319815
0
LINE
8
Layer 2
10
111.806850
20
23.319815
11
111.720743
21
23.932279
0
LINE
8
Layer 2
10
111.720743
20
23.932279
11
111.841256
21
24.602318
0
LINE
8
Layer 2
10
111.841256
20
24.602318
11
113.005900
21
27.063485
0
LINE
8
Layer 2
10
113.005900
20
27.063485
11
114.025989
21
29.221890
0
LINE
8
Layer 2
10
114.025989
20
29.221890
11
114.450280
21
30.545545
0
LINE
8
Layer 2
10
114.450280
20
30.545545
11
114.191968
21
31.849110
0
LINE
8
Layer 2
10
114.191968
20
31.849110
11
113.485105
21
33.014910
0
LINE
8
Layer 2
10
113.485105
20
33.014910
11
112.431802
21
33.922657
0
LINE
8
Layer 2
10
112.431802
20
33.922657
11
111.134170
21
34.452065
0
LINE
8
Layer 2
10
111.134170
20
34.452065
11
110.640017
21
34.588872
0
LINE
8
Layer 2
10
110.640017
20
34.588872
11
110.363334
21
34.784726
0
LINE
8
Layer 2
10
110.363334
20
34.784726
11
110.214183
21
35.686585
0
LINE
8
Layer 2
10
110.214183
20
35.686585
11
110.092855
21
36.635141
0
LINE
8
Layer 2
10
110.092855
20
36.635141
11
109.755890
21
37.633018
0
LINE
8
Layer 2
10
109.755890
20
37.633018
11
108.567959
21
39.606625
0
LINE
8
Layer 2
10
108.567959
20
39.606625
11
106.916207
21
41.267190
0
LINE
8
Layer 2
10
106.916207
20
41.267190
11
105.999467
21
41.873763
0
LINE
8
Layer 2
10
105.999467
20
41.873763
11
105.066453
21
42.274495
0
LINE
8
Layer 2
10
105.066453
20
42.274495
11
104.012766
21
42.431085
0
LINE
8
Layer 2
10
104.012766
20
42.431085
11
102.957914
21
42.281049
0
LINE
8
Layer 2
10
102.957914
20
42.281049
11
101.959112
21
41.840829
0
LINE
8
Layer 2
10
101.959112
20
41.840829
11
101.073573
21
41.126865
0
LINE
8
Layer 2
10
101.073573
20
41.126865
11
100.392526
21
40.081125
0
LINE
8
Layer 2
10
100.392526
20
40.081125
11
100.060623
21
38.368905
0
LINE
8
Layer 2
10
100.060623
20
38.368905
11
99.771261
21
36.675148
0
LINE
8
Layer 2
10
99.771261
20
36.675148
11
99.382331
21
35.311315
0
LINE
8
Layer 2
10
99.382331
20
35.311315
11
98.922478
21
34.182425
0
LINE
8
Layer 2
10
98.922478
20
34.182425
11
96.879188
21
34.172209
0
LINE
8
Layer 2
10
96.879188
20
34.172209
11
94.990062
21
34.023269
0
LINE
8
Layer 2
10
94.990062
20
34.023269
11
93.470228
21
33.541979
0
LINE
8
Layer 2
10
93.470228
20
33.541979
11
92.104588
21
32.921994
0
LINE
8
Layer 2
10
92.104588
20
32.921994
11
91.163999
21
33.639431
0
LINE
8
Layer 2
10
91.163999
20
33.639431
11
90.206232
21
34.227147
0
LINE
8
Layer 2
10
90.206232
20
34.227147
11
89.224399
21
34.632683
0
LINE
8
Layer 2
10
89.224399
20
34.632683
11
88.413124
21
34.978344
0
LINE
8
Layer 2
10
88.413124
20
34.978344
11
88.388113
21
35.240565
0
LINE
8
Layer 2
10
88.388113
20
35.240565
11
88.543680
21
35.674363
0
LINE
8
Layer 2
10
88.543680
20
35.674363
11
88.768780
21
37.044280
0
LINE
8
Layer 2
10
88.768780
20
37.044280
11
88.863071
21
39.262533
0
LINE
8
Layer 2
10
88.863071
20
39.262533
11
88.728899
21
41.672026
0
LINE
8
Layer 2
10
88.728899
20
41.672026
11
88.272698
21
43.615350
0
LINE
8
Layer 2
10
88.272698
20
43.615350
11
87.413938
21
45.314358
0
LINE
8
Layer 2
10
87.413938
20
45.314358
11
86.072091
21
46.990903
0
LINE
8
Layer 2
10
86.072091
20
46.990903
11
84.645881
21
48.297191
0
LINE
8
Layer 2
10
84.645881
20
48.297191
11
83.055246
21
49.281876
0
LINE
8
Layer 2
10
83.055246
20
49.281876
11
81.221634
21
49.983615
0
LINE
8
Layer 2
10
81.221634
20
49.983615
11
79.066491
21
50.441063
0
LINE
8
Layer 2
10
79.066491
20
50.441063
11
76.919058
21
50.595484
0
LINE
8
Layer 2
10
76.919058
20
50.595484
11
74.643531
21
50.456518
0
LINE
8
Layer 2
10
74.643531
20
50.456518
11
72.294067
21
50.042367
0
LINE
8
Layer 2
10
72.294067
20
50.042367
11
69.924818
21
49.371228
0
LINE
8
Layer 2
10
69.924818
20
49.371228
11
67.589942
21
48.461304
0
LINE
8
Layer 2
10
67.589942
20
48.461304
11
65.343592
21
47.330793
0
LINE
8
Layer 2
10
65.343592
20
47.330793
11
63.239923
21
45.997896
0
LINE
8
Layer 2
10
63.239923
20
45.997896
11
61.333091
21
44.480813
0
LINE
8
Layer 2
10
61.333091
20
44.480813
11
60.121561
21
43.186071
0
LINE
8
Layer 2
10
60.121561
20
43.186071
11
59.894579
21
42.592589
0
LINE
8
Layer 2
10
59.894579
20
42.592589
11
59.784171
21
41.799703
0
LINE
8
Layer 2
10
59.784171
20
41.799703
11
59.822629
21
40.409471
0
LINE
8
Layer 2
10
59.822629
20
40.409471
11
60.334899
21
39.071013
0
LINE
8
Layer 2
10
60.334899
20
39.071013
11
61.013078
21
37.750723
0
LINE
8
Layer 2
10
61.013078
20
37.750723
11
59.984798
21
34.401033
0
LINE
8
Layer 2
10
59.984798
20
34.401033
11
58.130798
21
34.252212
0
LINE
8
Layer 2
10
58.130798
20
34.252212
11
56.369029
21
33.946881
0
LINE
8
Layer 2
10
56.369029
20
33.946881
11
54.855608
21
33.220012
0
LINE
8
Layer 2
10
54.855608
20
33.220012
11
53.434568
21
32.336629
0
LINE
8
Layer 2
10
53.434568
20
32.336629
11
51.913338
21
32.816152
0
LINE
8
Layer 2
10
51.913338
20
32.816152
11
50.490243
21
33.135319
0
LINE
8
Layer 2
10
50.490243
20
33.135319
11
49.330608
21
33.023975
0
LINE
8
Layer 2
10
49.330608
20
33.023975
11
48.233065
21
32.913657
0
LINE
8
Layer 2
10
48.233065
20
32.913657
11
47.027338
21
33.287584
0
LINE
8
Layer 2
10
47.027338
20
33.287584
11
45.772294
21
33.662311
0
LINE
8
Layer 2
10
45.772294
20
33.662311
11
44.487338
21
33.674623
0
LINE
8
Layer 2
10
44.487338
20
33.674623
11
43.182244
21
33.691177
0
LINE
8
Layer 2
10
43.182244
20
33.691177
11
41.860978
21
34.095416
0
LINE
8
Layer 2
10
41.860978
20
34.095416
11
40.801567
21
34.420829
0
LINE
8
Layer 2
10
40.801567
20
34.420829
11
39.670188
21
34.548677
0
LINE
8
Layer 2
10
39.670188
20
34.548677
11
38.573331
21
34.476307
0
LINE
8
Layer 2
10
38.573331
20
34.476307
11
37.617488
21
34.201069
0
LINE
8
Layer 2
10
37.617488
20
34.201069
11
37.114296
21
34.142592
0
LINE
8
Layer 2
10
37.114296
20
34.142592
11
36.953511
21
34.489369
0
LINE
8
Layer 2
10
36.953511
20
34.489369
11
37.132927
21
35.124726
0
LINE
8
Layer 2
10
37.132927
20
35.124726
11
37.650336
21
35.931989
0
LINE
8
Layer 2
10
37.650336
20
35.931989
11
38.396392
21
37.138981
0
LINE
8
Layer 2
10
38.396392
20
37.138981
11
38.859370
21
38.491427
0
LINE
8
Layer 2
10
38.859370
20
38.491427
11
39.012625
21
39.871194
0
LINE
8
Layer 2
10
39.012625
20
39.871194
11
38.829516
21
41.160149
0
LINE
8
Layer 2
10
38.829516
20
41.160149
11
38.049100
21
43.025001
0
LINE
8
Layer 2
10
38.049100
20
43.025001
11
37.524599
21
43.653633
0
LINE
8
Layer 2
10
37.524599
20
43.653633
11
36.849915
21
44.109651
0
LINE
8
Layer 2
10
36.849915
20
44.109651
11
35.979557
21
44.415492
0
LINE
8
Layer 2
10
35.979557
20
44.415492
11
34.868035
21
44.593592
0
LINE
8
Layer 2
10
34.868035
20
44.593592
11
31.739536
21
44.656319
0
LINE
8
Layer 2
10
31.739536
20
44.656319
11
27.515516
21
44.378082
0
LINE
8
Layer 2
10
27.515516
20
44.378082
11
27.292304
21
44.345982
0
LINE
8
Layer 2
10
27.292304
20
44.345982
11
27.104806
21
44.486291
0
LINE
8
Layer 2
10
27.104806
20
44.486291
11
26.754928
21
45.393632
0
LINE
8
Layer 2
10
26.754928
20
45.393632
11
25.902012
21
47.415224
0
LINE
8
Layer 2
10
25.902012
20
47.415224
11
24.553505
21
49.134132
0
LINE
8
Layer 2
10
24.553505
20
49.134132
11
22.774585
21
50.486327
0
LINE
8
Layer 2
10
22.774585
20
50.486327
11
20.630428
21
51.407782
0
LINE
8
Layer 2
10
20.630428
20
51.407782
11
19.434880
21
51.678707
0
LINE
8
Layer 2
10
19.434880
20
51.678707
11
18.189978
21
51.802464
0
LINE
8
Layer 2
10
18.189978
20
51.802464
11
15.600169
21
51.634035
0
LINE
8
Layer 2
10
15.600169
20
51.634035
11
12.957119
21
50.953621
0
LINE
8
Layer 2
10
12.957119
20
50.953621
11
10.356948
21
49.812349
0
LINE
8
Layer 2
10
10.356948
20
49.812349
11
7.895774
21
48.261348
0
LINE
8
Layer 2
10
7.895774
20
48.261348
11
5.669717
21
46.351745
0
LINE
8
Layer 2
10
5.669717
20
46.351745
11
3.774895
21
44.134667
0
LINE
8
Layer 2
10
3.774895
20
44.134667
11
2.307428
21
41.661242
0
LINE
8
Layer 2
10
2.307428
20
41.661242
11
1.600913
21
39.774239
0
LINE
8
Layer 2
10
1.600913
20
39.774239
11
1.435757
21
37.710132
0
LINE
8
Layer 2
10
1.435757
20
37.710132
11
1.550091
21
35.870674
0
LINE
8
Layer 2
10
1.550091
20
35.870674
11
1.934528
21
34.661292
0
LINE
8
Layer 2
10
1.934528
20
34.661292
11
2.658094
21
33.610196
0
LINE
8
Layer 2
10
2.658094
20
33.610196
11
3.645851
21
32.541213
0
LINE
8
Layer 2
10
3.645851
20
32.541213
11
4.717747
21
31.627677
0
LINE
8
Layer 2
10
4.717747
20
31.627677
11
5.693728
21
31.042922
0
LINE
8
Layer 2
10
5.693728
20
31.042922
11
6.416072
21
30.617024
0
LINE
8
Layer 2
10
6.416072
20
30.617024
11
6.522614
21
30.150423
0
LINE
8
Layer 2
10
6.522614
20
30.150423
11
5.483710
21
25.439209
0
LINE
8
Layer 2
10
5.483710
20
25.439209
11
4.755534
21
20.635873
0
LINE
8
Layer 2
10
4.755534
20
20.635873
11
4.718546
21
18.913664
0
LINE
8
Layer 2
10
4.718546
20
18.913664
11
4.881333
21
17.472365
0
LINE
8
Layer 2
10
4.881333
20
17.472365
11
5.260097
21
16.231694
0
LINE
8
Layer 2
10
5.260097
20
16.231694
11
5.871044
21
15.111373
0
LINE
8
Layer 2
10
5.871044
20
15.111373
11
6.605539
21
14.230558
0
LINE
8
Layer 2
10
6.605539
20
14.230558
11
7.472509
21
13.534061
0
LINE
8
Layer 2
10
7.472509
20
13.534061
11
8.428467
21
13.030436
0
LINE
8
Layer 2
10
8.428467
20
13.030436
11
9.429930
21
12.728238
0
LINE
8
Layer 2
10
9.429930
20
12.728238
11
10.433413
21
12.636020
0
LINE
8
Layer 2
10
10.433413
20
12.636020
11
11.395431
21
12.762339
0
LINE
8
Layer 2
10
11.395431
20
12.762339
11
12.272499
21
13.115748
0
LINE
8
Layer 2
10
12.272499
20
13.115748
11
13.021134
21
13.704803
0
LINE
8
Layer 2
10
13.021134
20
13.704803
11
13.782516
21
14.325479
0
LINE
8
Layer 2
10
13.782516
20
14.325479
11
14.131046
21
14.280025
0
LINE
8
Layer 2
10
14.131046
20
14.280025
11
14.647384
21
14.035906
0
LINE
8
Layer 2
10
14.647384
20
14.035906
11
15.908421
21
13.644113
0
LINE
8
Layer 2
10
15.908421
20
13.644113
11
17.401366
21
13.579362
0
LINE
8
Layer 2
10
17.401366
20
13.579362
11
18.944445
21
13.830491
0
LINE
8
Layer 2
10
18.944445
20
13.830491
11
20.355884
21
14.386341
0
LINE
8
Layer 2
10
20.355884
20
14.386341
11
21.793914
21
15.174785
0
LINE
8
Layer 2
10
21.793914
20
15.174785
11
22.864044
21
14.448571
0
LINE
8
Layer 2
10
22.864044
20
14.448571
11
23.802672
21
13.907002
0
LINE
8
Layer 2
10
23.802672
20
13.907002
11
24.759994
21
13.534767
0
LINE
8
Layer 2
10
24.759994
20
13.534767
11
25.717933
21
13.330946
0
LINE
8
Layer 2
10
25.717933
20
13.330946
11
26.658418
21
13.294620
0
LINE
8
Layer 2
10
26.658418
20
13.294620
11
27.563372
21
13.424868
0
LINE
8
Layer 2
10
27.563372
20
13.424868
11
28.414722
21
13.720771
0
LINE
8
Layer 2
10
28.414722
20
13.720771
11
29.194394
21
14.181410
0
LINE
8
Layer 2
10
29.194394
20
14.181410
11
29.884314
21
14.805864
0
LINE
8
Layer 2
10
29.884314
20
14.805864
11
30.407158
21
15.383601
0
LINE
8
Layer 2
10
30.407158
20
15.383601
11
31.440488
21
14.699777
0
LINE
8
Layer 2
10
31.440488
20
14.699777
11
32.417626
21
14.164123
0
LINE
8
Layer 2
10
32.417626
20
14.164123
11
33.315858
21
13.836516
0
LINE
8
Layer 2
10
33.315858
20
13.836516
11
33.768426
21
13.677831
0
LINE
8
Layer 2
10
33.768426
20
13.677831
11
34.146535
21
13.370953
0
LINE
8
Layer 2
10
34.146535
20
13.370953
11
34.941988
21
12.019116
0
LINE
8
Layer 2
10
34.941988
20
12.019116
11
36.254758
21
10.033261
0
LINE
8
Layer 2
10
36.254758
20
10.033261
11
38.231314
21
7.968667
0
LINE
8
Layer 2
10
38.231314
20
7.968667
11
40.610375
21
6.063457
0
LINE
8
Layer 2
10
40.610375
20
6.063457
11
43.130658
21
4.555756
0
LINE
8
Layer 2
10
43.130658
20
4.555756
11
45.369733
21
3.592804
0
LINE
8
Layer 2
10
45.369733
20
3.592804
11
47.880270
21
2.748787
0
LINE
8
Layer 2
10
47.880270
20
2.748787
11
50.500049
21
2.071796
0
LINE
8
Layer 2
10
50.500049
20
2.071796
11
53.066848
21
1.609926
0
LINE
8
Layer 2
10
53.066848
20
1.609926
11
57.009500
21
1.427893
0
LINE
8
Layer 2
10
57.009500
20
1.427893
11
63.201819
21
1.484970
0
LINE
8
Layer 2
10
63.201819
20
1.484970
11
69.873728
21
1.776730
0
LINE
8
Layer 2
10
69.873728
20
1.776730
11
75.255148
21
2.298745
0
LINE
8
Layer 2
10
75.255148
20
2.298745
11
80.526629
21
3.335258
0
LINE
8
Layer 2
10
80.526629
20
3.335258
11
87.653395
21
5.085703
0
LINE
8
Layer 2
10
87.653395
20
5.085703
11
96.042287
21
7.418433
0
LINE
8
Layer 2
10
96.042287
20
7.418433
11
105.100148
21
10.201805
0
LINE
8
Layer 2
10
105.100148
20
10.201805
11
105.099000
21
10.201600
0
LINE
8
Layer 3
10
39.028500
20
8.804550
11
37.799365
21
10.065149
0
LINE
8
Layer 3
10
37.799365
20
10.065149
11
36.728003
21
11.399449
0
LINE
8
Layer 3
10
36.728003
20
11.399449
11
35.932283
21
12.644632
0
LINE
8
Layer 3
10
35.932283
20
12.644632
11
35.530080
21
13.637880
0
LINE
8
Layer 3
10
35.530080
20
13.637880
11
35.387018
21
14.113417
0
LINE
8
Layer 3
10
35.387018
20
14.113417
11
35.126059
21
14.435266
0
LINE
8
Layer 3
10
35.126059
20
14.435266
11
33.839820
21
14.932400
0
LINE
8
Layer 3
10
33.839820
20
14.932400
11
32.489680
21
15.482882
0
LINE
8
Layer 3
10
32.489680
20
15.482882
11
31.421040
21
16.260200
0
LINE
8
Layer 3
10
31.421040
20
16.260200
11
30.513724
21
17.167516
0
LINE
8
Layer 3
10
30.513724
20
17.167516
11
29.774218
21
16.240727
0
LINE
8
Layer 3
10
29.774218
20
16.240727
11
28.879667
21
15.444018
0
LINE
8
Layer 3
10
28.879667
20
15.444018
11
27.767398
21
14.829957
0
LINE
8
Layer 3
10
27.767398
20
14.829957
11
26.513637
21
14.506444
0
LINE
8
Layer 3
10
26.513637
20
14.506444
11
25.381847
21
14.561166
0
LINE
8
Layer 3
10
25.381847
20
14.561166
11
24.320225
21
15.005921
0
LINE
8
Layer 3
10
24.320225
20
15.005921
11
23.276968
21
15.852507
0
LINE
8
Layer 3
10
23.276968
20
15.852507
11
22.166848
21
16.962627
0
LINE
8
Layer 3
10
22.166848
20
16.962627
11
21.216804
21
16.237994
0
LINE
8
Layer 3
10
21.216804
20
16.237994
11
20.230552
21
15.581633
0
LINE
8
Layer 3
10
20.230552
20
15.581633
11
19.228790
21
15.097584
0
LINE
8
Layer 3
10
19.228790
20
15.097584
11
18.242713
21
14.798140
0
LINE
8
Layer 3
10
18.242713
20
14.798140
11
17.303514
21
14.695594
0
LINE
8
Layer 3
10
17.303514
20
14.695594
11
16.382637
21
14.804068
0
LINE
8
Layer 3
10
16.382637
20
14.804068
11
15.383859
21
15.094230
0
LINE
8
Layer 3
10
15.383859
20
15.094230
11
14.451254
21
15.513186
0
LINE
8
Layer 3
10
14.451254
20
15.513186
11
13.728894
21
16.008044
0
LINE
8
Layer 3
10
13.728894
20
16.008044
11
13.284895
21
16.269787
0
LINE
8
Layer 3
10
13.284895
20
16.269787
11
13.051843
21
15.710582
0
LINE
8
Layer 3
10
13.051843
20
15.710582
11
12.638872
21
14.834139
0
LINE
8
Layer 3
10
12.638872
20
14.834139
11
11.962899
21
14.246204
0
LINE
8
Layer 3
10
11.962899
20
14.246204
11
11.097954
21
13.939375
0
LINE
8
Layer 3
10
11.097954
20
13.939375
11
10.118067
21
13.906249
0
LINE
8
Layer 3
10
10.118067
20
13.906249
11
9.097267
21
14.139426
0
LINE
8
Layer 3
10
9.097267
20
14.139426
11
8.109585
21
14.631501
0
LINE
8
Layer 3
10
8.109585
20
14.631501
11
7.229051
21
15.375074
0
LINE
8
Layer 3
10
7.229051
20
15.375074
11
6.529693
21
16.362741
0
LINE
8
Layer 3
10
6.529693
20
16.362741
11
6.163757
21
17.175627
0
LINE
8
Layer 3
10
6.163757
20
17.175627
11
5.928142
21
18.061532
0
LINE
8
Layer 3
10
5.928142
20
18.061532
11
5.831756
21
19.126007
0
LINE
8
Layer 3
10
5.831756
20
19.126007
11
5.883507
21
20.474605
0
LINE
8
Layer 3
10
5.883507
20
20.474605
11
6.467061
21
24.446371
0
LINE
8
Layer 3
10
6.467061
20
24.446371
11
7.750073
21
30.821241
0
LINE
8
Layer 3
10
7.750073
20
30.821241
11
7.800218
21
31.227307
0
LINE
8
Layer 3
10
7.800218
20
31.227307
11
7.704596
21
31.499520
0
LINE
8
Layer 3
10
7.704596
20
31.499520
11
6.853397
21
31.913641
0
LINE
8
Layer 3
10
6.853397
20
31.913641
11
5.783577
21
32.444161
0
LINE
8
Layer 3
10
5.783577
20
32.444161
11
4.694229
21
33.284281
0
LINE
8
Layer 3
10
4.694229
20
33.284281
11
3.720325
21
34.311853
0
LINE
8
Layer 3
10
3.720325
20
34.311853
11
2.996837
21
35.404731
0
LINE
8
Layer 3
10
2.996837
20
35.404731
11
2.628127
21
36.417798
0
LINE
8
Layer 3
10
2.628127
20
36.417798
11
2.489415
21
37.536459
0
LINE
8
Layer 3
10
2.489415
20
37.536459
11
2.573614
21
38.738262
0
LINE
8
Layer 3
10
2.573614
20
38.738262
11
2.873640
21
40.000755
0
LINE
8
Layer 3
10
2.873640
20
40.000755
11
3.382405
21
41.301484
0
LINE
8
Layer 3
10
3.382405
20
41.301484
11
4.092823
21
42.617996
0
LINE
8
Layer 3
10
4.092823
20
42.617996
11
4.997810
21
43.927840
0
LINE
8
Layer 3
10
4.997810
20
43.927840
11
6.090277
21
45.208561
0
LINE
8
Layer 3
10
6.090277
20
45.208561
11
7.788234
21
46.862371
0
LINE
8
Layer 3
10
7.788234
20
46.862371
11
9.461438
21
48.153740
0
LINE
8
Layer 3
10
9.461438
20
48.153740
11
11.236374
21
49.167165
0
LINE
8
Layer 3
10
11.236374
20
49.167165
11
13.239527
21
49.987141
0
LINE
8
Layer 3
10
13.239527
20
49.987141
11
14.851065
21
50.460827
0
LINE
8
Layer 3
10
14.851065
20
50.460827
11
16.402207
21
50.742375
0
LINE
8
Layer 3
10
16.402207
20
50.742375
11
17.882963
21
50.833202
0
LINE
8
Layer 3
10
17.882963
20
50.833202
11
19.283340
21
50.734729
0
LINE
8
Layer 3
10
19.283340
20
50.734729
11
20.593346
21
50.448374
0
LINE
8
Layer 3
10
20.593346
20
50.448374
11
21.802990
21
49.975557
0
LINE
8
Layer 3
10
21.802990
20
49.975557
11
22.902281
21
49.317696
0
LINE
8
Layer 3
10
22.902281
20
49.317696
11
23.881227
21
48.476211
0
LINE
8
Layer 3
10
23.881227
20
48.476211
11
24.770685
21
47.359602
0
LINE
8
Layer 3
10
24.770685
20
47.359602
11
25.506775
21
46.040284
0
LINE
8
Layer 3
10
25.506775
20
46.040284
11
26.008110
21
44.693624
0
LINE
8
Layer 3
10
26.008110
20
44.693624
11
26.193307
21
43.494991
0
LINE
8
Layer 3
10
26.193307
20
43.494991
11
26.193300
21
42.667200
0
LINE
8
Layer 3
10
26.193300
20
42.667200
11
27.434460
21
43.216235
0
LINE
8
Layer 3
10
27.434460
20
43.216235
11
28.999299
21
43.648860
0
LINE
8
Layer 3
10
28.999299
20
43.648860
11
31.456120
21
43.760726
0
LINE
8
Layer 3
10
31.456120
20
43.760726
11
34.922650
21
43.759315
0
LINE
8
Layer 3
10
34.922650
20
43.759315
11
35.980536
21
43.504030
0
LINE
8
Layer 3
10
35.980536
20
43.504030
11
36.898620
21
42.792656
0
LINE
8
Layer 3
10
36.898620
20
42.792656
11
37.590084
21
41.721332
0
LINE
8
Layer 3
10
37.590084
20
41.721332
11
37.968110
21
40.386195
0
LINE
8
Layer 3
10
37.968110
20
40.386195
11
37.948872
21
39.251634
0
LINE
8
Layer 3
10
37.948872
20
39.251634
11
37.656646
21
38.051285
0
LINE
8
Layer 3
10
37.656646
20
38.051285
11
37.157475
21
36.975158
0
LINE
8
Layer 3
10
37.157475
20
36.975158
11
36.517400
21
36.213265
0
LINE
8
Layer 3
10
36.517400
20
36.213265
11
36.022732
21
35.653052
0
LINE
8
Layer 3
10
36.022732
20
35.653052
11
35.729210
21
35.010775
0
LINE
8
Layer 3
10
35.729210
20
35.010775
11
35.382811
21
33.846105
0
LINE
8
Layer 3
10
35.382811
20
33.846105
11
35.336645
21
33.606380
0
LINE
8
Layer 3
10
35.336645
20
33.606380
11
35.479029
21
33.448500
0
LINE
8
Layer 3
10
35.479029
20
33.448500
11
36.545961
21
33.271303
0
LINE
8
Layer 3
10
36.545961
20
33.271303
11
37.751078
21
33.299871
0
LINE
8
Layer 3
10
37.751078
20
33.299871
11
38.704651
21
33.555896
0
LINE
8
Layer 3
10
38.704651
20
33.555896
11
39.190146
21
33.747579
0
LINE
8
Layer 3
10
39.190146
20
33.747579
11
39.684271
21
33.773306
0
LINE
8
Layer 3
10
39.684271
20
33.773306
11
41.419791
21
33.244041
0
LINE
8
Layer 3
10
41.419791
20
33.244041
11
43.192542
21
32.727942
0
LINE
8
Layer 3
10
43.192542
20
32.727942
11
44.614541
21
32.680895
0
LINE
8
Layer 3
10
44.614541
20
32.680895
11
45.898347
21
32.655301
0
LINE
8
Layer 3
10
45.898347
20
32.655301
11
47.195321
21
32.174843
0
LINE
8
Layer 3
10
47.195321
20
32.174843
11
48.293067
21
31.732397
0
LINE
8
Layer 3
10
48.293067
20
31.732397
11
48.608300
21
31.729201
0
LINE
8
Layer 3
10
48.608300
20
31.729201
11
48.831591
21
31.859037
0
LINE
8
Layer 3
10
48.831591
20
31.859037
11
49.376010
21
32.120620
0
LINE
8
Layer 3
10
49.376010
20
32.120620
11
50.214453
21
32.171373
0
LINE
8
Layer 3
10
50.214453
20
32.171373
11
51.260482
21
32.016093
0
LINE
8
Layer 3
10
51.260482
20
32.016093
11
52.427661
21
31.659574
0
LINE
8
Layer 3
10
52.427661
20
31.659574
11
53.600089
21
31.308507
0
LINE
8
Layer 3
10
53.600089
20
31.308507
11
53.914599
21
31.328520
0
LINE
8
Layer 3
10
53.914599
20
31.328520
11
54.119161
21
31.470962
0
LINE
8
Layer 3
10
54.119161
20
31.470962
11
55.846751
21
32.600532
0
LINE
8
Layer 3
10
55.846751
20
32.600532
11
57.346350
21
33.226500
0
LINE
8
Layer 3
10
57.346350
20
33.226500
11
59.060411
21
33.271995
0
LINE
8
Layer 3
10
59.060411
20
33.271995
11
60.832991
21
33.159129
0
LINE
8
Layer 3
10
60.832991
20
33.159129
11
61.562027
21
35.668989
0
LINE
8
Layer 3
10
61.562027
20
35.668989
11
62.291091
21
38.178849
0
LINE
8
Layer 3
10
62.291091
20
38.178849
11
61.732122
21
38.934894
0
LINE
8
Layer 3
10
61.732122
20
38.934894
11
61.311793
21
39.710259
0
LINE
8
Layer 3
10
61.311793
20
39.710259
11
61.035344
21
40.643077
0
LINE
8
Layer 3
10
61.035344
20
40.643077
11
60.928483
21
41.606216
0
LINE
8
Layer 3
10
60.928483
20
41.606216
11
61.016915
21
42.472544
0
LINE
8
Layer 3
10
61.016915
20
42.472544
11
61.435334
21
43.162285
0
LINE
8
Layer 3
10
61.435334
20
43.162285
11
62.326289
21
44.014149
0
LINE
8
Layer 3
10
62.326289
20
44.014149
11
65.109868
21
45.951913
0
LINE
8
Layer 3
10
65.109868
20
45.951913
11
68.535770
21
47.781164
0
LINE
8
Layer 3
10
68.535770
20
47.781164
11
70.229630
21
48.497389
0
LINE
8
Layer 3
10
70.229630
20
48.497389
11
71.772115
21
48.997234
0
LINE
8
Layer 3
10
71.772115
20
48.997234
11
74.956224
21
49.538855
0
LINE
8
Layer 3
10
74.956224
20
49.538855
11
78.115409
21
49.564136
0
LINE
8
Layer 3
10
78.115409
20
49.564136
11
81.002072
21
49.091392
0
LINE
8
Layer 3
10
81.002072
20
49.091392
11
82.265833
21
48.673985
0
LINE
8
Layer 3
10
82.265833
20
48.673985
11
83.368615
21
48.138940
0
LINE
8
Layer 3
10
83.368615
20
48.138940
11
84.820906
21
47.062448
0
LINE
8
Layer 3
10
84.820906
20
47.062448
11
86.011480
21
45.713534
0
LINE
8
Layer 3
10
86.011480
20
45.713534
11
86.928627
21
44.136511
0
LINE
8
Layer 3
10
86.928627
20
44.136511
11
87.560636
21
42.375689
0
LINE
8
Layer 3
10
87.560636
20
42.375689
11
87.895796
21
40.475379
0
LINE
8
Layer 3
10
87.895796
20
40.475379
11
87.922394
21
38.479894
0
LINE
8
Layer 3
10
87.922394
20
38.479894
11
87.628721
21
36.433544
0
LINE
8
Layer 3
10
87.628721
20
36.433544
11
87.003065
21
34.380640
0
LINE
8
Layer 3
10
87.003065
20
34.380640
11
86.944708
21
34.127015
0
LINE
8
Layer 3
10
86.944708
20
34.127015
11
87.044333
21
33.976689
0
LINE
8
Layer 3
10
87.044333
20
33.976689
11
87.899120
21
33.885707
0
LINE
8
Layer 3
10
87.899120
20
33.885707
11
88.812635
21
33.748970
0
LINE
8
Layer 3
10
88.812635
20
33.748970
11
89.768364
21
33.377348
0
LINE
8
Layer 3
10
89.768364
20
33.377348
11
90.655751
21
32.826180
0
LINE
8
Layer 3
10
90.655751
20
32.826180
11
91.364240
21
32.150807
0
LINE
8
Layer 3
10
91.364240
20
32.150807
11
91.651854
21
31.840648
0
LINE
8
Layer 3
10
91.651854
20
31.840648
11
91.958021
21
31.761962
0
LINE
8
Layer 3
10
91.958021
20
31.761962
11
93.355030
21
32.384634
0
LINE
8
Layer 3
10
93.355030
20
32.384634
11
95.045198
21
33.043008
0
LINE
8
Layer 3
10
95.045198
20
33.043008
11
97.292870
21
33.204432
0
LINE
8
Layer 3
10
97.292870
20
33.204432
11
99.695740
21
33.227630
0
LINE
8
Layer 3
10
99.695740
20
33.227630
11
100.364465
21
34.891100
0
LINE
8
Layer 3
10
100.364465
20
34.891100
11
100.873855
21
36.522538
0
LINE
8
Layer 3
10
100.873855
20
36.522538
11
101.159513
21
38.109000
0
LINE
8
Layer 3
10
101.159513
20
38.109000
11
101.448236
21
39.620320
0
LINE
8
Layer 3
10
101.448236
20
39.620320
11
102.040926
21
40.679332
0
LINE
8
Layer 3
10
102.040926
20
40.679332
11
102.952369
21
41.302596
0
LINE
8
Layer 3
10
102.952369
20
41.302596
11
104.197353
21
41.506670
0
LINE
8
Layer 3
10
104.197353
20
41.506670
11
105.092773
21
41.246566
0
LINE
8
Layer 3
10
105.092773
20
41.246566
11
106.210906
21
40.573852
0
LINE
8
Layer 3
10
106.210906
20
40.573852
11
107.325985
21
39.649927
0
LINE
8
Layer 3
10
107.325985
20
39.649927
11
108.212243
21
38.636190
0
LINE
8
Layer 3
10
108.212243
20
38.636190
11
108.865830
21
37.384266
0
LINE
8
Layer 3
10
108.865830
20
37.384266
11
109.025240
21
35.886700
0
LINE
8
Layer 3
10
109.025240
20
35.886700
11
108.786847
21
33.650660
0
LINE
8
Layer 3
10
108.786847
20
33.650660
11
108.677613
21
33.145204
0
LINE
8
Layer 3
10
108.677613
20
33.145204
11
109.121083
21
33.297882
0
LINE
8
Layer 3
10
109.121083
20
33.297882
11
109.968149
21
33.591624
0
LINE
8
Layer 3
10
109.968149
20
33.591624
11
110.817793
21
33.577907
0
LINE
8
Layer 3
10
110.817793
20
33.577907
11
111.648815
21
33.260898
0
LINE
8
Layer 3
10
111.648815
20
33.260898
11
112.440013
21
32.644764
0
LINE
8
Layer 3
10
112.440013
20
32.644764
11
113.185130
21
31.676634
0
LINE
8
Layer 3
10
113.185130
20
31.676634
11
113.348769
21
31.182697
0
LINE
8
Layer 3
10
113.348769
20
31.182697
11
113.369351
21
30.640148
0
LINE
8
Layer 3
10
113.369351
20
30.640148
11
112.970017
21
29.283125
0
LINE
8
Layer 3
10
112.970017
20
29.283125
11
111.964469
21
27.353384
0
LINE
8
Layer 3
10
111.964469
20
27.353384
11
110.786960
21
25.052843
0
LINE
8
Layer 3
10
110.786960
20
25.052843
11
110.659861
21
24.367529
0
LINE
8
Layer 3
10
110.659861
20
24.367529
11
110.726419
21
23.650914
0
LINE
8
Layer 3
10
110.726419
20
23.650914
11
110.999423
21
22.541604
0
LINE
8
Layer 3
10
110.999423
20
22.541604
11
111.385944
21
21.679227
0
LINE
8
Layer 3
10
111.385944
20
21.679227
11
111.832747
21
21.152531
0
LINE
8
Layer 3
10
111.832747
20
21.152531
11
112.286599
21
21.050264
0
LINE
8
Layer 3
10
112.286599
20
21.050264
11
116.657674
21
21.932201
0
LINE
8
Layer 3
10
116.657674
20
21.932201
11
121.725229
21
22.512254
0
LINE
8
Layer 3
10
121.725229
20
22.512254
11
123.887120
21
22.530366
0
LINE
8
Layer 3
10
123.887120
20
22.530366
11
125.782209
21
22.356751
0
LINE
8
Layer 3
10
125.782209
20
22.356751
11
127.403885
21
21.994923
0
LINE
8
Layer 3
10
127.403885
20
21.994923
11
128.745537
21
21.448396
0
LINE
8
Layer 3
10
128.745537
20
21.448396
11
129.800552
21
20.720686
0
LINE
8
Layer 3
10
129.800552
20
20.720686
11
130.562321
21
19.815306
0
LINE
8
Layer 3
10
130.562321
20
19.815306
11
131.024230
21
18.735771
0
LINE
8
Layer 3
10
131.024230
20
18.735771
11
131.179669
21
17.485594
0
LINE
8
Layer 3
10
131.179669
20
17.485594
11
131.065740
21
16.527633
0
LINE
8
Layer 3
10
131.065740
20
16.527633
11
130.735064
21
15.585518
0
LINE
8
Layer 3
10
130.735064
20
15.585518
11
130.204310
21
14.676489
0
LINE
8
Layer 3
10
130.204310
20
14.676489
11
129.490148
21
13.817784
0
LINE
8
Layer 3
10
129.490148
20
13.817784
11
128.609245
21
13.026644
0
LINE
8
Layer 3
10
128.609245
20
13.026644
11
127.578270
21
12.320306
0
LINE
8
Layer 3
10
127.578270
20
12.320306
11
126.413892
21
11.716010
0
LINE
8
Layer 3
10
126.413892
20
11.716010
11
125.132779
21
11.230994
0
LINE
8
Layer 3
10
125.132779
20
11.230994
11
122.753241
21
10.719492
0
LINE
8
Layer 3
10
122.753241
20
10.719492
11
119.044119
21
10.612335
0
LINE
8
Layer 3
10
119.044119
20
10.612335
11
116.201485
21
10.696106
0
LINE
8
Layer 3
10
116.201485
20
10.696106
11
113.924293
21
10.958710
0
LINE
8
Layer 3
10
113.924293
20
10.958710
11
111.992488
21
11.438997
0
LINE
8
Layer 3
10
111.992488
20
11.438997
11
110.186019
21
12.175815
0
LINE
8
Layer 3
10
110.186019
20
12.175815
11
109.075619
21
12.712291
0
LINE
8
Layer 3
10
109.075619
20
12.712291
11
105.099389
21
11.429281
0
LINE
8
Layer 3
10
105.099389
20
11.429281
11
97.870674
21
9.192522
0
LINE
8
Layer 3
10
97.870674
20
9.192522
11
90.657518
21
7.134568
0
LINE
8
Layer 3
10
90.657518
20
7.134568
11
83.991522
21
5.400675
0
LINE
8
Layer 3
10
83.991522
20
5.400675
11
78.404289
21
4.136101
0
LINE
8
Layer 3
10
78.404289
20
4.136101
11
72.694848
21
3.215293
0
LINE
8
Layer 3
10
72.694848
20
3.215293
11
66.543769
21
2.626984
0
LINE
8
Layer 3
10
66.543769
20
2.626984
11
60.465725
21
2.417976
0
LINE
8
Layer 3
10
60.465725
20
2.417976
11
54.975389
21
2.635071
0
LINE
8
Layer 3
10
54.975389
20
2.635071
11
52.525206
21
2.924455
0
LINE
8
Layer 3
10
52.525206
20
2.924455
11
50.201258
21
3.348028
0
LINE
8
Layer 3
10
50.201258
20
3.348028
11
48.005684
21
3.907518
0
LINE
8
Layer 3
10
48.005684
20
3.907518
11
45.940628
21
4.604653
0
LINE
8
Layer 3
10
45.940628
20
4.604653
11
44.008229
21
5.441157
0
LINE
8
Layer 3
10
44.008229
20
5.441157
11
42.210629
21
6.418759
0
LINE
8
Layer 3
10
42.210629
20
6.418759
11
40.549968
21
7.539185
0
LINE
8
Layer 3
10
40.549968
20
7.539185
11
39.028389
21
8.804161
0
LINE
8
Layer 3
10
39.028389
20
8.804161
11
39.028500
21
8.804550
0
LINE
8
Layer 4
10
86.766300
20
8.539270
11
98.375680
21
11.843101
0
LINE
8
Layer 4
10
98.375680
20
11.843101
11
107.989700
21
14.846370
0
LINE
8
Layer 4
10
107.989700
20
14.846370
11
109.282416
21
15.223119
0
LINE
8
Layer 4
10
109.282416
20
15.223119
11
109.693702
21
15.131393
0
LINE
8
Layer 4
10
109.693702
20
15.131393
11
110.195970
21
14.853764
0
LINE
8
Layer 4
10
110.195970
20
14.853764
11
112.444425
21
13.857624
0
LINE
8
Layer 4
10
112.444425
20
13.857624
11
115.257972
21
13.182112
0
LINE
8
Layer 4
10
115.257972
20
13.182112
11
118.379594
21
12.870001
0
LINE
8
Layer 4
10
118.379594
20
12.870001
11
121.552270
21
12.964064
0
LINE
8
Layer 4
10
121.552270
20
12.964064
11
123.055165
21
13.188814
0
LINE
8
Layer 4
10
123.055165
20
13.188814
11
124.432699
21
13.541572
0
LINE
8
Layer 4
10
124.432699
20
13.541572
11
125.661750
21
14.007712
0
LINE
8
Layer 4
10
125.661750
20
14.007712
11
126.719191
21
14.572612
0
LINE
8
Layer 4
10
126.719191
20
14.572612
11
127.581900
21
15.221646
0
LINE
8
Layer 4
10
127.581900
20
15.221646
11
128.226750
21
15.940191
0
LINE
8
Layer 4
10
128.226750
20
15.940191
11
128.630618
21
16.713622
0
LINE
8
Layer 4
10
128.630618
20
16.713622
11
128.770380
21
17.527314
0
LINE
8
Layer 4
10
128.770380
20
17.527314
11
128.543686
21
18.387489
0
LINE
8
Layer 4
10
128.543686
20
18.387489
11
127.880172
21
19.069954
0
LINE
8
Layer 4
10
127.880172
20
19.069954
11
126.804688
21
19.571338
0
LINE
8
Layer 4
10
126.804688
20
19.571338
11
125.342084
21
19.888270
0
LINE
8
Layer 4
10
125.342084
20
19.888270
11
123.517211
21
20.017381
0
LINE
8
Layer 4
10
123.517211
20
20.017381
11
121.354919
21
19.955299
0
LINE
8
Layer 4
10
121.354919
20
19.955299
11
118.880058
21
19.698654
0
LINE
8
Layer 4
10
118.880058
20
19.698654
11
116.117480
21
19.244074
0
LINE
8
Layer 4
10
116.117480
20
19.244074
11
111.480850
21
18.459948
0
LINE
8
Layer 4
10
111.480850
20
18.459948
11
110.723556
21
18.770767
0
LINE
8
Layer 4
10
110.723556
20
18.770767
11
109.885509
21
19.614218
0
LINE
8
Layer 4
10
109.885509
20
19.614218
11
109.136262
21
20.776094
0
LINE
8
Layer 4
10
109.136262
20
20.776094
11
108.645370
21
22.042188
0
LINE
8
Layer 4
10
108.645370
20
22.042188
11
108.113184
21
23.935338
0
LINE
8
Layer 4
10
108.113184
20
23.935338
11
108.055471
21
24.408241
0
LINE
8
Layer 4
10
108.055471
20
24.408241
11
108.212734
21
25.064285
0
LINE
8
Layer 4
10
108.212734
20
25.064285
11
109.383974
21
27.523788
0
LINE
8
Layer 4
10
109.383974
20
27.523788
11
110.896264
21
30.698788
0
LINE
8
Layer 4
10
110.896264
20
30.698788
11
110.757589
21
30.974770
0
LINE
8
Layer 4
10
110.757589
20
30.974770
11
110.393669
21
30.941136
0
LINE
8
Layer 4
10
110.393669
20
30.941136
11
109.882661
21
30.628792
0
LINE
8
Layer 4
10
109.882661
20
30.628792
11
109.302724
21
30.068643
0
LINE
8
Layer 4
10
109.302724
20
30.068643
11
106.696848
21
26.497170
0
LINE
8
Layer 4
10
106.696848
20
26.497170
11
103.927524
21
22.312903
0
LINE
8
Layer 4
10
103.927524
20
22.312903
11
103.308668
21
21.273593
0
LINE
8
Layer 4
10
103.308668
20
21.273593
11
103.004150
21
22.074595
0
LINE
8
Layer 4
10
103.004150
20
22.074595
11
102.884020
21
22.767657
0
LINE
8
Layer 4
10
102.884020
20
22.767657
11
102.923309
21
23.740130
0
LINE
8
Layer 4
10
102.923309
20
23.740130
11
103.428520
21
26.326283
0
LINE
8
Layer 4
10
103.428520
20
26.326283
11
104.416530
21
29.438991
0
LINE
8
Layer 4
10
104.416530
20
29.438991
11
105.784090
21
32.684195
0
LINE
8
Layer 4
10
105.784090
20
32.684195
11
106.464411
21
34.370639
0
LINE
8
Layer 4
10
106.464411
20
34.370639
11
106.666607
21
35.692963
0
LINE
8
Layer 4
10
106.666607
20
35.692963
11
106.386008
21
36.795578
0
LINE
8
Layer 4
10
106.386008
20
36.795578
11
105.617946
21
37.822895
0
LINE
8
Layer 4
10
105.617946
20
37.822895
11
104.688332
21
38.644410
0
LINE
8
Layer 4
10
104.688332
20
38.644410
11
104.047961
21
38.894780
0
LINE
8
Layer 4
10
104.047961
20
38.894780
11
103.830275
21
38.805361
0
LINE
8
Layer 4
10
103.830275
20
38.805361
11
103.677740
21
38.572645
0
LINE
8
Layer 4
10
103.677740
20
38.572645
11
103.558576
21
37.676642
0
LINE
8
Layer 4
10
103.558576
20
37.676642
11
103.235746
21
35.881662
0
LINE
8
Layer 4
10
103.235746
20
35.881662
11
102.436436
21
33.232772
0
LINE
8
Layer 4
10
102.436436
20
33.232772
11
101.542869
21
30.352043
0
LINE
8
Layer 4
10
101.542869
20
30.352043
11
100.970296
21
27.958042
0
LINE
8
Layer 4
10
100.970296
20
27.958042
11
100.576900
21
26.240691
0
LINE
8
Layer 4
10
100.576900
20
26.240691
11
100.335440
21
25.970515
0
LINE
8
Layer 4
10
100.335440
20
25.970515
11
99.975774
21
25.910772
0
LINE
8
Layer 4
10
99.975774
20
25.910772
11
99.555616
21
25.938832
0
LINE
8
Layer 4
10
99.555616
20
25.938832
11
99.372271
21
26.103190
0
LINE
8
Layer 4
10
99.372271
20
26.103190
11
99.581651
21
27.321882
0
LINE
8
Layer 4
10
99.581651
20
27.321882
11
99.943299
21
28.786328
0
LINE
8
Layer 4
10
99.943299
20
28.786328
11
100.039489
21
29.575313
0
LINE
8
Layer 4
10
100.039489
20
29.575313
11
99.846950
21
29.976228
0
LINE
8
Layer 4
10
99.846950
20
29.976228
11
99.342411
21
30.276462
0
LINE
8
Layer 4
10
99.342411
20
30.276462
11
98.283038
21
30.608032
0
LINE
8
Layer 4
10
98.283038
20
30.608032
11
96.998846
21
30.695259
0
LINE
8
Layer 4
10
96.998846
20
30.695259
11
95.688757
21
30.543122
0
LINE
8
Layer 4
10
95.688757
20
30.543122
11
94.551691
21
30.156602
0
LINE
8
Layer 4
10
94.551691
20
30.156602
11
93.202152
21
29.226435
0
LINE
8
Layer 4
10
93.202152
20
29.226435
11
92.150626
21
27.971611
0
LINE
8
Layer 4
10
92.150626
20
27.971611
11
91.406540
21
26.406922
0
LINE
8
Layer 4
10
91.406540
20
26.406922
11
90.979321
21
24.547162
0
LINE
8
Layer 4
10
90.979321
20
24.547162
11
90.715176
21
23.365002
0
LINE
8
Layer 4
10
90.715176
20
23.365002
11
90.513486
21
23.146731
0
LINE
8
Layer 4
10
90.513486
20
23.146731
11
90.219382
21
23.088692
0
LINE
8
Layer 4
10
90.219382
20
23.088692
11
89.917357
21
23.124614
0
LINE
8
Layer 4
10
89.917357
20
23.124614
11
89.777944
21
23.296195
0
LINE
8
Layer 4
10
89.777944
20
23.296195
11
89.894036
21
24.429242
0
LINE
8
Layer 4
10
89.894036
20
24.429242
11
90.121747
21
26.289778
0
LINE
8
Layer 4
10
90.121747
20
26.289778
11
90.134425
21
28.002663
0
LINE
8
Layer 4
10
90.134425
20
28.002663
11
89.941311
21
29.408246
0
LINE
8
Layer 4
10
89.941311
20
29.408246
11
89.551644
21
30.346872
0
LINE
8
Layer 4
10
89.551644
20
30.346872
11
88.850769
21
30.926213
0
LINE
8
Layer 4
10
88.850769
20
30.926213
11
87.903886
21
31.218111
0
LINE
8
Layer 4
10
87.903886
20
31.218111
11
86.845104
21
31.203993
0
LINE
8
Layer 4
10
86.845104
20
31.203993
11
85.808534
21
30.865286
0
LINE
8
Layer 4
10
85.808534
20
30.865286
11
85.012342
21
30.555386
0
LINE
8
Layer 4
10
85.012342
20
30.555386
11
84.289644
21
30.426487
0
LINE
8
Layer 4
10
84.289644
20
30.426487
11
83.724807
21
30.278265
0
LINE
8
Layer 4
10
83.724807
20
30.278265
11
83.152583
21
29.859513
0
LINE
8
Layer 4
10
83.152583
20
29.859513
11
82.069853
21
28.365916
0
LINE
8
Layer 4
10
82.069853
20
28.365916
11
81.209218
21
26.256687
0
LINE
8
Layer 4
10
81.209218
20
26.256687
11
80.738444
21
23.842817
0
LINE
8
Layer 4
10
80.738444
20
23.842817
11
80.557596
21
21.818837
0
LINE
8
Layer 4
10
80.557596
20
21.818837
11
79.873885
21
22.777489
0
LINE
8
Layer 4
10
79.873885
20
22.777489
11
78.039208
21
25.878776
0
LINE
8
Layer 4
10
78.039208
20
25.878776
11
76.818835
21
28.287029
0
LINE
8
Layer 4
10
76.818835
20
28.287029
11
78.064093
21
28.844686
0
LINE
8
Layer 4
10
78.064093
20
28.844686
11
79.568005
21
29.728053
0
LINE
8
Layer 4
10
79.568005
20
29.728053
11
81.044377
21
30.753803
0
LINE
8
Layer 4
10
81.044377
20
30.753803
11
82.207015
21
31.738609
0
LINE
8
Layer 4
10
82.207015
20
31.738609
11
83.581062
21
33.302120
0
LINE
8
Layer 4
10
83.581062
20
33.302120
11
84.551303
21
34.894323
0
LINE
8
Layer 4
10
84.551303
20
34.894323
11
85.156695
21
36.596639
0
LINE
8
Layer 4
10
85.156695
20
36.596639
11
85.436195
21
38.490489
0
LINE
8
Layer 4
10
85.436195
20
38.490489
11
85.426892
21
40.412733
0
LINE
8
Layer 4
10
85.426892
20
40.412733
11
85.136126
21
42.089358
0
LINE
8
Layer 4
10
85.136126
20
42.089358
11
84.563405
21
43.520886
0
LINE
8
Layer 4
10
84.563405
20
43.520886
11
83.708238
21
44.707840
0
LINE
8
Layer 4
10
83.708238
20
44.707840
11
82.570131
21
45.650743
0
LINE
8
Layer 4
10
82.570131
20
45.650743
11
81.148595
21
46.350118
0
LINE
8
Layer 4
10
81.148595
20
46.350118
11
79.443137
21
46.806485
0
LINE
8
Layer 4
10
79.443137
20
46.806485
11
77.453265
21
47.020369
0
LINE
8
Layer 4
10
77.453265
20
47.020369
11
75.320632
21
46.999433
0
LINE
8
Layer 4
10
75.320632
20
46.999433
11
73.297933
21
46.733885
0
LINE
8
Layer 4
10
73.297933
20
46.733885
11
71.309047
21
46.208730
0
LINE
8
Layer 4
10
71.309047
20
46.208730
11
69.277855
21
45.408969
0
LINE
8
Layer 4
10
69.277855
20
45.408969
11
67.496352
21
44.461307
0
LINE
8
Layer 4
10
67.496352
20
44.461307
11
65.497153
21
43.219322
0
LINE
8
Layer 4
10
65.497153
20
43.219322
11
63.894362
21
42.087701
0
LINE
8
Layer 4
10
63.894362
20
42.087701
11
63.302085
21
41.471129
0
LINE
8
Layer 4
10
63.302085
20
41.471129
11
63.569660
21
40.804069
0
LINE
8
Layer 4
10
63.569660
20
40.804069
11
63.728608
21
40.581939
0
LINE
8
Layer 4
10
63.728608
20
40.581939
11
64.067920
21
40.589083
0
LINE
8
Layer 4
10
64.067920
20
40.589083
11
65.843440
21
41.448749
0
LINE
8
Layer 4
10
65.843440
20
41.448749
11
68.143297
21
42.567879
0
LINE
8
Layer 4
10
68.143297
20
42.567879
11
70.473608
21
43.483848
0
LINE
8
Layer 4
10
70.473608
20
43.483848
11
72.653689
21
44.133895
0
LINE
8
Layer 4
10
72.653689
20
44.133895
11
74.502860
21
44.455259
0
LINE
8
Layer 4
10
74.502860
20
44.455259
11
76.124728
21
44.465083
0
LINE
8
Layer 4
10
76.124728
20
44.465083
11
77.645358
21
44.231707
0
LINE
8
Layer 4
10
77.645358
20
44.231707
11
79.029504
21
43.778530
0
LINE
8
Layer 4
10
79.029504
20
43.778530
11
80.241915
21
43.128953
0
LINE
8
Layer 4
10
80.241915
20
43.128953
11
81.247343
21
42.306373
0
LINE
8
Layer 4
10
81.247343
20
42.306373
11
82.010539
21
41.334192
0
LINE
8
Layer 4
10
82.010539
20
41.334192
11
82.496254
21
40.235807
0
LINE
8
Layer 4
10
82.496254
20
40.235807
11
82.669240
21
39.034619
0
LINE
8
Layer 4
10
82.669240
20
39.034619
11
82.432296
21
37.672591
0
LINE
8
Layer 4
10
82.432296
20
37.672591
11
81.781366
21
36.061209
0
LINE
8
Layer 4
10
81.781366
20
36.061209
11
80.820276
21
34.410557
0
LINE
8
Layer 4
10
80.820276
20
34.410557
11
79.652850
21
32.930719
0
LINE
8
Layer 4
10
79.652850
20
32.930719
11
77.162415
21
30.738563
0
LINE
8
Layer 4
10
77.162415
20
30.738563
11
76.004076
21
29.915507
0
LINE
8
Layer 4
10
76.004076
20
29.915507
11
75.427140
21
29.677549
0
LINE
8
Layer 4
10
75.427140
20
29.677549
11
76.914820
21
34.679089
0
LINE
8
Layer 4
10
76.914820
20
34.679089
11
77.894535
21
37.943434
0
LINE
8
Layer 4
10
77.894535
20
37.943434
11
78.301017
21
40.001440
0
LINE
8
Layer 4
10
78.301017
20
40.001440
11
78.168755
21
41.271731
0
LINE
8
Layer 4
10
78.168755
20
41.271731
11
77.532237
21
42.172929
0
LINE
8
Layer 4
10
77.532237
20
42.172929
11
76.870328
21
42.643852
0
LINE
8
Layer 4
10
76.870328
20
42.643852
11
76.182937
21
42.893668
0
LINE
8
Layer 4
10
76.182937
20
42.893668
11
75.804613
21
42.901963
0
LINE
8
Layer 4
10
75.804613
20
42.901963
11
75.543118
21
42.769769
0
LINE
8
Layer 4
10
75.543118
20
42.769769
11
75.143117
21
41.857128
0
LINE
8
Layer 4
10
75.143117
20
41.857128
11
73.524687
21
36.494908
0
LINE
8
Layer 4
10
73.524687
20
36.494908
11
71.457307
21
28.759217
0
LINE
8
Layer 4
10
71.457307
20
28.759217
11
69.851567
21
21.607108
0
LINE
8
Layer 4
10
69.851567
20
21.607108
11
69.841362
21
20.576398
0
LINE
8
Layer 4
10
69.841362
20
20.576398
11
70.131175
21
19.579807
0
LINE
8
Layer 4
10
70.131175
20
19.579807
11
70.670602
21
18.729599
0
LINE
8
Layer 4
10
70.670602
20
18.729599
11
71.409237
21
18.138038
0
LINE
8
Layer 4
10
71.409237
20
18.138038
11
72.318020
21
17.727123
0
LINE
8
Layer 4
10
72.318020
20
17.727123
11
72.593017
21
19.632123
0
LINE
8
Layer 4
10
72.593017
20
19.632123
11
72.946807
21
21.723654
0
LINE
8
Layer 4
10
72.946807
20
21.723654
11
73.571594
21
24.077123
0
LINE
8
Layer 4
10
73.571594
20
24.077123
11
74.389332
21
26.617123
0
LINE
8
Layer 4
10
74.389332
20
26.617123
11
75.042535
21
25.347123
0
LINE
8
Layer 4
10
75.042535
20
25.347123
11
76.802504
21
22.466464
0
LINE
8
Layer 4
10
76.802504
20
22.466464
11
79.114435
21
19.752073
0
LINE
8
Layer 4
10
79.114435
20
19.752073
11
80.463078
21
18.439960
0
LINE
8
Layer 4
10
80.463078
20
18.439960
11
81.530586
21
17.650682
0
LINE
8
Layer 4
10
81.530586
20
17.650682
11
82.526809
21
17.264745
0
LINE
8
Layer 4
10
82.526809
20
17.264745
11
83.661595
21
17.162653
0
LINE
8
Layer 4
10
83.661595
20
17.162653
11
84.795312
21
17.267594
0
LINE
8
Layer 4
10
84.795312
20
17.267594
11
85.776329
21
17.623257
0
LINE
8
Layer 4
10
85.776329
20
17.623257
11
86.719858
21
18.290901
0
LINE
8
Layer 4
10
86.719858
20
18.290901
11
87.741115
21
19.331783
0
LINE
8
Layer 4
10
87.741115
20
19.331783
11
89.407516
21
20.797841
0
LINE
8
Layer 4
10
89.407516
20
20.797841
11
90.205232
21
21.236186
0
LINE
8
Layer 4
10
90.205232
20
21.236186
11
90.855435
21
21.395983
0
LINE
8
Layer 4
10
90.855435
20
21.395983
11
91.052641
21
21.168001
0
LINE
8
Layer 4
10
91.052641
20
21.168001
11
91.225484
21
20.619872
0
LINE
8
Layer 4
10
91.225484
20
20.619872
11
91.487379
21
19.824844
0
LINE
8
Layer 4
10
91.487379
20
19.824844
11
91.931902
21
19.050922
0
LINE
8
Layer 4
10
91.931902
20
19.050922
11
93.238024
21
17.671067
0
LINE
8
Layer 4
10
93.238024
20
17.671067
11
94.882241
21
16.689643
0
LINE
8
Layer 4
10
94.882241
20
16.689643
11
95.749382
21
16.413758
0
LINE
8
Layer 4
10
95.749382
20
16.413758
11
96.602944
21
16.315982
0
LINE
8
Layer 4
10
96.602944
20
16.315982
11
97.777688
21
16.478089
0
LINE
8
Layer 4
10
97.777688
20
16.478089
11
98.827853
21
16.914043
0
LINE
8
Layer 4
10
98.827853
20
16.914043
11
99.623165
21
17.548291
0
LINE
8
Layer 4
10
99.623165
20
17.548291
11
100.033354
21
18.305282
0
LINE
8
Layer 4
10
100.033354
20
18.305282
11
100.097052
21
19.306662
0
LINE
8
Layer 4
10
100.097052
20
19.306662
11
98.541872
21
18.694353
0
LINE
8
Layer 4
10
98.541872
20
18.694353
11
97.341173
21
18.209803
0
LINE
8
Layer 4
10
97.341173
20
18.209803
11
96.332663
21
18.139762
0
LINE
8
Layer 4
10
96.332663
20
18.139762
11
95.431172
21
18.497039
0
LINE
8
Layer 4
10
95.431172
20
18.497039
11
94.551532
21
19.294442
0
LINE
8
Layer 4
10
94.551532
20
19.294442
11
93.925399
21
20.129519
0
LINE
8
Layer 4
10
93.925399
20
20.129519
11
93.493687
21
20.982740
0
LINE
8
Layer 4
10
93.493687
20
20.982740
11
93.256026
21
21.848018
0
LINE
8
Layer 4
10
93.256026
20
21.848018
11
93.212049
21
22.719268
0
LINE
8
Layer 4
10
93.212049
20
22.719268
11
93.361386
21
23.590405
0
LINE
8
Layer 4
10
93.361386
20
23.590405
11
93.703671
21
24.455342
0
LINE
8
Layer 4
10
93.703671
20
24.455342
11
94.238534
21
25.307993
0
LINE
8
Layer 4
10
94.238534
20
25.307993
11
94.965608
21
26.142272
0
LINE
8
Layer 4
10
94.965608
20
26.142272
11
96.098733
21
27.093736
0
LINE
8
Layer 4
10
96.098733
20
27.093736
11
96.537149
21
27.260872
0
LINE
8
Layer 4
10
96.537149
20
27.260872
11
96.979658
21
27.272512
0
LINE
8
Layer 4
10
96.979658
20
27.272512
11
97.432707
21
27.189153
0
LINE
8
Layer 4
10
97.432707
20
27.189153
11
97.662861
21
26.960781
0
LINE
8
Layer 4
10
97.662861
20
26.960781
11
97.721648
21
25.391782
0
LINE
8
Layer 4
10
97.721648
20
25.391782
11
97.670735
21
23.601982
0
LINE
8
Layer 4
10
97.670735
20
23.601982
11
100.383535
21
23.794917
0
LINE
8
Layer 4
10
100.383535
20
23.794917
11
100.525182
21
21.519337
0
LINE
8
Layer 4
10
100.525182
20
21.519337
11
100.695909
21
20.014996
0
LINE
8
Layer 4
10
100.695909
20
20.014996
11
100.993200
21
18.763383
0
LINE
8
Layer 4
10
100.993200
20
18.763383
11
101.394879
21
17.833673
0
LINE
8
Layer 4
10
101.394879
20
17.833673
11
101.878772
21
17.295037
0
LINE
8
Layer 4
10
101.878772
20
17.295037
11
102.421448
21
17.177380
0
LINE
8
Layer 4
10
102.421448
20
17.177380
11
103.047596
21
17.396052
0
LINE
8
Layer 4
10
103.047596
20
17.396052
11
103.697619
21
17.916537
0
LINE
8
Layer 4
10
103.697619
20
17.916537
11
104.311922
21
18.704317
0
LINE
8
Layer 4
10
104.311922
20
18.704317
11
105.204727
21
19.873881
0
LINE
8
Layer 4
10
105.204727
20
19.873881
11
105.448471
21
19.978547
0
LINE
8
Layer 4
10
105.448471
20
19.978547
11
105.533632
21
19.743177
0
LINE
8
Layer 4
10
105.533632
20
19.743177
11
106.491747
21
18.246727
0
LINE
8
Layer 4
10
106.491747
20
18.246727
11
107.449862
21
16.991907
0
LINE
8
Layer 4
10
107.449862
20
16.991907
11
102.470052
21
15.946217
0
LINE
8
Layer 4
10
102.470052
20
15.946217
11
90.474592
21
13.663951
0
LINE
8
Layer 4
10
90.474592
20
13.663951
11
84.326407
21
12.486207
0
LINE
8
Layer 4
10
84.326407
20
12.486207
11
78.127252
21
11.434853
0
LINE
8
Layer 4
10
78.127252
20
11.434853
11
71.914128
21
10.622988
0
LINE
8
Layer 4
10
71.914128
20
10.622988
11
65.724036
21
10.163710
0
LINE
8
Layer 4
10
65.724036
20
10.163710
11
59.593977
21
10.170117
0
LINE
8
Layer 4
10
59.593977
20
10.170117
11
56.563023
21
10.383296
0
LINE
8
Layer 4
10
56.563023
20
10.383296
11
53.560952
21
10.755307
0
LINE
8
Layer 4
10
53.560952
20
10.755307
11
50.658203
21
11.313192
0
LINE
8
Layer 4
10
50.658203
20
11.313192
11
47.855627
21
12.002092
0
LINE
8
Layer 4
10
47.855627
20
12.002092
11
41.917052
21
13.946677
0
LINE
8
Layer 4
10
41.917052
20
13.946677
11
39.081468
21
14.904533
0
LINE
8
Layer 4
10
39.081468
20
14.904533
11
38.366840
21
15.038109
0
LINE
8
Layer 4
10
38.366840
20
15.038109
11
38.030292
21
14.965217
0
LINE
8
Layer 4
10
38.030292
20
14.965217
11
37.882704
21
14.392108
0
LINE
8
Layer 4
10
37.882704
20
14.392108
11
38.243013
21
13.506634
0
LINE
8
Layer 4
10
38.243013
20
13.506634
11
39.094086
21
12.337839
0
LINE
8
Layer 4
10
39.094086
20
12.337839
11
40.418792
21
10.914767
0
LINE
8
Layer 4
10
40.418792
20
10.914767
11
41.702242
21
9.767709
0
LINE
8
Layer 4
10
41.702242
20
9.767709
11
43.112969
21
8.745422
0
LINE
8
Layer 4
10
43.112969
20
8.745422
11
44.659612
21
7.844354
0
LINE
8
Layer 4
10
44.659612
20
7.844354
11
46.350808
21
7.060953
0
LINE
8
Layer 4
10
46.350808
20
7.060953
11
48.195196
21
6.391667
0
LINE
8
Layer 4
10
48.195196
20
6.391667
11
50.201413
21
5.832944
0
LINE
8
Layer 4
10
50.201413
20
5.832944
11
54.733892
21
5.032977
0
LINE
8
Layer 4
10
54.733892
20
5.032977
11
58.142891
21
4.870480
0
LINE
8
Layer 4
10
58.142891
20
4.870480
11
63.028049
21
4.907970
0
LINE
8
Layer 4
10
63.028049
20
4.907970
11
68.108879
21
5.114340
0
LINE
8
Layer 4
10
68.108879
20
5.114340
11
72.104892
21
5.458483
0
LINE
8
Layer 4
10
72.104892
20
5.458483
11
78.522978
21
6.573695
0
LINE
8
Layer 4
10
78.522978
20
6.573695
11
86.766092
21
8.539503
0
LINE
8
Layer 4
10
86.766092
20
8.539503
11
86.766300
21
8.539270
0
LINE
8
Layer 4
10
82.298160
20
14.716550
11
81.507318
21
15.010710
0
LINE
8
Layer 4
10
81.507318
20
15.010710
11
80.451075
21
15.453553
0
LINE
8
Layer 4
10
80.451075
20
15.453553
11
79.136042
21
16.343871
0
LINE
8
Layer 4
10
79.136042
20
16.343871
11
77.739399
21
17.545013
0
LINE
8
Layer 4
10
77.739399
20
17.545013
11
76.438328
21
18.920330
0
LINE
8
Layer 4
10
76.438328
20
18.920330
11
75.195278
21
20.395050
0
LINE
8
Layer 4
10
75.195278
20
20.395050
11
74.995267
21
18.566840
0
LINE
8
Layer 4
10
74.995267
20
18.566840
11
74.689966
21
16.974354
0
LINE
8
Layer 4
10
74.689966
20
16.974354
11
74.434777
21
16.497218
0
LINE
8
Layer 4
10
74.434777
20
16.497218
11
74.062298
21
16.103630
0
LINE
8
Layer 4
10
74.062298
20
16.103630
11
73.533440
21
15.756188
0
LINE
8
Layer 4
10
73.533440
20
15.756188
11
72.923611
21
15.542662
0
LINE
8
Layer 4
10
72.923611
20
15.542662
11
71.563982
21
15.501987
0
LINE
8
Layer 4
10
71.563982
20
15.501987
11
70.189298
21
15.950869
0
LINE
8
Layer 4
10
70.189298
20
15.950869
11
69.005448
21
16.858574
0
LINE
8
Layer 4
10
69.005448
20
16.858574
11
68.461493
21
17.459650
0
LINE
8
Layer 4
10
68.461493
20
17.459650
11
67.453903
21
16.480932
0
LINE
8
Layer 4
10
67.453903
20
16.480932
11
66.192199
21
15.495084
0
LINE
8
Layer 4
10
66.192199
20
15.495084
11
64.929057
21
14.989786
0
LINE
8
Layer 4
10
64.929057
20
14.989786
11
63.659327
21
14.963961
0
LINE
8
Layer 4
10
63.659327
20
14.963961
11
62.377863
21
15.416532
0
LINE
8
Layer 4
10
62.377863
20
15.416532
11
61.418812
21
15.786934
0
LINE
8
Layer 4
10
61.418812
20
15.786934
11
60.440773
21
15.428357
0
LINE
8
Layer 4
10
60.440773
20
15.428357
11
59.298221
21
14.971419
0
LINE
8
Layer 4
10
59.298221
20
14.971419
11
58.136396
21
14.746957
0
LINE
8
Layer 4
10
58.136396
20
14.746957
11
56.987076
21
14.757905
0
LINE
8
Layer 4
10
56.987076
20
14.757905
11
55.882043
21
15.007197
0
LINE
8
Layer 4
10
55.882043
20
15.007197
11
54.821441
21
15.264651
0
LINE
8
Layer 4
10
54.821441
20
15.264651
11
54.139663
21
15.170214
0
LINE
8
Layer 4
10
54.139663
20
15.170214
11
52.962430
21
14.896784
0
LINE
8
Layer 4
10
52.962430
20
14.896784
11
51.498968
21
15.013121
0
LINE
8
Layer 4
10
51.498968
20
15.013121
11
50.099684
21
15.451351
0
LINE
8
Layer 4
10
50.099684
20
15.451351
11
49.114983
21
16.143598
0
LINE
8
Layer 4
10
49.114983
20
16.143598
11
48.876437
21
16.382774
0
LINE
8
Layer 4
10
48.876437
20
16.382774
11
48.654919
21
16.415491
0
LINE
8
Layer 4
10
48.654919
20
16.415491
11
47.915543
21
15.746568
0
LINE
8
Layer 4
10
47.915543
20
15.746568
11
47.114343
21
14.777248
0
LINE
8
Layer 4
10
47.114343
20
14.777248
11
50.015056
21
13.977785
0
LINE
8
Layer 4
10
50.015056
20
13.977785
11
54.682123
21
13.064558
0
LINE
8
Layer 4
10
54.682123
20
13.064558
11
58.293464
21
12.778332
0
LINE
8
Layer 4
10
58.293464
20
12.778332
11
63.127998
21
12.679495
0
LINE
8
Layer 4
10
63.127998
20
12.679495
11
68.051595
21
12.764553
0
LINE
8
Layer 4
10
68.051595
20
12.764553
11
71.930123
21
13.030014
0
LINE
8
Layer 4
10
71.930123
20
13.030014
11
78.529358
21
13.976550
0
LINE
8
Layer 4
10
78.529358
20
13.976550
11
82.298423
21
14.716374
0
LINE
8
Layer 4
10
82.298423
20
14.716374
11
82.298160
21
14.716550
0
LINE
8
Layer 4
10
91.083450
20
16.295270
11
91.731770
21
16.466573
0
LINE
8
Layer 4
10
91.731770
20
16.466573
11
90.928002
21
17.236616
0
LINE
8
Layer 4
10
90.928002
20
17.236616
11
90.124262
21
18.006659
0
LINE
8
Layer 4
10
90.124262
20
18.006659
11
87.895132
21
15.722469
0
LINE
8
Layer 4
10
87.895132
20
15.722469
11
89.165132
21
15.923216
0
LINE
8
Layer 4
10
89.165132
20
15.923216
11
91.083452
21
16.295269
0
LINE
8
Layer 4
10
91.083452
20
16.295269
11
91.083450
21
16.295270
0
LINE
8
Layer 4
10
10.907050
20
18.643810
11
11.512146
21
21.531734
0
LINE
8
Layer 4
10
11.512146
20
21.531734
11
12.509850
21
25.205470
0
LINE
8
Layer 4
10
12.509850
20
25.205470
11
14.242440
21
31.061580
0
LINE
8
Layer 4
10
14.242440
20
31.061580
11
14.702112
21
32.304349
0
LINE
8
Layer 4
10
14.702112
20
32.304349
11
14.930133
21
32.592664
0
LINE
8
Layer 4
10
14.930133
20
32.592664
11
15.171628
21
32.684580
0
LINE
8
Layer 4
10
15.171628
20
32.684580
11
16.194342
21
32.962685
0
LINE
8
Layer 4
10
16.194342
20
32.962685
11
17.659638
21
33.662391
0
LINE
8
Layer 4
10
17.659638
20
33.662391
11
19.194671
21
34.582416
0
LINE
8
Layer 4
10
19.194671
20
34.582416
11
20.426598
21
35.521480
0
LINE
8
Layer 4
10
20.426598
20
35.521480
11
21.626092
21
36.926377
0
LINE
8
Layer 4
10
21.626092
20
36.926377
11
22.698118
21
38.682370
0
LINE
8
Layer 4
10
22.698118
20
38.682370
11
23.366228
21
40.343366
0
LINE
8
Layer 4
10
23.366228
20
40.343366
11
23.697107
21
41.940842
0
LINE
8
Layer 4
10
23.697107
20
41.940842
11
23.703370
21
43.439377
0
LINE
8
Layer 4
10
23.703370
20
43.439377
11
23.397630
21
44.803551
0
LINE
8
Layer 4
10
23.397630
20
44.803551
11
22.792503
21
45.997942
0
LINE
8
Layer 4
10
22.792503
20
45.997942
11
21.900602
21
46.987130
0
LINE
8
Layer 4
10
21.900602
20
46.987130
11
20.734543
21
47.735693
0
LINE
8
Layer 4
10
20.734543
20
47.735693
11
19.306938
21
48.208210
0
LINE
8
Layer 4
10
19.306938
20
48.208210
11
17.288913
21
48.342392
0
LINE
8
Layer 4
10
17.288913
20
48.342392
11
15.153641
21
47.985634
0
LINE
8
Layer 4
10
15.153641
20
47.985634
11
12.995750
21
47.199665
0
LINE
8
Layer 4
10
12.995750
20
47.199665
11
10.909865
21
46.046216
0
LINE
8
Layer 4
10
10.909865
20
46.046216
11
8.990616
21
44.587020
0
LINE
8
Layer 4
10
8.990616
20
44.587020
11
7.332626
21
42.883806
0
LINE
8
Layer 4
10
7.332626
20
42.883806
11
6.030525
21
40.998306
0
LINE
8
Layer 4
10
6.030525
20
40.998306
11
5.178938
21
38.992250
0
LINE
8
Layer 4
10
5.178938
20
38.992250
11
4.896977
21
37.617089
0
LINE
8
Layer 4
10
4.896977
20
37.617089
11
5.151591
21
36.574650
0
LINE
8
Layer 4
10
5.151591
20
36.574650
11
5.712717
21
35.633816
0
LINE
8
Layer 4
10
5.712717
20
35.633816
11
6.494261
21
34.843094
0
LINE
8
Layer 4
10
6.494261
20
34.843094
11
7.376771
21
34.298355
0
LINE
8
Layer 4
10
7.376771
20
34.298355
11
8.240791
21
34.095470
0
LINE
8
Layer 4
10
8.240791
20
34.095470
11
9.166180
21
34.269748
0
LINE
8
Layer 4
10
9.166180
20
34.269748
11
9.851936
21
34.776715
0
LINE
8
Layer 4
10
9.851936
20
34.776715
11
10.278056
21
35.592572
0
LINE
8
Layer 4
10
10.278056
20
35.592572
11
10.424541
21
36.693520
0
LINE
8
Layer 4
10
10.424541
20
36.693520
11
10.330774
21
37.714353
0
LINE
8
Layer 4
10
10.330774
20
37.714353
11
10.034895
21
38.175213
0
LINE
8
Layer 4
10
10.034895
20
38.175213
11
9.515036
21
38.086059
0
LINE
8
Layer 4
10
9.515036
20
38.086059
11
8.749331
21
37.456846
0
LINE
8
Layer 4
10
8.749331
20
37.456846
11
7.922364
21
36.770993
0
LINE
8
Layer 4
10
7.922364
20
36.770993
11
7.671500
21
36.781456
0
LINE
8
Layer 4
10
7.671500
20
36.781456
11
7.412561
21
36.986523
0
LINE
8
Layer 4
10
7.412561
20
36.986523
11
7.147505
21
37.640053
0
LINE
8
Layer 4
10
7.147505
20
37.640053
11
7.284441
21
38.571658
0
LINE
8
Layer 4
10
7.284441
20
38.571658
11
7.763430
21
39.695953
0
LINE
8
Layer 4
10
7.763430
20
39.695953
11
8.524533
21
40.927549
0
LINE
8
Layer 4
10
8.524533
20
40.927549
11
9.507814
21
42.181061
0
LINE
8
Layer 4
10
9.507814
20
42.181061
11
10.653334
21
43.371102
0
LINE
8
Layer 4
10
10.653334
20
43.371102
11
11.901156
21
44.412285
0
LINE
8
Layer 4
10
11.901156
20
44.412285
11
13.191341
21
45.219223
0
LINE
8
Layer 4
10
13.191341
20
45.219223
11
14.278783
21
45.621523
0
LINE
8
Layer 4
10
14.278783
20
45.621523
11
15.530347
21
45.846994
0
LINE
8
Layer 4
10
15.530347
20
45.846994
11
16.769095
21
45.877452
0
LINE
8
Layer 4
10
16.769095
20
45.877452
11
17.818091
21
45.694711
0
LINE
8
Layer 4
10
17.818091
20
45.694711
11
18.906595
21
45.167337
0
LINE
8
Layer 4
10
18.906595
20
45.167337
11
19.725609
21
44.397880
0
LINE
8
Layer 4
10
19.725609
20
44.397880
11
20.267040
21
43.396871
0
LINE
8
Layer 4
10
20.267040
20
43.396871
11
20.522791
21
42.174841
0
LINE
8
Layer 4
10
20.522791
20
42.174841
11
20.464947
21
40.609510
0
LINE
8
Layer 4
10
20.464947
20
40.609510
11
19.723171
21
38.908121
0
LINE
8
Layer 4
10
19.723171
20
38.908121
11
18.489243
21
37.139037
0
LINE
8
Layer 4
10
18.489243
20
37.139037
11
16.922142
21
35.443295
0
LINE
8
Layer 4
10
16.922142
20
35.443295
11
15.664133
21
34.435533
0
LINE
8
Layer 4
10
15.664133
20
34.435533
11
15.351745
21
34.381720
0
LINE
8
Layer 4
10
15.351745
20
34.381720
11
15.357481
21
34.730391
0
LINE
8
Layer 4
10
15.357481
20
34.730391
11
16.628607
21
38.937331
0
LINE
8
Layer 4
10
16.628607
20
38.937331
11
17.197911
21
41.514161
0
LINE
8
Layer 4
10
17.197911
20
41.514161
11
16.965895
21
42.365918
0
LINE
8
Layer 4
10
16.965895
20
42.365918
11
16.371012
21
43.159228
0
LINE
8
Layer 4
10
16.371012
20
43.159228
11
15.565006
21
43.744741
0
LINE
8
Layer 4
10
15.565006
20
43.744741
11
14.699621
21
43.973101
0
LINE
8
Layer 4
10
14.699621
20
43.973101
11
14.219476
21
43.936364
0
LINE
8
Layer 4
10
14.219476
20
43.936364
11
13.925341
21
43.739904
0
LINE
8
Layer 4
10
13.925341
20
43.739904
11
13.518411
21
42.350321
0
LINE
8
Layer 4
10
13.518411
20
42.350321
11
12.250021
21
37.623101
0
LINE
8
Layer 4
10
12.250021
20
37.623101
11
10.446544
21
31.122509
0
LINE
8
Layer 4
10
10.446544
20
31.122509
11
9.133327
21
25.350261
0
LINE
8
Layer 4
10
9.133327
20
25.350261
11
8.425534
21
20.889283
0
LINE
8
Layer 4
10
8.425534
20
20.889283
11
8.334661
21
19.332685
0
LINE
8
Layer 4
10
8.334661
20
19.332685
11
8.438331
21
18.322501
0
LINE
8
Layer 4
10
8.438331
20
18.322501
11
8.752271
21
17.526290
0
LINE
8
Layer 4
10
8.752271
20
17.526290
11
9.168381
21
16.889928
0
LINE
8
Layer 4
10
9.168381
20
16.889928
11
9.640788
21
16.468048
0
LINE
8
Layer 4
10
9.640788
20
16.468048
11
10.123621
21
16.315281
0
LINE
8
Layer 4
10
10.123621
20
16.315281
11
10.361787
21
16.422233
0
LINE
8
Layer 4
10
10.361787
20
16.422233
11
10.554482
21
16.794515
0
LINE
8
Layer 4
10
10.554482
20
16.794515
11
10.907323
21
18.643611
0
LINE
8
Layer 4
10
10.907323
20
18.643611
11
10.907050
21
18.643810
0
LINE
8
Layer 4
10
47.753950
20
20.582930
11
48.857856
21
22.613676
0
LINE
8
Layer 4
10
48.857856
20
22.613676
11
49.156753
21
23.046707
0
LINE
8
Layer 4
10
49.156753
20
23.046707
11
49.222690
21
22.986330
0
LINE
8
Layer 4
10
49.222690
20
22.986330
11
49.183940
21
21.791270
0
LINE
8
Layer 4
10
49.183940
20
21.791270
11
49.431660
21
20.430331
0
LINE
8
Layer 4
10
49.431660
20
20.430331
11
49.896299
21
19.160437
0
LINE
8
Layer 4
10
49.896299
20
19.160437
11
50.508300
21
18.238510
0
LINE
8
Layer 4
10
50.508300
20
18.238510
11
51.353264
21
17.669183
0
LINE
8
Layer 4
10
51.353264
20
17.669183
11
52.337428
21
17.431769
0
LINE
8
Layer 4
10
52.337428
20
17.431769
11
53.331798
21
17.535016
0
LINE
8
Layer 4
10
53.331798
20
17.535016
11
54.207380
21
17.987674
0
LINE
8
Layer 4
10
54.207380
20
17.987674
11
54.866019
21
18.387318
0
LINE
8
Layer 4
10
54.866019
20
18.387318
11
55.480910
21
17.964532
0
LINE
8
Layer 4
10
55.480910
20
17.964532
11
56.028511
21
17.567945
0
LINE
8
Layer 4
10
56.028511
20
17.567945
11
56.649510
21
17.319871
0
LINE
8
Layer 4
10
56.649510
20
17.319871
11
58.049724
21
17.259765
0
LINE
8
Layer 4
10
58.049724
20
17.259765
11
59.557591
21
17.765226
0
LINE
8
Layer 4
10
59.557591
20
17.765226
11
61.049150
21
18.817266
0
LINE
8
Layer 4
10
61.049150
20
18.817266
11
61.723590
21
19.321791
0
LINE
8
Layer 4
10
61.723590
20
19.321791
11
61.899446
21
19.316578
0
LINE
8
Layer 4
10
61.899446
20
19.316578
11
62.008056
21
19.153872
0
LINE
8
Layer 4
10
62.008056
20
19.153872
11
62.375941
21
18.531704
0
LINE
8
Layer 4
10
62.375941
20
18.531704
11
62.953498
21
17.983565
0
LINE
8
Layer 4
10
62.953498
20
17.983565
11
63.628866
21
17.593239
0
LINE
8
Layer 4
10
63.628866
20
17.593239
11
64.290186
21
17.444512
0
LINE
8
Layer 4
10
64.290186
20
17.444512
11
65.069296
21
17.653435
0
LINE
8
Layer 4
10
65.069296
20
17.653435
11
65.808663
21
18.272621
0
LINE
8
Layer 4
10
65.808663
20
18.272621
11
66.498370
21
19.290692
0
LINE
8
Layer 4
10
66.498370
20
19.290692
11
67.128496
21
20.696272
0
LINE
8
Layer 4
10
67.128496
20
20.696272
11
67.634452
21
22.327197
0
LINE
8
Layer 4
10
67.634452
20
22.327197
11
67.683478
21
23.186422
0
LINE
8
Layer 4
10
67.683478
20
23.186422
11
67.546146
21
23.301569
0
LINE
8
Layer 4
10
67.546146
20
23.301569
11
67.305986
21
23.193699
0
LINE
8
Layer 4
10
67.305986
20
23.193699
11
66.532387
21
22.268782
0
LINE
8
Layer 4
10
66.532387
20
22.268782
11
65.891436
21
21.432786
0
LINE
8
Layer 4
10
65.891436
20
21.432786
11
65.350035
21
20.983354
0
LINE
8
Layer 4
10
65.350035
20
20.983354
11
64.874130
21
20.902739
0
LINE
8
Layer 4
10
64.874130
20
20.902739
11
64.429667
21
21.173192
0
LINE
8
Layer 4
10
64.429667
20
21.173192
11
64.072945
21
21.874472
0
LINE
8
Layer 4
10
64.072945
20
21.874472
11
64.003621
21
23.033172
0
LINE
8
Layer 4
10
64.003621
20
23.033172
11
64.225947
21
24.728589
0
LINE
8
Layer 4
10
64.225947
20
24.728589
11
64.744175
21
27.040022
0
LINE
8
Layer 4
10
64.744175
20
27.040022
11
66.941819
21
34.324637
0
LINE
8
Layer 4
10
66.941819
20
34.324637
11
68.080083
21
37.485006
0
LINE
8
Layer 4
10
68.080083
20
37.485006
11
68.866305
21
39.207422
0
LINE
8
Layer 4
10
68.866305
20
39.207422
11
69.221756
21
39.834057
0
LINE
8
Layer 4
10
69.221756
20
39.834057
11
69.242683
21
40.262533
0
LINE
8
Layer 4
10
69.242683
20
40.262533
11
68.922224
21
40.508294
0
LINE
8
Layer 4
10
68.922224
20
40.508294
11
68.253516
21
40.586782
0
LINE
8
Layer 4
10
68.253516
20
40.586782
11
67.262891
21
40.464528
0
LINE
8
Layer 4
10
67.262891
20
40.464528
11
66.370860
21
40.128433
0
LINE
8
Layer 4
10
66.370860
20
40.128433
11
65.664932
21
39.624497
0
LINE
8
Layer 4
10
65.664932
20
39.624497
11
65.232616
21
38.998722
0
LINE
8
Layer 4
10
65.232616
20
38.998722
11
62.601606
21
30.270722
0
LINE
8
Layer 4
10
62.601606
20
30.270722
11
62.286900
21
29.020932
0
LINE
8
Layer 4
10
62.286900
20
29.020932
11
61.480253
21
29.699676
0
LINE
8
Layer 4
10
61.480253
20
29.699676
11
60.503159
21
30.367484
0
LINE
8
Layer 4
10
60.503159
20
30.367484
11
59.520939
21
30.743397
0
LINE
8
Layer 4
10
59.520939
20
30.743397
11
58.549276
21
30.832993
0
LINE
8
Layer 4
10
58.549276
20
30.832993
11
57.603850
21
30.641847
0
LINE
8
Layer 4
10
57.603850
20
30.641847
11
56.700346
21
30.175536
0
LINE
8
Layer 4
10
56.700346
20
30.175536
11
55.854443
21
29.439636
0
LINE
8
Layer 4
10
55.854443
20
29.439636
11
55.081825
21
28.439724
0
LINE
8
Layer 4
10
55.081825
20
28.439724
11
54.398173
21
27.181376
0
LINE
8
Layer 4
10
54.398173
20
27.181376
11
53.872319
21
25.500121
0
LINE
8
Layer 4
10
53.872319
20
25.500121
11
53.705092
21
23.009286
0
LINE
8
Layer 4
10
53.705092
20
23.009286
11
53.616238
21
21.194671
0
LINE
8
Layer 4
10
53.616238
20
21.194671
11
53.393955
21
20.084481
0
LINE
8
Layer 4
10
53.393955
20
20.084481
11
52.990562
21
19.553620
0
LINE
8
Layer 4
10
52.990562
20
19.553620
11
52.358382
21
19.476996
0
LINE
8
Layer 4
10
52.358382
20
19.476996
11
52.041081
21
19.618912
0
LINE
8
Layer 4
10
52.041081
20
19.618912
11
51.818899
21
19.934326
0
LINE
8
Layer 4
10
51.818899
20
19.934326
11
51.659137
21
21.049323
0
LINE
8
Layer 4
10
51.659137
20
21.049323
11
51.877585
21
22.749331
0
LINE
8
Layer 4
10
51.877585
20
22.749331
11
52.472730
21
24.961696
0
LINE
8
Layer 4
10
52.472730
20
24.961696
11
53.048187
21
27.001790
0
LINE
8
Layer 4
10
53.048187
20
27.001790
11
53.202979
21
28.070656
0
LINE
8
Layer 4
10
53.202979
20
28.070656
11
52.536493
21
28.777888
0
LINE
8
Layer 4
10
52.536493
20
28.777888
11
51.430389
21
29.333046
0
LINE
8
Layer 4
10
51.430389
20
29.333046
11
50.393547
21
29.552242
0
LINE
8
Layer 4
10
50.393547
20
29.552242
11
50.060125
21
29.478388
0
LINE
8
Layer 4
10
50.060125
20
29.478388
11
49.934849
21
29.251586
0
LINE
8
Layer 4
10
49.934849
20
29.251586
11
49.205861
21
27.532208
0
LINE
8
Layer 4
10
49.205861
20
27.532208
11
47.576179
21
24.376819
0
LINE
8
Layer 4
10
47.576179
20
24.376819
11
45.881727
21
21.342053
0
LINE
8
Layer 4
10
45.881727
20
21.342053
11
44.958429
21
19.984546
0
LINE
8
Layer 4
10
44.958429
20
19.984546
11
45.064623
21
20.955423
0
LINE
8
Layer 4
10
45.064623
20
20.955423
11
45.983739
21
24.358986
0
LINE
8
Layer 4
10
45.983739
20
24.358986
11
46.702966
21
26.933713
0
LINE
8
Layer 4
10
46.702966
20
26.933713
11
46.969284
21
28.304377
0
LINE
8
Layer 4
10
46.969284
20
28.304377
11
46.811206
21
29.020675
0
LINE
8
Layer 4
10
46.811206
20
29.020675
11
46.257246
21
29.632306
0
LINE
8
Layer 4
10
46.257246
20
29.632306
11
45.560850
21
30.187790
0
LINE
8
Layer 4
10
45.560850
20
30.187790
11
45.136236
21
30.254239
0
LINE
8
Layer 4
10
45.136236
20
30.254239
11
43.893476
21
25.944429
0
LINE
8
Layer 4
10
43.893476
20
25.944429
11
43.243714
21
23.507223
0
LINE
8
Layer 4
10
43.243714
20
23.507223
11
42.681142
21
21.931655
0
LINE
8
Layer 4
10
42.681142
20
21.931655
11
42.145250
21
21.084219
0
LINE
8
Layer 4
10
42.145250
20
21.084219
11
41.575526
21
20.831409
0
LINE
8
Layer 4
10
41.575526
20
20.831409
11
41.206954
21
20.993201
0
LINE
8
Layer 4
10
41.206954
20
20.993201
11
40.903591
21
21.431819
0
LINE
8
Layer 4
10
40.903591
20
21.431819
11
40.698346
21
22.077124
0
LINE
8
Layer 4
10
40.698346
20
22.077124
11
40.624127
21
22.858979
0
LINE
8
Layer 4
10
40.624127
20
22.858979
11
41.329682
21
26.894189
0
LINE
8
Layer 4
10
41.329682
20
26.894189
11
42.032669
21
30.167399
0
LINE
8
Layer 4
10
42.032669
20
30.167399
11
41.681151
21
30.444874
0
LINE
8
Layer 4
10
41.681151
20
30.444874
11
40.898324
21
30.782691
0
LINE
8
Layer 4
10
40.898324
20
30.782691
11
40.091774
21
31.030638
0
LINE
8
Layer 4
10
40.091774
20
31.030638
11
39.669089
21
31.038505
0
LINE
8
Layer 4
10
39.669089
20
31.038505
11
39.356641
21
29.907275
0
LINE
8
Layer 4
10
39.356641
20
29.907275
11
39.154234
21
28.964174
0
LINE
8
Layer 4
10
39.154234
20
28.964174
11
38.398218
21
29.688469
0
LINE
8
Layer 4
10
38.398218
20
29.688469
11
37.475818
21
30.413871
0
LINE
8
Layer 4
10
37.475818
20
30.413871
11
36.578324
21
30.787420
0
LINE
8
Layer 4
10
36.578324
20
30.787420
11
35.682588
21
30.814292
0
LINE
8
Layer 4
10
35.682588
20
30.814292
11
34.765458
21
30.499660
0
LINE
8
Layer 4
10
34.765458
20
30.499660
11
34.116543
21
30.074253
0
LINE
8
Layer 4
10
34.116543
20
30.074253
11
33.534590
21
29.514997
0
LINE
8
Layer 4
10
33.534590
20
29.514997
11
32.578995
21
28.067224
0
LINE
8
Layer 4
10
32.578995
20
28.067224
11
31.913516
21
26.300925
0
LINE
8
Layer 4
10
31.913516
20
26.300925
11
31.552997
21
24.360684
0
LINE
8
Layer 4
10
31.552997
20
24.360684
11
31.512281
21
22.391083
0
LINE
8
Layer 4
10
31.512281
20
22.391083
11
31.806212
21
20.536706
0
LINE
8
Layer 4
10
31.806212
20
20.536706
11
32.449633
21
18.942137
0
LINE
8
Layer 4
10
32.449633
20
18.942137
11
32.907041
21
18.287463
0
LINE
8
Layer 4
10
32.907041
20
18.287463
11
33.457388
21
17.751960
0
LINE
8
Layer 4
10
33.457388
20
17.751960
11
34.502390
21
17.238983
0
LINE
8
Layer 4
10
34.502390
20
17.238983
11
35.634200
21
17.245747
0
LINE
8
Layer 4
10
35.634200
20
17.245747
11
36.808397
21
17.762177
0
LINE
8
Layer 4
10
36.808397
20
17.762177
11
37.980558
21
18.778200
0
LINE
8
Layer 4
10
37.980558
20
18.778200
11
38.681266
21
19.428397
0
LINE
8
Layer 4
10
38.681266
20
19.428397
11
38.865271
21
19.491074
0
LINE
8
Layer 4
10
38.865271
20
19.491074
11
38.928288
21
19.372475
0
LINE
8
Layer 4
10
38.928288
20
19.372475
11
39.117748
21
18.714888
0
LINE
8
Layer 4
10
39.117748
20
18.714888
11
39.600369
21
18.091854
0
LINE
8
Layer 4
10
39.600369
20
18.091854
11
40.247512
21
17.627215
0
LINE
8
Layer 4
10
40.247512
20
17.627215
11
40.930538
21
17.444815
0
LINE
8
Layer 4
10
40.930538
20
17.444815
11
41.382149
21
17.498182
0
LINE
8
Layer 4
10
41.382149
20
17.498182
11
41.761449
21
17.695488
0
LINE
8
Layer 4
10
41.761449
20
17.695488
11
42.587578
21
18.745155
0
LINE
8
Layer 4
10
42.587578
20
18.745155
11
43.412231
21
20.045495
0
LINE
8
Layer 4
10
43.412231
20
20.045495
11
43.498588
21
18.544975
0
LINE
8
Layer 4
10
43.498588
20
18.544975
11
43.688720
21
17.264996
0
LINE
8
Layer 4
10
43.688720
20
17.264996
11
43.913683
21
17.005177
0
LINE
8
Layer 4
10
43.913683
20
17.005177
11
44.290503
21
16.859945
0
LINE
8
Layer 4
10
44.290503
20
16.859945
11
45.075649
21
16.838430
0
LINE
8
Layer 4
10
45.075649
20
16.838430
11
45.809377
21
17.338657
0
LINE
8
Layer 4
10
45.809377
20
17.338657
11
46.649596
21
18.530365
0
LINE
8
Layer 4
10
46.649596
20
18.530365
11
47.754213
21
20.583295
0
LINE
8
Layer 4
10
47.754213
20
20.583295
11
47.753950
21
20.582930
0
LINE
8
Layer 4
10
27.587250
20
17.373780
11
28.235067
21
18.125300
0
LINE
8
Layer 4
10
28.235067
20
18.125300
11
28.793299
21
19.122252
0
LINE
8
Layer 4
10
28.793299
20
19.122252
11
29.184806
21
20.196409
0
LINE
8
Layer 4
10
29.184806
20
20.196409
11
29.332450
21
21.179540
0
LINE
8
Layer 4
10
29.332450
20
21.179540
11
29.173119
21
22.242050
0
LINE
8
Layer 4
10
29.173119
20
22.242050
11
28.301363
21
21.395384
0
LINE
8
Layer 4
10
28.301363
20
21.395384
11
27.399175
21
20.656692
0
LINE
8
Layer 4
10
27.399175
20
20.656692
11
26.999657
21
20.570594
0
LINE
8
Layer 4
10
26.999657
20
20.570594
11
26.648788
21
20.665247
0
LINE
8
Layer 4
10
26.648788
20
20.665247
11
26.357267
21
20.934588
0
LINE
8
Layer 4
10
26.357267
20
20.934588
11
26.135791
21
21.372555
0
LINE
8
Layer 4
10
26.135791
20
21.372555
11
25.945773
21
22.730124
0
LINE
8
Layer 4
10
25.945773
20
22.730124
11
26.492372
21
25.981298
0
LINE
8
Layer 4
10
26.492372
20
25.981298
11
27.798457
21
31.051729
0
LINE
8
Layer 4
10
27.798457
20
31.051729
11
29.363463
21
36.165757
0
LINE
8
Layer 4
10
29.363463
20
36.165757
11
30.686823
21
39.547724
0
LINE
8
Layer 4
10
30.686823
20
39.547724
11
31.210041
21
40.707891
0
LINE
8
Layer 4
10
31.210041
20
40.707891
11
31.192568
21
40.987834
0
LINE
8
Layer 4
10
31.192568
20
40.987834
11
31.010673
21
41.176484
0
LINE
8
Layer 4
10
31.010673
20
41.176484
11
30.447009
21
41.318780
0
LINE
8
Layer 4
10
30.447009
20
41.318780
11
29.634070
21
41.269179
0
LINE
8
Layer 4
10
29.634070
20
41.269179
11
28.758510
21
41.056658
0
LINE
8
Layer 4
10
28.758510
20
41.056658
11
28.006983
21
40.710197
0
LINE
8
Layer 4
10
28.006983
20
40.710197
11
27.536469
21
40.082734
0
LINE
8
Layer 4
10
27.536469
20
40.082734
11
26.960926
21
38.816116
0
LINE
8
Layer 4
10
26.960926
20
38.816116
11
25.662548
21
34.938906
0
LINE
8
Layer 4
10
25.662548
20
34.938906
11
24.447435
21
30.225542
0
LINE
8
Layer 4
10
24.447435
20
30.225542
11
23.651173
21
25.822997
0
LINE
8
Layer 4
10
23.651173
20
25.822997
11
23.333647
21
23.891887
0
LINE
8
Layer 4
10
23.333647
20
23.891887
11
23.042081
21
23.088687
0
LINE
8
Layer 4
10
23.042081
20
23.088687
11
22.906052
21
23.405823
0
LINE
8
Layer 4
10
22.906052
20
23.405823
11
23.014226
21
24.288127
0
LINE
8
Layer 4
10
23.014226
20
24.288127
11
23.257118
21
27.519567
0
LINE
8
Layer 4
10
23.257118
20
27.519567
11
23.134141
21
29.191344
0
LINE
8
Layer 4
10
23.134141
20
29.191344
11
22.733719
21
30.309284
0
LINE
8
Layer 4
10
22.733719
20
30.309284
11
22.001949
21
30.957488
0
LINE
8
Layer 4
10
22.001949
20
30.957488
11
20.884928
21
31.220057
0
LINE
8
Layer 4
10
20.884928
20
31.220057
11
19.830200
21
31.166563
0
LINE
8
Layer 4
10
19.830200
20
31.166563
11
19.018088
21
30.867280
0
LINE
8
Layer 4
10
19.018088
20
30.867280
11
18.295661
21
30.556044
0
LINE
8
Layer 4
10
18.295661
20
30.556044
11
17.503258
21
30.426590
0
LINE
8
Layer 4
10
17.503258
20
30.426590
11
16.885513
21
30.275709
0
LINE
8
Layer 4
10
16.885513
20
30.275709
11
16.279539
21
29.846288
0
LINE
8
Layer 4
10
16.279539
20
29.846288
11
15.703172
21
29.173160
0
LINE
8
Layer 4
10
15.703172
20
29.173160
11
15.174248
21
28.291156
0
LINE
8
Layer 4
10
15.174248
20
28.291156
11
14.330069
21
26.039854
0
LINE
8
Layer 4
10
14.330069
20
26.039854
11
13.889688
21
23.371040
0
LINE
8
Layer 4
10
13.889688
20
23.371040
11
13.962876
21
20.719861
0
LINE
8
Layer 4
10
13.962876
20
20.719861
11
14.203501
21
19.655427
0
LINE
8
Layer 4
10
14.203501
20
19.655427
11
14.576136
21
18.772341
0
LINE
8
Layer 4
10
14.576136
20
18.772341
11
15.077771
21
18.076038
0
LINE
8
Layer 4
10
15.077771
20
18.076038
11
15.705397
21
17.571950
0
LINE
8
Layer 4
10
15.705397
20
17.571950
11
16.456006
21
17.265513
0
LINE
8
Layer 4
10
16.456006
20
17.265513
11
17.326588
21
17.162160
0
LINE
8
Layer 4
10
17.326588
20
17.162160
11
18.086167
21
17.205460
0
LINE
8
Layer 4
10
18.086167
20
17.205460
11
18.696620
21
17.420877
0
LINE
8
Layer 4
10
18.696620
20
17.420877
11
20.382208
21
18.881170
0
LINE
8
Layer 4
10
20.382208
20
18.881170
11
21.801847
21
20.166521
0
LINE
8
Layer 4
10
21.801847
20
20.166521
11
22.752648
21
20.842870
0
LINE
8
Layer 4
10
22.752648
20
20.842870
11
23.097084
21
20.932189
0
LINE
8
Layer 4
10
23.097084
20
20.932189
11
23.343931
21
20.822203
0
LINE
8
Layer 4
10
23.343931
20
20.822203
11
23.828368
21
19.704250
0
LINE
8
Layer 4
10
23.828368
20
19.704250
11
24.586692
21
18.051899
0
LINE
8
Layer 4
10
24.586692
20
18.051899
11
25.504488
21
17.088825
0
LINE
8
Layer 4
10
25.504488
20
17.088825
11
26.005124
21
16.876961
0
LINE
8
Layer 4
10
26.005124
20
16.876961
11
26.523951
21
16.850851
0
LINE
8
Layer 4
10
26.523951
20
16.850851
11
27.053744
21
17.014971
0
LINE
8
Layer 4
10
27.053744
20
17.014971
11
27.587278
21
17.373800
0
LINE
8
Layer 4
10
27.587278
20
17.373800
11
27.587250
21
17.373780
0
LINE
8
Layer 4
10
97.911350
20
20.831000
11
98.616905
21
21.382885
0
LINE
8
Layer 4
10
98.616905
20
21.382885
11
97.862497
21
21.389150
0
LINE
8
Layer 4
10
97.862497
20
21.389150
11
97.064549
21
21.638529
0
LINE
8
Layer 4
10
97.064549
20
21.638529
11
96.190527
21
22.312637
0
LINE
8
Layer 4
10
96.190527
20
22.312637
11
95.272939
21
23.229859
0
LINE
8
Layer 4
10
95.272939
20
23.229859
11
95.466600
21
22.260596
0
LINE
8
Layer 4
10
95.466600
20
22.260596
11
95.702568
21
21.518396
0
LINE
8
Layer 4
10
95.702568
20
21.518396
11
96.062247
21
20.880394
0
LINE
8
Layer 4
10
96.062247
20
20.880394
11
96.481643
21
20.435543
0
LINE
8
Layer 4
10
96.481643
20
20.435543
11
96.896760
21
20.272796
0
LINE
8
Layer 4
10
96.896760
20
20.272796
11
97.911350
21
20.830975
0
LINE
8
Layer 4
10
97.911350
20
20.830975
11
97.911350
21
20.831000
0
LINE
8
Layer 4
10
29.672800
20
26.195800
11
30.095421
21
27.692568
0
LINE
8
Layer 4
10
30.095421
20
27.692568
11
30.812323
21
29.300105
0
LINE
8
Layer 4
10
30.812323
20
29.300105
11
31.689219
21
30.759967
0
LINE
8
Layer 4
10
31.689219
20
30.759967
11
32.591820
21
31.813710
0
LINE
8
Layer 4
10
32.591820
20
31.813710
11
33.306300
21
32.531686
0
LINE
8
Layer 4
10
33.306300
20
32.531686
11
33.267729
21
32.654429
0
LINE
8
Layer 4
10
33.267729
20
32.654429
11
32.995341
21
32.684534
0
LINE
8
Layer 4
10
32.995341
20
32.684534
11
31.616631
21
33.093276
0
LINE
8
Layer 4
10
31.616631
20
33.093276
11
30.826184
21
33.502018
0
LINE
8
Layer 4
10
30.826184
20
33.502018
11
30.321656
21
31.752718
0
LINE
8
Layer 4
10
30.321656
20
31.752718
11
29.180176
21
27.377998
0
LINE
8
Layer 4
10
29.180176
20
27.377998
11
28.726649
21
25.207480
0
LINE
8
Layer 4
10
28.726649
20
25.207480
11
28.778059
21
24.876850
0
LINE
8
Layer 4
10
28.778059
20
24.876850
11
29.000090
21
24.840428
0
LINE
8
Layer 4
10
29.000090
20
24.840428
11
29.395352
21
25.229768
0
LINE
8
Layer 4
10
29.395352
20
25.229768
11
29.672738
21
26.195968
0
LINE
8
Layer 4
10
29.672738
20
26.195968
11
29.672800
21
26.195800
0
LINE
8
Layer 4
10
68.808500
20
26.687261
11
70.181680
21
32.556631
0
LINE
8
Layer 4
10
70.181680
20
32.556631
11
69.512447
21
32.798380
0
LINE
8
Layer 4
10
69.512447
20
32.798380
11
69.016682
21
32.825610
0
LINE
8
Layer 4
10
69.016682
20
32.825610
11
68.768228
21
32.480654
0
LINE
8
Layer 4
10
68.768228
20
32.480654
11
67.745458
21
28.983924
0
LINE
8
Layer 4
10
67.745458
20
28.983924
11
66.866929
21
25.808924
0
LINE
8
Layer 4
10
66.866929
20
25.808924
11
67.702701
21
25.628734
0
LINE
8
Layer 4
10
67.702701
20
25.628734
11
68.150160
21
25.664170
0
LINE
8
Layer 4
10
68.150160
20
25.664170
11
68.440831
21
25.811425
0
LINE
8
Layer 4
10
68.440831
20
25.811425
11
68.808501
21
26.687064
0
LINE
8
Layer 4
10
68.808501
20
26.687064
11
68.808500
21
26.687261
0
LINE
8
Layer 4
10
23.353800
20
34.448361
11
23.655072
21
35.647801
0
LINE
8
Layer 4
10
23.655072
20
35.647801
11
22.847748
21
34.664709
0
LINE
8
Layer 4
10
22.847748
20
34.664709
11
22.200121
21
33.586853
0
LINE
8
Layer 4
10
22.200121
20
33.586853
11
22.299900
21
33.331401
0
LINE
8
Layer 4
10
22.299900
20
33.331401
11
22.680179
21
33.248919
0
LINE
8
Layer 4
10
22.680179
20
33.248919
11
23.031649
21
33.601255
0
LINE
8
Layer 4
10
23.031649
20
33.601255
11
23.353815
21
34.448359
0
LINE
8
Layer 4
10
23.353815
20
34.448359
11
23.353800
21
34.448361
0
LINE
8
Layer 4
10
33.155370
20
34.966831
11
33.197030
21
35.275774
0
LINE
8
Layer 4
10
33.197030
20
35.275774
11
33.030916
21
35.587719
0
LINE
8
Layer 4
10
33.030916
20
35.587719
11
32.809095
21
36.127480
0
LINE
8
Layer 4
10
32.809095
20
36.127480
11
32.716831
21
36.984149
0
LINE
8
Layer 4
10
32.716831
20
36.984149
11
32.804813
21
37.853851
0
LINE
8
Layer 4
10
32.804813
20
37.853851
11
32.977561
21
37.898714
0
LINE
8
Layer 4
10
32.977561
20
37.898714
11
33.291943
21
37.758736
0
LINE
8
Layer 4
10
33.291943
20
37.758736
11
33.745023
21
37.596244
0
LINE
8
Layer 4
10
33.745023
20
37.596244
11
34.176077
21
37.590468
0
LINE
8
Layer 4
10
34.176077
20
37.590468
11
34.914259
21
37.989674
0
LINE
8
Layer 4
10
34.914259
20
37.989674
11
35.390806
21
38.837587
0
LINE
8
Layer 4
10
35.390806
20
38.837587
11
35.490033
21
40.015436
0
LINE
8
Layer 4
10
35.490033
20
40.015436
11
35.235134
21
40.921964
0
LINE
8
Layer 4
10
35.235134
20
40.921964
11
34.753491
21
41.343941
0
LINE
8
Layer 4
10
34.753491
20
41.343941
11
34.125292
21
41.341741
0
LINE
8
Layer 4
10
34.125292
20
41.341741
11
33.430724
21
40.975738
0
LINE
8
Layer 4
10
33.430724
20
40.975738
11
32.749978
21
40.306307
0
LINE
8
Layer 4
10
32.749978
20
40.306307
11
32.163240
21
39.393820
0
LINE
8
Layer 4
10
32.163240
20
39.393820
11
31.750699
21
38.298652
0
LINE
8
Layer 4
10
31.750699
20
38.298652
11
31.592543
21
37.081176
0
LINE
8
Layer 4
10
31.592543
20
37.081176
11
31.752189
21
35.889534
0
LINE
8
Layer 4
10
31.752189
20
35.889534
11
32.152835
21
35.022267
0
LINE
8
Layer 4
10
32.152835
20
35.022267
11
32.664031
21
34.655883
0
LINE
8
Layer 4
10
32.664031
20
34.655883
11
32.920318
21
34.715679
0
LINE
8
Layer 4
10
32.920318
20
34.715679
11
33.155323
21
34.966886
0
LINE
8
Layer 4
10
33.155323
20
34.966886
11
33.155370
21
34.966831
0
LINE
8
Layer 4
10
71.167870
20
35.010276
11
71.140029
21
35.367932
0
LINE
8
Layer 4
10
71.140029
20
35.367932
11
70.909157
21
35.735982
0
LINE
8
Layer 4
10
70.909157
20
35.735982
11
70.669508
21
36.185739
0
LINE
8
Layer 4
10
70.669508
20
36.185739
11
70.546276
21
36.820017
0
LINE
8
Layer 4
10
70.546276
20
36.820017
11
70.557050
21
37.442304
0
LINE
8
Layer 4
10
70.557050
20
37.442304
11
70.719419
21
37.856092
0
LINE
8
Layer 4
10
70.719419
20
37.856092
11
70.957847
21
37.898211
0
LINE
8
Layer 4
10
70.957847
20
37.898211
11
71.270316
21
37.738702
0
LINE
8
Layer 4
10
71.270316
20
37.738702
11
71.680637
21
37.547248
0
LINE
8
Layer 4
10
71.680637
20
37.547248
11
72.112730
21
37.590285
0
LINE
8
Layer 4
10
72.112730
20
37.590285
11
72.913362
21
38.213153
0
LINE
8
Layer 4
10
72.913362
20
38.213153
11
73.414469
21
39.273949
0
LINE
8
Layer 4
10
73.414469
20
39.273949
11
73.472155
21
39.864395
0
LINE
8
Layer 4
10
73.472155
20
39.864395
11
73.358306
21
40.439312
0
LINE
8
Layer 4
10
73.358306
20
40.439312
11
73.037079
21
41.024556
0
LINE
8
Layer 4
10
73.037079
20
41.024556
11
72.619233
21
41.303415
0
LINE
8
Layer 4
10
72.619233
20
41.303415
11
72.078594
21
41.282951
0
LINE
8
Layer 4
10
72.078594
20
41.282951
11
71.388986
21
40.970228
0
LINE
8
Layer 4
10
71.388986
20
40.970228
11
70.801397
21
40.501801
0
LINE
8
Layer 4
10
70.801397
20
40.501801
11
70.300545
21
39.868697
0
LINE
8
Layer 4
10
70.300545
20
39.868697
11
69.610997
21
38.299567
0
LINE
8
Layer 4
10
69.610997
20
38.299567
11
69.424237
21
36.645063
0
LINE
8
Layer 4
10
69.424237
20
36.645063
11
69.551868
21
35.905241
0
LINE
8
Layer 4
10
69.551868
20
35.905241
11
69.844156
21
35.287408
0
LINE
8
Layer 4
10
69.844156
20
35.287408
11
70.228630
21
34.876542
0
LINE
8
Layer 4
10
70.228630
20
34.876542
11
70.618159
21
34.684895
0
LINE
8
Layer 4
10
70.618159
20
34.684895
11
70.951615
21
34.725260
0
LINE
8
Layer 4
10
70.951615
20
34.725260
11
71.167866
21
35.010427
0
LINE
8
Layer 4
10
71.167866
20
35.010427
11
71.167870
21
35.010276
0
LINE
8
Layer 4
10
79.976300
20
36.448706
11
80.408493
21
37.407861
0
LINE
8
Layer 4
10
80.408493
20
37.407861
11
80.660255
21
38.387890
0
LINE
8
Layer 4
10
80.660255
20
38.387890
11
80.692734
21
39.150589
0
LINE
8
Layer 4
10
80.692734
20
39.150589
11
80.467084
21
39.457756
0
LINE
8
Layer 4
10
80.467084
20
39.457756
11
79.660607
21
37.638518
0
LINE
8
Layer 4
10
79.660607
20
37.638518
11
79.000434
21
35.416056
0
LINE
8
Layer 4
10
79.000434
20
35.416056
11
79.057770
21
35.230015
0
LINE
8
Layer 4
10
79.057770
20
35.230015
11
79.234653
21
35.334946
0
LINE
8
Layer 4
10
79.234653
20
35.334946
11
79.976301
21
36.448646
0
LINE
8
Layer 4
10
79.976301
20
36.448646
11
79.976300
21
36.448706
0
LINE
8
Layer 4
10
18.739800
20
40.008086
11
19.170386
21
41.278086
0
LINE
8
Layer 4
10
19.170386
20
41.278086
11
19.090586
21
41.649678
0
LINE
8
Layer 4
10
19.090586
20
41.649678
11
18.900222
21
41.692953
0
LINE
8
Layer 4
10
18.900222
20
41.692953
11
18.672848
21
41.444107
0
LINE
8
Layer 4
10
18.672848
20
41.444107
11
18.482018
21
40.939335
0
LINE
8
Layer 4
10
18.482018
20
40.939335
11
18.150181
21
39.669335
0
LINE
8
Layer 4
10
18.150181
20
39.669335
11
18.078334
21
39.265760
0
LINE
8
Layer 4
10
18.078334
20
39.265760
11
18.180771
21
39.203849
0
LINE
8
Layer 4
10
18.180771
20
39.203849
11
18.739799
21
40.008086
0
LINE
8
Layer 4
10
18.739799
20
40.008086
11
18.739800
21
40.008086
0
LINE
8
Layer 5
10
87.206600
20
29.437800
11
86.980602
21
29.392049
0
LINE
8
Layer 5
10
86.980602
20
29.392049
11
86.466041
21
29.025660
0
LINE
8
Layer 5
10
86.466041
20
29.025660
11
86.086331
21
28.415893
0
LINE
8
Layer 5
10
86.086331
20
28.415893
11
85.843744
21
27.627743
0
LINE
8
Layer 5
10
85.843744
20
27.627743
11
85.740557
21
26.726210
0
LINE
8
Layer 5
10
85.740557
20
26.726210
11
85.961476
21
24.842979
0
LINE
8
Layer 5
10
85.961476
20
24.842979
11
86.290131
21
23.991276
0
LINE
8
Layer 5
10
86.290131
20
23.991276
11
86.767282
21
23.286179
0
LINE
8
Layer 5
10
86.767282
20
23.286179
11
87.256043
21
22.957572
0
LINE
8
Layer 5
10
87.256043
20
22.957572
11
87.584514
21
23.269853
0
LINE
8
Layer 5
10
87.584514
20
23.269853
11
87.769369
21
24.265809
0
LINE
8
Layer 5
10
87.769369
20
24.265809
11
87.827282
21
25.988229
0
LINE
8
Layer 5
10
87.827282
20
25.988229
11
87.696369
21
28.664164
0
LINE
8
Layer 5
10
87.696369
20
28.664164
11
87.505443
21
29.252012
0
LINE
8
Layer 5
10
87.505443
20
29.252012
11
87.206619
21
29.437829
0
LINE
8
Layer 5
10
87.206619
20
29.437829
11
87.206600
21
29.437800
0
LINE
8
Layer 5
10
20.368000
20
29.242700
11
19.981669
21
29.125853
0
LINE
8
Layer 5
10
19.981669
20
29.125853
11
19.501494
21
28.694794
0
LINE
8
Layer 5
10
19.501494
20
28.694794
11
19.053975
21
27.706497
0
LINE
8
Layer 5
10
19.053975
20
27.706497
11
18.930352
21
26.321378
0
LINE
8
Layer 5
10
18.930352
20
26.321378
11
19.122478
21
24.877097
0
LINE
8
Layer 5
10
19.122478
20
24.877097
11
19.622209
21
23.711314
0
LINE
8
Layer 5
10
19.622209
20
23.711314
11
20.502516
21
22.798495
0
LINE
8
Layer 5
10
20.502516
20
22.798495
11
20.742650
21
23.001154
0
LINE
8
Layer 5
10
20.742650
20
23.001154
11
20.922325
21
23.588802
0
LINE
8
Layer 5
10
20.922325
20
23.588802
11
21.076894
21
25.797105
0
LINE
8
Layer 5
10
21.076894
20
25.797105
11
20.911995
21
28.349452
0
LINE
8
Layer 5
10
20.911995
20
28.349452
11
20.690588
21
28.997584
0
LINE
8
Layer 5
10
20.690588
20
28.997584
11
20.368037
21
29.242755
0
LINE
8
Layer 5
10
20.368037
20
29.242755
11
20.368000
21
29.242700
0
LINE
8
Layer 5
10
58.851800
20
28.679357
11
58.183617
21
28.348525
0
LINE
8
Layer 5
10
58.183617
20
28.348525
11
57.570704
21
27.582198
0
LINE
8
Layer 5
10
57.570704
20
27.582198
11
57.048703
21
26.500339
0
LINE
8
Layer 5
10
57.048703
20
26.500339
11
56.653256
21
25.222910
0
LINE
8
Layer 5
10
56.653256
20
25.222910
11
56.420007
21
23.869873
0
LINE
8
Layer 5
10
56.420007
20
23.869873
11
56.384598
21
22.561188
0
LINE
8
Layer 5
10
56.384598
20
22.561188
11
56.582671
21
21.416819
0
LINE
8
Layer 5
10
56.582671
20
21.416819
11
57.049870
21
20.556727
0
LINE
8
Layer 5
10
57.049870
20
20.556727
11
57.482407
21
20.195581
0
LINE
8
Layer 5
10
57.482407
20
20.195581
11
57.939508
21
20.031116
0
LINE
8
Layer 5
10
57.939508
20
20.031116
11
58.412720
21
20.057992
0
LINE
8
Layer 5
10
58.412720
20
20.057992
11
58.893594
21
20.270873
0
LINE
8
Layer 5
10
58.893594
20
20.270873
11
59.844520
21
21.233298
0
LINE
8
Layer 5
10
59.844520
20
21.233298
11
60.724680
21
22.875687
0
LINE
8
Layer 5
10
60.724680
20
22.875687
11
61.114418
21
24.507548
0
LINE
8
Layer 5
10
61.114418
20
24.507548
11
60.997317
21
26.124290
0
LINE
8
Layer 5
10
60.997317
20
26.124290
11
60.417996
21
27.532355
0
LINE
8
Layer 5
10
60.417996
20
27.532355
11
59.968945
21
28.097647
0
LINE
8
Layer 5
10
59.968945
20
28.097647
11
59.421070
21
28.538187
0
LINE
8
Layer 5
10
59.421070
20
28.538187
11
58.851659
21
28.679298
0
LINE
8
Layer 5
10
58.851659
20
28.679298
11
58.851800
21
28.679357
0
LINE
8
Layer 5
10
36.083800
20
28.671088
11
35.943242
21
28.640772
0
LINE
8
Layer 5
10
35.943242
20
28.640772
11
35.334227
21
28.187951
0
LINE
8
Layer 5
10
35.334227
20
28.187951
11
34.815565
21
27.389933
0
LINE
8
Layer 5
10
34.815565
20
27.389933
11
34.403804
21
26.340619
0
LINE
8
Layer 5
10
34.403804
20
26.340619
11
34.115493
21
25.133916
0
LINE
8
Layer 5
10
34.115493
20
25.133916
11
33.967182
21
23.863725
0
LINE
8
Layer 5
10
33.967182
20
23.863725
11
33.975419
21
22.623952
0
LINE
8
Layer 5
10
33.975419
20
22.623952
11
34.156752
21
21.508499
0
LINE
8
Layer 5
10
34.156752
20
21.508499
11
34.527732
21
20.611272
0
LINE
8
Layer 5
10
34.527732
20
20.611272
11
34.993399
21
20.123235
0
LINE
8
Layer 5
10
34.993399
20
20.123235
11
35.531071
21
20.018986
0
LINE
8
Layer 5
10
35.531071
20
20.018986
11
36.123664
21
20.295907
0
LINE
8
Layer 5
10
36.123664
20
20.295907
11
36.754092
21
20.951378
0
LINE
8
Layer 5
10
36.754092
20
20.951378
11
37.435582
21
22.075513
0
LINE
8
Layer 5
10
37.435582
20
22.075513
11
37.912102
21
23.344653
0
LINE
8
Layer 5
10
37.912102
20
23.344653
11
38.152335
21
24.646373
0
LINE
8
Layer 5
10
38.152335
20
24.646373
11
38.124962
21
25.868248
0
LINE
8
Layer 5
10
38.124962
20
25.868248
11
37.821469
21
26.894029
0
LINE
8
Layer 5
10
37.821469
20
26.894029
11
37.300455
21
27.804311
0
LINE
8
Layer 5
10
37.300455
20
27.804311
11
36.681409
21
28.447292
0
LINE
8
Layer 5
10
36.681409
20
28.447292
11
36.083822
21
28.671168
0
LINE
8
Layer 5
10
36.083822
20
28.671168
11
36.083800
21
28.671088
0
LINE
8
Layer 5
10
16.633100
20
26.320148
11
16.370700
21
26.040057
0
LINE
8
Layer 5
10
16.370700
20
26.040057
11
16.121573
21
25.185758
0
LINE
8
Layer 5
10
16.121573
20
25.185758
11
16.036244
21
24.102105
0
LINE
8
Layer 5
10
16.036244
20
24.102105
11
16.143395
21
22.942400
0
LINE
8
Layer 5
10
16.143395
20
22.942400
11
16.422226
21
21.829109
0
LINE
8
Layer 5
10
16.422226
20
21.829109
11
16.851935
21
20.884698
0
LINE
8
Layer 5
10
16.851935
20
20.884698
11
17.373985
21
20.284826
0
LINE
8
Layer 5
10
17.373985
20
20.284826
11
17.977017
21
19.992388
0
LINE
8
Layer 5
10
17.977017
20
19.992388
11
18.580710
21
20.024701
0
LINE
8
Layer 5
10
18.580710
20
20.024701
11
19.104745
21
20.399079
0
LINE
8
Layer 5
10
19.104745
20
20.399079
11
19.240800
21
20.658105
0
LINE
8
Layer 5
10
19.240800
20
20.658105
11
19.192922
21
20.958087
0
LINE
8
Layer 5
10
19.192922
20
20.958087
11
18.421232
21
21.965639
0
LINE
8
Layer 5
10
18.421232
20
21.965639
11
17.670150
21
22.885993
0
LINE
8
Layer 5
10
17.670150
20
22.885993
11
17.185518
21
23.721424
0
LINE
8
Layer 5
10
17.185518
20
23.721424
11
16.925453
21
24.566268
0
LINE
8
Layer 5
10
16.925453
20
24.566268
11
16.848072
21
25.514859
0
LINE
8
Layer 5
10
16.848072
20
25.514859
11
16.786872
21
26.113977
0
LINE
8
Layer 5
10
16.786872
20
26.113977
11
16.633098
21
26.320179
0
LINE
8
Layer 5
10
16.633098
20
26.320179
11
16.633100
21
26.320148
0
LINE
8
Layer 5
10
83.308000
20
26.246835
11
83.152558
21
26.043988
0
LINE
8
Layer 5
10
83.152558
20
26.043988
11
82.907473
21
24.707874
0
LINE
8
Layer 5
10
82.907473
20
24.707874
11
83.010122
21
23.103711
0
LINE
8
Layer 5
10
83.010122
20
23.103711
11
83.410401
21
21.546441
0
LINE
8
Layer 5
10
83.410401
20
21.546441
11
84.058208
21
20.351008
0
LINE
8
Layer 5
10
84.058208
20
20.351008
11
84.437034
21
20.071834
0
LINE
8
Layer 5
10
84.437034
20
20.071834
11
84.901220
21
19.993471
0
LINE
8
Layer 5
10
84.901220
20
19.993471
11
85.389557
21
20.113307
0
LINE
8
Layer 5
10
85.389557
20
20.113307
11
85.840838
21
20.428729
0
LINE
8
Layer 5
10
85.840838
20
20.428729
11
86.056527
21
20.707441
0
LINE
8
Layer 5
10
86.056527
20
20.707441
11
86.049806
21
20.998680
0
LINE
8
Layer 5
10
86.049806
20
20.998680
11
85.183233
21
22.086219
0
LINE
8
Layer 5
10
85.183233
20
22.086219
11
84.236147
21
23.388201
0
LINE
8
Layer 5
10
84.236147
20
23.388201
11
83.724713
21
24.949639
0
LINE
8
Layer 5
10
83.724713
20
24.949639
11
83.488277
21
25.927020
0
LINE
8
Layer 5
10
83.488277
20
25.927020
11
83.307984
21
26.246649
0
LINE
8
Layer 5
10
83.307984
20
26.246649
11
83.308000
21
26.246835
0
LINE
8
Layer 5
10
122.858600
20
18.141135
11
120.063920
21
17.992858
0
LINE
8
Layer 5
10
120.063920
20
17.992858
11
115.812283
21
17.329288
0
LINE
8
Layer 5
10
115.812283
20
17.329288
11
114.260703
21
16.931824
0
LINE
8
Layer 5
10
114.260703
20
16.931824
11
113.650430
21
16.610958
0
LINE
8
Layer 5
10
113.650430
20
16.610958
11
114.085245
21
16.311808
0
LINE
8
Layer 5
10
114.085245
20
16.311808
11
115.186044
21
15.873797
0
LINE
8
Layer 5
10
115.186044
20
15.873797
11
118.163720
21
15.013528
0
LINE
8
Layer 5
10
118.163720
20
15.013528
11
119.686573
21
14.750781
0
LINE
8
Layer 5
10
119.686573
20
14.750781
11
121.093710
21
14.664278
0
LINE
8
Layer 5
10
121.093710
20
14.664278
11
122.434262
21
14.754051
0
LINE
8
Layer 5
10
122.434262
20
14.754051
11
123.757360
21
15.020132
0
LINE
8
Layer 5
10
123.757360
20
15.020132
11
124.999043
21
15.420327
0
LINE
8
Layer 5
10
124.999043
20
15.420327
11
125.899374
21
15.866349
0
LINE
8
Layer 5
10
125.899374
20
15.866349
11
126.447518
21
16.351317
0
LINE
8
Layer 5
10
126.447518
20
16.351317
11
126.632640
21
16.868352
0
LINE
8
Layer 5
10
126.632640
20
16.868352
11
126.385605
21
17.419808
0
LINE
8
Layer 5
10
126.385605
20
17.419808
11
125.659369
21
17.818306
0
LINE
8
Layer 5
10
125.659369
20
17.818306
11
124.476230
21
18.060016
0
LINE
8
Layer 5
10
124.476230
20
18.060016
11
122.858490
21
18.141112
0
LINE
8
Layer 5
10
122.858490
20
18.141112
11
122.858600
21
18.141135
0
LINE
8
Layer 5
10
75.973100
20
17.683625
11
75.775765
21
16.958766
0
LINE
8
Layer 5
10
75.775765
20
16.958766
11
75.469076
21
16.278190
0
LINE
8
Layer 5
10
75.469076
20
16.278190
11
74.959683
21
15.585441
0
LINE
8
Layer 5
10
74.959683
20
15.585441
11
74.343219
21
14.989969
0
LINE
8
Layer 5
10
74.343219
20
14.989969
11
73.715315
21
14.601226
0
LINE
8
Layer 5
10
73.715315
20
14.601226
11
73.307748
21
14.398345
0
LINE
8
Layer 5
10
73.307748
20
14.398345
11
73.692173
21
14.349873
0
LINE
8
Layer 5
10
73.692173
20
14.349873
11
75.969528
21
14.617850
0
LINE
8
Layer 5
10
75.969528
20
14.617850
11
78.295783
21
15.047159
0
LINE
8
Layer 5
10
78.295783
20
15.047159
11
78.279964
21
15.237295
0
LINE
8
Layer 5
10
78.279964
20
15.237295
11
78.021128
21
15.621087
0
LINE
8
Layer 5
10
78.021128
20
15.621087
11
77.308006
21
16.420229
0
LINE
8
Layer 5
10
77.308006
20
16.420229
11
75.972956
21
17.683629
0
LINE
8
Layer 5
10
75.972956
20
17.683629
11
75.973100
21
17.683625
0
LINE
8
Layer 5
10
68.477000
20
15.719645
11
67.165660
21
14.888417
0
LINE
8
Layer 5
10
67.165660
20
14.888417
11
65.953572
21
14.228996
0
LINE
8
Layer 5
10
65.953572
20
14.228996
11
64.861076
21
13.899006
0
LINE
8
Layer 5
10
64.861076
20
13.899006
11
63.777237
21
13.880715
0
LINE
8
Layer 5
10
63.777237
20
13.880715
11
62.591120
21
14.156390
0
LINE
8
Layer 5
10
62.591120
20
14.156390
11
61.283294
21
14.462687
0
LINE
8
Layer 5
10
61.283294
20
14.462687
11
60.264450
21
14.209857
0
LINE
8
Layer 5
10
60.264450
20
14.209857
11
59.321885
21
13.810767
0
LINE
8
Layer 5
10
59.321885
20
13.810767
11
60.591885
21
13.689499
0
LINE
8
Layer 5
10
60.591885
20
13.689499
11
65.788055
21
13.705788
0
LINE
8
Layer 5
10
65.788055
20
13.705788
11
71.457385
21
14.047780
0
LINE
8
Layer 5
10
71.457385
20
14.047780
11
72.619907
21
14.227754
0
LINE
8
Layer 5
10
72.619907
20
14.227754
11
72.021829
21
14.299683
0
LINE
8
Layer 5
10
72.021829
20
14.299683
11
70.869538
21
14.530238
0
LINE
8
Layer 5
10
70.869538
20
14.530238
11
69.684689
21
15.029481
0
LINE
8
Layer 5
10
69.684689
20
15.029481
11
68.477000
21
15.719645
0
LINE
8
Layer 6
10
36.206300
20
22.949500
11
36.475279
21
23.895003
0
LINE
8
Layer 6
10
36.475279
20
23.895003
11
36.601704
21
24.947873
0
LINE
8
Layer 6
10
36.601704
20
24.947873
11
36.572421
21
25.844131
0
LINE
8
Layer 6
10
36.572421
20
25.844131
11
36.374279
21
26.319800
0
LINE
8
Layer 6
10
36.374279
20
26.319800
11
36.163478
21
26.282470
0
LINE
8
Layer 6
10
36.163478
20
26.282470
11
35.936028
21
25.975122
0
LINE
8
Layer 6
10
35.936028
20
25.975122
11
35.508346
21
24.832118
0
LINE
8
Layer 6
10
35.508346
20
24.832118
11
35.245568
21
23.454280
0
LINE
8
Layer 6
10
35.245568
20
23.454280
11
35.302029
21
22.405100
0
LINE
8
Layer 6
10
35.302029
20
22.405100
11
35.486024
21
22.062569
0
LINE
8
Layer 6
10
35.486024
20
22.062569
11
35.679628
21
22.028048
0
LINE
8
Layer 6
10
35.679628
20
22.028048
11
36.206297
21
22.949676
0
LINE
8
Layer 6
10
36.206297
20
22.949676
11
36.206300
21
22.949500
0
LINE
8
Layer 6
10
58.784100
20
22.949500
11
59.147908
21
24.342759
0
LINE
8
Layer 6
10
59.147908
20
24.342759
11
59.160898
21
25.554584
0
LINE
8
Layer 6
10
59.160898
20
25.554584
11
58.885498
21
26.154047
0
LINE
8
Layer 6
10
58.885498
20
26.154047
11
58.659160
21
26.089478
0
LINE
8
Layer 6
10
58.659160
20
26.089478
11
58.384135
21
25.710220
0
LINE
8
Layer 6
10
58.384135
20
25.710220
11
57.924124
21
23.868575
0
LINE
8
Layer 6
10
57.924124
20
23.868575
11
57.837627
21
22.866346
0
LINE
8
Layer 6
10
57.837627
20
22.866346
11
57.910623
21
22.273040
0
LINE
8
Layer 6
10
57.910623
20
22.273040
11
58.110334
21
22.030177
0
LINE
8
Layer 6
10
58.110334
20
22.030177
11
58.294420
21
22.040235
0
LINE
8
Layer 6
10
58.294420
20
22.040235
11
58.784072
21
22.949498
0
LINE
8
Layer 6
10
58.784072
20
22.949498
11
58.784100
21
22.949500
 0 
ENDSEC
 0 
EOF