<?xml version="1.0" encoding="UTF-8"?>
<svg width="474.62" height="189.58" version="1.1" viewBox="0 0 474.62 189.58" xmlns="http://www.w3.org/2000/svg" xmlns:cc="http://creativecommons.org/ns#" xmlns:dc="http://purl.org/dc/elements/1.1/" xmlns:rdf="http://www.w3.org/1999/02/22-rdf-syntax-ns#">
 <metadata>
  <rdf:RDF>
   <cc:Work rdf:about="">
    <dc:format>image/svg+xml</dc:format>
    <dc:type rdf:resource="http://purl.org/dc/dcmitype/StillImage"/>
    <dc:title/>
   </cc:Work>
  </rdf:RDF>
 </metadata>
 <path d="m189.73 188.09c-19.271-2.4513-36.852-8.6509-48.888-17.239-7.859-5.608-18.101-16.51-20.876-22.222-1.1744-2.4172-2.7429-4.395-3.4856-4.395-0.74271 0-2.5986-0.64549-4.1243-1.4344-2.5435-1.3153-3.2044-1.2214-7.9586 1.1314-6.9933 3.4609-14.368 3.4184-21.61-0.12465-4.9218-2.408-5.4968-2.4858-8.1605-1.1038-5.3055 2.7525-12.902 3.7761-18.855 2.5404-5.0506-1.0485-5.6832-0.96538-8.4992 1.1166-2.4076 1.78-4.3469 2.2427-9.2932 2.2174-10.656-0.0546-18.625-5.1418-22.85-14.586-3.3364-7.4577-3.1641-20.826 0.48671-37.757l2.6953-12.5-3.2913-2.4978c-15.586-11.829-18.663-27.253-9.0551-45.397 3.9656-7.4888 20.376-23.655 27.797-27.384 18.016-9.0519 34.552-10.399 48.335-3.938 5.8003 2.719 13.087 10.159 15.936 16.273l2.3042 4.9435h14.782c14.483 0 14.861 0.0552 18.696 2.7338 9.4384 6.5922 12.545 18.837 7.8708 31.018-0.5053 1.3168-0.16026 1.7478 1.3993 1.7478 1.1385 0 4.2241 0.83507 6.857 1.8557 2.9412 1.1402 6.2379 1.6758 8.5499 1.3891 2.0696-0.25664 5.9688 0.25492 8.665 1.1368 3.0676 1.0034 6.5245 1.3945 9.2372 1.0451 2.532-0.3261 6.2384 0.0305 8.9113 0.85734 4.1953 1.2978 4.7656 1.2624 6.8494-0.42498 2.6093-2.1129 11.161-4.8591 15.131-4.8591 3.8826 0 4.4991-4.2655 1.8033-12.478-3.2911-10.025-2.2242-14.574 5.048-21.522 16.463-15.729 45.686-25.894 66.114-22.997 10.017 1.4206 11.684 1.8885 18.051 5.0657 7.3194 3.6526 16.111 13.133 18.77 20.241 3.8164 10.2 4.9346 23.085 2.6117 30.097-0.1992 0.60128 1.6395 2.0867 4.086 3.3008 4.192 2.0805 4.6926 2.1214 8.6941 0.70954 2.3353-0.82394 6.7926-1.7642 9.9052-2.0896 6.3785-0.66669 7.8554-2.38 7.8656-9.1246 0.01-6.3662 1.836-10.827 5.9576-14.551 6.0653-5.4796 14.655-6.8311 21.537-3.3884 7.9306 3.9675 15.877 13.734 17.56 21.583 0.88532 4.1281 1.5609 5.1746 3.8573 5.9751 4.5904 1.6002 9.7812 7.7552 11.07 13.126 1.4691 6.1238 0.3447 10.552-5.0034 19.704-4.3748 7.4865-4.9483 9.7822-2.2339 8.9429 4.3235-1.3368 27.302-4.5933 32.412-4.5935 7.6223-2.7e-4 19.766 2.4124 24.629 4.8931 2.1811 1.1127 5.7679 4.0706 7.9708 6.5732 8.802 9.9996 8.0801 23.075-1.8755 33.968-14.074 15.399-42.656 19.761-71.886 10.971l-8.5-2.556-28.5 8.6078c-48.609 14.681-84.239 22.883-110.86 25.518-12.282 1.2157-46.722 1.1438-56.644-0.11832zm183.37-35.385c12.412-4.0024 13.692-4.2339 16.212-2.9309 7.8351 4.0517 18.188 5.9138 32.922 5.9212 15.185 8e-3 21.619-1.186 30.319-5.6245 9.3944-4.7927 16.681-14.735 16.681-22.761 0-5.3225-1.2379-8.2267-5.5331-12.981-7.8083-8.6429-24.046-11.074-46.967-7.0325-18.367 3.2387-18.805 3.215-19.867-1.0732-0.77525-3.1309-0.31573-4.5656 4.2486-13.265 2.8148-5.3647 5.1179-10.917 5.1179-12.338 0-6.2946-5.2031-12.424-11.75-13.842-2.946-0.63796-3.2509-1.0472-3.2598-4.3743-0.0229-8.5958-9.4519-20.663-18.24-23.343-4.8852-1.49-10.322 0.0726-14.148 4.0664-2.2752 2.3748-2.9635 4.2488-3.5891 9.7723-0.42575 3.7587-1.5073 8.634-2.4035 10.834l-1.6294 4-7.24 0.0362c-5.2616 0.0263-8.5622 0.63653-12.079 2.2331l-4.8389 2.1968-3.3328-2.5421c-1.8331-1.3982-4.9257-2.9819-6.8725-3.5194-3.3746-0.93176-3.4871-1.104-2.412-3.691 0.6202-1.4925 1.1295-7.2136 1.1318-12.714 5e-3 -12.834-2.2819-19.167-9.8893-27.384-6.4733-6.992-13.758-10.58-24.823-12.226-19.515-2.9025-45.918 5.9715-62.835 21.119-4.5366 4.062-5.0815 5.0051-5.4883 9.5-0.35418 3.913 0.0671 6.0002 1.9514 9.6686l2.403 4.6782-3.6435 11.869-6.5693 0.52732c-5.0265 0.40348-7.7518 1.2624-11.605 3.6574l-5.0352 3.1301-5.3902-1.6991c-4.1186-1.2983-6.2775-1.472-9.1514-0.73637-3.0091 0.77023-4.641 0.58347-8.1612-0.93405-3.1102-1.3408-5.7485-1.7428-9-1.3714-3.3149 0.37858-5.9147-0.038-9.306-1.4911-4.6674-1.9999-11.021-2.1581-15.036-0.37435-3.1896 1.4173-3.123-2.097 0.11639-6.1332 4.1514-5.1727 5.8798-12.836 4.1782-18.525-3.2709-10.936-7.06-12.804-25.122-12.388-7.3871 0.17017-14.122 0.61381-14.967 0.98587-1.1712 0.51581-1.8112-0.33879-2.695-3.5984-2.7562-10.165-10.811-18.075-21.701-21.31-22.051-6.5507-53.38 10.114-64.924 34.535-2.571 5.4387-3.0752 7.7245-3.0886 14-0.0113 5.3192 0.50252 8.4604 1.7673 10.803 2.5108 4.6506 9.2192 11.108 13.32 12.821 2.5229 1.0541 3.3234 1.916 2.937 3.1624-1.932 6.2328-5.7973 27.045-6.2613 33.713-0.62113 8.9264 0.49225 14.44 3.9526 19.575 6.1773 9.1665 19.005 11.69 25.335 4.9839 2.5704-2.7233 2.703-2.7503 5.7623-1.1732 5.1236 2.6411 14.156 2.0866 20.227-1.2417l5.0954-2.7937 3.7918 2.5732c8.7237 5.9201 18.837 5.4054 24.875-1.266l1.8526-2.0471 3.6614 2.423c2.0138 1.3326 5.004 2.7091 6.645 3.0588 2.4174 0.51518 3.5109 1.7373 5.7619 6.4396 4.2226 8.821 17.186 20.636 29.015 26.445 9.6816 4.7546 23.461 8.8398 35.207 10.438 10.525 1.4318 59.032 0.56245 78.62-2.4407s62.311-13.996 105.75-28.003zm-234.39 5.4023c-5.994-5.5251-11.611-13.285-12.396-17.126-0.55905-2.7335-1.2621-3.2719-5.9891-4.5869-3.327-0.92554-6.5734-2.7076-8.5705-4.7048l-3.2149-3.2149-2.6203 3.2839c-1.4412 1.8061-4.641 4.0556-7.1108 4.9988-6.293 2.4033-10.944 1.3442-15.911-3.6232l-3.9335-3.9335-3.3663 2.5676c-4.5737 3.4886-9.5887 5.4652-13.866 5.4652-3.9397 0-9.9768-2.2165-12.666-4.6504-1.6054-1.4528-1.7902-1.3717-2.399 1.054-2.4264 9.6677-17.591 8.1514-23.11-2.3108-4.0453-7.6683-3.5018-14.107 4.3242-51.231 0.49358-2.3414 0.13578-2.7773-3.1772-3.8707-4.7956-1.5827-11.051-7.2449-13.665-12.37-4.5928-9.0027-0.22494-22.845 10.961-34.738 8.2795-8.8025 15.13-13.382 25.332-16.932 15.481-5.388 29.057-3.4604 37.707 5.3537 4.4363 4.5203 8.1924 12.613 8.1924 17.65 0 0 0.0778 1.9215 0 2.933 2.9028-1.4959 4.3978-1.9454 4.3978-1.9454 3.3979-1.503 6.638-1.9417 14.25-1.9293 5.4187 9e-3 10.946 0.0113 12.283 5e-3 5.1914-0.0227 9.8822 5.1724 10.791 11.952 0.65797 4.9055-1.8875 12.228-5.1403 14.786-1.2432 0.97788-2.4999 2.8952-2.7928 4.2607-0.29286 1.3655-0.84519 3.2226-1.2274 4.1268-0.57826 1.368 0.11361 1.71 4.1214 2.0367 2.8854 0.23525 5.9519-0.16905 7.6489-1.0084 2.5573-1.265 3.4921-1.1576 9.6206 1.105 4.986 1.8408 7.9911 2.3706 11.32 1.9954 3.4598-0.38997 5.6225 0.0341 9.1445 1.7931 3.5551 1.7755 4.8847 2.0321 5.7978 1.119 1.7414-1.7414 7.0777-1.4454 12.742 0.70676 3.8775 1.4733 5.2027 1.6211 5.9935 0.66832 0.55837-0.67281 3.313-2.4739 6.1214-4.0024 4.4048-2.3974 5.969-2.7242 11.387-2.3792l6.2808 0.39993 5.1664-17.786-1.9806-2.6789c-2.2852-3.091-3.4538-8.8709-2.5342-12.535 1.3936-5.5526 24.577-19.617 38.109-23.119 14.712-3.8074 31.528-2.5629 41.091 3.0412 14.922 8.745 20.395 29.461 12.877 48.75-0.57746 1.4818-0.0908 1.7506 3.175 1.7537 4.042 4e-3 9.5275 2.7504 12.278 6.1473 1.602 1.9784 1.6572 1.9719 7.054-0.82853 4.6604-2.4183 6.6587-2.8343 13.953-2.9047l8.5141-0.0822 2.3694-5.8942c1.3032-3.2418 2.5709-8.3727 2.8171-11.402 0.6693-8.2347 4.071-12.039 10.764-12.039 3.3486 0 10.935 5.4237 14.226 10.171 2.3347 3.3677 2.8807 5.2141 2.8807 9.7423 0 3.0729-0.38008 6.6382-0.84463 7.923-0.76754 2.1226-0.65945 2.2367 1.1843 1.25 3.9624-2.1206 8.1495-1.2967 11.76 2.3142 4.8095 4.8095 4.5334 7.8821-1.685 18.749-4.6398 8.108-5.0239 9.2564-4.3867 13.119 0.93773 5.6844 3.4512 9.8741 5.5281 9.2149 5.9565-1.8905 24.198-4.716 33.444-5.1803 21.667-1.088 33.5 5.2032 33.5 17.811 0 9.0722-8.8219 18.197-21.426 22.162-5.9833 1.8822-9.3092 2.2202-21.574 2.1921-15.112-0.0345-22.802-1.3917-31.387-5.5399l-3.9345-1.9009-14.089 4.5461c-33.351 10.761-71.578 21.205-94.589 25.842-25.12 5.062-59.276 7.4245-83.016 5.3186-23.741-2.1059-42.792-9.2181-56.505-21.859zm169.02 0.68012c17.77-4.59 66.858-19.178 75.201-22.348 4.6718-1.7751 4.9371-1.776 7.8175-0.0262 8.883 5.3962 25.534 8.167 40.239 6.6958 14.72-1.4728 25.576-8.3364 25.576-16.169 0-8.9566-17.449-11.324-44.833-6.083-7.7 1.4737-15.093 2.724-16.429 2.7784-3.1201 0.12709-8.6051-6.8026-10.047-12.693-0.56652-2.3144-1.4151-5.333-1.8856-6.708-0.69714-2.037 0.13683-4.3919 4.5028-12.715 2.9471-5.6183 5.3584-10.681 5.3584-11.25 0-2.0839-2.8668-0.95027-5.6464 2.2328-2.9907 3.4249-15.283 21.161-19.046 27.481l-2.1927 3.6826-1.0791-2.8382c-1.9289-5.0734 2.6553-22.569 9.8502-37.593 4.3363-9.055 4.1989-13.305-0.58863-18.208-5.1052-5.2282-7.297-5.0726-7.297 0.51822 0 2.4404-1.7249 9.2714-3.9761 15.746-2.1868 6.2895-4.5246 14.7-5.195 18.69-1.1014 6.5548-1.4411 7.2541-3.5239 7.2541-2.5973 0-2.6396-0.15146-1.3965-5 2.299-8.9668 2.3096-8.8358-0.84771-10.469-4.1606-2.1515-12.325-1.9473-16.975 0.4247-7.0649 3.6043-11.403 10.416-12.658 19.876-0.56771 4.2796-1.0305 5.1678-2.6926 5.1678-1.8477 0-1.9392-0.37733-1.1529-4.75 1.5983-8.8873 1.0775-17.888-1.2131-20.968-2.519-3.3868-8.6296-4.2331-13.263-1.8369-1.6536 0.85511-4.0755 1.5548-5.3819 1.5548-5.2361 0-11.544 11.694-12.583 23.328l-0.6408 7.1716-2.4226-3.3968c-2.4421-3.4242-11.285-19.372-10.825-19.522 4.8213-1.5765 14.791-7.9628 19.092-12.23 7.5067-7.4471 10.83-14.396 11.442-23.924 1.2402-19.325-8.1389-29.347-28.286-30.224-10.455-0.45529-19.152 1.259-28.968 5.7097-6.9352 3.1446-21.73 12.894-21.174 13.953 0.18319 0.34865 0.60984 1.4123 0.9481 2.3636 0.54364 1.529 1.4787 1.2638 8.0567-2.2843 10.509-5.6683 23.013-10.01 30.683-10.653 15.692-1.3155 28.89 7.4452 28.936 19.207 0.0216 5.5149-4.8487 15.371-10.688 21.628-4.3017 4.61-14.239 12.261-14.973 11.527-0.15858-0.15858 2.2135-8.1334 5.2713-17.722 6.037-18.931 6.3318-22.507 2.1877-26.553-1.2546-1.2246-3.406-2.3738-4.781-2.5538-2.1529-0.28177-2.6644 0.22819-3.6844 3.6728-0.65142 2.2-3.232 10.75-5.7346 19-4.02 13.252-11.176 42.257-13.015 52.752-0.83635 4.7733 1.6384 10.285 5.5192 12.292 1.5485 0.80077 2.9976 1.456 3.2201 1.456 0.22255 0 0.66105-3.0375 0.97445-6.75s1.8737-10.8 3.4673-15.75l2.8975-9 2.3145 4.5c3.8311 7.4485 7.9892 13.162 14.428 19.825 7.3661 7.6222 10.093 9.1751 16.112 9.1751 5.8983 0 9.2651-1.7902 14.455-7.6859 3.6094-4.1004 8.458-7.3141 11.035-7.3141 0.4181 0 1.0082 1.2375 1.3112 2.75 1.5088 7.5294 11.155 15.25 19.055 15.25 5.639 0 11.332-3.3014 12.155-7.0487 0.37378-1.7018 0.47536-3.2985 0.22571-3.5482-0.24965-0.24965-2.7294 0.72665-5.5105 2.1696-6.2607 3.2482-9.9007 2.7008-14.139-2.1263-6.8359-7.7856-6.3097-16.487 1.4672-24.264 3.3975-3.3975 4.9305-4.2578 7.1364-4.0048 2.7722 0.31789 2.807 0.40627 2.6291 6.664l-0.18032 6.3418 9.6123-0.68363 0.50185 8.0631c0.47272 7.5952 2.3509 13.456 4.7962 14.968 2.2728 1.4047 5.8974-0.69467 8.6214-4.9935 2.6641-4.2042 4.3288-5.6198 4.3288-3.681 0 0.47091 1.5277 2.857 3.3949 5.3024l3.3949 4.4462-17.645 3.7052c-20.888 4.3863-83.574 15.812-100.64 18.345-17.133 2.5417-57.71 2.5687-72.656 0.0485-14.2-2.3946-25.956-5.6167-41.258-11.308-9.2343-3.4346-12.968-4.413-13.772-3.609-1.924 1.924 1.1129 7.0739 8.4632 14.352 11.553 11.439 27.59 18.028 50.723 20.841 10.602 1.2891 47.251 0.39464 61.551-1.5077s29.027-4.9961 51.949-10.917zm95.5-28.63c0-1.1928 12.853-3.9616 22.726-4.8957 14.853-1.4052 23.274 0.0363 23.274 3.9838 0 2.5076-3.5318 4.7784-10.187 6.55-6.2876 1.6737-12.274 1.6807-19.454 0.10358-7.1792-1.5771-16.359-4.8266-16.359-5.7417zm-104.86-13.251c-3.5663-4.2972-5.2673-14.99-3.2091-20.173 0.62068-1.563 1.0636-0.71573 2.0272 3.8781 0.93936 4.4782 2.17 6.8947 5.1675 10.147 3.6102 3.9166 3.8023 4.4006 2.3311 5.8719-1.9481 1.9481-4.825 2.0741-6.3168 0.27674zm9.6021-10.402c-5.2172-5.7649-4.737-19.526 0.7549-21.634 2.3432-0.89918 2.9991 1.7383 2.9991 12.06 0 9.9209-1.04 12.573-3.754 9.5742zm-16.078 30.394c0.22085-0.22086-1.0401-0.6899-2.8022-1.0423-4.0997-0.81995-12.319-7.1592-17.961-13.853l-4.4045-5.2254-0.70871 6.4779c-0.5716 5.2246-1.2111 6.9132-3.3058 8.7279-4.5335 3.9277-13.1 2.6488-17.918-2.675l-1.9274-2.1298-3.5702 3.4679c-5.9655 5.7944-11.896 7.038-17.986 3.7715-3.2483-1.7421-3.5255-1.7438-6.8637-0.0419-5.3023 2.7033-11.087 3.2377-16.153 1.4923-2.9785-1.0262-4.985-1.2139-6.1738-0.57762-4.3338 2.3194-14.683 0.31461-17.804-3.449-1.304-1.5724-1.6264-1.4656-4.25 1.4068-1.5614 1.7095-2.8389 3.2551-2.8389 3.4346 0 0.67551 18.47 4.8556 26.815 6.0686 12.386 1.8004 47.046 1.7972 61.115 0.12239 14.07-1.6748 36.039-5.2771 36.738-5.9753zm-76.668 3.6116-4.5-0.43071 3.3418-1.4135c2.9264-1.2378 3.9509-1.2142 8.2426 0.18952 6.0197 1.9689 10.026 1.328 16.209-2.5936l4.6466-2.9468 4.2799 2.447c2.354 1.3458 6.0799 2.5094 8.2799 2.5858 3.3271 0.11549 2.9907 0.26544-2 0.89138-7.9264 0.99415-32.81 1.8155-38.5 1.2709zm46.5-3.2311c2.8429-1.1759 6.482-5.3394 7.3015-8.3536l0.69847-2.569 4.7322 4.4765c2.7242 2.577 4.2094 4.642 3.5 4.8666-2.2023 0.69705-14.343 2.5353-16.314 2.4702-1.8317-0.0605-1.828-0.10065 0.0819-0.89064zm61.297-5.9744 2.2972-0.60698-5.6959-5.457-7.8985 8.0936 4.5-0.71131c2.475-0.39122 5.5337-0.98446 6.7972-1.3183zm-284.09-8.3216c0.63438-4.5375 3.19-15 5.6792-23.25 2.4892-8.25 5.2518-17.588 6.1391-20.75 1.1436-4.0756 2.1023-5.7502 3.2924-5.7508 3.1991-2e-3 14.103-5.8875 18.62-10.052 2.6574-2.4495 5.9935-7.0918 8.0487-11.2 7.9458-15.883 2.6691-30.704-12.016-33.753-18.216-3.7817-44.44 13.325-50.06 32.655-1.3096 4.5048-1.3223 5.6335-0.0969 8.5663 1.9422 4.6485 7.0958 8.7845 10.946 8.7845 4.9065 0 7.7377-3.3684 7.7377-9.2057 0-6.1613-1.7031-6.9374-5.9358-2.7047-2.8784 2.8784-3.3566 3.0466-4.7366 1.6665-4.5924-4.5924 8.2739-22.922 20.476-29.171 4.4712-2.2897 12.165-3.0804 16.394-1.6848 5.7664 1.9031 9.0629 6.1931 9.5836 12.472 0.38888 4.6894 9e-3 6.2428-2.8333 11.575-4.0311 7.5632-17.279 20.241-15.469 14.803 3.3157-9.9613 6.5212-21.777 6.5212-24.037 0-3.9269-4.8625-8.7128-8.8522-8.7128-2.8561 0-3.0648 0.28676-4.1854 5.75-0.64863 3.1625-2.671 10.7-4.4943 16.75-9.4971 31.514-15.45 61.654-13.506 68.388 1.1696 4.0532 3.738 7.1122 5.9715 7.1122 1.2735 0 1.872-1.7782 2.7769-8.25zm130.56-6.8709c3.177-6.2585 5.5189-10.091 5.2042-8.516-0.96931 4.8495 1.4254 13.694 4.5553 16.823 3.46 3.46 9.4541 3.8665 13.107 0.88879 2.3333-1.9022 2.3859-1.9013 4.5125 0.082 4.7786 4.4564 12.917 3.21 19.73-3.0215 2.2443-2.0529 2.9958-2.3167 3.3977-1.1927 1.0666 2.9823 5.1713 6.0568 8.0863 6.0568 3.759 0 7.2364-3.984 10.057-11.522 3.5176-9.4017 2.4304-12.27-2.1122-5.5719-3.3169 4.8907-5.3714 5.9611-7.4505 3.882-2.3575-2.3575-2.0396-8.2878 1.1144-20.788 3.7264-14.769 12.17-39.691 14.606-43.113 2.4587-3.4529 1.8214-4.8875-2.1713-4.8875-4.7753 0-9.4458 2.4552-10.704 5.627-1.3313 3.3556-7.7001 24.484-9.3225 30.926l-1.1151 4.4284-2.8582-2.405c-9.1588-7.7066-19.104-4.1702-25.094 8.9231-1.829 3.9982-2.3211 6.96-2.4558 14.783-0.17968 10.434-1.1696 13.03-4.7718 12.516-3.4481-0.49266-3.294-7.886 0.40517-19.434 1.7053-5.3235 2.8696-10.281 2.5875-11.016-1.3089-3.4109-11.58-7.1224-11.58-4.1844 0 2.2795-16.409 32.836-17.633 32.836-0.57339 0 0.3658-4.007 3.633-15.5 4.5127-15.874 4.4765-15.177 0.96912-18.685-1.7947-1.7947-3.4614-2.7194-3.9721-2.2037-0.48397 0.48865-2.4656 7.3607-4.4035 15.271-3.371 13.76-5.3464 18.117-8.2132 18.117-1.8435 0-3.3818-3.2784-3.3711-7.1843 5e-3 -1.8237 1.13-8.2575 2.5-14.298 1.37-6.04 2.4909-11.259 2.4909-11.598 0-0.93181-7.9266-3.8531-8.3749-3.0866-0.21444 0.36664-0.71262 2.1704-1.1071 4.0083l-0.71719 3.3417-2.6788-2.5664c-4.4531-4.2664-8.4521-5.1593-12.872-2.8743-12.884 6.6607-15.925 36.289-4.6349 45.169 4.662 3.6671 10.564 2.3281 16.027-3.6363 2.1434-2.34 3.3581-3.1017 3.3581-2.1057 0 2.9933 3.9855 6.8303 7.0946 6.8303 2.4164 0 3.4776-0.83273 5.8714-4.6075l2.922-4.6075 0.30599 5.3168c0.27124 4.713 0.58995 5.3911 2.806 5.9706 4.0795 1.0668 6.1811-1.1924 12.273-13.193zm-46.628-0.12908c-4.4534-7.1511-1.1122-26.099 5.0171-28.451 2.546-0.97699 6.9488 4.6194 7.7294 9.8248 0.81075 5.4065-1.2035 12.629-4.858 17.421-3.0409 3.9868-5.8855 4.4213-7.8885 1.2049zm5.9061-8.2179c1.5868-3.7976 1.9509-11.104 0.5952-11.942-1.8524-1.1448-5.0632 10.578-3.7993 13.871 0.89013 2.3196 1.6097 1.8863 3.2041-1.9296zm73.898 8.4113c-6.3976-7.0692 1.2291-32.74 8.4022-28.281 5.6261 3.4971 7.7269 12.625 4.6181 20.066-3.8851 9.2983-9.076 12.573-13.02 8.2151zm6.1022-8.4113c2.6458-6.3323 1.3869-15.022-1.4172-9.7821-1.3125 2.4527-2.4748 10.889-1.6778 12.179 1.0467 1.6935 1.5481 1.3052 3.0949-2.3969zm-110.73 19.718c3.1507-2.7058 6.1838-9.3202 6.1838-13.485 0-2.0706-0.25405-3.7648-0.56456-3.7648s-1.7005 1.35-3.0889 3c-4.4861 5.3314-8.3466 3.144-8.3466-4.7294 0-8.2661 11.906-50.5 16.799-59.59 2.1916-4.0714 2.3697-4.9671 1.1475-5.7712-1.7802-1.1712-7.6794-0.2554-10.643 1.6522-3.8175 2.4576-13.19 34.491-15.434 52.75-0.65485 5.3287-1.626 9.6885-2.1582 9.6885-0.60785 0-0.64456-1.5799-0.0987-4.25 0.47781-2.3375 0.8651-7.4898 0.86064-11.45-0.0105-9.3389-2.1332-12.65-8.4054-13.112-2.6236-0.19312-5.1374 0.28191-6.6148 1.25-1.3108 0.85882-3.7261 1.5615-5.3675 1.5615-5.8364 0-11.902 11.844-12.804 25-0.9679 14.119 3.3947 22 12.178 22 4.2999 0 5.0363-0.41425 10.827-6.091 3.4173-3.3501 7.1969-6.478 8.3992-6.9509 1.9694-0.77465 2.347-0.3749 3.8116 4.0345 3.1149 9.3782 8.2828 12.582 13.319 8.2575zm-37.802-12.467c-2.3538-3.8704-3.4784-10.494-2.5878-15.241 0.88811-4.734 2.5738-5.4976 2.5738-1.1659 0 4.8754 1.3311 7.878 5.5749 12.575 3.034 3.3582 3.4506 4.3132 2.4222 5.5523-2.1611 2.604-5.8346 1.8121-7.9831-1.7209zm9.8197-10.016c-3.0748-4.3181-3.321-14.459-0.42872-17.659 3.9974-4.4227 5.6075-1.4607 5.5814 10.267-0.0149 6.6992-0.7668 10.625-2.0349 10.625-0.4484 0-1.8514-1.4551-3.1178-3.2335zm277.17 10.234 2.5-1.9555-2.6731-0.0222c-1.6618-0.0138-3.9031-1.2518-5.9243-3.2722l-3.2513-3.25 0.68621 3.4344c0.72182 3.6125 3.2172 7.081 5.0675 7.0434 0.60225-0.0123 2.22-0.90225 3.595-1.9778zm-241.79-19.009c1.09-6.4027 6.2295-16.294 10.343-19.906 3.0409-2.6699 3.2335-3.0856 1.4298-3.0856-1.1464 0-3.3448-0.65175-4.8852-1.4483l-2.8008-1.4483-1.7877 6.1983c-0.98323 3.4091-2.8033 10.385-4.0446 15.501-2 8.2441-2.0726 9.2676-0.6381 8.9914 1.0555-0.20327 1.8848-1.8745 2.3834-4.8031zm138.67-1.7414c3.0808-12.075 5.0796-20.619 4.8656-20.797-0.13486-0.11237-1.2019-0.49784-2.3712-0.85659-1.5382-0.47191-2.2673-0.16064-2.6371 1.1258-0.28107 0.97792-1.9119 6.5532-3.624 12.39s-3.1129 10.899-3.1129 11.25 1.3327 0.63847 2.9615 0.63847c2.5854 0 3.083-0.47622 3.9182-3.75zm-161.06-27.5 1.0675-4.25-2.8606 3.4834c-2.8707 3.4956-3.0507 5.0166-0.59375 5.0166 0.72564 0 1.7997-1.9125 2.3869-4.25zm34.73-1.8371c0.36954-0.59793 0.17109-1.5879-0.44098-2.2-0.61208-0.61208-1.1129-2.8387-1.1129-4.948 0-3.549 0.15206-3.7538 2.0378-2.7446 4.3396 2.3225 8.3932-1.8391 7.7885-7.9962-1.0847-11.045-13.77-1.4944-13.81 10.397-0.0205 6.1181 3.4688 10.839 5.5374 7.4916zm134.69-0.15394c0.22753-0.68259-0.18497-1.8397-0.91666-2.5714-1.3795-1.3795-1.8252-6.3593-0.67237-7.5122 0.3619-0.36189 1.2403-0.17471 1.952 0.41595 3.6728 3.0481 9.386-4.3414 7.3984-9.5691-1.3306-3.4998-3.3268-4.0379-6.9779-1.8812-5.9209 3.4976-9.0544 15.025-5.4738 20.136 1.7082 2.4388 4.0418 2.9271 4.6903 0.98144zm31.211-5.0968c2.4069-4.107 3.476-10.662 1.739-10.662-0.69119 0-5.1968 12.416-5.1968 14.321 0 1.5541 1.0605 0.43188 3.4578-3.6588zm-216.98-12.612c0.83912-1.6227 1.5257-3.6477 1.5257-4.5 0-2.5882-1.7397-1.732-2.4391 1.2003-0.36074 1.5125-0.88985 3.5375-1.1758 4.5-0.81755 2.7519 0.41019 2.0465 2.0892-1.2003z" fill="none" stroke="#000"/>
</svg>
