<?xml version="1.0" encoding="UTF-8" standalone="no"?>
<!DOCTYPE svg PUBLIC "-//W3C//DTD SVG 1.1//EN"
 "http://www.w3.org/Graphics/SVG/1.1/DTD/svg11.dtd">
<!-- Generated by graphviz version 2.40.1 (20161225.0304)
 -->
<!-- Title: Monarchie_in_Nederland Pages: 1 -->
<svg width="866pt" height="1206pt"
 viewBox="0.00 0.00 866.00 1205.60" xmlns="http://www.w3.org/2000/svg" xmlns:xlink="http://www.w3.org/1999/xlink">
<g id="graph0" class="graph" transform="scale(1 1) rotate(0) translate(4 1201.6)">
<title>Monarchie_in_Nederland</title>
<polygon fill="#ffffff" stroke="transparent" points="-4,4 -4,-1201.6 862,-1201.6 862,4 -4,4"/>
<g id="clust1" class="cluster">
<title>cluster_0</title>
<polygon fill="none" stroke="#000000" points="8,-660.6 8,-1077.6 370,-1077.6 370,-660.6 8,-660.6"/>
</g>
<g id="clust2" class="cluster">
<title>cluster_1</title>
<polygon fill="none" stroke="#000000" points="378,-8 378,-1077.6 850,-1077.6 850,-8 378,-8"/>
</g>
<!-- Carlo Maria Buonaparte -->
<g id="node1" class="node">
<title>Carlo Maria Buonaparte</title>
<polygon fill="none" stroke="#000000" points="180.0797,-977.6 15.9203,-977.6 15.9203,-941.6 180.0797,-941.6 180.0797,-977.6"/>
<text text-anchor="middle" x="98" y="-955.4" font-family="Helvetica,sans-Serif" font-size="14.00" fill="#000000">Carlo Maria Buonaparte</text>
</g>
<!-- 13 -->
<g id="node10" class="node">
<title>13</title>
<ellipse fill="none" stroke="#000000" cx="110" cy="-902.1" rx="3.5" ry="3.5"/>
<text text-anchor="middle" x="110" y="-901.8" font-family="Helvetica,sans-Serif" font-size="1.00" fill="#ffffff">13</text>
</g>
<!-- Carlo Maria Buonaparte&#45;&#45;13 -->
<g id="edge1" class="edge">
<title>Carlo Maria Buonaparte&#45;&#45;13</title>
<path fill="none" stroke="#000000" d="M101.7969,-941.4066C104.4336,-928.7724 107.7295,-912.9795 109.2126,-905.8727"/>
</g>
<!-- Maria Laetitia Ramolino -->
<g id="node2" class="node">
<title>Maria Laetitia Ramolino</title>
<polygon fill="none" stroke="#000000" points="361.5098,-977.6 198.4902,-977.6 198.4902,-941.6 361.5098,-941.6 361.5098,-977.6"/>
<text text-anchor="middle" x="280" y="-955.4" font-family="Helvetica,sans-Serif" font-size="14.00" fill="#000000">Maria Laetitia Ramolino</text>
</g>
<!-- Maria Laetitia Ramolino&#45;&#45;13 -->
<g id="edge2" class="edge">
<title>Maria Laetitia Ramolino&#45;&#45;13</title>
<path fill="none" stroke="#000000" d="M226.6774,-941.5644C183.4434,-926.9411 127.4503,-908.0023 113.3398,-903.2296"/>
</g>
<!-- Lodewijk I -->
<g id="node3" class="node">
<title>Lodewijk I</title>
<polygon fill="#00bfff" stroke="#000000" points="149.2317,-862.6 70.7683,-862.6 70.7683,-826.6 149.2317,-826.6 149.2317,-862.6"/>
<text text-anchor="middle" x="110" y="-840.4" font-family="Helvetica,sans-Serif" font-size="14.00" fill="#000000">Lodewijk I</text>
</g>
<!-- 12 -->
<g id="node9" class="node">
<title>12</title>
<ellipse fill="none" stroke="#000000" cx="134" cy="-787.1" rx="3.5" ry="3.5"/>
<text text-anchor="middle" x="134" y="-786.8" font-family="Helvetica,sans-Serif" font-size="1.00" fill="#ffffff">12</text>
</g>
<!-- Lodewijk I&#45;&#45;12 -->
<g id="edge4" class="edge">
<title>Lodewijk I&#45;&#45;12</title>
<path fill="none" stroke="#000000" d="M117.5938,-826.4066C122.9771,-813.5091 129.7342,-797.3201 132.6059,-790.44"/>
</g>
<!-- Hortense de Beauharnais -->
<g id="node4" class="node">
<title>Hortense de Beauharnais</title>
<polygon fill="none" stroke="#000000" points="341.2168,-862.6 166.7832,-862.6 166.7832,-826.6 341.2168,-826.6 341.2168,-862.6"/>
<text text-anchor="middle" x="254" y="-840.4" font-family="Helvetica,sans-Serif" font-size="14.00" fill="#000000">Hortense de Beauharnais</text>
</g>
<!-- Hortense de Beauharnais&#45;&#45;12 -->
<g id="edge5" class="edge">
<title>Hortense de Beauharnais&#45;&#45;12</title>
<path fill="none" stroke="#000000" d="M216.3605,-826.5644C186.6672,-812.3364 148.4477,-794.0229 137.2291,-788.6473"/>
</g>
<!-- Lodewijk II -->
<g id="node5" class="node">
<title>Lodewijk II</title>
<polygon fill="#00bfff" stroke="#000000" points="175.1221,-747.6 92.8779,-747.6 92.8779,-711.6 175.1221,-711.6 175.1221,-747.6"/>
<text text-anchor="middle" x="134" y="-725.4" font-family="Helvetica,sans-Serif" font-size="14.00" fill="#000000">Lodewijk II</text>
</g>
<!-- 11 -->
<g id="node8" class="node">
<title>11</title>
<ellipse fill="none" stroke="#000000" cx="182" cy="-672.1" rx="3.5" ry="3.5"/>
<text text-anchor="middle" x="182" y="-671.8" font-family="Helvetica,sans-Serif" font-size="1.00" fill="#ffffff">11</text>
</g>
<!-- Lodewijk II&#45;&#45;11 -->
<g id="edge7" class="edge">
<title>Lodewijk II&#45;&#45;11</title>
<path fill="none" stroke="#000000" d="M149.1875,-711.4066C160.1738,-698.2459 174.0212,-681.658 179.5537,-675.0305"/>
</g>
<!-- Charlotte Bonaparte -->
<g id="node6" class="node">
<title>Charlotte Bonaparte</title>
<polygon fill="none" stroke="#000000" points="334.7596,-747.6 193.2404,-747.6 193.2404,-711.6 334.7596,-711.6 334.7596,-747.6"/>
<text text-anchor="middle" x="264" y="-725.4" font-family="Helvetica,sans-Serif" font-size="14.00" fill="#000000">Charlotte Bonaparte</text>
</g>
<!-- Charlotte Bonaparte&#45;&#45;11 -->
<g id="edge8" class="edge">
<title>Charlotte Bonaparte&#45;&#45;11</title>
<path fill="none" stroke="#000000" d="M238.0547,-711.4066C218.5356,-697.7195 193.7302,-680.3254 185.1144,-674.2839"/>
</g>
<!-- Huis Bonaparte -->
<g id="node7" class="node">
<title>Huis Bonaparte</title>
<text text-anchor="middle" x="216" y="-1029.6" font-family="Helvetica,sans-Serif" font-size="40.00" fill="#000000">Huis Bonaparte</text>
</g>
<!-- Huis Bonaparte&#45;&#45;Carlo Maria Buonaparte -->
<!-- Huis Bonaparte&#45;&#45;Maria Laetitia Ramolino -->
<!-- note -->
<g id="node38" class="node">
<title>note</title>
<text text-anchor="middle" x="182" y="-616" font-family="Helvetica,Arial,sans-serif" font-size="14.00" fill="#000000">De grafiek toont de Nederlandse vorsten tot 2022 </text>
<text text-anchor="middle" x="182" y="-599.2" font-family="Helvetica,Arial,sans-serif" font-size="14.00" fill="#000000"> en hun ouders. Catharina&#45;Amalia is de troonopvolger.</text>
</g>
<!-- 11&#45;&#45;note -->
<!-- 12&#45;&#45;Lodewijk II -->
<g id="edge6" class="edge">
<title>12&#45;&#45;Lodewijk II</title>
<path fill="none" stroke="#000000" d="M134,-783.3273C134,-776.2316 134,-760.477 134,-747.8526"/>
</g>
<!-- 13&#45;&#45;Lodewijk I -->
<g id="edge3" class="edge">
<title>13&#45;&#45;Lodewijk I</title>
<path fill="none" stroke="#000000" d="M110,-898.3273C110,-891.2316 110,-875.477 110,-862.8526"/>
</g>
<!-- Willem V van Oranje&#45;Nassau -->
<g id="node11" class="node">
<title>Willem V van Oranje&#45;Nassau</title>
<polygon fill="none" stroke="#000000" points="581.6721,-977.6 386.3279,-977.6 386.3279,-941.6 581.6721,-941.6 581.6721,-977.6"/>
<text text-anchor="middle" x="484" y="-955.4" font-family="Helvetica,sans-Serif" font-size="14.00" fill="#000000">Willem V van Oranje&#45;Nassau</text>
</g>
<!-- 8 -->
<g id="node35" class="node">
<title>8</title>
<ellipse fill="none" stroke="#000000" cx="485" cy="-902.1" rx="3.5" ry="3.5"/>
<text text-anchor="middle" x="485" y="-901.8" font-family="Helvetica,sans-Serif" font-size="1.00" fill="#ffffff">8</text>
</g>
<!-- Willem V van Oranje&#45;Nassau&#45;&#45;8 -->
<g id="edge11" class="edge">
<title>Willem V van Oranje&#45;Nassau&#45;&#45;8</title>
<path fill="none" stroke="#000000" d="M484.3164,-941.4066C484.5361,-928.7724 484.8108,-912.9795 484.9344,-905.8727"/>
</g>
<!-- Wilhelmina van Pruisen (1751&#45;1820) -->
<g id="node12" class="node">
<title>Wilhelmina van Pruisen (1751&#45;1820)</title>
<polygon fill="none" stroke="#000000" points="842.3635,-977.6 599.6365,-977.6 599.6365,-941.6 842.3635,-941.6 842.3635,-977.6"/>
<text text-anchor="middle" x="721" y="-955.4" font-family="Helvetica,sans-Serif" font-size="14.00" fill="#000000">Wilhelmina van Pruisen (1751&#45;1820)</text>
</g>
<!-- Wilhelmina van Pruisen (1751&#45;1820)&#45;&#45;8 -->
<g id="edge12" class="edge">
<title>Wilhelmina van Pruisen (1751&#45;1820)&#45;&#45;8</title>
<path fill="none" stroke="#000000" d="M646.9756,-941.5644C585.8752,-926.6777 506.4182,-907.3184 488.6346,-902.9855"/>
</g>
<!-- Willem I -->
<g id="node13" class="node">
<title>Willem I</title>
<polygon fill="#ffa500" stroke="#000000" points="517.7592,-862.6 452.2408,-862.6 452.2408,-826.6 517.7592,-826.6 517.7592,-862.6"/>
<text text-anchor="middle" x="485" y="-840.4" font-family="Helvetica,sans-Serif" font-size="14.00" fill="#000000">Willem I</text>
</g>
<!-- 7 -->
<g id="node36" class="node">
<title>7</title>
<ellipse fill="none" stroke="#000000" cx="487" cy="-787.1" rx="3.5" ry="3.5"/>
<text text-anchor="middle" x="487" y="-786.8" font-family="Helvetica,sans-Serif" font-size="1.00" fill="#ffffff">7</text>
</g>
<!-- Willem I&#45;&#45;7 -->
<g id="edge14" class="edge">
<title>Willem I&#45;&#45;7</title>
<path fill="none" stroke="#000000" d="M485.6328,-826.4066C486.0723,-813.7724 486.6216,-797.9795 486.8688,-790.8727"/>
</g>
<!-- Wilhelmina van Pruisen (1774&#45;1837) -->
<g id="node14" class="node">
<title>Wilhelmina van Pruisen (1774&#45;1837)</title>
<polygon fill="none" stroke="#000000" points="778.3635,-862.6 535.6365,-862.6 535.6365,-826.6 778.3635,-826.6 778.3635,-862.6"/>
<text text-anchor="middle" x="657" y="-840.4" font-family="Helvetica,sans-Serif" font-size="14.00" fill="#000000">Wilhelmina van Pruisen (1774&#45;1837)</text>
</g>
<!-- Wilhelmina van Pruisen (1774&#45;1837)&#45;&#45;7 -->
<g id="edge15" class="edge">
<title>Wilhelmina van Pruisen (1774&#45;1837)&#45;&#45;7</title>
<path fill="none" stroke="#000000" d="M603.6774,-826.5644C560.4434,-811.9411 504.4503,-793.0023 490.3398,-788.2296"/>
</g>
<!-- Willem II -->
<g id="node15" class="node">
<title>Willem II</title>
<polygon fill="#ffa500" stroke="#000000" points="521.6503,-747.6 452.3497,-747.6 452.3497,-711.6 521.6503,-711.6 521.6503,-747.6"/>
<text text-anchor="middle" x="487" y="-725.4" font-family="Helvetica,sans-Serif" font-size="14.00" fill="#000000">Willem II</text>
</g>
<!-- 6 -->
<g id="node34" class="node">
<title>6</title>
<ellipse fill="none" stroke="#000000" cx="492" cy="-672.1" rx="3.5" ry="3.5"/>
<text text-anchor="middle" x="492" y="-671.8" font-family="Helvetica,sans-Serif" font-size="1.00" fill="#ffffff">6</text>
</g>
<!-- Willem II&#45;&#45;6 -->
<g id="edge17" class="edge">
<title>Willem II&#45;&#45;6</title>
<path fill="none" stroke="#000000" d="M488.582,-711.4066C489.6807,-698.7724 491.054,-682.9795 491.6719,-675.8727"/>
</g>
<!-- Anna Paulowna van Rusland -->
<g id="node16" class="node">
<title>Anna Paulowna van Rusland</title>
<polygon fill="none" stroke="#000000" points="735.728,-747.6 540.272,-747.6 540.272,-711.6 735.728,-711.6 735.728,-747.6"/>
<text text-anchor="middle" x="638" y="-725.4" font-family="Helvetica,sans-Serif" font-size="14.00" fill="#000000">Anna Paulowna van Rusland</text>
</g>
<!-- Anna Paulowna van Rusland&#45;&#45;6 -->
<g id="edge18" class="edge">
<title>Anna Paulowna van Rusland&#45;&#45;6</title>
<path fill="none" stroke="#000000" d="M592.2053,-711.5644C555.7439,-697.2046 508.7161,-678.6834 495.5581,-673.5013"/>
</g>
<!-- Willem III -->
<g id="node17" class="node">
<title>Willem III</title>
<polygon fill="#ffa500" stroke="#000000" points="528.5414,-629.8 455.4586,-629.8 455.4586,-593.8 528.5414,-593.8 528.5414,-629.8"/>
<text text-anchor="middle" x="492" y="-607.6" font-family="Helvetica,sans-Serif" font-size="14.00" fill="#000000">Willem III</text>
</g>
<!-- 5 -->
<g id="node33" class="node">
<title>5</title>
<ellipse fill="none" stroke="#000000" cx="502" cy="-551.5" rx="3.5" ry="3.5"/>
<text text-anchor="middle" x="502" y="-551.2" font-family="Helvetica,sans-Serif" font-size="1.00" fill="#ffffff">5</text>
</g>
<!-- Willem III&#45;&#45;5 -->
<g id="edge21" class="edge">
<title>Willem III&#45;&#45;5</title>
<path fill="none" stroke="#000000" d="M495.0003,-593.708C497.2555,-580.1092 500.1605,-562.592 501.3984,-555.1278"/>
</g>
<!-- Emma van Waldeck&#45;Pyrmont -->
<g id="node18" class="node">
<title>Emma van Waldeck&#45;Pyrmont</title>
<polygon fill="none" stroke="#000000" points="743.7301,-629.8 546.2699,-629.8 546.2699,-593.8 743.7301,-593.8 743.7301,-629.8"/>
<text text-anchor="middle" x="645" y="-607.6" font-family="Helvetica,sans-Serif" font-size="14.00" fill="#000000">Emma van Waldeck&#45;Pyrmont</text>
</g>
<!-- Emma van Waldeck&#45;Pyrmont&#45;&#45;5 -->
<g id="edge20" class="edge">
<title>Emma van Waldeck&#45;Pyrmont&#45;&#45;5</title>
<path fill="none" stroke="#000000" d="M602.0953,-593.708C565.8971,-578.444 517.9916,-558.2433 505.2341,-552.8637"/>
</g>
<!-- Wilhelmina -->
<g id="node19" class="node">
<title>Wilhelmina</title>
<polygon fill="#ffa500" stroke="#000000" points="544.4331,-512 459.5669,-512 459.5669,-476 544.4331,-476 544.4331,-512"/>
<text text-anchor="middle" x="502" y="-489.8" font-family="Helvetica,sans-Serif" font-size="14.00" fill="#000000">Wilhelmina</text>
</g>
<!-- 4 -->
<g id="node32" class="node">
<title>4</title>
<ellipse fill="none" stroke="#000000" cx="521" cy="-436.5" rx="3.5" ry="3.5"/>
<text text-anchor="middle" x="521" y="-436.2" font-family="Helvetica,sans-Serif" font-size="1.00" fill="#ffffff">4</text>
</g>
<!-- Wilhelmina&#45;&#45;4 -->
<g id="edge23" class="edge">
<title>Wilhelmina&#45;&#45;4</title>
<path fill="none" stroke="#000000" d="M508.0117,-475.8066C512.2735,-462.9091 517.6229,-446.7201 519.8964,-439.84"/>
</g>
<!-- Hendrik van Mecklenburg&#45;Schwerin -->
<g id="node20" class="node">
<title>Hendrik van Mecklenburg&#45;Schwerin</title>
<polygon fill="none" stroke="#000000" points="799.4102,-512 562.5898,-512 562.5898,-476 799.4102,-476 799.4102,-512"/>
<text text-anchor="middle" x="681" y="-489.8" font-family="Helvetica,sans-Serif" font-size="14.00" fill="#000000">Hendrik van Mecklenburg&#45;Schwerin</text>
</g>
<!-- Hendrik van Mecklenburg&#45;Schwerin&#45;&#45;4 -->
<g id="edge24" class="edge">
<title>Hendrik van Mecklenburg&#45;Schwerin&#45;&#45;4</title>
<path fill="none" stroke="#000000" d="M630.814,-475.9644C590.4897,-461.4729 538.3724,-442.7432 524.5118,-437.7621"/>
</g>
<!-- Juliana -->
<g id="node21" class="node">
<title>Juliana</title>
<polygon fill="#ffa500" stroke="#000000" points="551.3446,-397 490.6554,-397 490.6554,-361 551.3446,-361 551.3446,-397"/>
<text text-anchor="middle" x="521" y="-374.8" font-family="Helvetica,sans-Serif" font-size="14.00" fill="#000000">Juliana</text>
</g>
<!-- 3 -->
<g id="node31" class="node">
<title>3</title>
<ellipse fill="none" stroke="#000000" cx="559" cy="-321.5" rx="3.5" ry="3.5"/>
<text text-anchor="middle" x="559" y="-321.2" font-family="Helvetica,sans-Serif" font-size="1.00" fill="#ffffff">3</text>
</g>
<!-- Juliana&#45;&#45;3 -->
<g id="edge26" class="edge">
<title>Juliana&#45;&#45;3</title>
<path fill="none" stroke="#000000" d="M533.0234,-360.8066C541.7209,-347.6459 552.6834,-331.058 557.0633,-324.4305"/>
</g>
<!-- Bernhard van Lippe&#45;Biesterfeld -->
<g id="node22" class="node">
<title>Bernhard van Lippe&#45;Biesterfeld</title>
<polygon fill="none" stroke="#000000" points="778.4368,-397 569.5632,-397 569.5632,-361 778.4368,-361 778.4368,-397"/>
<text text-anchor="middle" x="674" y="-374.8" font-family="Helvetica,sans-Serif" font-size="14.00" fill="#000000">Bernhard van Lippe&#45;Biesterfeld</text>
</g>
<!-- Bernhard van Lippe&#45;Biesterfeld&#45;&#45;3 -->
<g id="edge27" class="edge">
<title>Bernhard van Lippe&#45;Biesterfeld&#45;&#45;3</title>
<path fill="none" stroke="#000000" d="M637.9288,-360.9644C609.7362,-346.8681 573.5233,-328.7617 562.3998,-323.1999"/>
</g>
<!-- Beatrix -->
<g id="node23" class="node">
<title>Beatrix</title>
<polygon fill="#ffa500" stroke="#000000" points="588.5612,-282 529.4388,-282 529.4388,-246 588.5612,-246 588.5612,-282"/>
<text text-anchor="middle" x="559" y="-259.8" font-family="Helvetica,sans-Serif" font-size="14.00" fill="#000000">Beatrix</text>
</g>
<!-- 2 -->
<g id="node30" class="node">
<title>2</title>
<ellipse fill="none" stroke="#000000" cx="617" cy="-206.5" rx="3.5" ry="3.5"/>
<text text-anchor="middle" x="617" y="-206.2" font-family="Helvetica,sans-Serif" font-size="1.00" fill="#ffffff">2</text>
</g>
<!-- Beatrix&#45;&#45;2 -->
<g id="edge29" class="edge">
<title>Beatrix&#45;&#45;2</title>
<path fill="none" stroke="#000000" d="M577.3516,-245.8066C590.8922,-232.3827 608.0296,-215.3931 614.433,-209.0449"/>
</g>
<!-- Claus van Amsberg -->
<g id="node24" class="node">
<title>Claus van Amsberg</title>
<polygon fill="none" stroke="#000000" points="745.1305,-282 606.8695,-282 606.8695,-246 745.1305,-246 745.1305,-282"/>
<text text-anchor="middle" x="676" y="-259.8" font-family="Helvetica,sans-Serif" font-size="14.00" fill="#000000">Claus van Amsberg</text>
</g>
<!-- Claus van Amsberg&#45;&#45;2 -->
<g id="edge30" class="edge">
<title>Claus van Amsberg&#45;&#45;2</title>
<path fill="none" stroke="#000000" d="M657.332,-245.8066C643.5579,-232.3827 626.1251,-215.3931 619.6113,-209.0449"/>
</g>
<!-- Máxima Zorreguieta -->
<g id="node25" class="node">
<title>Máxima Zorreguieta</title>
<polygon fill="none" stroke="#000000" points="839.9888,-167 698.0112,-167 698.0112,-131 839.9888,-131 839.9888,-167"/>
<text text-anchor="middle" x="769" y="-144.8" font-family="Helvetica,sans-Serif" font-size="14.00" fill="#000000">Máxima Zorreguieta</text>
</g>
<!-- 1 -->
<g id="node29" class="node">
<title>1</title>
<ellipse fill="none" stroke="#000000" cx="693" cy="-91.5" rx="3.5" ry="3.5"/>
<text text-anchor="middle" x="693" y="-91.2" font-family="Helvetica,sans-Serif" font-size="1.00" fill="#ffffff">1</text>
</g>
<!-- Máxima Zorreguieta&#45;&#45;1 -->
<g id="edge32" class="edge">
<title>Máxima Zorreguieta&#45;&#45;1</title>
<path fill="none" stroke="#000000" d="M744.9531,-130.8066C726.8623,-117.1195 703.8719,-99.7254 695.8865,-93.6839"/>
</g>
<!-- Willem&#45;Alexander -->
<g id="node26" class="node">
<title>Willem&#45;Alexander</title>
<polygon fill="#ffa500" stroke="#000000" points="679.6555,-167 554.3445,-167 554.3445,-131 679.6555,-131 679.6555,-167"/>
<text text-anchor="middle" x="617" y="-144.8" font-family="Helvetica,sans-Serif" font-size="14.00" fill="#000000">Willem&#45;Alexander</text>
</g>
<!-- Willem&#45;Alexander&#45;&#45;1 -->
<g id="edge33" class="edge">
<title>Willem&#45;Alexander&#45;&#45;1</title>
<path fill="none" stroke="#000000" d="M641.0469,-130.8066C659.1377,-117.1195 682.1281,-99.7254 690.1135,-93.6839"/>
</g>
<!-- Catharina&#45;Amalia -->
<g id="node27" class="node">
<title>Catharina&#45;Amalia</title>
<polygon fill="none" stroke="#000000" stroke-dasharray="1,5" points="755.1137,-52 630.8863,-52 630.8863,-16 755.1137,-16 755.1137,-52"/>
<text text-anchor="middle" x="693" y="-29.8" font-family="Helvetica,sans-Serif" font-size="14.00" fill="#000000">Catharina&#45;Amalia</text>
</g>
<!-- Huis Oranje&#45;Nassau -->
<g id="node28" class="node">
<title>Huis Oranje&#45;Nassau</title>
<text text-anchor="middle" x="574" y="-1029.6" font-family="Helvetica,sans-Serif" font-size="40.00" fill="#000000">Huis Oranje&#45;Nassau</text>
</g>
<!-- Huis Oranje&#45;Nassau&#45;&#45;Willem V van Oranje&#45;Nassau -->
<!-- Huis Oranje&#45;Nassau&#45;&#45;Wilhelmina van Pruisen (1751&#45;1820) -->
<!-- 1&#45;&#45;Catharina&#45;Amalia -->
<g id="edge34" class="edge">
<title>1&#45;&#45;Catharina&#45;Amalia</title>
<path fill="none" stroke="#000000" stroke-dasharray="1,5" d="M693,-87.7273C693,-80.6316 693,-64.877 693,-52.2526"/>
</g>
<!-- 2&#45;&#45;Willem&#45;Alexander -->
<g id="edge31" class="edge">
<title>2&#45;&#45;Willem&#45;Alexander</title>
<path fill="none" stroke="#000000" d="M617,-202.7273C617,-195.6316 617,-179.877 617,-167.2526"/>
</g>
<!-- 3&#45;&#45;Beatrix -->
<g id="edge28" class="edge">
<title>3&#45;&#45;Beatrix</title>
<path fill="none" stroke="#000000" d="M559,-317.7273C559,-310.6316 559,-294.877 559,-282.2526"/>
</g>
<!-- 4&#45;&#45;Juliana -->
<g id="edge25" class="edge">
<title>4&#45;&#45;Juliana</title>
<path fill="none" stroke="#000000" d="M521,-432.7273C521,-425.6316 521,-409.877 521,-397.2526"/>
</g>
<!-- 5&#45;&#45;Wilhelmina -->
<g id="edge22" class="edge">
<title>5&#45;&#45;Wilhelmina</title>
<path fill="none" stroke="#000000" d="M502,-547.7273C502,-540.6316 502,-524.877 502,-512.2526"/>
</g>
<!-- 6&#45;&#45;Willem III -->
<g id="edge19" class="edge">
<title>6&#45;&#45;Willem III</title>
<path fill="none" stroke="#000000" d="M492,-668.5085C492,-661.0543 492,-643.4625 492,-629.8333"/>
</g>
<!-- 8&#45;&#45;Willem I -->
<g id="edge13" class="edge">
<title>8&#45;&#45;Willem I</title>
<path fill="none" stroke="#000000" d="M485,-898.3273C485,-891.2316 485,-875.477 485,-862.8526"/>
</g>
<!-- 7&#45;&#45;Willem II -->
<g id="edge16" class="edge">
<title>7&#45;&#45;Willem II</title>
<path fill="none" stroke="#000000" d="M487,-783.3273C487,-776.2316 487,-760.477 487,-747.8526"/>
</g>
<!-- Monarchie in Nederland -->
<g id="node37" class="node">
<title>Monarchie in Nederland</title>
<text text-anchor="middle" x="395" y="-1130.6" font-family="Helvetica,Arial,sans-serif" font-size="70.00" fill="#000000">Monarchie in Nederland</text>
</g>
<!-- Monarchie in Nederland&#45;&#45;Huis Bonaparte -->
<!-- Monarchie in Nederland&#45;&#45;Huis Oranje&#45;Nassau -->
</g>
</svg>

