<?xml version="1.0" encoding="UTF-8" standalone="no"?>
<!DOCTYPE svg PUBLIC "-//W3C//DTD SVG 1.1//EN"
 "http://www.w3.org/Graphics/SVG/1.1/DTD/svg11.dtd">
<!-- Generated by graphviz version 2.40.1 (20161225.0304)
 -->
<!-- Title: Monarchie_in_Nederland Pages: 1 -->
<svg width="866pt" height="996pt"
 viewBox="0.00 0.00 866.00 996.00" xmlns="http://www.w3.org/2000/svg" xmlns:xlink="http://www.w3.org/1999/xlink">
<g id="graph0" class="graph" transform="scale(1 1) rotate(0) translate(4 992)">
<title>Monarchie_in_Nederland</title>
<polygon fill="#ffffff" stroke="transparent" points="-4,4 -4,-992 862,-992 862,4 -4,4"/>
<g id="clust1" class="cluster">
<title>cluster1</title>
<polygon fill="none" stroke="#000000" points="8,-655 8,-980 370,-980 370,-655 8,-655"/>
</g>
<g id="clust2" class="cluster">
<title>cluster2</title>
<polygon fill="none" stroke="#000000" points="378,-8 378,-980 850,-980 850,-8 378,-8"/>
</g>
<!-- Carlo Maria Buonaparte -->
<g id="node1" class="node">
<title>Carlo Maria Buonaparte</title>
<polygon fill="none" stroke="#000000" points="362.0797,-972 197.9203,-972 197.9203,-936 362.0797,-936 362.0797,-972"/>
<text text-anchor="middle" x="280" y="-949.8" font-family="Helvetica,sans-Serif" font-size="14.00" fill="#000000">Carlo Maria Buonaparte</text>
</g>
<!-- 13 -->
<g id="node9" class="node">
<title>13</title>
<ellipse fill="none" stroke="#000000" cx="263" cy="-896.5" rx="3.5" ry="3.5"/>
<text text-anchor="middle" x="263" y="-896.2" font-family="Helvetica,sans-Serif" font-size="1.00" fill="#ffffff">13</text>
</g>
<!-- Carlo Maria Buonaparte&#45;&#45;13 -->
<g id="edge1" class="edge">
<title>Carlo Maria Buonaparte&#45;&#45;13</title>
<path fill="none" stroke="#000000" d="M274.6211,-935.8066C270.8857,-923.1724 266.2166,-907.3795 264.1154,-900.2727"/>
</g>
<!-- Maria Laetitia Ramolino -->
<g id="node2" class="node">
<title>Maria Laetitia Ramolino</title>
<polygon fill="none" stroke="#000000" points="179.5098,-972 16.4902,-972 16.4902,-936 179.5098,-936 179.5098,-972"/>
<text text-anchor="middle" x="98" y="-949.8" font-family="Helvetica,sans-Serif" font-size="14.00" fill="#000000">Maria Laetitia Ramolino</text>
</g>
<!-- Maria Laetitia Ramolino&#45;&#45;13 -->
<g id="edge2" class="edge">
<title>Maria Laetitia Ramolino&#45;&#45;13</title>
<path fill="none" stroke="#000000" d="M149.7543,-935.9644C191.3387,-921.4729 245.0847,-902.7432 259.3785,-897.7621"/>
</g>
<!-- Lodewijk I -->
<g id="node3" class="node">
<title>Lodewijk I</title>
<polygon fill="#00bfff" stroke="#000000" points="302.2317,-857 223.7683,-857 223.7683,-821 302.2317,-821 302.2317,-857"/>
<text text-anchor="middle" x="263" y="-834.8" font-family="Helvetica,sans-Serif" font-size="14.00" fill="#000000">Lodewijk I</text>
</g>
<!-- 12 -->
<g id="node8" class="node">
<title>12</title>
<ellipse fill="none" stroke="#000000" cx="240" cy="-781.5" rx="3.5" ry="3.5"/>
<text text-anchor="middle" x="240" y="-781.2" font-family="Helvetica,sans-Serif" font-size="1.00" fill="#ffffff">12</text>
</g>
<!-- Lodewijk I&#45;&#45;12 -->
<g id="edge4" class="edge">
<title>Lodewijk I&#45;&#45;12</title>
<path fill="none" stroke="#000000" d="M255.7227,-820.8066C250.5637,-807.9091 244.088,-791.7201 241.336,-784.84"/>
</g>
<!-- Hortense de Beauharnais -->
<g id="node4" class="node">
<title>Hortense de Beauharnais</title>
<polygon fill="none" stroke="#000000" points="206.2168,-857 31.7832,-857 31.7832,-821 206.2168,-821 206.2168,-857"/>
<text text-anchor="middle" x="119" y="-834.8" font-family="Helvetica,sans-Serif" font-size="14.00" fill="#000000">Hortense de Beauharnais</text>
</g>
<!-- Hortense de Beauharnais&#45;&#45;12 -->
<g id="edge5" class="edge">
<title>Hortense de Beauharnais&#45;&#45;12</title>
<path fill="none" stroke="#000000" d="M156.9532,-820.9644C186.8939,-806.7364 225.4319,-788.4229 236.744,-783.0473"/>
</g>
<!-- Lodewijk II -->
<g id="node5" class="node">
<title>Lodewijk II</title>
<polygon fill="#00bfff" stroke="#000000" points="281.1221,-742 198.8779,-742 198.8779,-706 281.1221,-706 281.1221,-742"/>
<text text-anchor="middle" x="240" y="-719.8" font-family="Helvetica,sans-Serif" font-size="14.00" fill="#000000">Lodewijk II</text>
</g>
<!-- 11 -->
<g id="node7" class="node">
<title>11</title>
<ellipse fill="none" stroke="#000000" cx="175" cy="-666.5" rx="3.5" ry="3.5"/>
<text text-anchor="middle" x="175" y="-666.2" font-family="Helvetica,sans-Serif" font-size="1.00" fill="#ffffff">11</text>
</g>
<!-- Lodewijk II&#45;&#45;11 -->
<g id="edge7" class="edge">
<title>Lodewijk II&#45;&#45;11</title>
<path fill="none" stroke="#000000" d="M219.4336,-705.8066C204.2587,-692.3827 185.053,-675.3931 177.8768,-669.0449"/>
</g>
<!-- Charlotte Bonaparte -->
<g id="node6" class="node">
<title>Charlotte Bonaparte</title>
<polygon fill="none" stroke="#000000" points="180.7596,-742 39.2404,-742 39.2404,-706 180.7596,-706 180.7596,-742"/>
<text text-anchor="middle" x="110" y="-719.8" font-family="Helvetica,sans-Serif" font-size="14.00" fill="#000000">Charlotte Bonaparte</text>
</g>
<!-- Charlotte Bonaparte&#45;&#45;11 -->
<g id="edge8" class="edge">
<title>Charlotte Bonaparte&#45;&#45;11</title>
<path fill="none" stroke="#000000" d="M130.5664,-705.8066C145.7413,-692.3827 164.947,-675.3931 172.1232,-669.0449"/>
</g>
<!-- 12&#45;&#45;Lodewijk II -->
<g id="edge6" class="edge">
<title>12&#45;&#45;Lodewijk II</title>
<path fill="none" stroke="#000000" d="M240,-777.7273C240,-770.6316 240,-754.877 240,-742.2526"/>
</g>
<!-- 13&#45;&#45;Lodewijk I -->
<g id="edge3" class="edge">
<title>13&#45;&#45;Lodewijk I</title>
<path fill="none" stroke="#000000" d="M263,-892.7273C263,-885.6316 263,-869.877 263,-857.2526"/>
</g>
<!-- Willem V van Oranje&#45;Nassau -->
<g id="node10" class="node">
<title>Willem V van Oranje&#45;Nassau</title>
<polygon fill="none" stroke="#000000" points="841.6721,-972 646.3279,-972 646.3279,-936 841.6721,-936 841.6721,-972"/>
<text text-anchor="middle" x="744" y="-949.8" font-family="Helvetica,sans-Serif" font-size="14.00" fill="#000000">Willem V van Oranje&#45;Nassau</text>
</g>
<!-- 8 -->
<g id="node33" class="node">
<title>8</title>
<ellipse fill="none" stroke="#000000" cx="740" cy="-896.5" rx="3.5" ry="3.5"/>
<text text-anchor="middle" x="740" y="-896.2" font-family="Helvetica,sans-Serif" font-size="1.00" fill="#ffffff">8</text>
</g>
<!-- Willem V van Oranje&#45;Nassau&#45;&#45;8 -->
<g id="edge9" class="edge">
<title>Willem V van Oranje&#45;Nassau&#45;&#45;8</title>
<path fill="none" stroke="#000000" d="M742.7344,-935.8066C741.8555,-923.1724 740.7568,-907.3795 740.2625,-900.2727"/>
</g>
<!-- Wilhelmina van Pruisen (1751&#45;1820) -->
<g id="node11" class="node">
<title>Wilhelmina van Pruisen (1751&#45;1820)</title>
<polygon fill="none" stroke="#000000" points="628.3635,-972 385.6365,-972 385.6365,-936 628.3635,-936 628.3635,-972"/>
<text text-anchor="middle" x="507" y="-949.8" font-family="Helvetica,sans-Serif" font-size="14.00" fill="#000000">Wilhelmina van Pruisen (1751&#45;1820)</text>
</g>
<!-- Wilhelmina van Pruisen (1751&#45;1820)&#45;&#45;8 -->
<g id="edge10" class="edge">
<title>Wilhelmina van Pruisen (1751&#45;1820)&#45;&#45;8</title>
<path fill="none" stroke="#000000" d="M580.0834,-935.9644C640.4071,-921.0777 718.854,-901.7184 736.4116,-897.3855"/>
</g>
<!-- Willem I -->
<g id="node12" class="node">
<title>Willem I</title>
<polygon fill="#ffa500" stroke="#000000" points="772.7592,-857 707.2408,-857 707.2408,-821 772.7592,-821 772.7592,-857"/>
<text text-anchor="middle" x="740" y="-834.8" font-family="Helvetica,sans-Serif" font-size="14.00" fill="#000000">Willem I</text>
</g>
<!-- 7 -->
<g id="node34" class="node">
<title>7</title>
<ellipse fill="none" stroke="#000000" cx="710" cy="-781.5" rx="3.5" ry="3.5"/>
<text text-anchor="middle" x="710" y="-781.2" font-family="Helvetica,sans-Serif" font-size="1.00" fill="#ffffff">7</text>
</g>
<!-- Willem I&#45;&#45;7 -->
<g id="edge12" class="edge">
<title>Willem I&#45;&#45;7</title>
<path fill="none" stroke="#000000" d="M730.5078,-820.8066C723.7787,-807.9091 715.3322,-791.7201 711.7426,-784.84"/>
</g>
<!-- Wilhelmina van Pruisen (1774&#45;1837) -->
<g id="node13" class="node">
<title>Wilhelmina van Pruisen (1774&#45;1837)</title>
<polygon fill="none" stroke="#000000" points="689.3635,-857 446.6365,-857 446.6365,-821 689.3635,-821 689.3635,-857"/>
<text text-anchor="middle" x="568" y="-834.8" font-family="Helvetica,sans-Serif" font-size="14.00" fill="#000000">Wilhelmina van Pruisen (1774&#45;1837)</text>
</g>
<!-- Wilhelmina van Pruisen (1774&#45;1837)&#45;&#45;7 -->
<g id="edge13" class="edge">
<title>Wilhelmina van Pruisen (1774&#45;1837)&#45;&#45;7</title>
<path fill="none" stroke="#000000" d="M612.5401,-820.9644C648.0025,-806.6046 693.7419,-788.0834 706.5394,-782.9013"/>
</g>
<!-- Willem II -->
<g id="node14" class="node">
<title>Willem II</title>
<polygon fill="#ffa500" stroke="#000000" points="744.6503,-742 675.3497,-742 675.3497,-706 744.6503,-706 744.6503,-742"/>
<text text-anchor="middle" x="710" y="-719.8" font-family="Helvetica,sans-Serif" font-size="14.00" fill="#000000">Willem II</text>
</g>
<!-- 6 -->
<g id="node32" class="node">
<title>6</title>
<ellipse fill="none" stroke="#000000" cx="706" cy="-666.5" rx="3.5" ry="3.5"/>
<text text-anchor="middle" x="706" y="-666.2" font-family="Helvetica,sans-Serif" font-size="1.00" fill="#ffffff">6</text>
</g>
<!-- Willem II&#45;&#45;6 -->
<g id="edge15" class="edge">
<title>Willem II&#45;&#45;6</title>
<path fill="none" stroke="#000000" d="M708.7344,-705.8066C707.8555,-693.1724 706.7568,-677.3795 706.2625,-670.2727"/>
</g>
<!-- Anna Paulowna van Rusland -->
<g id="node15" class="node">
<title>Anna Paulowna van Rusland</title>
<polygon fill="none" stroke="#000000" points="656.728,-742 461.272,-742 461.272,-706 656.728,-706 656.728,-742"/>
<text text-anchor="middle" x="559" y="-719.8" font-family="Helvetica,sans-Serif" font-size="14.00" fill="#000000">Anna Paulowna van Rusland</text>
</g>
<!-- Anna Paulowna van Rusland&#45;&#45;6 -->
<g id="edge16" class="edge">
<title>Anna Paulowna van Rusland&#45;&#45;6</title>
<path fill="none" stroke="#000000" d="M605.1084,-705.9644C641.8195,-691.6046 689.1694,-673.0834 702.4176,-667.9013"/>
</g>
<!-- Willem III -->
<g id="node16" class="node">
<title>Willem III</title>
<polygon fill="#ffa500" stroke="#000000" points="742.5414,-627 669.4586,-627 669.4586,-591 742.5414,-591 742.5414,-627"/>
<text text-anchor="middle" x="706" y="-604.8" font-family="Helvetica,sans-Serif" font-size="14.00" fill="#000000">Willem III</text>
</g>
<!-- 5 -->
<g id="node31" class="node">
<title>5</title>
<ellipse fill="none" stroke="#000000" cx="698" cy="-551.5" rx="3.5" ry="3.5"/>
<text text-anchor="middle" x="698" y="-551.2" font-family="Helvetica,sans-Serif" font-size="1.00" fill="#ffffff">5</text>
</g>
<!-- Willem III&#45;&#45;5 -->
<g id="edge19" class="edge">
<title>Willem III&#45;&#45;5</title>
<path fill="none" stroke="#000000" d="M703.4688,-590.8066C701.7109,-578.1724 699.5137,-562.3795 698.5249,-555.2727"/>
</g>
<!-- Emma van Waldeck&#45;Pyrmont -->
<g id="node17" class="node">
<title>Emma van Waldeck&#45;Pyrmont</title>
<polygon fill="none" stroke="#000000" points="651.7301,-627 454.2699,-627 454.2699,-591 651.7301,-591 651.7301,-627"/>
<text text-anchor="middle" x="553" y="-604.8" font-family="Helvetica,sans-Serif" font-size="14.00" fill="#000000">Emma van Waldeck&#45;Pyrmont</text>
</g>
<!-- Emma van Waldeck&#45;Pyrmont&#45;&#45;5 -->
<g id="edge18" class="edge">
<title>Emma van Waldeck&#45;Pyrmont&#45;&#45;5</title>
<path fill="none" stroke="#000000" d="M598.4811,-590.9644C634.6927,-576.6046 681.3984,-558.0834 694.4663,-552.9013"/>
</g>
<!-- Wilhelmina -->
<g id="node18" class="node">
<title>Wilhelmina</title>
<polygon fill="#ffa500" stroke="#000000" points="740.4331,-512 655.5669,-512 655.5669,-476 740.4331,-476 740.4331,-512"/>
<text text-anchor="middle" x="698" y="-489.8" font-family="Helvetica,sans-Serif" font-size="14.00" fill="#000000">Wilhelmina</text>
</g>
<!-- 4 -->
<g id="node30" class="node">
<title>4</title>
<ellipse fill="none" stroke="#000000" cx="670" cy="-436.5" rx="3.5" ry="3.5"/>
<text text-anchor="middle" x="670" y="-436.2" font-family="Helvetica,sans-Serif" font-size="1.00" fill="#ffffff">4</text>
</g>
<!-- Wilhelmina&#45;&#45;4 -->
<g id="edge21" class="edge">
<title>Wilhelmina&#45;&#45;4</title>
<path fill="none" stroke="#000000" d="M689.1406,-475.8066C682.8601,-462.9091 674.9767,-446.7201 671.6264,-439.84"/>
</g>
<!-- Hendrik van Mecklenburg&#45;Schwerin -->
<g id="node19" class="node">
<title>Hendrik van Mecklenburg&#45;Schwerin</title>
<polygon fill="none" stroke="#000000" points="637.4102,-512 400.5898,-512 400.5898,-476 637.4102,-476 637.4102,-512"/>
<text text-anchor="middle" x="519" y="-489.8" font-family="Helvetica,sans-Serif" font-size="14.00" fill="#000000">Hendrik van Mecklenburg&#45;Schwerin</text>
</g>
<!-- Hendrik van Mecklenburg&#45;Schwerin&#45;&#45;4 -->
<g id="edge22" class="edge">
<title>Hendrik van Mecklenburg&#45;Schwerin&#45;&#45;4</title>
<path fill="none" stroke="#000000" d="M566.363,-475.9644C604.4191,-461.4729 653.6048,-442.7432 666.6857,-437.7621"/>
</g>
<!-- Juliana -->
<g id="node20" class="node">
<title>Juliana</title>
<polygon fill="#ffa500" stroke="#000000" points="700.3446,-397 639.6554,-397 639.6554,-361 700.3446,-361 700.3446,-397"/>
<text text-anchor="middle" x="670" y="-374.8" font-family="Helvetica,sans-Serif" font-size="14.00" fill="#000000">Juliana</text>
</g>
<!-- 3 -->
<g id="node29" class="node">
<title>3</title>
<ellipse fill="none" stroke="#000000" cx="654" cy="-321.5" rx="3.5" ry="3.5"/>
<text text-anchor="middle" x="654" y="-321.2" font-family="Helvetica,sans-Serif" font-size="1.00" fill="#ffffff">3</text>
</g>
<!-- Juliana&#45;&#45;3 -->
<g id="edge24" class="edge">
<title>Juliana&#45;&#45;3</title>
<path fill="none" stroke="#000000" d="M664.9375,-360.8066C661.4219,-348.1724 657.0273,-332.3795 655.0498,-325.2727"/>
</g>
<!-- Bernhard van Lippe&#45;Biesterfeld -->
<g id="node21" class="node">
<title>Bernhard van Lippe&#45;Biesterfeld</title>
<polygon fill="none" stroke="#000000" points="621.4368,-397 412.5632,-397 412.5632,-361 621.4368,-361 621.4368,-397"/>
<text text-anchor="middle" x="517" y="-374.8" font-family="Helvetica,sans-Serif" font-size="14.00" fill="#000000">Bernhard van Lippe&#45;Biesterfeld</text>
</g>
<!-- Bernhard van Lippe&#45;Biesterfeld&#45;&#45;3 -->
<g id="edge25" class="edge">
<title>Bernhard van Lippe&#45;Biesterfeld&#45;&#45;3</title>
<path fill="none" stroke="#000000" d="M559.9718,-360.9644C594.1855,-346.6046 638.3144,-328.0834 650.6613,-322.9013"/>
</g>
<!-- Beatrix -->
<g id="node22" class="node">
<title>Beatrix</title>
<polygon fill="#ffa500" stroke="#000000" points="683.5612,-282 624.4388,-282 624.4388,-246 683.5612,-246 683.5612,-282"/>
<text text-anchor="middle" x="654" y="-259.8" font-family="Helvetica,sans-Serif" font-size="14.00" fill="#000000">Beatrix</text>
</g>
<!-- 2 -->
<g id="node28" class="node">
<title>2</title>
<ellipse fill="none" stroke="#000000" cx="639" cy="-206.5" rx="3.5" ry="3.5"/>
<text text-anchor="middle" x="639" y="-206.2" font-family="Helvetica,sans-Serif" font-size="1.00" fill="#ffffff">2</text>
</g>
<!-- Beatrix&#45;&#45;2 -->
<g id="edge27" class="edge">
<title>Beatrix&#45;&#45;2</title>
<path fill="none" stroke="#000000" d="M649.2539,-245.8066C645.958,-233.1724 641.8381,-217.3795 639.9842,-210.2727"/>
</g>
<!-- Claus van Amsberg -->
<g id="node23" class="node">
<title>Claus van Amsberg</title>
<polygon fill="none" stroke="#000000" points="606.1305,-282 467.8695,-282 467.8695,-246 606.1305,-246 606.1305,-282"/>
<text text-anchor="middle" x="537" y="-259.8" font-family="Helvetica,sans-Serif" font-size="14.00" fill="#000000">Claus van Amsberg</text>
</g>
<!-- Claus van Amsberg&#45;&#45;2 -->
<g id="edge28" class="edge">
<title>Claus van Amsberg&#45;&#45;2</title>
<path fill="none" stroke="#000000" d="M568.9936,-245.9644C593.7655,-231.9998 625.5187,-214.0998 635.7021,-208.3591"/>
</g>
<!-- Máxima Zorreguieta -->
<g id="node24" class="node">
<title>Máxima Zorreguieta</title>
<polygon fill="none" stroke="#000000" points="557.9888,-167 416.0112,-167 416.0112,-131 557.9888,-131 557.9888,-167"/>
<text text-anchor="middle" x="487" y="-144.8" font-family="Helvetica,sans-Serif" font-size="14.00" fill="#000000">Máxima Zorreguieta</text>
</g>
<!-- 1 -->
<g id="node27" class="node">
<title>1</title>
<ellipse fill="none" stroke="#000000" cx="563" cy="-91.5" rx="3.5" ry="3.5"/>
<text text-anchor="middle" x="563" y="-91.2" font-family="Helvetica,sans-Serif" font-size="1.00" fill="#ffffff">1</text>
</g>
<!-- Máxima Zorreguieta&#45;&#45;1 -->
<g id="edge30" class="edge">
<title>Máxima Zorreguieta&#45;&#45;1</title>
<path fill="none" stroke="#000000" d="M511.0469,-130.8066C529.1377,-117.1195 552.1281,-99.7254 560.1135,-93.6839"/>
</g>
<!-- Willem&#45;Alexander -->
<g id="node25" class="node">
<title>Willem&#45;Alexander</title>
<polygon fill="#ffa500" stroke="#000000" points="701.6555,-167 576.3445,-167 576.3445,-131 701.6555,-131 701.6555,-167"/>
<text text-anchor="middle" x="639" y="-144.8" font-family="Helvetica,sans-Serif" font-size="14.00" fill="#000000">Willem&#45;Alexander</text>
</g>
<!-- Willem&#45;Alexander&#45;&#45;1 -->
<g id="edge31" class="edge">
<title>Willem&#45;Alexander&#45;&#45;1</title>
<path fill="none" stroke="#000000" d="M614.9531,-130.8066C596.8623,-117.1195 573.8719,-99.7254 565.8865,-93.6839"/>
</g>
<!-- Catharina&#45;Amalia -->
<g id="node26" class="node">
<title>Catharina&#45;Amalia</title>
<polygon fill="none" stroke="#000000" stroke-dasharray="1,5" points="625.1137,-52 500.8863,-52 500.8863,-16 625.1137,-16 625.1137,-52"/>
<text text-anchor="middle" x="563" y="-29.8" font-family="Helvetica,sans-Serif" font-size="14.00" fill="#000000">Catharina&#45;Amalia</text>
</g>
<!-- 1&#45;&#45;Catharina&#45;Amalia -->
<g id="edge32" class="edge">
<title>1&#45;&#45;Catharina&#45;Amalia</title>
<path fill="none" stroke="#000000" stroke-dasharray="1,5" d="M563,-87.7273C563,-80.6316 563,-64.877 563,-52.2526"/>
</g>
<!-- 2&#45;&#45;Willem&#45;Alexander -->
<g id="edge29" class="edge">
<title>2&#45;&#45;Willem&#45;Alexander</title>
<path fill="none" stroke="#000000" d="M639,-202.7273C639,-195.6316 639,-179.877 639,-167.2526"/>
</g>
<!-- 3&#45;&#45;Beatrix -->
<g id="edge26" class="edge">
<title>3&#45;&#45;Beatrix</title>
<path fill="none" stroke="#000000" d="M654,-317.7273C654,-310.6316 654,-294.877 654,-282.2526"/>
</g>
<!-- 4&#45;&#45;Juliana -->
<g id="edge23" class="edge">
<title>4&#45;&#45;Juliana</title>
<path fill="none" stroke="#000000" d="M670,-432.7273C670,-425.6316 670,-409.877 670,-397.2526"/>
</g>
<!-- 5&#45;&#45;Wilhelmina -->
<g id="edge20" class="edge">
<title>5&#45;&#45;Wilhelmina</title>
<path fill="none" stroke="#000000" d="M698,-547.7273C698,-540.6316 698,-524.877 698,-512.2526"/>
</g>
<!-- 6&#45;&#45;Willem III -->
<g id="edge17" class="edge">
<title>6&#45;&#45;Willem III</title>
<path fill="none" stroke="#000000" d="M706,-662.7273C706,-655.6316 706,-639.877 706,-627.2526"/>
</g>
<!-- 8&#45;&#45;Willem I -->
<g id="edge11" class="edge">
<title>8&#45;&#45;Willem I</title>
<path fill="none" stroke="#000000" d="M740,-892.7273C740,-885.6316 740,-869.877 740,-857.2526"/>
</g>
<!-- 7&#45;&#45;Willem II -->
<g id="edge14" class="edge">
<title>7&#45;&#45;Willem II</title>
<path fill="none" stroke="#000000" d="M710,-777.7273C710,-770.6316 710,-754.877 710,-742.2526"/>
</g>
</g>
</svg>

