<?xml version="1.0" encoding="UTF-8"?>
<svg width="752pt" height="752pt" version="1.1" viewBox="0 0 752 752" xmlns="http://www.w3.org/2000/svg">
 <g>
  <path d="m278.36 384.84c6.8203 5.8164 14.176 11.031 21.969 15.512 4.082 2.4141 8.3633 4.4844 12.762 6.293-3.4375-0.027343-6.875-0.046875-10.363 0.125-2.7852 0.20312-5.5547 0.47266-8.3867 0.94531-1.4336 0.26562-2.8359 0.51172-4.4453 1.0898-0.47266 0.22266-0.82422 0.31641-1.3828 0.67578-0.28906 0.19922-0.57422 0.41016-0.83984 0.64062-0.33984 0.33203-0.76172 1.0391-0.93359 1.6211-0.16016 0.60937-0.027343 1.5117 0.24609 2.1641 0.17969 0.38672 0.20703 0.37891 0.32031 0.58594l0.55859 0.9375c6.1758 10.027 16.395 16.395 26.605 20.531 8.7383 3.5664 17.977 5.8242 27.363 6.6211-3.9219 1.8516-8.0195 3.3633-12.223 4.4805-1.457 0.39453-2.9297 0.73047-4.4141 1.0234l-2.2305 0.40625c-0.80078 0.24609-1.5898 0.066406-2.7461 1.1367-0.31641 0.28125-0.39844 0.85547-0.27344 1.3867 0.13672 0.34766 0.33594 0.60156 0.53125 0.83203 0.35938 0.33203 0.73047 0.625 1.0859 0.82812 0.71484 0.46094 1.4297 0.78906 2.1484 1.1289 1.4414 0.64844 2.8906 1.1875 4.3555 1.6953 5.9023 2.0547 12.105 2.8125 18.227 3.1875l18.391 0.69922c-12.137-1.2656-24.715-1.0117-36.074-5.4023-1.4102-0.53906-2.8164-1.1172-4.1523-1.7773-0.66016-0.33594-1.3242-0.67578-1.8867-1.0664-0.23047-0.14062-0.38281-0.28906-0.54297-0.4375 0.63281-0.17969 2.3633-0.38672 3.543-0.58594 1.5352-0.25 3.0586-0.55078 4.5742-0.89844 6.0664-1.3984 11.969-3.5547 17.52-6.4297 0.42578-0.22266 0.73047-0.66016 0.76172-1.1758 0.042969-0.78125-0.55469-1.4492-1.332-1.4922l-0.058594-0.003906c-10.703-0.60547-21.258-3.3984-31.012-7.7695-9.5977-4.2227-18.371-10.418-23.668-19.035 0.85156-0.22656 1.8086-0.41797 2.7812-0.56641 2.5625-0.375 5.2383-0.58203 7.9023-0.72266 5.3242-0.14063 10.785 0.18359 16.16 0.25 5.3945-0.015626 10.797 0.49219 16.203 1l0.44531 0.039062c5.3281 0.83984 10.723 1.2578 16.102 1.4062h0.050781c1.668 0.042969 3.082-1.2344 3.1953-2.9141 0.11719-1.7227-1.1836-3.2109-2.9062-3.3281l-3.3828-0.22656c-7.3945-0.50391-14.762-1.4688-21.828-3.8359-8.0117-2.5938-15.855-5.9062-23.074-10.391-7.2656-4.375-14.125-9.4531-20.492-15.105-1.6992-1.5312-3.3867-3.1016-5.043-4.707 4.8789 1.6758 9.8555 3.0312 14.902 4.0156 5.6562 1.1367 11.387 1.8516 17.145 2.1602 5.8125 0.30469 11.414 0.29297 17.512-0.39453 1.9844-0.22266 3.6055-1.8203 3.7773-3.8828 0.19922-2.3555-1.543-4.4219-3.8984-4.6211l-0.28125-0.023437c-7.0703-0.60156-14.086-2.1211-20.77-4.832-6.6367-2.8164-12.996-6.4023-18.949-10.668-5.9023-4.3438-11.461-9.2109-16.621-14.496-0.097656-0.097656-0.1875-0.20703-0.28906-0.30859 2.7812 0.95312 5.5664 1.8359 8.3594 2.6094 9.8867 2.7891 19.766 4.8008 29.91 6.4062 2.0938 0.33203 4.2188-0.80469 5.0469-2.8555 0.96484-2.3867-0.18359-5.1016-2.5703-6.0664l-0.32813-0.13281c-3.5195-1.4258-7.1797-2.5469-10.598-4.1914-3.3672-1.7305-6.8672-3.2383-9.9727-5.4102-6.5156-3.8594-12.25-8.8906-17.395-14.398-5.168-5.5117-9.4961-11.82-12.961-18.562-0.91016-1.7422-1.7578-3.543-2.5508-5.375 3.3633 2.6133 6.8477 4.9922 10.391 7.2305 4.2109 2.6445 8.5391 5.0312 12.926 7.2891 4.4141 2.2539 8.7852 4.3555 13.449 6.3125 1.9883 0.82812 4.3242 0 5.3086-1.957 1.0391-2.0469 0.21484-4.543-1.832-5.5781l-0.03125-0.015625c-6.6875-3.3828-12.27-8.6289-16.078-15.23-3.9102-6.5312-6.1133-14.176-7.4102-21.957-1.2852-7.8203-1.5781-15.887-1.1953-23.945 0.09375-1.9648 0.34766-3.9414 0.51172-5.9141 4.2578 13.469 10.875 26.145 19.238 37.379 6.0742 8.125 12.867 15.641 20.586 22.277 7.6641 6.6523 16.125 12.199 24.703 17.297 17.145 10.16 34.793 19.281 49.348 32.688 7.2891 6.5938 13.953 14.004 18.918 22.504 5.0703 8.3867 8.0312 18.289 6.9648 28.234 1.5156-9.8789-1.0195-20.109-5.8047-28.883-4.7109-8.875-11.293-16.621-18.469-23.578-14.348-14.133-32.07-24.055-48.668-34.656-8.2812-5.3672-16.406-10.918-23.621-17.438-7.2227-6.4609-13.684-13.906-19.332-21.793-11.281-15.812-18.977-34.203-21.234-53.336-0.17188-1.3906-1.1875-2.6133-2.6328-2.957-1.8555-0.4375-3.7109 0.71094-4.1523 2.5664-2.0039 8.4141-3.1602 16.688-3.7539 25.184-0.57422 8.4648-0.45312 17.031 0.76562 25.582 1.2188 8.0977 3.5195 16.238 7.6328 23.688-0.53516-0.33203-1.0898-0.63281-1.6211-0.97656-7.8789-4.9961-15.512-10.742-20.668-17.645l-0.14844-0.19922c-0.95312-1.2695-2.5703-1.9609-4.2344-1.6523-2.3398 0.4375-3.8828 2.6836-3.4492 5.0234 1.6211 8.7031 4.4766 16.328 8.2578 23.848 3.7656 7.4453 8.4922 14.441 14.176 20.602 3.3984 3.6992 7.0859 7.1562 11.016 10.305-3.293-1-6.543-2.0703-9.6797-3.2969-4.3789-1.7148-8.7422-3.8438-11.625-6.4141l-0.15625-0.14062c-1.5586-1.3828-3.918-1.5664-5.6875-0.3125-2.0703 1.4648-2.5625 4.3242-1.0977 6.3945 4.7031 6.6523 9.7617 12.438 15.293 18.078 5.5234 5.5742 11.488 10.742 17.898 15.383 3.2578 2.3008 6.6484 4.4336 10.16 6.375-4.5664-0.94141-9.0781-2.1133-13.453-3.6797-5.0977-1.6758-9.9258-4-14.68-6.4297l-0.22266-0.11328c-1.3633-0.69141-3.0625-0.57812-4.3398 0.4375-1.7461 1.3828-2.0352 3.9219-0.65234 5.668 5.7656 7.2617 11.965 13.535 18.809 19.41z"/>
  <path d="m504.82 392.13-0.17578-0.003906c-3.1172-0.019531-7.3867-2.2773-10.375-4.8477-0.75781-0.66016-1.4727-1.3633-2.0117-2.0703l-1.6914-2.6992c-1.3242-2.1445-2.9258-4.0977-4.7461-5.8164-3.6406-3.3945-8.2812-5.9023-13.355-6.5391-5.1016-0.47656-9.8555 0.53906-14.359 2.2031-8.9219 3.5703-16.215 9.7539-22.363 16.613-6.2227 6.8438-11.367 14.555-15.719 22.613 4.8789-7.7539 10.668-14.898 17.062-21.324 6.375-6.4023 13.809-11.938 22.137-14.742 2.0664-0.69531 4.2188-1.0859 6.3359-1.3906 2.1406-0.039062 4.3203-0.35938 6.2852 0.082032 4.0273 0.71484 7.7188 2.9922 10.621 5.9453 1.4531 1.4805 2.7148 3.1523 3.7227 4.9453l1.8477 3.1875c0.80859 1.1445 1.7031 2.0898 2.6367 2.9688 0.67188 0.62891 1.3906 1.1758 2.1133 1.7305-0.3125 0.0625-0.625 0.09375-0.94141 0.16406-4.3438 0.92188-8.6055 2.8789-12.18 5.5469-7.3594 5.293-11.816 13.34-15.32 20.605-3.6367 7.3164-6.9609 14.926-9.7227 22.688-2.8164 7.7773-4.8672 15.812-7.1992 23.344-2.3477 7.543-5.1562 14.758-9.4258 20.777-4.2227 6.043-9.918 10.73-16.637 13.965-6.6953 3.2734-14.137 5.0039-21.84 5.9297-7.6641 0.91016-15.469 0.95313-23.055-0.023437-1.2266-0.15625-2.5391 0.17578-3.5703 1.0234l-30.504 25.07c-5.0117 4.2422-9.9297 8.4336-15.051 12.191-2.5586 1.8789-5.1602 3.6523-7.832 5.2656-0.96484 0.58594-1.9492 1.1211-2.9375 1.6641l-0.015625-0.058594c-0.49609-2.2695-1.3633-4.7656-2.7812-6.957-1.3672-2.1406-3.2188-4.2305-5.8633-5.6719-0.68359-0.35938-1.2969-0.66406-2.1484-0.89844-0.87109-0.19922-1.9492-0.45312-2.6797-0.41797-1.6094-0.015624-2.8945 0.24219-4.1172 0.51563-4.5898 1.2656-8.1562 3.0977-11.727 4.5352-1.7812 0.76172-3.4766 1.3516-5.0859 1.8203-0.58203 0.16016-1.1211 0.25-1.625 0.30859 0.68359-1.0742 1.4492-2.1914 2.2734-3.2969 2.3047-3.0352 4.8359-6.0391 7.3984-9.0156 5.1484-5.9375 10.562-11.777 16.031-17.457 0.57422-0.60156 0.95703-1.4141 1.0039-2.3047 0.10938-1.9922-1.4141-3.6953-3.4102-3.8086l-5.6367-0.33594c-1.8438-0.28516-3.7109-0.46875-5.5352-0.82812-3.6289-0.77734-7.2227-1.7422-10.531-3.3008-3.3164-1.5195-6.4414-3.4297-9.1211-5.8398-1.2656-1.1172-2.4727-2.4219-3.5312-3.7773 6.5742 0.84766 13.176 1.3984 19.797 1.0977 8.6055-0.09375 17.148-1.4258 25.473-3.3438 8.3438-1.9141 16.41-4.8633 24.105-8.4922 7.6875-3.6367 14.98-8.1367 21.453-13.578-6.832 4.9883-14.422 8.7812-22.164 11.973-7.7656 3.1602-15.816 5.6133-24.043 7.0312-8.207 1.4258-16.531 2.2656-24.828 1.8984-8.3008-0.066406-16.523-1.3164-24.637-2.8789l-0.14844-0.027344c-0.48438-0.089844-1-0.050782-1.4922 0.13672-1.3984 0.54297-2.0898 2.1211-1.543 3.5195 1.7617 4.5117 4.3477 7.7578 7.4336 10.84 3.0859 2.9961 6.6719 5.3984 10.461 7.3008 3.8047 1.9141 7.8477 3.1367 11.906 4.1211 1.5312 0.34766 3.0781 0.59375 4.6211 0.84375-3.8984 3.9297-7.7578 7.8945-11.523 12-2.7344 2.9844-5.4102 6.0234-7.9766 9.3008-1.2852 1.668-2.5391 3.3242-3.7422 5.3906-0.30469 0.58203-0.59766 1.0547-0.89062 1.8086-0.14062 0.33594-0.28906 0.67188-0.42188 1.2227l-0.17578 0.75c-0.050781 0.28516-0.070313 0.80469-0.0625 1.2031 0.027343 0.44141-0.007813 0.75 0.28906 1.5547 0.19922 0.61719 0.78125 1.5156 0.98047 1.6914 0.33984 0.32812 0.69531 0.64453 1.0664 0.94531 0.72266 0.66797 1.5234 1.0938 2.3828 1.3867 3.4258 1.2109 6.1328 0.60156 8.4023 0.125 2.2305-0.58594 4.3086-1.3086 6.207-2.0781 3.832-1.5078 7.4727-3.1758 10.609-3.9648 0.73047-0.14844 1.4062-0.24219 1.8008-0.22266 0.26953-0.027344 0.15234 0.089844 0.26562 0.027344 0.10938 0 0.39844 0.14844 0.59375 0.26172 0.86719 0.48438 1.793 1.4414 2.5352 2.6602 0.73047 1.1758 1.1953 2.5117 1.5234 4.1289l0.11328 0.60938 0.046875 0.38672 0.089844 1.3203c0.13672 1.0938 0.003906 2.4492 1.1328 4.7734l0.046875 0.09375c0.94141 1.9258 3.2188 2.8555 5.2656 2.0742 2.2539-0.85547 3.7188-1.6133 5.2422-2.4062 1.5391-0.80078 3.0547-1.6445 4.5273-2.5352 2.9609-1.7656 5.8008-3.6797 8.5469-5.6719 5.4922-3.9844 10.602-8.293 15.637-12.508l28.965-23.68c7.7812 0.78516 15.574 0.66406 23.281-0.29297 8.3242-1.043 16.867-3.0312 24.73-6.9297 7.8633-3.7734 15.031-9.7539 19.918-17.121 4.9805-7.3164 7.9023-15.48 10.23-23.379 2.3164-7.9648 4.1328-15.668 6.707-23.156 2.5273-7.5352 5.4336-14.883 8.8086-22.148 3.2734-7.2852 6.8633-13.969 12.684-18.414 5.6602-4.6094 13-5.9766 20.918-6.0391h0.074218c1.625 0.027344 2.9609-1.2656 2.9883-2.8906 0.058594-1.6328-1.2344-2.9688-2.8594-2.9961z"/>
  <path d="m364.18 299.99c1.2578 4.082 3.1211 7.9766 5.3672 11.574 2.2539 3.6211 5.2383 6.6875 8.3633 9.4531-2.8281-3.0977-5.4023-6.3867-7.207-10.121-1.8281-3.6953-3.3633-7.5234-4.2422-11.543-0.92188-3.9961-1.457-8.0742-1.6211-12.156-0.050782-1.4766-0.015626-2.9727 0.019531-4.4648 0.39453 0.53516 0.79688 1.0625 1.207 1.5664 2.0977 2.543 4.4414 4.7656 6.8945 6.8008 2.4492 2.0469 4.9922 3.9453 7.6133 5.7031 2.6445 1.7656 5.2539 3.4258 8.1367 4.9766 1.0703 0.57422 2.4258 0.51953 3.4648-0.24609 1.4414-1.0664 1.7461-3.0977 0.68359-4.5352l-0.17969-0.24609c-2.8086-3.8047-5.4648-7.7422-7.25-12.152-1.8555-4.3555-3.3359-8.9023-4.168-13.617-0.67187-3.6406-1.0703-7.3398-1.2891-11.059 1.6445 2.0078 3.3711 3.9023 5.1797 5.6797 2.0664 2.0156 4.0977 3.8594 6.4492 5.75 1.0547 0.83203 2.4844 1.2109 3.8984 0.88281 2.4531-0.57812 3.9727-3.0312 3.3945-5.4844l-0.074219-0.31641c-0.71484-3.0469-1.5352-6.0703-2.1836-9.125-0.39844-3.0781-1.1289-6.1367-1.2773-9.2266-0.64062-6.1758-0.30859-12.336 0.40234-18.414 0.95313-6.0352 2.6016-11.945 5.1133-17.465 0.28516-0.63281 0.63281-1.2656 0.94531-1.8984 0.55078 9.5938 3.1172 19.004 6.8086 27.555 2.9453 6.9141 6.5586 13.305 10.809 19.496 4.2578 6.0859 8.9375 11.578 13.121 17.242 8.7617 10.945 13.578 24.242 16.387 38.156 2.7852 13.922 3.0781 28.344 2.5391 42.707 2.2227-14.219 2.8633-28.785 1.1875-43.289-1.5391-14.41-6.2305-29.16-14.816-41.32-4.1211-6.0703-8.5469-11.73-12.289-17.59-3.6641-5.7969-6.8398-12.16-9.4023-18.516-5.1719-12.758-7.1953-26.652-4.1016-39.582l0.046875-0.19531c0.33203-1.4414-0.050781-3.0156-1.1641-4.1523-1.7344-1.7773-4.5781-1.8086-6.3555-0.074218-5.5469 5.418-9.082 11.172-12.133 17.574-2.957 6.3477-4.8984 13.105-6.0273 19.965-0.92188 6.8828-1.0977 13.844-0.375 20.672 0.097657 1.6562 0.34766 3.2852 0.62109 4.9102-0.097656-0.11719-0.21875-0.22266-0.31641-0.33984-3.1484-3.707-5.7344-8.25-5.5742-11.379l0.015625-0.32031c0.10547-2.1875-1.4688-4.1328-3.6797-4.457-2.3477-0.33594-4.5273 1.293-4.8672 3.6406-0.019531 0.14844-0.019531 0.27344-0.039062 0.42188h-0.019532c-0.003906 0.058593 0.003906 0.10937 0 0.17187-0.72266 5.3164-0.86328 10.25-0.67188 15.367 0.23047 5.2578 0.89844 10.508 2.1172 15.656 1.1406 5.1602 2.9883 10.191 5.2812 14.988 0.20312 0.44531 0.45312 0.86719 0.67188 1.3008-1.0664-0.71875-2.1914-1.375-3.2148-2.1328-2.3828-1.7539-4.6211-3.6602-6.5586-5.7539-1.9141-2.0898-3.6289-4.3672-4.4375-6.793l-0.085937-0.25391c-0.26562-0.79688-0.98828-1.3906-1.8789-1.457-1.1836-0.085938-2.2109 0.80078-2.2969 1.9844-0.32813 4.4648-0.12891 8.6758 0.35937 12.961 0.51172 4.2461 1.4062 8.4453 2.6992 12.52z"/>
 </g>
</svg>
