<?xml version="1.0" encoding="UTF-8" standalone="no"?>
<svg
   xmlns:dc="http://purl.org/dc/elements/1.1/"
   xmlns:cc="http://creativecommons.org/ns#"
   xmlns:rdf="http://www.w3.org/1999/02/22-rdf-syntax-ns#"
   xmlns:svg="http://www.w3.org/2000/svg"
   xmlns="http://www.w3.org/2000/svg"
   xmlns:sodipodi="http://sodipodi.sourceforge.net/DTD/sodipodi-0.dtd"
   xmlns:inkscape="http://www.inkscape.org/namespaces/inkscape"
   width="360"
   height="96"
   version="1.0"
   id="svg941"
   sodipodi:docname="Digital_clock_display.svg"
   inkscape:version="1.0.2-2 (e86c870879, 2021-01-15)">
  <defs
     id="defs945" />
  <sodipodi:namedview
     pagecolor="#ffffff"
     bordercolor="#666666"
     borderopacity="1"
     objecttolerance="10"
     gridtolerance="10"
     guidetolerance="10"
     inkscape:pageopacity="0"
     inkscape:pageshadow="2"
     inkscape:window-width="1920"
     inkscape:window-height="1057"
     id="namedview943"
     showgrid="false"
     inkscape:zoom="2.0916667"
     inkscape:cx="180"
     inkscape:cy="48"
     inkscape:window-x="-8"
     inkscape:window-y="-8"
     inkscape:window-maximized="1"
     inkscape:current-layer="svg941" />
  <metadata
     id="metadata833">
    <rdf:RDF>
      <cc:Work
         rdf:about="">
        <dc:format>image/svg+xml</dc:format>
        <dc:type
           rdf:resource="http://purl.org/dc/dcmitype/StillImage" />
        <dc:title />
      </cc:Work>
    </rdf:RDF>
  </metadata>
  <path
     d="m 10,8 4,-4 h 28 l 4,4 -4,4 H 14 Z"
     id="path835"
     style="fill:none;stroke:#000000;stroke-width:1px" />
  <path
     d="m 8,10 4,4 V 42 L 8,46 4,42 V 14 Z"
     id="path837"
     style="fill:none;stroke:#000000;stroke-width:1px" />
  <path
     d="m 48,10 4,4 v 28 l -4,4 -4,-4 V 14 Z"
     id="path839"
     style="fill:none;stroke:#000000;stroke-width:1px" />
  <path
     d="m 10,48 4,-4 h 28 l 4,4 -4,4 H 14 Z"
     id="path841"
     style="fill:none;stroke:#000000;stroke-width:1px" />
  <path
     d="m 8,50 4,4 V 82 L 8,86 4,82 V 54 Z"
     id="path843"
     style="fill:none;stroke:#000000;stroke-width:1px" />
  <path
     d="m 48,50 4,4 v 28 l -4,4 -4,-4 V 54 Z"
     id="path845"
     style="fill:none;stroke:#000000;stroke-width:1px" />
  <path
     d="m 10,88 4,-4 h 28 l 4,4 -4,4 H 14 Z"
     id="path847"
     style="fill:none;stroke:#000000;stroke-width:1px" />
  <path
     d="m 66,8 4,-4 h 28 l 4,4 -4,4 H 70 Z"
     id="path849"
     style="fill:none;stroke:#000000;stroke-width:1px" />
  <path
     d="m 64,10 4,4 v 28 l -4,4 -4,-4 V 14 Z"
     id="path851"
     style="fill:none;stroke:#000000;stroke-width:1px" />
  <path
     d="m 104,10 4,4 v 28 l -4,4 -4,-4 V 14 Z"
     id="path853"
     style="fill:none;stroke:#000000;stroke-width:1px" />
  <path
     d="m 66,48 4,-4 h 28 l 4,4 -4,4 H 70 Z"
     id="path855"
     style="fill:none;stroke:#000000;stroke-width:1px" />
  <path
     d="m 64,50 4,4 v 28 l -4,4 -4,-4 V 54 Z"
     id="path857"
     style="fill:none;stroke:#000000;stroke-width:1px" />
  <path
     d="m 104,50 4,4 v 28 l -4,4 -4,-4 V 54 Z"
     id="path859"
     style="fill:none;stroke:#000000;stroke-width:1px" />
  <path
     d="m 66,88 4,-4 h 28 l 4,4 -4,4 H 70 Z"
     id="path861"
     style="fill:none;stroke:#000000;stroke-width:1px" />
  <path
     d="m 134,8 4,-4 h 28 l 4,4 -4,4 h -28 z"
     id="path863"
     style="fill:none;stroke:#000000;stroke-width:1px" />
  <path
     d="m 132,10 4,4 v 28 l -4,4 -4,-4 V 14 Z"
     id="path865"
     style="fill:none;stroke:#000000;stroke-width:1px" />
  <path
     d="m 172,10 4,4 v 28 l -4,4 -4,-4 V 14 Z"
     id="path867"
     style="fill:none;stroke:#000000;stroke-width:1px" />
  <path
     d="m 134,48 4,-4 h 28 l 4,4 -4,4 h -28 z"
     id="path869"
     style="fill:none;stroke:#000000;stroke-width:1px" />
  <path
     d="m 132,50 4,4 v 28 l -4,4 -4,-4 V 54 Z"
     id="path871"
     style="fill:none;stroke:#000000;stroke-width:1px" />
  <path
     d="m 172,50 4,4 v 28 l -4,4 -4,-4 V 54 Z"
     id="path873"
     style="fill:none;stroke:#000000;stroke-width:1px" />
  <path
     d="m 134,88 4,-4 h 28 l 4,4 -4,4 h -28 z"
     id="path875"
     style="fill:none;stroke:#000000;stroke-width:1px" />
  <path
     d="m 190,8 4,-4 h 28 l 4,4 -4,4 h -28 z"
     id="path877"
     style="fill:none;stroke:#000000;stroke-width:1px" />
  <path
     d="m 188,10 4,4 v 28 l -4,4 -4,-4 V 14 Z"
     id="path879"
     style="fill:none;stroke:#000000;stroke-width:1px" />
  <path
     d="m 228,10 4,4 v 28 l -4,4 -4,-4 V 14 Z"
     id="path881"
     style="fill:none;stroke:#000000;stroke-width:1px" />
  <path
     d="m 190,48 4,-4 h 28 l 4,4 -4,4 h -28 z"
     id="path883"
     style="fill:none;stroke:#000000;stroke-width:1px" />
  <path
     d="m 188,50 4,4 v 28 l -4,4 -4,-4 V 54 Z"
     id="path885"
     style="fill:none;stroke:#000000;stroke-width:1px" />
  <path
     d="m 228,50 4,4 v 28 l -4,4 -4,-4 V 54 Z"
     id="path887"
     style="fill:none;stroke:#000000;stroke-width:1px" />
  <path
     d="m 190,88 4,-4 h 28 l 4,4 -4,4 h -28 z"
     id="path889"
     style="fill:none;stroke:#000000;stroke-width:1px" />
  <path
     d="m 258,8 4,-4 h 28 l 4,4 -4,4 h -28 z"
     id="path891"
     style="fill:none;stroke:#000000;stroke-width:1px" />
  <path
     d="m 256,10 4,4 v 28 l -4,4 -4,-4 V 14 Z"
     id="path893"
     style="fill:none;stroke:#000000;stroke-width:1px" />
  <path
     d="m 296,10 4,4 v 28 l -4,4 -4,-4 V 14 Z"
     id="path895"
     style="fill:none;stroke:#000000;stroke-width:1px" />
  <path
     d="m 258,48 4,-4 h 28 l 4,4 -4,4 h -28 z"
     id="path897"
     style="fill:none;stroke:#000000;stroke-width:1px" />
  <path
     d="m 256,50 4,4 v 28 l -4,4 -4,-4 V 54 Z"
     id="path899"
     style="fill:none;stroke:#000000;stroke-width:1px" />
  <path
     d="m 296,50 4,4 v 28 l -4,4 -4,-4 V 54 Z"
     id="path901"
     style="fill:none;stroke:#000000;stroke-width:1px" />
  <path
     d="m 258,88 4,-4 h 28 l 4,4 -4,4 h -28 z"
     id="path903"
     style="fill:none;stroke:#000000;stroke-width:1px" />
  <path
     d="m 314,8 4,-4 h 28 l 4,4 -4,4 h -28 z"
     id="path905"
     style="fill:none;stroke:#000000;stroke-width:1px" />
  <path
     d="m 312,10 4,4 v 28 l -4,4 -4,-4 V 14 Z"
     id="path907"
     style="fill:none;stroke:#000000;stroke-width:1px" />
  <path
     d="m 352,10 4,4 v 28 l -4,4 -4,-4 V 14 Z"
     id="path909"
     style="fill:none;stroke:#000000;stroke-width:1px" />
  <path
     d="m 314,48 4,-4 h 28 l 4,4 -4,4 h -28 z"
     id="path911"
     style="fill:none;stroke:#000000;stroke-width:1px" />
  <path
     d="m 312,50 4,4 v 28 l -4,4 -4,-4 V 54 Z"
     id="path913"
     style="fill:none;stroke:#000000;stroke-width:1px" />
  <path
     d="m 352,50 4,4 v 28 l -4,4 -4,-4 V 54 Z"
     id="path915"
     style="fill:none;stroke:#000000;stroke-width:1px" />
  <path
     d="m 314,88 4,-4 h 28 l 4,4 -4,4 h -28 z"
     id="path917"
     style="fill:none;stroke:#000000;stroke-width:1px" />
  <path
     d="M 121.90948,28 A 3.95488,3.9482 0 0 1 117.9546,31.9482 3.95488,3.9482 0 0 1 113.99972,28 3.95488,3.9482 0 0 1 117.9546,24.0518 3.95488,3.9482 0 0 1 121.90948,28 Z"
     id="path921"
     style="fill:none;stroke:#000000;stroke-width:1.00004;stroke-linecap:round;stroke-linejoin:round" />
  <path
     d="m 121.90948,67.9996 a 3.95488,3.9482 0 0 1 -3.95488,3.9482 3.95488,3.9482 0 0 1 -3.95488,-3.9482 3.95488,3.9482 0 0 1 3.95488,-3.9482 3.95488,3.9482 0 0 1 3.95488,3.9482 z"
     id="path923"
     style="fill:none;stroke:#000000;stroke-width:1.00004;stroke-linecap:round;stroke-linejoin:round" />
  <path
     d="M 121.90948,28 A 3.95488,3.9482 0 0 1 117.9546,31.9482 3.95488,3.9482 0 0 1 113.99972,28 3.95488,3.9482 0 0 1 117.9546,24.0518 3.95488,3.9482 0 0 1 121.90948,28 Z"
     id="path925"
     style="fill:none;stroke:#000000;stroke-width:1.00004;stroke-linecap:round;stroke-linejoin:round" />
  <path
     d="m 121.90948,67.9996 a 3.95488,3.9482 0 0 1 -3.95488,3.9482 3.95488,3.9482 0 0 1 -3.95488,-3.9482 3.95488,3.9482 0 0 1 3.95488,-3.9482 3.95488,3.9482 0 0 1 3.95488,3.9482 z"
     id="path927"
     style="fill:none;stroke:#000000;stroke-width:1.00004;stroke-linecap:round;stroke-linejoin:round" />
  <path
     d="M 245.90648,28 A 3.95488,3.9482 0 0 1 241.9516,31.9482 3.95488,3.9482 0 0 1 237.99672,28 3.95488,3.9482 0 0 1 241.9516,24.0518 3.95488,3.9482 0 0 1 245.90648,28 Z"
     id="path929"
     style="fill:none;stroke:#000000;stroke-width:1.00004;stroke-linecap:round;stroke-linejoin:round" />
  <path
     d="m 245.90648,67.9996 a 3.95488,3.9482 0 0 1 -3.95488,3.9482 3.95488,3.9482 0 0 1 -3.95488,-3.9482 3.95488,3.9482 0 0 1 3.95488,-3.9482 3.95488,3.9482 0 0 1 3.95488,3.9482 z"
     id="path931"
     style="fill:none;stroke:#000000;stroke-width:1.00004;stroke-linecap:round;stroke-linejoin:round" />
  <path
     d="M 245.90648,28 A 3.95488,3.9482 0 0 1 241.9516,31.9482 3.95488,3.9482 0 0 1 237.99672,28 3.95488,3.9482 0 0 1 241.9516,24.0518 3.95488,3.9482 0 0 1 245.90648,28 Z"
     id="path933"
     style="fill:none;stroke:#000000;stroke-width:1.00004;stroke-linecap:round;stroke-linejoin:round" />
  <path
     d="m 245.90648,67.9996 a 3.95488,3.9482 0 0 1 -3.95488,3.9482 3.95488,3.9482 0 0 1 -3.95488,-3.9482 3.95488,3.9482 0 0 1 3.95488,-3.9482 3.95488,3.9482 0 0 1 3.95488,3.9482 z"
     id="path935"
     style="fill:none;stroke:#000000;stroke-width:1.00004;stroke-linecap:round;stroke-linejoin:round" />
</svg>
