999
"DXF R12 Output" (www.mydxf.blogspot.com)
 0 
SECTION
 2 
HEADER
 9 
$ACADVER
 1 
AC1009
 9 
$EXTMIN
 10 
 0 
 20 
 0 
 9 
$EXTMAX
 10 
 8.5 
 20 
 11 
 0 
ENDSEC
 0 
SECTION
 2 
ENTITIES
0
LINE
8
Layer 1
10
352.828000
20
0.000861
11
0.000000
21
0.000861
0
LINE
8
Layer 1
10
0.000000
20
0.000861
11
0.000000
21
165.405000
0
LINE
8
Layer 1
10
0.000000
20
165.405000
11
352.828000
21
165.405000
0
LINE
8
Layer 1
10
352.828000
20
165.405000
11
352.828000
21
0.000861
0
LINE
8
Layer 1
10
326.528000
20
53.612000
11
324.583020
21
52.652926
0
LINE
8
Layer 1
10
324.583020
20
52.652926
11
322.410367
21
51.812127
0
LINE
8
Layer 1
10
322.410367
20
51.812127
11
320.030312
21
51.093259
0
LINE
8
Layer 1
10
320.030312
20
51.093259
11
317.463126
21
50.499977
0
LINE
8
Layer 1
10
317.463126
20
50.499977
11
314.729081
21
50.035939
0
LINE
8
Layer 1
10
314.729081
20
50.035939
11
311.848447
21
49.704799
0
LINE
8
Layer 1
10
311.848447
20
49.704799
11
305.728500
21
49.455840
0
LINE
8
Layer 1
10
305.728500
20
49.455840
11
304.032970
21
49.486709
0
LINE
8
Layer 1
10
304.032970
20
49.486709
11
300.405685
21
49.705817
0
LINE
8
Layer 1
10
300.405685
20
49.705817
11
296.816440
21
50.141552
0
LINE
8
Layer 1
10
296.816440
20
50.141552
11
295.246580
21
50.400623
0
LINE
8
Layer 1
10
295.246580
20
50.400623
11
291.434380
21
51.215319
0
LINE
8
Layer 1
10
291.434380
20
51.215319
11
288.538376
21
52.029153
0
LINE
8
Layer 1
10
288.538376
20
52.029153
11
285.818886
21
52.975898
0
LINE
8
Layer 1
10
285.818886
20
52.975898
11
283.313943
21
54.045838
0
LINE
8
Layer 1
10
283.313943
20
54.045838
11
281.061580
21
55.229259
0
LINE
8
Layer 1
10
281.061580
20
55.229259
11
278.347400
21
54.251405
0
LINE
8
Layer 1
10
278.347400
20
54.251405
11
265.729798
21
50.255923
0
LINE
8
Layer 1
10
265.729798
20
50.255923
11
249.277400
21
45.296365
0
LINE
8
Layer 1
10
249.277400
20
45.296365
11
241.714730
21
43.109145
0
LINE
8
Layer 1
10
241.714730
20
43.109145
11
241.121624
21
42.936064
0
LINE
8
Layer 1
10
241.121624
20
42.936064
11
226.183836
21
38.848804
0
LINE
8
Layer 1
10
226.183836
20
38.848804
11
210.773924
21
35.141884
0
LINE
8
Layer 1
10
210.773924
20
35.141884
11
199.889624
21
32.881904
0
LINE
8
Layer 1
10
199.889624
20
32.881904
11
191.132902
21
31.500561
0
LINE
8
Layer 1
10
191.132902
20
31.500561
11
182.639924
21
30.519394
0
LINE
8
Layer 1
10
182.639924
20
30.519394
11
176.520195
21
30.029365
0
LINE
8
Layer 1
10
176.520195
20
30.029365
11
168.402024
21
29.658397
0
LINE
8
Layer 1
10
168.402024
20
29.658397
11
160.724704
21
29.519493
0
LINE
8
Layer 1
10
160.724704
20
29.519493
11
153.730615
21
29.657418
0
LINE
8
Layer 1
10
153.730615
20
29.657418
11
147.187969
21
30.073877
0
LINE
8
Layer 1
10
147.187969
20
30.073877
11
141.052116
21
30.772902
0
LINE
8
Layer 1
10
141.052116
20
30.772902
11
135.278404
21
31.758523
0
LINE
8
Layer 1
10
135.278404
20
31.758523
11
131.762240
21
32.544658
0
LINE
8
Layer 1
10
131.762240
20
32.544658
11
128.350461
21
33.463705
0
LINE
8
Layer 1
10
128.350461
20
33.463705
11
125.054854
21
34.512151
0
LINE
8
Layer 1
10
125.054854
20
34.512151
11
121.887204
21
35.686483
0
LINE
8
Layer 1
10
121.887204
20
35.686483
11
117.189995
21
37.874412
0
LINE
8
Layer 1
10
117.189995
20
37.874412
11
112.698460
21
40.582513
0
LINE
8
Layer 1
10
112.698460
20
40.582513
11
108.473147
21
43.769549
0
LINE
8
Layer 1
10
108.473147
20
43.769549
11
104.574604
21
47.394283
0
LINE
8
Layer 1
10
104.574604
20
47.394283
11
104.420265
21
47.551932
0
LINE
8
Layer 1
10
104.420265
20
47.551932
11
101.070396
21
51.303772
0
LINE
8
Layer 1
10
101.070396
20
51.303772
11
99.829386
21
52.963067
0
LINE
8
Layer 1
10
99.829386
20
52.963067
11
98.864015
21
54.495032
0
LINE
8
Layer 1
10
98.864015
20
54.495032
11
98.123474
21
56.001021
0
LINE
8
Layer 1
10
98.123474
20
56.001021
11
97.617028
21
57.477655
0
LINE
8
Layer 1
10
97.617028
20
57.477655
11
97.345192
21
58.922042
0
LINE
8
Layer 1
10
97.345192
20
58.922042
11
97.308485
21
60.331292
0
LINE
8
Layer 1
10
97.308485
20
60.331292
11
96.049505
21
60.311452
0
LINE
8
Layer 1
10
96.049505
20
60.311452
11
94.592437
21
60.444778
0
LINE
8
Layer 1
10
94.592437
20
60.444778
11
93.163068
21
60.744708
0
LINE
8
Layer 1
10
93.163068
20
60.744708
11
91.766357
21
61.210003
0
LINE
8
Layer 1
10
91.766357
20
61.210003
11
90.407265
21
61.839422
0
LINE
8
Layer 1
10
90.407265
20
61.839422
11
88.954160
21
62.729686
0
LINE
8
Layer 1
10
88.954160
20
62.729686
11
87.619497
21
63.791412
0
LINE
8
Layer 1
10
87.619497
20
63.791412
11
86.405963
21
65.022016
0
LINE
8
Layer 1
10
86.405963
20
65.022016
11
85.316245
21
66.418912
0
LINE
8
Layer 1
10
85.316245
20
66.418912
11
84.461140
21
65.110037
0
LINE
8
Layer 1
10
84.461140
20
65.110037
11
83.404907
21
63.768811
0
LINE
8
Layer 1
10
83.404907
20
63.768811
11
82.109309
21
62.463343
0
LINE
8
Layer 1
10
82.109309
20
62.463343
11
80.536105
21
61.261742
0
LINE
8
Layer 1
10
80.536105
20
61.261742
11
79.200513
21
60.520256
0
LINE
8
Layer 1
10
79.200513
20
60.520256
11
77.801255
21
59.983201
0
LINE
8
Layer 1
10
77.801255
20
59.983201
11
76.357762
21
59.656571
0
LINE
8
Layer 1
10
76.357762
20
59.656571
11
74.889465
21
59.546362
0
LINE
8
Layer 1
10
74.889465
20
59.546362
11
74.784732
21
59.547491
0
LINE
8
Layer 1
10
74.784732
20
59.547491
11
72.238240
21
59.842873
0
LINE
8
Layer 1
10
72.238240
20
59.842873
11
69.920676
21
60.661221
0
LINE
8
Layer 1
10
69.920676
20
60.661221
11
67.862527
21
61.987651
0
LINE
8
Layer 1
10
67.862527
20
61.987651
11
66.094282
21
63.807281
0
LINE
8
Layer 1
10
66.094282
20
63.807281
11
65.260844
21
65.004522
0
LINE
8
Layer 1
10
65.260844
20
65.004522
11
64.606002
21
66.168691
0
LINE
8
Layer 1
10
64.606002
20
66.168691
11
62.818206
21
64.516699
0
LINE
8
Layer 1
10
62.818206
20
64.516699
11
60.967157
21
63.086297
0
LINE
8
Layer 1
10
60.967157
20
63.086297
11
59.112388
21
61.922132
0
LINE
8
Layer 1
10
59.112388
20
61.922132
11
57.313432
21
61.068851
0
LINE
8
Layer 1
10
57.313432
20
61.068851
11
54.598288
21
60.329672
0
LINE
8
Layer 1
10
54.598288
20
60.329672
11
51.678912
21
60.122967
0
LINE
8
Layer 1
10
51.678912
20
60.122967
11
49.890357
21
60.298252
0
LINE
8
Layer 1
10
49.890357
20
60.298252
11
48.244842
21
60.711662
0
LINE
8
Layer 1
10
48.244842
20
60.711662
11
46.475838
21
61.424504
0
LINE
8
Layer 1
10
46.475838
20
61.424504
11
44.851426
21
62.331546
0
LINE
8
Layer 1
10
44.851426
20
62.331546
11
43.373982
21
63.431031
0
LINE
8
Layer 1
10
43.373982
20
63.431031
11
42.045882
21
64.721202
0
LINE
8
Layer 1
10
42.045882
20
64.721202
11
42.049184
21
64.284641
0
LINE
8
Layer 1
10
42.049184
20
64.284641
11
41.963248
21
63.158575
0
LINE
8
Layer 1
10
41.963248
20
63.158575
11
41.686226
21
62.094907
0
LINE
8
Layer 1
10
41.686226
20
62.094907
11
41.233943
21
61.112629
0
LINE
8
Layer 1
10
41.233943
20
61.112629
11
40.622226
21
60.230732
0
LINE
8
Layer 1
10
40.622226
20
60.230732
11
39.866901
21
59.468208
0
LINE
8
Layer 1
10
39.866901
20
59.468208
11
38.983793
21
58.844047
0
LINE
8
Layer 1
10
38.983793
20
58.844047
11
37.988729
21
58.377241
0
LINE
8
Layer 1
10
37.988729
20
58.377241
11
36.897534
21
58.086781
0
LINE
8
Layer 1
10
36.897534
20
58.086781
11
35.695884
21
57.986460
0
LINE
8
Layer 1
10
35.695884
20
57.986460
11
35.293498
21
57.996394
0
LINE
8
Layer 1
10
35.293498
20
57.996394
11
33.713689
21
58.145794
0
LINE
8
Layer 1
10
33.713689
20
58.145794
11
32.293159
21
58.451705
0
LINE
8
Layer 1
10
32.293159
20
58.451705
11
31.025380
21
58.886778
0
LINE
8
Layer 1
10
31.025380
20
58.886778
11
29.903825
21
59.423662
0
LINE
8
Layer 1
10
29.903825
20
59.423662
11
28.073278
21
60.693461
0
LINE
8
Layer 1
10
28.073278
20
60.693461
11
26.749300
21
62.042300
0
LINE
8
Layer 1
10
26.749300
20
62.042300
11
25.367027
21
64.138541
0
LINE
8
Layer 1
10
25.367027
20
64.138541
11
24.437675
21
66.431997
0
LINE
8
Layer 1
10
24.437675
20
66.431997
11
23.889866
21
68.850642
0
LINE
8
Layer 1
10
23.889866
20
68.850642
11
23.652225
21
71.322450
0
LINE
8
Layer 1
10
23.652225
20
71.322450
11
23.653374
21
73.775396
0
LINE
8
Layer 1
10
23.653374
20
73.775396
11
23.821938
21
76.137453
0
LINE
8
Layer 1
10
23.821938
20
76.137453
11
24.375800
21
80.300800
0
LINE
8
Layer 1
10
24.375800
20
80.300800
11
24.426512
21
80.637042
0
LINE
8
Layer 1
10
24.426512
20
80.637042
11
25.076532
21
84.288288
0
LINE
8
Layer 1
10
25.076532
20
84.288288
11
25.819982
21
87.820472
0
LINE
8
Layer 1
10
25.819982
20
87.820472
11
25.828801
21
87.862365
0
LINE
8
Layer 1
10
25.828801
20
87.862365
11
26.308358
21
90.108015
0
LINE
8
Layer 1
10
26.308358
20
90.108015
11
29.115148
21
102.351615
0
LINE
8
Layer 1
10
29.115148
20
102.351615
11
26.627927
21
102.828830
0
LINE
8
Layer 1
10
26.627927
20
102.828830
11
24.239098
21
103.738475
0
LINE
8
Layer 1
10
24.239098
20
103.738475
11
22.555740
21
104.725337
0
LINE
8
Layer 1
10
22.555740
20
104.725337
11
20.810062
21
106.080224
0
LINE
8
Layer 1
10
20.810062
20
106.080224
11
19.116786
21
107.773359
0
LINE
8
Layer 1
10
19.116786
20
107.773359
11
17.590631
21
109.774961
0
LINE
8
Layer 1
10
17.590631
20
109.774961
11
16.346317
21
112.055253
0
LINE
8
Layer 1
10
16.346317
20
112.055253
11
15.498565
21
114.584455
0
LINE
8
Layer 1
10
15.498565
20
114.584455
11
15.259250
21
115.933092
0
LINE
8
Layer 1
10
15.259250
20
115.933092
11
15.162096
21
117.332789
0
LINE
8
Layer 1
10
15.162096
20
117.332789
11
15.221441
21
118.779824
0
LINE
8
Layer 1
10
15.221441
20
118.779824
11
15.451628
21
120.270475
0
LINE
8
Layer 1
10
15.451628
20
120.270475
11
16.279883
21
123.389587
0
LINE
8
Layer 1
10
16.279883
20
123.389587
11
17.358587
21
126.234363
0
LINE
8
Layer 1
10
17.358587
20
126.234363
11
18.653557
21
128.832566
0
LINE
8
Layer 1
10
18.653557
20
128.832566
11
20.130608
21
131.211959
0
LINE
8
Layer 1
10
20.130608
20
131.211959
11
21.755555
21
133.400303
0
LINE
8
Layer 1
10
21.755555
20
133.400303
11
23.494214
21
135.425363
0
LINE
8
Layer 1
10
23.494214
20
135.425363
11
27.175928
21
139.096675
0
LINE
8
Layer 1
10
27.175928
20
139.096675
11
31.116008
21
142.446955
0
LINE
8
Layer 1
10
31.116008
20
142.446955
11
33.035142
21
143.785736
0
LINE
8
Layer 1
10
33.035142
20
143.785736
11
34.972739
21
144.954087
0
LINE
8
Layer 1
10
34.972739
20
144.954087
11
38.824613
21
146.841516
0
LINE
8
Layer 1
10
38.824613
20
146.841516
11
42.514210
21
148.233265
0
LINE
8
Layer 1
10
42.514210
20
148.233265
11
45.884108
21
149.253355
0
LINE
8
Layer 1
10
45.884108
20
149.253355
11
49.120112
21
149.944207
0
LINE
8
Layer 1
10
49.120112
20
149.944207
11
52.509868
21
150.257874
0
LINE
8
Layer 1
10
52.509868
20
150.257874
11
55.960837
21
150.156786
0
LINE
8
Layer 1
10
55.960837
20
150.156786
11
59.380476
21
149.603376
0
LINE
8
Layer 1
10
59.380476
20
149.603376
11
62.676243
21
148.560074
0
LINE
8
Layer 1
10
62.676243
20
148.560074
11
64.248757
21
147.842973
0
LINE
8
Layer 1
10
64.248757
20
147.842973
11
65.755599
21
146.989311
0
LINE
8
Layer 1
10
65.755599
20
146.989311
11
67.185203
21
145.994391
0
LINE
8
Layer 1
10
67.185203
20
145.994391
11
68.526001
21
144.853517
0
LINE
8
Layer 1
10
68.526001
20
144.853517
11
69.766425
21
143.561994
0
LINE
8
Layer 1
10
69.766425
20
143.561994
11
70.894908
21
142.115125
0
LINE
8
Layer 1
10
70.894908
20
142.115125
11
71.718423
21
140.845125
0
LINE
8
Layer 1
10
71.718423
20
140.845125
11
73.037497
21
138.240995
0
LINE
8
Layer 1
10
73.037497
20
138.240995
11
73.975509
21
135.478636
0
LINE
8
Layer 1
10
73.975509
20
135.478636
11
74.528016
21
132.582547
0
LINE
8
Layer 1
10
74.528016
20
132.582547
11
74.690573
21
129.577225
0
LINE
8
Layer 1
10
74.690573
20
129.577225
11
76.537968
21
130.798719
0
LINE
8
Layer 1
10
76.537968
20
130.798719
11
78.750823
21
131.742395
0
LINE
8
Layer 1
10
78.750823
20
131.742395
11
81.729312
21
132.502932
0
LINE
8
Layer 1
10
81.729312
20
132.502932
11
84.610233
21
132.733477
0
LINE
8
Layer 1
10
84.610233
20
132.733477
11
86.211891
21
132.637325
0
LINE
8
Layer 1
10
86.211891
20
132.637325
11
87.600022
21
132.396686
0
LINE
8
Layer 1
10
87.600022
20
132.396686
11
88.823615
21
131.998950
0
LINE
8
Layer 1
10
88.823615
20
131.998950
11
89.931663
21
131.431507
0
LINE
8
Layer 1
10
89.931663
20
131.431507
11
91.964165
21
132.356600
0
LINE
8
Layer 1
10
91.964165
20
132.356600
11
94.040693
21
132.832005
0
LINE
8
Layer 1
10
94.040693
20
132.832005
11
96.100271
21
132.848318
0
LINE
8
Layer 1
10
96.100271
20
132.848318
11
98.081923
21
132.396133
0
LINE
8
Layer 1
10
98.081923
20
132.396133
11
99.515479
21
131.727080
0
LINE
8
Layer 1
10
99.515479
20
131.727080
11
101.139099
21
130.502299
0
LINE
8
Layer 1
10
101.139099
20
130.502299
11
101.930813
21
129.631998
0
LINE
8
Layer 1
10
101.930813
20
129.631998
11
102.660399
21
128.563350
0
LINE
8
Layer 1
10
102.660399
20
128.563350
11
103.291308
21
127.276550
0
LINE
8
Layer 1
10
103.291308
20
127.276550
11
103.786993
21
125.751793
0
LINE
8
Layer 1
10
103.786993
20
125.751793
11
104.098188
21
123.877628
0
LINE
8
Layer 1
10
104.098188
20
123.877628
11
104.116895
21
121.934630
0
LINE
8
Layer 1
10
104.116895
20
121.934630
11
103.847455
21
119.989979
0
LINE
8
Layer 1
10
103.847455
20
119.989979
11
103.294208
21
118.110853
0
LINE
8
Layer 1
10
103.294208
20
118.110853
11
102.482388
21
116.391734
0
LINE
8
Layer 1
10
102.482388
20
116.391734
11
101.436475
21
114.865162
0
LINE
8
Layer 1
10
101.436475
20
114.865162
11
100.179516
21
113.557490
0
LINE
8
Layer 1
10
100.179516
20
113.557490
11
98.734558
21
112.495073
0
LINE
8
Layer 1
10
98.734558
20
112.495073
11
98.694628
21
110.740106
0
LINE
8
Layer 1
10
98.694628
20
110.740106
11
98.255551
21
109.183372
0
LINE
8
Layer 1
10
98.255551
20
109.183372
11
97.600672
21
107.880473
0
LINE
8
Layer 1
10
97.600672
20
107.880473
11
96.913338
21
106.887013
0
LINE
8
Layer 1
10
96.913338
20
106.887013
11
96.869241
21
106.829688
0
LINE
8
Layer 1
10
96.869241
20
106.829688
11
96.682929
21
106.601486
0
LINE
8
Layer 1
10
96.682929
20
106.601486
11
99.123709
21
106.761337
0
LINE
8
Layer 1
10
99.123709
20
106.761337
11
101.415938
21
106.490967
0
LINE
8
Layer 1
10
101.415938
20
106.490967
11
103.653589
21
105.838604
0
LINE
8
Layer 1
10
103.653589
20
105.838604
11
104.503150
21
106.572547
0
LINE
8
Layer 1
10
104.503150
20
106.572547
11
105.472599
21
107.142774
0
LINE
8
Layer 1
10
105.472599
20
107.142774
11
106.774103
21
107.588588
0
LINE
8
Layer 1
10
106.774103
20
107.588588
11
108.122426
21
107.736848
0
LINE
8
Layer 1
10
108.122426
20
107.736848
11
109.470956
21
107.587246
0
LINE
8
Layer 1
10
109.470956
20
107.587246
11
110.773079
21
107.139472
0
LINE
8
Layer 1
10
110.773079
20
107.139472
11
111.141288
21
106.963083
0
LINE
8
Layer 1
10
111.141288
20
106.963083
11
112.012208
21
106.564001
0
LINE
8
Layer 1
10
112.012208
20
106.564001
11
113.658138
21
105.941129
0
LINE
8
Layer 1
10
113.658138
20
105.941129
11
114.565439
21
105.604890
0
LINE
8
Layer 1
10
114.565439
20
105.604890
11
116.582879
21
104.802321
0
LINE
8
Layer 1
10
116.582879
20
104.802321
11
117.724999
21
104.159603
0
LINE
8
Layer 1
10
117.724999
20
104.159603
11
119.259578
21
104.970854
0
LINE
8
Layer 1
10
119.259578
20
104.970854
11
120.625489
21
105.291803
0
LINE
8
Layer 1
10
120.625489
20
105.291803
11
121.773447
21
105.347407
0
LINE
8
Layer 1
10
121.773447
20
105.347407
11
122.939711
21
105.247155
0
LINE
8
Layer 1
10
122.939711
20
105.247155
11
125.264373
21
104.608848
0
LINE
8
Layer 1
10
125.264373
20
104.608848
11
127.473900
21
103.436414
0
LINE
8
Layer 1
10
127.473900
20
103.436414
11
129.442719
21
101.789383
0
LINE
8
Layer 1
10
129.442719
20
101.789383
11
130.911706
21
102.981938
0
LINE
8
Layer 1
10
130.911706
20
102.981938
11
132.718039
21
103.706513
0
LINE
8
Layer 1
10
132.718039
20
103.706513
11
134.113885
21
103.908518
0
LINE
8
Layer 1
10
134.113885
20
103.908518
11
135.318116
21
103.864026
0
LINE
8
Layer 1
10
135.318116
20
103.864026
11
136.902859
21
103.517997
0
LINE
8
Layer 1
10
136.902859
20
103.517997
11
137.207131
21
103.425394
0
LINE
8
Layer 1
10
137.207131
20
103.425394
11
140.087913
21
102.463248
0
LINE
8
Layer 1
10
140.087913
20
102.463248
11
141.710880
21
101.754179
0
LINE
8
Layer 1
10
141.710880
20
101.754179
11
143.333331
21
100.837994
0
LINE
8
Layer 1
10
143.333331
20
100.837994
11
144.224094
21
101.807029
0
LINE
8
Layer 1
10
144.224094
20
101.807029
11
145.498073
21
102.997192
0
LINE
8
Layer 1
10
145.498073
20
102.997192
11
146.827980
21
104.029547
0
LINE
8
Layer 1
10
146.827980
20
104.029547
11
148.208866
21
104.901938
0
LINE
8
Layer 1
10
148.208866
20
104.901938
11
149.635783
21
105.612206
0
LINE
8
Layer 1
10
149.635783
20
105.612206
11
151.103782
21
106.158194
0
LINE
8
Layer 1
10
151.103782
20
106.158194
11
152.607916
21
106.537746
0
LINE
8
Layer 1
10
152.607916
20
106.537746
11
154.143236
21
106.748703
0
LINE
8
Layer 1
10
154.143236
20
106.748703
11
155.704794
21
106.788909
0
LINE
8
Layer 1
10
155.704794
20
106.788909
11
158.205654
21
106.514542
0
LINE
8
Layer 1
10
158.205654
20
106.514542
11
160.650294
21
105.844126
0
LINE
8
Layer 1
10
160.650294
20
105.844126
11
164.587074
21
118.827426
0
LINE
8
Layer 1
10
164.587074
20
118.827426
11
163.777893
21
119.458189
0
LINE
8
Layer 1
10
163.777893
20
119.458189
11
163.085293
21
120.209874
0
LINE
8
Layer 1
10
163.085293
20
120.209874
11
162.524571
21
121.065738
0
LINE
8
Layer 1
10
162.524571
20
121.065738
11
162.111024
21
122.009036
0
LINE
8
Layer 1
10
162.111024
20
122.009036
11
161.036154
21
125.209386
0
LINE
8
Layer 1
10
161.036154
20
125.209386
11
160.726647
21
126.851232
0
LINE
8
Layer 1
10
160.726647
20
126.851232
11
160.860317
21
128.487598
0
LINE
8
Layer 1
10
160.860317
20
128.487598
11
161.418148
21
130.031565
0
LINE
8
Layer 1
10
161.418148
20
130.031565
11
162.381124
21
131.396216
0
LINE
8
Layer 1
10
162.381124
20
131.396216
11
163.415478
21
132.373933
0
LINE
8
Layer 1
10
163.415478
20
132.373933
11
164.322504
21
133.089546
0
LINE
8
Layer 1
10
164.322504
20
133.089546
11
164.362193
21
133.119312
0
LINE
8
Layer 1
10
164.362193
20
133.119312
11
164.656542
21
133.346413
0
LINE
8
Layer 1
10
164.656542
20
133.346413
11
168.495878
21
136.224588
0
LINE
8
Layer 1
10
168.495878
20
136.224588
11
172.447557
21
138.790688
0
LINE
8
Layer 1
10
172.447557
20
138.790688
11
176.486673
21
141.034223
0
LINE
8
Layer 1
10
176.486673
20
141.034223
11
180.588317
21
142.944705
0
LINE
8
Layer 1
10
180.588317
20
142.944705
11
184.727583
21
144.511644
0
LINE
8
Layer 1
10
184.727583
20
144.511644
11
188.879564
21
145.724551
0
LINE
8
Layer 1
10
188.879564
20
145.724551
11
193.019352
21
146.572937
0
LINE
8
Layer 1
10
193.019352
20
146.572937
11
197.122042
21
147.046313
0
LINE
8
Layer 1
10
197.122042
20
147.046313
11
201.485263
21
147.178416
0
LINE
8
Layer 1
10
201.485263
20
147.178416
11
205.541671
21
146.949507
0
LINE
8
Layer 1
10
205.541671
20
146.949507
11
209.288412
21
146.360620
0
LINE
8
Layer 1
10
209.288412
20
146.360620
11
212.722629
21
145.412789
0
LINE
8
Layer 1
10
212.722629
20
145.412789
11
215.841467
21
144.107048
0
LINE
8
Layer 1
10
215.841467
20
144.107048
11
218.642068
21
142.444429
0
LINE
8
Layer 1
10
218.642068
20
142.444429
11
221.121579
21
140.425966
0
LINE
8
Layer 1
10
221.121579
20
140.425966
11
223.277142
21
138.052693
0
LINE
8
Layer 1
10
223.277142
20
138.052693
11
224.544831
21
136.277805
0
LINE
8
Layer 1
10
224.544831
20
136.277805
11
225.629426
21
134.444448
0
LINE
8
Layer 1
10
225.629426
20
134.444448
11
226.537924
21
132.562005
0
LINE
8
Layer 1
10
226.537924
20
132.562005
11
227.277323
21
130.639860
0
LINE
8
Layer 1
10
227.277323
20
130.639860
11
227.854619
21
128.687393
0
LINE
8
Layer 1
10
227.854619
20
128.687393
11
228.276811
21
126.713987
0
LINE
8
Layer 1
10
228.276811
20
126.713987
11
228.683868
21
122.741888
0
LINE
8
Layer 1
10
228.683868
20
122.741888
11
228.554473
21
118.798622
0
LINE
8
Layer 1
10
228.554473
20
118.798622
11
227.944605
21
114.959245
0
LINE
8
Layer 1
10
227.944605
20
114.959245
11
226.910242
21
111.298816
0
LINE
8
Layer 1
10
226.910242
20
111.298816
11
225.507362
21
107.892393
0
LINE
8
Layer 1
10
225.507362
20
107.892393
11
228.315252
21
108.091935
0
LINE
8
Layer 1
10
228.315252
20
108.091935
11
229.744118
21
107.968420
0
LINE
8
Layer 1
10
229.744118
20
107.968420
11
231.108169
21
107.686517
0
LINE
8
Layer 1
10
231.108169
20
107.686517
11
232.400365
21
107.250205
0
LINE
8
Layer 1
10
232.400365
20
107.250205
11
233.613664
21
106.663463
0
LINE
8
Layer 1
10
233.613664
20
106.663463
11
234.741026
21
105.930270
0
LINE
8
Layer 1
10
234.741026
20
105.930270
11
235.775408
21
105.054605
0
LINE
8
Layer 1
10
235.775408
20
105.054605
11
236.709770
21
104.040447
0
LINE
8
Layer 1
10
236.709770
20
104.040447
11
237.537072
21
102.891775
0
LINE
8
Layer 1
10
237.537072
20
102.891775
11
238.142306
21
101.831235
0
LINE
8
Layer 1
10
238.142306
20
101.831235
11
239.744963
21
103.030405
0
LINE
8
Layer 1
10
239.744963
20
103.030405
11
241.448496
21
104.079095
0
LINE
8
Layer 1
10
241.448496
20
104.079095
11
243.001060
21
104.843939
0
LINE
8
Layer 1
10
243.001060
20
104.843939
11
245.353581
21
105.718131
0
LINE
8
Layer 1
10
245.353581
20
105.718131
11
248.369634
21
106.411662
0
LINE
8
Layer 1
10
248.369634
20
106.411662
11
250.083852
21
106.600053
0
LINE
8
Layer 1
10
250.083852
20
106.600053
11
251.912796
21
106.634525
0
LINE
8
Layer 1
10
251.912796
20
106.634525
11
253.768874
21
106.483080
0
LINE
8
Layer 1
10
253.768874
20
106.483080
11
255.576166
21
106.140637
0
LINE
8
Layer 1
10
255.576166
20
106.140637
11
257.451396
21
105.548634
0
LINE
8
Layer 1
10
257.451396
20
105.548634
11
257.990482
21
107.063374
0
LINE
8
Layer 1
10
257.990482
20
107.063374
11
258.819509
21
109.117204
0
LINE
8
Layer 1
10
258.819509
20
109.117204
11
258.963928
21
109.462263
0
LINE
8
Layer 1
10
258.963928
20
109.462263
11
260.699429
21
113.980295
0
LINE
8
Layer 1
10
260.699429
20
113.980295
11
261.294637
21
116.299669
0
LINE
8
Layer 1
10
261.294637
20
116.299669
11
261.407174
21
117.320165
0
LINE
8
Layer 1
10
261.407174
20
117.320165
11
261.351788
21
118.189093
0
LINE
8
Layer 1
10
261.351788
20
118.189093
11
261.225388
21
119.252603
0
LINE
8
Layer 1
10
261.225388
20
119.252603
11
261.253810
21
120.307910
0
LINE
8
Layer 1
10
261.253810
20
120.307910
11
261.750316
21
122.332161
0
LINE
8
Layer 1
10
261.750316
20
122.332161
11
262.791699
21
124.138338
0
LINE
8
Layer 1
10
262.791699
20
124.138338
11
263.501215
21
124.921053
0
LINE
8
Layer 1
10
263.501215
20
124.921053
11
264.328348
21
125.602933
0
LINE
8
Layer 1
10
264.328348
20
125.602933
11
264.370238
21
125.632699
0
LINE
8
Layer 1
10
264.370238
20
125.632699
11
265.294321
21
126.181300
0
LINE
8
Layer 1
10
265.294321
20
126.181300
11
266.273619
21
126.583992
0
LINE
8
Layer 1
10
266.273619
20
126.583992
11
268.330993
21
126.949276
0
LINE
8
Layer 1
10
268.330993
20
126.949276
11
270.408625
21
126.723795
0
LINE
8
Layer 1
10
270.408625
20
126.723795
11
271.413245
21
126.388032
0
LINE
8
Layer 1
10
271.413245
20
126.388032
11
272.372778
21
125.902794
0
LINE
8
Layer 1
10
272.372778
20
125.902794
11
274.352706
21
124.544841
0
LINE
8
Layer 1
10
274.352706
20
124.544841
11
276.722688
21
122.515302
0
LINE
8
Layer 1
10
276.722688
20
122.515302
11
278.989733
21
119.973547
0
LINE
8
Layer 1
10
278.989733
20
119.973547
11
279.930593
21
118.560391
0
LINE
8
Layer 1
10
279.930593
20
118.560391
11
280.660848
21
117.078944
0
LINE
8
Layer 1
10
280.660848
20
117.078944
11
281.207136
21
115.183351
0
LINE
8
Layer 1
10
281.207136
20
115.183351
11
281.446880
21
113.087046
0
LINE
8
Layer 1
10
281.446880
20
113.087046
11
281.374912
21
110.927075
0
LINE
8
Layer 1
10
281.374912
20
110.927075
11
280.986064
21
108.840484
0
LINE
8
Layer 1
10
280.986064
20
108.840484
11
279.964114
21
105.887074
0
LINE
8
Layer 1
10
279.964114
20
105.887074
11
281.142818
21
106.586410
0
LINE
8
Layer 1
10
281.142818
20
106.586410
11
282.426946
21
107.053306
0
LINE
8
Layer 1
10
282.426946
20
107.053306
11
283.782178
21
107.274429
0
LINE
8
Layer 1
10
283.782178
20
107.274429
11
285.174194
21
107.236444
0
LINE
8
Layer 1
10
285.174194
20
107.236444
11
285.489492
21
107.198960
0
LINE
8
Layer 1
10
285.489492
20
107.198960
11
287.261734
21
106.772457
0
LINE
8
Layer 1
10
287.261734
20
106.772457
11
288.850114
21
105.936677
0
LINE
8
Layer 1
10
288.850114
20
105.936677
11
290.188592
21
104.737096
0
LINE
8
Layer 1
10
290.188592
20
104.737096
11
291.211122
21
103.219190
0
LINE
8
Layer 1
10
291.211122
20
103.219190
11
291.829958
21
101.518244
0
LINE
8
Layer 1
10
291.829958
20
101.518244
11
292.012029
21
99.742677
0
LINE
8
Layer 1
10
292.012029
20
99.742677
11
291.758369
21
97.972072
0
LINE
8
Layer 1
10
291.758369
20
97.972072
11
291.070011
21
96.286010
0
LINE
8
Layer 1
10
291.070011
20
96.286010
11
288.845281
21
92.448450
0
LINE
8
Layer 1
10
288.845281
20
92.448450
11
286.782088
21
88.892147
0
LINE
8
Layer 1
10
286.782088
20
88.892147
11
284.894171
21
85.250690
0
LINE
8
Layer 1
10
284.894171
20
85.250690
11
284.857793
21
85.175726
0
LINE
8
Layer 1
10
284.857793
20
85.175726
11
284.772928
21
85.003746
0
LINE
8
Layer 1
10
284.772928
20
85.003746
11
285.263226
21
82.974446
0
LINE
8
Layer 1
10
285.263226
20
82.974446
11
285.586518
21
81.039406
0
LINE
8
Layer 1
10
285.586518
20
81.039406
11
285.834563
21
79.551126
0
LINE
8
Layer 1
10
285.834563
20
79.551126
11
285.842183
21
79.530185
0
LINE
8
Layer 1
10
285.842183
20
79.530185
11
285.935909
21
79.315211
0
LINE
8
Layer 1
10
285.935909
20
79.315211
11
285.946916
21
79.287666
0
LINE
8
Layer 1
10
285.946916
20
79.287666
11
286.802416
21
77.718906
0
LINE
8
Layer 1
10
286.802416
20
77.718906
11
286.830074
21
77.675912
0
LINE
8
Layer 1
10
286.830074
20
77.675912
11
288.092364
21
75.876742
0
LINE
8
Layer 1
10
288.092364
20
75.876742
11
291.016014
21
76.575682
0
LINE
8
Layer 1
10
291.016014
20
76.575682
11
291.428312
21
76.657261
0
LINE
8
Layer 1
10
291.428312
20
76.657261
11
291.916697
21
76.747663
0
LINE
8
Layer 1
10
291.916697
20
76.747663
11
301.210187
21
78.525883
0
LINE
8
Layer 1
10
301.210187
20
78.525883
11
303.958517
21
79.002133
0
LINE
8
Layer 1
10
303.958517
20
79.002133
11
308.378167
21
79.617287
0
LINE
8
Layer 1
10
308.378167
20
79.617287
11
309.139941
21
79.699969
0
LINE
8
Layer 1
10
309.139941
20
79.699969
11
312.252242
21
79.956285
0
LINE
8
Layer 1
10
312.252242
20
79.956285
11
315.428211
21
80.060465
0
LINE
8
Layer 1
10
315.428211
20
80.060465
11
318.032142
21
80.006585
0
LINE
8
Layer 1
10
318.032142
20
80.006585
11
320.636903
21
79.806356
0
LINE
8
Layer 1
10
320.636903
20
79.806356
11
323.223069
21
79.439109
0
LINE
8
Layer 1
10
323.223069
20
79.439109
11
325.771211
21
78.884175
0
LINE
8
Layer 1
10
325.771211
20
78.884175
11
327.294112
21
78.424392
0
LINE
8
Layer 1
10
327.294112
20
78.424392
11
329.004907
21
77.738473
0
LINE
8
Layer 1
10
329.004907
20
77.738473
11
330.783917
21
76.785077
0
LINE
8
Layer 1
10
330.783917
20
76.785077
11
332.511461
21
75.522865
0
LINE
8
Layer 1
10
332.511461
20
75.522865
11
333.919938
21
74.127983
0
LINE
8
Layer 1
10
333.919938
20
74.127983
11
335.027348
21
72.596468
0
LINE
8
Layer 1
10
335.027348
20
72.596468
11
335.829865
21
70.934314
0
LINE
8
Layer 1
10
335.829865
20
70.934314
11
336.323661
21
69.147515
0
LINE
8
Layer 1
10
336.323661
20
69.147515
11
336.477898
21
67.892274
0
LINE
8
Layer 1
10
336.477898
20
67.892274
11
336.479066
21
66.661447
0
LINE
8
Layer 1
10
336.479066
20
66.661447
11
336.065797
21
64.284601
0
LINE
8
Layer 1
10
336.065797
20
64.284601
11
335.171060
21
62.040100
0
LINE
8
Layer 1
10
335.171060
20
62.040100
11
333.882057
21
59.951069
0
LINE
8
Layer 1
10
333.882057
20
59.951069
11
332.285993
21
58.040631
0
LINE
8
Layer 1
10
332.285993
20
58.040631
11
330.470073
21
56.331911
0
LINE
8
Layer 1
10
330.470073
20
56.331911
11
328.521501
21
54.848031
0
LINE
8
Layer 1
10
328.521501
20
54.848031
11
326.527481
21
53.612115
0
LINE
8
Layer 1
10
326.527481
20
53.612115
11
326.528000
21
53.612000
0
LINE
8
Layer 1
10
338.822300
20
69.610500
11
338.211305
21
71.806935
0
LINE
8
Layer 1
10
338.211305
20
71.806935
11
337.220186
21
73.864361
0
LINE
8
Layer 1
10
337.220186
20
73.864361
11
335.866509
21
75.754149
0
LINE
8
Layer 1
10
335.866509
20
75.754149
11
334.167840
21
77.447670
0
LINE
8
Layer 1
10
334.167840
20
77.447670
11
332.161930
21
78.918210
0
LINE
8
Layer 1
10
332.161930
20
78.918210
11
330.111171
21
80.024327
0
LINE
8
Layer 1
10
330.111171
20
80.024327
11
328.149297
21
80.815838
0
LINE
8
Layer 1
10
328.149297
20
80.815838
11
326.410040
21
81.342560
0
LINE
8
Layer 1
10
326.410040
20
81.342560
11
323.093631
21
82.037913
0
LINE
8
Layer 1
10
323.093631
20
82.037913
11
319.737775
21
82.442613
0
LINE
8
Layer 1
10
319.737775
20
82.442613
11
316.377653
21
82.596940
0
LINE
8
Layer 1
10
316.377653
20
82.596940
11
313.048444
21
82.541177
0
LINE
8
Layer 1
10
313.048444
20
82.541177
11
309.785328
21
82.315605
0
LINE
8
Layer 1
10
309.785328
20
82.315605
11
306.623485
21
81.960505
0
LINE
8
Layer 1
10
306.623485
20
81.960505
11
300.744340
21
81.022853
0
LINE
8
Layer 1
10
300.744340
20
81.022853
11
291.459690
21
79.245733
0
LINE
8
Layer 1
10
291.459690
20
79.245733
11
290.980138
21
79.157539
0
LINE
8
Layer 1
10
290.980138
20
79.157539
11
290.474114
21
79.057218
0
LINE
8
Layer 1
10
290.474114
20
79.057218
11
290.443239
21
79.050614
0
LINE
8
Layer 1
10
290.443239
20
79.050614
11
289.162209
21
78.744138
0
LINE
8
Layer 1
10
289.162209
20
78.744138
11
288.984720
21
79.024156
0
LINE
8
Layer 1
10
288.984720
20
79.024156
11
288.941738
21
79.090303
0
LINE
8
Layer 1
10
288.941738
20
79.090303
11
288.275863
21
80.306283
0
LINE
8
Layer 1
10
288.275863
20
80.306283
11
288.098374
21
81.426353
0
LINE
8
Layer 1
10
288.098374
20
81.426353
11
287.474409
21
84.756793
0
LINE
8
Layer 1
10
287.474409
20
84.756793
11
289.183027
21
87.976438
0
LINE
8
Layer 1
10
289.183027
20
87.976438
11
291.033059
21
91.156393
0
LINE
8
Layer 1
10
291.033059
20
91.156393
11
293.285299
21
95.044663
0
LINE
8
Layer 1
10
293.285299
20
95.044663
11
293.821037
21
96.157798
0
LINE
8
Layer 1
10
293.821037
20
96.157798
11
294.210996
21
97.312842
0
LINE
8
Layer 1
10
294.210996
20
97.312842
11
294.552543
21
99.694712
0
LINE
8
Layer 1
10
294.552543
20
99.694712
11
294.307874
21
102.082369
0
LINE
8
Layer 1
10
294.307874
20
102.082369
11
293.965063
21
103.244649
0
LINE
8
Layer 1
10
293.965063
20
103.244649
11
293.474923
21
104.367913
0
LINE
8
Layer 1
10
293.474923
20
104.367913
11
292.846137
21
105.438613
0
LINE
8
Layer 1
10
292.846137
20
105.438613
11
292.100034
21
106.409888
0
LINE
8
Layer 1
10
292.100034
20
106.409888
11
290.300885
21
108.023569
0
LINE
8
Layer 1
10
290.300885
20
108.023569
11
288.167493
21
109.147772
0
LINE
8
Layer 1
10
288.167493
20
109.147772
11
287.003586
21
109.507199
0
LINE
8
Layer 1
10
287.003586
20
109.507199
11
285.789873
21
109.721313
0
LINE
8
Layer 1
10
285.789873
20
109.721313
11
285.484510
21
109.757694
0
LINE
8
Layer 1
10
285.484510
20
109.757694
11
283.791179
21
109.819430
0
LINE
8
Layer 1
10
283.791179
20
109.819430
11
283.992575
21
111.948877
0
LINE
8
Layer 1
10
283.992575
20
111.948877
11
283.928978
21
114.078944
0
LINE
8
Layer 1
10
283.928978
20
114.078944
11
283.603279
21
116.130049
0
LINE
8
Layer 1
10
283.603279
20
116.130049
11
283.018371
21
118.022610
0
LINE
8
Layer 1
10
283.018371
20
118.022610
11
282.189716
21
119.724773
0
LINE
8
Layer 1
10
282.189716
20
119.724773
11
281.139420
21
121.335843
0
LINE
8
Layer 1
10
281.139420
20
121.335843
11
279.929961
21
122.837799
0
LINE
8
Layer 1
10
279.929961
20
122.837799
11
278.623814
21
124.212619
0
LINE
8
Layer 1
10
278.623814
20
124.212619
11
275.971369
21
126.508765
0
LINE
8
Layer 1
10
275.971369
20
126.508765
11
273.681900
21
128.080110
0
LINE
8
Layer 1
10
273.681900
20
128.080110
11
272.391475
21
128.732248
0
LINE
8
Layer 1
10
272.391475
20
128.732248
11
271.040497
21
129.183572
0
LINE
8
Layer 1
10
271.040497
20
129.183572
11
269.651511
21
129.434909
0
LINE
8
Layer 1
10
269.651511
20
129.434909
11
268.247060
21
129.487085
0
LINE
8
Layer 1
10
268.247060
20
129.487085
11
266.849690
21
129.340928
0
LINE
8
Layer 1
10
266.849690
20
129.340928
11
265.481944
21
128.997264
0
LINE
8
Layer 1
10
265.481944
20
128.997264
11
264.166366
21
128.456919
0
LINE
8
Layer 1
10
264.166366
20
128.456919
11
262.925500
21
127.720720
0
LINE
8
Layer 1
10
262.925500
20
127.720720
11
262.860457
21
127.675519
0
LINE
8
Layer 1
10
262.860457
20
127.675519
11
261.748218
21
126.758674
0
LINE
8
Layer 1
10
261.748218
20
126.758674
11
260.794174
21
125.706217
0
LINE
8
Layer 1
10
260.794174
20
125.706217
11
260.006658
21
124.538909
0
LINE
8
Layer 1
10
260.006658
20
124.538909
11
259.394002
21
123.277512
0
LINE
8
Layer 1
10
259.394002
20
123.277512
11
258.964539
21
121.942786
0
LINE
8
Layer 1
10
258.964539
20
121.942786
11
258.726602
21
120.555493
0
LINE
8
Layer 1
10
258.726602
20
120.555493
11
258.688524
21
119.136394
0
LINE
8
Layer 1
10
258.688524
20
119.136394
11
258.858637
21
117.706249
0
LINE
8
Layer 1
10
258.858637
20
117.706249
11
258.699337
21
116.211578
0
LINE
8
Layer 1
10
258.699337
20
116.211578
11
258.062961
21
114.121287
0
LINE
8
Layer 1
10
258.062961
20
114.121287
11
256.620707
21
110.441239
0
LINE
8
Layer 1
10
256.620707
20
110.441239
11
256.476288
21
110.096180
0
LINE
8
Layer 1
10
256.476288
20
110.096180
11
255.891998
21
108.676250
0
LINE
8
Layer 1
10
255.891998
20
108.676250
11
253.962059
21
109.019519
0
LINE
8
Layer 1
10
253.962059
20
109.019519
11
251.988298
21
109.173446
0
LINE
8
Layer 1
10
251.988298
20
109.173446
11
249.931634
21
109.136454
0
LINE
8
Layer 1
10
249.931634
20
109.136454
11
248.003684
21
108.925468
0
LINE
8
Layer 1
10
248.003684
20
108.925468
11
244.610974
21
108.145429
0
LINE
8
Layer 1
10
244.610974
20
108.145429
11
241.964276
21
107.161166
0
LINE
8
Layer 1
10
241.964276
20
107.161166
11
240.217698
21
106.300516
0
LINE
8
Layer 1
10
240.217698
20
106.300516
11
238.820918
21
105.464874
0
LINE
8
Layer 1
10
238.820918
20
105.464874
11
236.891854
21
107.451074
0
LINE
8
Layer 1
10
236.891854
20
107.451074
11
234.632372
21
108.985209
0
LINE
8
Layer 1
10
234.632372
20
108.985209
11
232.097765
21
110.036067
0
LINE
8
Layer 1
10
232.097765
20
110.036067
11
229.343328
21
110.572434
0
LINE
8
Layer 1
10
229.343328
20
110.572434
11
230.332864
21
114.032004
0
LINE
8
Layer 1
10
230.332864
20
114.032004
11
230.975295
21
117.648324
0
LINE
8
Layer 1
10
230.975295
20
117.648324
11
231.230232
21
121.367448
0
LINE
8
Layer 1
10
231.230232
20
121.367448
11
231.057291
21
125.135429
0
LINE
8
Layer 1
10
231.057291
20
125.135429
11
230.416084
21
128.898322
0
LINE
8
Layer 1
10
230.416084
20
128.898322
11
229.266224
21
132.602179
0
LINE
8
Layer 1
10
229.266224
20
132.602179
11
227.567325
21
136.193054
0
LINE
8
Layer 1
10
227.567325
20
136.193054
11
226.499365
21
137.929265
0
LINE
8
Layer 1
10
226.499365
20
137.929265
11
225.279000
21
139.617000
0
LINE
8
Layer 1
10
225.279000
20
139.617000
11
222.908250
21
142.236852
0
LINE
8
Layer 1
10
222.908250
20
142.236852
11
220.196813
21
144.466187
0
LINE
8
Layer 1
10
220.196813
20
144.466187
11
217.147781
21
146.303930
0
LINE
8
Layer 1
10
217.147781
20
146.303930
11
213.764250
21
147.749000
0
LINE
8
Layer 1
10
213.764250
20
147.749000
11
210.049312
21
148.800320
0
LINE
8
Layer 1
10
210.049312
20
148.800320
11
206.006062
21
149.456813
0
LINE
8
Layer 1
10
206.006062
20
149.456813
11
201.637594
21
149.717398
0
LINE
8
Layer 1
10
201.637594
20
149.717398
11
196.947000
21
149.581000
0
LINE
8
Layer 1
10
196.947000
20
149.581000
11
192.652778
21
149.086888
0
LINE
8
Layer 1
10
192.652778
20
149.086888
11
188.323547
21
148.203033
0
LINE
8
Layer 1
10
188.323547
20
148.203033
11
183.985274
21
146.940390
0
LINE
8
Layer 1
10
183.985274
20
146.940390
11
179.663925
21
145.309915
0
LINE
8
Layer 1
10
179.663925
20
145.309915
11
175.385467
21
143.322563
0
LINE
8
Layer 1
10
175.385467
20
143.322563
11
171.175866
21
140.989290
0
LINE
8
Layer 1
10
171.175866
20
140.989290
11
167.061088
21
138.321050
0
LINE
8
Layer 1
10
167.061088
20
138.321050
11
163.067100
21
135.328800
0
LINE
8
Layer 1
10
163.067100
20
135.328800
11
162.827875
21
135.144692
0
LINE
8
Layer 1
10
162.827875
20
135.144692
11
162.788186
21
135.113825
0
LINE
8
Layer 1
10
162.788186
20
135.113825
11
161.759069
21
134.299955
0
LINE
8
Layer 1
10
161.759069
20
134.299955
11
160.521586
21
133.127245
0
LINE
8
Layer 1
10
160.521586
20
133.127245
11
159.773299
21
132.204473
0
LINE
8
Layer 1
10
159.773299
20
132.204473
11
159.164461
21
131.203347
0
LINE
8
Layer 1
10
159.164461
20
131.203347
11
158.698405
21
130.139151
0
LINE
8
Layer 1
10
158.698405
20
130.139151
11
158.378464
21
129.027168
0
LINE
8
Layer 1
10
158.378464
20
129.027168
11
158.207970
21
127.882681
0
LINE
8
Layer 1
10
158.207970
20
127.882681
11
158.190257
21
126.720972
0
LINE
8
Layer 1
10
158.190257
20
126.720972
11
158.328658
21
125.557326
0
LINE
8
Layer 1
10
158.328658
20
125.557326
11
158.626506
21
124.407025
0
LINE
8
Layer 1
10
158.626506
20
124.407025
11
159.706886
21
121.190135
0
LINE
8
Layer 1
10
159.706886
20
121.190135
11
160.508353
21
119.478892
0
LINE
8
Layer 1
10
160.508353
20
119.478892
11
161.650466
21
117.990885
0
LINE
8
Layer 1
10
161.650466
20
117.990885
11
158.906516
21
108.965295
0
LINE
8
Layer 1
10
158.906516
20
108.965295
11
155.780026
21
109.327993
0
LINE
8
Layer 1
10
155.780026
20
109.327993
11
154.018040
21
109.288056
0
LINE
8
Layer 1
10
154.018040
20
109.288056
11
152.287512
21
109.065547
0
LINE
8
Layer 1
10
152.287512
20
109.065547
11
150.593545
21
108.662686
0
LINE
8
Layer 1
10
150.593545
20
108.662686
11
148.941242
21
108.081697
0
LINE
8
Layer 1
10
148.941242
20
108.081697
11
147.335706
21
107.324801
0
LINE
8
Layer 1
10
147.335706
20
107.324801
11
145.782040
21
106.394221
0
LINE
8
Layer 1
10
145.782040
20
106.394221
11
144.285346
21
105.292177
0
LINE
8
Layer 1
10
144.285346
20
105.292177
11
142.850726
21
104.020893
0
LINE
8
Layer 1
10
142.850726
20
104.020893
11
140.173201
21
105.138895
0
LINE
8
Layer 1
10
140.173201
20
105.138895
11
137.943816
21
105.857543
0
LINE
8
Layer 1
10
137.943816
20
105.857543
11
137.642854
21
105.947942
0
LINE
8
Layer 1
10
137.642854
20
105.947942
11
135.596469
21
106.388087
0
LINE
8
Layer 1
10
135.596469
20
106.388087
11
133.985096
21
106.444655
0
LINE
8
Layer 1
10
133.985096
20
106.444655
11
132.106454
21
106.171736
0
LINE
8
Layer 1
10
132.106454
20
106.171736
11
130.749640
21
105.727456
0
LINE
8
Layer 1
10
130.749640
20
105.727456
11
129.506924
21
105.097966
0
LINE
8
Layer 1
10
129.506924
20
105.097966
11
127.350297
21
106.435816
0
LINE
8
Layer 1
10
127.350297
20
106.435816
11
125.043188
21
107.360563
0
LINE
8
Layer 1
10
125.043188
20
107.360563
11
122.670759
21
107.832832
0
LINE
8
Layer 1
10
122.670759
20
107.832832
11
120.318174
21
107.813246
0
LINE
8
Layer 1
10
120.318174
20
107.813246
11
119.091998
21
107.577189
0
LINE
8
Layer 1
10
119.091998
20
107.577189
11
117.708724
21
107.082336
0
LINE
8
Layer 1
10
117.708724
20
107.082336
11
117.590766
21
107.134149
0
LINE
8
Layer 1
10
117.590766
20
107.134149
11
115.459766
21
107.983022
0
LINE
8
Layer 1
10
115.459766
20
107.983022
11
114.535932
21
108.324773
0
LINE
8
Layer 1
10
114.535932
20
108.324773
11
112.960562
21
108.921190
0
LINE
8
Layer 1
10
112.960562
20
108.921190
11
112.235161
21
109.256329
0
LINE
8
Layer 1
10
112.235161
20
109.256329
11
111.858132
21
109.436023
0
LINE
8
Layer 1
10
111.858132
20
109.436023
11
110.024188
21
110.066906
0
LINE
8
Layer 1
10
110.024188
20
110.066906
11
108.124615
21
110.277867
0
LINE
8
Layer 1
10
108.124615
20
110.277867
11
106.224835
21
110.069007
0
LINE
8
Layer 1
10
106.224835
20
110.069007
11
104.390272
21
109.440426
0
LINE
8
Layer 1
10
104.390272
20
109.440426
11
103.104842
21
108.694081
0
LINE
8
Layer 1
10
103.104842
20
108.694081
11
100.939672
21
109.149384
0
LINE
8
Layer 1
10
100.939672
20
109.149384
11
101.306781
21
111.181164
0
LINE
8
Layer 1
10
101.306781
20
111.181164
11
102.942616
21
112.699780
0
LINE
8
Layer 1
10
102.942616
20
112.699780
11
104.270665
21
114.431211
0
LINE
8
Layer 1
10
104.270665
20
114.431211
11
105.299403
21
116.323380
0
LINE
8
Layer 1
10
105.299403
20
116.323380
11
106.037306
21
118.324214
0
LINE
8
Layer 1
10
106.037306
20
118.324214
11
106.492849
21
120.381634
0
LINE
8
Layer 1
10
106.492849
20
120.381634
11
106.674508
21
122.443567
0
LINE
8
Layer 1
10
106.674508
20
122.443567
11
106.590757
21
124.457935
0
LINE
8
Layer 1
10
106.590757
20
124.457935
11
106.250071
21
126.372664
0
LINE
8
Layer 1
10
106.250071
20
126.372664
11
105.791536
21
127.843548
0
LINE
8
Layer 1
10
105.791536
20
127.843548
11
105.186899
21
129.213146
0
LINE
8
Layer 1
10
105.186899
20
129.213146
11
104.444156
21
130.472259
0
LINE
8
Layer 1
10
104.444156
20
130.472259
11
103.571306
21
131.611690
0
LINE
8
Layer 1
10
103.571306
20
131.611690
11
102.576345
21
132.622239
0
LINE
8
Layer 1
10
102.576345
20
132.622239
11
101.467269
21
133.494708
0
LINE
8
Layer 1
10
101.467269
20
133.494708
11
100.252075
21
134.219899
0
LINE
8
Layer 1
10
100.252075
20
134.219899
11
98.938761
21
134.788614
0
LINE
8
Layer 1
10
98.938761
20
134.788614
11
96.742584
21
135.328923
0
LINE
8
Layer 1
10
96.742584
20
135.328923
11
94.476127
21
135.420166
0
LINE
8
Layer 1
10
94.476127
20
135.420166
11
92.190653
21
135.069681
0
LINE
8
Layer 1
10
92.190653
20
135.069681
11
89.937421
21
134.284805
0
LINE
8
Layer 1
10
89.937421
20
134.284805
11
87.521721
21
135.007723
0
LINE
8
Layer 1
10
87.521721
20
135.007723
11
84.641351
21
135.272582
0
LINE
8
Layer 1
10
84.641351
20
135.272582
11
81.331992
21
135.010620
0
LINE
8
Layer 1
10
81.331992
20
135.010620
11
77.937471
21
134.149202
0
LINE
8
Layer 1
10
77.937471
20
134.149202
11
76.927641
21
133.775478
0
LINE
8
Layer 1
10
76.927641
20
133.775478
11
76.472097
21
135.978304
0
LINE
8
Layer 1
10
76.472097
20
135.978304
11
75.814187
21
138.114366
0
LINE
8
Layer 1
10
75.814187
20
138.114366
11
74.955359
21
140.174774
0
LINE
8
Layer 1
10
74.955359
20
140.174774
11
73.897061
21
142.150638
0
LINE
8
Layer 1
10
73.897061
20
142.150638
11
72.975431
21
143.571668
0
LINE
8
Layer 1
10
72.975431
20
143.571668
11
71.708222
21
145.199753
0
LINE
8
Layer 1
10
71.708222
20
145.199753
11
70.319112
21
146.654229
0
LINE
8
Layer 1
10
70.319112
20
146.654229
11
68.820840
21
147.940296
0
LINE
8
Layer 1
10
68.820840
20
147.940296
11
67.226147
21
149.063157
0
LINE
8
Layer 1
10
67.226147
20
149.063157
11
65.547773
21
150.028014
0
LINE
8
Layer 1
10
65.547773
20
150.028014
11
63.798456
21
150.840069
0
LINE
8
Layer 1
10
63.798456
20
150.840069
11
61.990936
21
151.504525
0
LINE
8
Layer 1
10
61.990936
20
151.504525
11
60.137954
21
152.026583
0
LINE
8
Layer 1
10
60.137954
20
152.026583
11
56.346560
21
152.664316
0
LINE
8
Layer 1
10
56.346560
20
152.664316
11
52.526191
21
152.794885
0
LINE
8
Layer 1
10
52.526191
20
152.794885
11
48.778765
21
152.459908
0
LINE
8
Layer 1
10
48.778765
20
152.459908
11
45.206200
21
151.701000
0
LINE
8
Layer 1
10
45.206200
20
151.701000
11
41.661044
21
150.626547
0
LINE
8
Layer 1
10
41.661044
20
150.626547
11
37.769950
21
149.154125
0
LINE
8
Layer 1
10
37.769950
20
149.154125
11
33.693006
21
147.149391
0
LINE
8
Layer 1
10
33.693006
20
147.149391
11
31.634868
21
145.905424
0
LINE
8
Layer 1
10
31.634868
20
145.905424
11
29.590300
21
144.478000
0
LINE
8
Layer 1
10
29.590300
20
144.478000
11
25.449570
21
140.960150
0
LINE
8
Layer 1
10
25.449570
20
140.960150
11
21.648392
21
137.160517
0
LINE
8
Layer 1
10
21.648392
20
137.160517
11
19.806044
21
135.008919
0
LINE
8
Layer 1
10
19.806044
20
135.008919
11
18.062193
21
132.658292
0
LINE
8
Layer 1
10
18.062193
20
132.658292
11
16.461588
21
130.085254
0
LINE
8
Layer 1
10
16.461588
20
130.085254
11
15.048982
21
127.266422
0
LINE
8
Layer 1
10
15.048982
20
127.266422
11
13.869125
21
124.178415
0
LINE
8
Layer 1
10
13.869125
20
124.178415
11
12.966770
21
120.797850
0
LINE
8
Layer 1
10
12.966770
20
120.797850
11
12.710164
21
119.194159
0
LINE
8
Layer 1
10
12.710164
20
119.194159
11
12.619246
21
117.592329
0
LINE
8
Layer 1
10
12.619246
20
117.592329
11
12.692892
21
115.997837
0
LINE
8
Layer 1
10
12.692892
20
115.997837
11
12.929976
21
114.416160
0
LINE
8
Layer 1
10
12.929976
20
114.416160
11
13.329376
21
112.852775
0
LINE
8
Layer 1
10
13.329376
20
112.852775
11
13.889968
21
111.313161
0
LINE
8
Layer 1
10
13.889968
20
111.313161
11
14.610627
21
109.802793
0
LINE
8
Layer 1
10
14.610627
20
109.802793
11
15.490230
21
108.327150
0
LINE
8
Layer 1
10
15.490230
20
108.327150
11
17.080070
21
106.234688
0
LINE
8
Layer 1
10
17.080070
20
106.234688
11
18.939455
21
104.340352
0
LINE
8
Layer 1
10
18.939455
20
104.340352
11
20.981982
21
102.722380
0
LINE
8
Layer 1
10
20.981982
20
102.722380
11
23.121250
21
101.459010
0
LINE
8
Layer 1
10
23.121250
20
101.459010
11
26.012920
21
100.360990
0
LINE
8
Layer 1
10
26.012920
20
100.360990
11
23.821290
21
90.626540
0
LINE
8
Layer 1
10
23.821290
20
90.626540
11
23.346143
21
88.399630
0
LINE
8
Layer 1
10
23.346143
20
88.399630
11
23.337324
21
88.357737
0
LINE
8
Layer 1
10
23.337324
20
88.357737
11
22.580369
21
84.762574
0
LINE
8
Layer 1
10
22.580369
20
84.762574
11
21.915194
21
81.017757
0
LINE
8
Layer 1
10
21.915194
20
81.017757
11
21.864482
21
80.684823
0
LINE
8
Layer 1
10
21.864482
20
80.684823
11
21.268239
21
76.154236
0
LINE
8
Layer 1
10
21.268239
20
76.154236
11
21.098056
21
73.571952
0
LINE
8
Layer 1
10
21.098056
20
73.571952
11
21.121995
21
70.876095
0
LINE
8
Layer 1
10
21.121995
20
70.876095
11
21.421679
21
68.139979
0
LINE
8
Layer 1
10
21.421679
20
68.139979
11
22.078732
21
65.436919
0
LINE
8
Layer 1
10
22.078732
20
65.436919
11
23.174775
21
62.840229
0
LINE
8
Layer 1
10
23.174775
20
62.840229
11
23.912925
21
61.604683
0
LINE
8
Layer 1
10
23.912925
20
61.604683
11
24.791432
21
60.423223
0
LINE
8
Layer 1
10
24.791432
20
60.423223
11
26.413141
21
58.768391
0
LINE
8
Layer 1
10
26.413141
20
58.768391
11
28.646902
21
57.210607
0
LINE
8
Layer 1
10
28.646902
20
57.210607
11
30.012485
21
56.551920
0
LINE
8
Layer 1
10
30.012485
20
56.551920
11
31.554102
21
56.018070
0
LINE
8
Layer 1
10
31.554102
20
56.018070
11
33.279426
21
55.642583
0
LINE
8
Layer 1
10
33.279426
20
55.642583
11
35.196132
21
55.458983
0
LINE
8
Layer 1
10
35.196132
20
55.458983
11
35.695532
21
55.446847
0
LINE
8
Layer 1
10
35.695532
20
55.446847
11
37.328232
21
55.584650
0
LINE
8
Layer 1
10
37.328232
20
55.584650
11
39.306645
21
56.168043
0
LINE
8
Layer 1
10
39.306645
20
56.168043
11
41.043419
21
57.159472
0
LINE
8
Layer 1
10
41.043419
20
57.159472
11
42.489152
21
58.499820
0
LINE
8
Layer 1
10
42.489152
20
58.499820
11
43.594442
21
60.129970
0
LINE
8
Layer 1
10
43.594442
20
60.129970
11
45.441284
21
59.107054
0
LINE
8
Layer 1
10
45.441284
20
59.107054
11
47.428692
21
58.306550
0
LINE
8
Layer 1
10
47.428692
20
58.306550
11
49.439937
21
57.798881
0
LINE
8
Layer 1
10
49.439937
20
57.798881
11
51.605802
21
57.585560
0
LINE
8
Layer 1
10
51.605802
20
57.585560
11
53.319544
21
57.623009
0
LINE
8
Layer 1
10
53.319544
20
57.623009
11
55.035870
21
57.828922
0
LINE
8
Layer 1
10
55.035870
20
57.828922
11
56.694940
21
58.192344
0
LINE
8
Layer 1
10
56.694940
20
58.192344
11
58.236912
21
58.702320
0
LINE
8
Layer 1
10
58.236912
20
58.702320
11
61.133132
21
60.164557
0
LINE
8
Layer 1
10
61.133132
20
60.164557
11
64.076482
21
62.264270
0
LINE
8
Layer 1
10
64.076482
20
62.264270
11
64.094121
21
62.242229
0
LINE
8
Layer 1
10
64.094121
20
62.242229
11
65.125056
21
61.063331
0
LINE
8
Layer 1
10
65.125056
20
61.063331
11
66.258672
21
60.026310
0
LINE
8
Layer 1
10
66.258672
20
60.026310
11
67.486856
21
59.135173
0
LINE
8
Layer 1
10
67.486856
20
59.135173
11
68.801494
21
58.393923
0
LINE
8
Layer 1
10
68.801494
20
58.393923
11
70.194473
21
57.806565
0
LINE
8
Layer 1
10
70.194473
20
57.806565
11
71.657680
21
57.377103
0
LINE
8
Layer 1
10
71.657680
20
57.377103
11
73.183000
21
57.109543
0
LINE
8
Layer 1
10
73.183000
20
57.109543
11
74.762321
21
57.007889
0
LINE
8
Layer 1
10
74.762321
20
57.007889
11
74.889101
21
57.006760
0
LINE
8
Layer 1
10
74.889101
20
57.006760
11
76.722960
21
57.143272
0
LINE
8
Layer 1
10
76.722960
20
57.143272
11
78.522711
21
57.548190
0
LINE
8
Layer 1
10
78.522711
20
57.548190
11
80.264584
21
58.214591
0
LINE
8
Layer 1
10
80.264584
20
58.214591
11
81.924811
21
59.135550
0
LINE
8
Layer 1
10
81.924811
20
59.135550
11
83.899677
21
60.658695
0
LINE
8
Layer 1
10
83.899677
20
60.658695
11
85.490071
21
62.301730
0
LINE
8
Layer 1
10
85.490071
20
62.301730
11
87.257957
21
60.818549
0
LINE
8
Layer 1
10
87.257957
20
60.818549
11
89.215181
21
59.597470
0
LINE
8
Layer 1
10
89.215181
20
59.597470
11
92.017832
21
58.431238
0
LINE
8
Layer 1
10
92.017832
20
58.431238
11
94.944511
21
57.841300
0
LINE
8
Layer 1
10
94.944511
20
57.841300
11
95.537066
21
55.652563
0
LINE
8
Layer 1
10
95.537066
20
55.652563
11
96.652171
21
53.246370
0
LINE
8
Layer 1
10
96.652171
20
53.246370
11
97.702493
21
51.574689
0
LINE
8
Layer 1
10
97.702493
20
51.574689
11
99.037138
21
49.781569
0
LINE
8
Layer 1
10
99.037138
20
49.781569
11
102.605291
21
45.775200
0
LINE
8
Layer 1
10
102.605291
20
45.775200
11
102.750810
21
45.626373
0
LINE
8
Layer 1
10
102.750810
20
45.626373
11
106.844644
21
41.820629
0
LINE
8
Layer 1
10
106.844644
20
41.820629
11
111.283882
21
38.473669
0
LINE
8
Layer 1
10
111.283882
20
38.473669
11
116.005484
21
35.628387
0
LINE
8
Layer 1
10
116.005484
20
35.628387
11
120.946410
21
33.327673
0
LINE
8
Layer 1
10
120.946410
20
33.327673
11
124.221056
21
32.113484
0
LINE
8
Layer 1
10
124.221056
20
32.113484
11
127.625618
21
31.029936
0
LINE
8
Layer 1
10
127.625618
20
31.029936
11
131.147801
21
30.080746
0
LINE
8
Layer 1
10
131.147801
20
30.080746
11
134.775310
21
29.269633
0
LINE
8
Layer 1
10
134.775310
20
29.269633
11
140.674229
21
28.261666
0
LINE
8
Layer 1
10
140.674229
20
28.261666
11
146.934991
21
27.546808
0
LINE
8
Layer 1
10
146.934991
20
27.546808
11
153.603162
21
27.120925
0
LINE
8
Layer 1
10
153.603162
20
27.120925
11
160.724310
21
26.979883
0
LINE
8
Layer 1
10
160.724310
20
26.979883
11
168.489830
21
27.119891
0
LINE
8
Layer 1
10
168.489830
20
27.119891
11
176.697293
21
27.496233
0
LINE
8
Layer 1
10
176.697293
20
27.496233
11
182.906330
21
27.994119
0
LINE
8
Layer 1
10
182.906330
20
27.994119
11
191.485305
21
28.985477
0
LINE
8
Layer 1
10
191.485305
20
28.985477
11
200.354530
21
30.385289
0
LINE
8
Layer 1
10
200.354530
20
30.385289
11
211.330330
21
32.664009
0
LINE
8
Layer 1
10
211.330330
20
32.664009
11
226.816842
21
36.389532
0
LINE
8
Layer 1
10
226.816842
20
36.389532
11
241.831230
21
40.497869
0
LINE
8
Layer 1
10
241.831230
20
40.497869
11
242.424336
21
40.670950
0
LINE
8
Layer 1
10
242.424336
20
40.670950
11
249.973776
21
42.853760
0
LINE
8
Layer 1
10
249.973776
20
42.853760
11
266.511577
21
47.840325
0
LINE
8
Layer 1
10
266.511577
20
47.840325
11
279.207976
21
51.862810
0
LINE
8
Layer 1
10
279.207976
20
51.862810
11
280.832956
21
52.447100
0
LINE
8
Layer 1
10
280.832956
20
52.447100
11
283.201414
21
51.298928
0
LINE
8
Layer 1
10
283.201414
20
51.298928
11
285.773402
21
50.268423
0
LINE
8
Layer 1
10
285.773402
20
50.268423
11
288.521761
21
49.362562
0
LINE
8
Layer 1
10
288.521761
20
49.362562
11
291.419336
21
48.588320
0
LINE
8
Layer 1
10
291.419336
20
48.588320
11
294.438969
21
47.952675
0
LINE
8
Layer 1
10
294.438969
20
47.952675
11
297.553504
21
47.462602
0
LINE
8
Layer 1
10
297.553504
20
47.462602
11
300.735785
21
47.125078
0
LINE
8
Layer 1
10
300.735785
20
47.125078
11
303.958656
21
46.947080
0
LINE
8
Layer 1
10
303.958656
20
46.947080
11
307.494173
21
46.929265
0
LINE
8
Layer 1
10
307.494173
20
46.929265
11
310.922112
21
47.085056
0
LINE
8
Layer 1
10
310.922112
20
47.085056
11
314.216235
21
47.409572
0
LINE
8
Layer 1
10
314.216235
20
47.409572
11
317.350303
21
47.897927
0
LINE
8
Layer 1
10
317.350303
20
47.897927
11
320.298078
21
48.545239
0
LINE
8
Layer 1
10
320.298078
20
48.545239
11
323.033320
21
49.346624
0
LINE
8
Layer 1
10
323.033320
20
49.346624
11
325.529792
21
50.297199
0
LINE
8
Layer 1
10
325.529792
20
50.297199
11
327.761256
21
51.392080
0
LINE
8
Layer 1
10
327.761256
20
51.392080
11
330.031130
21
52.806639
0
LINE
8
Layer 1
10
330.031130
20
52.806639
11
332.246682
21
54.517651
0
LINE
8
Layer 1
10
332.246682
20
54.517651
11
334.308318
21
56.500145
0
LINE
8
Layer 1
10
334.308318
20
56.500145
11
336.116443
21
58.729151
0
LINE
8
Layer 1
10
336.116443
20
58.729151
11
337.571464
21
61.179699
0
LINE
8
Layer 1
10
337.571464
20
61.179699
11
338.573785
21
63.826816
0
LINE
8
Layer 1
10
338.573785
20
63.826816
11
338.874061
21
65.216286
0
LINE
8
Layer 1
10
338.874061
20
65.216286
11
339.023814
21
66.645534
0
LINE
8
Layer 1
10
339.023814
20
66.645534
11
339.010595
21
68.111439
0
LINE
8
Layer 1
10
339.010595
20
68.111439
11
338.821956
21
69.610880
0
LINE
8
Layer 1
10
58.878600
20
111.031000
11
61.492433
21
113.578876
0
LINE
8
Layer 1
10
61.492433
20
113.578876
11
63.846890
21
116.539673
0
LINE
8
Layer 1
10
63.846890
20
116.539673
11
65.832454
21
119.818331
0
LINE
8
Layer 1
10
65.832454
20
119.818331
11
67.339611
21
123.319793
0
LINE
8
Layer 1
10
67.339611
20
123.319793
11
67.879564
21
125.124369
0
LINE
8
Layer 1
10
67.879564
20
125.124369
11
68.258846
21
126.948999
0
LINE
8
Layer 1
10
68.258846
20
126.948999
11
68.463769
21
128.781800
0
LINE
8
Layer 1
10
68.463769
20
128.781800
11
68.480642
21
130.610891
0
LINE
8
Layer 1
10
68.480642
20
130.610891
11
68.295778
21
132.424389
0
LINE
8
Layer 1
10
68.295778
20
132.424389
11
67.895486
21
134.210411
0
LINE
8
Layer 1
10
67.895486
20
134.210411
11
67.266076
21
135.957075
0
LINE
8
Layer 1
10
67.266076
20
135.957075
11
66.393860
21
137.652500
0
LINE
8
Layer 1
10
66.393860
20
137.652500
11
65.809570
21
138.553185
0
LINE
8
Layer 1
10
65.809570
20
138.553185
11
64.136998
21
140.457391
0
LINE
8
Layer 1
10
64.136998
20
140.457391
11
62.149328
21
141.928548
0
LINE
8
Layer 1
10
62.149328
20
141.928548
11
59.916867
21
142.995390
0
LINE
8
Layer 1
10
59.916867
20
142.995390
11
57.509919
21
143.686647
0
LINE
8
Layer 1
10
57.509919
20
143.686647
11
54.998790
21
144.031054
0
LINE
8
Layer 1
10
54.998790
20
144.031054
11
52.453785
21
144.057340
0
LINE
8
Layer 1
10
52.453785
20
144.057340
11
49.945210
21
143.794240
0
LINE
8
Layer 1
10
49.945210
20
143.794240
11
47.543370
21
143.270485
0
LINE
8
Layer 1
10
47.543370
20
143.270485
11
44.161889
21
142.235768
0
LINE
8
Layer 1
10
44.161889
20
142.235768
11
40.917350
21
140.985560
0
LINE
8
Layer 1
10
40.917350
20
140.985560
11
37.811096
21
139.430874
0
LINE
8
Layer 1
10
37.811096
20
139.430874
11
34.844470
21
137.482725
0
LINE
8
Layer 1
10
34.844470
20
137.482725
11
31.396070
21
134.542545
0
LINE
8
Layer 1
10
31.396070
20
134.542545
11
27.978312
21
131.121654
0
LINE
8
Layer 1
10
27.978312
20
131.121654
11
26.483445
21
129.363622
0
LINE
8
Layer 1
10
26.483445
20
129.363622
11
25.143776
21
127.536743
0
LINE
8
Layer 1
10
25.143776
20
127.536743
11
23.968697
21
125.613176
0
LINE
8
Layer 1
10
23.968697
20
125.613176
11
22.967600
21
123.565082
0
LINE
8
Layer 1
10
22.967600
20
123.565082
11
22.149877
21
121.364618
0
LINE
8
Layer 1
10
22.149877
20
121.364618
11
21.524920
21
118.983945
0
LINE
8
Layer 1
10
21.524920
20
118.983945
11
21.383453
21
117.249892
0
LINE
8
Layer 1
10
21.383453
20
117.249892
11
21.653458
21
115.619399
0
LINE
8
Layer 1
10
21.653458
20
115.619399
11
22.246699
21
114.115720
0
LINE
8
Layer 1
10
22.246699
20
114.115720
11
23.074938
21
112.762109
0
LINE
8
Layer 1
10
23.074938
20
112.762109
11
24.049937
21
111.581820
0
LINE
8
Layer 1
10
24.049937
20
111.581820
11
25.083461
21
110.598109
0
LINE
8
Layer 1
10
25.083461
20
110.598109
11
26.973130
21
109.313435
0
LINE
8
Layer 1
10
26.973130
20
109.313435
11
28.489523
21
108.754090
0
LINE
8
Layer 1
10
28.489523
20
108.754090
11
30.029060
21
108.509763
0
LINE
8
Layer 1
10
30.029060
20
108.509763
11
31.031308
21
108.556480
0
LINE
8
Layer 1
10
31.031308
20
108.556480
11
31.912010
21
108.787577
0
LINE
8
Layer 1
10
31.912010
20
108.787577
11
32.926935
21
109.365801
0
LINE
8
Layer 1
10
32.926935
20
109.365801
11
33.893080
21
110.317747
0
LINE
8
Layer 1
10
33.893080
20
110.317747
11
34.509239
21
111.178742
0
LINE
8
Layer 1
10
34.509239
20
111.178742
11
34.932982
21
112.040551
0
LINE
8
Layer 1
10
34.932982
20
112.040551
11
35.311633
21
113.773173
0
LINE
8
Layer 1
10
35.311633
20
113.773173
11
35.245867
21
115.528740
0
LINE
8
Layer 1
10
35.245867
20
115.528740
11
34.952520
21
117.320377
0
LINE
8
Layer 1
10
34.952520
20
117.320377
11
34.944815
21
117.362270
0
LINE
8
Layer 1
10
34.944815
20
117.362270
11
34.735355
21
118.576040
0
LINE
8
Layer 1
10
34.735355
20
118.576040
11
34.476007
21
119.109617
0
LINE
8
Layer 1
10
34.476007
20
119.109617
11
33.966960
21
119.411682
0
LINE
8
Layer 1
10
33.966960
20
119.411682
11
33.376058
21
119.379850
0
LINE
8
Layer 1
10
33.376058
20
119.379850
11
32.900910
21
119.028038
0
LINE
8
Layer 1
10
32.900910
20
119.028038
11
32.511751
21
118.502177
0
LINE
8
Layer 1
10
32.511751
20
118.502177
11
31.616544
21
117.313949
0
LINE
8
Layer 1
10
31.616544
20
117.313949
11
30.633488
21
116.206231
0
LINE
8
Layer 1
10
30.633488
20
116.206231
11
29.576431
21
115.399268
0
LINE
8
Layer 1
10
29.576431
20
115.399268
11
29.024480
21
115.177397
0
LINE
8
Layer 1
10
29.024480
20
115.177397
11
28.459221
21
115.113307
0
LINE
8
Layer 1
10
28.459221
20
115.113307
11
27.549718
21
115.388914
0
LINE
8
Layer 1
10
27.549718
20
115.388914
11
27.027856
21
115.854555
0
LINE
8
Layer 1
10
27.027856
20
115.854555
11
26.721793
21
116.544264
0
LINE
8
Layer 1
10
26.721793
20
116.544264
11
26.630565
21
117.424261
0
LINE
8
Layer 1
10
26.630565
20
117.424261
11
26.727840
21
118.416190
0
LINE
8
Layer 1
10
26.727840
20
118.416190
11
27.317521
21
120.526243
0
LINE
8
Layer 1
10
27.317521
20
120.526243
11
28.150080
21
122.455221
0
LINE
8
Layer 1
10
28.150080
20
122.455221
11
28.884763
21
123.783924
0
LINE
8
Layer 1
10
28.884763
20
123.783924
11
30.623452
21
126.249508
0
LINE
8
Layer 1
10
30.623452
20
126.249508
11
32.547451
21
128.570398
0
LINE
8
Layer 1
10
32.547451
20
128.570398
11
34.625031
21
130.757755
0
LINE
8
Layer 1
10
34.625031
20
130.757755
11
36.824463
21
132.822744
0
LINE
8
Layer 1
10
36.824463
20
132.822744
11
38.713801
21
134.379754
0
LINE
8
Layer 1
10
38.713801
20
134.379754
11
40.758067
21
135.759616
0
LINE
8
Layer 1
10
40.758067
20
135.759616
11
42.948889
21
136.872415
0
LINE
8
Layer 1
10
42.948889
20
136.872415
11
45.277893
21
137.628234
0
LINE
8
Layer 1
10
45.277893
20
137.628234
11
47.711454
21
138.018684
0
LINE
8
Layer 1
10
47.711454
20
138.018684
11
50.269556
21
138.084502
0
LINE
8
Layer 1
10
50.269556
20
138.084502
11
52.793551
21
137.754893
0
LINE
8
Layer 1
10
52.793551
20
137.754893
11
55.124793
21
136.959059
0
LINE
8
Layer 1
10
55.124793
20
136.959059
11
56.986246
21
135.752724
0
LINE
8
Layer 1
10
56.986246
20
135.752724
11
58.553353
21
134.171009
0
LINE
8
Layer 1
10
58.553353
20
134.171009
11
59.364510
21
133.047986
0
LINE
8
Layer 1
10
59.364510
20
133.047986
11
59.987216
21
131.883468
0
LINE
8
Layer 1
10
59.987216
20
131.883468
11
60.428875
21
130.681535
0
LINE
8
Layer 1
10
60.428875
20
130.681535
11
60.696888
21
129.446271
0
LINE
8
Layer 1
10
60.696888
20
129.446271
11
60.798659
21
128.181759
0
LINE
8
Layer 1
10
60.798659
20
128.181759
11
60.741588
21
126.892079
0
LINE
8
Layer 1
10
60.741588
20
126.892079
11
60.180533
21
124.253549
0
LINE
8
Layer 1
10
60.180533
20
124.253549
11
59.636553
21
122.809282
0
LINE
8
Layer 1
10
59.636553
20
122.809282
11
58.966483
21
121.417413
0
LINE
8
Layer 1
10
58.966483
20
121.417413
11
57.413433
21
118.735889
0
LINE
8
Layer 1
10
57.413433
20
118.735889
11
55.283939
21
115.707033
0
LINE
8
Layer 1
10
55.283939
20
115.707033
11
52.790542
21
112.996088
0
LINE
8
Layer 1
10
52.790542
20
112.996088
11
49.971591
21
110.648943
0
LINE
8
Layer 1
10
49.971591
20
110.648943
11
46.865433
21
108.711489
0
LINE
8
Layer 1
10
46.865433
20
108.711489
11
51.005053
21
121.950589
0
LINE
8
Layer 1
10
51.005053
20
121.950589
11
51.748781
21
124.458895
0
LINE
8
Layer 1
10
51.748781
20
124.458895
11
51.982822
21
125.717799
0
LINE
8
Layer 1
10
51.982822
20
125.717799
11
52.060073
21
127.028379
0
LINE
8
Layer 1
10
52.060073
20
127.028379
11
51.936679
21
128.210662
0
LINE
8
Layer 1
10
51.936679
20
128.210662
11
51.613452
21
129.265602
0
LINE
8
Layer 1
10
51.613452
20
129.265602
11
51.113699
21
130.194633
0
LINE
8
Layer 1
10
51.113699
20
130.194633
11
50.460725
21
130.999189
0
LINE
8
Layer 1
10
50.460725
20
130.999189
11
49.677836
21
131.680704
0
LINE
8
Layer 1
10
49.677836
20
131.680704
11
48.788338
21
132.240611
0
LINE
8
Layer 1
10
48.788338
20
132.240611
11
46.782743
21
133.001339
0
LINE
8
Layer 1
10
46.782743
20
133.001339
11
45.039803
21
133.344196
0
LINE
8
Layer 1
10
45.039803
20
133.344196
11
44.472466
21
133.397250
0
LINE
8
Layer 1
10
44.472466
20
133.397250
11
43.953913
21
133.229543
0
LINE
8
Layer 1
10
43.953913
20
133.229543
11
43.654362
21
132.813478
0
LINE
8
Layer 1
10
43.654362
20
132.813478
11
43.495577
21
132.238458
0
LINE
8
Layer 1
10
43.495577
20
132.238458
11
43.336552
21
131.088623
0
LINE
8
Layer 1
10
43.336552
20
131.088623
11
42.732419
21
128.387673
0
LINE
8
Layer 1
10
42.732419
20
128.387673
11
41.765589
21
124.318603
0
LINE
8
Layer 1
10
41.765589
20
124.318603
11
40.855447
21
120.892698
0
LINE
8
Layer 1
10
40.855447
20
120.892698
11
39.819113
21
117.482705
0
LINE
8
Layer 1
10
39.819113
20
117.482705
11
37.739519
21
110.681503
0
LINE
8
Layer 1
10
37.739519
20
110.681503
11
35.260149
21
101.329593
0
LINE
8
Layer 1
10
35.260149
20
101.329593
11
32.387219
21
88.841293
0
LINE
8
Layer 1
10
32.387219
20
88.841293
11
31.413774
21
84.287015
0
LINE
8
Layer 1
10
31.413774
20
84.287015
11
30.566009
21
79.705453
0
LINE
8
Layer 1
10
30.566009
20
79.705453
11
29.974365
21
75.214613
0
LINE
8
Layer 1
10
29.974365
20
75.214613
11
29.839134
21
72.677832
0
LINE
8
Layer 1
10
29.839134
20
72.677832
11
29.969455
21
70.184162
0
LINE
8
Layer 1
10
29.969455
20
70.184162
11
30.484197
21
67.911615
0
LINE
8
Layer 1
10
30.484197
20
67.911615
11
30.922872
21
66.913893
0
LINE
8
Layer 1
10
30.922872
20
66.913893
11
31.502227
21
66.038206
0
LINE
8
Layer 1
10
31.502227
20
66.038206
11
32.237122
21
65.306807
0
LINE
8
Layer 1
10
32.237122
20
65.306807
11
33.142415
21
64.741948
0
LINE
8
Layer 1
10
33.142415
20
64.741948
11
34.232965
21
64.365879
0
LINE
8
Layer 1
10
34.232965
20
64.365879
11
35.523629
21
64.200853
0
LINE
8
Layer 1
10
35.523629
20
64.200853
11
35.841129
21
64.205256
0
LINE
8
Layer 1
10
35.841129
20
64.205256
11
35.880834
21
66.967548
0
LINE
8
Layer 1
10
35.880834
20
66.967548
11
36.047146
21
69.420714
0
LINE
8
Layer 1
10
36.047146
20
69.420714
11
36.596293
21
73.441416
0
LINE
8
Layer 1
10
36.596293
20
73.441416
11
37.424219
21
76.929506
0
LINE
8
Layer 1
10
37.424219
20
76.929506
11
38.738319
21
81.337016
0
LINE
8
Layer 1
10
38.738319
20
81.337016
11
40.517639
21
87.106036
0
LINE
8
Layer 1
10
40.517639
20
87.106036
11
42.404999
21
93.296176
0
LINE
8
Layer 1
10
42.404999
20
93.296176
11
43.493099
21
97.163496
0
LINE
8
Layer 1
10
43.493099
20
97.163496
11
44.821529
21
101.851026
0
LINE
8
Layer 1
10
44.821529
20
101.851026
11
45.723310
21
104.901456
0
LINE
8
Layer 1
10
45.723310
20
104.901456
11
49.315622
21
105.791757
0
LINE
8
Layer 1
10
49.315622
20
105.791757
11
52.784227
21
107.143114
0
LINE
8
Layer 1
10
52.784227
20
107.143114
11
56.011198
21
108.906019
0
LINE
8
Layer 1
10
56.011198
20
108.906019
11
58.878610
21
111.030966
0
LINE
8
Layer 1
10
58.878610
20
111.030966
11
58.878600
21
111.031000
0
LINE
8
Layer 1
10
62.087700
20
86.957200
11
61.727207
21
83.490060
0
LINE
8
Layer 1
10
61.727207
20
83.490060
11
61.608143
21
82.926719
0
LINE
8
Layer 1
10
61.608143
20
82.926719
11
61.162763
21
81.534349
0
LINE
8
Layer 1
10
61.162763
20
81.534349
11
60.758172
21
80.283089
0
LINE
8
Layer 1
10
60.758172
20
80.283089
11
59.760060
21
80.850151
0
LINE
8
Layer 1
10
59.760060
20
80.850151
11
58.246832
21
82.554089
0
LINE
8
Layer 1
10
58.246832
20
82.554089
11
57.422269
21
83.936320
0
LINE
8
Layer 1
10
57.422269
20
83.936320
11
56.794207
21
85.551444
0
LINE
8
Layer 1
10
56.794207
20
85.551444
11
56.381480
21
87.325290
0
LINE
8
Layer 1
10
56.381480
20
87.325290
11
56.202925
21
89.183693
0
LINE
8
Layer 1
10
56.202925
20
89.183693
11
56.277377
21
91.052482
0
LINE
8
Layer 1
10
56.277377
20
91.052482
11
56.623674
21
92.857490
0
LINE
8
Layer 1
10
56.623674
20
92.857490
11
57.260651
21
94.524549
0
LINE
8
Layer 1
10
57.260651
20
94.524549
11
58.207143
21
95.979489
0
LINE
8
Layer 1
10
58.207143
20
95.979489
11
58.874252
21
96.529187
0
LINE
8
Layer 1
10
58.874252
20
96.529187
11
59.707553
21
96.944115
0
LINE
8
Layer 1
10
59.707553
20
96.944115
11
59.748343
21
96.965056
0
LINE
8
Layer 1
10
59.748343
20
96.965056
11
60.233412
21
97.191057
0
LINE
8
Layer 1
10
60.233412
20
97.191057
11
60.330425
21
97.164613
0
LINE
8
Layer 1
10
60.330425
20
97.164613
11
60.787245
21
96.707258
0
LINE
8
Layer 1
10
60.787245
20
96.707258
11
61.107639
21
96.015190
0
LINE
8
Layer 1
10
61.107639
20
96.015190
11
61.497895
21
94.365543
0
LINE
8
Layer 1
10
61.497895
20
94.365543
11
61.521038
21
94.243172
0
LINE
8
Layer 1
10
61.521038
20
94.243172
11
61.611436
21
93.781254
0
LINE
8
Layer 1
10
61.611436
20
93.781254
11
62.025261
21
90.568501
0
LINE
8
Layer 1
10
62.025261
20
90.568501
11
62.087686
21
86.957214
0
LINE
8
Layer 1
10
62.087686
20
86.957214
11
62.087700
21
86.957200
0
LINE
8
Layer 1
10
54.118240
20
73.308000
11
53.088570
21
73.602346
0
LINE
8
Layer 1
10
53.088570
20
73.602346
11
52.035828
21
74.494583
0
LINE
8
Layer 1
10
52.035828
20
74.494583
11
51.111294
21
75.761525
0
LINE
8
Layer 1
10
51.111294
20
75.761525
11
50.336725
21
77.323748
0
LINE
8
Layer 1
10
50.336725
20
77.323748
11
49.733877
21
79.101823
0
LINE
8
Layer 1
10
49.733877
20
79.101823
11
49.324506
21
81.016327
0
LINE
8
Layer 1
10
49.324506
20
81.016327
11
49.130367
21
82.987833
0
LINE
8
Layer 1
10
49.130367
20
82.987833
11
49.173217
21
84.936914
0
LINE
8
Layer 1
10
49.173217
20
84.936914
11
49.474810
21
86.784146
0
LINE
8
Layer 1
10
49.474810
20
86.784146
11
50.191112
21
89.024695
0
LINE
8
Layer 1
10
50.191112
20
89.024695
11
51.077740
21
91.009756
0
LINE
8
Layer 1
10
51.077740
20
91.009756
11
51.014903
21
88.339666
0
LINE
8
Layer 1
10
51.014903
20
88.339666
11
51.023709
21
88.191943
0
LINE
8
Layer 1
10
51.023709
20
88.191943
11
51.085445
21
87.705770
0
LINE
8
Layer 1
10
51.085445
20
87.705770
11
51.469778
21
85.186441
0
LINE
8
Layer 1
10
51.469778
20
85.186441
11
52.112905
21
82.913510
0
LINE
8
Layer 1
10
52.112905
20
82.913510
11
52.809692
21
81.458405
0
LINE
8
Layer 1
10
52.809692
20
81.458405
11
53.682076
21
80.066760
0
LINE
8
Layer 1
10
53.682076
20
80.066760
11
54.679104
21
78.811127
0
LINE
8
Layer 1
10
54.679104
20
78.811127
11
55.749825
21
77.764060
0
LINE
8
Layer 1
10
55.749825
20
77.764060
11
56.316473
21
77.346239
0
LINE
8
Layer 1
10
56.316473
20
77.346239
11
56.355058
21
77.319795
0
LINE
8
Layer 1
10
56.355058
20
77.319795
11
57.097133
21
76.766512
0
LINE
8
Layer 1
10
57.097133
20
76.766512
11
57.582068
21
76.144605
0
LINE
8
Layer 1
10
57.582068
20
76.144605
11
57.537283
21
75.440013
0
LINE
8
Layer 1
10
57.537283
20
75.440013
11
57.078265
21
74.665135
0
LINE
8
Layer 1
10
57.078265
20
74.665135
11
56.630183
21
74.219921
0
LINE
8
Layer 1
10
56.630183
20
74.219921
11
55.926922
21
73.769956
0
LINE
8
Layer 1
10
55.926922
20
73.769956
11
55.059327
21
73.428304
0
LINE
8
Layer 1
10
55.059327
20
73.428304
11
54.118245
21
73.308035
0
LINE
8
Layer 1
10
54.118245
20
73.308035
11
54.118240
21
73.308000
0
LINE
8
Layer 1
10
81.677840
20
79.363650
11
81.061857
21
78.676149
0
LINE
8
Layer 1
10
81.061857
20
78.676149
11
80.583130
21
77.865450
0
LINE
8
Layer 1
10
80.583130
20
77.865450
11
79.238160
21
76.154480
0
LINE
8
Layer 1
10
79.238160
20
76.154480
11
78.067382
21
75.095874
0
LINE
8
Layer 1
10
78.067382
20
75.095874
11
77.366030
21
74.724183
0
LINE
8
Layer 1
10
77.366030
20
74.724183
11
76.605560
21
74.584620
0
LINE
8
Layer 1
10
76.605560
20
74.584620
11
75.635007
21
74.893858
0
LINE
8
Layer 1
10
75.635007
20
74.893858
11
74.741350
21
75.808320
0
LINE
8
Layer 1
10
74.741350
20
75.808320
11
74.299414
21
76.625289
0
LINE
8
Layer 1
10
74.299414
20
76.625289
11
73.985635
21
77.626846
0
LINE
8
Layer 1
10
73.985635
20
77.626846
11
73.742548
21
80.149409
0
LINE
8
Layer 1
10
73.742548
20
80.149409
11
74.012091
21
83.307377
0
LINE
8
Layer 1
10
74.012091
20
83.307377
11
74.794267
21
87.032120
0
LINE
8
Layer 1
10
74.794267
20
87.032120
11
76.109051
21
92.789974
0
LINE
8
Layer 1
10
76.109051
20
92.789974
11
76.775076
21
95.667709
0
LINE
8
Layer 1
10
76.775076
20
95.667709
11
77.573497
21
98.513920
0
LINE
8
Layer 1
10
77.573497
20
98.513920
11
80.502098
21
108.502880
0
LINE
8
Layer 1
10
80.502098
20
108.502880
11
82.010118
21
113.484599
0
LINE
8
Layer 1
10
82.010118
20
113.484599
11
83.731667
21
118.395120
0
LINE
8
Layer 1
10
83.731667
20
118.395120
11
84.088853
21
119.354235
0
LINE
8
Layer 1
10
84.088853
20
119.354235
11
84.699875
21
120.925886
0
LINE
8
Layer 1
10
84.699875
20
120.925886
11
85.467993
21
122.412375
0
LINE
8
Layer 1
10
85.467993
20
122.412375
11
86.120631
21
123.213843
0
LINE
8
Layer 1
10
86.120631
20
123.213843
11
86.666472
21
123.854216
0
LINE
8
Layer 1
10
86.666472
20
123.854216
11
87.094077
21
124.602903
0
LINE
8
Layer 1
10
87.094077
20
124.602903
11
87.214241
21
125.280899
0
LINE
8
Layer 1
10
87.214241
20
125.280899
11
87.061146
21
125.762660
0
LINE
8
Layer 1
10
87.061146
20
125.762660
11
86.707125
21
126.125358
0
LINE
8
Layer 1
10
86.707125
20
126.125358
11
86.046079
21
126.382363
0
LINE
8
Layer 1
10
86.046079
20
126.382363
11
84.544155
21
126.524440
0
LINE
8
Layer 1
10
84.544155
20
126.524440
11
82.697031
21
126.366244
0
LINE
8
Layer 1
10
82.697031
20
126.366244
11
80.740775
21
125.860775
0
LINE
8
Layer 1
10
80.740775
20
125.860775
11
79.360774
21
125.268702
0
LINE
8
Layer 1
10
79.360774
20
125.268702
11
78.327005
21
124.506717
0
LINE
8
Layer 1
10
78.327005
20
124.506717
11
77.541283
21
123.486348
0
LINE
8
Layer 1
10
77.541283
20
123.486348
11
76.905425
21
122.119125
0
LINE
8
Layer 1
10
76.905425
20
122.119125
11
75.056512
21
116.883117
0
LINE
8
Layer 1
10
75.056512
20
116.883117
11
73.393635
21
111.561017
0
LINE
8
Layer 1
10
73.393635
20
111.561017
11
70.454005
21
100.823525
0
LINE
8
Layer 1
10
70.454005
20
100.823525
11
69.054747
21
94.452442
0
LINE
8
Layer 1
10
69.054747
20
94.452442
11
68.140005
21
87.994525
0
LINE
8
Layer 1
10
68.140005
20
87.994525
11
67.872114
21
85.601145
0
LINE
8
Layer 1
10
67.872114
20
85.601145
11
67.428935
21
80.798955
0
LINE
8
Layer 1
10
67.428935
20
80.798955
11
66.930638
21
80.850771
0
LINE
8
Layer 1
10
66.930638
20
80.850771
11
66.312450
21
81.298908
0
LINE
8
Layer 1
10
66.312450
20
81.298908
11
65.986958
21
82.001711
0
LINE
8
Layer 1
10
65.986958
20
82.001711
11
65.948579
21
82.861813
0
LINE
8
Layer 1
10
65.948579
20
82.861813
11
66.117320
21
83.953839
0
LINE
8
Layer 1
10
66.117320
20
83.953839
11
66.745430
21
86.337571
0
LINE
8
Layer 1
10
66.745430
20
86.337571
11
67.198529
21
88.050751
0
LINE
8
Layer 1
10
67.198529
20
88.050751
11
67.505004
21
91.231261
0
LINE
8
Layer 1
10
67.505004
20
91.231261
11
67.302158
21
94.428301
0
LINE
8
Layer 1
10
67.302158
20
94.428301
11
66.701987
21
97.150220
0
LINE
8
Layer 1
10
66.701987
20
97.150220
11
66.260786
21
98.383156
0
LINE
8
Layer 1
10
66.260786
20
98.383156
11
65.688198
21
99.481980
0
LINE
8
Layer 1
10
65.688198
20
99.481980
11
64.956240
21
100.410116
0
LINE
8
Layer 1
10
64.956240
20
100.410116
11
64.036929
21
101.130991
0
LINE
8
Layer 1
10
64.036929
20
101.130991
11
62.902282
21
101.608030
0
LINE
8
Layer 1
10
62.902282
20
101.608030
11
61.524318
21
101.804661
0
LINE
8
Layer 1
10
61.524318
20
101.804661
11
60.072279
21
101.711097
0
LINE
8
Layer 1
10
60.072279
20
101.711097
11
58.440818
21
101.350461
0
LINE
8
Layer 1
10
58.440818
20
101.350461
11
56.857728
21
100.795249
0
LINE
8
Layer 1
10
56.857728
20
100.795249
11
55.724428
21
100.149911
0
LINE
8
Layer 1
10
55.724428
20
100.149911
11
55.255894
21
99.631768
0
LINE
8
Layer 1
10
55.255894
20
99.631768
11
54.736651
21
99.116933
0
LINE
8
Layer 1
10
54.736651
20
99.116933
11
54.329991
21
99.083585
0
LINE
8
Layer 1
10
54.329991
20
99.083585
11
53.887781
21
99.280094
0
LINE
8
Layer 1
10
53.887781
20
99.280094
11
53.778640
21
99.341830
0
LINE
8
Layer 1
10
53.778640
20
99.341830
11
53.275793
21
99.581195
0
LINE
8
Layer 1
10
53.275793
20
99.581195
11
52.653060
21
99.712246
0
LINE
8
Layer 1
10
52.653060
20
99.712246
11
51.986088
21
99.596490
0
LINE
8
Layer 1
10
51.986088
20
99.596490
11
51.090746
21
99.168564
0
LINE
8
Layer 1
10
51.090746
20
99.168564
11
50.228091
21
98.570662
0
LINE
8
Layer 1
10
50.228091
20
98.570662
11
48.602180
21
96.867564
0
LINE
8
Layer 1
10
48.602180
20
96.867564
11
47.111041
21
94.492466
0
LINE
8
Layer 1
10
47.111041
20
94.492466
11
45.757358
21
91.450640
0
LINE
8
Layer 1
10
45.757358
20
91.450640
11
44.444368
21
87.393700
0
LINE
8
Layer 1
10
44.444368
20
87.393700
11
43.888743
21
84.287050
0
LINE
8
Layer 1
10
43.888743
20
84.287050
11
43.874406
21
84.184524
0
LINE
8
Layer 1
10
43.874406
20
84.184524
11
43.629760
21
81.834973
0
LINE
8
Layer 1
10
43.629760
20
81.834973
11
43.538232
21
79.283289
0
LINE
8
Layer 1
10
43.538232
20
79.283289
11
43.671704
21
76.652074
0
LINE
8
Layer 1
10
43.671704
20
76.652074
11
44.102056
21
74.063932
0
LINE
8
Layer 1
10
44.102056
20
74.063932
11
44.901172
21
71.641463
0
LINE
8
Layer 1
10
44.901172
20
71.641463
11
45.461479
21
70.530670
0
LINE
8
Layer 1
10
45.461479
20
70.530670
11
46.140932
21
69.507271
0
LINE
8
Layer 1
10
46.140932
20
69.507271
11
46.948518
21
68.586591
0
LINE
8
Layer 1
10
46.948518
20
68.586591
11
47.893220
21
67.783957
0
LINE
8
Layer 1
10
47.893220
20
67.783957
11
48.984024
21
67.114693
0
LINE
8
Layer 1
10
48.984024
20
67.114693
11
50.229916
21
66.594124
0
LINE
8
Layer 1
10
50.229916
20
66.594124
11
51.861516
21
66.329541
0
LINE
8
Layer 1
10
51.861516
20
66.329541
11
53.530456
21
66.444470
0
LINE
8
Layer 1
10
53.530456
20
66.444470
11
55.056356
21
66.852095
0
LINE
8
Layer 1
10
55.056356
20
66.852095
11
56.235533
21
67.425544
0
LINE
8
Layer 1
10
56.235533
20
67.425544
11
57.482252
21
68.230580
0
LINE
8
Layer 1
10
57.482252
20
68.230580
11
59.971813
21
70.331914
0
LINE
8
Layer 1
10
59.971813
20
70.331914
11
62.112044
21
72.749093
0
LINE
8
Layer 1
10
62.112044
20
72.749093
11
62.922098
21
73.948937
0
LINE
8
Layer 1
10
62.922098
20
73.948937
11
63.489946
21
75.075115
0
LINE
8
Layer 1
10
63.489946
20
75.075115
11
64.908776
21
75.417972
0
LINE
8
Layer 1
10
64.908776
20
75.417972
11
65.325494
21
75.521601
0
LINE
8
Layer 1
10
65.325494
20
75.521601
11
65.423611
21
75.553571
0
LINE
8
Layer 1
10
65.423611
20
75.553571
11
67.394751
21
76.401338
0
LINE
8
Layer 1
10
67.394751
20
76.401338
11
67.583267
21
76.514890
0
LINE
8
Layer 1
10
67.583267
20
76.514890
11
67.932875
21
74.737081
0
LINE
8
Layer 1
10
67.932875
20
74.737081
11
68.504897
21
73.021290
0
LINE
8
Layer 1
10
68.504897
20
73.021290
11
69.446148
21
70.562338
0
LINE
8
Layer 1
10
69.446148
20
70.562338
11
70.570437
21
68.223379
0
LINE
8
Layer 1
10
70.570437
20
68.223379
11
71.316943
21
67.243494
0
LINE
8
Layer 1
10
71.316943
20
67.243494
11
72.248076
21
66.467123
0
LINE
8
Layer 1
10
72.248076
20
66.467123
11
73.410124
21
65.952106
0
LINE
8
Layer 1
10
73.410124
20
65.952106
11
74.849377
21
65.756280
0
LINE
8
Layer 1
10
74.849377
20
65.756280
11
76.016301
21
65.926474
0
LINE
8
Layer 1
10
76.016301
20
65.926474
11
77.140227
21
66.459631
0
LINE
8
Layer 1
10
77.140227
20
66.459631
11
78.463400
21
67.564644
0
LINE
8
Layer 1
10
78.463400
20
67.564644
11
79.517755
21
68.880292
0
LINE
8
Layer 1
10
79.517755
20
68.880292
11
81.228037
21
71.835081
0
LINE
8
Layer 1
10
81.228037
20
71.835081
11
81.948373
21
73.452381
0
LINE
8
Layer 1
10
81.948373
20
73.452381
11
82.385316
21
75.145955
0
LINE
8
Layer 1
10
82.385316
20
75.145955
11
82.532456
21
76.893684
0
LINE
8
Layer 1
10
82.532456
20
76.893684
11
82.383387
21
78.673451
0
LINE
8
Layer 1
10
82.383387
20
78.673451
11
82.190463
21
79.214744
0
LINE
8
Layer 1
10
82.190463
20
79.214744
11
81.953169
21
79.380524
0
LINE
8
Layer 1
10
81.953169
20
79.380524
11
81.677838
21
79.363574
0
LINE
8
Layer 1
10
81.677838
20
79.363574
11
81.677840
21
79.363650
0
LINE
8
Layer 1
10
91.899600
20
110.555000
11
92.316592
21
111.179111
0
LINE
8
Layer 1
10
92.316592
20
111.179111
11
92.550031
21
111.767670
0
LINE
8
Layer 1
10
92.550031
20
111.767670
11
91.908107
21
112.027620
0
LINE
8
Layer 1
10
91.908107
20
112.027620
11
91.383386
21
112.490450
0
LINE
8
Layer 1
10
91.383386
20
112.490450
11
90.678111
21
113.749840
0
LINE
8
Layer 1
10
90.678111
20
113.749840
11
90.365848
21
115.145515
0
LINE
8
Layer 1
10
90.365848
20
115.145515
11
90.409120
21
116.570960
0
LINE
8
Layer 1
10
90.409120
20
116.570960
11
90.763689
21
117.741053
0
LINE
8
Layer 1
10
90.763689
20
117.741053
11
91.439890
21
118.754880
0
LINE
8
Layer 1
10
91.439890
20
118.754880
11
91.627080
21
118.250776
0
LINE
8
Layer 1
10
91.627080
20
118.250776
11
91.961754
21
117.826770
0
LINE
8
Layer 1
10
91.961754
20
117.826770
11
92.912740
21
117.299670
0
LINE
8
Layer 1
10
92.912740
20
117.299670
11
93.993123
21
117.251024
0
LINE
8
Layer 1
10
93.993123
20
117.251024
11
95.043740
21
117.558739
0
LINE
8
Layer 1
10
95.043740
20
117.558739
11
95.871325
21
118.048678
0
LINE
8
Layer 1
10
95.871325
20
118.048678
11
96.561698
21
118.708400
0
LINE
8
Layer 1
10
96.561698
20
118.708400
11
97.113862
21
119.502223
0
LINE
8
Layer 1
10
97.113862
20
119.502223
11
97.526824
21
120.394463
0
LINE
8
Layer 1
10
97.526824
20
120.394463
11
97.931158
21
122.331466
0
LINE
8
Layer 1
10
97.931158
20
122.331466
11
97.766740
21
124.233949
0
LINE
8
Layer 1
10
97.766740
20
124.233949
11
97.409236
21
125.215241
0
LINE
8
Layer 1
10
97.409236
20
125.215241
11
96.915474
21
125.934793
0
LINE
8
Layer 1
10
96.915474
20
125.934793
11
96.308979
21
126.408467
0
LINE
8
Layer 1
10
96.308979
20
126.408467
11
95.613279
21
126.652130
0
LINE
8
Layer 1
10
95.613279
20
126.652130
11
94.851898
21
126.681646
0
LINE
8
Layer 1
10
94.851898
20
126.681646
11
94.048362
21
126.512880
0
LINE
8
Layer 1
10
94.048362
20
126.512880
11
93.226198
21
126.161696
0
LINE
8
Layer 1
10
93.226198
20
126.161696
11
92.408930
21
125.643959
0
LINE
8
Layer 1
10
92.408930
20
125.643959
11
90.732012
21
124.108634
0
LINE
8
Layer 1
10
90.732012
20
124.108634
11
89.398331
21
122.275345
0
LINE
8
Layer 1
10
89.398331
20
122.275345
11
88.424525
21
120.222743
0
LINE
8
Layer 1
10
88.424525
20
120.222743
11
87.827230
21
118.029479
0
LINE
8
Layer 1
10
87.827230
20
118.029479
11
87.633357
21
116.458965
0
LINE
8
Layer 1
10
87.633357
20
116.458965
11
87.652081
21
114.854758
0
LINE
8
Layer 1
10
87.652081
20
114.854758
11
87.955439
21
113.293959
0
LINE
8
Layer 1
10
87.955439
20
113.293959
11
88.615468
21
111.853669
0
LINE
8
Layer 1
10
88.615468
20
111.853669
11
89.451522
21
110.874573
0
LINE
8
Layer 1
10
89.451522
20
110.874573
11
90.538108
21
110.195619
0
LINE
8
Layer 1
10
90.538108
20
110.195619
11
91.268880
21
110.154552
0
LINE
8
Layer 1
10
91.268880
20
110.154552
11
91.899608
21
110.555012
0
LINE
8
Layer 1
10
91.899608
20
110.555012
11
91.899600
21
110.555000
0
LINE
8
Layer 1
10
104.155000
20
82.339100
11
103.635092
21
80.632125
0
LINE
8
Layer 1
10
103.635092
20
80.632125
11
103.027698
21
79.181464
0
LINE
8
Layer 1
10
103.027698
20
79.181464
11
101.827220
21
77.054050
0
LINE
8
Layer 1
10
101.827220
20
77.054050
11
100.080970
21
74.646900
0
LINE
8
Layer 1
10
100.080970
20
74.646900
11
99.098911
21
73.725890
0
LINE
8
Layer 1
10
99.098911
20
73.725890
11
98.214010
21
73.304690
0
LINE
8
Layer 1
10
98.214010
20
73.304690
11
97.697728
21
73.257353
0
LINE
8
Layer 1
10
97.697728
20
73.257353
11
96.997480
21
73.379095
0
LINE
8
Layer 1
10
96.997480
20
73.379095
11
96.106509
21
73.851684
0
LINE
8
Layer 1
10
96.106509
20
73.851684
11
95.250680
21
74.781925
0
LINE
8
Layer 1
10
95.250680
20
74.781925
11
94.746869
21
75.688123
0
LINE
8
Layer 1
10
94.746869
20
75.688123
11
94.503232
21
76.298868
0
LINE
8
Layer 1
10
94.503232
20
76.298868
11
94.190141
21
77.405708
0
LINE
8
Layer 1
10
94.190141
20
77.405708
11
93.786790
21
79.924690
0
LINE
8
Layer 1
10
93.786790
20
79.924690
11
93.752201
21
82.541648
0
LINE
8
Layer 1
10
93.752201
20
82.541648
11
94.018989
21
85.156536
0
LINE
8
Layer 1
10
94.018989
20
85.156536
11
94.519768
21
87.669308
0
LINE
8
Layer 1
10
94.519768
20
87.669308
11
94.803093
21
88.761818
0
LINE
8
Layer 1
10
94.803093
20
88.761818
11
94.816329
21
88.803711
0
LINE
8
Layer 1
10
94.816329
20
88.803711
11
95.071542
21
89.617303
0
LINE
8
Layer 1
10
95.071542
20
89.617303
11
95.571493
21
91.187163
0
LINE
8
Layer 1
10
95.571493
20
91.187163
11
96.519584
21
93.195793
0
LINE
8
Layer 1
10
96.519584
20
93.195793
11
97.237404
21
94.138508
0
LINE
8
Layer 1
10
97.237404
20
94.138508
11
98.137954
21
94.906763
0
LINE
8
Layer 1
10
98.137954
20
94.906763
11
98.669911
21
95.171294
0
LINE
8
Layer 1
10
98.669911
20
95.171294
11
99.193805
21
95.281727
0
LINE
8
Layer 1
10
99.193805
20
95.281727
11
100.135554
21
95.138278
0
LINE
8
Layer 1
10
100.135554
20
95.138278
11
101.231364
21
94.550692
0
LINE
8
Layer 1
10
101.231364
20
94.550692
11
102.062045
21
93.799386
0
LINE
8
Layer 1
10
102.062045
20
93.799386
11
102.807839
21
92.857360
0
LINE
8
Layer 1
10
102.807839
20
92.857360
11
103.389292
21
91.792037
0
LINE
8
Layer 1
10
103.389292
20
91.792037
11
103.859058
21
90.604770
0
LINE
8
Layer 1
10
103.859058
20
90.604770
11
104.450874
21
87.965740
0
LINE
8
Layer 1
10
104.450874
20
87.965740
11
104.557965
21
85.142945
0
LINE
8
Layer 1
10
104.557965
20
85.142945
11
104.155009
21
82.339060
0
LINE
8
Layer 1
10
104.155009
20
82.339060
11
104.155000
21
82.339100
0
LINE
8
Layer 1
10
153.678300
20
94.006100
11
154.415137
21
94.640084
0
LINE
8
Layer 1
10
154.415137
20
94.640084
11
155.203237
21
95.096818
0
LINE
8
Layer 1
10
155.203237
20
95.096818
11
155.977694
21
95.319356
0
LINE
8
Layer 1
10
155.977694
20
95.319356
11
156.673600
21
95.250750
0
LINE
8
Layer 1
10
156.673600
20
95.250750
11
158.132110
21
94.578274
0
LINE
8
Layer 1
10
158.132110
20
94.578274
11
159.068074
21
93.826965
0
LINE
8
Layer 1
10
159.068074
20
93.826965
11
159.909225
21
92.884939
0
LINE
8
Layer 1
10
159.909225
20
92.884939
11
160.564715
21
91.819932
0
LINE
8
Layer 1
10
160.564715
20
91.819932
11
161.094269
21
90.632813
0
LINE
8
Layer 1
10
161.094269
20
90.632813
11
161.761307
21
87.993731
0
LINE
8
Layer 1
10
161.761307
20
87.993731
11
161.881817
21
85.170679
0
LINE
8
Layer 1
10
161.881817
20
85.170679
11
161.728210
21
83.753596
0
LINE
8
Layer 1
10
161.728210
20
83.753596
11
161.427275
21
82.366639
0
LINE
8
Layer 1
10
161.427275
20
82.366639
11
160.841024
21
80.659657
0
LINE
8
Layer 1
10
160.841024
20
80.659657
11
160.156175
21
79.208938
0
LINE
8
Layer 1
10
160.156175
20
79.208938
11
158.802395
21
77.081039
0
LINE
8
Layer 1
10
158.802395
20
77.081039
11
157.160875
21
74.971539
0
LINE
8
Layer 1
10
157.160875
20
74.971539
11
156.467450
21
74.275354
0
LINE
8
Layer 1
10
156.467450
20
74.275354
11
155.680178
21
73.703124
0
LINE
8
Layer 1
10
155.680178
20
73.703124
11
154.726710
21
73.332225
0
LINE
8
Layer 1
10
154.726710
20
73.332225
11
154.144766
21
73.284406
0
LINE
8
Layer 1
10
154.144766
20
73.284406
11
153.355290
21
73.406077
0
LINE
8
Layer 1
10
153.355290
20
73.406077
11
152.350977
21
73.878734
0
LINE
8
Layer 1
10
152.350977
20
73.878734
11
151.386350
21
74.809457
0
LINE
8
Layer 1
10
151.386350
20
74.809457
11
150.817495
21
75.715655
0
LINE
8
Layer 1
10
150.817495
20
75.715655
11
150.542989
21
76.326400
0
LINE
8
Layer 1
10
150.542989
20
76.326400
11
150.190211
21
77.432140
0
LINE
8
Layer 1
10
150.190211
20
77.432140
11
149.870507
21
78.914632
0
LINE
8
Layer 1
10
149.870507
20
78.914632
11
149.699630
21
80.421930
0
LINE
8
Layer 1
10
149.699630
20
80.421930
11
149.709974
21
83.145455
0
LINE
8
Layer 1
10
149.709974
20
83.145455
11
150.023814
21
85.775397
0
LINE
8
Layer 1
10
150.023814
20
85.775397
11
150.566786
21
88.131766
0
LINE
8
Layer 1
10
150.566786
20
88.131766
11
151.264530
21
90.034570
0
LINE
8
Layer 1
10
151.264530
20
90.034570
11
152.544379
21
92.519934
0
LINE
8
Layer 1
10
152.544379
20
92.519934
11
153.678300
21
94.006080
0
LINE
8
Layer 1
10
153.678300
20
94.006080
11
153.678300
21
94.006100
0
LINE
8
Layer 1
10
105.749100
20
73.085300
11
106.452469
21
71.062051
0
LINE
8
Layer 1
10
106.452469
20
71.062051
11
107.638804
21
69.119725
0
LINE
8
Layer 1
10
107.638804
20
69.119725
11
108.378493
21
68.299799
0
LINE
8
Layer 1
10
108.378493
20
68.299799
11
109.197415
21
67.645174
0
LINE
8
Layer 1
10
109.197415
20
67.645174
11
110.081733
21
67.204205
0
LINE
8
Layer 1
10
110.081733
20
67.204205
11
111.017610
21
67.025250
0
LINE
8
Layer 1
10
111.017610
20
67.025250
11
112.005801
21
67.167190
0
LINE
8
Layer 1
10
112.005801
20
67.167190
11
112.963400
21
67.654738
0
LINE
8
Layer 1
10
112.963400
20
67.654738
11
113.931678
21
68.493049
0
LINE
8
Layer 1
10
113.931678
20
68.493049
11
114.762290
21
69.504476
0
LINE
8
Layer 1
10
114.762290
20
69.504476
11
116.096510
21
71.816408
0
LINE
8
Layer 1
10
116.096510
20
71.816408
11
117.332330
21
74.802888
0
LINE
8
Layer 1
10
117.332330
20
74.802888
11
117.704953
21
67.595208
0
LINE
8
Layer 1
10
117.704953
20
67.595208
11
117.765583
21
66.897784
0
LINE
8
Layer 1
10
117.765583
20
66.897784
11
118.077574
21
66.305368
0
LINE
8
Layer 1
10
118.077574
20
66.305368
11
118.612630
21
66.025040
0
LINE
8
Layer 1
10
118.612630
20
66.025040
11
119.438522
21
65.773444
0
LINE
8
Layer 1
10
119.438522
20
65.773444
11
120.868924
21
65.499492
0
LINE
8
Layer 1
10
120.868924
20
65.499492
11
122.001876
21
65.615660
0
LINE
8
Layer 1
10
122.001876
20
65.615660
11
123.031064
21
66.073306
0
LINE
8
Layer 1
10
123.031064
20
66.073306
11
123.896954
21
66.802977
0
LINE
8
Layer 1
10
123.896954
20
66.802977
11
124.540014
21
67.735222
0
LINE
8
Layer 1
10
124.540014
20
67.735222
11
125.259073
21
69.427453
0
LINE
8
Layer 1
10
125.259073
20
69.427453
11
125.966554
21
71.113062
0
LINE
8
Layer 1
10
125.966554
20
71.113062
11
127.579823
21
74.156182
0
LINE
8
Layer 1
10
127.579823
20
74.156182
11
128.897914
21
76.755302
0
LINE
8
Layer 1
10
128.897914
20
76.755302
11
130.801535
21
80.775862
0
LINE
8
Layer 1
10
130.801535
20
80.775862
11
131.687510
21
82.764543
0
LINE
8
Layer 1
10
131.687510
20
82.764543
11
132.462074
21
84.889032
0
LINE
8
Layer 1
10
132.462074
20
84.889032
11
132.076775
21
82.166167
0
LINE
8
Layer 1
10
132.076775
20
82.166167
11
131.860148
21
79.692182
0
LINE
8
Layer 1
10
131.860148
20
79.692182
11
131.891156
21
77.499451
0
LINE
8
Layer 1
10
131.891156
20
77.499451
11
132.333090
21
74.704792
0
LINE
8
Layer 1
10
132.333090
20
74.704792
11
133.032857
21
72.324648
0
LINE
8
Layer 1
10
133.032857
20
72.324648
11
133.647737
21
70.993705
0
LINE
8
Layer 1
10
133.647737
20
70.993705
11
134.547870
21
69.607162
0
LINE
8
Layer 1
10
134.547870
20
69.607162
11
135.390635
21
68.681018
0
LINE
8
Layer 1
10
135.390635
20
68.681018
11
136.356751
21
67.937807
0
LINE
8
Layer 1
10
136.356751
20
67.937807
11
137.419708
21
67.388074
0
LINE
8
Layer 1
10
137.419708
20
67.388074
11
138.552997
21
67.042358
0
LINE
8
Layer 1
10
138.552997
20
67.042358
11
139.730108
21
66.911203
0
LINE
8
Layer 1
10
139.730108
20
66.911203
11
140.924530
21
67.005151
0
LINE
8
Layer 1
10
140.924530
20
67.005151
11
142.109754
21
67.334743
0
LINE
8
Layer 1
10
142.109754
20
67.334743
11
143.259270
21
67.910522
0
LINE
8
Layer 1
10
143.259270
20
67.910522
11
144.328351
21
68.715571
0
LINE
8
Layer 1
10
144.328351
20
68.715571
11
145.260180
21
69.677712
0
LINE
8
Layer 1
10
145.260180
20
69.677712
11
145.666978
21
70.185935
0
LINE
8
Layer 1
10
145.666978
20
70.185935
11
147.387868
21
68.489295
0
LINE
8
Layer 1
10
147.387868
20
68.489295
11
149.209078
21
67.349385
0
LINE
8
Layer 1
10
149.209078
20
67.349385
11
150.840400
21
66.771300
0
LINE
8
Layer 1
10
150.840400
20
66.771300
11
152.519678
21
66.544612
0
LINE
8
Layer 1
10
152.519678
20
66.544612
11
153.933186
21
66.624867
0
LINE
8
Layer 1
10
153.933186
20
66.624867
11
155.308170
21
66.927654
0
LINE
8
Layer 1
10
155.308170
20
66.927654
11
156.630082
21
67.419499
0
LINE
8
Layer 1
10
156.630082
20
67.419499
11
157.884376
21
68.066929
0
LINE
8
Layer 1
10
157.884376
20
68.066929
11
160.131920
21
69.694650
0
LINE
8
Layer 1
10
160.131920
20
69.694650
11
161.934428
21
71.543032
0
LINE
8
Layer 1
10
161.934428
20
71.543032
11
162.359965
21
72.025897
0
LINE
8
Layer 1
10
162.359965
20
72.025897
11
163.224270
21
73.112887
0
LINE
8
Layer 1
10
163.224270
20
73.112887
11
164.017038
21
71.090102
0
LINE
8
Layer 1
10
164.017038
20
71.090102
11
165.354578
21
69.147723
0
LINE
8
Layer 1
10
165.354578
20
69.147723
11
166.188589
21
68.327674
0
LINE
8
Layer 1
10
166.188589
20
68.327674
11
167.111936
21
67.672912
0
LINE
8
Layer 1
10
167.111936
20
67.672912
11
168.109000
21
67.231831
0
LINE
8
Layer 1
10
168.109000
20
67.231831
11
169.164160
21
67.052827
0
LINE
8
Layer 1
10
169.164160
20
67.052827
11
170.278992
21
67.194767
0
LINE
8
Layer 1
10
170.278992
20
67.194767
11
171.359100
21
67.682315
0
LINE
8
Layer 1
10
171.359100
20
67.682315
11
173.005528
21
69.032657
0
LINE
8
Layer 1
10
173.005528
20
69.032657
11
174.363911
21
70.752585
0
LINE
8
Layer 1
10
174.363911
20
70.752585
11
175.462879
21
72.728826
0
LINE
8
Layer 1
10
175.462879
20
72.728826
11
176.331060
21
74.848105
0
LINE
8
Layer 1
10
176.331060
20
74.848105
11
177.462292
21
78.389660
0
LINE
8
Layer 1
10
177.462292
20
78.389660
11
177.802443
21
80.261723
0
LINE
8
Layer 1
10
177.802443
20
80.261723
11
177.797290
21
82.080045
0
LINE
8
Layer 1
10
177.797290
20
82.080045
11
177.173866
21
82.085556
0
LINE
8
Layer 1
10
177.173866
20
82.085556
11
176.702580
21
81.637970
0
LINE
8
Layer 1
10
176.702580
20
81.637970
11
175.441400
21
79.501460
0
LINE
8
Layer 1
10
175.441400
20
79.501460
11
174.288586
21
77.769783
0
LINE
8
Layer 1
10
174.288586
20
77.769783
11
173.129467
21
76.483559
0
LINE
8
Layer 1
10
173.129467
20
76.483559
11
172.014791
21
75.689295
0
LINE
8
Layer 1
10
172.014791
20
75.689295
11
170.995300
21
75.433500
0
LINE
8
Layer 1
10
170.995300
20
75.433500
11
170.076700
21
75.744935
0
LINE
8
Layer 1
10
170.076700
20
75.744935
11
169.242440
21
76.631840
0
LINE
8
Layer 1
10
169.242440
20
76.631840
11
168.835978
21
77.418020
0
LINE
8
Layer 1
10
168.835978
20
77.418020
11
168.554935
21
78.377897
0
LINE
8
Layer 1
10
168.554935
20
78.377897
11
168.368485
21
80.785934
0
LINE
8
Layer 1
10
168.368485
20
80.785934
11
168.681851
21
83.790323
0
LINE
8
Layer 1
10
168.681851
20
83.790323
11
169.493793
21
87.325440
0
LINE
8
Layer 1
10
169.493793
20
87.325440
11
172.444993
21
98.579040
0
LINE
8
Layer 1
10
172.444993
20
98.579040
11
173.939612
21
103.459223
0
LINE
8
Layer 1
10
173.939612
20
103.459223
11
175.660783
21
108.264990
0
LINE
8
Layer 1
10
175.660783
20
108.264990
11
177.089392
21
112.664238
0
LINE
8
Layer 1
10
177.089392
20
112.664238
11
178.573403
21
117.043640
0
LINE
8
Layer 1
10
178.573403
20
117.043640
11
178.931692
21
117.950939
0
LINE
8
Layer 1
10
178.931692
20
117.950939
11
179.541749
21
119.437843
0
LINE
8
Layer 1
10
179.541749
20
119.437843
11
180.299802
21
120.840409
0
LINE
8
Layer 1
10
180.299802
20
120.840409
11
180.937008
21
121.592265
0
LINE
8
Layer 1
10
180.937008
20
121.592265
11
181.467690
21
122.192401
0
LINE
8
Layer 1
10
181.467690
20
122.192401
11
181.888404
21
122.897545
0
LINE
8
Layer 1
10
181.888404
20
122.897545
11
182.016287
21
123.541364
0
LINE
8
Layer 1
10
182.016287
20
123.541364
11
181.878758
21
124.002732
0
LINE
8
Layer 1
10
181.878758
20
124.002732
11
181.547753
21
124.354959
0
LINE
8
Layer 1
10
181.547753
20
124.354959
11
180.922261
21
124.611549
0
LINE
8
Layer 1
10
180.922261
20
124.611549
11
179.493923
21
124.773881
0
LINE
8
Layer 1
10
179.493923
20
124.773881
11
177.731412
21
124.656749
0
LINE
8
Layer 1
10
177.731412
20
124.656749
11
175.858103
21
124.210540
0
LINE
8
Layer 1
10
175.858103
20
124.210540
11
174.487232
21
123.713481
0
LINE
8
Layer 1
10
174.487232
20
123.713481
11
173.033683
21
122.850140
0
LINE
8
Layer 1
10
173.033683
20
122.850140
11
172.235783
21
121.936264
0
LINE
8
Layer 1
10
172.235783
20
121.936264
11
171.722204
21
120.851439
0
LINE
8
Layer 1
10
171.722204
20
120.851439
11
171.021743
21
118.525310
0
LINE
8
Layer 1
10
171.021743
20
118.525310
11
168.210545
21
109.584734
0
LINE
8
Layer 1
10
168.210545
20
109.584734
11
165.607713
21
100.542510
0
LINE
8
Layer 1
10
165.607713
20
100.542510
11
164.227473
21
95.592600
0
LINE
8
Layer 1
10
164.227473
20
95.592600
11
163.517507
21
96.359891
0
LINE
8
Layer 1
10
163.517507
20
96.359891
11
161.775118
21
98.126122
0
LINE
8
Layer 1
10
161.775118
20
98.126122
11
160.737214
21
98.916480
0
LINE
8
Layer 1
10
160.737214
20
98.916480
11
159.480407
21
99.615371
0
LINE
8
Layer 1
10
159.480407
20
99.615371
11
157.523591
21
100.310177
0
LINE
8
Layer 1
10
157.523591
20
100.310177
11
155.520477
21
100.583305
0
LINE
8
Layer 1
10
155.520477
20
100.583305
11
153.572578
21
100.395515
0
LINE
8
Layer 1
10
153.572578
20
100.395515
11
151.775316
21
99.762287
0
LINE
8
Layer 1
10
151.775316
20
99.762287
11
150.134840
21
98.758669
0
LINE
8
Layer 1
10
150.134840
20
98.758669
11
148.657299
21
97.459708
0
LINE
8
Layer 1
10
148.657299
20
97.459708
11
147.348844
21
95.940450
0
LINE
8
Layer 1
10
147.348844
20
95.940450
11
146.215622
21
94.275942
0
LINE
8
Layer 1
10
146.215622
20
94.275942
11
145.263783
21
92.541231
0
LINE
8
Layer 1
10
145.263783
20
92.541231
11
144.499477
21
90.811365
0
LINE
8
Layer 1
10
144.499477
20
90.811365
11
143.543119
21
87.872975
0
LINE
8
Layer 1
10
143.543119
20
87.872975
11
142.920797
21
84.846115
0
LINE
8
Layer 1
10
142.920797
20
84.846115
11
142.656214
21
82.355725
0
LINE
8
Layer 1
10
142.656214
20
82.355725
11
142.615734
21
80.452000
0
LINE
8
Layer 1
10
142.615734
20
80.452000
11
142.729250
21
78.538561
0
LINE
8
Layer 1
10
142.729250
20
78.538561
11
143.006890
21
76.639180
0
LINE
8
Layer 1
10
143.006890
20
76.639180
11
143.458783
21
74.777625
0
LINE
8
Layer 1
10
143.458783
20
74.777625
11
142.502976
21
73.507625
0
LINE
8
Layer 1
10
142.502976
20
73.507625
11
141.317588
21
72.275107
0
LINE
8
Layer 1
10
141.317588
20
72.275107
11
140.595186
21
71.879816
0
LINE
8
Layer 1
10
140.595186
20
71.879816
11
139.727056
21
71.793345
0
LINE
8
Layer 1
10
139.727056
20
71.793345
11
138.931824
21
72.050348
0
LINE
8
Layer 1
10
138.931824
20
72.050348
11
138.388155
21
72.556224
0
LINE
8
Layer 1
10
138.388155
20
72.556224
11
138.033828
21
73.230773
0
LINE
8
Layer 1
10
138.033828
20
73.230773
11
137.806626
21
73.993795
0
LINE
8
Layer 1
10
137.806626
20
73.993795
11
137.547871
21
76.071353
0
LINE
8
Layer 1
10
137.547871
20
76.071353
11
137.671973
21
78.227203
0
LINE
8
Layer 1
10
137.671973
20
78.227203
11
138.090812
21
80.428220
0
LINE
8
Layer 1
10
138.090812
20
80.428220
11
138.716266
21
82.641278
0
LINE
8
Layer 1
10
138.716266
20
82.641278
11
140.234536
21
86.971010
0
LINE
8
Layer 1
10
140.234536
20
86.971010
11
141.521816
21
90.951395
0
LINE
8
Layer 1
10
141.521816
20
90.951395
11
141.804452
21
92.437470
0
LINE
8
Layer 1
10
141.804452
20
92.437470
11
141.748917
21
93.404305
0
LINE
8
Layer 1
10
141.748917
20
93.404305
11
141.379749
21
94.260318
0
LINE
8
Layer 1
10
141.379749
20
94.260318
11
140.758039
21
94.998574
0
LINE
8
Layer 1
10
140.758039
20
94.998574
11
139.943990
21
95.630196
0
LINE
8
Layer 1
10
139.943990
20
95.630196
11
138.997804
21
96.166306
0
LINE
8
Layer 1
10
138.997804
20
96.166306
11
136.949836
21
96.996488
0
LINE
8
Layer 1
10
136.949836
20
96.996488
11
135.095757
21
97.578105
0
LINE
8
Layer 1
10
135.095757
20
97.578105
11
134.656438
21
97.689312
0
LINE
8
Layer 1
10
134.656438
20
97.689312
11
134.213813
21
97.680631
0
LINE
8
Layer 1
10
134.213813
20
97.680631
11
133.797009
21
97.226224
0
LINE
8
Layer 1
10
133.797009
20
97.226224
11
133.538436
21
96.342283
0
LINE
8
Layer 1
10
133.538436
20
96.342283
11
133.186343
21
94.613671
0
LINE
8
Layer 1
10
133.186343
20
94.613671
11
132.615147
21
93.402238
0
LINE
8
Layer 1
10
132.615147
20
93.402238
11
131.950523
21
92.234631
0
LINE
8
Layer 1
10
131.950523
20
92.234631
11
130.207029
21
88.992797
0
LINE
8
Layer 1
10
130.207029
20
88.992797
11
128.602443
21
85.680681
0
LINE
8
Layer 1
10
128.602443
20
85.680681
11
127.052426
21
82.766682
0
LINE
8
Layer 1
10
127.052426
20
82.766682
11
125.363503
21
79.937021
0
LINE
8
Layer 1
10
125.363503
20
79.937021
11
121.099303
21
72.718311
0
LINE
8
Layer 1
10
121.099303
20
72.718311
11
121.304801
21
75.404903
0
LINE
8
Layer 1
10
121.304801
20
75.404903
11
121.805461
21
78.039434
0
LINE
8
Layer 1
10
121.805461
20
78.039434
11
122.514351
21
80.637329
0
LINE
8
Layer 1
10
122.514351
20
80.637329
11
123.344538
21
83.214012
0
LINE
8
Layer 1
10
123.344538
20
83.214012
11
125.021076
21
88.365440
0
LINE
8
Layer 1
10
125.021076
20
88.365440
11
125.693561
21
90.971033
0
LINE
8
Layer 1
10
125.693561
20
90.971033
11
126.139613
21
93.617111
0
LINE
8
Layer 1
10
126.139613
20
93.617111
11
126.207689
21
94.628178
0
LINE
8
Layer 1
10
126.207689
20
94.628178
11
126.102131
21
95.633451
0
LINE
8
Layer 1
10
126.102131
20
95.633451
11
125.855876
21
96.286879
0
LINE
8
Layer 1
10
125.855876
20
96.286879
11
125.444464
21
96.936353
0
LINE
8
Layer 1
10
125.444464
20
96.936353
11
124.259697
21
98.107581
0
LINE
8
Layer 1
10
124.259697
20
98.107581
11
122.814894
21
98.915419
0
LINE
8
Layer 1
10
122.814894
20
98.915419
11
122.078438
21
99.110656
0
LINE
8
Layer 1
10
122.078438
20
99.110656
11
121.377121
21
99.128151
0
LINE
8
Layer 1
10
121.377121
20
99.128151
11
120.232801
21
94.841901
0
LINE
8
Layer 1
10
120.232801
20
94.841901
11
118.840296
21
89.589101
0
LINE
8
Layer 1
10
118.840296
20
89.589101
11
117.830611
21
85.412821
0
LINE
8
Layer 1
10
117.830611
20
85.412821
11
117.233093
21
82.241131
0
LINE
8
Layer 1
10
117.233093
20
82.241131
11
116.717328
21
80.271175
0
LINE
8
Layer 1
10
116.717328
20
80.271175
11
115.839623
21
77.997465
0
LINE
8
Layer 1
10
115.839623
20
77.997465
11
115.237073
21
76.970622
0
LINE
8
Layer 1
10
115.237073
20
76.970622
11
114.510473
21
76.136545
0
LINE
8
Layer 1
10
114.510473
20
76.136545
11
113.648636
21
75.584802
0
LINE
8
Layer 1
10
113.648636
20
75.584802
11
112.640373
21
75.404961
0
LINE
8
Layer 1
10
112.640373
20
75.404961
11
111.825817
21
75.717361
0
LINE
8
Layer 1
10
111.825817
20
75.717361
11
111.084843
21
76.604401
0
LINE
8
Layer 1
10
111.084843
20
76.604401
11
110.724587
21
77.390579
0
LINE
8
Layer 1
10
110.724587
20
77.390579
11
110.475512
21
78.350443
0
LINE
8
Layer 1
10
110.475512
20
78.350443
11
110.310389
21
80.758361
0
LINE
8
Layer 1
10
110.310389
20
80.758361
11
110.588441
21
83.762424
0
LINE
8
Layer 1
10
110.588441
20
83.762424
11
111.308637
21
87.296901
0
LINE
8
Layer 1
10
111.308637
20
87.296901
11
112.511388
21
92.758476
0
LINE
8
Layer 1
10
112.511388
20
92.758476
11
113.839817
21
98.184501
0
LINE
8
Layer 1
10
113.839817
20
98.184501
11
114.120938
21
99.102823
0
LINE
8
Layer 1
10
114.120938
20
99.102823
11
112.383508
21
99.792946
0
LINE
8
Layer 1
10
112.383508
20
99.792946
11
109.694678
21
100.803876
0
LINE
8
Layer 1
10
109.694678
20
100.803876
11
108.119308
21
101.525966
0
LINE
8
Layer 1
10
108.119308
20
101.525966
11
107.861340
21
100.513936
0
LINE
8
Layer 1
10
107.861340
20
100.513936
11
106.637640
21
95.565126
0
LINE
8
Layer 1
10
106.637640
20
95.565126
11
106.007052
21
96.332417
0
LINE
8
Layer 1
10
106.007052
20
96.332417
11
104.462410
21
98.098235
0
LINE
8
Layer 1
10
104.462410
20
98.098235
11
103.541933
21
98.888847
0
LINE
8
Layer 1
10
103.541933
20
98.888847
11
102.427462
21
99.587887
0
LINE
8
Layer 1
10
102.427462
20
99.587887
11
100.692100
21
100.283108
0
LINE
8
Layer 1
10
100.692100
20
100.283108
11
98.916222
21
100.555821
0
LINE
8
Layer 1
10
98.916222
20
100.555821
11
97.188659
21
100.368034
0
LINE
8
Layer 1
10
97.188659
20
100.368034
11
95.594720
21
99.734821
0
LINE
8
Layer 1
10
95.594720
20
99.734821
11
94.139867
21
98.731245
0
LINE
8
Layer 1
10
94.139867
20
98.731245
11
92.829567
21
97.432363
0
LINE
8
Layer 1
10
92.829567
20
97.432363
11
91.669284
21
95.913237
0
LINE
8
Layer 1
10
91.669284
20
95.913237
11
90.664482
21
94.248927
0
LINE
8
Layer 1
10
90.664482
20
94.248927
11
89.820627
21
92.514491
0
LINE
8
Layer 1
10
89.820627
20
92.514491
11
89.143182
21
90.784991
0
LINE
8
Layer 1
10
89.143182
20
90.784991
11
88.231768
21
87.597317
0
LINE
8
Layer 1
10
88.231768
20
87.597317
11
87.691698
21
84.326135
0
LINE
8
Layer 1
10
87.691698
20
84.326135
11
87.542508
21
81.015681
0
LINE
8
Layer 1
10
87.542508
20
81.015681
11
87.803732
21
77.710191
0
LINE
8
Layer 1
10
87.803732
20
77.710191
11
88.375325
21
74.725434
0
LINE
8
Layer 1
10
88.375325
20
74.725434
11
89.368493
21
71.803099
0
LINE
8
Layer 1
10
89.368493
20
71.803099
11
90.077913
21
70.457323
0
LINE
8
Layer 1
10
90.077913
20
70.457323
11
90.958421
21
69.237535
0
LINE
8
Layer 1
10
90.958421
20
69.237535
11
92.031915
21
68.180526
0
LINE
8
Layer 1
10
92.031915
20
68.180526
11
93.320292
21
67.323091
0
LINE
8
Layer 1
10
93.320292
20
67.323091
11
94.766679
21
66.744454
0
LINE
8
Layer 1
10
94.766679
20
66.744454
11
96.256062
21
66.517217
0
LINE
8
Layer 1
10
96.256062
20
66.517217
11
97.509591
21
66.597472
0
LINE
8
Layer 1
10
97.509591
20
66.597472
11
98.729000
21
66.900259
0
LINE
8
Layer 1
10
98.729000
20
66.900259
11
99.901357
21
67.392103
0
LINE
8
Layer 1
10
99.901357
20
67.392103
11
101.013732
21
68.039532
0
LINE
8
Layer 1
10
101.013732
20
68.039532
11
103.006805
21
69.667251
0
LINE
8
Layer 1
10
103.006805
20
69.667251
11
104.604762
21
71.515627
0
LINE
8
Layer 1
10
104.604762
20
71.515627
11
104.982894
21
71.998492
0
LINE
8
Layer 1
10
104.982894
20
71.998492
11
105.749082
21
73.085482
0
LINE
8
Layer 1
10
105.749082
20
73.085482
11
105.749100
21
73.085300
0
LINE
8
Layer 1
10
325.055000
20
65.081700
11
324.307563
21
64.119278
0
LINE
8
Layer 1
10
324.307563
20
64.119278
11
322.797223
21
62.927558
0
LINE
8
Layer 1
10
322.797223
20
62.927558
11
321.173658
21
62.109866
0
LINE
8
Layer 1
10
321.173658
20
62.109866
11
319.425447
21
61.494952
0
LINE
8
Layer 1
10
319.425447
20
61.494952
11
315.676653
21
60.631198
0
LINE
8
Layer 1
10
315.676653
20
60.631198
11
313.174959
21
60.305705
0
LINE
8
Layer 1
10
313.174959
20
60.305705
11
310.509563
21
60.249755
0
LINE
8
Layer 1
10
310.509563
20
60.249755
11
307.819077
21
60.453154
0
LINE
8
Layer 1
10
307.819077
20
60.453154
11
305.257583
21
60.858296
0
LINE
8
Layer 1
10
305.257583
20
60.858296
11
301.865413
21
61.549520
0
LINE
8
Layer 1
10
301.865413
20
61.549520
11
297.905473
21
62.657460
0
LINE
8
Layer 1
10
297.905473
20
62.657460
11
294.419603
21
63.971560
0
LINE
8
Layer 1
10
294.419603
20
63.971560
11
291.597383
21
65.339680
0
LINE
8
Layer 1
10
291.597383
20
65.339680
11
294.826393
21
66.329661
0
LINE
8
Layer 1
10
294.826393
20
66.329661
11
297.981523
21
67.130026
0
LINE
8
Layer 1
10
297.981523
20
67.130026
11
299.508403
21
67.478395
0
LINE
8
Layer 1
10
299.508403
20
67.478395
11
303.967458
21
68.263739
0
LINE
8
Layer 1
10
303.967458
20
68.263739
11
308.474453
21
68.724135
0
LINE
8
Layer 1
10
308.474453
20
68.724135
11
312.843252
21
69.015176
0
LINE
8
Layer 1
10
312.843252
20
69.015176
11
317.221133
21
69.035019
0
LINE
8
Layer 1
10
317.221133
20
69.035019
11
319.615613
21
68.910444
0
LINE
8
Layer 1
10
319.615613
20
68.910444
11
321.986933
21
68.587432
0
LINE
8
Layer 1
10
321.986933
20
68.587432
11
323.561903
21
68.151008
0
LINE
8
Layer 1
10
323.561903
20
68.151008
11
324.287426
21
67.783606
0
LINE
8
Layer 1
10
324.287426
20
67.783606
11
324.899573
21
67.249082
0
LINE
8
Layer 1
10
324.899573
20
67.249082
11
325.216515
21
66.753125
0
LINE
8
Layer 1
10
325.216515
20
66.753125
11
325.351552
21
66.238152
0
LINE
8
Layer 1
10
325.351552
20
66.238152
11
325.298776
21
65.681013
0
LINE
8
Layer 1
10
325.298776
20
65.681013
11
325.054993
21
65.081702
0
LINE
8
Layer 1
10
325.054993
20
65.081702
11
325.055000
21
65.081700
0
LINE
8
Layer 1
10
228.697000
20
87.037700
11
228.335403
21
83.570560
0
LINE
8
Layer 1
10
228.335403
20
83.570560
11
228.216339
21
83.007217
0
LINE
8
Layer 1
10
228.216339
20
83.007217
11
227.770959
21
81.614847
0
LINE
8
Layer 1
10
227.770959
20
81.614847
11
227.367469
21
80.363587
0
LINE
8
Layer 1
10
227.367469
20
80.363587
11
226.368532
21
80.930647
0
LINE
8
Layer 1
10
226.368532
20
80.930647
11
224.856129
21
82.634587
0
LINE
8
Layer 1
10
224.856129
20
82.634587
11
224.031522
21
84.016861
0
LINE
8
Layer 1
10
224.031522
20
84.016861
11
223.403336
21
85.632092
0
LINE
8
Layer 1
10
223.403336
20
85.632092
11
222.990433
21
87.406074
0
LINE
8
Layer 1
10
222.990433
20
87.406074
11
222.811675
21
89.264599
0
LINE
8
Layer 1
10
222.811675
20
89.264599
11
222.885925
21
91.133461
0
LINE
8
Layer 1
10
222.885925
20
91.133461
11
223.232044
21
92.938451
0
LINE
8
Layer 1
10
223.232044
20
92.938451
11
223.868895
21
94.605362
0
LINE
8
Layer 1
10
223.868895
20
94.605362
11
224.815340
21
96.059987
0
LINE
8
Layer 1
10
224.815340
20
96.059987
11
225.457711
21
96.598387
0
LINE
8
Layer 1
10
225.457711
20
96.598387
11
226.114550
21
96.934212
0
LINE
8
Layer 1
10
226.114550
20
96.934212
11
226.841601
21
97.271552
0
LINE
8
Layer 1
10
226.841601
20
97.271552
11
226.938615
21
97.245108
0
LINE
8
Layer 1
10
226.938615
20
97.245108
11
227.394747
21
96.793913
0
LINE
8
Layer 1
10
227.394747
20
96.793913
11
227.707010
21
96.144951
0
LINE
8
Layer 1
10
227.707010
20
96.144951
11
228.032225
21
94.840158
0
LINE
8
Layer 1
10
228.032225
20
94.840158
11
228.219632
21
93.861751
0
LINE
8
Layer 1
10
228.219632
20
93.861751
11
228.634009
21
90.648998
0
LINE
8
Layer 1
10
228.634009
20
90.648998
11
228.696985
21
87.037711
0
LINE
8
Layer 1
10
228.696985
20
87.037711
11
228.697000
21
87.037700
0
LINE
8
Layer 1
10
223.889300
20
75.027800
11
223.323943
21
74.419429
0
LINE
8
Layer 1
10
223.323943
20
74.419429
11
222.560458
21
73.885681
0
LINE
8
Layer 1
10
222.560458
20
73.885681
11
221.670676
21
73.513164
0
LINE
8
Layer 1
10
221.670676
20
73.513164
11
220.726430
21
73.388490
0
LINE
8
Layer 1
10
220.726430
20
73.388490
11
219.696760
21
73.681736
0
LINE
8
Layer 1
10
219.696760
20
73.681736
11
218.644018
21
74.574336
0
LINE
8
Layer 1
10
218.644018
20
74.574336
11
217.719484
21
75.841553
0
LINE
8
Layer 1
10
217.719484
20
75.841553
11
216.944915
21
77.403972
0
LINE
8
Layer 1
10
216.944915
20
77.403972
11
216.342067
21
79.182180
0
LINE
8
Layer 1
10
216.342067
20
79.182180
11
215.932696
21
81.096764
0
LINE
8
Layer 1
10
215.932696
20
81.096764
11
215.738557
21
83.068310
0
LINE
8
Layer 1
10
215.738557
20
83.068310
11
215.781407
21
85.017405
0
LINE
8
Layer 1
10
215.781407
20
85.017405
11
216.083000
21
86.864636
0
LINE
8
Layer 1
10
216.083000
20
86.864636
11
216.800130
21
89.105185
0
LINE
8
Layer 1
10
216.800130
20
89.105185
11
217.685930
21
91.090246
0
LINE
8
Layer 1
10
217.685930
20
91.090246
11
217.627496
21
88.346296
0
LINE
8
Layer 1
10
217.627496
20
88.346296
11
217.694735
21
87.786263
0
LINE
8
Layer 1
10
217.694735
20
87.786263
11
218.079072
21
85.266934
0
LINE
8
Layer 1
10
218.079072
20
85.266934
11
218.722205
21
82.994003
0
LINE
8
Layer 1
10
218.722205
20
82.994003
11
219.418837
21
81.538434
0
LINE
8
Layer 1
10
219.418837
20
81.538434
11
220.290963
21
80.146840
0
LINE
8
Layer 1
10
220.290963
20
80.146840
11
221.287940
21
78.891465
0
LINE
8
Layer 1
10
221.287940
20
78.891465
11
222.359125
21
77.844553
0
LINE
8
Layer 1
10
222.359125
20
77.844553
11
222.924670
21
77.425631
0
LINE
8
Layer 1
10
222.924670
20
77.425631
11
222.963256
21
77.400288
0
LINE
8
Layer 1
10
222.963256
20
77.400288
11
223.705881
21
76.847005
0
LINE
8
Layer 1
10
223.705881
20
76.847005
11
224.191366
21
76.225098
0
LINE
8
Layer 1
10
224.191366
20
76.225098
11
224.170970
21
75.555785
0
LINE
8
Layer 1
10
224.170970
20
75.555785
11
223.889298
21
75.027858
0
LINE
8
Layer 1
10
223.889298
20
75.027858
11
223.889300
21
75.027800
0
LINE
8
Layer 1
10
324.208300
20
72.875860
11
320.218195
21
73.605391
0
LINE
8
Layer 1
10
320.218195
20
73.605391
11
316.060240
21
73.847099
0
LINE
8
Layer 1
10
316.060240
20
73.847099
11
313.952410
21
73.817333
0
LINE
8
Layer 1
10
313.952410
20
73.817333
11
312.544600
21
73.748985
0
LINE
8
Layer 1
10
312.544600
20
73.748985
11
310.438970
21
73.584721
0
LINE
8
Layer 1
10
310.438970
20
73.584721
11
306.290530
21
73.077605
0
LINE
8
Layer 1
10
306.290530
20
73.077605
11
302.319550
21
72.416147
0
LINE
8
Layer 1
10
302.319550
20
72.416147
11
293.053640
21
70.643437
0
LINE
8
Layer 1
10
293.053640
20
70.643437
11
292.458321
21
70.534296
0
LINE
8
Layer 1
10
292.458321
20
70.534296
11
292.407606
21
70.524361
0
LINE
8
Layer 1
10
292.407606
20
70.524361
11
285.976046
21
69.237831
0
LINE
8
Layer 1
10
285.976046
20
69.237831
11
284.579276
21
70.441111
0
LINE
8
Layer 1
10
284.579276
20
70.441111
11
283.145715
21
72.113130
0
LINE
8
Layer 1
10
283.145715
20
72.113130
11
281.577376
21
74.368491
0
LINE
8
Layer 1
10
281.577376
20
74.368491
11
280.285326
21
76.742021
0
LINE
8
Layer 1
10
280.285326
20
76.742021
11
280.267687
21
76.779506
0
LINE
8
Layer 1
10
280.267687
20
76.779506
11
280.089094
21
77.199531
0
LINE
8
Layer 1
10
280.089094
20
77.199531
11
280.020743
21
77.359382
0
LINE
8
Layer 1
10
280.020743
20
77.359382
11
279.701038
21
78.562960
0
LINE
8
Layer 1
10
279.701038
20
78.562960
11
279.450787
21
80.092302
0
LINE
8
Layer 1
10
279.450787
20
80.092302
11
278.778166
21
83.376853
0
LINE
8
Layer 1
10
278.778166
20
83.376853
11
278.346514
21
84.389556
0
LINE
8
Layer 1
10
278.346514
20
84.389556
11
277.783917
21
85.023472
0
LINE
8
Layer 1
10
277.783917
20
85.023472
11
279.251247
21
87.841282
0
LINE
8
Layer 1
10
279.251247
20
87.841282
11
279.272187
21
87.885379
0
LINE
8
Layer 1
10
279.272187
20
87.885379
11
281.320087
21
91.844757
0
LINE
8
Layer 1
10
281.320087
20
91.844757
11
283.497797
21
95.605699
0
LINE
8
Layer 1
10
283.497797
20
95.605699
11
285.650837
21
99.320889
0
LINE
8
Layer 1
10
285.650837
20
99.320889
11
285.798838
21
99.862872
0
LINE
8
Layer 1
10
285.798838
20
99.862872
11
285.670593
21
100.412299
0
LINE
8
Layer 1
10
285.670593
20
100.412299
11
285.302128
21
100.835632
0
LINE
8
Layer 1
10
285.302128
20
100.835632
11
284.776542
21
101.030760
0
LINE
8
Layer 1
10
284.776542
20
101.030760
11
284.425966
21
101.072653
0
LINE
8
Layer 1
10
284.425966
20
101.072653
11
283.877771
21
101.006922
0
LINE
8
Layer 1
10
283.877771
20
101.006922
11
283.427154
21
100.689009
0
LINE
8
Layer 1
10
283.427154
20
100.689009
11
281.655554
21
98.684789
0
LINE
8
Layer 1
10
281.655554
20
98.684789
11
280.699747
21
97.558109
0
LINE
8
Layer 1
10
280.699747
20
97.558109
11
279.143667
21
95.690868
0
LINE
8
Layer 1
10
279.143667
20
95.690868
11
277.792637
21
93.683069
0
LINE
8
Layer 1
10
277.792637
20
93.683069
11
275.398436
21
89.828975
0
LINE
8
Layer 1
10
275.398436
20
89.828975
11
272.810757
21
86.117089
0
LINE
8
Layer 1
10
272.810757
20
86.117089
11
271.073327
21
83.649849
0
LINE
8
Layer 1
10
271.073327
20
83.649849
11
269.949947
21
82.077779
0
LINE
8
Layer 1
10
269.949947
20
82.077779
11
268.341507
21
79.762679
0
LINE
8
Layer 1
10
268.341507
20
79.762679
11
268.040543
21
79.289737
0
LINE
8
Layer 1
10
268.040543
20
79.289737
11
267.351523
21
78.104627
0
LINE
8
Layer 1
10
267.351523
20
78.104627
11
267.164111
21
77.644913
0
LINE
8
Layer 1
10
267.164111
20
77.644913
11
266.768340
21
76.997786
0
LINE
8
Layer 1
10
266.768340
20
76.997786
11
266.595259
21
77.047398
0
LINE
8
Layer 1
10
266.595259
20
77.047398
11
266.219880
21
77.498015
0
LINE
8
Layer 1
10
266.219880
20
77.498015
11
265.940414
21
78.089188
0
LINE
8
Layer 1
10
265.940414
20
78.089188
11
265.478772
21
79.871543
0
LINE
8
Layer 1
10
265.478772
20
79.871543
11
265.409044
21
81.572868
0
LINE
8
Layer 1
10
265.409044
20
81.572868
11
265.743222
21
84.993294
0
LINE
8
Layer 1
10
265.743222
20
84.993294
11
266.676834
21
88.913948
0
LINE
8
Layer 1
10
266.676834
20
88.913948
11
268.705990
21
95.388659
0
LINE
8
Layer 1
10
268.705990
20
95.388659
11
269.989029
21
98.950401
0
LINE
8
Layer 1
10
269.989029
20
98.950401
11
271.463584
21
102.548848
0
LINE
8
Layer 1
10
271.463584
20
102.548848
11
272.721454
21
105.121918
0
LINE
8
Layer 1
10
272.721454
20
105.121918
11
273.974225
21
107.676249
0
LINE
8
Layer 1
10
273.974225
20
107.676249
11
274.997974
21
110.481928
0
LINE
8
Layer 1
10
274.997974
20
110.481928
11
275.200891
21
111.576004
0
LINE
8
Layer 1
10
275.200891
20
111.576004
11
275.249604
21
112.733227
0
LINE
8
Layer 1
10
275.249604
20
112.733227
11
275.147423
21
113.836913
0
LINE
8
Layer 1
10
275.147423
20
113.836913
11
274.897653
21
114.770378
0
LINE
8
Layer 1
10
274.897653
20
114.770378
11
273.986891
21
116.283567
0
LINE
8
Layer 1
10
273.986891
20
116.283567
11
272.549340
21
117.898249
0
LINE
8
Layer 1
10
272.549340
20
117.898249
11
270.855268
21
119.401723
0
LINE
8
Layer 1
10
270.855268
20
119.401723
11
269.174943
21
120.581288
0
LINE
8
Layer 1
10
269.174943
20
120.581288
11
268.540357
21
120.744861
0
LINE
8
Layer 1
10
268.540357
20
120.744861
11
267.918173
21
120.537191
0
LINE
8
Layer 1
10
267.918173
20
120.537191
11
267.509997
21
120.021392
0
LINE
8
Layer 1
10
267.509997
20
120.021392
11
267.447435
21
119.367511
0
LINE
8
Layer 1
10
267.447435
20
119.367511
11
267.607733
21
117.858119
0
LINE
8
Layer 1
10
267.607733
20
117.858119
11
267.545809
21
116.289043
0
LINE
8
Layer 1
10
267.545809
20
116.289043
11
267.300719
21
114.686170
0
LINE
8
Layer 1
10
267.300719
20
114.686170
11
266.911516
21
113.075392
0
LINE
8
Layer 1
10
266.911516
20
113.075392
11
265.856989
21
109.933676
0
LINE
8
Layer 1
10
265.856989
20
109.933676
11
264.694665
21
107.071011
0
LINE
8
Layer 1
10
264.694665
20
107.071011
11
263.802798
21
104.878281
0
LINE
8
Layer 1
10
263.802798
20
104.878281
11
262.862099
21
102.065037
0
LINE
8
Layer 1
10
262.862099
20
102.065037
11
262.076533
21
99.150196
0
LINE
8
Layer 1
10
262.076533
20
99.150196
11
260.738048
21
93.035981
0
LINE
8
Layer 1
10
260.738048
20
93.035981
11
260.455276
21
91.643611
0
LINE
8
Layer 1
10
260.455276
20
91.643611
11
260.356611
21
90.766078
0
LINE
8
Layer 1
10
260.356611
20
90.766078
11
260.139433
21
88.829108
0
LINE
8
Layer 1
10
260.139433
20
88.829108
11
260.104155
21
88.508301
0
LINE
8
Layer 1
10
260.104155
20
88.508301
11
258.112065
21
88.058504
0
LINE
8
Layer 1
10
258.112065
20
88.058504
11
256.560945
21
87.775173
0
LINE
8
Layer 1
10
256.560945
20
87.775173
11
256.980006
21
90.087518
0
LINE
8
Layer 1
10
256.980006
20
90.087518
11
257.525571
21
92.373403
0
LINE
8
Layer 1
10
257.525571
20
92.373403
11
258.092634
21
94.772152
0
LINE
8
Layer 1
10
258.092634
20
94.772152
11
258.539811
21
97.256063
0
LINE
8
Layer 1
10
258.539811
20
97.256063
11
258.416200
21
97.950182
0
LINE
8
Layer 1
10
258.416200
20
97.950182
11
257.911424
21
98.443383
0
LINE
8
Layer 1
10
257.911424
20
98.443383
11
257.163979
21
98.827027
0
LINE
8
Layer 1
10
257.163979
20
98.827027
11
255.734541
21
99.541952
0
LINE
8
Layer 1
10
255.734541
20
99.541952
11
254.095919
21
100.111357
0
LINE
8
Layer 1
10
254.095919
20
100.111357
11
251.730109
21
100.428857
0
LINE
8
Layer 1
10
251.730109
20
100.428857
11
249.197589
21
100.257327
0
LINE
8
Layer 1
10
249.197589
20
100.257327
11
247.053879
21
99.744527
0
LINE
8
Layer 1
10
247.053879
20
99.744527
11
245.430655
21
99.128786
0
LINE
8
Layer 1
10
245.430655
20
99.128786
11
244.459589
21
98.648437
0
LINE
8
Layer 1
10
244.459589
20
98.648437
11
241.976885
21
96.947664
0
LINE
8
Layer 1
10
241.976885
20
96.947664
11
239.881751
21
94.839268
0
LINE
8
Layer 1
10
239.881751
20
94.839268
11
238.206641
21
92.381539
0
LINE
8
Layer 1
10
238.206641
20
92.381539
11
236.984009
21
89.632767
0
LINE
8
Layer 1
10
236.984009
20
89.632767
11
236.409662
21
87.669458
0
LINE
8
Layer 1
10
236.409662
20
87.669458
11
236.006571
21
85.644036
0
LINE
8
Layer 1
10
236.006571
20
85.644036
11
235.772771
21
83.578719
0
LINE
8
Layer 1
10
235.772771
20
83.578719
11
235.706299
21
81.495727
0
LINE
8
Layer 1
10
235.706299
20
81.495727
11
235.435101
21
81.299495
0
LINE
8
Layer 1
10
235.435101
20
81.299495
11
234.719486
21
80.979240
0
LINE
8
Layer 1
10
234.719486
20
80.979240
11
233.946821
21
80.864035
0
LINE
8
Layer 1
10
233.946821
20
80.864035
11
233.462632
21
80.952675
0
LINE
8
Layer 1
10
233.462632
20
80.952675
11
233.075490
21
81.186218
0
LINE
8
Layer 1
10
233.075490
20
81.186218
11
232.786119
21
81.563218
0
LINE
8
Layer 1
10
232.786119
20
81.563218
11
232.595241
21
82.082225
0
LINE
8
Layer 1
10
232.595241
20
82.082225
11
232.556863
21
82.941862
0
LINE
8
Layer 1
10
232.556863
20
82.941862
11
232.725604
21
84.033939
0
LINE
8
Layer 1
10
232.725604
20
84.033939
11
233.353713
21
86.418085
0
LINE
8
Layer 1
10
233.353713
20
86.418085
11
233.806812
21
88.131265
0
LINE
8
Layer 1
10
233.806812
20
88.131265
11
234.113288
21
91.311364
0
LINE
8
Layer 1
10
234.113288
20
91.311364
11
233.910441
21
94.508825
0
LINE
8
Layer 1
10
233.910441
20
94.508825
11
233.310735
21
97.230739
0
LINE
8
Layer 1
10
233.310735
20
97.230739
11
232.869554
21
98.463676
0
LINE
8
Layer 1
10
232.869554
20
98.463676
11
232.296895
21
99.562500
0
LINE
8
Layer 1
10
232.296895
20
99.562500
11
231.564814
21
100.490637
0
LINE
8
Layer 1
10
231.564814
20
100.490637
11
230.645367
21
101.211513
0
LINE
8
Layer 1
10
230.645367
20
101.211513
11
229.510611
21
101.688554
0
LINE
8
Layer 1
10
229.510611
20
101.688554
11
228.132601
21
101.885185
0
LINE
8
Layer 1
10
228.132601
20
101.885185
11
226.680701
21
101.791621
0
LINE
8
Layer 1
10
226.680701
20
101.791621
11
225.050211
21
101.430983
0
LINE
8
Layer 1
10
225.050211
20
101.430983
11
223.466709
21
100.875773
0
LINE
8
Layer 1
10
223.466709
20
100.875773
11
222.333821
21
100.230443
0
LINE
8
Layer 1
10
222.333821
20
100.230443
11
221.864187
21
99.711197
0
LINE
8
Layer 1
10
221.864187
20
99.711197
11
221.346044
21
99.197465
0
LINE
8
Layer 1
10
221.346044
20
99.197465
11
220.936217
21
99.165150
0
LINE
8
Layer 1
10
220.936217
20
99.165150
11
220.478431
21
99.368892
0
LINE
8
Layer 1
10
220.478431
20
99.368892
11
219.895937
21
99.655042
0
LINE
8
Layer 1
10
219.895937
20
99.655042
11
219.261351
21
99.792778
0
LINE
8
Layer 1
10
219.261351
20
99.792778
11
218.594379
21
99.677022
0
LINE
8
Layer 1
10
218.594379
20
99.677022
11
217.699357
21
99.249096
0
LINE
8
Layer 1
10
217.699357
20
99.249096
11
216.836851
21
98.651194
0
LINE
8
Layer 1
10
216.836851
20
98.651194
11
215.210888
21
96.948095
0
LINE
8
Layer 1
10
215.210888
20
96.948095
11
213.719489
21
94.572997
0
LINE
8
Layer 1
10
213.719489
20
94.572997
11
212.365649
21
91.531172
0
LINE
8
Layer 1
10
212.365649
20
91.531172
11
211.052659
21
87.474232
0
LINE
8
Layer 1
10
211.052659
20
87.474232
11
210.497034
21
84.367582
0
LINE
8
Layer 1
10
210.497034
20
84.367582
11
210.483798
21
84.265054
0
LINE
8
Layer 1
10
210.483798
20
84.265054
11
210.260004
21
82.147284
0
LINE
8
Layer 1
10
210.260004
20
82.147284
11
210.143423
21
81.142283
0
LINE
8
Layer 1
10
210.143423
20
81.142283
11
210.160786
21
80.159604
0
LINE
8
Layer 1
10
210.160786
20
80.159604
11
210.199372
21
77.799304
0
LINE
8
Layer 1
10
210.199372
20
77.799304
11
210.210406
21
77.648270
0
LINE
8
Layer 1
10
210.210406
20
77.648270
11
210.206004
21
77.654874
0
LINE
8
Layer 1
10
210.206004
20
77.654874
11
208.063566
21
80.510581
0
LINE
8
Layer 1
10
208.063566
20
80.510581
11
206.093944
21
83.487834
0
LINE
8
Layer 1
10
206.093944
20
83.487834
11
203.884399
21
87.410555
0
LINE
8
Layer 1
10
203.884399
20
87.410555
11
201.904714
21
91.460604
0
LINE
8
Layer 1
10
201.904714
20
91.460604
11
200.649044
21
93.637904
0
LINE
8
Layer 1
10
200.649044
20
93.637904
11
200.197046
21
94.326924
0
LINE
8
Layer 1
10
200.197046
20
94.326924
11
203.700291
21
95.550274
0
LINE
8
Layer 1
10
203.700291
20
95.550274
11
206.962928
21
97.201506
0
LINE
8
Layer 1
10
206.962928
20
97.201506
11
209.988675
21
99.186778
0
LINE
8
Layer 1
10
209.988675
20
99.186778
11
212.781246
21
101.412244
0
LINE
8
Layer 1
10
212.781246
20
101.412244
11
214.631124
21
103.139476
0
LINE
8
Layer 1
10
214.631124
20
103.139476
11
216.322251
21
105.023804
0
LINE
8
Layer 1
10
216.322251
20
105.023804
11
217.843878
21
107.047864
0
LINE
8
Layer 1
10
217.843878
20
107.047864
11
219.185256
21
109.194294
0
LINE
8
Layer 1
10
219.185256
20
109.194294
11
220.603504
21
112.133950
0
LINE
8
Layer 1
10
220.603504
20
112.133950
11
221.644553
21
115.269319
0
LINE
8
Layer 1
10
221.644553
20
115.269319
11
222.280122
21
118.529669
0
LINE
8
Layer 1
10
222.280122
20
118.529669
11
222.481933
21
121.844266
0
LINE
8
Layer 1
10
222.481933
20
121.844266
11
222.221706
21
125.142380
0
LINE
8
Layer 1
10
222.221706
20
125.142380
11
221.471160
21
128.353277
0
LINE
8
Layer 1
10
221.471160
20
128.353277
11
220.202016
21
131.406226
0
LINE
8
Layer 1
10
220.202016
20
131.406226
11
219.364133
21
132.851366
0
LINE
8
Layer 1
10
219.364133
20
132.851366
11
218.385995
21
134.230494
0
LINE
8
Layer 1
10
218.385995
20
134.230494
11
216.396821
21
136.318746
0
LINE
8
Layer 1
10
216.396821
20
136.318746
11
214.109694
21
137.956225
0
LINE
8
Layer 1
10
214.109694
20
137.956225
11
211.585710
21
139.188251
0
LINE
8
Layer 1
10
211.585710
20
139.188251
11
208.885961
21
140.060144
0
LINE
8
Layer 1
10
208.885961
20
140.060144
11
206.071541
21
140.617224
0
LINE
8
Layer 1
10
206.071541
20
140.617224
11
203.203545
21
140.904812
0
LINE
8
Layer 1
10
203.203545
20
140.904812
11
200.343065
21
140.968229
0
LINE
8
Layer 1
10
200.343065
20
140.968229
11
197.551195
21
140.852794
0
LINE
8
Layer 1
10
197.551195
20
140.852794
11
193.605712
21
140.381483
0
LINE
8
Layer 1
10
193.605712
20
140.381483
11
189.711142
21
139.539008
0
LINE
8
Layer 1
10
189.711142
20
139.539008
11
185.887705
21
138.357793
0
LINE
8
Layer 1
10
185.887705
20
138.357793
11
182.155620
21
136.870268
0
LINE
8
Layer 1
10
182.155620
20
136.870268
11
178.535107
21
135.108858
0
LINE
8
Layer 1
10
178.535107
20
135.108858
11
175.046385
21
133.105991
0
LINE
8
Layer 1
10
175.046385
20
133.105991
11
171.709675
21
130.894094
0
LINE
8
Layer 1
10
171.709675
20
130.894094
11
168.545195
21
128.505594
0
LINE
8
Layer 1
10
168.545195
20
128.505594
11
166.927935
21
127.168344
0
LINE
8
Layer 1
10
166.927935
20
127.168344
11
167.987375
21
124.013194
0
LINE
8
Layer 1
10
167.987375
20
124.013194
11
171.521765
21
126.033944
0
LINE
8
Layer 1
10
171.521765
20
126.033944
11
176.654534
21
128.822954
0
LINE
8
Layer 1
10
176.654534
20
128.822954
11
182.021265
21
131.131574
0
LINE
8
Layer 1
10
182.021265
20
131.131574
11
187.320172
21
132.987152
0
LINE
8
Layer 1
10
187.320172
20
132.987152
11
189.889816
21
133.708411
0
LINE
8
Layer 1
10
189.889816
20
133.708411
11
192.448441
21
134.244423
0
LINE
8
Layer 1
10
192.448441
20
134.244423
11
195.027688
21
134.559518
0
LINE
8
Layer 1
10
195.027688
20
134.559518
11
197.659197
21
134.618026
0
LINE
8
Layer 1
10
197.659197
20
134.618026
11
200.374609
21
134.384278
0
LINE
8
Layer 1
10
200.374609
20
134.384278
11
203.205565
21
133.822604
0
LINE
8
Layer 1
10
203.205565
20
133.822604
11
206.663886
21
132.688756
0
LINE
8
Layer 1
10
206.663886
20
132.688756
11
208.310057
21
131.911407
0
LINE
8
Layer 1
10
208.310057
20
131.911407
11
209.864245
21
130.966214
0
LINE
8
Layer 1
10
209.864245
20
130.966214
11
211.427347
21
129.696087
0
LINE
8
Layer 1
10
211.427347
20
129.696087
11
212.754352
21
128.224487
0
LINE
8
Layer 1
10
212.754352
20
128.224487
11
213.828478
21
126.585689
0
LINE
8
Layer 1
10
213.828478
20
126.585689
11
214.632944
21
124.813966
0
LINE
8
Layer 1
10
214.632944
20
124.813966
11
215.150967
21
122.943593
0
LINE
8
Layer 1
10
215.150967
20
122.943593
11
215.365766
21
121.008844
0
LINE
8
Layer 1
10
215.365766
20
121.008844
11
215.260559
21
119.043993
0
LINE
8
Layer 1
10
215.260559
20
119.043993
11
214.818565
21
117.083314
0
LINE
8
Layer 1
10
214.818565
20
117.083314
11
214.161551
21
115.337169
0
LINE
8
Layer 1
10
214.161551
20
115.337169
11
213.351781
21
113.654483
0
LINE
8
Layer 1
10
213.351781
20
113.654483
11
211.474895
21
110.412514
0
LINE
8
Layer 1
10
211.474895
20
110.412514
11
210.086268
21
108.313248
0
LINE
8
Layer 1
10
210.086268
20
108.313248
11
208.552664
21
106.327268
0
LINE
8
Layer 1
10
208.552664
20
106.327268
11
206.882272
21
104.464406
0
LINE
8
Layer 1
10
206.882272
20
104.464406
11
205.083285
21
102.734495
0
LINE
8
Layer 1
10
205.083285
20
102.734495
11
203.163892
21
101.147368
0
LINE
8
Layer 1
10
203.163892
20
101.147368
11
201.132286
21
99.712857
0
LINE
8
Layer 1
10
201.132286
20
99.712857
11
198.996657
21
98.440795
0
LINE
8
Layer 1
10
198.996657
20
98.440795
11
196.765195
21
97.341014
0
LINE
8
Layer 1
10
196.765195
20
97.341014
11
198.761695
21
103.752744
0
LINE
8
Layer 1
10
198.761695
20
103.752744
11
201.973075
21
113.813544
0
LINE
8
Layer 1
10
201.973075
20
113.813544
11
203.679635
21
118.948664
0
LINE
8
Layer 1
10
203.679635
20
118.948664
11
204.337510
21
121.271483
0
LINE
8
Layer 1
10
204.337510
20
121.271483
11
204.537877
21
122.469994
0
LINE
8
Layer 1
10
204.537877
20
122.469994
11
204.567091
21
123.660444
0
LINE
8
Layer 1
10
204.567091
20
123.660444
11
204.238705
21
125.730254
0
LINE
8
Layer 1
10
204.238705
20
125.730254
11
203.907132
21
126.723197
0
LINE
8
Layer 1
10
203.907132
20
126.723197
11
203.441511
21
127.664464
0
LINE
8
Layer 1
10
203.441511
20
127.664464
11
202.854708
21
128.494955
0
LINE
8
Layer 1
10
202.854708
20
128.494955
11
202.143674
21
129.210208
0
LINE
8
Layer 1
10
202.143674
20
129.210208
11
201.319779
21
129.790068
0
LINE
8
Layer 1
10
201.319779
20
129.790068
11
200.394391
21
130.214384
0
LINE
8
Layer 1
10
200.394391
20
130.214384
11
198.793523
21
130.576947
0
LINE
8
Layer 1
10
198.793523
20
130.576947
11
197.148841
21
130.720400
0
LINE
8
Layer 1
10
197.148841
20
130.720400
11
196.673695
21
128.752560
0
LINE
8
Layer 1
10
196.673695
20
128.752560
11
195.706865
21
124.919410
0
LINE
8
Layer 1
10
195.706865
20
124.919410
11
194.796860
21
121.692031
0
LINE
8
Layer 1
10
194.796860
20
121.692031
11
193.760662
21
118.479431
0
LINE
8
Layer 1
10
193.760662
20
118.479431
11
191.679685
21
112.071710
0
LINE
8
Layer 1
10
191.679685
20
112.071710
11
189.200315
21
103.261090
0
LINE
8
Layer 1
10
189.200315
20
103.261090
11
186.327385
21
91.497090
0
LINE
8
Layer 1
10
186.327385
20
91.497090
11
184.773097
21
84.738505
0
LINE
8
Layer 1
10
184.773097
20
84.738505
11
183.401535
21
77.945990
0
LINE
8
Layer 1
10
183.401535
20
77.945990
11
183.195518
21
76.386465
0
LINE
8
Layer 1
10
183.195518
20
76.386465
11
183.192073
21
74.819500
0
LINE
8
Layer 1
10
183.192073
20
74.819500
11
183.415153
21
73.700698
0
LINE
8
Layer 1
10
183.415153
20
73.700698
11
183.862573
21
72.523346
0
LINE
8
Layer 1
10
183.862573
20
72.523346
11
184.507939
21
71.359948
0
LINE
8
Layer 1
10
184.507939
20
71.359948
11
185.324859
21
70.283004
0
LINE
8
Layer 1
10
185.324859
20
70.283004
11
186.286937
21
69.365016
0
LINE
8
Layer 1
10
186.286937
20
69.365016
11
187.367782
21
68.678486
0
LINE
8
Layer 1
10
187.367782
20
68.678486
11
188.540998
21
68.295917
0
LINE
8
Layer 1
10
188.540998
20
68.295917
11
189.780193
21
68.289810
0
LINE
8
Layer 1
10
189.780193
20
68.289810
11
189.820070
21
70.891784
0
LINE
8
Layer 1
10
189.820070
20
70.891784
11
189.986760
21
73.202511
0
LINE
8
Layer 1
10
189.986760
20
73.202511
11
190.536460
21
76.989080
0
LINE
8
Layer 1
10
190.536460
20
76.989080
11
191.364384
21
80.275430
0
LINE
8
Layer 1
10
191.364384
20
80.275430
11
194.643014
21
90.601930
0
LINE
8
Layer 1
10
194.643014
20
90.601930
11
196.669004
21
86.122209
0
LINE
8
Layer 1
10
196.669004
20
86.122209
11
198.924854
21
82.158420
0
LINE
8
Layer 1
10
198.924854
20
82.158420
11
202.028608
21
77.697164
0
LINE
8
Layer 1
10
202.028608
20
77.697164
11
205.121614
21
74.024690
0
LINE
8
Layer 1
10
205.121614
20
74.024690
11
208.017424
21
71.111244
0
LINE
8
Layer 1
10
208.017424
20
71.111244
11
210.534544
21
68.927060
0
LINE
8
Layer 1
10
210.534544
20
68.927060
11
212.203624
21
67.690130
0
LINE
8
Layer 1
10
212.203624
20
67.690130
11
212.976979
21
67.273134
0
LINE
8
Layer 1
10
212.976979
20
67.273134
11
213.813174
21
66.983472
0
LINE
8
Layer 1
10
213.813174
20
66.983472
11
215.833100
21
66.530097
0
LINE
8
Layer 1
10
215.833100
20
66.530097
11
217.897674
21
66.379339
0
LINE
8
Layer 1
10
217.897674
20
66.379339
11
218.954905
21
66.368315
0
LINE
8
Layer 1
10
218.954905
20
66.368315
11
220.002214
21
66.489583
0
LINE
8
Layer 1
10
220.002214
20
66.489583
11
221.670184
21
66.917324
0
LINE
8
Layer 1
10
221.670184
20
66.917324
11
223.127185
21
67.648789
0
LINE
8
Layer 1
10
223.127185
20
67.648789
11
224.472564
21
68.572074
0
LINE
8
Layer 1
10
224.472564
20
68.572074
11
225.161030
21
69.069959
0
LINE
8
Layer 1
10
225.161030
20
69.069959
11
225.806504
21
69.691044
0
LINE
8
Layer 1
10
225.806504
20
69.691044
11
227.190396
21
71.030928
0
LINE
8
Layer 1
10
227.190396
20
71.030928
11
228.420915
21
72.441193
0
LINE
8
Layer 1
10
228.420915
20
72.441193
11
229.417443
21
73.842568
0
LINE
8
Layer 1
10
229.417443
20
73.842568
11
230.099364
21
75.155784
0
LINE
8
Layer 1
10
230.099364
20
75.155784
11
231.517094
21
75.498639
0
LINE
8
Layer 1
10
231.517094
20
75.498639
11
232.616214
21
75.845354
0
LINE
8
Layer 1
10
232.616214
20
75.845354
11
234.063564
21
76.495167
0
LINE
8
Layer 1
10
234.063564
20
76.495167
11
235.830894
21
77.647274
0
LINE
8
Layer 1
10
235.830894
20
77.647274
11
235.904757
21
78.488425
0
LINE
8
Layer 1
10
235.904757
20
78.488425
11
236.539756
21
75.189955
0
LINE
8
Layer 1
10
236.539756
20
75.189955
11
237.308424
21
73.164655
0
LINE
8
Layer 1
10
237.308424
20
73.164655
11
238.310256
21
71.257585
0
LINE
8
Layer 1
10
238.310256
20
71.257585
11
238.491053
21
70.922446
0
LINE
8
Layer 1
10
238.491053
20
70.922446
11
238.551688
21
70.823228
0
LINE
8
Layer 1
10
238.551688
20
70.823228
11
240.015576
21
69.019603
0
LINE
8
Layer 1
10
240.015576
20
69.019603
11
241.808541
21
67.410797
0
LINE
8
Layer 1
10
241.808541
20
67.410797
11
243.845005
21
66.061819
0
LINE
8
Layer 1
10
243.845005
20
66.061819
11
246.039388
21
65.037678
0
LINE
8
Layer 1
10
246.039388
20
65.037678
11
247.868181
21
64.513473
0
LINE
8
Layer 1
10
247.868181
20
64.513473
11
249.682918
21
64.300153
0
LINE
8
Layer 1
10
249.682918
20
64.300153
11
251.903576
21
64.475800
0
LINE
8
Layer 1
10
251.903576
20
64.475800
11
253.966825
21
65.087700
0
LINE
8
Layer 1
10
253.966825
20
65.087700
11
255.870288
21
66.059889
0
LINE
8
Layer 1
10
255.870288
20
66.059889
11
257.611588
21
67.316403
0
LINE
8
Layer 1
10
257.611588
20
67.316403
11
258.379982
21
68.992232
0
LINE
8
Layer 1
10
258.379982
20
68.992232
11
258.691968
21
70.817723
0
LINE
8
Layer 1
10
258.691968
20
70.817723
11
258.669530
21
71.378859
0
LINE
8
Layer 1
10
258.669530
20
71.378859
11
258.472586
21
71.897003
0
LINE
8
Layer 1
10
258.472586
20
71.897003
11
258.183060
21
72.118176
0
LINE
8
Layer 1
10
258.183060
20
72.118176
11
257.826560
21
72.181429
0
LINE
8
Layer 1
10
257.826560
20
72.181429
11
255.812147
21
70.699210
0
LINE
8
Layer 1
10
255.812147
20
70.699210
11
253.677020
21
69.408819
0
LINE
8
Layer 1
10
253.677020
20
69.408819
11
252.553421
21
68.983883
0
LINE
8
Layer 1
10
252.553421
20
68.983883
11
251.330087
21
68.796556
0
LINE
8
Layer 1
10
251.330087
20
68.796556
11
250.092901
21
68.796298
0
LINE
8
Layer 1
10
250.092901
20
68.796298
11
248.927750
21
68.932569
0
LINE
8
Layer 1
10
248.927750
20
68.932569
11
247.723240
21
69.304742
0
LINE
8
Layer 1
10
247.723240
20
69.304742
11
246.590044
21
69.938811
0
LINE
8
Layer 1
10
246.590044
20
69.938811
11
245.557721
21
70.741138
0
LINE
8
Layer 1
10
245.557721
20
70.741138
11
244.655830
21
71.618089
0
LINE
8
Layer 1
10
244.655830
20
71.618089
11
243.269663
21
73.366681
0
LINE
8
Layer 1
10
243.269663
20
73.366681
11
242.221670
21
75.334379
0
LINE
8
Layer 1
10
242.221670
20
75.334379
11
241.547573
21
77.600621
0
LINE
8
Layer 1
10
241.547573
20
77.600621
11
241.342930
21
79.834563
0
LINE
8
Layer 1
10
241.342930
20
79.834563
11
241.557331
21
81.997914
0
LINE
8
Layer 1
10
241.557331
20
81.997914
11
242.140366
21
84.052381
0
LINE
8
Layer 1
10
242.140366
20
84.052381
11
243.041623
21
85.959674
0
LINE
8
Layer 1
10
243.041623
20
85.959674
11
244.210693
21
87.681498
0
LINE
8
Layer 1
10
244.210693
20
87.681498
11
245.597166
21
89.179564
0
LINE
8
Layer 1
10
245.597166
20
89.179564
11
247.150630
21
90.415579
0
LINE
8
Layer 1
10
247.150630
20
90.415579
11
247.492384
21
90.645988
0
LINE
8
Layer 1
10
247.492384
20
90.645988
11
249.123703
21
91.646440
0
LINE
8
Layer 1
10
249.123703
20
91.646440
11
250.101523
21
92.022333
0
LINE
8
Layer 1
10
250.101523
20
92.022333
11
251.137014
21
92.154108
0
LINE
8
Layer 1
10
251.137014
20
92.154108
11
251.668384
21
92.087961
0
LINE
8
Layer 1
10
251.668384
20
92.087961
11
252.387996
21
91.755579
0
LINE
8
Layer 1
10
252.387996
20
91.755579
11
252.907514
21
91.105699
0
LINE
8
Layer 1
10
252.907514
20
91.105699
11
253.298152
21
89.680428
0
LINE
8
Layer 1
10
253.298152
20
89.680428
11
253.314860
21
87.864277
0
LINE
8
Layer 1
10
253.314860
20
87.864277
11
253.038047
21
85.876562
0
LINE
8
Layer 1
10
253.038047
20
85.876562
11
252.548121
21
83.936599
0
LINE
8
Layer 1
10
252.548121
20
83.936599
11
252.516701
21
83.386764
0
LINE
8
Layer 1
10
252.516701
20
83.386764
11
252.743249
21
82.881579
0
LINE
8
Layer 1
10
252.743249
20
82.881579
11
253.177746
21
82.541342
0
LINE
8
Layer 1
10
253.177746
20
82.541342
11
253.722207
21
82.441711
0
LINE
8
Layer 1
10
253.722207
20
82.441711
11
256.305340
21
82.647727
0
LINE
8
Layer 1
10
256.305340
20
82.647727
11
258.862837
21
83.061276
0
LINE
8
Layer 1
10
258.862837
20
83.061276
11
259.573904
21
83.278454
0
LINE
8
Layer 1
10
259.573904
20
83.278454
11
259.562869
21
83.035921
0
LINE
8
Layer 1
10
259.562869
20
83.035921
11
259.647756
21
77.713391
0
LINE
8
Layer 1
10
259.647756
20
77.713391
11
259.836410
21
75.058602
0
LINE
8
Layer 1
10
259.836410
20
75.058602
11
260.230940
21
72.426141
0
LINE
8
Layer 1
10
260.230940
20
72.426141
11
260.348906
21
71.884845
0
LINE
8
Layer 1
10
260.348906
20
71.884845
11
260.712713
21
70.607135
0
LINE
8
Layer 1
10
260.712713
20
70.607135
11
261.317808
21
69.060840
0
LINE
8
Layer 1
10
261.317808
20
69.060840
11
262.034523
21
67.874215
0
LINE
8
Layer 1
10
262.034523
20
67.874215
11
262.938656
21
66.973529
0
LINE
8
Layer 1
10
262.938656
20
66.973529
11
263.952753
21
66.473025
0
LINE
8
Layer 1
10
263.952753
20
66.473025
11
264.483023
21
66.391443
0
LINE
8
Layer 1
10
264.483023
20
66.391443
11
265.282113
21
66.506716
0
LINE
8
Layer 1
10
265.282113
20
66.506716
11
265.961933
21
66.823321
0
LINE
8
Layer 1
10
265.961933
20
66.823321
11
266.898443
21
67.577663
0
LINE
8
Layer 1
10
266.898443
20
67.577663
11
268.111029
21
68.893481
0
LINE
8
Layer 1
10
268.111029
20
68.893481
11
269.372708
21
70.558631
0
LINE
8
Layer 1
10
269.372708
20
70.558631
11
270.530002
21
72.386665
0
LINE
8
Layer 1
10
270.530002
20
72.386665
11
271.429433
21
74.191133
0
LINE
8
Layer 1
10
271.429433
20
74.191133
11
273.413803
21
70.922433
0
LINE
8
Layer 1
10
273.413803
20
70.922433
11
275.084260
21
68.632959
0
LINE
8
Layer 1
10
275.084260
20
68.632959
11
276.121544
21
67.448535
0
LINE
8
Layer 1
10
276.121544
20
67.448535
11
277.295463
21
66.331913
0
LINE
8
Layer 1
10
277.295463
20
66.331913
11
277.404604
21
66.234899
0
LINE
8
Layer 1
10
277.404604
20
66.234899
11
273.533974
21
65.348544
0
LINE
8
Layer 1
10
273.533974
20
65.348544
11
261.144874
21
62.665234
0
LINE
8
Layer 1
10
261.144874
20
62.665234
11
255.436634
21
61.448426
0
LINE
8
Layer 1
10
255.436634
20
61.448426
11
249.696174
21
60.392024
0
LINE
8
Layer 1
10
249.696174
20
60.392024
11
234.385674
21
57.642564
0
LINE
8
Layer 1
10
234.385674
20
57.642564
11
211.162974
21
53.435694
0
LINE
8
Layer 1
10
211.162974
20
53.435694
11
199.388141
21
51.430786
0
LINE
8
Layer 1
10
199.388141
20
51.430786
11
193.360132
21
50.537499
0
LINE
8
Layer 1
10
193.360132
20
50.537499
11
186.969612
21
49.788028
0
LINE
8
Layer 1
10
186.969612
20
49.788028
11
180.014993
21
49.235650
0
LINE
8
Layer 1
10
180.014993
20
49.235650
11
172.294688
21
48.933645
0
LINE
8
Layer 1
10
172.294688
20
48.933645
11
163.607111
21
48.935290
0
LINE
8
Layer 1
10
163.607111
20
48.935290
11
153.750674
21
49.293864
0
LINE
8
Layer 1
10
153.750674
20
49.293864
11
148.671898
21
49.707224
0
LINE
8
Layer 1
10
148.671898
20
49.707224
11
143.429312
21
50.388164
0
LINE
8
Layer 1
10
143.429312
20
50.388164
11
138.215057
21
51.279324
0
LINE
8
Layer 1
10
138.215057
20
51.279324
11
133.221274
21
52.323344
0
LINE
8
Layer 1
10
133.221274
20
52.323344
11
127.448728
21
53.776122
0
LINE
8
Layer 1
10
127.448728
20
53.776122
11
121.727758
21
55.483870
0
LINE
8
Layer 1
10
121.727758
20
55.483870
11
116.090096
21
57.439457
0
LINE
8
Layer 1
10
116.090096
20
57.439457
11
110.567474
21
59.635754
0
LINE
8
Layer 1
10
110.567474
20
59.635754
11
107.917234
21
60.687474
0
LINE
8
Layer 1
10
107.917234
20
60.687474
11
106.964062
21
61.042145
0
LINE
8
Layer 1
10
106.964062
20
61.042145
11
105.800982
21
61.355269
0
LINE
8
Layer 1
10
105.800982
20
61.355269
11
104.668288
21
61.373630
0
LINE
8
Layer 1
10
104.668288
20
61.373630
11
104.188427
21
61.193146
0
LINE
8
Layer 1
10
104.188427
20
61.193146
11
103.806274
21
60.844017
0
LINE
8
Layer 1
10
103.806274
20
60.844017
11
103.540269
21
60.233567
0
LINE
8
Layer 1
10
103.540269
20
60.233567
11
103.528461
21
59.481654
0
LINE
8
Layer 1
10
103.528461
20
59.481654
11
103.771934
21
58.586442
0
LINE
8
Layer 1
10
103.771934
20
58.586442
11
104.271774
21
57.546098
0
LINE
8
Layer 1
10
104.271774
20
57.546098
11
106.044895
21
55.022672
0
LINE
8
Layer 1
10
106.044895
20
55.022672
11
108.856504
21
51.896697
0
LINE
8
Layer 1
10
108.856504
20
51.896697
11
109.031789
21
51.717001
0
LINE
8
Layer 1
10
109.031789
20
51.717001
11
112.456782
21
48.530636
0
LINE
8
Layer 1
10
112.456782
20
48.530636
11
116.159687
21
45.734943
0
LINE
8
Layer 1
10
116.159687
20
45.734943
11
120.087693
21
43.364655
0
LINE
8
Layer 1
10
120.087693
20
43.364655
11
124.187989
21
41.454501
0
LINE
8
Layer 1
10
124.187989
20
41.454501
11
130.111337
21
39.418312
0
LINE
8
Layer 1
10
130.111337
20
39.418312
11
136.504289
21
37.845151
0
LINE
8
Layer 1
10
136.504289
20
37.845151
11
140.434710
21
37.142769
0
LINE
8
Layer 1
10
140.434710
20
37.142769
11
144.404011
21
36.599989
0
LINE
8
Layer 1
10
144.404011
20
36.599989
11
152.398589
21
35.933812
0
LINE
8
Layer 1
10
152.398589
20
35.933812
11
160.366692
21
35.727762
0
LINE
8
Layer 1
10
160.366692
20
35.727762
11
168.186989
21
35.862981
0
LINE
8
Layer 1
10
168.186989
20
35.862981
11
175.337069
21
36.179653
0
LINE
8
Layer 1
10
175.337069
20
36.179653
11
181.986089
21
36.693109
0
LINE
8
Layer 1
10
181.986089
20
36.693109
11
190.441979
21
37.673031
0
LINE
8
Layer 1
10
190.441979
20
37.673031
11
198.750689
21
38.986159
0
LINE
8
Layer 1
10
198.750689
20
38.986159
11
209.413389
21
41.200939
0
LINE
8
Layer 1
10
209.413389
20
41.200939
11
224.464989
21
44.816771
0
LINE
8
Layer 1
10
224.464989
20
44.816771
11
239.385189
21
48.898099
0
LINE
8
Layer 1
10
239.385189
20
48.898099
11
247.574039
21
51.267219
0
LINE
8
Layer 1
10
247.574039
20
51.267219
11
263.890550
21
56.185986
0
LINE
8
Layer 1
10
263.890550
20
56.185986
11
276.244939
21
60.094369
0
LINE
8
Layer 1
10
276.244939
20
60.094369
11
281.983089
21
62.159219
0
LINE
8
Layer 1
10
281.983089
20
62.159219
11
283.519697
21
61.002685
0
LINE
8
Layer 1
10
283.519697
20
61.002685
11
285.453803
21
59.909298
0
LINE
8
Layer 1
10
285.453803
20
59.909298
11
287.733109
21
58.898799
0
LINE
8
Layer 1
10
287.733109
20
58.898799
11
290.305319
21
57.990929
0
LINE
8
Layer 1
10
290.305319
20
57.990929
11
291.778179
21
57.554365
0
LINE
8
Layer 1
10
291.778179
20
57.554365
11
295.710130
21
56.636592
0
LINE
8
Layer 1
10
295.710130
20
56.636592
11
299.897569
21
55.999935
0
LINE
8
Layer 1
10
299.897569
20
55.999935
11
301.616269
21
55.835673
0
LINE
8
Layer 1
10
301.616269
20
55.835673
11
304.215789
21
55.692358
0
LINE
8
Layer 1
10
304.215789
20
55.692358
11
306.419549
21
55.665914
0
LINE
8
Layer 1
10
306.419549
20
55.665914
11
311.523824
21
55.912099
0
LINE
8
Layer 1
10
311.523824
20
55.912099
11
316.182654
21
56.575416
0
LINE
8
Layer 1
10
316.182654
20
56.575416
11
320.232957
21
57.627339
0
LINE
8
Layer 1
10
320.232957
20
57.627339
11
321.978947
21
58.290114
0
LINE
8
Layer 1
10
321.978947
20
58.290114
11
323.511649
21
59.039344
0
LINE
8
Layer 1
10
323.511649
20
59.039344
11
325.765122
21
60.527296
0
LINE
8
Layer 1
10
325.765122
20
60.527296
11
326.971246
21
61.527311
0
LINE
8
Layer 1
10
326.971246
20
61.527311
11
328.110990
21
62.662342
0
LINE
8
Layer 1
10
328.110990
20
62.662342
11
329.094878
21
63.905636
0
LINE
8
Layer 1
10
329.094878
20
63.905636
11
329.833431
21
65.230437
0
LINE
8
Layer 1
10
329.833431
20
65.230437
11
330.237170
21
66.609988
0
LINE
8
Layer 1
10
330.237170
20
66.609988
11
330.216619
21
68.017534
0
LINE
8
Layer 1
10
330.216619
20
68.017534
11
330.003467
21
68.774696
0
LINE
8
Layer 1
10
330.003467
20
68.774696
11
329.641702
21
69.490109
0
LINE
8
Layer 1
10
329.641702
20
69.490109
11
328.461569
21
70.815534
0
LINE
8
Layer 1
10
328.461569
20
70.815534
11
327.358618
21
71.599177
0
LINE
8
Layer 1
10
327.358618
20
71.599177
11
326.194464
21
72.191400
0
LINE
8
Layer 1
10
326.194464
20
72.191400
11
324.208429
21
72.876014
0
LINE
8
Layer 1
10
324.208429
20
72.876014
11
324.208300
21
72.875860
0
LINE
8
Layer 1
10
198.529000
20
68.265500
11
202.234415
21
64.630730
0
LINE
8
Layer 1
10
202.234415
20
64.630730
11
204.072921
21
62.946163
0
LINE
8
Layer 1
10
204.072921
20
62.946163
11
205.952760
21
61.415000
0
LINE
8
Layer 1
10
205.952760
20
61.415000
11
198.748906
21
60.199132
0
LINE
8
Layer 1
10
198.748906
20
60.199132
11
191.838279
21
59.254835
0
LINE
8
Layer 1
10
191.838279
20
59.254835
11
185.198430
21
58.558617
0
LINE
8
Layer 1
10
185.198430
20
58.558617
11
178.806910
21
58.086988
0
LINE
8
Layer 1
10
178.806910
20
58.086988
11
172.641272
21
57.816454
0
LINE
8
Layer 1
10
172.641272
20
57.816454
11
166.679066
21
57.723526
0
LINE
8
Layer 1
10
166.679066
20
57.723526
11
155.275160
21
57.976520
0
LINE
8
Layer 1
10
155.275160
20
57.976520
11
157.036082
21
58.326472
0
LINE
8
Layer 1
10
157.036082
20
58.326472
11
158.778402
21
58.855431
0
LINE
8
Layer 1
10
158.778402
20
58.855431
11
160.494679
21
59.560917
0
LINE
8
Layer 1
10
160.494679
20
59.560917
11
162.177470
21
60.440450
0
LINE
8
Layer 1
10
162.177470
20
60.440450
11
163.773529
21
59.554320
0
LINE
8
Layer 1
10
163.773529
20
59.554320
11
165.435011
21
58.900216
0
LINE
8
Layer 1
10
165.435011
20
58.900216
11
167.150030
21
58.483205
0
LINE
8
Layer 1
10
167.150030
20
58.483205
11
168.906700
21
58.308350
0
LINE
8
Layer 1
10
168.906700
20
58.308350
11
170.750222
21
58.393547
0
LINE
8
Layer 1
10
170.750222
20
58.393547
11
172.563872
21
58.752629
0
LINE
8
Layer 1
10
172.563872
20
58.752629
11
174.323572
21
59.379601
0
LINE
8
Layer 1
10
174.323572
20
59.379601
11
176.005240
21
60.268470
0
LINE
8
Layer 1
10
176.005240
20
60.268470
11
177.972387
21
61.711136
0
LINE
8
Layer 1
10
177.972387
20
61.711136
11
179.763420
21
63.458900
0
LINE
8
Layer 1
10
179.763420
20
63.458900
11
181.019090
21
62.378520
0
LINE
8
Layer 1
10
181.019090
20
62.378520
11
183.386831
21
60.887829
0
LINE
8
Layer 1
10
183.386831
20
60.887829
11
185.912495
21
59.925891
0
LINE
8
Layer 1
10
185.912495
20
59.925891
11
188.533657
21
59.509243
0
LINE
8
Layer 1
10
188.533657
20
59.509243
11
191.187890
21
59.654420
0
LINE
8
Layer 1
10
191.187890
20
59.654420
11
192.707497
21
60.047126
0
LINE
8
Layer 1
10
192.707497
20
60.047126
11
194.103352
21
60.692633
0
LINE
8
Layer 1
10
194.103352
20
60.692633
11
195.351335
21
61.562210
0
LINE
8
Layer 1
10
195.351335
20
61.562210
11
196.427325
21
62.627123
0
LINE
8
Layer 1
10
196.427325
20
62.627123
11
197.307203
21
63.858641
0
LINE
8
Layer 1
10
197.307203
20
63.858641
11
197.966850
21
65.228031
0
LINE
8
Layer 1
10
197.966850
20
65.228031
11
198.382146
21
66.706562
0
LINE
8
Layer 1
10
198.382146
20
66.706562
11
198.528970
21
68.265500
0
LINE
8
Layer 1
10
198.528970
20
68.265500
11
198.529000
21
68.265500
0
LINE
8
Layer 1
10
182.570200
20
64.389360
11
181.015635
21
65.801296
0
LINE
8
Layer 1
10
181.015635
20
65.801296
11
179.642150
21
67.489390
0
LINE
8
Layer 1
10
179.642150
20
67.489390
11
178.544614
21
65.953241
0
LINE
8
Layer 1
10
178.544614
20
65.953241
11
177.345790
21
64.594548
0
LINE
8
Layer 1
10
177.345790
20
64.594548
11
176.048574
21
63.416308
0
LINE
8
Layer 1
10
176.048574
20
63.416308
11
174.655860
21
62.421520
0
LINE
8
Layer 1
10
174.655860
20
62.421520
11
173.309295
21
61.708281
0
LINE
8
Layer 1
10
173.309295
20
61.708281
11
171.902681
21
61.204436
0
LINE
8
Layer 1
10
171.902681
20
61.204436
11
170.454107
21
60.915565
0
LINE
8
Layer 1
10
170.454107
20
60.915565
11
168.981660
21
60.847250
0
LINE
8
Layer 1
10
168.981660
20
60.847250
11
167.213724
21
61.057538
0
LINE
8
Layer 1
10
167.213724
20
61.057538
11
165.494261
21
61.577058
0
LINE
8
Layer 1
10
165.494261
20
61.577058
11
163.841978
21
62.397542
0
LINE
8
Layer 1
10
163.841978
20
62.397542
11
162.275580
21
63.510720
0
LINE
8
Layer 1
10
162.275580
20
63.510720
11
159.873919
21
62.081869
0
LINE
8
Layer 1
10
159.873919
20
62.081869
11
157.397740
21
61.069942
0
LINE
8
Layer 1
10
157.397740
20
61.069942
11
154.875878
21
60.485483
0
LINE
8
Layer 1
10
154.875878
20
60.485483
11
152.337170
21
60.339030
0
LINE
8
Layer 1
10
152.337170
20
60.339030
11
150.852612
21
60.459711
0
LINE
8
Layer 1
10
150.852612
20
60.459711
11
149.392032
21
60.733148
0
LINE
8
Layer 1
10
149.392032
20
60.733148
11
147.960391
21
61.157893
0
LINE
8
Layer 1
10
147.960391
20
61.157893
11
146.562650
21
61.732500
0
LINE
8
Layer 1
10
146.562650
20
61.732500
11
145.714881
21
62.165756
0
LINE
8
Layer 1
10
145.714881
20
62.165756
11
143.716125
21
61.327909
0
LINE
8
Layer 1
10
143.716125
20
61.327909
11
141.645954
21
60.853244
0
LINE
8
Layer 1
10
141.645954
20
60.853244
11
139.548291
21
60.732976
0
LINE
8
Layer 1
10
139.548291
20
60.732976
11
137.467062
21
60.958320
0
LINE
8
Layer 1
10
137.467062
20
60.958320
11
135.446192
21
61.520490
0
LINE
8
Layer 1
10
135.446192
20
61.520490
11
133.529605
21
62.410701
0
LINE
8
Layer 1
10
133.529605
20
62.410701
11
131.761227
21
63.620168
0
LINE
8
Layer 1
10
131.761227
20
63.620168
11
130.184981
21
65.140106
0
LINE
8
Layer 1
10
130.184981
20
65.140106
11
129.323490
21
63.791088
0
LINE
8
Layer 1
10
129.323490
20
63.791088
11
128.311810
21
62.547486
0
LINE
8
Layer 1
10
128.311810
20
62.547486
11
127.203738
21
61.475717
0
LINE
8
Layer 1
10
127.203738
20
61.475717
11
126.053071
21
60.642196
0
LINE
8
Layer 1
10
126.053071
20
60.642196
11
130.327055
21
59.431729
0
LINE
8
Layer 1
10
130.327055
20
59.431729
11
134.603521
21
58.376706
0
LINE
8
Layer 1
10
134.603521
20
58.376706
11
139.678672
21
57.321956
0
LINE
8
Layer 1
10
139.678672
20
57.321956
11
144.729738
21
56.473085
0
LINE
8
Layer 1
10
144.729738
20
56.473085
11
149.586296
21
55.855310
0
LINE
8
Layer 1
10
149.586296
20
55.855310
11
154.077921
21
55.493846
0
LINE
8
Layer 1
10
154.077921
20
55.493846
11
162.925527
21
55.160831
0
LINE
8
Layer 1
10
162.925527
20
55.160831
11
170.810466
21
55.125187
0
LINE
8
Layer 1
10
170.810466
20
55.125187
11
177.880599
21
55.346220
0
LINE
8
Layer 1
10
177.880599
20
55.346220
11
184.283784
21
55.783235
0
LINE
8
Layer 1
10
184.283784
20
55.783235
11
190.167879
21
56.395535
0
LINE
8
Layer 1
10
190.167879
20
56.395535
11
195.680744
21
57.142428
0
LINE
8
Layer 1
10
195.680744
20
57.142428
11
206.184221
21
58.877206
0
LINE
8
Layer 1
10
206.184221
20
58.877206
11
210.119891
21
59.556303
0
LINE
8
Layer 1
10
210.119891
20
59.556303
11
214.923181
21
60.387537
0
LINE
8
Layer 1
10
214.923181
20
60.387537
11
212.007251
21
61.042380
0
LINE
8
Layer 1
10
212.007251
20
61.042380
11
210.423060
21
61.612198
0
LINE
8
Layer 1
10
210.423060
20
61.612198
11
208.699961
21
62.564840
0
LINE
8
Layer 1
10
208.699961
20
62.564840
11
206.713381
21
64.033270
0
LINE
8
Layer 1
10
206.713381
20
64.033270
11
203.834936
21
66.519663
0
LINE
8
Layer 1
10
203.834936
20
66.519663
11
200.599311
21
69.769210
0
LINE
8
Layer 1
10
200.599311
20
69.769210
11
198.525366
21
72.126206
0
LINE
8
Layer 1
10
198.525366
20
72.126206
11
196.453071
21
74.787470
0
LINE
8
Layer 1
10
196.453071
20
74.787470
11
196.111869
21
72.009620
0
LINE
8
Layer 1
10
196.111869
20
72.009620
11
195.988948
21
68.373530
0
LINE
8
Layer 1
10
195.988948
20
68.373530
11
195.900321
21
67.250917
0
LINE
8
Layer 1
10
195.900321
20
67.250917
11
195.615621
21
66.184967
0
LINE
8
Layer 1
10
195.615621
20
66.184967
11
195.152509
21
65.196790
0
LINE
8
Layer 1
10
195.152509
20
65.196790
11
194.528644
21
64.307495
0
LINE
8
Layer 1
10
194.528644
20
64.307495
11
193.761687
21
63.538193
0
LINE
8
Layer 1
10
193.761687
20
63.538193
11
192.869299
21
62.909993
0
LINE
8
Layer 1
10
192.869299
20
62.909993
11
191.869139
21
62.444005
0
LINE
8
Layer 1
10
191.869139
20
62.444005
11
190.778868
21
62.161340
0
LINE
8
Layer 1
10
190.778868
20
62.161340
11
188.647630
21
62.047635
0
LINE
8
Layer 1
10
188.647630
20
62.047635
11
186.535616
21
62.390232
0
LINE
8
Layer 1
10
186.535616
20
62.390232
11
184.493054
21
63.175386
0
LINE
8
Layer 1
10
184.493054
20
63.175386
11
182.570178
21
64.389350
0
LINE
8
Layer 1
10
182.570178
20
64.389350
11
182.570200
21
64.389360
0
LINE
8
Layer 1
10
234.027000
20
68.907100
11
232.787250
21
67.287113
0
LINE
8
Layer 1
10
232.787250
20
67.287113
11
231.368491
21
65.716116
0
LINE
8
Layer 1
10
231.368491
20
65.716116
11
229.818267
21
64.241032
0
LINE
8
Layer 1
10
229.818267
20
64.241032
11
228.184120
21
62.908780
0
LINE
8
Layer 1
10
228.184120
20
62.908780
11
237.648480
21
64.688100
0
LINE
8
Layer 1
10
237.648480
20
64.688100
11
235.832914
21
66.501185
0
LINE
8
Layer 1
10
235.832914
20
66.501185
11
234.289380
21
68.487070
0
LINE
8
Layer 1
10
234.289380
20
68.487070
11
234.027001
21
68.907098
0
LINE
8
Layer 1
10
234.027001
20
68.907098
11
234.027000
21
68.907100
0
LINE
8
Layer 1
10
253.871000
20
76.834700
11
252.334076
21
77.008281
0
LINE
8
Layer 1
10
252.334076
20
77.008281
11
250.899679
21
77.513934
0
LINE
8
Layer 1
10
250.899679
20
77.513934
11
249.614522
21
78.329025
0
LINE
8
Layer 1
10
249.614522
20
78.329025
11
248.525320
21
79.430920
0
LINE
8
Layer 1
10
248.525320
20
79.430920
11
248.498876
21
79.465094
0
LINE
8
Layer 1
10
248.498876
20
79.465094
11
247.847064
21
80.480709
0
LINE
8
Layer 1
10
247.847064
20
80.480709
11
247.388726
21
81.580654
0
LINE
8
Layer 1
10
247.388726
20
81.580654
11
247.185586
21
80.618163
0
LINE
8
Layer 1
10
247.185586
20
80.618163
11
247.136958
21
79.605651
0
LINE
8
Layer 1
10
247.136958
20
79.605651
11
247.267958
21
78.552625
0
LINE
8
Layer 1
10
247.267958
20
78.552625
11
247.603700
21
77.468594
0
LINE
8
Layer 1
10
247.603700
20
77.468594
11
247.610304
21
77.452056
0
LINE
8
Layer 1
10
247.610304
20
77.452056
11
248.034481
21
76.572886
0
LINE
8
Layer 1
10
248.034481
20
76.572886
11
248.606762
21
75.726065
0
LINE
8
Layer 1
10
248.606762
20
75.726065
11
249.323532
21
75.012982
0
LINE
8
Layer 1
10
249.323532
20
75.012982
11
250.181174
21
74.535026
0
LINE
8
Layer 1
10
250.181174
20
74.535026
11
250.810662
21
74.420373
0
LINE
8
Layer 1
10
250.810662
20
74.420373
11
251.526966
21
74.574851
0
LINE
8
Layer 1
10
251.526966
20
74.574851
11
252.238312
21
74.958359
0
LINE
8
Layer 1
10
252.238312
20
74.958359
11
254.544592
21
76.571219
0
LINE
8
Layer 1
10
254.544592
20
76.571219
11
254.519220
21
76.861157
0
LINE
8
Layer 1
10
254.519220
20
76.861157
11
254.283302
21
76.846820
0
LINE
8
Layer 1
10
254.283302
20
76.846820
11
253.870993
21
76.834685
0
LINE
8
Layer 1
10
210.625000
20
119.831000
11
210.440605
21
120.687105
0
LINE
8
Layer 1
10
210.440605
20
120.687105
11
210.040301
21
121.420425
0
LINE
8
Layer 1
10
210.040301
20
121.420425
11
209.459730
21
122.125150
0
LINE
8
Layer 1
10
209.459730
20
122.125150
11
209.035294
21
120.754830
0
LINE
8
Layer 1
10
209.035294
20
120.754830
11
205.657454
21
110.891390
0
LINE
8
Layer 1
10
205.657454
20
110.891390
11
206.802328
21
112.093176
0
LINE
8
Layer 1
10
206.802328
20
112.093176
11
207.864759
21
113.377284
0
LINE
8
Layer 1
10
207.864759
20
113.377284
11
208.926154
21
114.922980
0
LINE
8
Layer 1
10
208.926154
20
114.922980
11
209.665211
21
116.342995
0
LINE
8
Layer 1
10
209.665211
20
116.342995
11
210.197667
21
117.719706
0
LINE
8
Layer 1
10
210.197667
20
117.719706
11
210.519075
21
118.925059
0
LINE
8
Layer 1
10
210.519075
20
118.925059
11
210.624994
21
119.831000
0
LINE
8
Layer 1
10
185.870000
20
118.801000
11
186.057190
21
118.296742
0
LINE
8
Layer 1
10
186.057190
20
118.296742
11
186.391863
21
117.872478
0
LINE
8
Layer 1
10
186.391863
20
117.872478
11
187.342850
21
117.345790
0
LINE
8
Layer 1
10
187.342850
20
117.345790
11
188.423233
21
117.296594
0
LINE
8
Layer 1
10
188.423233
20
117.296594
11
189.473850
21
117.603758
0
LINE
8
Layer 1
10
189.473850
20
117.603758
11
190.301435
21
118.094058
0
LINE
8
Layer 1
10
190.301435
20
118.094058
11
190.991808
21
118.754038
0
LINE
8
Layer 1
10
190.991808
20
118.754038
11
191.543972
21
119.548015
0
LINE
8
Layer 1
10
191.543972
20
119.548015
11
191.956934
21
120.440307
0
LINE
8
Layer 1
10
191.956934
20
120.440307
11
192.361268
21
122.377103
0
LINE
8
Layer 1
10
192.361268
20
122.377103
11
192.196850
21
124.278968
0
LINE
8
Layer 1
10
192.196850
20
124.278968
11
191.839346
21
125.260576
0
LINE
8
Layer 1
10
191.839346
20
125.260576
11
191.345584
21
125.980276
0
LINE
8
Layer 1
10
191.345584
20
125.980276
11
190.739089
21
126.453970
0
LINE
8
Layer 1
10
190.739089
20
126.453970
11
190.043389
21
126.697562
0
LINE
8
Layer 1
10
190.043389
20
126.697562
11
189.282008
21
126.726955
0
LINE
8
Layer 1
10
189.282008
20
126.726955
11
188.478472
21
126.558053
0
LINE
8
Layer 1
10
188.478472
20
126.558053
11
187.656308
21
126.206760
0
LINE
8
Layer 1
10
187.656308
20
126.206760
11
186.839040
21
125.688978
0
LINE
8
Layer 1
10
186.839040
20
125.688978
11
185.162122
21
124.153653
0
LINE
8
Layer 1
10
185.162122
20
124.153653
11
183.828441
21
122.320364
0
LINE
8
Layer 1
10
183.828441
20
122.320364
11
182.854635
21
120.267762
0
LINE
8
Layer 1
10
182.854635
20
120.267762
11
182.257340
21
118.074498
0
LINE
8
Layer 1
10
182.257340
20
118.074498
11
182.063933
21
116.504001
0
LINE
8
Layer 1
10
182.063933
20
116.504001
11
182.082605
21
114.899914
0
LINE
8
Layer 1
10
182.082605
20
114.899914
11
182.385704
21
113.339442
0
LINE
8
Layer 1
10
182.385704
20
113.339442
11
183.045578
21
111.899788
0
LINE
8
Layer 1
10
183.045578
20
111.899788
11
183.881632
21
110.920555
0
LINE
8
Layer 1
10
183.881632
20
110.920555
11
184.968218
21
110.240638
0
LINE
8
Layer 1
10
184.968218
20
110.240638
11
185.698990
21
110.199570
0
LINE
8
Layer 1
10
185.698990
20
110.199570
11
186.329718
21
110.600028
0
LINE
8
Layer 1
10
186.329718
20
110.600028
11
186.746710
21
111.224552
0
LINE
8
Layer 1
10
186.746710
20
111.224552
11
186.980149
21
111.812698
0
LINE
8
Layer 1
10
186.980149
20
111.812698
11
186.338845
21
112.072664
0
LINE
8
Layer 1
10
186.338845
20
112.072664
11
185.814330
21
112.535614
0
LINE
8
Layer 1
10
185.814330
20
112.535614
11
185.108229
21
113.795968
0
LINE
8
Layer 1
10
185.108229
20
113.795968
11
184.795966
21
115.191231
0
LINE
8
Layer 1
10
184.795966
20
115.191231
11
184.839238
21
116.617088
0
LINE
8
Layer 1
10
184.839238
20
116.617088
11
185.193807
21
117.786766
0
LINE
8
Layer 1
10
185.193807
20
117.786766
11
185.870008
21
118.800998
0
LINE
8
Layer 1
10
181.250000
20
106.066000
11
179.315461
21
100.335341
0
LINE
8
Layer 1
10
179.315461
20
100.335341
11
177.519216
21
94.161381
0
LINE
8
Layer 1
10
177.519216
20
94.161381
11
175.680540
21
87.205600
0
LINE
8
Layer 1
10
175.680540
20
87.205600
11
179.993240
21
87.198996
0
LINE
8
Layer 1
10
179.993240
20
87.198996
11
184.183570
21
104.625696
0
LINE
8
Layer 1
10
184.183570
20
104.625696
11
183.020291
21
105.127087
0
LINE
8
Layer 1
10
183.020291
20
105.127087
11
181.250000
21
106.066016
0
LINE
8
Layer 1
10
181.250000
20
106.066016
11
181.250000
21
106.066000
0
LINE
8
Layer 1
10
154.361000
20
78.444200
11
154.704921
21
78.586166
0
LINE
8
Layer 1
10
154.704921
20
78.586166
11
155.041594
21
78.965185
0
LINE
8
Layer 1
10
155.041594
20
78.965185
11
155.655113
21
80.153105
0
LINE
8
Layer 1
10
155.655113
20
80.153105
11
156.376240
21
82.279550
0
LINE
8
Layer 1
10
156.376240
20
82.279550
11
156.841465
21
84.565986
0
LINE
8
Layer 1
10
156.841465
20
84.565986
11
156.929660
21
86.892120
0
LINE
8
Layer 1
10
156.929660
20
86.892120
11
156.727916
21
88.380400
0
LINE
8
Layer 1
10
156.727916
20
88.380400
11
156.490065
21
88.964825
0
LINE
8
Layer 1
10
156.490065
20
88.964825
11
156.111656
21
89.209427
0
LINE
8
Layer 1
10
156.111656
20
89.209427
11
155.914321
21
89.162022
0
LINE
8
Layer 1
10
155.914321
20
89.162022
11
155.468941
21
88.724358
0
LINE
8
Layer 1
10
155.468941
20
88.724358
11
154.704922
21
87.330524
0
LINE
8
Layer 1
10
154.704922
20
87.330524
11
154.181303
21
85.824552
0
LINE
8
Layer 1
10
154.181303
20
85.824552
11
153.621271
21
82.654378
0
LINE
8
Layer 1
10
153.621271
20
82.654378
11
153.480851
21
80.482453
0
LINE
8
Layer 1
10
153.480851
20
80.482453
11
153.631349
21
79.316755
0
LINE
8
Layer 1
10
153.631349
20
79.316755
11
153.822863
21
78.855095
0
LINE
8
Layer 1
10
153.822863
20
78.855095
11
154.115159
21
78.527988
0
LINE
8
Layer 1
10
154.115159
20
78.527988
11
154.361003
21
78.444202
0
LINE
8
Layer 1
10
154.361003
20
78.444202
11
154.361000
21
78.444200
0
LINE
8
Layer 1
10
99.784200
20
89.491700
11
99.586865
21
89.444295
0
LINE
8
Layer 1
10
99.586865
20
89.444295
11
99.141482
21
89.006631
0
LINE
8
Layer 1
10
99.141482
20
89.006631
11
98.377463
21
87.612797
0
LINE
8
Layer 1
10
98.377463
20
87.612797
11
97.853844
21
86.106825
0
LINE
8
Layer 1
10
97.853844
20
86.106825
11
97.293812
21
82.936651
0
LINE
8
Layer 1
10
97.293812
20
82.936651
11
97.152838
21
80.764864
0
LINE
8
Layer 1
10
97.152838
20
80.764864
11
97.303268
21
79.599492
0
LINE
8
Layer 1
10
97.303268
20
79.599492
11
97.494619
21
79.138105
0
LINE
8
Layer 1
10
97.494619
20
79.138105
11
97.786597
21
78.811361
0
LINE
8
Layer 1
10
97.786597
20
78.811361
11
98.033541
21
78.726472
0
LINE
8
Layer 1
10
98.033541
20
78.726472
11
98.377463
21
78.868438
0
LINE
8
Layer 1
10
98.377463
20
78.868438
11
98.714137
21
79.247456
0
LINE
8
Layer 1
10
98.714137
20
79.247456
11
99.327655
21
80.435377
0
LINE
8
Layer 1
10
99.327655
20
80.435377
11
100.048781
21
82.561822
0
LINE
8
Layer 1
10
100.048781
20
82.561822
11
100.514005
21
84.848258
0
LINE
8
Layer 1
10
100.514005
20
84.848258
11
100.602199
21
87.174392
0
LINE
8
Layer 1
10
100.602199
20
87.174392
11
100.400455
21
88.662672
0
LINE
8
Layer 1
10
100.400455
20
88.662672
11
100.162605
21
89.247096
0
LINE
8
Layer 1
10
100.162605
20
89.247096
11
99.784198
21
89.491699
0
LINE
8
Layer 1
10
99.784198
20
89.491699
11
99.784200
21
89.491700
0
LINE
8
Layer 1
10
94.610500
20
105.819000
11
94.585156
21
105.865301
0
LINE
8
Layer 1
10
94.585156
20
105.865301
11
94.373489
21
105.758364
0
LINE
8
Layer 1
10
94.373489
20
105.758364
11
92.721086
21
105.166223
0
LINE
8
Layer 1
10
92.721086
20
105.166223
11
91.310939
21
105.013123
0
LINE
8
Layer 1
10
91.310939
20
105.013123
11
90.006628
21
105.141005
0
LINE
8
Layer 1
10
90.006628
20
105.141005
11
88.741179
21
105.523547
0
LINE
8
Layer 1
10
88.741179
20
105.523547
11
87.363834
21
106.227312
0
LINE
8
Layer 1
10
87.363834
20
106.227312
11
86.116299
21
107.145227
0
LINE
8
Layer 1
10
86.116299
20
107.145227
11
85.434998
21
104.773897
0
LINE
8
Layer 1
10
85.434998
20
104.773897
11
83.219108
21
97.293917
0
LINE
8
Layer 1
10
83.219108
20
97.293917
11
82.368860
21
94.193195
0
LINE
8
Layer 1
10
82.368860
20
94.193195
11
81.632708
21
90.913057
0
LINE
8
Layer 1
10
81.632708
20
90.913057
11
80.500508
21
86.034807
0
LINE
8
Layer 1
10
80.500508
20
86.034807
11
80.278919
21
85.139633
0
LINE
8
Layer 1
10
80.278919
20
85.139633
11
82.110059
21
85.427367
0
LINE
8
Layer 1
10
82.110059
20
85.427367
11
82.409920
21
85.418562
0
LINE
8
Layer 1
10
82.409920
20
85.418562
11
83.053049
21
89.282029
0
LINE
8
Layer 1
10
83.053049
20
89.282029
11
84.141830
21
93.085962
0
LINE
8
Layer 1
10
84.141830
20
93.085962
11
84.864062
21
94.957130
0
LINE
8
Layer 1
10
84.864062
20
94.957130
11
85.864931
21
97.075931
0
LINE
8
Layer 1
10
85.864931
20
97.075931
11
87.174205
21
99.302632
0
LINE
8
Layer 1
10
87.174205
20
99.302632
11
88.821651
21
101.497502
0
LINE
8
Layer 1
10
88.821651
20
101.497502
11
90.207299
21
102.951621
0
LINE
8
Layer 1
10
90.207299
20
102.951621
11
91.598943
21
104.117284
0
LINE
8
Layer 1
10
91.598943
20
104.117284
11
92.978599
21
105.023947
0
LINE
8
Layer 1
10
92.978599
20
105.023947
11
94.328281
21
105.701062
0
LINE
8
Layer 1
10
94.328281
20
105.701062
11
94.610497
21
105.819014
0
LINE
8
Layer 1
10
94.610497
20
105.819014
11
94.610500
21
105.819000
0
LINE
8
Layer 1
10
66.415900
20
106.347000
11
68.123560
21
112.447850
0
LINE
8
Layer 1
10
68.123560
20
112.447850
11
65.883701
21
109.726091
0
LINE
8
Layer 1
10
65.883701
20
109.726091
11
63.404060
21
107.263120
0
LINE
8
Layer 1
10
63.404060
20
107.263120
11
64.961242
21
106.911306
0
LINE
8
Layer 1
10
64.961242
20
106.911306
11
66.415900
21
106.346999
0
LINE
8
Layer 1
10
56.873200
20
126.592000
11
56.711935
21
127.175358
0
LINE
8
Layer 1
10
56.711935
20
127.175358
11
56.406597
21
127.665492
0
LINE
8
Layer 1
10
56.406597
20
127.665492
11
55.978029
21
128.128790
0
LINE
8
Layer 1
10
55.978029
20
128.128790
11
55.738801
21
127.166368
0
LINE
8
Layer 1
10
55.738801
20
127.166368
11
53.797421
21
120.224368
0
LINE
8
Layer 1
10
53.797421
20
120.224368
11
54.540322
21
121.099420
0
LINE
8
Layer 1
10
54.540322
20
121.099420
11
55.894241
21
123.136988
0
LINE
8
Layer 1
10
55.894241
20
123.136988
11
56.661533
21
125.117507
0
LINE
8
Layer 1
10
56.661533
20
125.117507
11
56.873199
21
126.592008
 0 
ENDSEC
 0 
EOF