<?xml version="1.0" encoding="UTF-8" standalone="no"?>
<svg
   xmlns:dc="http://purl.org/dc/elements/1.1/"
   xmlns:cc="http://creativecommons.org/ns#"
   xmlns:rdf="http://www.w3.org/1999/02/22-rdf-syntax-ns#"
   xmlns:svg="http://www.w3.org/2000/svg"
   xmlns="http://www.w3.org/2000/svg"
   xmlns:sodipodi="http://sodipodi.sourceforge.net/DTD/sodipodi-0.dtd"
   xmlns:inkscape="http://www.inkscape.org/namespaces/inkscape"
   width="1250.18pt"
   height="586.08pt"
   viewBox="0 0 1250.18 586.08"
   version="1.2"
   id="svg1003"
   sodipodi:docname="PNR_polygons.svg"
   inkscape:version="1.0.2-2 (e86c870879, 2021-01-15)">
  <metadata
     id="metadata1007">
    <rdf:RDF>
      <cc:Work
         rdf:about="">
        <dc:format>image/svg+xml</dc:format>
        <dc:type
           rdf:resource="http://purl.org/dc/dcmitype/StillImage" />
        <dc:title></dc:title>
      </cc:Work>
    </rdf:RDF>
  </metadata>
  <sodipodi:namedview
     pagecolor="#ffffff"
     bordercolor="#666666"
     borderopacity="1"
     objecttolerance="10"
     gridtolerance="10"
     guidetolerance="10"
     inkscape:pageopacity="0"
     inkscape:pageshadow="2"
     inkscape:window-width="1920"
     inkscape:window-height="1057"
     id="namedview1005"
     showgrid="false"
     inkscape:zoom="0.45173494"
     inkscape:cx="646.32991"
     inkscape:cy="395.01146"
     inkscape:window-x="-8"
     inkscape:window-y="-8"
     inkscape:window-maximized="1"
     inkscape:current-layer="g908"
     inkscape:document-rotation="0" />
  <defs
     id="defs836" />
  <g
     inkscape:groupmode="layer"
     id="layer1"
     inkscape:label="Layer 1"
     style="display:inline">
    <path
       style="clip-rule:nonzero;display:inline;fill:#070705;fill-opacity:1;fill-rule:nonzero;stroke:none"
       d="M 1250.1797,586.07812 H 0 V 0 h 1250.1797 v 586.07812"
       id="path838" />
  </g>
  <g
     inkscape:groupmode="layer"
     id="layer2"
     inkscape:label="Layer 2"
     style="display:inline"
     sodipodi:insensitive="true">
    <path
       style="display:inline;fill:#ffffff;fill-opacity:1;fill-rule:nonzero;stroke:none"
       d="m 1200.5508,339.42969 c -1.961,-10.66016 -7.6797,-20.27735 -16.4922,-27.76953 -9.1602,-7.88672 -20.0078,-11.85938 -27.4883,-13.80079 -31.039,-8.07031 -64.8984,-3.63281 -90.9414,1.13282 l -32.8984,6.29687 -1.6992,0.3125 c -0.5899,0.0977 -1.1797,0.21875 -1.793,0.35547 -0.019,0.004 -0.09,0.0195 -0.1094,0.0234 l -4.5391,1.08594 c -0.2109,-0.33204 -0.4296,-0.66407 -0.6289,-0.99219 l -0.1523,-0.23438 c -1.1172,-1.74609 -1.8789,-3.2539 -2.3594,-4.30859 -0.1484,-0.81641 -0.3594,-2.13672 -0.6289,-3.96875 -0.5391,-3.48828 -1.1719,-7.57422 -2.2109,-11.80078 3.7109,-7.60547 8.2304,-15.25781 12.6094,-22.67578 2.9804,-5.04688 5.4609,-9.26563 7.9804,-13.77735 5.75,-10.27734 6,-22.64843 0.6719,-33.03515 -5.3516,-10.5625 -15.5625,-17.65625 -27.2305,-18.96875 l -1.082,-0.12891 c -2.0078,-0.24609 -4.0195,-0.31641 -6,-0.21875 1.582,-9.93359 0.6328,-20.625 -2.7383,-29.06641 -6.58593,-16.45703 -23.91014,-30.15234 -33.08202,-35.63671 -11.83594,-7.11328 -26.8125,-6.60547 -38.11328,1.27343 l -0.23047,0.16016 c -11.23047,7.95703 -16.79687,21.82422 -14.17969,35.32422 0.8711,4.7539 -5.74609,20.53906 -7.92968,25.74219 l -0.51172,1.22265 c -0.71875,1.72266 -1.41407,3.38281 -2.07032,5.03125 -4.48828,-1.03125 -9.13671,-1.625 -13.83203,-1.76172 -19.98047,-0.60156 -35.82422,6.92188 -41.70703,10.17969 -1.67969,0.92969 -3.33203,1.91797 -4.94922,2.96094 -8.24609,-10.40235 -20.13672,-16.82813 -33.58203,-18.09766 C 823.49609,162.51172 822.76562,122.76953 798.23437,91.375 777.45312,64.777344 743.67578,52.902344 697.84375,56.070313 c -40.32813,2.792968 -82.96094,20.730468 -120.04688,50.499997 -0.26953,0.21875 -0.55468,0.4336 -0.84765,0.65235 l -0.14063,0.10937 c -2.00781,1.52344 -5.03906,3.82031 -8.03125,7.03906 -7.71875,8.30079 -10.29297,20.14063 -6.71484,30.89844 1.26562,3.80078 2.53516,7.60547 3.82812,11.39844 1.45313,4.26562 3.82422,8.125 6.88672,11.33594 -3.19531,10.02734 -6.41406,20.61328 -9.72265,31.98046 -3.64844,-0.74609 -7.34766,-1.17578 -11.07813,-1.28515 -16.78125,-0.49219 -32.5664,6 -45.8125,18.80469 -6.55469,-3.23047 -12.94922,-5.16407 -17.38672,-6.50782 l -1.0664,-0.32031 c -2.53907,-0.77344 -10.25782,-3.12109 -19.61719,-0.79297 -14.26155,7.13371 -27.62225,-7.2698 -41.76953,-5.8164 -2.63281,0.32031 -5.8711,1.04687 -9.2461,2.58984 -0.14062,-0.0625 -0.27734,-0.12109 -0.41796,-0.18359 -2.71485,-1.17188 -5.34375,-2.17969 -7.55079,-3.00782 -1.08984,-0.41015 -2.17968,-0.80859 -3.27343,-1.21093 -1.9961,-0.73438 -3.88282,-1.42969 -5.58203,-2.11329 -0.55079,-0.21875 -1.54688,-0.69531 -2.57032,-1.1875 l -1.33593,-0.63671 c -8.40625,-3.97266 -18.05079,-3.97657 -26.46094,-0.0156 -1.59375,0.75391 -3.11719,1.63672 -4.55469,2.64453 -2.53125,-0.71094 -5.08984,-1.25 -7.67187,-1.61328 0.66406,-2.24219 1.13281,-4.65234 1.30078,-7.19922 16.9375,-13.17969 21.92187,-36.37109 17.51562,-53.82812 -3.61719,-14.34766 -13.05859,-25.21485 -25.90625,-29.82031 -10.1289,-3.625 -21.40625,-2.9375 -31.89453,1.78515 -5.28516,-2.28125 -11.28516,-3.38281 -18.76562,-3.5 -7.6875,-0.0977 -15.66407,1.2461 -23.75391,3.98047 -1.22656,0.41406 -2.41797,0.85547 -3.57813,1.32422 -1.67187,-10.55078 -5.26953,-20.554689 -10.73828,-29.675782 -1.02734,-1.71875 -2.1289,-3.414063 -3.26562,-5.035157 C 235.85937,44.921875 192.78906,39.515625 160.17969,48.558594 144.5,52.90625 124.03906,59.742188 104.84766,74.152344 c -4.47657,3.359375 -9.144535,7.324219 -14.671879,12.464844 -17.902343,16.585942 -37.15625,38.042972 -44.230468,71.441402 -3.210938,15.14453 -0.117188,30.42578 8.941406,44.1875 6.738281,10.23047 16.839844,19.32813 27.039062,24.33594 3.253907,1.59766 6.714844,2.90625 10.246094,3.89063 -2.820312,11.70312 -5.421875,23.26171 -7.765625,34.49218 -0.546875,2.62891 -1.113281,5.25782 -1.683594,7.89063 l -0.03125,0.14844 c -1.804687,8.33984 -3.667968,16.96093 -5.039062,26.00781 l -0.179688,1.17969 c -2.851562,18.71484 -7.621093,50.03515 10.371094,71.79296 6.3125,7.625 17.82813,16.86719 36.86719,17.58985 0.41797,0.0195 1.02344,0.043 1.76953,0.043 1.95312,0 3.89844,-0.16407 5.78515,-0.48828 9.83985,-1.69922 17.86329,-7.8125 22.20313,-16.10547 4.1875,2.67187 8.73437,4.83984 13.58594,6.46093 4.54687,1.54297 9.52343,2.40235 14.80078,2.55469 7.99609,0.23828 16.58203,-1.21875 23.49609,-3.95703 6.63672,-2.58984 13.83203,-7.01953 20.69141,-12.62109 0.0195,0.0234 0.043,0.0508 0.0625,0.0781 9.23047,11.79688 22.64844,18.38281 37.80078,18.54688 l 0.44922,0.004 c 8.70703,0 17.3164,-2.60156 24.92969,-7.54297 5.16015,-3.37109 9.28906,-7.28125 12.63281,-11.21875 3.94922,3.8086 8.35547,7.01172 13.19922,9.58204 6.44922,3.42968 13.26562,5.51562 20.30078,6.22265 0.87109,4.89063 2.71094,10.36328 6.05078,16.28125 4.30859,7.63281 11.19531,16.28125 21.09375,26.47266 l 0.51562,0.52734 c 18.42579,18.9961 40.71094,34.0625 64.47266,43.57813 15.14453,6.03906 31.63281,10.8789 49,14.3789 27.08594,5.46094 57.16016,8.11328 91.94531,8.11328 8.72657,0 17.98438,-0.16796 27.51563,-0.49609 22.14453,-0.76953 38.3789,-1.75391 51.08203,-3.09766 20.74219,-2.19531 39.71094,-4.34765 61.82422,-8.47265 11.79297,-2.19922 24.15234,-4.76563 38.89062,-8.07422 36.97266,-8.30469 73.33203,-17.64453 108.07422,-27.75781 l 2.10156,-0.61328 c 8.7461,-2.54688 17.78516,-5.17969 26.75,-7.73438 26.48438,-7.55469 95.25,-28.92187 103.58594,-31.92187 l 5.75781,-2.07032 c 21.33208,11.38282 51.38278,18.58203 81.94138,19.48828 33.8321,1.00391 64.5899,-4.73828 84.3399,-15.75 21.3906,-11.88671 44.4922,-35.92187 39.1914,-64.55468"
       id="path924"
       sodipodi:nodetypes="ccccccccccccccccccccccccccccccccccccccccccccccccccccccccccccccccccccccccscccccsccsccccccccccccccccccscccccccccccc" />
  </g>
  <g
     inkscape:groupmode="layer"
     id="g908"
     inkscape:label="Layer 3"
     style="display:inline">
    <path
       style="display:inline;fill:#000000;fill-opacity:1;fill-rule:nonzero;stroke:none"
       d="m 1156.9883,396.11719 c -17.2383,9.60937 -43.8477,14.88672 -73.6992,14.72656 -1.9883,-0.0117 -3.9883,-0.0469 -6.0078,-0.10938 -8.5704,-0.25 -17.1797,-1.04687 -25.5704,-2.32031 -1.8711,-0.28125 -3.7226,-0.58984 -5.5625,-0.91797 -4.5976,-0.82422 -9.1171,-1.78906 -13.5078,-2.88672 -14.039,-3.51562 -26.7695,-8.3789 -36.75388,-14.22265 l -9.61719,3.46484 c -8.25781,2.96875 -76.62891,24.20703 -103.00391,31.73047 -8.98828,2.5625 -18.04296,5.19922 -26.79687,7.75 l -2.10156,0.61328 c -34.5625,10.0625 -70.73828,19.35156 -107.53125,27.61719 -14.62891,3.28125 -26.88282,5.82812 -38.56641,8.00781 -21.79297,4.06641 -40.57422,6.19531 -61.12109,8.3711 -12.48828,1.32031 -28.51953,2.29296 -50.44922,3.05078 -9.42578,0.32812 -18.57813,0.49218 -27.20313,0.49218 -34.17968,0 -63.67187,-2.59375 -90.16406,-7.93359 -16.83984,-3.39453 -32.80469,-8.07812 -47.44922,-13.91797 -22.58203,-9.04297 -43.79297,-23.39062 -61.34375,-41.48437 l -0.54687,-0.5586 c -9.32813,-9.60547 -15.76172,-17.64453 -19.6875,-24.60156 -4.05078,-7.17969 -5.89453,-14.10937 -5.51172,-20.67969 -1.48828,0.0977 -2.98047,0.11719 -4.46094,0.0703 -6.94141,-0.23438 -13.66797,-2.05469 -19.99219,-5.41407 -7.14062,-3.79687 -13.1875,-9.23828 -18.03906,-16.22656 -3.625,6 -8.78906,12.94922 -16.9375,18.27344 -6.12891,3.97656 -13.04297,6.07812 -20.00781,6.07812 l -0.3711,-0.004 c -12.52343,-0.13672 -23.17187,-5.35547 -30.79296,-15.09375 -2.19532,-2.80469 -3.92188,-5.71875 -5.27344,-8.36719 -8.20313,8.25781 -17.56641,14.84375 -25.83985,18.07031 -5.85937,2.32422 -13.14062,3.54297 -19.96484,3.35156 -4.375,-0.1289 -8.46875,-0.83203 -12.16797,-2.08593 -8.69531,-2.90625 -16.04687,-7.66407 -21.96484,-14.20703 0,0.51171 0.004,1.03125 0.0117,1.54687 0.14062,10.875 -7.53907,20.10938 -18.25391,21.96094 -1.38672,0.23828 -2.8164,0.35547 -4.25781,0.35547 -0.61328,0 -1.09766,-0.0195 -1.42578,-0.0352 C 109.35545,379.99593 99.921855,372.46078 94.78123,366.24593 79.355449,347.5975 83.746074,318.77328 86.371074,301.55062 l 0.179687,-1.19141 c 1.332032,-8.76562 3.164063,-17.25 4.9375,-25.45312 l 0.03125,-0.14844 c 0.574219,-2.65625 1.144532,-5.30469 1.699219,-7.95703 2.929688,-14.0625 6.277344,-28.64844 9.94531,-43.38281 -5.781247,-0.5625 -11.960935,-2.3086 -17.277341,-4.91406 -15.25,-7.49219 -37.191406,-30.01954 -31.136719,-58.57813 6.535156,-30.85547 23.828125,-50.29297 41.542969,-66.70703 5.300781,-4.929687 9.738281,-8.703125 13.960941,-11.871094 17.98437,-13.503906 37.41015,-19.980468 52.32812,-24.117187 29.55859,-8.191406 68.42578,-3.546875 88.62109,25.292969 1.01563,1.453125 2,2.96875 2.91797,4.5 7.125,11.890625 10.69141,25.507812 10.53125,39.925782 3.96094,-3.23438 8.69922,-5.75 14.38672,-7.67188 7.125,-2.41015 14.09766,-3.60546 20.76172,-3.51171 8.14844,0.13281 13.81641,1.51171 18.85547,4.61328 9.40234,-5.41797 19.79687,-6.67578 28.87891,-3.41797 5.86328,2.09765 16.28515,7.94922 20.21484,23.54297 2.16797,8.58593 1.53125,18.45703 -1.74609,27.07421 -3.2461,8.53516 -8.92188,15.5 -16.15625,19.89844 1.04296,8.67188 -3.41797,15.9961 -6.45313,19.8711 l -0.15625,0.20312 c -0.23047,0.28906 -0.45312,0.5625 -0.66016,0.80859 3.13672,-0.51953 6.05469,-0.64843 8.64844,-0.5664 5.46094,0.18359 10.84766,1.28125 16.05078,3.26953 1.84766,-1.91016 4.03125,-3.48438 6.44532,-4.62109 5.96484,-2.8086 12.8125,-2.8086 18.78125,0.0117 l 1.30468,0.625 c 1.19141,0.57032 2.26953,1.08594 3.08594,1.41407 1.82813,0.73437 3.77344,1.44922 5.83203,2.20703 1.08203,0.39453 2.14844,0.78906 3.21485,1.1914 2.11328,0.78907 4.61328,1.75 7.14843,2.84375 1.4375,0.6211 2.79297,1.38282 4.04688,2.27735 3.625,-2.66406 7.44922,-3.66406 10.27734,-4.01172 10.71094,-1.28516 22.70703,3.60156 31.24219,12.41016 3.0625,-3.36329 6.94922,-5.64063 11.60547,-6.79297 6.94922,-1.72657 12.67578,0.0156 14.82812,0.66797 l 1.07813,0.32812 c 5.79687,1.75 14.1875,4.28516 21.70703,9.16797 1.03516,-1.19531 2.09375,-2.34375 3.15625,-3.43359 11.75781,-11.98438 25.81641,-18.08594 40.67969,-17.65235 5.95703,0.17578 11.83203,1.30078 17.52343,3.34766 4.80469,-16.84375 9.39063,-31.96485 13.94922,-46.00391 -4.07422,-2.66797 -7.1914,-6.63672 -8.77343,-11.27344 -1.28907,-3.77343 -2.55079,-7.55468 -3.8086,-11.33984 -2.53906,-7.63281 -0.71094,-16.03515 4.76563,-21.92187 2.46484,-2.65235 5.01562,-4.58594 6.8789,-6 l 0.14063,-0.10547 c 0.35547,-0.27344 0.70703,-0.53906 1.04297,-0.80469 35.66797,-28.636719 76.52343,-45.875 115.03515,-48.542969 42.66797,-2.957031 73.84766,7.769532 92.67578,31.867188 25.73047,32.929691 22.72266,76.117191 7.90235,106.867191 3.43359,-0.5625 6.76562,-0.79688 9.94922,-0.70704 13.78515,0.40625 25.38672,6.94922 32.67578,18.42579 0.7539,1.1875 1.46875,2.4414 2.14453,3.75781 3.65625,-3.00391 7.58203,-5.67188 11.71484,-7.96485 5.23047,-2.89843 19.3086,-9.57031 37.07813,-9.05468 4.42187,0.1289 8.78906,0.71875 12.98047,1.75 2.22265,0.54297 4.41797,1.23828 6.64453,2.09765 0.61719,-1.83203 1.25,-3.60937 1.91015,-5.36718 0.87891,-2.35157 1.87891,-4.7461 2.9375,-7.27735 l 0.51172,-1.22265 c 3.69532,-8.81641 9.88282,-23.56641 8.46094,-30.92188 -1.94531,-10.03906 2.19531,-20.35156 10.6543,-26.29883 8.45898,-5.94726 19.5957,-6.32617 28.39648,-1.0332 7.65625,4.57812 23.65625,17.00781 29.36719,31.26562 3.29687,8.26563 3.74609,19.72266 1.15234,29.19141 -1.03906,3.77734 -2.28125,7.24609 -3.62109,10.46484 5.26562,-3.83203 11.85162,-5.59375 18.46092,-4.78125 l 1.1172,0.13282 c 8.7031,0.97656 16.293,6.25 20.2735,14.10156 3.957,7.73437 3.7773,16.92578 -0.5,24.56641 -2.4805,4.43359 -4.9297,8.60546 -7.8829,13.59765 -4.8906,8.27344 -9.9375,16.82813 -14,25.50391 l -0.1289,0.26562 c -0.078,0.17969 -0.1914,0.39453 -0.3007,0.60938 1.4609,4.80469 2.2109,9.6875 2.8828,14.04687 0.1875,1.26172 0.6093,4.0625 0.8789,5.27344 l 0.027,0.0742 c 0.082,0.19141 0.1914,0.44922 0.3321,0.76172 l 0.039,0.0976 c 0.5703,1.26563 1.5625,3.26172 3.0313,5.5586 l 0.098,0.15234 c 1.3321,2.125 2.8516,4.28906 4.4727,6.375 l 10.3594,-2.47656 c 0.539,-0.125 1,-0.21484 1.4609,-0.28906 l 1.7305,-0.32032 32.9297,-6.30078 c 3.1406,-0.57422 6.3906,-1.14453 9.7382,-1.6875 5.0313,-0.8125 10.2696,-1.5625 15.6602,-2.17968 0.8906,-0.10157 1.8008,-0.19922 2.6992,-0.29297 7.25,-0.75391 14.7305,-1.24219 22.2813,-1.27735 12.2695,-0.0586 24.7304,1.07032 36.6484,4.16797 6.5625,1.70313 16.0312,5.15235 23.8828,11.91016 7.3594,6.25781 11.9102,13.86328 13.5078,22.58984 4.4297,23.9336 -15.9297,44.61328 -34.7109,55.04688 z"
       id="path906"
       sodipodi:nodetypes="sccccccccccccccscccccccccccsccccccccscccccccccccccccccccccsccccccscccccccccccccccccccccccccccccccccccccccccccccccccccccccccccccccccccccss" />
  </g>
  <g
     inkscape:groupmode="layer"
     id="g945"
     inkscape:label="Layer 4"
     style="display:none">
    <path
       style="display:inline;fill:#ffffff;fill-opacity:1;fill-rule:nonzero;stroke:none"
       d="m 208.625,192.66406 c 25.57812,-21.82422 45.49219,-62.84765 26.62891,-94.328122 -0.64454,-1.074219 -1.33594,-2.140625 -2.07032,-3.191407 -14.09375,-20.128906 -42.7539,-22.804687 -64.72265,-16.714843 -16.29688,4.519531 -31.3125,10.234375 -44.9961,20.507812 -3.67968,2.76172 -7.55859,6.08594 -12.21875,10.41797 -17.406246,16.125 -30.011715,31.69531 -34.976559,55.1289 -3.558593,16.80079 11.769532,30.56641 19.304688,34.26563 3.332031,1.63281 7.386721,2.70312 10.828121,2.84766 2.49219,0.10546 4.75391,-0.21875 6.67188,-0.98438 2.44141,-0.91797 4.80859,-2.73828 7.01953,-5.42187 6.81641,-8.13672 5.33594,-16.24219 3.75391,-24.8125 l -0.0273,-0.14844 c -0.25781,-1.41797 -0.51562,-2.84375 -0.74218,-4.30078 -0.23829,-1.44532 -1.30469,-2.60938 -2.72266,-2.96094 -1.41797,-0.33594 -2.90625,0.18359 -3.77734,1.35937 -0.44532,0.58985 -0.91407,1.23047 -1.37891,1.86329 -4,5.45703 -8.96094,12.23437 -14.35938,12.00781 -1.066402,-0.0469 -2.148434,-0.375 -3.222652,-0.97656 -1.480469,-0.82813 -2.472657,-2.20704 -2.933594,-4.09375 -1.886719,-7.6211 4.960937,-21.45313 7.664066,-25.65235 7.72656,-12.00781 17.5039,-22.54297 28.13281,-32.02734 8.54687,-7.63281 18.63672,-14.44141 29.95312,-17.027345 10.95313,-2.5 24.58203,-2.601562 34.89063,2.371095 4.73828,2.28516 8.80078,5.82031 12.14844,9.87891 8.57812,10.40234 9.7539,22.52734 5.76562,35.14062 -2.20703,6.96875 -5.99609,13.3125 -9.80469,19.55078 -9.14062,14.98828 -22.08203,27.40625 -37.375,35.51953 4.75391,-15.6875 9.64453,-31.3164 14.66797,-46.91015 1.96094,-6.08204 3.82031,-11.6211 3.73828,-17.99219 -0.14843,-11.77734 -8.73047,-18.6875 -18.69922,-21.16406 -2.03906,-0.50782 -4.10937,-0.85938 -6.17578,-1.21485 -1.30859,-0.22265 -2.76953,-0.41406 -3.84765,0.40625 -1.85157,1.40235 -1.75,5.4336 -2.1875,7.58594 -0.65235,3.20313 -1.38672,6.39063 -2.14063,9.57031 0,0 -3.42187,14.40625 -3.42578,14.41797 -3.85547,16.23438 -9.78125,32.25 -14.26562,48.32031 -3.05469,10.9375 -5.9961,22.01172 -8.78516,33.13672 -3.69531,14.73438 -7.11719,29.5586 -10.17969,44.25 -2.24218,10.75 -4.80468,21.49219 -6.45312,32.3711 -2.6836,17.69921 -8.808596,53.95312 17.5664,54.9375 0.3711,0.0156 0.75391,0.0469 1.125,-0.0156 -0.17578,-13.79687 1.23047,-24.57422 2.67578,-32.72656 0.96875,-4.77735 1.94532,-8.89453 2.9336,-12.35938 1.48828,-5.22265 3.07031,-10.42187 4.65625,-15.61718 2.10937,-6.90235 4.38281,-13.46485 6.30469,-20.44141 2.03515,-7.375 4.375,-14.65234 6.6875,-21.93359 1.41796,-4.46094 2.47656,-9.16016 3.85546,-13.70313 1.66797,-5.50391 3.09766,-11.08203 4.70704,-16.60937 1.05078,-3.60938 2.1289,-7.20704 3.19529,-10.80861 17.07809,-3.03908 34.10153,-10.90236 46.61325,-21.71877 z"
       id="path911"
       sodipodi:nodetypes="ccccccccccccccccccccccccccccccccccccccccccccccccccc" />
    <path
       style="display:inline;fill:#ffffff;fill-opacity:1;fill-rule:nonzero;stroke:none"
       d="m 219.99609,277.96484 c -0.16406,4.59766 -0.59375,8.73438 -1.27734,12.28516 -0.125,0.67969 -0.26563,1.34375 -0.42188,1.99609 l -1.57812,4.9336 c -0.47656,1.47656 -0.94922,2.95312 -1.43359,4.43359 -1.79688,-0.41406 -4.66797,-2.26172 -8.89844,-8.04687 -8.66016,-11.72657 -10.60547,-35.0586 -0.14063,-47.57032 1.35157,-1.60937 3.17969,-2.44531 5.31641,-3.41797 l 0.14453,-0.0742 c 0.56641,-0.25782 1.14063,-0.51954 1.71875,-0.80079 0.0977,0.0273 0.21875,0.0664 0.34375,0.0937 2.54297,1.4336 3.42188,6.1211 4.13672,9.91797 l 0.082,0.4336 c 0.10938,0.57031 0.21484,1.13281 0.32031,1.63672 1.34766,6.51953 2,15.77734 1.6875,24.17968 z m -28.23828,48.36328 c -1.375,-0.043 -2.57422,-0.38281 -3.64844,-1.04296 -10.48437,-6.41016 -16.94531,-29.98438 -12.80468,-46.70704 1.42187,-5.72265 3.45312,-10.45703 5.67968,-14.97265 l -0.22265,9.46094 c -0.004,0.16796 0.004,0.35546 0.0312,0.52343 l 0.21875,1.72266 c 0.84765,6.33203 1.57031,11.8125 3.64062,16.98047 2.79688,6.91015 7.73438,13.90625 12.88672,18.24609 0.63281,0.53125 1.32813,1 2.00781,1.48047 l 0.13672,0.0937 c 1.83594,1.26563 3.72657,2.57422 4.34766,4.16406 0.58594,1.58203 -0.41406,3.32813 -1.78513,5.24221 -1.37107,1.91409 -6.0117,4.94144 -10.48826,4.80862 z m 97.65235,-21.45703 c -1.66797,0.89453 -2.85938,3.83203 -3.87891,5.3086 -1.46484,2.11718 -3.02344,4.16797 -4.76563,6.0625 -2.33593,2.54687 -5.61718,5.60156 -9.32812,5.5625 -2.40625,-0.0274 -4.5625,-1.44922 -6.60547,-4.33594 -4.78125,-6.82031 -4.71875,-20.94141 0.1875,-39.76953 3.52734,-13.4961 5.61328,-27.34766 9.84766,-40.6836 7.43359,-23.41406 12.96484,-47.48828 21.82031,-70.44531 0.42578,-1.09765 0.82812,-2.19922 1.26562,-3.39844 1.36719,-3.70703 2.77735,-7.53125 4.88672,-10.83593 0.64844,-1.00391 1.4961,-1.9375 2.3125,-2.83985 1.32032,-1.45703 2.6875,-2.95312 3.44922,-4.92187 0.34375,-0.875 0.47656,-1.66797 0.42578,-2.40235 -0.0898,-1.22265 -0.75781,-2.33203 -1.79687,-2.99218 -0.97656,-0.6211 -2.71485,-1.33594 -7.66406,-1.41407 -4.20704,-0.043 -8.75391,0.75391 -13.47657,2.35157 -7.49218,2.53515 -10.78515,5.83984 -13.58984,13.25781 -9.24219,24.46875 -16.32031,50.14062 -22.85938,75.45703 -3.85156,14.92188 -6.63671,30.125 -8.19921,45.45703 -0.28125,2.77344 -0.61719,5.60547 -0.94922,8.48047 -0.65625,5.63281 -1.30469,11.32422 -1.57032,17.01563 -0.625,0.0156 -1.22656,-0.0195 -1.76562,-0.1836 -1.80078,-0.53515 -2.92578,-2.33984 -3.34375,-4.07812 -0.80078,-3.32032 1.13672,-10.00391 2.6875,-15.36328 0.62109,-2.17969 1.28125,-4.41797 1.60547,-6.07032 1.3125,-6.50781 1.46094,-16.01172 0.36719,-22.59765 -2.21094,-13.32032 -6.21485,-25.71875 -20.47266,-26.13672 -3.19922,-0.0977 -6.87891,0.44531 -10.92578,1.60937 -4.26172,1.20703 -7.48828,2.6211 -9.625,4.25391 -0.6836,0.52344 -1.20703,1.22656 -1.66016,1.83594 -0.54687,0.73828 -1.05859,1.42578 -1.83984,1.82422 -1.14844,0.36328 -1.69141,0.14453 -3.00781,-0.57813 l -0.38672,-0.21875 c -1.0586,-0.5625 -2.36328,-1.26172 -3.98828,-1.3125 -0.80079,-0.0234 -1.60547,0.11328 -2.36329,0.41016 -8.61328,3.23828 -16.0039,12.92578 -22.07031,28.86328 -1.65234,4.33203 -3.20312,9.125 -4.65234,14.375 -0.97656,3.61328 -1.47656,7.375 -1.96875,11.00781 0,0 -0.0469,0.35938 -0.0508,0.36328 -2.8086,20.85938 -2.54688,53.99219 22.51953,62.32813 1.64062,0.5625 3.58203,0.87109 5.78125,0.9375 3.8789,0.11328 8.11719,-0.58203 11.32031,-1.85157 10.66016,-4.16406 25.82422,-19.0039 29.88281,-29.13671 1.67969,-0.40625 3.34766,-0.8125 5.02735,-1.21485 l 1.47656,-0.36719 c 0.12109,-0.0273 0.23047,-0.0703 0.34766,-0.11328 2.25781,-0.8125 4.65625,-1.8125 6.98437,-3.0039 0.21875,-0.13282 0.44141,-0.26563 0.66797,-0.40235 0.58984,4.22657 1.625,8.44532 3.26562,12.37891 4.59766,11.17187 7.42579,25.58203 22.48047,25.74219 2.79688,0.0312 5.52344,-0.8086 8.11719,-2.49219 7.04688,-4.60156 10.58984,-11.92188 14.48438,-19.04688 4.0625,-7.42578 5.50781,-15.78125 4.09375,-24.23046 -0.11329,-0.67579 -0.25782,-1.37891 -0.68359,-1.91797 -0.42186,-0.53907 -1.21483,-0.85157 -1.81639,-0.52735 z"
       id="path913"
       sodipodi:nodetypes="scccccccccccccssccccccccccccccccccccccccccccccccccccccccccccccccccccccccccccccccccccc" />
    <path
       style="display:inline;fill:#ffffff;fill-opacity:1;fill-rule:nonzero;stroke:none"
       d="m 325.62891,194.35156 c 0.29296,-0.27734 2.8789,-4.1875 2.30468,-4.29687 -3.3125,-0.64063 -5.5,-3.84766 -6.63281,-7.02344 -1.12891,-3.16406 -1.50391,-6.69141 -0.95312,-9.99609 0.47656,-2.88282 1.65625,-5.59375 3.65234,-7.73829 0.47266,2.53907 2.71875,4.51172 5.21875,5.15625 2.50391,0.64454 5.1875,0.1211 7.55078,-0.91796 8.46484,-3.71485 11.78125,-15.19532 9.64844,-23.65235 -2.66016,-10.55859 -11.35938,-10.625 -18.98438,-4.99609 -8.70703,6.42578 -14.32812,16.41015 -16.23437,26.98047 -1.30469,7.21875 -1.28125,15.48437 2.79297,21.88281 1.63672,2.57031 3.99218,4.72266 6.8125,5.875 1.85937,0.76172 3.4375,0.0508 4.82422,-1.27344 z"
       id="path915"
       sodipodi:nodetypes="ccccccccccscc" />
    <path
       style="display:inline;fill:#ffffff;fill-opacity:1;fill-rule:nonzero;stroke:none"
       d="m 369.05469,294.32812 c -2.14063,8.66797 -5.76172,14.92579 -8.24805,18.72657 -2.48633,3.80078 -3.70508,5.67968 -6.1875,8.52929 -2.48242,2.84961 -4.5918,4.26758 -6.61523,4.75586 -1.14844,0.26953 -2.29297,0.26563 -4.31055,-0.26364 -2.01758,-0.52926 -4.33789,-2.27926 -6.18945,-4.97066 -0.65625,-0.94922 -1.2461,-2.01953 -1.78516,-3.21094 -0.3125,-0.69141 -0.60156,-1.40234 -0.86328,-2.16406 -0.4375,-1.23828 -0.79297,-2.5625 -1.10938,-3.92188 -2.88281,-11.51172 -1.64453,-24.89453 1.16797,-36.36718 0.32031,-1.34766 0.65625,-2.62891 1.00391,-3.8711 0.0195,-0.0469 0.0312,-0.0937 0.0469,-0.14844 0.16797,-0.59765 0.375,-1.23046 0.9043,-2.88281 0.5293,-1.65234 1.05273,-3.6289 1.77148,-5.5625 0.88672,-2.38281 2.00782,-4.95703 3.35938,-7.11719 1.48437,-2.37109 3.38672,-4.51562 5.73437,-6.0625 2.5,-1.65234 5.11719,-1.61718 7.07813,-0.82033 1.96094,0.79685 2.82031,1.29685 3.88281,2.082 1.0625,0.78516 1.80469,1.4375 2.94336,2.66211 1.13867,1.22461 1.93555,2.24024 2.64258,3.33789 6.01172,9.41016 7.92187,24.38672 4.77344,37.26953 z m 175.47656,-41.33984 c 3.25781,-3.32422 7.61328,-5.51172 10.61328,-4.41018 3,1.10155 3.96875,1.59764 5.16797,2.38279 1.19922,0.78516 2.03516,1.43751 3.31641,2.66212 1.28125,1.22461 2.18359,2.24023 2.98046,3.33789 6.77735,9.40625 8.92969,24.38672 5.37891,37.26953 -2.41406,8.66797 -6.49609,14.92578 -9.30078,18.72851 -2.80469,3.80274 -4.17969,5.67774 -5.81641,7.47461 -0.47265,0.51172 -0.95312,1.02735 -2.45702,2.4668 -1.50391,1.43945 -3.87891,2.85352 -6.16798,3.3418 -1.29297,0.26953 -2.58593,0.26953 -4.85937,-0.26168 -2.27344,-0.53121 -4.89063,-2.27731 -6.97656,-4.97262 -0.73829,-0.94531 -1.40625,-2.01953 -2.01563,-3.21094 -0.35156,-0.6914 -0.67578,-1.39843 -0.97266,-2.16406 -0.49218,-1.23437 -0.89062,-2.5625 -1.25,-3.91797 -0.92578,-3.48047 -1.51562,-6.99609 -1.73828,-10.59375 -0.78515,-12.80468 2,-26.42578 5.54493,-34.06057 3.54492,-7.63478 5.69726,-11.15822 8.55273,-14.07228 z m -169.82813,74.12891 c 2.00782,9.14062 9.625,21.17187 18.66797,21.47265 2.35938,0.0781 4.67969,-0.67578 6.89453,-2.23047 4.9336,-3.46093 8.36329,-9.10156 11.10157,-14.74609 1.67968,-3.46094 3.09375,-6.99609 4.3789,-10.58203 0.46485,8.51172 1.21875,17.02734 1.32032,25.53906 0.0195,1.62891 0.11328,3.4375 1.32031,4.57031 1.41015,1.33594 8.15234,2.73829 9.89062,2.85547 5.50391,0.36719 10.58985,-3.14843 13.00782,-7.92187 2.66406,-5.25391 2.44531,-6.7461 5.05468,-11.96875 4.07032,-8.14844 7.71094,-13.94141 10.38672,-19.99219 4.46485,-10.09766 9.3125,-18.28516 12.62891,-28.82031 -1.03125,6.8789 -1.89844,12.71094 -2.13281,18.41406 -0.1875,4.50781 -0.0781,10.32031 1.67578,17.67188 1.20312,5.04296 2.79297,11.42578 7.84765,18.0625 7.29688,9.58203 20.25782,12.64843 30.86719,6.01171 2.6875,-1.67968 5.05078,-3.83984 7.08984,-6.26171 0.49219,-0.58985 0.97266,-1.19141 1.44141,-1.80079 1.76563,2.22266 3.80859,4.17188 6.09766,6.01172 1.98437,1.59375 4.15234,2.95313 6.45312,4.03907 3.77735,1.77734 7.72656,2.73437 11.73047,2.85156 13.49219,0.39844 26.07813,-8.87891 33.35938,-17.71094 0.45703,-0.55469 0.95312,-1.11328 1.50781,-1.71094 1.08594,-1.20312 2.21094,-2.42968 3.0625,-3.85156 2.26172,9.13672 10.85156,21.17188 21.04687,21.47266 2.66407,0.0781 5.27735,-0.67578 7.77735,-2.23047 8.5039,-5.32813 14.01562,-15.21875 17.61718,-25.39063 2.69141,-7.61718 6.26563,-17.30468 5.19532,-25.625 -1.67969,-0.71484 -2.91797,0.14063 -3.87891,1.56641 -1.64062,2.4375 -2.98828,5.03906 -4.46875,7.57031 -5.35156,9.16016 -11.24219,14.55078 -15.75391,14.41406 -2.28906,-0.0664 -4.32031,-1.46093 -6.21093,-4.24609 -4.4336,-6.58203 -4.1211,-20.03906 0.89062,-37.89062 3.71485,-13.22266 6.82031,-26.63672 10.45703,-39.875 3.16797,-11.53907 7.15625,-23.13282 11.39453,-34.32032 3.87891,-10.25 6.17969,-20.94922 10.32032,-31.10547 0.42578,-1.03906 0.82812,-2.08203 1.26953,-3.21484 1.36719,-3.50781 2.78125,-7.12891 4.84765,-10.23828 0.63672,-0.94531 1.46094,-1.81641 2.25782,-2.66406 1.28125,-1.36328 2.60937,-2.76563 3.37109,-4.625 0.34766,-0.82813 0.48438,-1.58203 0.45313,-2.28125 -0.0625,-1.16407 -0.6836,-2.23438 -1.66016,-2.88282 -0.92188,-0.60937 -2.5625,-1.32031 -7.27734,-1.48437 -4.00782,-0.11719 -8.35157,0.55859 -12.88282,1.99609 -2.77343,0.83594 -6.84375,2.25391 -10.00781,4.82032 -4.64844,3.77343 -5.36719,10.0039 -7.12891,15.32421 -6.91015,20.85547 -13.25781,42.38282 -19.18359,63.71875 l -4.89062,17.53907 c -0.85547,-0.91797 -1.6875,-1.82032 -2.51563,-2.71875 -3.97266,-4.35938 -7.72266,-8.48438 -14.30469,-11.53516 -4.54297,-2.13281 -9.26953,-3.28906 -14.03125,-3.42969 -19.09765,-0.5664 -32.73437,18.53907 -39.05078,34.625 -2.66797,6.79688 -4.5039,13.92188 -5.59375,21.13672 -0.4414,2.92578 -0.75781,5.8711 -0.9375,8.82422 -0.53906,8.93359 0.28125,18.18359 2.84375,26.85156 -1.11328,1.5 -2.15234,3.0625 -3.38672,4.5 -2.60156,3.03516 -5.32031,6.58594 -9.83593,6.07422 -4.44922,-0.5 -5.9336,-4.10937 -6.80469,-7.79687 -4.53125,-19.15625 8.73828,-42.52344 13.16406,-60.08594 1.26172,-3.87109 1.14063,-7.27344 0.80469,-8.69141 -2.10547,-8.67968 -16.03125,-12.48828 -23.57422,-14.78906 -1.01563,-0.30859 -2.09375,-0.62109 -3.125,-0.36328 -2.46484,0.60937 -2.70313,8.41406 -3.64063,10.86719 -1.125,2.94922 -2.8125,5.6875 -4.3789,8.42968 -4.32422,7.56641 -8.19531,15.32422 -11.86328,23.22266 -3.30078,7.09766 -7.51953,13.65234 -11.47657,20.35156 -5.03515,8.52735 -10.07031,17.05078 -15.10937,25.57813 0.27344,-25.67969 14.98828,-48.8086 17.85937,-74.05078 0.26954,-2.35547 0.41797,-4.81641 -0.13281,-7.14453 -1.4414,-6.10157 -10.38672,-13.14844 -16.74219,-12.38282 -0.25,0.0273 -3.73828,14.00391 -4.05468,15.1875 -3.38672,12.73828 -6.9336,25.75782 -8.51172,33.41016 -1.57813,7.65234 -1.72656,9.54297 -2.11719,11.23828 -1.72266,7.46094 -6.01953,24.5625 -16.27344,24.22266 -2.02734,-0.0703 -3.83203,-1.46485 -5.51172,-4.25 -3.92968,-6.58203 -3.65234,-20.03907 0.79297,-37.88672 3.19532,-12.79297 5.17969,-25.95313 8.96875,-38.57813 0.32422,-1.08203 0.66016,-2.16797 0.9961,-3.2539 -2.03907,-0.87891 -4.10938,-1.67578 -6.15625,-2.44532 -3.17578,-1.1914 -6.37891,-2.3164 -9.52735,-3.58203 -1.89453,-0.76172 -3.73047,-1.68359 -5.58203,-2.55859 -0.30469,1.19531 -0.62109,2.39844 -0.91406,3.58594 l -4.33594,17.53515 c -0.76172,-0.91406 -1.5,-1.82031 -2.23437,-2.71875 -3.51953,-4.35547 -6.84766,-8.48437 -12.6836,-11.53515 -4.03125,-2.13672 -8.21875,-3.28907 -12.4414,-3.42969 -16.9375,-0.56641 -29.03125,18.53906 -34.62891,34.62109 -5.15234,14.79297 -6.98047,30.79297 -4.74609,46.32813 1.98047,13.78515 6.28906,29.76172 19.54687,36.80469 3.34766,1.78125 6.85156,2.73437 10.40235,2.85546 11.96484,0.39844 23.1289,-8.8789 29.58203,-17.71093 0.40625,-0.55469 0.84765,-1.11328 1.33984,-1.71094 0.96094,-1.20313 1.96094,-2.42969 2.71484,-3.85156 z"
       id="path917"
       sodipodi:nodetypes="scccccccccccccccccccsscccccccccccccccccccccccscccccccsccccccccccccccccccccccccccccccccccccccccccccccccccccccccccccccccccccccccccccccc" />
    <path
       style="display:inline;fill:#ffffff;fill-opacity:1;fill-rule:nonzero;stroke:none"
       d="m 1151.7695,355.47656 c -0.6211,1.1211 -1.5078,2.26563 -2.6484,3.41016 -1.5,1.5625 -3.4023,3.05469 -5.3516,4.22265 -7.3281,4.4375 -16.1211,6.38672 -25.2304,8.13672 -5.6875,1.08203 -11.8477,1.54297 -18.3086,1.35157 -6.4688,-0.19141 -12.75,-1.01172 -18.6094,-2.15625 -4.0313,-0.69922 -8.043,-1.50782 -12.0195,-2.44922 -4.7305,-1.11328 -9.4102,-2.41407 -14.0313,-3.92578 -4.1797,-1.3711 -8.3086,-2.91407 -12.3515,-4.65625 -3.3985,-1.46485 -6.7383,-3.08594 -10,-4.84766 3.7109,-1.20703 7.7031,-2.44141 11.4414,-3.50781 3.7617,-1.07032 7.4414,-1.97266 11.1796,-2.83594 1.7813,-0.41797 3.5821,-0.82422 5.4102,-1.23438 10.4414,-2.35546 21.1016,-3.59375 31.7695,-4.41406 10.3907,-0.79687 20.5586,-1.58594 30.9922,-1.10156 5.5469,0.25391 11.4492,0.39453 16.8867,1.58594 3.6602,0.80078 7.7813,1.74218 10.3204,4.74218 0.9609,1.14063 1.5,2.35157 1.6015,3.58204 0.1016,1.26171 -0.25,2.63671 -1.0508,4.09765 z M 810.34375,277.67969 c -0.16406,4.59765 -0.59375,8.73437 -1.28125,12.28515 -0.125,0.67969 -0.26172,1.34375 -0.42188,1.9961 l -1.57812,4.93359 c -0.47266,1.47656 -0.94922,2.95313 -1.42969,4.43359 -1.80078,-0.41406 -4.67187,-2.26171 -8.89844,-8.04687 -8.66015,-11.72656 -10.60937,-35.0625 -0.14453,-47.57031 1.35547,-1.60938 3.17969,-2.44532 4.60352,-3.09765 1.42383,-0.65233 1.99805,-0.91405 2.57617,-1.1953 0.10156,0.0273 0.21875,0.0664 0.34375,0.0937 2.54688,1.43359 3.42188,6.12109 3.87499,8.52148 0.45311,2.40039 0.55857,2.96289 0.66404,3.4668 1.34766,6.51953 2.00391,15.77734 1.69141,24.17969 z m -17.03516,42.55468 c -2.08984,2.91407 -6.73047,5.94141 -11.20703,5.8086 -1.375,-0.043 -2.57031,-0.38281 -3.64844,-1.03906 -10.48437,-6.41407 -16.94531,-29.98829 -12.80468,-46.71094 1.42578,-5.72266 3.45703,-10.45703 5.67968,-14.97266 l -0.20705,9.72266 c -0.004,0.16797 0.23825,1.98437 0.23825,1.98437 0.84766,6.33203 1.57032,11.8125 3.64063,16.98047 2.79687,6.91406 7.73047,13.90625 12.88672,18.2461 0.6289,0.53125 1.32812,1.0039 2.0039,1.48437 l 0.13672,0.0898 c 1.83594,1.26563 3.73047,2.57422 4.35157,4.16407 0.58203,1.58203 -0.41797,3.32812 -1.07032,4.24218 z m 355.46091,7.625 c -9.1484,-2.3789 -18.9297,-3.36718 -28.8711,-3.4414 -2.4765,-0.0195 -4.9687,0.0195 -7.4687,0.10547 -1.6602,0.0625 -3.3203,0.14062 -4.9883,0.24218 -2.4922,0.15235 -4.9805,0.34766 -7.4609,0.58204 -4.961,0.46875 -9.8789,1.08593 -14.6992,1.79687 -4.8125,0.71094 -9.5196,1.50781 -14.0704,2.34375 l -32.832,6.28125 -2.1094,0.38672 c -0.059,0.004 -0.1211,0.0195 -0.1797,0.0352 l -22.789,4.55859 c -1,-0.64844 -2.1094,-1.45703 -4.9492,-4.26358 -2.8398,-2.80655 -7.1601,-8.35343 -10.63666,-13.91593 -2.1875,-3.40625 -3.6875,-6.42578 -4.57812,-8.41015 -0.0234,-0.043 -0.0391,-0.0899 -0.0625,-0.13282 -0.26953,-0.60547 -0.48047,-1.11328 -0.63281,-1.48828 -0.0781,-0.1875 -0.16797,-0.3789 -0.24219,-0.5664 -0.88281,-2.16797 -1.46485,-5.97657 -2.01953,-9.6836 -1.52735,-9.88672 -2.85938,-15.32422 -5.90625,-17.47265 l 5.19922,-9.98438 c 0.0195,-0.0469 0.0469,-0.10547 0.0742,-0.15625 4.51954,-9.64453 9.83985,-18.64844 14.97264,-27.35547 2.75,-4.64844 5.2188,-8.84765 7.6289,-13.16406 0.6719,-1.19531 0.7032,-2.63672 0.07,-3.86719 -0.6171,-1.21875 -1.8085,-2.05078 -3.1679,-2.1914 l -1.2422,-0.14844 c -1.3399,-0.17188 -2.6602,0.33984 -3.5391,1.35937 l -6.27732,7.10157 c -1.03907,1.26171 -2.16797,2.57812 -3.38672,3.99218 -3.82813,4.44532 -7.44141,8.6211 -10.30078,13.73047 -5.23828,9.32813 -11.5,18.15235 -17.65235,26.8086 -2.04687,2.90625 -4.10156,5.79687 -6.15625,8.74218 -1.23828,1.83203 -2.5625,3.63672 -3.98047,5.57032 -1.92968,2.63281 -3.93359,5.38281 -5.69921,8.20312 l -1.06641,1.67578 c -0.86719,1.35938 -1.76172,2.75781 -2.44141,4.19922 -0.23437,0.47266 -0.42968,1.00391 -0.66406,1.62891 -0.60937,1.66797 -1,2.30468 -1.40234,2.29297 -0.0781,-0.004 -0.29297,-0.0274 -0.61328,-0.17579 -0.9336,-0.46484 -1.83985,-2.5625 -2.32032,-3.6914 -1.78515,-4.15625 -1.94922,-8.57031 -1.88281,-12.34375 0.0977,-7.57422 1.5625,-16.07422 4.49219,-26.01172 3.99219,-13.63672 9.52734,-31.4375 16.96094,-48.3125 1.39843,-3.17969 3.02343,-6.3125 4.45703,-9.11719 3.01562,-5.86328 6.13281,-11.9414 8.0664,-18.99219 1.32813,-4.83593 1.16797,-11.37109 -0.35547,-15.19531 -2.63281,-6.57422 -12.79687,-16.11719 -20.27734,-20.58984 -1.38281,-0.83203 -3.12891,-0.76563 -4.45312,0.15625 -1.32422,0.9414 -1.97657,2.55078 -1.66797,4.14453 2.6875,13.89844 -4.5,31.03125 -9.75391,43.57031 -1.16797,2.79297 -2.28516,5.42578 -3.16016,7.76953 -4.90234,13.04297 -7.78906,27.09375 -10.85937,41.96094 l -1.00195,4.9336 c -0.0273,0.13281 -0.3496,3.10937 -0.3496,3.10937 -0.25,2.28906 -0.51172,4.57422 -0.76953,6.86328 -0.0391,0.37891 -0.082,0.75781 -0.125,1.13672 -2.26954,0.77734 -4.84766,1.21484 -7.0586,1.59377 -2.21094,0.37893 -3.83203,0.65627 -5.49609,1.00393 0.73047,-5.46875 2.08984,-10.94922 3.41797,-16.29297 1.375,-5.57422 2.78515,-11.32422 3.59375,-17.30078 0.23437,-1.73047 -0.66016,-3.42579 -2.22657,-4.20704 -0.89453,-0.4414 -1.76171,-0.90625 -2.64843,-1.35937 -3.25782,-1.73047 -6.625,-3.50781 -10.8711,-4.55078 -2.66406,-0.65625 -5.48047,-1.03906 -8.38281,-1.125 -12.67578,-0.3711 -22.92187,4.73437 -25.76172,6.30859 -12.59375,6.98047 -21.83203,18.36328 -26.48828,31.94531 -3.12109,9.09375 -4.60547,18.98438 -4.52734,28.83204 -0.30469,0.2539 -0.61719,0.49609 -0.96094,0.69531 -1.57422,0.91406 -3.42969,1.59765 -5.27344,1.54297 -2.51562,-0.0742 -4.12109,-1.53125 -4.78906,-4.31641 -0.80078,-3.31641 1.13672,-10.00391 2.6875,-15.36328 0.62109,-2.17969 1.28125,-4.41797 1.60547,-6.07031 1.3125,-6.50782 1.46094,-16.00782 0.36719,-22.59766 -2.20704,-13.32031 -6.21485,-25.71875 -20.47266,-26.13672 -3.19922,-0.0977 -6.87891,0.44531 -10.92188,1.60938 -4.26171,1.20703 -7.49218,2.62109 -9.625,4.2539 -0.6875,0.52735 -1.20703,1.22657 -1.66406,1.83985 -0.54297,0.73437 -1.05859,1.41797 -1.83594,1.82031 -1.15234,0.36328 -1.69531,0.14453 -3.07422,-0.60742 -1.3789,-0.75196 -2.68749,-1.45117 -4.31249,-1.50196 -0.80079,-0.0195 -1.60547,0.11329 -2.36329,0.41016 -8.60937,3.23828 -16.0039,12.92578 -22.07031,28.86328 -1.64844,4.33203 -3.19922,9.125 -4.65234,14.375 -0.97656,3.61328 -1.47656,7.375 -1.96875,11.00781 0,0 -0.0469,0.35938 -0.0469,0.36329 -0.32031,2.35937 -0.58593,4.88281 -0.79297,7.5039 -0.67187,1.98047 -0.3125,5.16797 -0.35156,7.04297 -0.0625,2.78906 -0.0234,5.58203 0.13672,8.36328 0.0117,0.17969 0.0273,0.35547 0.0391,0.53516 -0.008,-0.008 -0.0117,-0.0156 -0.0156,-0.0234 -5.25,-6.60156 -10.13672,-13.49219 -14.57031,-20.66797 -5.58985,-9.04687 -10.33985,-18.60156 -14.84375,-28.25 -1.48438,-2.47265 -2.96875,-5.03906 -4.44922,-7.71484 -0.50782,-0.73047 -1.04688,-1.55078 -1.60157,-2.44141 17.125,-4.62109 31.94141,-14.17187 44.58985,-25.10547 9.09765,-7.76172 16.79687,-17.17187 22.6914,-27.57422 15.09375,-26.6289 17,-63.32812 -2.83203,-88.71093 -17.19531,-22.003909 -47.96093,-25.257815 -73.82422,-23.464846 -37.45703,2.597656 -73.7539,20.449216 -102.77734,43.749996 -1.85547,1.48828 -4.09375,2.98047 -5.73047,4.73828 1.24219,3.73047 2.48828,7.45704 3.75391,11.17969 5.27734,-3.11719 10.18359,-5.74219 12.52344,-7.16015 11.8125,-7.14063 24.28515,-13.19141 37.20312,-18.0625 25.83594,-9.73047 47.66797,-16.50391 75.0625,-9.53516 8.30078,2.11328 16.51172,5.22656 23.59375,10.12109 15.83203,10.94141 23.375,30.79297 17.55469,49.19141 -2.66406,8.42578 -7.2461,16.09375 -11.84766,23.63672 -12.41015,20.33984 -30.60937,36.76953 -52.12109,46.3164 2.36719,-7.5625 4.73047,-15.13281 7.07422,-22.71875 3.6875,-11.91796 7.48437,-23.80078 11.3789,-35.64843 1.99219,-6.07032 4.12891,-12.10157 6.04688,-18.19532 1.65625,-5.2539 3.51172,-11.1289 3.14453,-16.69531 -0.32813,-4.9375 -1.44531,-9.89062 -3.98828,-14.1875 -2.46094,-4.16406 -6.20313,-7.42968 -10.79688,-9.03515 -3.67968,-1.28907 -7.61328,-1.53907 -11.5,-1.79297 -0.52343,2.30859 -1.10156,4.66797 -1.68359,6.97265 0,0 -3.42188,13.57422 -3.42578,13.58203 -3.85547,15.29297 -9.77735,30.38282 -14.26953,45.52344 -3.05469,10.30078 -5.9961,20.73438 -8.78516,31.21875 -3.69141,13.87891 -7.11719,27.83985 -10.17969,41.6836 -3.52734,15.93359 -7.70312,31.92187 -10.36718,48.01562 -0.60547,3.66016 -1.09375,7.38281 -0.74219,11.07813 0.96484,10.0664 11.40625,25.08593 23.34375,23.13671 -0.17578,-12.99609 1.23437,-23.14843 2.67969,-30.82421 0.96875,-4.5 1.94531,-8.38282 2.93359,-11.64454 3.88672,-12.21875 7.76172,-24.40625 11.61719,-36.58984 4.51953,11.17969 9.5664,21.17578 15.17187,29.91797 7.34375,11.46875 14.66406,21.07812 21.95703,28.82031 7.28907,7.74219 13.67969,13.76563 19.17969,18.0625 1.93359,1.50781 3.89063,2.9961 5.91406,4.38281 1.82422,1.2461 3.58203,1.85938 5.70313,2.50391 4.68359,1.42188 9.57812,2.14844 14.47265,2.14063 2.45704,0 5.04688,0.23437 7.45704,-0.39063 2.125,-0.3125 4.17187,-0.82812 5.91015,-1.51562 3.58594,-1.39844 6.8711,-3.5586 9.92969,-5.86329 1.33984,-1.00781 3.58984,-2.375 4.72656,-3.96484 6.77344,-6.03906 12.85938,-13.49219 15.21094,-19.36328 1.67578,-0.40625 3.34375,-0.8125 5.02344,-1.21484 l 3.89453,-1.22852 c 2.41406,-0.86133 7.46484,-3.15039 11.39062,-6.38477 0.0781,-0.99609 0.17578,-1.98828 0.26172,-2.98046 0.49219,3.97265 1.24219,7.88671 2.25,11.6875 1.3711,5.16796 3.80078,9.32421 6.27344,13.93359 l 0.64062,1.1875 c 0.0625,0.125 0.13672,0.23437 0.21485,0.35156 6.0039,8.87891 15.92578,16.53125 26.53125,20.5 4.3125,1.59375 8.66406,2.48828 12.91015,2.61328 10.85938,0.32032 20.25391,-4.19922 28.09375,-10.6875 2.30079,-3.71484 3.6836,-7.98437 3.82813,-12.40625 0.0391,-1.24609 0.008,-2.78125 -0.77734,-3.82422 -0.5625,-0.74218 -1.41016,-1.01171 -2.28907,-1.00781 -4.64453,3.70703 -9.48828,7.02344 -14.70312,9.82422 -4.9375,2.64844 -11.62891,2.57422 -16.82813,1.6875 -5.8125,-0.99219 -11.23047,-5.34375 -15.13672,-9.51562 -3.58203,-3.82422 -6.64062,-8.3086 -8.625,-13.16797 -8.74609,-21.44532 2.15625,-43.11719 17.46485,-53.4375 l 1.21094,-0.81641 c 3.16406,-2.18359 7.94531,-5.48828 12.91406,-5.34375 0.63672,0.0195 1.27734,0.0898 1.88281,0.23438 1.92969,0.41015 3.40625,1.57031 4.39063,3.48046 2.85546,5.46485 1.41796,16.69532 -1.27344,25.40235 -0.39063,1.27734 -0.13672,2.67187 0.6914,3.73828 0.83204,1.05078 2.11719,1.64453 3.46875,1.55859 6.09375,-0.37109 12.24219,-0.84375 18.21485,-2.19531 0.83594,-0.19141 1.68359,-0.44922 2.51953,-0.76953 -0.0117,0.28516 -0.0273,0.57031 -0.0391,0.85937 -0.13282,6.28516 -0.0703,12.57813 0.30078,18.85938 0.36328,6.20703 0.73047,12.63281 2.0664,18.73437 l 0.41799,1.91798 c 0.19142,0.78906 0.67189,2.65624 1.28908,4.52734 1.33593,4.15625 2.82031,7.22656 4.68359,9.68359 1.99219,2.58203 4.28516,4.27344 6.79687,4.96484 0.60547,0.17969 1.24219,0.26954 1.87891,0.28907 4.03125,0.12109 7.08984,-2.80078 8.55859,-4.20313 5.3711,-5.09765 12.65625,-15.25781 16.05469,-23.43359 1.78516,3.53906 5.9375,9.98437 7.03125,11.58203 3.31641,4.94922 7.88281,11.26172 13.75391,16.26562 0.0859,0.0703 0.22265,0.19141 0.38672,0.34375 -4.28907,1 -8.79688,2.03907 -13.71485,3.14063 -12.91406,2.89844 -30.875,6.57422 -43.89843,9.50781 -13.44922,3.03125 -26.96485,5.78125 -40.56641,8.05469 -18.12109,3.02734 -36.19531,6.33203 -54.25,9.74219 -27.39063,5.17578 -54.80469,10.22656 -82.28516,14.90625 -56.64843,9.65625 -104.14062,19.91797 -203.42968,14.67578 -23.30469,-1.23047 -49.97266,-5.53125 -72.74219,-10.73438 -27.34375,-6.25 -54.5,-14.97656 -80.26953,-25.91015 -3.09766,-1.3125 -6.25,-2.53907 -9.39063,-3.72657 -3.6289,-1.375 -11.51172,-4.75 -14.5664,-0.55468 -3.71094,5.10547 2.14453,15.48828 17.89453,31.70312 l 0.62109,0.63672 c 15.44141,15.92188 34.00781,28.48047 53.70313,36.36328 13.36718,5.33203 28.05468,9.64453 43.64062,12.78906 36.90625,7.4375 75.85547,8.28125 112.26172,7.02344 16.625,-0.57812 34.63672,-1.43359 48.89453,-2.9414 21.12891,-2.23829 38.96875,-4.3125 59.40234,-8.125 12.64454,-2.35938 25.23438,-5.02735 37.78125,-7.84766 35.69532,-8.01563 71.125,-17.05859 106.19922,-27.27344 9.66797,-2.8125 19.33203,-5.63281 29.01563,-8.39453 26.2539,-7.48828 94.05469,-28.5625 101.58984,-31.27734 6.77735,-2.4375 13.55469,-4.87891 20.33203,-7.31641 6.23823,5.58203 16.72653,10.75391 29.48823,14.76953 1.6992,0.53906 3.4375,1.05078 5.2188,1.54688 8.8906,2.46484 18.6719,4.37109 28.7695,5.50781 2.0195,0.22656 4.0508,0.42187 6.0899,0.58203 3.0625,0.24609 6.1328,0.41797 9.2109,0.50781 2.6289,0.0781 5.2305,0.10938 7.8086,0.0937 24.9101,-0.13281 47.1523,-4.47656 60.5625,-11.95312 9.3008,-5.16406 26.2383,-18.46485 23.7578,-31.8125 -0.6602,-3.6836 -2.6992,-6.92578 -6.2187,-9.91418 -4.8592,-4.18373 -11.5389,-6.38295 -15.0702,-7.30092 z"
       id="path919"
       sodipodi:nodetypes="ccccsccccccccccccccscccccccccccssscccccccccccssccccsccccccccccccccccccccccccccccccccccccccccccccccccccccccccccccccccccccccccccccccccccccccccccccccccccccccccccccccccccccccccccccccccccccccccccccccccccccccscccccccccccccccccccccccccccsccccccccccsccccccccccccccc" />
    <path
       style="display:inline;fill:#ffffff;fill-opacity:1;fill-rule:nonzero;stroke:none"
       d="m 703.44922,344.19531 c 8.97769,8.77458 17.26592,17.47859 26.30469,24.27344 -69.52391,12.84551 -127.11706,14.5391 -179.56641,12.18359 8.35156,-1.22656 16.59766,-4.16797 24.45703,-8.73047 7.36719,4.72657 15.46484,7.3086 23.84375,7.55469 8.74219,0.25391 17.42969,-2.13672 25.15234,-6.94531 4.85157,-3.04297 9.29688,-6.82031 13.31641,-11.30469 1.42969,1.36719 2.91406,2.64844 4.44922,3.82813 10.71484,8.26562 23.51172,11.6914 36.03125,9.65234 14.86719,-2.42578 25.96875,-15.49219 26.01172,-30.51172 z m -56.54688,13.73438 c -3.85547,-2.97266 -7.375,-6.70703 -10.375,-10.98438 -4.9414,7.67188 -10.86718,13.69531 -17.66797,17.95703 -6.1914,3.85547 -13.12109,5.78516 -20.10546,5.57813 -8.4375,-0.25 -16.59375,-3.5 -23.76172,-9.4375 -11.125,7.71875 -23.22657,11.59765 -35.21485,11.23828 -7.0625,-0.20703 -13.94531,-1.87109 -20.46093,-4.9375 -1.01172,-0.47656 -2.01563,-0.99219 -3.00391,-1.53516 -18.41016,9.66016 -41.17969,5.26172 -55.02734,-10.53906 -3.63054,6.51774 -9.18852,12.66697 -14.64063,15.9375 10.06641,3.03516 20.21875,5.72656 30.29688,8.02734 23.76562,5.42969 48.91406,9.15235 69.0039,10.21485 88.61328,4.67969 135.25391,-3.41797 184.62891,-11.98828 4.62109,-0.80078 9.2539,-1.60547 13.94531,-2.40625 5.55859,-0.94532 11.20703,-1.92188 17.01953,-2.94532 -3.48828,-0.51562 -6.9414,-1.29296 -10.33203,-2.32031 -3.58203,-1.08984 -7.48047,-2.49609 -11.71875,-5.39453 -2.65625,-1.81641 -5.05078,-3.64844 -7.03906,-5.20312 -6.44531,-5.03516 -13.53125,-11.6836 -21.66406,-20.32422 -4.88672,-5.19141 -9.8125,-11.15235 -14.69141,-17.78125 -0.89844,5.52734 -1.77734,13.14453 -1.64453,22.72656 0.14453,10.80859 -7.78906,20.27344 -18.46094,22.01172 -10.03516,1.63672 -20.36328,-1.16797 -29.08594,-7.89453 z"
       id="path921"
       sodipodi:nodetypes="cccccccccccccsccccccccccccscccccc" />
    <path
       style="display:inline;fill:#ffffff;fill-opacity:1;fill-rule:nonzero;stroke:none"
       d="m 829.23047,341.92187 c -5.35938,7.69532 -12.85938,15.3711 -20.70313,21.25391 11.39844,-2.11328 22.60547,-4.22656 33.53516,-6.30469 -4.57422,-4.05078 -8.61328,-8.59375 -11.90234,-13.46093 -0.24219,-0.36329 -0.57032,-0.86329 -0.92969,-1.48829 z"
       id="path923"
       sodipodi:nodetypes="ccccc" />
    <path
       style="display:inline;fill:#ffffff;fill-opacity:1;fill-rule:nonzero;stroke:none"
       d="m 899.54297,313.83203 c -7.42969,0 -14.33203,-3.35156 -18.94141,-9.19922 -0.0312,-0.043 -0.0625,-0.082 -0.0937,-0.12109 -1.76562,-2.27735 -3.08203,-4.82031 -3.93359,-7.4961 -1.28516,4.41407 -1.34766,9.39063 0.76172,14.57032 0.008,0.0195 0.0156,0.0391 0.0234,0.0586 1.64844,4.07031 4.73047,8.79297 9.10938,10.33594 0.80469,0.28125 1.53906,0.40625 2.23047,0.40625 1.78125,0 3.30078,-0.82422 5.05859,-1.90625 2.83594,-1.74219 5.57031,-3.64063 8.17188,-5.71485 l -0.0899,-1.02734 c -0.27734,0.0156 -0.55859,0.0352 -0.83593,0.0508 -0.48438,0.0274 -0.97657,0.043 -1.46094,0.043"
       id="path925" />
    <path
       style="display:inline;fill:#ffffff;fill-opacity:1;fill-rule:nonzero;stroke:none"
       d="m 746.30859,161.48437 c -0.0195,-4.17968 -4.1289,-8.1289 -4.1289,-8.1289 l -1.50391,4.85547 -11.96875,34.94922 c 0,0 6.95703,-6.59375 11.58203,-14.28516 3.97266,-6.60938 6.03516,-14.01953 6.01953,-17.39063"
       id="path927" />
    <path
       style="display:inline;fill:#ffffff;fill-opacity:1;fill-rule:nonzero;stroke:none"
       d="m 658.59375,165.13281 c 0.47266,2.53906 2.71875,4.51563 5.21875,5.15625 2.50391,0.64453 5.1875,0.125 7.55078,-0.91406 8.46484,-3.71875 11.78125,-15.19922 9.64844,-23.65234 -2.66016,-10.5625 -11.35938,-10.625 -18.98438,-4.9961 -8.70703,6.42578 -14.32812,16.41016 -16.23437,26.98047 -1.30078,7.21875 -1.28125,15.48438 2.79297,21.87891 1.63672,2.57031 3.99218,4.72265 6.8125,5.8789 1.85937,0.76172 3.4375,0.0508 4.82422,-1.27343 0.29296,-0.28125 2.8789,-4.1875 2.30468,-4.29688 -3.30859,-0.64062 -5.49609,-3.84766 -6.63281,-7.02734 -1.12891,-3.16016 -1.50391,-6.69141 -0.95312,-9.9961 0.47656,-2.88281 1.65625,-5.58984 3.65234,-7.73828"
       id="path929" />
    <path
       style="display:inline;fill:#ffffff;fill-opacity:1;fill-rule:nonzero;stroke:none"
       d="m 642.22651,210.25778 c -8.93909,23.38035 -19.73432,66.82814 -19.73432,66.82814 l 15.28125,0.0234 14.84763,-61.74803 c 0,0 -7.52678,-3.03639 -10.39456,-5.10351 z"
       id="path931"
       sodipodi:nodetypes="ccccc" />
    <path
       style="display:inline;fill:#ffffff;fill-opacity:1;fill-rule:nonzero;stroke:none"
       d="m 546.94922,308.12891 c 3.2539,0 6.59375,-11.61719 7.14062,-13.58985 1.42969,-5.18359 2.3125,-10.97265 1.96094,-16.34375 -0.0547,-0.77344 -0.18359,-3.24219 -0.71484,-5.27344 -0.42188,-1.60546 -1.09766,-2.9375 -2.1836,-2.9375 -0.21484,0 -0.44922,0.0547 -0.69922,0.16797 -0.67968,0.3086 -1.15625,0.9336 -1.57812,1.55078 -4.26953,6.25 -5.71484,13.98047 -6.54688,21.50782 -0.36718,3.35547 -1.54296,12.29297 1.75,14.62109 0.28907,0.20313 0.57813,0.29688 0.8711,0.29688 z"
       id="path933"
       sodipodi:nodetypes="scccsccccs" />
    <path
       style="display:inline;fill:#ffffff;fill-opacity:1;fill-rule:nonzero;stroke:none"
       d="m 353.56641,268.98437 c -0.21485,0 -0.44922,0.0547 -0.69922,0.16797 -0.67969,0.3086 -1.15625,0.9336 -1.57813,1.55078 -4.26953,6.25 -5.71484,13.98047 -6.54687,21.50782 -0.3711,3.35547 -1.54297,12.29297 1.74609,14.61718 0.28906,0.20704 0.58203,0.30079 0.875,0.30079 3.25391,0 6.59375,-11.61719 7.14063,-13.58985 1.42968,-5.18359 2.3125,-10.97265 1.96093,-16.34375 -0.0547,-0.77344 -0.18359,-3.24219 -0.71484,-5.27344 -0.42188,-1.60546 -1.09766,-2.9375 -2.18359,-2.9375 z"
       id="path935"
       sodipodi:nodetypes="sccccscccs" />
    <path
       style="display:inline;fill:#ffffff;fill-opacity:1;fill-rule:nonzero;stroke:none"
       d="m 335.23437,211.13281 c -0.0312,-0.0586 -0.0586,-0.11328 -0.0898,-0.16406 -0.25,0.13672 -0.5,0.25 -0.75,0.37891 -4.06641,2.07421 -7.92969,2.64062 -10.85156,2.64062 -3.11328,0 -6.17578,-0.60547 -9.10547,-1.80859 -3.39453,-1.39453 -6.51953,-3.33985 -9.30078,-5.7461 -0.80078,2.77735 -1.60547,5.57032 -2.41406,8.40235 -2.47266,8.66797 -5.03125,17.63281 -7.85157,26.5039 -2.26562,7.11719 -3.89453,14.64453 -5.62109,22.60938 -1.21875,5.62109 -2.48047,11.43359 -4.01172,17.28515 -0.28516,1.09766 -0.54687,2.15235 -0.78516,3.17188 2.08985,-0.67188 4.28516,-1.01953 6.48829,-1.01953 0.35546,0 0.70703,0.0117 1.0625,0.0312 0.99218,-9.15625 3.03906,-18.29297 6.13671,-27.16797 2.80079,-8.03516 7.95313,-19.73047 16.58204,-29.80469 6.5039,-7.59765 13.23437,-12.1914 19.51169,-14.89451 0.33592,-0.1445 0.66795,-0.28513 0.99998,-0.41794 z"
       id="path937"
       sodipodi:nodetypes="cccscccccccsccccc" />
    <path
       style="display:inline;fill:#ffffff;fill-opacity:1;fill-rule:nonzero;stroke:none"
       d="m 235.33203,209.26172 c 1.91406,-7.13672 3.92578,-14.36328 6.05078,-21.61719 -4.97656,6.69141 -10.61328,12.90234 -16.72265,18.37109 3.78906,0.57813 7.36718,1.66407 10.67187,3.2461"
       id="path939" />
    <path
       style="display:inline;fill:#ffffff;fill-opacity:1;fill-rule:nonzero;stroke:none"
       d="m 201.51953,137.52734 c -0.17969,-2.88281 -3.17187,-5.44531 -3.17187,-5.44531 l -0.84766,3.41016 -6.87891,24.59765 c 0,0 4.54297,-4.82812 7.42969,-10.32031 2.48047,-4.71875 3.61328,-9.91406 3.46875,-12.24219"
       id="path941" />
    <path
       style="display:inline;fill:#ffffff;fill-opacity:1;fill-rule:nonzero;stroke:none"
       d="m 1156.9883,396.11719 c -17.2383,9.60937 -43.8477,14.88672 -73.6992,14.72656 -1.9883,-0.0117 -3.9883,-0.0469 -6.0078,-0.10938 -8.5704,-0.25 -17.1797,-1.04687 -25.5704,-2.32031 -1.8711,-0.28125 -3.7226,-0.58984 -5.5625,-0.91797 -4.5976,-0.82422 -9.1171,-1.78906 -13.5078,-2.88672 -14.039,-3.51562 -26.7695,-8.3789 -36.75388,-14.22265 l -9.61719,3.46484 c -8.25781,2.96875 -76.62891,24.20703 -103.00391,31.73047 -8.98828,2.5625 -18.04296,5.19922 -26.79687,7.75 l -2.10156,0.61328 c -34.5625,10.0625 -70.73828,19.35156 -107.53125,27.61719 -14.62891,3.28125 -26.88282,5.82812 -38.56641,8.00781 -21.79297,4.06641 -40.57422,6.19531 -61.12109,8.3711 -12.48828,1.32031 -28.51953,2.29296 -50.44922,3.05078 -9.42578,0.32812 -18.57813,0.49218 -27.20313,0.49218 -34.17968,0 -63.67187,-2.59375 -90.16406,-7.93359 -16.83984,-3.39453 -32.80469,-8.07812 -47.44922,-13.91797 -22.58203,-9.04297 -43.79297,-23.39062 -61.34375,-41.48437 l -0.54687,-0.5586 c -9.32813,-9.60547 -15.76172,-17.64453 -19.6875,-24.60156 -4.05078,-7.17969 -5.89453,-14.10937 -5.51172,-20.67969 -1.48828,0.0977 -2.98047,0.11719 -4.46094,0.0703 -6.94141,-0.23438 -13.66797,-2.05469 -19.99219,-5.41407 -7.14062,-3.79687 -13.1875,-9.23828 -18.03906,-16.22656 -3.625,6 -8.78906,12.94922 -16.9375,18.27344 -6.12891,3.97656 -13.04297,6.07812 -20.00781,6.07812 l -0.3711,-0.004 c -12.52343,-0.13672 -23.17187,-5.35547 -30.79296,-15.09375 -2.19532,-2.80469 -3.92188,-5.71875 -5.27344,-8.36719 -8.20313,8.25781 -17.56641,14.84375 -25.83985,18.07031 -5.85937,2.32422 -13.14062,3.54297 -19.96484,3.35156 -4.375,-0.1289 -8.46875,-0.83203 -12.16797,-2.08593 -8.69531,-2.90625 -16.04687,-7.66407 -21.96484,-14.20703 0,0.51171 0.004,1.03125 0.0117,1.54687 0.14062,10.875 -7.53907,20.10938 -18.25391,21.96094 -1.38672,0.23828 -2.8164,0.35547 -4.25781,0.35547 -0.61328,0 -1.09766,-0.0195 -1.42578,-0.0352 C 109.35545,379.99593 99.921855,372.46078 94.78123,366.24593 79.355449,347.5975 83.746074,318.77328 86.371074,301.55062 l 0.179687,-1.19141 c 1.332032,-8.76562 3.164063,-17.25 4.9375,-25.45312 l 0.03125,-0.14844 c 0.574219,-2.65625 1.144532,-5.30469 1.699219,-7.95703 2.929688,-14.0625 6.277344,-28.64844 9.94531,-43.38281 -5.781247,-0.5625 -11.960935,-2.3086 -17.277341,-4.91406 -15.25,-7.49219 -37.191406,-30.01954 -31.136719,-58.57813 6.535156,-30.85547 23.828125,-50.29297 41.542969,-66.70703 5.300781,-4.929687 9.738281,-8.703125 13.960941,-11.871094 17.98437,-13.503906 37.41015,-19.980468 52.32812,-24.117187 29.55859,-8.191406 68.42578,-3.546875 88.62109,25.292969 1.01563,1.453125 2,2.96875 2.91797,4.5 7.125,11.890625 10.69141,25.507812 10.53125,39.925782 3.96094,-3.23438 8.69922,-5.75 14.38672,-7.67188 7.125,-2.41015 14.09766,-3.60546 20.76172,-3.51171 8.14844,0.13281 13.81641,1.51171 18.85547,4.61328 9.40234,-5.41797 19.79687,-6.67578 28.87891,-3.41797 5.86328,2.09765 16.28515,7.94922 20.21484,23.54297 2.16797,8.58593 1.53125,18.45703 -1.74609,27.07421 -3.2461,8.53516 -8.92188,15.5 -16.15625,19.89844 1.04296,8.67188 -3.41797,15.9961 -6.45313,19.8711 l -0.15625,0.20312 c -0.23047,0.28906 -0.45312,0.5625 -0.66016,0.80859 3.13672,-0.51953 6.05469,-0.64843 8.64844,-0.5664 5.46094,0.18359 10.84766,1.28125 16.05078,3.26953 1.84766,-1.91016 4.03125,-3.48438 6.44532,-4.62109 5.96484,-2.8086 12.8125,-2.8086 18.78125,0.0117 l 1.30468,0.625 c 1.19141,0.57032 2.26953,1.08594 3.08594,1.41407 1.82813,0.73437 3.77344,1.44922 5.83203,2.20703 1.08203,0.39453 2.14844,0.78906 3.21485,1.1914 2.11328,0.78907 4.61328,1.75 7.14843,2.84375 1.4375,0.6211 2.79297,1.38282 4.04688,2.27735 3.625,-2.66406 7.44922,-3.66406 10.27734,-4.01172 10.71094,-1.28516 22.70703,3.60156 31.24219,12.41016 3.0625,-3.36329 6.94922,-5.64063 11.60547,-6.79297 6.94922,-1.72657 12.67578,0.0156 14.82812,0.66797 l 1.07813,0.32812 c 5.79687,1.75 14.1875,4.28516 21.70703,9.16797 1.03516,-1.19531 2.09375,-2.34375 3.15625,-3.43359 11.75781,-11.98438 25.81641,-18.08594 40.67969,-17.65235 5.95703,0.17578 11.83203,1.30078 17.52343,3.34766 4.80469,-16.84375 9.39063,-31.96485 13.94922,-46.00391 -4.07422,-2.66797 -7.1914,-6.63672 -8.77343,-11.27344 -1.28907,-3.77343 -2.55079,-7.55468 -3.8086,-11.33984 -2.53906,-7.63281 -0.71094,-16.03515 4.76563,-21.92187 2.46484,-2.65235 5.01562,-4.58594 6.8789,-6 l 0.14063,-0.10547 c 0.35547,-0.27344 0.70703,-0.53906 1.04297,-0.80469 35.66797,-28.636719 76.52343,-45.875 115.03515,-48.542969 42.66797,-2.957031 73.84766,7.769532 92.67578,31.867188 25.73047,32.929691 22.72266,76.117191 7.90235,106.867191 3.43359,-0.5625 6.76562,-0.79688 9.94922,-0.70704 13.78515,0.40625 25.38672,6.94922 32.67578,18.42579 0.7539,1.1875 1.46875,2.4414 2.14453,3.75781 3.65625,-3.00391 7.58203,-5.67188 11.71484,-7.96485 5.23047,-2.89843 19.3086,-9.57031 37.07813,-9.05468 4.42187,0.1289 8.78906,0.71875 12.98047,1.75 2.22265,0.54297 4.41797,1.23828 6.64453,2.09765 0.61719,-1.83203 1.25,-3.60937 1.91015,-5.36718 0.87891,-2.35157 1.87891,-4.7461 2.9375,-7.27735 l 0.51172,-1.22265 c 3.69532,-8.81641 9.88282,-23.56641 8.46094,-30.92188 -1.94531,-10.03906 2.19531,-20.35156 10.54688,-26.26953 l 0.14843,-0.10547 c 8.41797,-5.87109 19.55469,-6.25 28.35547,-0.95703 7.65625,4.57812 23.65625,17.00781 29.36719,31.26562 3.29687,8.26563 3.74609,19.72266 1.15234,29.19141 -1.03906,3.77734 -2.28125,7.24609 -3.62109,10.46484 5.26562,-3.83203 11.85162,-5.59375 18.46092,-4.78125 l 1.1172,0.13282 c 8.7031,0.97656 16.293,6.25 20.2735,14.10156 3.957,7.73437 3.7773,16.92578 -0.5,24.56641 -2.4805,4.43359 -4.9297,8.60546 -7.8829,13.59765 -4.8906,8.27344 -9.9375,16.82813 -14,25.50391 l -0.1289,0.26562 c -0.078,0.17969 -0.1914,0.39453 -0.3007,0.60938 1.4609,4.80469 2.2109,9.6875 2.8828,14.04687 0.1875,1.26172 0.6093,4.0625 0.8789,5.27344 l 0.027,0.0742 c 0.082,0.19141 0.1914,0.44922 0.3321,0.76172 l 0.039,0.0976 c 0.5703,1.26563 1.5625,3.26172 3.0313,5.5586 l 0.098,0.15234 c 1.3321,2.125 2.8516,4.28906 4.4727,6.375 l 10.3594,-2.47656 c 0.539,-0.125 1,-0.21484 1.4609,-0.28906 l 1.7305,-0.32032 32.9297,-6.30078 c 3.1406,-0.57422 6.3906,-1.14453 9.7382,-1.6875 5.0313,-0.8125 10.2696,-1.5625 15.6602,-2.17968 0.8906,-0.10157 1.8008,-0.19922 2.6992,-0.29297 7.25,-0.75391 14.7305,-1.24219 22.2813,-1.27735 12.2695,-0.0586 24.7304,1.07032 36.6484,4.16797 6.5625,1.70313 16.0312,5.15235 23.8828,11.91016 7.3594,6.25781 11.9102,13.86328 13.5078,22.58984 4.4297,23.9336 -15.9297,44.61328 -34.7109,55.04688 z m 43.5625,-56.6875 c -1.961,-10.66016 -7.6797,-20.27735 -16.4922,-27.76953 -9.1602,-7.88672 -20.0078,-11.85938 -27.4883,-13.80079 -31.039,-8.07031 -64.8984,-3.63281 -90.9414,1.13282 l -32.8984,6.29687 -1.6992,0.3125 c -0.5899,0.0977 -1.1797,0.21875 -1.793,0.35547 -0.019,0.004 -0.09,0.0195 -0.1094,0.0234 l -4.5391,1.08594 c -0.2109,-0.33204 -0.4296,-0.66407 -0.6289,-0.99219 l -0.1523,-0.23438 c -1.1172,-1.74609 -1.8789,-3.2539 -2.3594,-4.30859 -0.1484,-0.81641 -0.3594,-2.13672 -0.6289,-3.96875 -0.5391,-3.48828 -1.1719,-7.57422 -2.2109,-11.80078 3.7109,-7.60547 8.2304,-15.25781 12.6094,-22.67578 2.9804,-5.04688 5.4609,-9.26563 7.9804,-13.77735 5.75,-10.27734 6,-22.64843 0.6719,-33.03515 -5.3516,-10.5625 -15.5625,-17.65625 -27.2305,-18.96875 l -1.082,-0.12891 c -2.0078,-0.24609 -4.0195,-0.31641 -6,-0.21875 1.582,-9.93359 0.6328,-20.625 -2.7383,-29.06641 -6.58593,-16.45703 -23.91014,-30.15234 -33.08202,-35.63671 -11.83594,-7.11328 -26.8125,-6.60547 -38.11328,1.27343 l -0.23047,0.16016 c -11.23047,7.95703 -16.79687,21.82422 -14.17969,35.32422 0.8711,4.7539 -5.74609,20.53906 -7.92968,25.74219 l -0.51172,1.22265 c -0.71875,1.72266 -1.41407,3.38281 -2.07032,5.03125 -4.48828,-1.03125 -9.13671,-1.625 -13.83203,-1.76172 -19.98047,-0.60156 -35.82422,6.92188 -41.70703,10.17969 -1.67969,0.92969 -3.33203,1.91797 -4.94922,2.96094 -8.24609,-10.40235 -20.13672,-16.82813 -33.58203,-18.09766 C 823.49609,162.51172 822.76562,122.76953 798.23437,91.375 777.45312,64.777344 743.67578,52.902344 697.84375,56.070313 c -40.32813,2.792968 -82.96094,20.730468 -120.04688,50.499997 -0.26953,0.21875 -0.55468,0.4336 -0.84765,0.65235 l -0.14063,0.10937 c -2.00781,1.52344 -5.03906,3.82031 -8.03125,7.03906 -7.71875,8.30079 -10.29297,20.14063 -6.71484,30.89844 1.26562,3.80078 2.53516,7.60547 3.82812,11.39844 1.45313,4.26562 3.82422,8.125 6.88672,11.33594 -3.19531,10.02734 -6.41406,20.61328 -9.72265,31.98046 -3.64844,-0.74609 -7.34766,-1.17578 -11.07813,-1.28515 -16.78125,-0.49219 -32.5664,6 -45.8125,18.80469 -6.55469,-3.23047 -12.94922,-5.16407 -17.38672,-6.50782 l -1.0664,-0.32031 c -2.53907,-0.77344 -10.25782,-3.12109 -19.61719,-0.79297 -3.33203,0.82422 -6.41797,2.10547 -9.21094,3.80469 -9.69922,-7.23438 -21.625,-10.9375 -32.55859,-9.62109 -2.63281,0.32031 -5.8711,1.04687 -9.2461,2.58984 -0.14062,-0.0625 -0.27734,-0.12109 -0.41796,-0.18359 -2.71485,-1.17188 -5.34375,-2.17969 -7.55079,-3.00782 -1.08984,-0.41015 -2.17968,-0.80859 -3.27343,-1.21093 -1.9961,-0.73438 -3.88282,-1.42969 -5.58203,-2.11329 -0.55079,-0.21875 -1.54688,-0.69531 -2.57032,-1.1875 l -1.33593,-0.63671 c -8.40625,-3.97266 -18.05079,-3.97657 -26.46094,-0.0156 -1.59375,0.75391 -3.11719,1.63672 -4.55469,2.64453 -2.53125,-0.71094 -5.08984,-1.25 -7.67187,-1.61328 0.66406,-2.24219 1.13281,-4.65234 1.30078,-7.19922 16.9375,-13.17969 21.92187,-36.37109 17.51562,-53.82812 -3.61719,-14.34766 -13.05859,-25.21485 -25.90625,-29.82031 -10.1289,-3.625 -21.40625,-2.9375 -31.89453,1.78515 -5.28516,-2.28125 -11.28516,-3.38281 -18.76562,-3.5 -7.6875,-0.0977 -15.66407,1.2461 -23.75391,3.98047 -1.22656,0.41406 -2.41797,0.85547 -3.57813,1.32422 -1.67187,-10.55078 -5.26953,-20.554689 -10.73828,-29.675782 -1.02734,-1.71875 -2.1289,-3.414063 -3.26562,-5.035157 C 235.85937,44.921875 192.78906,39.515625 160.17969,48.558594 144.5,52.90625 124.03906,59.742188 104.84766,74.152344 c -4.47657,3.359375 -9.144535,7.324219 -14.671879,12.464844 -17.902343,16.585942 -37.15625,38.042972 -44.230468,71.441402 -3.210938,15.14453 -0.117188,30.42578 8.941406,44.1875 6.738281,10.23047 16.839844,19.32813 27.039062,24.33594 3.253907,1.59766 6.714844,2.90625 10.246094,3.89063 -2.820312,11.70312 -5.421875,23.26171 -7.765625,34.49218 -0.546875,2.62891 -1.113281,5.25782 -1.683594,7.89063 l -0.03125,0.14844 c -1.804687,8.33984 -3.667968,16.96093 -5.039062,26.00781 l -0.179688,1.17969 c -2.851562,18.71484 -7.621093,50.03515 10.371094,71.79296 6.3125,7.625 17.82813,16.86719 36.86719,17.58985 0.41797,0.0195 1.02344,0.043 1.76953,0.043 1.95312,0 3.89844,-0.16407 5.78515,-0.48828 9.83985,-1.69922 17.86329,-7.8125 22.20313,-16.10547 4.1875,2.67187 8.73437,4.83984 13.58594,6.46093 4.54687,1.54297 9.52343,2.40235 14.80078,2.55469 7.99609,0.23828 16.58203,-1.21875 23.49609,-3.95703 6.63672,-2.58984 13.83203,-7.01953 20.69141,-12.62109 0.0195,0.0234 0.043,0.0508 0.0625,0.0781 9.23047,11.79688 22.64844,18.38281 37.80078,18.54688 l 0.44922,0.004 c 8.70703,0 17.3164,-2.60156 24.92969,-7.54297 5.16015,-3.37109 9.28906,-7.28125 12.63281,-11.21875 3.94922,3.8086 8.35547,7.01172 13.19922,9.58204 6.44922,3.42968 13.26562,5.51562 20.30078,6.22265 0.87109,4.89063 2.71094,10.36328 6.05078,16.28125 4.30859,7.63281 11.19531,16.28125 21.09375,26.47266 l 0.51562,0.52734 c 18.42579,18.9961 40.71094,34.0625 64.47266,43.57813 15.14453,6.03906 31.63281,10.8789 49,14.3789 27.08594,5.46094 57.16016,8.11328 91.94531,8.11328 8.72657,0 17.98438,-0.16796 27.51563,-0.49609 22.14453,-0.76953 38.3789,-1.75391 51.08203,-3.09766 20.74219,-2.19531 39.71094,-4.34765 61.82422,-8.47265 11.79297,-2.19922 24.15234,-4.76563 38.89062,-8.07422 36.97266,-8.30469 73.33203,-17.64453 108.07422,-27.75781 l 2.10156,-0.61328 c 8.7461,-2.54688 17.78516,-5.17969 26.75,-7.73438 26.48438,-7.55469 95.25,-28.92187 103.58594,-31.92187 l 5.75781,-2.07032 c 21.33208,11.38282 51.38278,18.58203 81.94138,19.48828 33.8321,1.00391 64.5899,-4.73828 84.3399,-15.75 21.3906,-11.88671 44.4922,-35.92187 39.1914,-64.55468"
       id="path943" />
  </g>
</svg>
